<?xml version="1.0" standalone="no"?>
<!DOCTYPE svg PUBLIC "-//W3C//DTD SVG 1.1//EN" "http://www.w3.org/Graphics/SVG/1.1/DTD/svg11.dtd" >
<svg xmlns="http://www.w3.org/2000/svg" xmlns:xlink="http://www.w3.org/1999/xlink" version="1.1">
<metadata></metadata>
<defs>
<font id="pt_sans_captionregular" horiz-adv-x="984" >
<font-face units-per-em="2048" ascent="1577" descent="-471" />
<missing-glyph horiz-adv-x="481" />
<glyph horiz-adv-x="0" />
<glyph unicode="&#xd;" horiz-adv-x="481" />
<glyph unicode=" "  horiz-adv-x="481" />
<glyph unicode="&#x09;" horiz-adv-x="481" />
<glyph unicode="&#xa0;" horiz-adv-x="481" />
<glyph unicode="!" horiz-adv-x="548" d="M191 84q0 48 30.5 76.5t80.5 28.5t80.5 -28t30.5 -77q0 -44 -30.5 -74t-80.5 -30q-49 0 -80 30t-31 74zM220 592v570h166v-570l-33 -287h-99z" />
<glyph unicode="&#x22;" horiz-adv-x="622" d="M163 833v329h152l-58 -329h-94zM378 833v329h153l-58 -329h-95z" />
<glyph unicode="#" d="M43 367l28 119h144l54 206h-135l29 119h138l66 256h134l-66 -256h187l66 256h135l-66 -256h137l-31 -119h-138l-54 -206h132l-32 -119h-130l-72 -272h-132l69 272h-188l-69 -272h-135l70 272h-141zM350 486h188l52 206h-187z" />
<glyph unicode="$" d="M133 36l51 140q38 -20 100.5 -37t152.5 -22v415q-55 24 -109 51.5t-96.5 66t-68 92.5t-25.5 130q0 130 74.5 209t224.5 97v149h130v-146q92 -3 151.5 -16.5t107.5 -34.5l-48 -136q-33 16 -84.5 29.5t-126.5 18.5v-380q57 -25 113 -54t101 -69t72 -93t27 -128 q0 -137 -80 -222.5t-233 -108.5v-153h-130v144q-102 3 -180 19t-124 39zM301 885q0 -67 49.5 -108t122.5 -74v339q-96 -8 -134 -52.5t-38 -104.5zM531 122q84 9 135.5 53t51.5 127q0 37 -15 64.5t-40.5 50.5t-59.5 41t-72 34v-370z" />
<glyph unicode="%" horiz-adv-x="1415" d="M123 899q0 73 21.5 126t59.5 88t90.5 51.5t113.5 16.5q62 0 114 -16t91 -49t60.5 -87t21.5 -130t-21.5 -130t-60.5 -87t-91 -49t-114 -16q-61 0 -113.5 16t-90.5 49t-59.5 87t-21.5 130zM220 60l948 1123l96 -80l-949 -1125zM269 899q0 -90 35.5 -132t103.5 -42 q67 0 104 38t37 136q0 100 -36.5 137t-104.5 37q-66 0 -102.5 -37t-36.5 -137zM785 282q0 73 21.5 126t59.5 88t90 51.5t114 16.5t114 -16t91 -49t60.5 -87t21.5 -130t-21.5 -130t-60.5 -87t-91 -49t-114 -16t-114 16t-90 49t-59.5 87t-21.5 130zM931 282q0 -90 35.5 -132 t103.5 -42q66 0 103.5 38t37.5 136q0 100 -36.5 137t-104.5 37q-66 0 -102.5 -37t-36.5 -137z" />
<glyph unicode="&#x26;" horiz-adv-x="1477" d="M207 313q0 67 25 125.5t67.5 111t98 95.5t116.5 77q-43 58 -73.5 116.5t-30.5 127.5q0 39 15 78t47.5 70t84 50t123.5 19q77 0 129 -18.5t83.5 -47.5t45 -65.5t13.5 -73.5q0 -68 -57.5 -142.5t-185.5 -138.5q63 -97 147.5 -193t173.5 -179q20 20 40.5 50t39 65t35 70.5 t27.5 68.5l119 -61q-9 -29 -29 -67t-44 -77t-49 -74.5t-47 -60.5q36 -32 65.5 -54t55.5 -38.5t49 -30t48 -24.5l-93 -114q-46 24 -102 62t-114 91q-33 -30 -72 -57.5t-88 -48t-109 -34t-131 -13.5q-86 0 -162.5 22.5t-134.5 65.5t-92 105.5t-34 141.5zM365 320q0 -48 23 -87 t62 -66.5t91.5 -41.5t110.5 -14q43 0 85.5 10t80 26t67 36.5t49.5 42.5q-49 46 -100 101t-96 108.5t-83.5 103.5t-67.5 88q-98 -66 -160 -138.5t-62 -168.5zM567 962q0 -46 21 -91.5t56 -94.5q93 53 130 96t37 77q0 53 -27 84t-97 31q-63 0 -91.5 -28t-28.5 -74z" />
<glyph unicode="'" horiz-adv-x="404" d="M163 833v329h152l-58 -329h-94z" />
<glyph unicode="(" horiz-adv-x="520" d="M109 403q0 92 16 193t52.5 203t95.5 200t145 182l96 -71q-71 -83 -119 -171.5t-76.5 -179.5t-40.5 -181t-12 -175q0 -79 13.5 -170.5t44.5 -183.5t78.5 -180t113.5 -159l-103 -75q-84 79 -141.5 174.5t-94 196t-52.5 202.5t-16 195z" />
<glyph unicode=")" horiz-adv-x="520" d="M5 -290q66 71 113.5 159t78.5 180t44.5 183t13.5 171q0 85 -12 175t-40.5 181t-76.5 179.5t-120 171.5l97 71q86 -84 145 -182t95.5 -200t52 -203.5t15.5 -192.5q0 -93 -15.5 -195t-52 -202.5t-93.5 -195.5t-142 -175z" />
<glyph unicode="*" horiz-adv-x="641" d="M75 910v105h91l113 -23l-83 78l-49 79l92 52l46 -73l32 -98l35 97l44 74l90 -50l-48 -78l-83 -81l123 23h87v-105h-84l-114 24l83 -83l41 -68l-88 -52l-47 75l-41 104l-31 -99l-45 -75l-95 52l50 75l77 71l-105 -24h-91z" />
<glyph unicode="+" horiz-adv-x="918" d="M71 489v140h317v315h143v-315h317v-140h-317v-316h-143v316h-317z" />
<glyph unicode="," horiz-adv-x="372" d="M86 -173q63 22 95.5 69t30.5 96q-44 -13 -79 9.5t-35 76.5q0 43 31.5 70.5t76.5 27.5q58 0 94.5 -39t36.5 -109q0 -64 -19 -111.5t-49 -81.5t-65.5 -54t-70.5 -30z" />
<glyph unicode="-" horiz-adv-x="652" d="M106 408v143h442v-143h-442z" />
<glyph unicode="." horiz-adv-x="394" d="M86 84q0 48 30.5 76.5t81.5 28.5q49 0 80 -28t31 -77q0 -44 -31 -74t-80 -30q-50 0 -81 30t-31 74z" />
<glyph unicode="/" horiz-adv-x="656" d="M-63 -173l660 1354l123 -56l-662 -1357z" />
<glyph unicode="0" d="M73 581q0 290 106 446t313 156q219 0 320.5 -154.5t101.5 -447.5q0 -289 -108 -446t-315 -157q-109 0 -188 43.5t-129.5 122t-75.5 190t-25 247.5zM236 581q0 -101 15 -186.5t45 -149t79 -99t117 -35.5q135 0 197.5 116t62.5 354q0 101 -13.5 186.5t-44.5 148t-80.5 98.5 t-121.5 36q-134 0 -195 -117.5t-61 -351.5z" />
<glyph unicode="1" d="M119 894l400 287h73v-1042h249v-139h-654v139h253v771l19 102l-73 -83l-197 -133z" />
<glyph unicode="2" d="M108 0v60q39 38 94.5 93.5t116.5 122.5t119.5 141.5t105 152t76 152t29.5 141.5q0 77 -48.5 128.5t-147.5 51.5q-70 0 -134.5 -26t-111.5 -64l-68 111q68 55 154.5 87t190.5 32q154 0 240.5 -80.5t86.5 -213.5q0 -84 -35 -173t-90.5 -177t-124.5 -174t-138 -166l-89 -71 v-6l119 17h386v-139h-731z" />
<glyph unicode="3" d="M152 25l42 136q43 -20 100.5 -33.5t128.5 -13.5q61 0 112.5 16.5t88 46.5t57 71.5t20.5 91.5q0 110 -72.5 163t-207.5 53h-134v63l254 345l86 73l-122 -15h-349v140h655v-65l-280 -377l-67 -49v-4l63 12q72 -2 132.5 -25.5t105 -65.5t69.5 -101t25 -132 q0 -93 -34.5 -162.5t-94.5 -117.5t-139.5 -72.5t-170.5 -24.5q-81 0 -149.5 12.5t-118.5 34.5z" />
<glyph unicode="4" d="M32 350v70l600 758h112v-698h212v-130h-212v-350h-154v350h-558zM206 466l124 14h260v336l16 133h-6l-61 -108l-246 -297z" />
<glyph unicode="5" d="M133 16l43 133q41 -15 88.5 -23.5t120.5 -8.5q124 0 203.5 61t79.5 178q0 115 -80 172.5t-223 57.5l-151 -7v583h576v-147h-430v-300l78 3q90 0 161 -25t121.5 -69.5t78 -110t27.5 -148.5q0 -94 -34.5 -166.5t-95.5 -121.5t-142 -74t-174 -25q-79 0 -138.5 10t-108.5 28z " />
<glyph unicode="6" d="M103 396q0 160 46.5 296.5t128.5 241t194 169.5t245 80l31 -126q-99 -13 -181.5 -58.5t-144.5 -111.5t-102 -146.5t-53 -162.5q15 21 39 42.5t57 38.5t75 26.5t89 9.5q85 0 154 -24t116 -69t73 -108t26 -142q0 -73 -27 -140.5t-76 -119.5t-122.5 -83t-165.5 -31 q-90 0 -164 28.5t-127 81.5t-82 131t-29 177zM255 375q0 -48 15 -95.5t46.5 -84.5t79 -60.5t110.5 -23.5q51 0 93.5 18t73 50t48 73.5t17.5 87.5q0 110 -60.5 166t-181.5 56q-89 0 -150.5 -38t-87.5 -86q-3 -22 -3 -34.5v-28.5z" />
<glyph unicode="7" d="M103 1015v147h769v-49l-522 -1113h-159l447 951l80 81l-107 -17h-508z" />
<glyph unicode="8" d="M117 282q0 104 60 178.5t183 136.5q-45 25 -84 52.5t-68 62.5t-45.5 78t-16.5 98q0 63 25 117t71 93.5t112.5 62t150.5 22.5q76 0 138 -20t106 -56.5t68 -85.5t24 -107q0 -95 -46.5 -166t-153.5 -137q47 -27 89.5 -56t73 -65.5t48 -81t17.5 -101.5q0 -71 -25.5 -131 t-75.5 -104t-122 -69t-163 -25q-89 0 -155.5 24.5t-114 65t-72 96t-24.5 118.5zM267 304q0 -38 15 -73t43 -61.5t70 -42.5t96 -16q44 0 86 12.5t72.5 35.5t49 59t18.5 83q0 44 -22 79.5t-57.5 65t-81.5 53t-93 47.5q-107 -54 -151.5 -119.5t-44.5 -122.5zM301 891 q0 -45 19.5 -80t52 -62t76 -49.5t89.5 -44.5q76 55 114 110t38 118q0 40 -15.5 70t-41 52t-60.5 33.5t-74 11.5q-48 0 -84.5 -14t-62.5 -36.5t-38.5 -50.5t-12.5 -58z" />
<glyph unicode="9" d="M88 808q0 77 25.5 146.5t75.5 120t124.5 79.5t172.5 29q93 0 167 -30t125 -85t79 -132.5t28 -175.5q0 -187 -47.5 -328.5t-131.5 -238.5t-195.5 -150t-241.5 -65l-33 125q104 11 187 50.5t142.5 99.5t97.5 137.5t54 166.5q-25 -26 -50.5 -44.5t-56.5 -29t-68 -15 t-86 -4.5q-73 0 -140 23.5t-118 66.5t-80.5 107t-29.5 147zM247 820q0 -111 68 -168.5t176 -57.5q88 0 148.5 28t88.5 68q3 20 3 35v33q0 55 -15 108t-45 94.5t-78.5 67t-114.5 25.5q-109 0 -170 -62t-61 -171z" />
<glyph unicode=":" horiz-adv-x="452" d="M164 84q0 48 31 76.5t80 28.5q50 0 80.5 -28t30.5 -77q0 -44 -30.5 -74t-80.5 -30q-49 0 -80 30t-31 74zM164 738q0 48 31 76t80 28q50 0 80.5 -27.5t30.5 -76.5q0 -45 -30.5 -75t-80.5 -30q-49 0 -80 30t-31 75z" />
<glyph unicode=";" horiz-adv-x="459" d="M143 -173q63 22 95.5 69t30.5 96q-45 -13 -80 9.5t-35 76.5q0 43 31.5 70.5t76.5 27.5q59 0 95 -39t36 -109q0 -64 -19 -111.5t-48.5 -81.5t-65.5 -54t-71 -30zM163 738q0 48 30.5 76t80.5 28q49 0 80 -27.5t31 -76.5q0 -45 -31 -75t-80 -30q-50 0 -80.5 30t-30.5 75z " />
<glyph unicode="&#x3c;" horiz-adv-x="918" d="M73 497v64l695 392l70 -120l-425 -239l-166 -62l164 -52l435 -238l-68 -116z" />
<glyph unicode="=" horiz-adv-x="918" d="M71 347v139h777v-139h-777zM71 632v139h777v-139h-777z" />
<glyph unicode="&#x3e;" horiz-adv-x="918" d="M73 834l66 119l707 -375v-64l-697 -389l-68 119l425 239l165 61l-163 53z" />
<glyph unicode="?" horiz-adv-x="793" d="M62 1092q69 43 147 67t193 24q81 0 142.5 -21.5t102.5 -59t62 -88t21 -108.5q0 -78 -25 -133.5t-61 -99t-79.5 -80t-80 -77t-61 -90t-24.5 -121.5h-133q-7 83 12 143t52.5 106t74 82.5t76 73.5t59.5 78t24 97q0 72 -44 118.5t-153 46.5q-66 0 -135 -25t-118 -53zM229 84 q0 48 30.5 76.5t80.5 28.5t80.5 -28t30.5 -77q0 -44 -30.5 -74t-80.5 -30q-49 0 -80 30t-31 74z" />
<glyph unicode="@" horiz-adv-x="1928" d="M154 391q0 186 68 337t185 258.5t271.5 166t328.5 58.5q163 0 303 -47.5t243.5 -134.5t162.5 -210.5t59 -277.5q0 -103 -40 -198.5t-108.5 -169t-160 -118t-193.5 -44.5q-47 0 -83 11t-58 36.5t-28.5 69t4.5 108.5h-6q-27 -40 -62 -80t-76 -72.5t-90 -52.5t-104 -20 q-43 0 -81.5 18.5t-67.5 52.5t-45.5 80.5t-16.5 103.5q0 99 37 198.5t102 179t150.5 129.5t180.5 50q66 0 107.5 -19t79.5 -46l61 55h70l-93 -468q-20 -104 -13.5 -154t66.5 -50t119 28.5t104.5 80.5t74.5 126t29 165q0 131 -48.5 231t-132.5 168t-201 103t-253 35 q-148 0 -276 -51.5t-222 -141.5t-149 -213.5t-55 -269.5q0 -144 48 -261.5t138.5 -199.5t219 -126t288.5 -44q53 0 118 12.5t121 35.5l38 -124q-80 -34 -150 -45t-152 -11q-173 0 -321 50t-257 146.5t-171.5 236.5t-62.5 319zM712 292q0 -60 27 -105.5t102 -45.5 q35 0 73.5 23t75.5 61.5t71 86.5t60 98l50 225q-30 32 -60 45t-76 13q-69 0 -128 -38t-102.5 -97t-68 -129.5t-24.5 -136.5z" />
<glyph unicode="A" horiz-adv-x="1069" d="M13 0l478 1178h87l479 -1178h-172l-127 304h-459l-123 -304h-163zM348 443h362l-134 330l-45 178h-4l-44 -181z" />
<glyph unicode="B" horiz-adv-x="1062" d="M147 8v1143q68 11 160 18t196 7q71 0 146.5 -12.5t137 -44t101 -86.5t39.5 -140q0 -43 -14 -85.5t-43 -80t-73.5 -66t-106.5 -41.5v-6q54 -6 103 -26.5t87.5 -55.5t62 -84t23.5 -118q0 -89 -41.5 -155t-109.5 -108t-153.5 -62t-172.5 -20q-30 0 -73 1t-90 3.5t-94.5 6.5 t-84.5 12zM310 136q12 -3 35.5 -4.5t50.5 -3.5t54.5 -2.5t50.5 -0.5q56 0 108.5 11t92 36.5t64 63.5t24.5 90q0 67 -29.5 106t-76 60t-104.5 26.5t-114 5.5h-156v-388zM310 654h92q31 0 72.5 2.5t69.5 5.5q42 11 79 28.5t65.5 42t45 56.5t16.5 74q0 56 -22.5 90t-59 52.5 t-83 25t-94.5 6.5q-58 0 -107 -2.5t-74 -5.5v-375z" />
<glyph unicode="C" horiz-adv-x="1034" d="M96 581q0 163 50 277t129.5 186t179 105.5t197.5 33.5q109 0 179 -11.5t118 -30.5l-37 -142q-81 38 -247 38q-75 0 -145 -24t-125.5 -78.5t-89 -141.5t-33.5 -212q0 -113 31.5 -198.5t87 -143t131 -86t165.5 -28.5q81 0 141 14.5t101 37.5l40 -128q-55 -39 -139.5 -55 t-179.5 -16q-111 0 -211 35.5t-177 110t-121.5 187.5t-44.5 270z" />
<glyph unicode="D" horiz-adv-x="1185" d="M147 -2v1164q34 4 78 6.5t91.5 4t92.5 2.5t83 1q153 0 265 -44t186 -122t110.5 -185.5t36.5 -235.5q0 -116 -34 -225t-109 -193.5t-192 -135.5t-282 -51q-28 0 -75.5 1.5t-97.5 3t-92 4t-61 5.5zM313 136q9 -2 33 -2.5t50.5 -1.5t50 -1.5t33.5 -0.5q124 0 207.5 38.5 t134 103.5t71.5 147t21 170q0 74 -20 152.5t-68 142t-127.5 105t-201.5 41.5h-49.5t-52.5 -1.5t-48 -3t-34 -3.5v-886z" />
<glyph unicode="E" horiz-adv-x="970" d="M147 0v1162h703v-144h-537v-353h490v-143h-490v-379h545v-143h-711z" />
<glyph unicode="F" horiz-adv-x="937" d="M147 0v1162h703v-144h-537v-369h498v-143h-498v-506h-166z" />
<glyph unicode="G" horiz-adv-x="1108" d="M96 581q0 161 52.5 275t135.5 187t185 106.5t202 33.5q110 0 182.5 -12.5t120.5 -30.5l-40 -141q-86 38 -249 38q-74 0 -148 -23t-133 -77t-95.5 -141.5t-36.5 -214.5q0 -118 31 -204.5t85.5 -143t129 -82.5t162.5 -26q55 0 105.5 10.5t88.5 30.5v293l-296 30v97h434 v-513q-30 -24 -71.5 -41t-89 -28.5t-97 -18.5t-97.5 -7q-119 0 -221 35.5t-178 110.5t-119 188.5t-43 268.5z" />
<glyph unicode="H" horiz-adv-x="1215" d="M147 0v1162h166v-497h589v497h166v-1162h-166v519h-589v-519h-166z" />
<glyph unicode="I" horiz-adv-x="660" d="M114 0v109h133v942h-133v111h432v-111h-133v-942h133v-109h-432z" />
<glyph unicode="J" horiz-adv-x="538" d="M-58 11l31 138q44 -19 105 -19h6q75 0 99 48t24 132v852h166v-896q0 -130 -67 -206t-198 -76q-16 0 -39 1.5t-46 5.5t-44.5 9t-36.5 11z" />
<glyph unicode="K" horiz-adv-x="1109" d="M147 0v1162h166v-535l77 23l418 512h189l-418 -499l-78 -55l91 -67l461 -541h-209l-450 527h-81v-527h-166z" />
<glyph unicode="L" horiz-adv-x="938" d="M147 0v1162h166v-1016h594v-146h-760z" />
<glyph unicode="M" horiz-adv-x="1439" d="M147 0v1162h125l393 -593l62 -126h3l58 130l374 589h130v-1162h-165v748l18 186h-7l-71 -161l-323 -515h-51l-340 516l-68 158h-8l27 -182v-750h-157z" />
<glyph unicode="N" horiz-adv-x="1219" d="M147 0v1178h94l592 -754l94 -153h9l-21 153v738h157v-1178h-94l-588 754l-100 163h-6l20 -163v-738h-157z" />
<glyph unicode="O" horiz-adv-x="1238" d="M96 581q0 142 36 254t103 189.5t164 118t220 40.5q131 0 229.5 -44t164 -123t98 -190t32.5 -245q0 -143 -35.5 -255t-103.5 -189t-165.5 -118t-219.5 -41q-133 0 -231 44t-162.5 123t-97 190t-32.5 246zM272 581q0 -95 20.5 -178t63.5 -146t108 -99t155 -36 q161 0 254.5 110.5t93.5 348.5q0 93 -20.5 175.5t-63 146t-108 100.5t-156.5 37q-160 0 -253.5 -112.5t-93.5 -346.5z" />
<glyph unicode="P" horiz-adv-x="1018" d="M147 0v1149q70 15 152.5 21t161.5 6q84 0 171.5 -15t159 -54.5t117 -110t45.5 -181.5q0 -105 -41.5 -179t-110.5 -120t-157.5 -68t-183.5 -22q-10 0 -30.5 1t-43 1.5t-43.5 2.5t-31 4v-435h-166zM313 578q9 -4 28 -4.5t40 -2.5t40 -2h29q59 0 117 9t105.5 36t76.5 74.5 t29 124.5q0 67 -28 110t-73 67.5t-100.5 34t-110.5 9.5q-45 0 -87 -2t-66 -8v-446z" />
<glyph unicode="Q" horiz-adv-x="1238" d="M96 581q0 142 36 254t103 189.5t164 118t220 40.5q131 0 229.5 -44t164 -123t98 -190t32.5 -245q0 -143 -35.5 -255t-103.5 -189t-165.5 -118t-219.5 -41q-133 0 -231 44t-162.5 123t-97 190t-32.5 246zM272 581q0 -95 20.5 -178t63.5 -146t108 -99t155 -36 q161 0 254.5 110.5t93.5 348.5q0 93 -20.5 175.5t-63 146t-108 100.5t-156.5 37q-160 0 -253.5 -112.5t-93.5 -346.5zM383 -76q50 10 100 10q74 0 149.5 -17.5t153 -37.5t159.5 -37.5t171 -17.5q38 0 79 4t84 14v-143q-43 -11 -86.5 -15t-86.5 -4q-91 0 -178 17.5t-167.5 38 t-155 38t-141.5 17.5q-41 0 -81 -10v143z" />
<glyph unicode="R" horiz-adv-x="1082" d="M147 0v1149q35 7 77.5 12t85.5 8.5t86.5 5t81.5 1.5q83 0 160 -16.5t136 -54.5t94.5 -99.5t35.5 -150.5q0 -70 -21.5 -127t-59.5 -99.5t-90.5 -72t-113.5 -43.5l86 -59l312 -454h-191l-345 489l-168 24v-513h-166zM313 622h137q59 0 110 12.5t88 38t58.5 67.5t21.5 101 q0 90 -63 141.5t-182 51.5h-48t-47 -2t-43 -3.5t-32 -4.5v-402z" />
<glyph unicode="S" horiz-adv-x="963" d="M79 43l55 144q42 -22 125.5 -43.5t185.5 -21.5q58 0 107.5 10.5t87 32.5t58 57.5t20.5 82.5q0 68 -44.5 108t-113 69t-146 54.5t-145.5 65.5t-113 103t-45 164q0 141 103.5 227.5t296.5 86.5q111 0 204 -17t146 -43l-52 -140q-41 22 -124 39.5t-182 17.5 q-113 0 -169.5 -48t-56.5 -112t45 -104t113 -70t146 -58.5t146 -70t113 -102t45 -155.5q0 -78 -30 -141t-86.5 -107.5t-136.5 -69t-181 -24.5q-136 0 -229.5 21t-142.5 44z" />
<glyph unicode="T" horiz-adv-x="1011" d="M32 1015v147h948v-147h-391v-1015h-166v1015h-391z" />
<glyph unicode="U" horiz-adv-x="1177" d="M147 370v792h166v-729q0 -169 74 -235.5t219 -66.5q139 0 203.5 73t64.5 234v724h156v-759q0 -107 -30.5 -185.5t-87 -130.5t-134 -77t-170.5 -25q-224 0 -342.5 97t-118.5 288z" />
<glyph unicode="V" horiz-adv-x="1041" d="M-5 1162h182l314 -774l43 -181h4l44 184l298 771h167l-482 -1178h-82z" />
<glyph unicode="W" horiz-adv-x="1513" d="M13 1162h174l223 -754l27 -194h3l30 197l257 751h82l259 -754l30 -194h4l31 197l206 751h162l-353 -1178h-95l-254 754l-34 176h-8l-34 -178l-253 -752h-97z" />
<glyph unicode="X" horiz-adv-x="1124" d="M45 0l419 590l-383 572h198l250 -382l45 -96l43 96l262 382h183l-395 -560l413 -602h-194l-277 405l-52 101l-46 -101l-283 -405h-183z" />
<glyph unicode="Y" horiz-adv-x="1023" d="M11 1162h195l290 -494l28 -106h3l32 109l277 491h176l-413 -706v-456h-166v454z" />
<glyph unicode="Z" horiz-adv-x="988" d="M65 0v146l625 803l81 66h-706v147h859v-147l-631 -808l-78 -61h709v-146h-859z" />
<glyph unicode="[" horiz-adv-x="557" d="M147 -382v1544h342v-133h-188v-1278h188v-133h-342z" />
<glyph unicode="\" horiz-adv-x="698" d="M-60 1121l126 60l667 -1352l-125 -61z" />
<glyph unicode="]" horiz-adv-x="557" d="M68 -249h189v1278h-189v133h342v-1544h-342v133z" />
<glyph unicode="^" horiz-adv-x="918" d="M101 714l340 464h64l311 -464h-162l-141 218l-43 115l-54 -116l-166 -217h-149z" />
<glyph unicode="_" horiz-adv-x="749" d="M0 -217h750v-130h-750v130z" />
<glyph unicode="`" horiz-adv-x="498" d="M100 1156v39h182l118 -250h-90z" />
<glyph unicode="a" horiz-adv-x="964" d="M75 232q0 75 32 129.5t83.5 89.5t117 51.5t130.5 16.5q51 0 87 -1.5t60 -4t40.5 -5t29.5 -3.5q4 25 5.5 42.5t1.5 46.5q0 46 -10 77.5t-32.5 50.5t-60.5 27.5t-93 8.5q-32 0 -70 -5t-76 -14t-75.5 -22.5t-67.5 -28.5l-41 128q149 72 370 72q100 0 160.5 -26t93.5 -65.5 t44 -88.5t11 -97q0 -92 -7 -184t-7 -199q0 -64 6 -123t19 -108h-111l-42 133h-16q-19 -26 -45 -51.5t-62.5 -45.5t-84 -33t-109.5 -13q-61 0 -112 17.5t-89 48.5t-59 77t-21 102zM237 249q0 -67 47.5 -100t122.5 -33q55 0 97 14t73 34.5t50 46.5t28 51v132q-13 2 -28 5.5 t-37.5 5.5t-53 3.5t-75.5 1.5q-103 0 -163.5 -36.5t-60.5 -124.5z" />
<glyph unicode="b" horiz-adv-x="1043" d="M146 46v1116h153v-399h16q38 66 109.5 98.5t151.5 32.5q181 0 274.5 -110.5t93.5 -332.5q0 -227 -123 -346.5t-345 -119.5q-109 0 -198 18.5t-132 42.5zM299 146q81 -32 197 -32q131 0 208.5 80.5t77.5 258.5q0 66 -13.5 123t-42 99t-70.5 66t-102 24q-53 0 -93.5 -17 t-72.5 -46t-54 -66t-35 -77v-413z" />
<glyph unicode="c" horiz-adv-x="877" d="M100 435q0 220 106.5 340.5t307.5 120.5q89 0 153 -16t116 -39l-39 -124q-45 23 -97.5 36t-114.5 13q-270 0 -270 -331q0 -63 15 -122t48 -104.5t87 -74t132 -28.5q70 0 122 19t87 46l50 -111q-59 -41 -136.5 -62t-163.5 -21q-109 0 -186.5 33t-125.5 93t-69.5 144.5 t-21.5 187.5z" />
<glyph unicode="d" horiz-adv-x="1043" d="M100 429q0 222 113 341t319 119q35 0 62.5 -2t51.5 -6t46.5 -10.5t47.5 -12.5v304h153v-861q0 -85 2 -159t15 -145h-101l-38 133h-16q-38 -67 -112 -110t-172 -43q-187 0 -279 111t-92 341zM258 428q0 -70 13.5 -128.5t42 -102t75 -67.5t114.5 -24q101 0 157.5 50.5 t79.5 150.5v403q-39 29 -82.5 39.5t-116.5 10.5q-134 0 -208.5 -78.5t-74.5 -253.5z" />
<glyph unicode="e" horiz-adv-x="991" d="M100 435q0 224 110 342.5t314 118.5q65 0 129.5 -14t116 -53t84 -107t32.5 -178q0 -26 -1.5 -61t-7.5 -68h-622q3 -153 73.5 -231t236.5 -78q70 0 133 24t98 57l59 -116q-59 -43 -145 -68.5t-188 -25.5q-109 0 -189.5 32t-132 92t-76 144.5t-24.5 189.5zM262 524h478v13 q0 123 -54 175q-57 54 -160 54q-116 0 -184 -54.5t-80 -187.5z" />
<glyph unicode="f" horiz-adv-x="603" d="M40 741v130h147v23q0 81 15 136.5t47.5 89.5t84.5 49t127 15q63 0 110.5 -7t98.5 -26l-33 -124q-43 19 -80.5 23.5t-72.5 4.5q-46 0 -74 -8.5t-44 -29t-21 -56t-5 -90.5h255v-130h-255v-741h-153v741h-147z" />
<glyph unicode="g" horiz-adv-x="1040" d="M100 428q0 223 116 344.5t345 121.5q109 0 188 -13t142 -35v-851q0 -171 -100.5 -254.5t-294.5 -83.5q-113 0 -182.5 13t-119.5 37l37 137q22 -10 50 -20.5t59.5 -19t64 -13.5t61.5 -5q81 0 134.5 14.5t85 44t43 76t11.5 111.5v61h-18q-27 -43 -93.5 -69.5t-160.5 -26.5 q-189 0 -278.5 102t-89.5 329zM262 431q0 -146 53.5 -225.5t185.5 -79.5q101 0 158.5 51.5t78.5 134.5v428q-38 11 -88 18t-112 7q-130 0 -203 -82.5t-73 -251.5z" />
<glyph unicode="h" horiz-adv-x="1062" d="M146 0v1162h153v-399h18q49 60 119 96.5t173 36.5q79 0 137 -17.5t96 -61.5t57 -118t19 -185v-514h-153v481q0 71 -9 123.5t-33.5 87.5t-65 51.5t-101.5 16.5q-43 0 -85 -15t-76.5 -41.5t-59.5 -64t-36 -83.5v-556h-153z" />
<glyph unicode="i" horiz-adv-x="525" d="M158 1078q0 38 30 69t77 31q48 0 79.5 -31t31.5 -69t-31.5 -67t-79.5 -29q-47 0 -77 29t-30 67zM189 0v871h153v-871h-153z" />
<glyph unicode="j" horiz-adv-x="516" d="M20 -219h7q50 0 80 13q32 15 49.5 45.5t23 76.5t5.5 109v846h154v-901q0 -161 -61 -239.5t-195 -78.5h-29t-34 3v126zM151 1078q0 38 30 69t77 31q48 0 79.5 -31t31.5 -69t-31.5 -67t-79.5 -29q-47 0 -77 29t-30 67z" />
<glyph unicode="k" horiz-adv-x="923" d="M146 0v1162h153v-687l86 28l288 368h180l-277 -337h2l-92 -66l104 -75l307 -393h-192l-312 391h-94v-391h-153z" />
<glyph unicode="l" horiz-adv-x="557" d="M166 174v988h152v-931q0 -68 26 -96.5t69 -28.5q27 0 51.5 3.5t59.5 13.5l20 -113q-16 -7 -39.5 -12.5t-48.5 -11t-49.5 -7.5t-45.5 -2q-90 0 -142.5 45.5t-52.5 151.5z" />
<glyph unicode="m" horiz-adv-x="1572" d="M146 0v871h104l30 -116h17q54 60 122.5 100.5t174.5 40.5q90 0 150 -38t92 -128q49 76 125.5 121t171.5 45q80 0 135.5 -18.5t90 -63t51 -121t16.5 -192.5v-501h-152v501q0 66 -7.5 114t-27.5 80.5t-55.5 48.5t-93.5 16q-95 0 -149.5 -50t-77.5 -149v-561h-153v478 q0 70 -6.5 123t-26.5 88.5t-55.5 53t-92.5 17.5q-88 0 -147 -49t-83 -125v-586h-153z" />
<glyph unicode="n" horiz-adv-x="1062" d="M146 0v871h106l30 -116h15q48 60 125 100.5t186 40.5q76 0 133.5 -17.5t96.5 -61.5t59.5 -118t20.5 -186v-513h-153v481q0 139 -44.5 209t-159.5 70q-102 0 -169 -52.5t-93 -133.5v-574h-153z" />
<glyph unicode="o" horiz-adv-x="1046" d="M100 435q0 108 28 193.5t83 145t133.5 91t179.5 31.5q106 0 186 -35t133 -97.5t78.5 -146t25.5 -182.5q0 -106 -29 -190.5t-82.5 -144.5t-132.5 -91.5t-179 -31.5q-109 0 -189 34.5t-132 96t-77.5 145.5t-25.5 182zM262 435q0 -62 14 -121t45.5 -105t81.5 -74.5 t123 -28.5q258 0 259 329q0 65 -14 124.5t-45 105t-81 73.5t-119 28q-130 0 -197 -81.5t-67 -249.5z" />
<glyph unicode="p" horiz-adv-x="1044" d="M146 -332v1203h103l30 -111h14q45 65 116.5 100.5t161.5 35.5q189 0 281.5 -105.5t92.5 -336.5q0 -109 -30 -197.5t-87.5 -151t-139.5 -95.5t-183 -33q-34 0 -61.5 2t-50.5 8.5t-46.5 13.5t-47.5 18v-351h-153zM299 163q38 -27 82.5 -42t114.5 -15q134 0 210.5 88 t76.5 262q0 141 -56 225.5t-191 84.5q-99 0 -156 -49.5t-81 -152.5v-401z" />
<glyph unicode="q" horiz-adv-x="1036" d="M100 428q0 227 118.5 344t348.5 117q49 0 98 -5t91.5 -12.5t77 -16.5t57.5 -19v-1168h-151l-2 427h-18q-38 -57 -97 -87.5t-153 -30.5q-370 0 -370 451zM262 431q0 -73 12.5 -132.5t41.5 -102t75 -66.5t112 -24q100 0 155.5 50t79.5 149v422q-76 33 -199 33 q-134 0 -205.5 -81.5t-71.5 -247.5z" />
<glyph unicode="r" horiz-adv-x="630" d="M146 0v871h106l30 -116h15q38 65 89 100.5t127 35.5q23 0 54.5 -4t62.5 -15l-30 -145q-28 8 -54.5 14.5t-49.5 6.5q-89 0 -137.5 -44.5t-59.5 -113.5v-590h-153z" />
<glyph unicode="s" horiz-adv-x="827" d="M90 48l43 133q46 -25 119 -50t148 -25q81 0 133.5 29t52.5 109q0 33 -16 55.5t-42.5 38t-61.5 27.5t-73 23q-48 13 -97 29t-88 43.5t-64 70.5t-25 110q0 129 77.5 192t216.5 63q105 0 176 -20t125 -43l-37 -130q-44 22 -106.5 42.5t-137.5 20.5q-81 0 -121 -26t-40 -96 q0 -28 15 -47t40 -33.5t58 -25.5t69 -20q50 -13 99.5 -30.5t91.5 -47t67.5 -74t25.5 -112.5q0 -124 -82.5 -200.5t-248.5 -76.5q-106 0 -185 21.5t-132 49.5z" />
<glyph unicode="t" horiz-adv-x="671" d="M40 741v130h147v176l153 39v-215h262v-130h-262v-444q0 -104 26.5 -147.5t91.5 -43.5q41 0 75 9.5t78 23.5l35 -107q-54 -24 -114.5 -39.5t-129.5 -15.5q-116 0 -165.5 63t-49.5 205v496h-147z" />
<glyph unicode="u" horiz-adv-x="1067" d="M146 356v515h153v-480q0 -69 8 -122.5t29.5 -89t59 -54.5t95.5 -19q99 0 162.5 56.5t96.5 139.5v569h152v-624q0 -63 5 -128.5t16 -118.5h-103l-40 144h-17q-43 -74 -119.5 -120.5t-190.5 -46.5q-76 0 -133.5 18t-96.5 62t-58 117t-19 182z" />
<glyph unicode="v" horiz-adv-x="886" d="M0 871h179l223 -501l57 -179l55 182l208 498h166l-407 -890h-66z" />
<glyph unicode="w" horiz-adv-x="1393" d="M13 871h168l184 -493l31 -174h15l47 178l201 489h117l143 -330l72 -168l44 -167h12l38 172l162 493h146l-317 -890h-82l-244 563v-1l-44 160l-49 -162v2l-234 -562h-80z" />
<glyph unicode="x" horiz-adv-x="981" d="M49 0l337 446l-313 425h194l170 -222l57 -118l68 118l176 222h172l-316 -418q82 -111 169 -225.5t169 -227.5h-188l-192 247l-66 125l-68 -125l-192 -247h-177z" />
<glyph unicode="y" horiz-adv-x="880" d="M13 871h181l222 -551l52 -168h21l42 170l181 549h156l-286 -788q-31 -81 -63.5 -157.5t-71.5 -135.5t-86.5 -94.5t-108.5 -35.5q-67 0 -113 15l25 129q26 -8 50 -8q33 0 60.5 8.5t50.5 30t42 60.5t36 100z" />
<glyph unicode="z" horiz-adv-x="853" d="M79 0v131l430 524l116 86h-546v130h686v-131l-435 -529l-116 -81h551v-130h-686z" />
<glyph unicode="{" horiz-adv-x="635" d="M98 326v127q70 0 107 34t37 107v386q0 79 43.5 131t130.5 52h166v-133h-93q-95 0 -95 -103v-371q0 -73 -38.5 -110.5t-88.5 -45.5v-14q48 -6 87.5 -49.5t39.5 -112.5v-370q0 -51 23 -77t74 -26h91v-133h-166q-81 0 -127.5 47t-46.5 134v380q0 84 -37 115.5t-107 31.5z " />
<glyph unicode="|" horiz-adv-x="427" d="M147 -215v1377h133v-1377h-133z" />
<glyph unicode="}" horiz-adv-x="635" d="M98 -249h91q95 0 95 103v372q0 73 38.5 110t87.5 46v12q-48 7 -87 50.5t-39 112.5v370q0 103 -97 103h-89v133h163q81 0 128.5 -46.5t47.5 -134.5v-380q0 -84 38 -116t107 -32v-125q-69 0 -107 -34t-38 -108v-386q0 -80 -44.5 -131.5t-134.5 -51.5h-160v133z" />
<glyph unicode="~" horiz-adv-x="918" d="M57 606q79 57 142 78t116 21q51 0 94.5 -14t84 -30.5t79 -30.5t79.5 -14q33 0 69.5 12.5t79.5 44.5l62 -117q-68 -43 -121.5 -60.5t-97.5 -17.5q-48 0 -89 14t-79.5 31.5t-77 32.5t-83.5 15q-41 0 -89.5 -18.5t-109.5 -63.5z" />
<glyph unicode="&#xa2;" d="M146 433q0 203 91.5 319.5t265.5 136.5v156h130v-154q64 -3 114.5 -15.5t93.5 -31.5l-45 -126q-39 21 -85 30.5t-91 12.5v-657q57 4 106.5 22t88.5 40l43 -109q-45 -27 -103 -46t-122 -27v-161h-130v157q-96 6 -164 43t-111 95.5t-62.5 138.5t-19.5 176zM296 433 q0 -55 11 -108t38.5 -96.5t70 -75t105.5 -44.5v649q-226 -30 -225 -325z" />
<glyph unicode="&#xa3;" d="M73 0v139h3q57 2 98 20t68 47.5t39 66.5t12 77q0 46 -9.5 84.5t-22.5 71.5h-188v132h120q-22 43 -37 92.5t-15 117.5q0 81 27.5 143t77.5 104.5t120.5 65t157.5 22.5q111 0 195 -18.5t137 -41.5l-50 -141q-38 20 -108.5 39t-171.5 19q-105 0 -162 -52t-57 -135 q0 -65 20 -115.5t45 -99.5h283v-132h-220q10 -31 16.5 -66t6.5 -75q0 -49 -17.5 -101t-50.5 -87l-67 -52v-9l106 23h460v-139h-816z" />
<glyph unicode="&#xa5;" d="M-6 1162h193l291 -494l28 -106h3l32 109l277 491h176l-359 -613h171v-109h-225v-122h225v-109h-225v-209h-166v209h-226v109h226v122h-226v109h169z" />
<glyph unicode="&#xa8;" horiz-adv-x="744" d="M100 1083q0 40 26 66.5t70 26.5q41 0 66.5 -26.5t25.5 -66.5q0 -38 -25.5 -64.5t-66.5 -26.5q-43 0 -69.5 26.5t-26.5 64.5zM456 1083q0 40 26 66.5t69 26.5t69 -26.5t26 -66.5q0 -38 -26 -64.5t-69 -26.5t-69 26.5t-26 64.5z" />
<glyph unicode="&#xa9;" horiz-adv-x="1439" d="M88 478q0 147 49.5 265t135 199.5t201 124.5t246.5 43t245.5 -43t200.5 -124.5t136 -199.5t50 -265q0 -148 -50 -265.5t-136 -199t-200.5 -124.5t-245.5 -43q-144 0 -260.5 43t-199.5 124.5t-127.5 199t-44.5 265.5zM224 478q0 -122 38.5 -215.5t105.5 -157.5t157.5 -97 t194.5 -33q105 0 195 33t157.5 97t105.5 157.5t38 215.5q0 121 -38 215t-105.5 157.5t-157.5 96.5t-195 33q-104 0 -194.5 -33t-157.5 -96.5t-105.5 -157.5t-38.5 -215zM420 478q0 163 80.5 250.5t214.5 87.5q33 0 58.5 -3.5t49 -10t46 -15.5t49.5 -21l-49 -114 q-38 19 -71 27t-60 8q-70 0 -115 -45t-45 -164q0 -98 43.5 -153.5t130.5 -55.5q43 0 76 8t61 24l40 -112q-40 -24 -93 -37t-121 -13q-144 0 -219.5 91.5t-75.5 247.5z" />
<glyph unicode="&#xab;" horiz-adv-x="869" d="M66 429l292 382l100 -86l-170 -226l-87 -68l87 -59l182 -221l-101 -88zM402 431l288 373l97 -84l-168 -223l-87 -66l87 -59l177 -220l-96 -82z" />
<glyph unicode="&#xae;" horiz-adv-x="1245" d="M143 717q0 116 38 205.5t103.5 150t152.5 92t185 31.5q101 0 188 -31.5t152 -92t102.5 -150t37.5 -205.5t-38.5 -205t-104 -149.5t-152.5 -92t-185 -31.5q-100 0 -187.5 31.5t-152.5 92t-102 149.5t-37 205zM266 717q0 -92 28.5 -160t77 -112.5t113 -67t137.5 -22.5 q76 0 141.5 22t113 66.5t74.5 112.5t27 161q0 91 -27.5 159t-76.5 113.5t-114 68t-138 22.5q-78 0 -143.5 -23t-113 -69t-73.5 -113.5t-26 -157.5zM440 488v461q28 8 80.5 13t96.5 5q37 0 70 -7t58 -24t39.5 -43.5t14.5 -64.5q0 -57 -37 -87.5t-91 -34.5l52 -24l128 -194 h-110l-124 185l-86 27v-212h-91zM531 753h61q54 0 81.5 17t27.5 55q0 30 -27.5 46.5t-76.5 16.5q-19 0 -36.5 -1t-29.5 -8v-126z" />
<glyph unicode="&#xb4;" horiz-adv-x="477" d="M100 945l106 250h172v-39l-185 -211h-93z" />
<glyph unicode="&#xb8;" horiz-adv-x="538" d="M111 -361l15 59q59 -3 91.5 1.5t49.5 16.5t21 26t4 27q0 29 -42.5 44.5t-121.5 23.5l98 163h100l-52 -88q81 -13 120 -43t39 -84q0 -70 -61.5 -112.5t-170.5 -42.5q-22 0 -44.5 1.5t-45.5 7.5z" />
<glyph unicode="&#xbb;" horiz-adv-x="869" d="M73 720l95 84l298 -361l-287 -373l-96 84l166 223l86 66l-86 60zM400 723l99 88l302 -366l-290 -382l-101 88l171 224l86 68l-86 60z" />
<glyph unicode="&#x2c6;" horiz-adv-x="731" d="M114 972l233 310h68q51 -79 104.5 -155.5t102.5 -154.5h-133l-74 114l-43 118l-52 -118l-79 -114h-127z" />
<glyph unicode="&#x2da;" horiz-adv-x="584" d="M111 1133q0 70 48 113.5t133 43.5q79 0 133.5 -38.5t54.5 -118.5q0 -33 -14.5 -61.5t-39 -49t-59.5 -33t-75 -12.5q-80 0 -130.5 41t-50.5 115zM206 1133q0 -33 27.5 -53.5t58.5 -20.5q38 0 65.5 18t27.5 56t-28 57t-65 19q-34 0 -60 -18t-26 -58z" />
<glyph unicode="&#x2dc;" horiz-adv-x="746" d="M111 1154q53 59 96 79.5t81 20.5q30 0 57.5 -10.5t55 -25t55 -25t58.5 -10.5q42 0 89 39l38 -79q-45 -46 -84 -65t-73 -19q-31 0 -59.5 11t-55.5 24.5t-55.5 25.5t-59.5 12q-27 0 -52.5 -10.5t-57.5 -40.5z" />
<glyph unicode="&#x401;" horiz-adv-x="970" d="M147 0v1162h703v-144h-537v-353h490v-143h-490v-379h545v-143h-711zM208 1319q0 38 27 59.5t75 21.5q47 0 75 -21.5t28 -59.5q0 -37 -28 -59t-75 -22t-74.5 22t-27.5 59zM562 1319q0 38 27.5 59.5t74.5 21.5t75.5 -21.5t28.5 -59.5q0 -37 -28.5 -59t-75.5 -22t-74.5 22 t-27.5 59z" />
<glyph unicode="&#x402;" horiz-adv-x="1325" d="M32 1015v147h948v-147h-391v-318q23 6 86 20t164 14q71 0 141 -16.5t126 -56t90 -107.5t34 -173q0 -199 -111 -295t-316 -96q-60 0 -86.5 1.5t-39.5 5.5v144q22 -4 51 -4.5t78 -0.5q119 0 183 57t64 177q0 66 -20.5 109t-57 68t-85.5 35t-105 10q-30 0 -61 -4t-57 -9 t-47 -11t-31 -9v-556h-166v1015h-391z" />
<glyph unicode="&#x403;" horiz-adv-x="805" d="M147 0v1162h689v-147h-523v-1015h-166zM355 1247l210 196h219v-38l-295 -158h-134z" />
<glyph unicode="&#x404;" horiz-adv-x="1056" d="M96 581q0 163 50 277t129.5 186t179 105.5t197.5 33.5q109 0 178 -11.5t117 -30.5l-38 -139q-81 38 -244 38q-68 0 -132.5 -20t-118 -65t-90.5 -115t-49 -170h546v-143h-549q7 -99 41 -175.5t88.5 -127.5t126.5 -76.5t157 -25.5q81 0 141 14.5t101 37.5l39 -125 q-56 -39 -138.5 -55t-177.5 -16q-111 0 -211 35.5t-177 110t-121.5 187.5t-44.5 270z" />
<glyph unicode="&#x405;" horiz-adv-x="963" d="M79 43l55 144q42 -22 125.5 -43.5t185.5 -21.5q58 0 107.5 10.5t87 32.5t58 57.5t20.5 82.5q0 68 -44.5 108t-113 69t-146 54.5t-145.5 65.5t-113 103t-45 164q0 141 103.5 227.5t296.5 86.5q111 0 204 -17t146 -43l-52 -140q-41 22 -124 39.5t-182 17.5 q-113 0 -169.5 -48t-56.5 -112t45 -104t113 -70t146 -58.5t146 -70t113 -102t45 -155.5q0 -78 -30 -141t-86.5 -107.5t-136.5 -69t-181 -24.5q-136 0 -229.5 21t-142.5 44z" />
<glyph unicode="&#x406;" horiz-adv-x="660" d="M114 0v109h133v942h-133v111h432v-111h-133v-942h133v-109h-432z" />
<glyph unicode="&#x407;" horiz-adv-x="660" d="M114 0v109h133v942h-133v111h432v-111h-133v-942h133v-109h-432zM123 1315q0 40 26.5 62.5t65.5 22.5t65.5 -22.5t26.5 -62.5q0 -38 -26.5 -61t-65.5 -23t-65.5 23t-26.5 61zM355 1315q0 40 26.5 62.5t66.5 22.5t66.5 -22.5t26.5 -62.5q0 -38 -26.5 -61t-66.5 -23 t-66.5 23t-26.5 61z" />
<glyph unicode="&#x408;" horiz-adv-x="538" d="M-58 11l31 138q46 -20 111 -19q75 0 99 48t24 132v852h166v-896q0 -130 -67 -206t-198 -76q-16 0 -39 1.5t-46 5.5t-44.5 9t-36.5 11z" />
<glyph unicode="&#x409;" horiz-adv-x="1681" d="M-6 8l21 139q20 -4 40 -4t40.5 7.5t40.5 25t38 48.5q25 42 46.5 115.5t38 186t27.5 270t16 366.5h684v-444q8 2 28.5 4.5t46 4t52.5 3t49 1.5q85 0 168 -16.5t149 -56t106.5 -108.5t40.5 -173q0 -100 -39 -173.5t-106.5 -122t-158.5 -72.5t-197 -24q-25 0 -62.5 1 t-80 4.5t-84.5 8t-78 12.5v1004h-366q-8 -165 -19 -299t-27.5 -242.5t-38.5 -191.5t-56 -144q-42 -80 -98.5 -113t-118.5 -33q-34 0 -57 4t-45 12zM986 138q23 -7 67.5 -8.5t89.5 -1.5q61 0 116.5 14t98 43.5t67.5 74.5t25 109q0 66 -27 109t-70.5 68t-100 34t-114.5 9 q-15 0 -38.5 -1.5t-45.5 -3.5t-41 -5t-27 -5v-436z" />
<glyph unicode="&#x40a;" horiz-adv-x="1764" d="M147 0v1162h166v-474h589v474h166v-472q10 2 30.5 4.5t46.5 4t52.5 3t48.5 1.5q86 0 169 -13.5t148.5 -51.5t105 -104t39.5 -170q0 -100 -38 -171t-105 -118t-159 -68.5t-198 -21.5q-25 0 -62.5 2t-79.5 4.5t-84.5 7t-79.5 11.5v533h-589v-543h-166zM1068 138 q24 -5 69.5 -7.5t88.5 -2.5q64 0 120 11.5t97.5 38t65.5 69.5t24 105q0 66 -26 107.5t-69 64t-99.5 30t-117.5 7.5q-15 0 -38 -2t-45.5 -3.5t-42 -4.5t-27.5 -5v-408z" />
<glyph unicode="&#x40b;" horiz-adv-x="1361" d="M32 1015v147h948v-147h-391v-358q48 25 128.5 49.5t183.5 24.5q76 0 140 -16.5t110.5 -54.5t72 -101t25.5 -154v-405h-166v369q0 220 -220 220q-85 0 -157.5 -20t-116.5 -55v-514h-166v1015h-391z" />
<glyph unicode="&#x40c;" horiz-adv-x="1109" d="M147 0v1162h166v-535l77 23l418 512h189l-418 -499l-78 -55l91 -67l461 -541h-209l-450 527h-81v-527h-166zM399 1247l210 196h219v-38l-295 -158h-134z" />
<glyph unicode="&#x40e;" horiz-adv-x="1008" d="M8 1162h191l317 -598l45 -148h10l35 153l235 593h169l-325 -768q-48 -110 -84.5 -187t-75.5 -125.5t-84 -70t-109 -21.5q-60 0 -95.5 9t-68.5 29l47 136q35 -20 66 -24t58 -4q47 0 81 42t61 127zM214 1410l154 35q8 -60 50.5 -90.5t111.5 -30.5q70 0 112.5 30.5 t50.5 88.5l139 -30q-21 -91 -94 -142.5t-209 -51.5q-131 0 -215 45t-100 146z" />
<glyph unicode="&#x40f;" horiz-adv-x="1192" d="M147 0v1162h166v-1016h566v1016h166v-1162h-365l-26 -296h-105l-36 296h-366z" />
<glyph unicode="&#x410;" horiz-adv-x="1069" d="M13 0l478 1178h87l479 -1178h-172l-127 304h-459l-123 -304h-163zM348 443h362l-134 330l-45 178h-4l-44 -181z" />
<glyph unicode="&#x411;" horiz-adv-x="1005" d="M147 11v1151h704v-147h-538v-315q30 5 74 10t88 5q93 0 176.5 -16.5t147.5 -56.5t102 -106t38 -166q0 -99 -39 -171.5t-104 -119.5t-151 -70.5t-181 -23.5q-30 0 -70.5 1t-83.5 4.5t-85.5 8t-77.5 12.5zM313 138q12 -4 32 -5.5t43 -3t48 -1.5h48q57 0 107.5 13t88.5 40.5 t60.5 69t22.5 97.5q0 73 -24.5 117t-67 68t-98 32t-115.5 8q-17 0 -37.5 -2t-42.5 -4t-39 -5t-26 -5v-419z" />
<glyph unicode="&#x412;" horiz-adv-x="1062" d="M147 8v1143q68 11 160 18t196 7q71 0 146.5 -12.5t137 -44t101 -86.5t39.5 -140q0 -43 -14 -85.5t-43 -80t-73.5 -66t-106.5 -41.5v-6q54 -6 103 -26.5t87.5 -55.5t62 -84t23.5 -118q0 -89 -41.5 -155t-109.5 -108t-153.5 -62t-172.5 -20q-30 0 -73 1t-90 3.5t-94.5 6.5 t-84.5 12zM310 136q12 -3 35.5 -4.5t50.5 -3.5t54.5 -2.5t50.5 -0.5q56 0 108.5 11t92 36.5t64 63.5t24.5 90q0 67 -29.5 106t-76 60t-104.5 26.5t-114 5.5h-156v-388zM310 654h92q31 0 72.5 2.5t69.5 5.5q42 11 79 28.5t65.5 42t45 56.5t16.5 74q0 56 -22.5 90t-59 52.5 t-83 25t-94.5 6.5q-58 0 -107 -2.5t-74 -5.5v-375z" />
<glyph unicode="&#x413;" horiz-adv-x="805" d="M147 0v1162h689v-147h-523v-1015h-166z" />
<glyph unicode="&#x414;" horiz-adv-x="1220" d="M8 146h130q14 18 45 84t61.5 187.5t52 305.5t20.5 439h691v-1016h166v-358h-114l-28 212h-883l-26 -212h-115v358zM313 146h529v869h-372q-7 -176 -21 -314.5t-35 -244.5t-46.5 -182t-54.5 -128z" />
<glyph unicode="&#x415;" horiz-adv-x="970" d="M147 0v1162h703v-144h-537v-353h490v-143h-490v-379h545v-143h-711z" />
<glyph unicode="&#x416;" horiz-adv-x="1472" d="M-3 0l391 518l88 63l-85 60l-369 521h192l355 -515h81v515h156v-535l77 23l353 512h184l-358 -505l-75 -55l93 -68l397 -534h-201l-388 531h-82v-531h-156v551l-76 -24l-387 -527h-190z" />
<glyph unicode="&#x417;" horiz-adv-x="976" d="M73 27l41 142q43 -18 119 -32.5t185 -14.5q51 0 103 12.5t93 39.5t66.5 67.5t25.5 97.5q0 99 -77 145.5t-214 54.5q-22 2 -38.5 3t-39.5 1h-90v128h28h39.5t50 2.5t49.5 3t39 3.5q90 12 152.5 57.5t62.5 121.5q0 51 -19 85t-53 55.5t-78.5 30t-94.5 8.5q-97 0 -168 -15 t-109 -32l-45 132q16 9 51 19.5t81 19t101.5 14t113.5 5.5q73 0 144 -14t126.5 -47.5t90.5 -88t35 -137.5q0 -82 -58.5 -157t-177.5 -108v-7q127 -19 201 -89t74 -190q0 -94 -42 -163t-109 -113.5t-152.5 -66.5t-174.5 -22q-119 0 -200.5 14t-131.5 35z" />
<glyph unicode="&#x418;" horiz-adv-x="1233" d="M147 0v1162h166v-774l-14 -126h8l83 131l593 769h103v-1162h-165v768l10 128h-7l-80 -131l-595 -765h-102z" />
<glyph unicode="&#x419;" horiz-adv-x="1233" d="M147 0v1162h166v-774l-14 -126h8l83 131l593 769h103v-1162h-165v768l10 128h-7l-80 -131l-595 -765h-102zM315 1410l154 35q8 -60 50.5 -90.5t111.5 -30.5q70 0 112.5 30.5t50.5 88.5l139 -30q-21 -91 -94 -142.5t-209 -51.5q-131 0 -215 45t-100 146z" />
<glyph unicode="&#x41a;" horiz-adv-x="1109" d="M147 0v1162h166v-535l77 23l418 512h189l-418 -499l-78 -55l91 -67l461 -541h-209l-450 527h-81v-527h-166z" />
<glyph unicode="&#x41b;" horiz-adv-x="1132" d="M-6 8l21 139q20 -4 40 -4t40.5 7.5t40.5 25t38 48.5q25 42 46.5 115.5t38 186t27.5 270t16 366.5h684v-1162h-166v1015h-366q-8 -165 -19 -299t-27.5 -242.5t-38.5 -191.5t-56 -144q-42 -80 -98.5 -113t-118.5 -33q-34 0 -57 4t-45 12z" />
<glyph unicode="&#x41c;" horiz-adv-x="1439" d="M147 0v1162h125l393 -593l62 -126h3l58 130l374 589h130v-1162h-165v748l18 186h-7l-71 -161l-323 -515h-51l-340 516l-68 158h-8l27 -182v-750h-157z" />
<glyph unicode="&#x41d;" horiz-adv-x="1215" d="M147 0v1162h166v-497h589v497h166v-1162h-166v519h-589v-519h-166z" />
<glyph unicode="&#x41e;" horiz-adv-x="1238" d="M96 581q0 142 36 254t103 189.5t164 118t220 40.5q131 0 229.5 -44t164 -123t98 -190t32.5 -245q0 -143 -35.5 -255t-103.5 -189t-165.5 -118t-219.5 -41q-133 0 -231 44t-162.5 123t-97 190t-32.5 246zM272 581q0 -95 20.5 -178t63.5 -146t108 -99t155 -36 q161 0 254.5 110.5t93.5 348.5q0 93 -20.5 175.5t-63 146t-108 100.5t-156.5 37q-160 0 -253.5 -112.5t-93.5 -346.5z" />
<glyph unicode="&#x41f;" horiz-adv-x="1192" d="M147 0v1162h898v-1162h-166v1015h-566v-1015h-166z" />
<glyph unicode="&#x420;" horiz-adv-x="1018" d="M147 0v1149q70 15 152.5 21t161.5 6q84 0 171.5 -15t159 -54.5t117 -110t45.5 -181.5q0 -105 -41.5 -179t-110.5 -120t-157.5 -68t-183.5 -22q-10 0 -30.5 1t-43 1.5t-43.5 2.5t-31 4v-435h-166zM313 578q9 -4 28 -4.5t40 -2.5t40 -2h29q59 0 117 9t105.5 36t76.5 74.5 t29 124.5q0 67 -28 110t-73 67.5t-100.5 34t-110.5 9.5q-45 0 -87 -2t-66 -8v-446z" />
<glyph unicode="&#x421;" horiz-adv-x="1034" d="M96 581q0 163 50 277t129.5 186t179 105.5t197.5 33.5q109 0 179 -11.5t118 -30.5l-37 -142q-81 38 -247 38q-75 0 -145 -24t-125.5 -78.5t-89 -141.5t-33.5 -212q0 -113 31.5 -198.5t87 -143t131 -86t165.5 -28.5q81 0 141 14.5t101 37.5l40 -128q-55 -39 -139.5 -55 t-179.5 -16q-111 0 -211 35.5t-177 110t-121.5 187.5t-44.5 270z" />
<glyph unicode="&#x422;" horiz-adv-x="1011" d="M32 1015v147h948v-147h-391v-1015h-166v1015h-391z" />
<glyph unicode="&#x423;" horiz-adv-x="1008" d="M8 1162h191l317 -598l45 -148h10l35 153l235 593h169l-325 -768q-48 -110 -84.5 -187t-75.5 -125.5t-84 -70t-109 -21.5q-60 0 -95.5 9t-68.5 29l47 136q35 -20 66 -24t58 -4q47 0 81 42t61 127z" />
<glyph unicode="&#x424;" horiz-adv-x="1421" d="M71 581q0 111 32.5 199.5t91.5 151t141 95.5t182 33q23 0 58 -1.5t54 -7.5v144h160v-148q33 8 76 10.5t71 2.5q86 0 161.5 -30t131 -88.5t87.5 -145t32 -199.5q0 -116 -36 -205.5t-96.5 -150t-141 -91.5t-169.5 -31q-21 0 -58 3t-58 9v-164h-160v161q-33 -5 -72 -7 t-75 -2q-86 0 -161 28.5t-130.5 85.5t-88 143.5t-32.5 204.5zM241 581q0 -75 19.5 -135.5t56 -103.5t87 -66.5t110.5 -23.5q19 0 57 1t62 9v659q-21 3 -51 4.5t-56 1.5q-60 0 -111 -21t-90.5 -65.5t-61.5 -109t-22 -150.5zM787 257q18 -3 46 -4t55 -1q60 0 112.5 22t92.5 64 t63 106.5t23 152.5q0 73 -19 133.5t-53.5 104.5t-84.5 68t-110 24q-25 0 -64 -1.5t-61 -7.5v-661z" />
<glyph unicode="&#x425;" horiz-adv-x="1124" d="M45 0l419 590l-383 572h198l250 -382l45 -96l43 96l262 382h183l-395 -560l413 -602h-194l-277 405l-52 101l-46 -101l-283 -405h-183z" />
<glyph unicode="&#x426;" horiz-adv-x="1247" d="M147 0v1162h166v-1016h553v1016h166v-1016h168v-358h-115l-26 212h-912z" />
<glyph unicode="&#x427;" horiz-adv-x="1099" d="M126 760v402h166v-367q0 -111 53.5 -172t167.5 -61q84 0 156 20t118 53v527h166v-1162h-166v494q-48 -27 -128.5 -50.5t-185.5 -23.5q-78 0 -142 18t-109.5 59.5t-70.5 105.5t-25 157z" />
<glyph unicode="&#x428;" horiz-adv-x="1590" d="M147 0v1162h166v-1016h401v1016h165v-1016h398v1016h166v-1162h-1296z" />
<glyph unicode="&#x429;" horiz-adv-x="1658" d="M147 0v1162h166v-1016h399v1016h165v-1016h399v1016h166v-1016h169v-358h-115l-26 212h-1323z" />
<glyph unicode="&#x42a;" horiz-adv-x="1151" d="M-3 1015v147h457v-444q9 2 30 4.5t47 4t53 3t48 1.5q84 0 167.5 -16.5t148.5 -56t106 -108.5t41 -173q0 -98 -38.5 -172t-105 -123t-159 -73t-198.5 -24q-25 0 -62.5 1t-79.5 4.5t-85.5 8t-78.5 12.5v1004h-291zM454 138q26 -7 70.5 -8.5t87.5 -1.5q62 0 117.5 15 t97.5 44.5t67 74.5t25 107q0 66 -26.5 109t-70.5 68t-99.5 34t-114.5 9q-15 0 -38.5 -1.5t-46 -3.5t-41.5 -5t-28 -5v-436z" />
<glyph unicode="&#x42b;" horiz-adv-x="1402" d="M147 11v1151h166v-444q10 2 26.5 4.5t38 4t43.5 3t43 1.5q86 0 168 -16.5t144.5 -57t100 -108.5t37.5 -171q0 -99 -36 -173.5t-98.5 -123t-150.5 -72.5t-194 -24q-25 0 -60 1t-74 4.5t-79 8t-75 12.5zM313 138q24 -7 58 -8.5t77 -1.5q61 0 114.5 15t92 44.5t61 74.5 t22.5 105q0 66 -25 109t-65 68t-94.5 35t-113.5 10q-32 0 -70 -5t-57 -10v-436zM1090 0v1162h166v-1162h-166z" />
<glyph unicode="&#x42c;" horiz-adv-x="1010" d="M147 11v1151h166v-444q9 2 30 4.5t46.5 4t52 3t47.5 1.5q86 0 169 -16.5t148.5 -56t106.5 -108.5t41 -173q0 -100 -39 -173.5t-106.5 -122t-158.5 -72.5t-197 -24q-25 0 -62.5 1t-79.5 4.5t-84.5 8t-79.5 12.5zM313 138q24 -7 69 -8.5t89 -1.5q62 0 117.5 14t97.5 43.5 t67 74.5t25 109q0 66 -26.5 109t-70.5 68t-100.5 34t-114.5 9q-15 0 -38 -1.5t-45.5 -3.5t-41.5 -5t-28 -5v-436z" />
<glyph unicode="&#x42d;" horiz-adv-x="1046" d="M75 25l42 143q42 -21 109 -33.5t144 -12.5q71 0 141 20.5t125.5 67.5t92.5 123.5t45 185.5h-507v143h506q-16 193 -120.5 284.5t-270.5 93.5q-89 2 -156.5 -16.5t-108.5 -41.5l-39 133q55 31 140.5 49.5t180.5 18.5q115 0 215.5 -33.5t175 -105.5t118 -186t43.5 -277 q0 -165 -50 -279.5t-132 -186.5t-189 -104.5t-222 -32.5q-92 0 -163.5 14t-119.5 33z" />
<glyph unicode="&#x42e;" horiz-adv-x="1621" d="M147 0v1162h166v-497h216q19 249 146.5 383.5t354.5 134.5q132 0 226 -43t154 -123t88 -191t28 -245q0 -287 -125 -445t-371 -158q-123 0 -214 39.5t-153.5 110t-95.5 169.5t-40 222h-214v-519h-166zM705 581q0 -93 17.5 -177t55.5 -147t100 -99t152 -36q162 0 241 110.5 t79 348.5q0 91 -15.5 174.5t-53 147t-99 100.5t-152.5 37q-161 0 -243 -112.5t-82 -346.5z" />
<glyph unicode="&#x42f;" horiz-adv-x="1034" d="M41 0l281 405l109 73q-65 11 -119.5 37t-95 67.5t-63 97.5t-22.5 131q0 101 38 170.5t103 113t153 62.5t187 19q62 0 135.5 -5.5t140.5 -21.5v-1149h-166v494l-178 -36l-310 -458h-193zM307 813q0 -61 23 -103.5t64 -68t95 -37.5t114 -12h119v432q-24 6 -50.5 8t-69.5 2 q-58 0 -111 -10.5t-94 -35t-65.5 -67t-24.5 -108.5z" />
<glyph unicode="&#x430;" horiz-adv-x="964" d="M75 232q0 75 32 129.5t83.5 89.5t117 51.5t130.5 16.5q51 0 87 -1.5t60 -4t40.5 -5t29.5 -3.5q4 25 5.5 42.5t1.5 46.5q0 46 -10 77.5t-32.5 50.5t-60.5 27.5t-93 8.5q-32 0 -70 -5t-76 -14t-75.5 -22.5t-67.5 -28.5l-41 128q149 72 370 72q100 0 160.5 -26t93.5 -65.5 t44 -88.5t11 -97q0 -92 -7 -184t-7 -199q0 -64 6 -123t19 -108h-111l-42 133h-16q-19 -26 -45 -51.5t-62.5 -45.5t-84 -33t-109.5 -13q-61 0 -112 17.5t-89 48.5t-59 77t-21 102zM237 249q0 -67 47.5 -100t122.5 -33q55 0 97 14t73 34.5t50 46.5t28 51v132q-13 2 -28 5.5 t-37.5 5.5t-53 3.5t-75.5 1.5q-103 0 -163.5 -36.5t-60.5 -124.5z" />
<glyph unicode="&#x431;" horiz-adv-x="1053" d="M106 513q0 149 16.5 253.5t49 174t78.5 110.5t102 62.5t123.5 29.5t143.5 15q96 8 154 18t95 35l17 -135q-39 -25 -103 -35.5t-179 -18.5q-79 -5 -141 -18t-108.5 -46.5t-75 -96t-37.5 -163.5l16 -3q61 83 138.5 118t190.5 35q174 0 271 -105t97 -305q0 -114 -29 -201.5 t-83.5 -144.5t-133 -86t-176.5 -29q-212 0 -319 129.5t-107 406.5zM269 415q0 -63 15 -118.5t47.5 -98t82 -67.5t117.5 -25q260 0 260 317q0 63 -14 117t-43 93.5t-74.5 62t-107.5 22.5q-149 0 -216 -78.5t-67 -224.5z" />
<glyph unicode="&#x432;" horiz-adv-x="964" d="M146 2v869l63 3q53 3 116 7.5t146 4.5q193 0 276.5 -54t83.5 -161q0 -58 -40.5 -116.5t-128.5 -84.5v-19q109 -22 156.5 -73.5t47.5 -135.5q0 -131 -108 -193t-325 -62q-73 0 -137.5 4t-126.5 9q-6 0 -11.5 1t-11.5 1zM299 119q36 -5 71 -7.5t86 -2.5q131 0 189 34 t58 112q0 32 -11.5 58.5t-38 45t-72 29.5t-111.5 11h-171v-280zM299 503h189q36 0 69 9.5t60 28t43 43t16 51.5q0 70 -47.5 97.5t-162.5 27.5q-38 0 -77 -2.5t-90 -4.5v-250z" />
<glyph unicode="&#x433;" horiz-adv-x="706" d="M146 0v871h560v-130h-407v-741h-153z" />
<glyph unicode="&#x434;" horiz-adv-x="1034" d="M0 130h111q16 20 42 69.5t51 138t44 219.5t21 314h586v-741h140v-349h-104l-27 219h-733l-30 -219h-101v349zM269 130h432v611h-294q-5 -74 -15 -159t-27.5 -166.5t-40.5 -156.5t-55 -129z" />
<glyph unicode="&#x435;" horiz-adv-x="991" d="M100 435q0 224 110 342.5t314 118.5q65 0 129.5 -14t116 -53t84 -107t32.5 -178q0 -26 -1.5 -61t-7.5 -68h-622q3 -153 73.5 -231t236.5 -78q70 0 133 24t98 57l59 -116q-59 -43 -145 -68.5t-188 -25.5q-109 0 -189.5 32t-132 92t-76 144.5t-24.5 189.5zM262 524h478 q3 133 -54 187.5t-160 54.5q-116 0 -184 -54.5t-80 -187.5z" />
<glyph unicode="&#x436;" horiz-adv-x="1283" d="M10 0l291 393l74 58l-104 71l-239 349h166l253 -377h110v377h149v-395l99 27l256 368h165l-252 -347l-79 -63l103 -73l272 -388h-184l-272 391h-108v-391h-149v411l-100 -26l-272 -385h-179z" />
<glyph unicode="&#x437;" horiz-adv-x="855" d="M79 33l40 121q45 -24 108 -33.5t138 -9.5q230 0 229 144q0 65 -55 98t-191 33h-103v117h128q37 0 71 9.5t60.5 27t42 42t15.5 51.5q0 70 -51.5 97t-155.5 27q-73 0 -133.5 -16t-98.5 -33l-42 117q108 61 324 61q156 0 235.5 -55t79.5 -160q0 -28 -11 -57.5t-32.5 -57 t-52 -50t-70.5 -33.5v-19q113 -20 158 -74t45 -139q0 -56 -25.5 -102.5t-74.5 -81.5t-125 -55.5t-176 -20.5q-98 0 -161.5 13.5t-115.5 38.5z" />
<glyph unicode="&#x438;" horiz-adv-x="1046" d="M146 0v871h153v-515l-12 -152h18l77 148l400 519h119v-871h-153v497l23 173h-18l-82 -162l-407 -508h-118z" />
<glyph unicode="&#x439;" horiz-adv-x="1046" d="M146 0v871h153v-515l-12 -152h18l77 148l400 519h119v-871h-153v497l23 173h-18l-82 -162l-407 -508h-118zM246 1138l136 43q8 -36 23 -57.5t34.5 -32.5t45.5 -13.5t54 -2.5t54 3t46 15t35 32t23 54l119 -34q-19 -98 -96 -138t-184 -40q-51 0 -99.5 8t-87.5 28.5 t-66.5 52.5t-36.5 82z" />
<glyph unicode="&#x43a;" horiz-adv-x="907" d="M146 0v871h153v-396l91 30l297 366h168l-284 -339h2l-90 -64l107 -75l307 -393h-192l-312 391h-94v-391h-153z" />
<glyph unicode="&#x43b;" horiz-adv-x="968" d="M-10 8l23 139q22 -6 49 -6q39 0 70.5 29t55 108.5t38.5 222.5t21 370h576v-871h-153v741h-282l-3 -49q-12 -165 -27.5 -295t-45.5 -220.5t-80 -137.5t-129 -47q-37 0 -65 4t-48 12z" />
<glyph unicode="&#x43c;" horiz-adv-x="1247" d="M146 0v871h159l260 -383l64 -121l69 124l244 380h160v-871h-149v492l9 178h-20l-74 -136l-224 -330h-52l-236 330l-66 136h-18l15 -176v-494h-141z" />
<glyph unicode="&#x43d;" horiz-adv-x="1034" d="M146 0v871h153v-355h437v355h153v-871h-153v380h-437v-380h-153z" />
<glyph unicode="&#x43e;" horiz-adv-x="1046" d="M100 435q0 108 28 193.5t83 145t133.5 91t179.5 31.5q106 0 186 -35t133 -97.5t78.5 -146t25.5 -182.5q0 -106 -29 -190.5t-82.5 -144.5t-132.5 -91.5t-179 -31.5q-109 0 -189 34.5t-132 96t-77.5 145.5t-25.5 182zM262 435q0 -62 14 -121t45.5 -105t81.5 -74.5 t123 -28.5q258 0 259 329q0 65 -14 124.5t-45 105t-81 73.5t-119 28q-130 0 -197 -81.5t-67 -249.5z" />
<glyph unicode="&#x43f;" horiz-adv-x="1024" d="M146 0v871h733v-871h-152v741h-428v-741h-153z" />
<glyph unicode="&#x440;" horiz-adv-x="1044" d="M146 -332v1203h103l30 -111h14q45 65 116.5 100.5t161.5 35.5q189 0 281.5 -105.5t92.5 -336.5q0 -109 -30 -197.5t-87.5 -151t-139.5 -95.5t-183 -33q-34 0 -61.5 2t-50.5 8.5t-46.5 13.5t-47.5 18v-351h-153zM299 163q38 -27 82.5 -42t114.5 -15q134 0 210.5 88 t76.5 262q0 141 -56 225.5t-191 84.5q-99 0 -156 -49.5t-81 -152.5v-401z" />
<glyph unicode="&#x441;" horiz-adv-x="877" d="M100 435q0 220 106.5 340.5t307.5 120.5q89 0 153 -16t116 -39l-39 -124q-45 23 -97.5 36t-114.5 13q-270 0 -270 -331q0 -63 15 -122t48 -104.5t87 -74t132 -28.5q70 0 122 19t87 46l50 -111q-59 -41 -136.5 -62t-163.5 -21q-109 0 -186.5 33t-125.5 93t-69.5 144.5 t-21.5 187.5z" />
<glyph unicode="&#x442;" horiz-adv-x="755" d="M0 741v130h757v-130h-303v-741h-152v741h-302z" />
<glyph unicode="&#x443;" horiz-adv-x="880" d="M13 871h181l222 -551l52 -168h21l42 170l181 549h156l-286 -788q-31 -81 -63.5 -157.5t-71.5 -135.5t-86.5 -94.5t-108.5 -35.5q-67 0 -113 15l25 129q26 -8 50 -8q33 0 60.5 8.5t50.5 30t42 60.5t36 100z" />
<glyph unicode="&#x444;" horiz-adv-x="1326" d="M90 435q0 217 103 335t298 118q23 0 47 -1.5t51 -9.5v285h149v-286q43 8 71.5 10t49.5 2q188 0 283.5 -103t95.5 -332q0 -106 -26 -194t-75 -150.5t-121 -97t-163 -34.5q-19 0 -53.5 4t-61.5 13v-326h-149v327q-40 -13 -75.5 -15.5t-63.5 -2.5q-173 0 -266.5 113.5 t-93.5 344.5zM245 435q0 -71 14.5 -132.5t45 -106.5t77 -70.5t110.5 -25.5q22 0 44.5 1.5t55.5 7.5v644q-30 7 -50 9.5t-46 2.5q-119 0 -185 -81t-66 -249zM735 106q25 -5 49 -5.5t52 -0.5q123 0 184 91t61 262q0 71 -13 129.5t-43 99t-79 62t-120 21.5q-27 0 -45 -2 t-46 -10v-647z" />
<glyph unicode="&#x445;" horiz-adv-x="981" d="M49 0l337 446l-313 425h194l170 -222l57 -118l68 118l176 222h172l-316 -418q82 -111 169 -225.5t169 -227.5h-188l-192 247l-66 125l-68 -125l-192 -247h-177z" />
<glyph unicode="&#x446;" horiz-adv-x="1044" d="M146 0v871h153v-741h419v741h153v-741h141v-349h-103l-29 219h-734z" />
<glyph unicode="&#x447;" horiz-adv-x="951" d="M100 616v255h152v-214q0 -54 6 -95t25 -71t53 -46t88 -16q85 0 142.5 19.5t87.5 42.5v380h152v-871h-152v370q-32 -20 -97 -44.5t-172 -24.5q-70 0 -124 14.5t-89.5 51t-53.5 97t-18 152.5z" />
<glyph unicode="&#x448;" horiz-adv-x="1419" d="M146 0v871h153v-741h334v741h154v-741h334v741h153v-871h-1128z" />
<glyph unicode="&#x449;" horiz-adv-x="1445" d="M146 0v871h153v-741h334v741h154v-741h334v741h153v-741h139v-349h-101l-28 219h-1138z" />
<glyph unicode="&#x44a;" horiz-adv-x="966" d="M10 741v130h367v-333q53 8 99 10.5t81 2.5q98 0 167 -20t112 -55t62.5 -82t19.5 -102q0 -158 -105 -230t-325 -72q-70 0 -135 2t-129 6v743h-214zM377 130q71 -10 142 -11q122 0 179 42.5t57 117.5q0 66 -55.5 111t-175.5 45q-33 0 -71 -3t-76 -11v-291z" />
<glyph unicode="&#x44b;" horiz-adv-x="1278" d="M146 -2v873h153v-333q53 8 98.5 10.5t82.5 2.5q96 0 161 -20t105.5 -55t57 -82t16.5 -102q0 -158 -96.5 -230t-313.5 -72q-70 0 -134.5 2t-129.5 6zM299 130q70 -10 142 -11q120 0 168 41.5t48 118.5q0 66 -47.5 111t-163.5 45q-31 0 -70 -3t-77 -11v-291zM980 0v871h153 v-871h-153z" />
<glyph unicode="&#x44c;" horiz-adv-x="886" d="M146 -2v873h153v-333q53 8 97.5 10.5t79.5 2.5q100 0 169 -20t111.5 -55t62 -82t19.5 -102q0 -158 -104.5 -230t-326.5 -72q-70 0 -133 2t-128 6zM299 130q70 -10 141 -11q121 0 178.5 42.5t57.5 117.5q0 66 -56 111t-175 45q-32 0 -70 -3t-76 -11v-291z" />
<glyph unicode="&#x44d;" horiz-adv-x="900" d="M79 33l43 127q44 -24 107 -39t126 -15q134 0 203 64t80 205h-401v130h400q-10 119 -79 190t-198 71q-78 0 -135 -20.5t-95 -44.5l-51 114q59 38 135 59.5t179 21.5q104 0 181.5 -31.5t128 -91t74.5 -145t24 -193.5q0 -222 -112.5 -340t-310.5 -118q-90 0 -169 14t-130 42 z" />
<glyph unicode="&#x44e;" horiz-adv-x="1394" d="M146 0v871h153v-357h204q16 181 113.5 281.5t287.5 100.5q104 0 178 -34t121.5 -95.5t69.5 -146t22 -185.5q0 -215 -97.5 -336.5t-296.5 -121.5q-103 0 -176 29.5t-121 83t-72 128.5t-31 167h-202v-385h-153zM654 435q0 -68 11.5 -128t39.5 -104.5t76 -70.5t121 -26 q125 0 178 80t53 249q0 66 -11 126.5t-37 106.5t-71 72t-113 26q-131 0 -189 -80t-58 -251z" />
<glyph unicode="&#x44f;" horiz-adv-x="958" d="M66 0l219 285v-1l93 63q-116 13 -183 81.5t-67 168.5q0 78 29.5 134.5t85.5 93t134.5 53t176.5 16.5q63 0 132 -8.5t127 -21.5v-864h-153v343l-157 -21l-248 -322h-189zM290 599q0 -83 74 -124.5t193 -37.5l103 1v314q-27 8 -61 10.5t-58 2.5q-125 0 -188 -40t-63 -126z " />
<glyph unicode="&#x451;" horiz-adv-x="991" d="M100 435q0 224 110 342.5t314 118.5q65 0 129.5 -14t116 -53t84 -107t32.5 -178q0 -26 -1.5 -61t-7.5 -68h-622q3 -153 73.5 -231t236.5 -78q70 0 133 24t98 57l59 -116q-59 -43 -145 -68.5t-188 -25.5q-109 0 -189.5 32t-132 92t-76 144.5t-24.5 189.5zM234 1051 q0 40 26 66.5t70 26.5q41 0 66.5 -26.5t25.5 -66.5q0 -38 -25.5 -64.5t-66.5 -26.5q-43 0 -69.5 26.5t-26.5 64.5zM262 524h478q3 133 -54 187.5t-160 54.5q-116 0 -184 -54.5t-80 -187.5zM590 1051q0 40 26 66.5t69 26.5t69 -26.5t26 -66.5q0 -38 -26 -64.5t-69 -26.5 t-69 26.5t-26 64.5z" />
<glyph unicode="&#x452;" horiz-adv-x="1054" d="M0 886v109h161v167h152v-167h279v-109h-279v-269h19q51 60 120.5 95t172.5 35q80 0 139 -17.5t97 -61.5t56.5 -118t18.5 -189v-401q0 -154 -55.5 -228t-182.5 -74q-33 0 -69 5v125q51 -2 81 10.5t46.5 39t21.5 68t5 96.5v332q0 69 -9 121.5t-33 89t-65 54.5t-103 18 q-45 0 -87.5 -15.5t-77.5 -44t-60 -67.5t-35 -85v-405h-152v886h-161z" />
<glyph unicode="&#x453;" horiz-adv-x="706" d="M146 0v871h560v-130h-407v-741h-153zM336 945l106 250h172v-39l-185 -211h-93z" />
<glyph unicode="&#x454;" horiz-adv-x="938" d="M100 435q0 109 32 195.5t90 144.5t140.5 88.5t180.5 30.5q93 0 160.5 -14t119.5 -38l-41 -128q-47 23 -102 37t-116 14q-130 0 -207 -62t-95 -197h439v-129h-439q7 -57 27.5 -107t58.5 -86.5t94.5 -57t136.5 -20.5q67 0 123 20t94 45l43 -113q-58 -38 -139 -59.5 t-168 -21.5q-109 0 -190 33t-135.5 93t-80.5 144.5t-26 187.5z" />
<glyph unicode="&#x455;" horiz-adv-x="827" d="M90 48l43 133q46 -25 119 -50t148 -25q81 0 133.5 29t52.5 109q0 33 -16 55.5t-42.5 38t-61.5 27.5t-73 23q-48 13 -97 29t-88 43.5t-64 70.5t-25 110q0 129 77.5 192t216.5 63q105 0 176 -20t125 -43l-37 -130q-44 22 -106.5 42.5t-137.5 20.5q-81 0 -121 -26t-40 -96 q0 -28 15 -47t40 -33.5t58 -25.5t69 -20q50 -13 99.5 -30.5t91.5 -47t67.5 -74t25.5 -112.5q0 -124 -82.5 -200.5t-248.5 -76.5q-106 0 -185 21.5t-132 49.5z" />
<glyph unicode="&#x456;" horiz-adv-x="525" d="M153 1078q0 38 30 69t77 31q48 0 79.5 -31t31.5 -69t-31.5 -67t-79.5 -29q-47 0 -77 29t-30 67zM189 0v871h153v-871h-153z" />
<glyph unicode="&#x457;" horiz-adv-x="558" d="M66 1076q0 40 23.5 66t64.5 26q43 0 65.5 -26t22.5 -66q0 -36 -22 -60.5t-66 -24.5q-41 0 -64.5 24.5t-23.5 60.5zM207 0v871h153v-871h-153zM317 1076q0 40 22 66t64 26q43 0 66 -26t23 -66q0 -36 -23 -60.5t-66 -24.5q-41 0 -63.5 24.5t-22.5 60.5z" />
<glyph unicode="&#x458;" horiz-adv-x="516" d="M20 -219q55 -1 87 13.5t49.5 45t23 76.5t5.5 109v846h154v-901q0 -161 -61 -239.5t-195 -78.5h-29t-34 3v126zM149 1078q0 38 30 69t77 31q48 0 79.5 -31t31.5 -69t-31.5 -67t-79.5 -29q-47 0 -77 29t-30 67z" />
<glyph unicode="&#x459;" horiz-adv-x="1411" d="M-10 8l23 139q22 -6 49 -6q39 0 70.5 29t55 108.5t38.5 222.5t21 370h576v-333q53 8 98 10.5t79 2.5q100 0 169 -20t112 -55t62 -82t19 -102q0 -158 -104.5 -230t-326.5 -72q-70 0 -133 2t-128 6v743h-282l-3 -49q-12 -165 -27.5 -295t-45.5 -220.5t-80 -137.5t-129 -47 q-37 0 -65 4t-48 12zM823 130q70 -10 141 -11q121 0 178.5 42.5t57.5 117.5q0 66 -56 111t-175 45q-32 0 -70 -3t-76 -11v-291z" />
<glyph unicode="&#x45a;" horiz-adv-x="1518" d="M146 0v871h153v-353h456v353h152v-314q62 12 114 16.5t87 4.5q103 0 172 -22t111 -59.5t60.5 -87t18.5 -105.5q0 -165 -102 -239.5t-336 -74.5q-70 0 -139.5 5t-137.5 10v377h-456v-382h-153zM907 131q46 -6 86.5 -9t73.5 -3q136 0 188 42.5t52 128.5q0 36 -11.5 65.5 t-38.5 50t-72 31.5t-112 11q-33 0 -75 -3.5t-91 -13.5v-300z" />
<glyph unicode="&#x45b;" horiz-adv-x="1049" d="M0 886v109h156v168h153v-168h283v-109h-283v-269h20q53 60 121.5 94t171.5 34q79 0 137.5 -16.5t96.5 -60t56.5 -117t18.5 -186.5v-365h-153v330q0 72 -9 125t-33 88.5t-65 54t-104 18.5q-45 0 -86 -16t-76 -44.5t-60 -65.5t-36 -82v-408h-153v886h-156z" />
<glyph unicode="&#x45c;" horiz-adv-x="907" d="M146 0v871h153v-396l91 30l297 366h168l-284 -339h2l-90 -64l107 -75l307 -393h-192l-312 391h-94v-391h-153zM401 945l106 250h172v-39l-185 -211h-93z" />
<glyph unicode="&#x45e;" horiz-adv-x="880" d="M13 871h181l222 -551l52 -168h21l42 170l181 549h156l-286 -788q-31 -81 -63.5 -157.5t-71.5 -135.5t-86.5 -94.5t-108.5 -35.5q-67 0 -113 15l25 129q26 -8 50 -8q33 0 60.5 8.5t50.5 30t42 60.5t36 100zM184 1138l136 43q8 -36 23 -57.5t34.5 -32.5t45.5 -13.5t54 -2.5 t54 3t46 15t35 32t23 54l119 -34q-19 -98 -96 -138t-184 -40q-51 0 -99.5 8t-87.5 28.5t-66.5 52.5t-36.5 82z" />
<glyph unicode="&#x45f;" horiz-adv-x="1024" d="M146 0v871h153v-741h428v741h152v-871h-280l-26 -296h-105l-37 296h-285z" />
<glyph unicode="&#x462;" horiz-adv-x="1130" d="M0 904v136h269v155h166v-155h373v-136h-373v-189q10 2 30.5 4.5t46.5 5t52 4t48 1.5q86 0 169 -16.5t148.5 -56.5t105.5 -108t40 -171q0 -99 -39 -173.5t-106 -123t-158.5 -72.5t-197.5 -24q-25 0 -62 1t-79.5 4.5t-85 8t-78.5 12.5v893h-269zM435 138q23 -7 68.5 -8.5 t90.5 -1.5q61 0 116.5 14t97.5 43.5t66.5 74.5t24.5 107q0 66 -26.5 109t-70.5 68t-99.5 34t-115.5 9q-14 0 -37.5 -1.5t-46 -3t-41.5 -5t-27 -4.5v-435z" />
<glyph unicode="&#x463;" horiz-adv-x="954" d="M0 752v119h214v291h153v-291h306v-119h-306v-214q57 6 102 9.5t79 3.5q98 0 166 -20t111 -55t62 -83t19 -103q0 -156 -104.5 -228t-326.5 -72q-65 0 -131.5 1t-129.5 6v755h-214zM367 128q41 -5 76 -7t65 -2q125 0 180.5 40t55.5 120q0 71 -55.5 113.5t-172.5 42.5 q-33 0 -71 -3t-78 -11v-293z" />
<glyph unicode="&#x472;" horiz-adv-x="1238" d="M96 581q0 142 36 254t103 189.5t164 118t220 40.5q131 0 229.5 -44t164 -123t98 -190t32.5 -245q0 -143 -35.5 -255t-103.5 -189t-165.5 -118t-219.5 -41q-133 0 -231 44t-162.5 123t-97 190t-32.5 246zM272 518q7 -83 30.5 -156.5t67 -126.5t105 -83t144.5 -30 q149 0 242 95.5t106 300.5h-695zM274 657h693q-8 79 -33 149t-68 122t-104.5 82t-142.5 30q-146 0 -238.5 -93.5t-106.5 -289.5z" />
<glyph unicode="&#x473;" horiz-adv-x="1046" d="M100 435q0 219 109 340t315 121q106 0 186 -34t132 -95.5t77.5 -146t27.5 -185.5q-2 -217 -112 -337.5t-311 -120.5q-109 0 -189.5 34t-133 94.5t-77 145t-24.5 184.5zM262 489h523q-22 138 -88.5 207.5t-172.5 69.5q-49 0 -94 -14t-81.5 -47.5t-59.5 -86.5t-27 -129z M264 380q11 -130 83.5 -202t176.5 -72q46 0 89.5 15t78.5 47.5t58 84.5t30 127h-516z" />
<glyph unicode="&#x474;" horiz-adv-x="1092" d="M-8 1162h182l314 -774l44 -181h4l29 184l136 417q37 109 69.5 180.5t69 113t81.5 57t108 15.5t100 -10.5t71 -28.5l-46 -136q-36 20 -66.5 25t-58.5 5q-48 0 -81.5 -36t-67.5 -134l-316 -875h-84z" />
<glyph unicode="&#x475;" horiz-adv-x="964" d="M13 871h176l224 -499l53 -201l14 2l49 200l79 181q29 71 58 132t63 105.5t74.5 69.5t93.5 25q34 0 62 -6t53 -14l-25 -130q-18 7 -32.5 10.5t-28.5 3.5q-35 0 -69 -29t-70 -104l-293 -636h-66z" />
<glyph unicode="&#x48a;" horiz-adv-x="1260" d="M147 0v1162h166v-774l-14 -126h8l83 131l593 769h103v-1016h195v-40l-166 -321h-110l83 215h-167v768l10 128h-7l-80 -131l-595 -765h-102zM310 1410l154 35q8 -60 50.5 -90.5t112.5 -30.5t112.5 30.5t50.5 88.5l139 -30q-22 -91 -95 -142.5t-209 -51.5q-131 0 -215 45 t-100 146z" />
<glyph unicode="&#x48b;" horiz-adv-x="1086" d="M146 0v871h153v-515l-12 -152h18l77 148l400 519h119v-741h166v-40l-166 -309h-110l83 219h-126v497l23 173h-18l-82 -162l-407 -508h-118zM234 1138l136 43q8 -36 23 -57.5t35 -32.5t45.5 -13.5t53.5 -2.5q29 0 55 3t45.5 15t34.5 32t23 54l119 -34q-18 -98 -95 -138 t-185 -40q-51 0 -99 8t-87 28.5t-66.5 52.5t-37.5 82z" />
<glyph unicode="&#x48c;" horiz-adv-x="1130" d="M0 904v136h269v155h166v-155h373v-136h-373v-189q10 2 30.5 4.5t46.5 5t52 4t48 1.5q86 0 169 -16.5t148.5 -56.5t105.5 -108t40 -171q0 -99 -39 -173.5t-106 -123t-158.5 -72.5t-197.5 -24q-25 0 -62 1t-79.5 4.5t-85 8t-78.5 12.5v893h-269zM435 138q23 -7 68.5 -8.5 t90.5 -1.5q61 0 116.5 14t97.5 43.5t66.5 74.5t24.5 107q0 66 -26.5 109t-70.5 68t-99.5 34t-115.5 9q-14 0 -37.5 -1.5t-46 -3t-41.5 -5t-27 -4.5v-435z" />
<glyph unicode="&#x48d;" horiz-adv-x="954" d="M0 752v119h214v291h153v-291h306v-119h-306v-214q57 6 102 9.5t79 3.5q98 0 166 -20t111 -55t62 -83t19 -103q0 -156 -104.5 -228t-326.5 -72q-65 0 -131.5 1t-129.5 6v755h-214zM367 128q41 -5 76 -7t65 -2q125 0 180.5 40t55.5 120q0 71 -55.5 113.5t-172.5 42.5 q-33 0 -71 -3t-78 -11v-293z" />
<glyph unicode="&#x48e;" horiz-adv-x="1018" d="M147 0v1149q70 15 152.5 21t161.5 6q84 0 171.5 -15t159 -54.5t117 -110t45.5 -181.5q0 -125 -56.5 -205.5t-145.5 -123.5l120 -169l-90 -65l-138 196q-43 -11 -89.5 -16.5t-93.5 -5.5q-10 0 -30.5 1t-43 1.5t-43.5 2.5t-31 4v-435h-166zM313 578q9 -4 28 -4.5t40 -2.5 t40 -2h29q28 0 56 2t56 7l-108 149l80 55l121 -176q54 25 88.5 73.5t34.5 133.5q0 67 -28 110t-73 67.5t-100.5 34t-110.5 9.5q-45 0 -87 -2t-66 -8v-446z" />
<glyph unicode="&#x48f;" horiz-adv-x="1044" d="M146 -332v1203h103l30 -111h14q45 65 116.5 100.5t161.5 35.5q189 0 281.5 -105.5t92.5 -336.5q0 -109 -30 -196t-87 -150l111 -123l-97 -89l-119 131q-47 -24 -101.5 -37t-116.5 -13q-34 0 -61.5 2t-50.5 8.5t-46.5 13.5t-47.5 18v-351h-153zM299 163q38 -27 82.5 -42 t114.5 -15q82 0 141 32l-106 112l86 72l100 -113q31 43 48.5 105.5t17.5 141.5q0 141 -56.5 225.5t-190.5 84.5q-99 0 -156 -49.5t-81 -152.5v-401z" />
<glyph unicode="&#x490;" horiz-adv-x="805" d="M147 0v1162h550l30 228h109v-375h-523v-1015h-166z" />
<glyph unicode="&#x491;" horiz-adv-x="706" d="M146 0v871h421l30 229h109v-359h-407v-741h-153z" />
<glyph unicode="&#x492;" horiz-adv-x="882" d="M15 518v123h174v521h688v-147h-522v-374h393v-123h-393v-518h-166v518h-174z" />
<glyph unicode="&#x493;" horiz-adv-x="742" d="M0 361v117h143v393h560v-130h-407v-263h363v-117h-363v-361h-153v361h-143z" />
<glyph unicode="&#x494;" horiz-adv-x="1048" d="M147 0v1162h689v-147h-523v-418q24 6 86 20.5t162 14.5q71 0 141.5 -18.5t127 -64.5t90.5 -124t34 -197q0 -224 -110.5 -332t-317.5 -108q-59 0 -85 1.5t-39 4.5v144q22 -3 50 -3.5t77 -0.5q121 0 185 68.5t64 212.5q0 80 -21.5 133.5t-58 84.5t-85.5 43.5t-104 12.5 q-29 0 -61 -4t-58 -9.5t-47 -11.5t-30 -10v-454h-166z" />
<glyph unicode="&#x495;" horiz-adv-x="1021" d="M146 0v871h555v-130h-402v-306q48 13 107.5 26.5t145.5 13.5q75 0 141.5 -21t118 -68t81.5 -124.5t30 -190.5q0 -223 -100 -333.5t-318 -110.5q-45 0 -78 3t-49 5v129q16 -1 56.5 -4.5t74.5 -3.5q135 0 196 80.5t61 216.5q0 146 -70.5 217.5t-196.5 71.5 q-66 0 -120 -16.5t-80 -26.5v-299h-153z" />
<glyph unicode="&#x496;" horiz-adv-x="1487" d="M-3 0l391 518l88 63l-85 60l-369 521h192l355 -515h81v515h156v-535l77 23l353 512h184l-358 -505l-75 -55l93 -68l287 -388h111v-358h-115l-26 212h-61l-388 531h-82v-531h-156v551l-76 -24l-387 -527h-190z" />
<glyph unicode="&#x497;" horiz-adv-x="1326" d="M10 0l291 393l74 58l-104 71l-239 349h166l253 -377h110v377h149v-395l99 27l256 368h165l-252 -347l-79 -63l103 -73l176 -258h129v-349h-107l-27 219h-83l-272 391h-108v-391h-149v411l-100 -26l-272 -385h-179z" />
<glyph unicode="&#x498;" horiz-adv-x="976" d="M73 27l41 146q43 -19 119 -33.5t185 -14.5q51 0 103 12t93 38t66.5 66.5t25.5 97.5q0 99 -77 145.5t-214 54.5q-22 2 -38.5 3t-39.5 1h-90v128h28h39.5t50 2.5t49.5 3t39 3.5q90 12 152.5 57.5t62.5 121.5q0 51 -19 85t-53 55.5t-78.5 30t-94.5 8.5q-97 0 -168 -15 t-109 -32l-45 132q16 9 51 19.5t81 19t101.5 14t113.5 5.5q73 0 144 -14t126.5 -47.5t90.5 -88t35 -137.5q0 -82 -58.5 -157t-177.5 -108v-7q127 -19 201 -89t74 -190q0 -84 -33.5 -148.5t-90 -109.5t-128.5 -70.5t-151 -33.5l-26 -277h-104l-35 277q-83 5 -142.5 17 t-99.5 29z" />
<glyph unicode="&#x499;" horiz-adv-x="855" d="M79 33l40 123q45 -23 108 -33t138 -10q230 0 229 142q0 65 -55 98t-191 33h-103v117h128q37 0 71 9.5t60.5 27t42 42t15.5 51.5q0 70 -51.5 97t-155.5 27q-73 0 -133.5 -16t-98.5 -33l-42 117q108 61 324 61q156 0 235.5 -55t79.5 -160q0 -28 -11 -57.5t-32.5 -57 t-52 -50t-70.5 -33.5v-19q113 -20 158 -74t45 -139q0 -95 -77 -165.5t-230 -88.5l-26 -283h-104l-35 280q-68 5 -115.5 17t-90.5 32z" />
<glyph unicode="&#x49a;" horiz-adv-x="1116" d="M147 0v1162h166v-535l77 23l418 512h189l-418 -499l-78 -55l91 -67l337 -395h173v-358h-115l-26 212h-117l-450 527h-81v-527h-166z" />
<glyph unicode="&#x49b;" horiz-adv-x="935" d="M146 0v871h153v-396l91 30l297 366h168l-284 -339h2l-90 -64l107 -75l201 -263h119v-349h-107l-27 219h-71l-312 391h-94v-391h-153z" />
<glyph unicode="&#x49c;" horiz-adv-x="1249" d="M147 0v1162h166v-535l97 6v213h126v-200l42 4l375 512h185l-380 -499l-79 -55l92 -65l422 -543h-202l-410 527h-45v-212h-126v212h-97v-527h-166z" />
<glyph unicode="&#x49d;" horiz-adv-x="1078" d="M146 0v872h153v-413l119 11v230h104v-220l72 8l227 383h149l-196 -335l-109 -77l123 -86l263 -373h-174l-275 386h-80v-204h-104v204h-119v-386h-153z" />
<glyph unicode="&#x49e;" horiz-adv-x="1214" d="M0 923v136h250v103h166v-103h213v-130h-213v-302l92 23l407 512h187l-409 -499l-85 -55l95 -65l455 -543h-209l-444 527h-89v-527h-166v923h-250z" />
<glyph unicode="&#x49f;" horiz-adv-x="938" d="M0 910v111h161v141h152v-141h279v-111h-279v-435l87 28l288 368h180l-278 -337h2l-91 -66l105 -75l306 -393h-192l-312 391h-95v-391h-152v910h-161z" />
<glyph unicode="&#x4a0;" horiz-adv-x="1253" d="M0 1015v147h456v-535l76 23l419 512h189l-417 -499l-79 -55l92 -67l460 -541h-209l-449 527h-82v-527h-166v1015h-290z" />
<glyph unicode="&#x4a1;" horiz-adv-x="973" d="M0 741v130h367v-395l91 29l297 366h168l-285 -337l-89 -70l111 -73l304 -391h-191l-312 391h-94v-391h-153v741h-214z" />
<glyph unicode="&#x4a2;" horiz-adv-x="1276" d="M147 0v1162h166v-497h589v497h166v-1016h162v-358h-115l-27 212h-186v519h-589v-519h-166z" />
<glyph unicode="&#x4a3;" horiz-adv-x="1043" d="M146 0v871h153v-355h437v355h153v-741h121v-349h-108l-26 219h-140v380h-437v-380h-153z" />
<glyph unicode="&#x4a4;" horiz-adv-x="1560" d="M147 0v1162h166v-497h589v497h689v-147h-523v-1015h-166v519h-589v-519h-166z" />
<glyph unicode="&#x4a5;" horiz-adv-x="1288" d="M146 0v871h153v-355h437v355h553v-130h-400v-741h-153v380h-437v-380h-153z" />
<glyph unicode="&#x4a6;" horiz-adv-x="1779" d="M147 0v1162h898v-565q23 6 86.5 20.5t162.5 14.5q71 0 142 -18.5t126.5 -64.5t90 -124t34.5 -197q0 -224 -112 -332t-316 -108q-59 0 -85 1.5t-39 4.5v141q22 -3 50 -4t78 -1q121 0 184.5 70t63.5 215q0 81 -21.5 134t-58 84t-85 43.5t-103.5 12.5q-30 0 -62 -4t-58 -9.5 t-47 -11.5t-31 -10v-81v-373h-166v1015h-566v-1015h-166z" />
<glyph unicode="&#x4a7;" horiz-adv-x="1592" d="M146 0v871h733v-440q49 15 109 28.5t142 13.5q73 0 140 -21t119.5 -68t83 -123.5t30.5 -189.5q0 -226 -99.5 -334.5t-313.5 -108.5q-48 0 -81.5 7t-47.5 9v127q14 0 50.5 -6.5t80.5 -6.5q134 0 194.5 78t60.5 219q0 73 -20 127.5t-54.5 90.5t-83.5 53t-108 17 q-58 0 -110 -13t-92 -25v-305h-152v741h-425v-741h-156z" />
<glyph unicode="&#x4a8;" horiz-adv-x="1491" d="M96 581q0 141 37.5 252.5t108.5 190t171.5 119t228.5 40.5v-143q-82 0 -150.5 -28.5t-117 -85.5t-75.5 -142.5t-27 -197.5q0 -100 31.5 -184.5t87 -146.5t130 -97.5t161.5 -35.5q19 0 42.5 1.5t41.5 7.5q-56 32 -101 81t-75.5 111t-47 133t-16.5 146q0 126 33 225 t90 165.5t136 101t169 34.5q101 0 178 -33t129.5 -94t80 -148t27.5 -193q0 -99 -23.5 -184.5t-62.5 -154.5t-90.5 -119t-106.5 -77q8 -2 17.5 -2.5t19.5 -0.5q68 0 120 14.5t87 37.5l50 -131q-33 -28 -86 -46.5t-149 -18.5q-60 0 -121.5 16.5t-100.5 40.5q-103 -57 -241 -57 q-136 0 -244.5 43.5t-184.5 122t-116.5 190t-40.5 247.5zM701 594q0 -55 14.5 -115.5t44.5 -117t73.5 -104.5t103.5 -80q48 25 93.5 69t82 104.5t58.5 136t22 163.5q0 68 -12.5 129.5t-41 107t-73 72.5t-107.5 27q-51 0 -97.5 -23t-82 -71t-57 -121.5t-21.5 -176.5z" />
<glyph unicode="&#x4a9;" horiz-adv-x="1296" d="M100 433q0 213 103.5 334t314.5 130v-129q-256 -15 -256 -330q0 -65 19.5 -125.5t57.5 -106t95 -73t133 -27.5q20 0 49.5 4t60.5 23q-73 44 -121 130.5t-48 211.5q0 60 15.5 129t55.5 128t107 99t170 40q90 0 153.5 -29t103.5 -79.5t58 -118.5t18 -145q0 -63 -20.5 -122 t-54 -108.5t-76.5 -89.5t-87 -65q27 -8 50 -11t41 -3q34 0 72.5 9.5t76.5 41.5q13 -32 21.5 -53.5t15.5 -42.5l3 -14q-35 -28 -90.5 -46t-123.5 -18q-56 0 -110 19.5t-94 49.5q-61 -40 -131.5 -54.5t-133.5 -14.5q-107 0 -190.5 34t-140.5 94.5t-87 144.5t-30 183zM663 451 q0 -98 46 -179t120 -128q40 22 75.5 56t63 79.5t43.5 100.5t16 116q0 44 -11 88.5t-32.5 79t-54 56t-76.5 21.5q-58 0 -94.5 -26.5t-57.5 -67.5t-29.5 -93.5t-8.5 -102.5z" />
<glyph unicode="&#x4aa;" horiz-adv-x="1034" d="M96 581q0 163 50 277t129.5 186t179 105.5t197.5 33.5q109 0 179 -11.5t118 -30.5l-37 -139q-81 38 -247 38q-75 0 -145 -24.5t-125.5 -80t-89 -142.5t-33.5 -212q0 -113 31.5 -198.5t87 -143.5t131 -87t165.5 -29q81 0 141 14.5t101 38.5l40 -127q-46 -33 -113.5 -49 t-145.5 -20l-25 -276h-104l-35 283q-95 15 -176.5 58t-142.5 117t-96 177.5t-35 241.5z" />
<glyph unicode="&#x4ab;" horiz-adv-x="877" d="M100 435q0 220 106.5 340.5t307.5 120.5q89 0 153 -16t116 -39l-39 -124q-45 23 -97.5 36t-114.5 13q-270 0 -270 -331q0 -63 15 -121.5t48 -104t87 -73t132 -27.5q70 0 122 19t87 46l50 -114q-48 -33 -108 -53t-128 -27l-24 -276h-105l-35 281q-82 15 -140.5 53 t-94 96.5t-52 134.5t-16.5 166z" />
<glyph unicode="&#x4ac;" horiz-adv-x="1011" d="M32 1015v147h948v-147h-391v-869h161v-358h-115l-26 212h-186v1015h-391z" />
<glyph unicode="&#x4ad;" horiz-adv-x="755" d="M0 741v130h757v-130h-303v-611h128v-349h-107l-27 219h-146v741h-302z" />
<glyph unicode="&#x4ae;" horiz-adv-x="1023" d="M11 1162h195l290 -494l28 -106h3l32 109l277 491h176l-413 -706v-456h-166v454z" />
<glyph unicode="&#x4af;" horiz-adv-x="913" d="M13 871h178l225 -558l52 -207h13l51 209l203 556h166l-358 -874v-331h-153v331z" />
<glyph unicode="&#x4b0;" horiz-adv-x="1023" d="M11 1162h195l290 -494l28 -106h3l32 109l277 491h176l-401 -686h263v-116h-275v-360h-166v360h-275v116h262z" />
<glyph unicode="&#x4b1;" horiz-adv-x="913" d="M13 871h178l225 -558l52 -207h13l51 209l203 556h166l-357 -869h222v-110h-223v-226h-153v226h-224v110h220z" />
<glyph unicode="&#x4b2;" horiz-adv-x="1177" d="M43 0l420 590l-384 572h198l250 -382l46 -96l43 96l261 382h183l-395 -560l312 -456h186v-358h-115l-26 212h-137l-277 405l-52 101l-47 -101l-283 -405h-183z" />
<glyph unicode="&#x4b3;" horiz-adv-x="980" d="M49 0l337 446l-313 425h194l170 -222l57 -118l68 118l176 222h172l-316 -418q58 -80 117.5 -162t119.5 -161h123v-349h-108l-26 219h-76l-192 247l-66 125l-68 -125l-192 -247h-177z" />
<glyph unicode="&#x4b4;" horiz-adv-x="1522" d="M32 1015v147h877v-147h-320v-869h552v1016h166v-1016h168v-358h-115l-26 212h-911v1015h-391z" />
<glyph unicode="&#x4b5;" horiz-adv-x="1193" d="M0 741v130h731v-130h-280v-611h417v741h153v-741h141v-349h-102l-31 219h-730v741h-299z" />
<glyph unicode="&#x4b6;" horiz-adv-x="1160" d="M126 760v402h166v-367q0 -111 53.5 -172t167.5 -61q84 0 156 20t118 53v527h166v-1016h160v-358h-114l-27 212h-185v494q-48 -27 -128.5 -50.5t-185.5 -23.5q-78 0 -142 18t-109.5 59.5t-70.5 105.5t-25 157z" />
<glyph unicode="&#x4b7;" horiz-adv-x="956" d="M100 616v255h152v-214q0 -54 6 -95t25 -71t53 -46t88 -16q85 0 142.5 19.5t87.5 42.5v380h152v-741h118v-349h-108l-26 219h-136v370q-32 -20 -97 -44.5t-172 -24.5q-70 0 -124 14.5t-89.5 51t-53.5 97t-18 152.5z" />
<glyph unicode="&#x4b8;" horiz-adv-x="1119" d="M126 753v409h166v-374q0 -215 199 -226v201h126v-194q59 8 107.5 25.5t81.5 40.5v527h166v-1162h-166v494q-32 -16 -80.5 -32.5t-108.5 -28.5v-201h-126v188h-18q-76 0 -140 16.5t-110 55.5t-71.5 103t-25.5 158z" />
<glyph unicode="&#x4b9;" horiz-adv-x="1003" d="M100 635v236h152v-181q0 -57 6 -101.5t24.5 -75t54 -48t92.5 -19.5v236h107v-229q59 10 101.5 27t67.5 38v353h153v-871h-153v403q-24 -16 -65 -33.5t-104 -29.5v-217h-107v203h-38q-69 0 -124 15t-92 51t-56 95t-19 148z" />
<glyph unicode="&#x4ba;" horiz-adv-x="1097" d="M147 0v1162h166v-495q48 26 128 50t184 24q76 0 139.5 -17.5t110 -55.5t72 -100t25.5 -153v-415h-166v378q0 221 -219 221q-84 0 -156.5 -20t-117.5 -55v-524h-166z" />
<glyph unicode="&#x4bb;" horiz-adv-x="1062" d="M146 0v1162h153v-399h18q49 60 119 96.5t173 36.5q79 0 137 -17.5t96 -61.5t57 -118t19 -185v-514h-153v481q0 71 -9 123.5t-33.5 87.5t-65 51.5t-101.5 16.5q-43 0 -85 -15t-76.5 -41.5t-59.5 -64t-36 -83.5v-556h-153z" />
<glyph unicode="&#x4bc;" horiz-adv-x="1429" d="M3 736q2 48 13 75.5t33 47.5h152q-28 -20 -38.5 -51.5t-10.5 -54.5q0 -16 5.5 -34t20.5 -33t43 -24.5t75 -9.5q13 0 25.5 1t26.5 2q13 252 142 390t361 138q230 0 347 -128t117 -360q0 -43 -4 -88t-12 -93h-785q30 -392 412 -392q81 0 150.5 23t118.5 51l41 -131 q-63 -35 -147 -61t-195 -26q-119 0 -217 31.5t-168.5 97.5t-112 167t-48.5 240h-64q-78 0 -132 18.5t-88 48.5t-48 70.5t-13 84.5zM513 657h632q3 20 3.5 40t0.5 38q0 61 -16.5 116.5t-53 97.5t-92 66.5t-132.5 24.5q-163 0 -248.5 -97t-93.5 -286z" />
<glyph unicode="&#x4bd;" horiz-adv-x="1179" d="M2 647q3 48 23 83t43 60h125q-24 -25 -40.5 -60t-16.5 -78q0 -27 6.5 -50t24 -39.5t48 -26t77.5 -9.5q23 181 130 275t290 94q65 0 129.5 -14t115.5 -53t83.5 -107t32.5 -178q0 -26 -1.5 -61t-6.5 -68h-622q3 -153 73 -231t237 -78q70 0 133 24t97 57l59 -116 q-59 -43 -145 -68.5t-187 -25.5q-107 0 -186 30.5t-131.5 87.5t-78.5 137.5t-27 182.5h-5q-130 0 -206 54.5t-74 177.5zM450 524h477q4 133 -53.5 187.5t-159.5 54.5q-116 0 -184.5 -54.5t-79.5 -187.5z" />
<glyph unicode="&#x4be;" horiz-adv-x="1429" d="M3 736q2 48 13 75.5t33 47.5h152q-28 -20 -38.5 -51.5t-10.5 -54.5q0 -16 5.5 -34t20.5 -33t43 -24.5t75 -9.5q13 0 25.5 1t26.5 2q13 252 142 390t361 138q230 0 347 -128t117 -360q0 -43 -4 -88t-12 -93h-785q30 -391 412 -391q81 0 150.5 22.5t118.5 50.5l41 -131 q-57 -33 -131.5 -56.5t-168.5 -28.5l-26 -276h-104l-35 285q-189 28 -300 155.5t-123 369.5h-64q-78 0 -132 18.5t-88 48.5t-48 70.5t-13 84.5zM513 657h632q3 20 3.5 40t0.5 38q0 61 -16.5 116.5t-53 97.5t-92 66.5t-132.5 24.5q-163 0 -248.5 -97t-93.5 -286z" />
<glyph unicode="&#x4bf;" horiz-adv-x="1179" d="M2 647q3 48 23 83t43 60h125q-24 -25 -40.5 -60t-16.5 -78q0 -27 6.5 -50t24 -40.5t48 -26.5t77.5 -9q23 180 130 275t290 95q65 0 129.5 -14t115.5 -53t83.5 -107t32.5 -178q0 -26 -1.5 -61t-6.5 -68h-622q3 -153 73 -229.5t237 -76.5q70 0 133 24.5t97 57.5l59 -120 q-48 -38 -118.5 -61t-155.5 -30l-24 -290h-106l-36 295q-160 29 -236 141.5t-79 289.5h-5q-130 0 -206 54t-74 177zM450 524h477q4 133 -53.5 187.5t-159.5 54.5q-116 0 -184.5 -54.5t-79.5 -187.5z" />
<glyph unicode="&#x4c0;" horiz-adv-x="660" d="M114 0v109h133v942h-133v111h432v-111h-133v-942h133v-109h-432z" />
<glyph unicode="&#x4c3;" horiz-adv-x="1091" d="M147 0v1162h166v-535l77 23l418 512h189l-402 -472l-104 -65h112q95 -22 163 -59t112.5 -96t64 -142.5t19.5 -197.5v-32q0 -119 -26 -204t-72 -139t-112.5 -78.5t-145.5 -24.5q-15 0 -31 0.5t-32 2.5v143q69 -2 118 13.5t79 54t43 100.5t13 153q0 209 -96.5 308.5 t-306.5 99.5h-80v-527h-166z" />
<glyph unicode="&#x4c4;" horiz-adv-x="926" d="M146 0v871h153v-415l91 32l295 383h168l-284 -353l-86 -62q33 -3 51 -4.5t28.5 -3.5t14.5 -2h7q78 -20 129.5 -58t81.5 -86t41.5 -103.5t11.5 -106.5v-32q0 -106 -25 -182.5t-69 -125.5t-104.5 -72t-131.5 -23q-27 0 -72 4v125q118 -8 183.5 61t65.5 210q0 91 -20 149 t-58 91t-94.5 46t-131.5 15h-92v-358h-153z" />
<glyph unicode="&#x4c5;" horiz-adv-x="1134" d="M-6 8l21 139q20 -4 40 -4t40.5 7.5t40.5 25t38 48.5q25 42 46.5 115.5t38 186t27.5 270t16 366.5h684v-1016h168v-40l-165 -321h-110l83 215h-142v1015h-366q-8 -165 -19 -299t-27.5 -242.5t-38.5 -191.5t-56 -144q-42 -80 -98.5 -113t-118.5 -33q-34 0 -57 4t-45 12z " />
<glyph unicode="&#x4c6;" horiz-adv-x="988" d="M-10 8l23 139q22 -6 49 -6q39 0 70.5 29t55 108.5t38.5 222.5t21 370h576v-741h146v-40l-166 -309h-110l83 219h-106v741h-282l-3 -49q-12 -165 -27.5 -295t-45.5 -220.5t-80 -137.5t-129 -47q-37 0 -65 4t-48 12z" />
<glyph unicode="&#x4c7;" horiz-adv-x="1215" d="M147 0v1162h166v-497h589v497h166v-1162v-40q0 -154 -57.5 -231t-185.5 -77q-17 0 -33 1.5t-34 4.5v140q51 -2 80.5 9t43.5 35t17 63.5t3 94.5v519h-589v-519h-166z" />
<glyph unicode="&#x4c8;" horiz-adv-x="1034" d="M146 0v871h153v-355h437v355h153v-911q0 -154 -55.5 -228t-181.5 -74q-33 0 -70 5v125q51 -2 81 10.5t47 38t21.5 67t4.5 96.5v380h-437v-380h-153z" />
<glyph unicode="&#x4c9;" horiz-adv-x="1235" d="M147 0v1162h166v-497h589v497h166v-1016h188v-40l-166 -321h-110l84 215h-162v519h-589v-519h-166z" />
<glyph unicode="&#x4ca;" horiz-adv-x="1057" d="M146 0v871h153v-355h437v355h153v-741h149v-40l-166 -309h-109l83 219h-110v380h-437v-380h-153z" />
<glyph unicode="&#x4cb;" horiz-adv-x="1099" d="M126 760v402h166v-367q0 -111 53.5 -172t167.5 -61q84 0 156 20t118 53v527h166v-1162h-188l-27 -212h-114v358h163v348q-48 -27 -128.5 -50.5t-185.5 -23.5q-78 0 -142 18t-109.5 59.5t-70.5 105.5t-25 157z" />
<glyph unicode="&#x4cc;" horiz-adv-x="948" d="M100 608v263h152v-212q0 -50 6 -90t23.5 -68t50.5 -43t88 -15q84 0 140.5 18.5t89.5 41.5v368h153v-871h-181l-33 -219h-97v349h158v245q-41 -19 -108 -40.5t-159 -21.5q-141 0 -212 65t-71 230z" />
<glyph unicode="&#x4cd;" horiz-adv-x="1466" d="M147 0v1162h125l393 -593l62 -126h3l58 130l374 589h130v-1016h194v-40l-166 -321h-109l83 215h-167v748l18 186h-7l-71 -161l-323 -515h-51l-340 516l-68 158h-8l27 -182v-750h-157z" />
<glyph unicode="&#x4ce;" horiz-adv-x="1273" d="M146 0v871h159l260 -383l64 -121l69 124l244 380h160v-741h152v-40l-166 -309h-110l84 219h-109v492l9 178h-20l-74 -136l-224 -330h-52l-236 330l-66 136h-18l15 -176v-494h-141z" />
<glyph unicode="&#x4cf;" horiz-adv-x="462" d="M152 0v1162h158v-1162h-158z" />
<glyph unicode="&#x4d0;" horiz-adv-x="1069" d="M13 0l478 1178h87l479 -1178h-172l-127 304h-459l-123 -304h-163zM226 1410l154 35q8 -60 50.5 -90.5t111.5 -30.5q70 0 112.5 30.5t50.5 88.5l139 -30q-21 -91 -94 -142.5t-209 -51.5q-131 0 -215 45t-100 146zM348 443h362l-134 330l-45 178h-4l-44 -181z" />
<glyph unicode="&#x4d1;" horiz-adv-x="964" d="M75 232q0 75 32 129.5t83.5 89.5t117 51.5t130.5 16.5q51 0 87 -1.5t60 -4t40.5 -5t29.5 -3.5q4 25 5.5 42.5t1.5 46.5q0 46 -10 77.5t-32.5 50.5t-60.5 27.5t-93 8.5q-32 0 -70 -5t-76 -14t-75.5 -22.5t-67.5 -28.5l-41 128q149 72 370 72q100 0 160.5 -26t93.5 -65.5 t44 -88.5t11 -97q0 -92 -7 -184t-7 -199q0 -64 6 -123t19 -108h-111l-42 133h-16q-19 -26 -45 -51.5t-62.5 -45.5t-84 -33t-109.5 -13q-61 0 -112 17.5t-89 48.5t-59 77t-21 102zM173 1138l136 43q8 -36 23 -57.5t34.5 -32.5t45.5 -13.5t54 -2.5t54 3t46 15t35 32t23 54 l119 -34q-19 -98 -96 -138t-184 -40q-51 0 -99.5 8t-87.5 28.5t-66.5 52.5t-36.5 82zM237 249q0 -67 47.5 -100t122.5 -33q55 0 97 14t73 34.5t50 46.5t28 51v132q-13 2 -28 5.5t-37.5 5.5t-53 3.5t-75.5 1.5q-103 0 -163.5 -36.5t-60.5 -124.5z" />
<glyph unicode="&#x4d2;" horiz-adv-x="1069" d="M13 0l478 1178h87l479 -1178h-172l-127 304h-459l-123 -304h-163zM254 1319q0 38 27 59.5t75 21.5q47 0 75 -21.5t28 -59.5q0 -37 -28 -59t-75 -22t-74.5 22t-27.5 59zM348 443h362l-134 330l-45 178h-4l-44 -181zM608 1319q0 38 27.5 59.5t74.5 21.5t75.5 -21.5 t28.5 -59.5q0 -37 -28.5 -59t-75.5 -22t-74.5 22t-27.5 59z" />
<glyph unicode="&#x4d3;" horiz-adv-x="964" d="M75 232q0 75 32 129.5t83.5 89.5t117 51.5t130.5 16.5q51 0 87 -1.5t60 -4t40.5 -5t29.5 -3.5q4 25 5.5 42.5t1.5 46.5q0 46 -10 77.5t-32.5 50.5t-60.5 27.5t-93 8.5q-32 0 -70 -5t-76 -14t-75.5 -22.5t-67.5 -28.5l-41 128q149 72 370 72q100 0 160.5 -26t93.5 -65.5 t44 -88.5t11 -97q0 -92 -7 -184t-7 -199q0 -64 6 -123t19 -108h-111l-42 133h-16q-19 -26 -45 -51.5t-62.5 -45.5t-84 -33t-109.5 -13q-61 0 -112 17.5t-89 48.5t-59 77t-21 102zM198 1051q0 40 26 66.5t70 26.5q41 0 66.5 -26.5t25.5 -66.5q0 -38 -25.5 -64.5t-66.5 -26.5 q-43 0 -69.5 26.5t-26.5 64.5zM237 249q0 -67 47.5 -100t122.5 -33q55 0 97 14t73 34.5t50 46.5t28 51v132q-13 2 -28 5.5t-37.5 5.5t-53 3.5t-75.5 1.5q-103 0 -163.5 -36.5t-60.5 -124.5zM554 1051q0 40 26 66.5t69 26.5t69 -26.5t26 -66.5q0 -38 -26 -64.5t-69 -26.5 t-69 26.5t-26 64.5z" />
<glyph unicode="&#x4d4;" horiz-adv-x="1540" d="M-41 0l756 1162h705v-144h-535v-353h489v-143h-489v-379h543v-143h-710v313h-381l-199 -313h-179zM423 453h295v527h-6l-63 -176z" />
<glyph unicode="&#x4d5;" horiz-adv-x="1542" d="M75 231q0 74 34 125.5t96 82.5t149 44.5t192 13.5q25 0 55.5 -0.5t58.5 2.5v6q5 39 5 87q0 93 -44.5 129.5t-154.5 36.5q-30 0 -67.5 -4t-76 -11.5t-76 -18t-67.5 -23.5l-41 110q69 35 165.5 56t204.5 21q95 0 161 -31.5t102 -85.5q27 32 62.5 55.5t75.5 38.5t83 23t83 8 q66 0 131 -14t116.5 -52.5t83 -108t31.5 -178.5q0 -24 -1 -53t-6 -72h-624q2 -75 19 -133.5t55 -99.5t96.5 -62.5t141.5 -21.5q63 0 126 20t105 52l55 -102q-57 -41 -146.5 -67.5t-182.5 -26.5q-116 0 -213 46.5t-145 128.5h-19q-25 -30 -57.5 -59.5t-74.5 -53t-94 -38 t-116 -14.5q-61 0 -112 16.5t-89 48t-59 77t-21 102.5zM237 247q0 -60 47.5 -97t122.5 -37q55 0 96 13t72 33t51.5 44.5t32.5 46.5v141q-29 3 -59.5 2.5t-58.5 -0.5q-60 0 -114.5 -6.5t-97 -23t-67.5 -45t-25 -71.5zM813 527h476q1 67 -12.5 112.5t-42 73.5t-68 40.5 t-90.5 12.5q-114 0 -180.5 -54.5t-82.5 -184.5z" />
<glyph unicode="&#x4d6;" horiz-adv-x="970" d="M147 0v1162h703v-144h-537v-353h490v-143h-490v-379h545v-143h-711zM184 1410l154 35q8 -60 50.5 -90.5t111.5 -30.5q70 0 112.5 30.5t50.5 88.5l139 -30q-21 -91 -94 -142.5t-209 -51.5q-131 0 -215 45t-100 146z" />
<glyph unicode="&#x4d7;" horiz-adv-x="991" d="M100 435q0 224 110 342.5t314 118.5q65 0 129.5 -14t116 -53t84 -107t32.5 -178q0 -26 -1.5 -61t-7.5 -68h-622q3 -153 73.5 -231t236.5 -78q70 0 133 24t98 57l59 -116q-59 -43 -145 -68.5t-188 -25.5q-109 0 -189.5 32t-132 92t-76 144.5t-24.5 189.5zM234 1138l136 43 q8 -36 23 -57.5t34.5 -32.5t45.5 -13.5t54 -2.5t54 3t46 15t35 32t23 54l119 -34q-19 -98 -96 -138t-184 -40q-51 0 -99.5 8t-87.5 28.5t-66.5 52.5t-36.5 82zM262 524h478q3 133 -54 187.5t-160 54.5q-116 0 -184 -54.5t-80 -187.5z" />
<glyph unicode="&#x4d8;" horiz-adv-x="1157" d="M92 471q0 43 4.5 90.5t12.5 97.5h787q-15 196 -107 288.5t-275 92.5q-43 0 -84.5 -7.5t-79 -18t-68 -23.5t-50.5 -24l-38 133q54 32 146.5 57.5t205.5 25.5q121 0 217 -34t162.5 -107t101.5 -187.5t35 -273.5q0 -287 -126.5 -445t-379.5 -158q-115 0 -202 35t-145 99 t-87.5 155t-29.5 204zM264 440q0 -62 17.5 -119t54 -102t92 -71t131.5 -26q161 0 248 98t89 299h-625q-4 -20 -5.5 -40t-1.5 -39z" />
<glyph unicode="&#x4d9;" horiz-adv-x="993" d="M106 361q0 24 1.5 56.5t6.5 66.5h622q-8 75 -25.5 129t-53 87t-92 49t-139.5 16q-65 0 -129.5 -23.5t-103.5 -53.5l-54 110q60 43 145.5 69.5t183.5 26.5q111 0 191.5 -34t132.5 -94.5t77 -145t25 -185.5q0 -108 -28 -192.5t-80.5 -143.5t-128.5 -90.5t-173 -31.5 q-71 0 -139 18t-121 62t-85.5 118t-32.5 186zM262 375q-4 -139 58 -204t166 -65q108 0 176 69.5t69 199.5h-469z" />
<glyph unicode="&#x4da;" horiz-adv-x="1157" d="M92 471q0 43 4.5 90.5t12.5 97.5h787q-15 196 -107 288.5t-275 92.5q-43 0 -84.5 -7.5t-79 -18t-68 -23.5t-50.5 -24l-38 133q54 32 146.5 57.5t205.5 25.5q121 0 217 -34t162.5 -107t101.5 -187.5t35 -273.5q0 -287 -126.5 -445t-379.5 -158q-115 0 -202 35t-145 99 t-87.5 155t-29.5 204zM264 440q0 -62 17.5 -119t54 -102t92 -71t131.5 -26q161 0 248 98t89 299h-625q-4 -20 -5.5 -40t-1.5 -39zM285 1319q0 38 27 59.5t75 21.5q47 0 75 -21.5t28 -59.5q0 -37 -28 -59t-75 -22t-74.5 22t-27.5 59zM639 1319q0 38 27.5 59.5t74.5 21.5 t75.5 -21.5t28.5 -59.5q0 -37 -28.5 -59t-75.5 -22t-74.5 22t-27.5 59z" />
<glyph unicode="&#x4db;" horiz-adv-x="993" d="M106 361q0 24 1.5 56.5t6.5 66.5h622q-8 75 -25.5 129t-53 87t-92 49t-139.5 16q-65 0 -129.5 -23.5t-103.5 -53.5l-54 110q60 43 145.5 69.5t183.5 26.5q111 0 191.5 -34t132.5 -94.5t77 -145t25 -185.5q0 -108 -28 -192.5t-80.5 -143.5t-128.5 -90.5t-173 -31.5 q-71 0 -139 18t-121 62t-85.5 118t-32.5 186zM217 1051q0 40 26 66.5t70 26.5q41 0 66.5 -26.5t25.5 -66.5q0 -38 -25.5 -64.5t-66.5 -26.5q-43 0 -69.5 26.5t-26.5 64.5zM262 375q-4 -139 58 -204t166 -65q108 0 176 69.5t69 199.5h-469zM573 1051q0 40 26 66.5t69 26.5 t69 -26.5t26 -66.5q0 -38 -26 -64.5t-69 -26.5t-69 26.5t-26 64.5z" />
<glyph unicode="&#x4dc;" horiz-adv-x="1472" d="M-3 0l391 518l88 63l-85 60l-369 521h192l355 -515h81v515h156v-535l77 23l353 512h184l-358 -505l-75 -55l93 -68l397 -534h-201l-388 531h-82v-531h-156v551l-76 -24l-387 -527h-190zM450 1319q0 38 27 59.5t75 21.5q47 0 75 -21.5t28 -59.5q0 -37 -28 -59t-75 -22 t-74.5 22t-27.5 59zM804 1319q0 38 27.5 59.5t74.5 21.5t75.5 -21.5t28.5 -59.5q0 -37 -28.5 -59t-75.5 -22t-74.5 22t-27.5 59z" />
<glyph unicode="&#x4dd;" horiz-adv-x="1283" d="M10 0l291 393l74 58l-104 71l-239 349h166l253 -377h110v377h149v-395l99 27l256 368h165l-252 -347l-79 -63l103 -73l272 -388h-184l-272 391h-108v-391h-149v411l-100 -26l-272 -385h-179zM371 1051q0 40 26 66.5t70 26.5q41 0 66.5 -26.5t25.5 -66.5 q0 -38 -25.5 -64.5t-66.5 -26.5q-43 0 -69.5 26.5t-26.5 64.5zM727 1051q0 40 26 66.5t69 26.5t69 -26.5t26 -66.5q0 -38 -26 -64.5t-69 -26.5t-69 26.5t-26 64.5z" />
<glyph unicode="&#x4de;" horiz-adv-x="976" d="M73 27l41 142q43 -18 119 -32.5t185 -14.5q51 0 103 12.5t93 39.5t66.5 67.5t25.5 97.5q0 99 -77 145.5t-214 54.5q-22 2 -38.5 3t-39.5 1h-90v128h28h39.5t50 2.5t49.5 3t39 3.5q90 12 152.5 57.5t62.5 121.5q0 51 -19 85t-53 55.5t-78.5 30t-94.5 8.5q-97 0 -168 -15 t-109 -32l-45 132q16 9 51 19.5t81 19t101.5 14t113.5 5.5q73 0 144 -14t126.5 -47.5t90.5 -88t35 -137.5q0 -82 -58.5 -157t-177.5 -108v-7q127 -19 201 -89t74 -190q0 -94 -42 -163t-109 -113.5t-152.5 -66.5t-174.5 -22q-119 0 -200.5 14t-131.5 35zM158 1319 q0 38 27 59.5t75 21.5q47 0 75 -21.5t28 -59.5q0 -37 -28 -59t-75 -22t-74.5 22t-27.5 59zM512 1319q0 38 27.5 59.5t74.5 21.5t75.5 -21.5t28.5 -59.5q0 -37 -28.5 -59t-75.5 -22t-74.5 22t-27.5 59z" />
<glyph unicode="&#x4df;" horiz-adv-x="855" d="M79 33l40 121q45 -24 108 -33.5t138 -9.5q230 0 229 144q0 65 -55 98t-191 33h-103v117h128q37 0 71 9.5t60.5 27t42 42t15.5 51.5q0 70 -51.5 97t-155.5 27q-73 0 -133.5 -16t-98.5 -33l-42 117q108 61 324 61q156 0 235.5 -55t79.5 -160q0 -28 -11 -57.5t-32.5 -57 t-52 -50t-70.5 -33.5v-19q113 -20 158 -74t45 -139q0 -56 -25.5 -102.5t-74.5 -81.5t-125 -55.5t-176 -20.5q-98 0 -161.5 13.5t-115.5 38.5zM113 1051q0 40 26 66.5t70 26.5q41 0 66.5 -26.5t25.5 -66.5q0 -38 -25.5 -64.5t-66.5 -26.5q-43 0 -69.5 26.5t-26.5 64.5z M469 1051q0 40 26 66.5t69 26.5t69 -26.5t26 -66.5q0 -38 -26 -64.5t-69 -26.5t-69 26.5t-26 64.5z" />
<glyph unicode="&#x4e0;" horiz-adv-x="1018" d="M95 41l39 143q21 -11 54.5 -22t73 -20t80 -14.5t74.5 -5.5q67 0 125 13.5t101 42.5t68 70.5t25 96.5q0 114 -91.5 163t-257.5 49h-157v57l327 347l79 71l-111 -17h-423v147h758v-68l-353 -374l-66 -50v-5l66 15q90 0 164 -22.5t126 -64.5t81 -102t29 -136 q0 -90 -37.5 -159.5t-103 -118.5t-155 -74t-194.5 -25q-38 0 -84.5 5.5t-91 13.5t-83 19.5t-62.5 24.5z" />
<glyph unicode="&#x4e1;" horiz-adv-x="870" d="M40 -322l41 123q49 -22 110.5 -35t137.5 -13q65 0 122 17.5t98 50t65 77.5t24 102q0 122 -84 179t-234 57h-133v49l267 377l105 91l-148 -12h-365v130h692v-62l-300 -394l-83 -70l82 11q71 0 135.5 -24.5t113.5 -68.5t77 -105.5t28 -135.5q0 -95 -36.5 -168.5 t-99.5 -124.5t-149 -78.5t-186 -27.5q-81 0 -150.5 14.5t-129.5 40.5z" />
<glyph unicode="&#x4e2;" horiz-adv-x="1233" d="M147 0v1162h166v-774l-14 -126h8l83 131l593 769h103v-1162h-165v768l10 128h-7l-80 -131l-595 -765h-102zM339 1274v113h580v-113h-580z" />
<glyph unicode="&#x4e3;" horiz-adv-x="1046" d="M146 0v871h153v-515l-12 -152h18l77 148l400 519h119v-871h-153v497l23 173h-18l-82 -162l-407 -508h-118zM238 991v114h544v-114h-544z" />
<glyph unicode="&#x4e4;" horiz-adv-x="1233" d="M147 0v1162h166v-774l-14 -126h8l83 131l593 769h103v-1162h-165v768l10 128h-7l-80 -131l-595 -765h-102zM337 1319q0 38 27 59.5t75 21.5q47 0 75 -21.5t28 -59.5q0 -37 -28 -59t-75 -22t-74.5 22t-27.5 59zM691 1319q0 38 27.5 59.5t74.5 21.5t75.5 -21.5t28.5 -59.5 q0 -37 -28.5 -59t-75.5 -22t-74.5 22t-27.5 59z" />
<glyph unicode="&#x4e5;" horiz-adv-x="1046" d="M146 0v871h153v-515l-12 -152h18l77 148l400 519h119v-871h-153v497l23 173h-18l-82 -162l-407 -508h-118zM238 1051q0 40 26 66.5t70 26.5q41 0 66.5 -26.5t25.5 -66.5q0 -38 -25.5 -64.5t-66.5 -26.5q-43 0 -69.5 26.5t-26.5 64.5zM594 1051q0 40 26 66.5t69 26.5 t69 -26.5t26 -66.5q0 -38 -26 -64.5t-69 -26.5t-69 26.5t-26 64.5z" />
<glyph unicode="&#x4e6;" horiz-adv-x="1238" d="M96 581q0 142 36 254t103 189.5t164 118t220 40.5q131 0 229.5 -44t164 -123t98 -190t32.5 -245q0 -143 -35.5 -255t-103.5 -189t-165.5 -118t-219.5 -41q-133 0 -231 44t-162.5 123t-97 190t-32.5 246zM272 581q0 -95 20.5 -178t63.5 -146t108 -99t155 -36 q161 0 254.5 110.5t93.5 348.5q0 93 -20.5 175.5t-63 146t-108 100.5t-156.5 37q-160 0 -253.5 -112.5t-93.5 -346.5zM339 1319q0 38 27 59.5t75 21.5q47 0 75 -21.5t28 -59.5q0 -37 -28 -59t-75 -22t-74.5 22t-27.5 59zM693 1319q0 38 27.5 59.5t74.5 21.5t75.5 -21.5 t28.5 -59.5q0 -37 -28.5 -59t-75.5 -22t-74.5 22t-27.5 59z" />
<glyph unicode="&#x4e7;" horiz-adv-x="1046" d="M100 435q0 108 28 193.5t83 145t133.5 91t179.5 31.5q106 0 186 -35t133 -97.5t78.5 -146t25.5 -182.5q0 -106 -29 -190.5t-82.5 -144.5t-132.5 -91.5t-179 -31.5q-109 0 -189 34.5t-132 96t-77.5 145.5t-25.5 182zM251 1051q0 40 26 66.5t70 26.5q41 0 66.5 -26.5 t25.5 -66.5q0 -38 -25.5 -64.5t-66.5 -26.5q-43 0 -69.5 26.5t-26.5 64.5zM262 435q0 -62 14 -121t45.5 -105t81.5 -74.5t123 -28.5q258 0 259 329q0 65 -14 124.5t-45 105t-81 73.5t-119 28q-130 0 -197 -81.5t-67 -249.5zM607 1051q0 40 26 66.5t69 26.5t69 -26.5 t26 -66.5q0 -38 -26 -64.5t-69 -26.5t-69 26.5t-26 64.5z" />
<glyph unicode="&#x4e8;" horiz-adv-x="1238" d="M96 581q0 142 36 254t103 189.5t164 118t220 40.5q131 0 229.5 -44t164 -123t98 -190t32.5 -245q0 -143 -35.5 -255t-103.5 -189t-165.5 -118t-219.5 -41q-133 0 -231 44t-162.5 123t-97 190t-32.5 246zM272 518q7 -83 30.5 -156.5t67 -126.5t105 -83t144.5 -30 q149 0 242 95.5t106 300.5h-695zM274 657h693q-8 79 -33 149t-68 122t-104.5 82t-142.5 30q-146 0 -238.5 -93.5t-106.5 -289.5z" />
<glyph unicode="&#x4e9;" horiz-adv-x="1046" d="M100 435q0 219 109 340t315 121q106 0 186 -34t132 -95.5t77.5 -146t27.5 -185.5q-2 -217 -112 -337.5t-311 -120.5q-109 0 -189.5 34t-133 94.5t-77 145t-24.5 184.5zM262 489h523q-22 138 -88.5 207.5t-172.5 69.5q-49 0 -94 -14t-81.5 -47.5t-59.5 -86.5t-27 -129z M264 380q11 -130 83.5 -202t176.5 -72q46 0 89.5 15t78.5 47.5t58 84.5t30 127h-516z" />
<glyph unicode="&#x4ea;" horiz-adv-x="1238" d="M96 581q0 142 36 254t103 189.5t164 118t220 40.5q131 0 229.5 -44t164 -123t98 -190t32.5 -245q0 -143 -35.5 -255t-103.5 -189t-165.5 -118t-219.5 -41q-133 0 -231 44t-162.5 123t-97 190t-32.5 246zM272 518q7 -83 30.5 -156.5t67 -126.5t105 -83t144.5 -30 q149 0 242 95.5t106 300.5h-695zM274 657h693q-8 79 -33 149t-68 122t-104.5 82t-142.5 30q-146 0 -238.5 -93.5t-106.5 -289.5zM339 1319q0 38 27 59.5t75 21.5q47 0 75 -21.5t28 -59.5q0 -37 -28 -59t-75 -22t-74.5 22t-27.5 59zM693 1319q0 38 27.5 59.5t74.5 21.5 t75.5 -21.5t28.5 -59.5q0 -37 -28.5 -59t-75.5 -22t-74.5 22t-27.5 59z" />
<glyph unicode="&#x4eb;" horiz-adv-x="1046" d="M100 435q0 219 109 340t315 121q106 0 186 -34t132 -95.5t77.5 -146t27.5 -185.5q-2 -217 -112 -337.5t-311 -120.5q-109 0 -189.5 34t-133 94.5t-77 145t-24.5 184.5zM251 1051q0 40 26 66.5t70 26.5q41 0 66.5 -26.5t25.5 -66.5q0 -38 -25.5 -64.5t-66.5 -26.5 q-43 0 -69.5 26.5t-26.5 64.5zM262 489h523q-22 138 -88.5 207.5t-172.5 69.5q-49 0 -94 -14t-81.5 -47.5t-59.5 -86.5t-27 -129zM264 380q11 -130 83.5 -202t176.5 -72q46 0 89.5 15t78.5 47.5t58 84.5t30 127h-516zM607 1051q0 40 26 66.5t69 26.5t69 -26.5t26 -66.5 q0 -38 -26 -64.5t-69 -26.5t-69 26.5t-26 64.5z" />
<glyph unicode="&#x4ec;" horiz-adv-x="1046" d="M75 25l42 143q42 -21 109 -33.5t144 -12.5q71 0 141 20.5t125.5 67.5t92.5 123.5t45 185.5h-507v143h506q-16 193 -120.5 284.5t-270.5 93.5q-89 2 -156.5 -16.5t-108.5 -41.5l-39 133q55 31 140.5 49.5t180.5 18.5q115 0 215.5 -33.5t175 -105.5t118 -186t43.5 -277 q0 -165 -50 -279.5t-132 -186.5t-189 -104.5t-222 -32.5q-92 0 -163.5 14t-119.5 33zM132 1319q0 38 27 59.5t75 21.5q47 0 75 -21.5t28 -59.5q0 -37 -28 -59t-75 -22t-74.5 22t-27.5 59zM486 1319q0 38 27.5 59.5t74.5 21.5t75.5 -21.5t28.5 -59.5q0 -37 -28.5 -59 t-75.5 -22t-74.5 22t-27.5 59z" />
<glyph unicode="&#x4ed;" horiz-adv-x="900" d="M79 33l43 127q44 -24 107 -39t126 -15q134 0 203 64t80 205h-401v130h400q-10 119 -79 190t-198 71q-78 0 -135 -20.5t-95 -44.5l-51 114q59 38 135 59.5t179 21.5q104 0 181.5 -31.5t128 -91t74.5 -145t24 -193.5q0 -222 -112.5 -340t-310.5 -118q-90 0 -169 14t-130 42 zM102 1051q0 40 26 66.5t70 26.5q41 0 66.5 -26.5t25.5 -66.5q0 -38 -25.5 -64.5t-66.5 -26.5q-43 0 -69.5 26.5t-26.5 64.5zM458 1051q0 40 26 66.5t69 26.5t69 -26.5t26 -66.5q0 -38 -26 -64.5t-69 -26.5t-69 26.5t-26 64.5z" />
<glyph unicode="&#x4ee;" horiz-adv-x="1008" d="M8 1162h191l317 -598l45 -148h10l35 153l235 593h169l-325 -768q-48 -110 -84.5 -187t-75.5 -125.5t-84 -70t-109 -21.5q-60 0 -95.5 9t-68.5 29l47 136q35 -20 66 -24t58 -4q47 0 81 42t61 127zM247 1274v113h580v-113h-580z" />
<glyph unicode="&#x4ef;" horiz-adv-x="880" d="M13 871h181l222 -551l52 -168h21l42 170l181 549h156l-286 -788q-31 -81 -63.5 -157.5t-71.5 -135.5t-86.5 -94.5t-108.5 -35.5q-67 0 -113 15l25 129q26 -8 50 -8q33 0 60.5 8.5t50.5 30t42 60.5t36 100zM170 991v114h544v-114h-544z" />
<glyph unicode="&#x4f0;" horiz-adv-x="1008" d="M8 1162h191l317 -598l45 -148h10l35 153l235 593h169l-325 -768q-48 -110 -84.5 -187t-75.5 -125.5t-84 -70t-109 -21.5q-60 0 -95.5 9t-68.5 29l47 136q35 -20 66 -24t58 -4q47 0 81 42t61 127zM258 1319q0 38 27 59.5t75 21.5q47 0 75 -21.5t28 -59.5q0 -37 -28 -59 t-75 -22t-74.5 22t-27.5 59zM612 1319q0 38 27.5 59.5t74.5 21.5t75.5 -21.5t28.5 -59.5q0 -37 -28.5 -59t-75.5 -22t-74.5 22t-27.5 59z" />
<glyph unicode="&#x4f1;" horiz-adv-x="880" d="M13 871h181l222 -551l52 -168h21l42 170l181 549h156l-286 -788q-31 -81 -63.5 -157.5t-71.5 -135.5t-86.5 -94.5t-108.5 -35.5q-67 0 -113 15l25 129q26 -8 50 -8q33 0 60.5 8.5t50.5 30t42 60.5t36 100zM190 1051q0 40 26 66.5t70 26.5q41 0 66.5 -26.5t25.5 -66.5 q0 -38 -25.5 -64.5t-66.5 -26.5q-43 0 -69.5 26.5t-26.5 64.5zM546 1051q0 40 26 66.5t69 26.5t69 -26.5t26 -66.5q0 -38 -26 -64.5t-69 -26.5t-69 26.5t-26 64.5z" />
<glyph unicode="&#x4f2;" horiz-adv-x="1008" d="M8 1162h191l317 -598l45 -148h10l35 153l235 593h169l-325 -768q-48 -110 -84.5 -187t-75.5 -125.5t-84 -70t-109 -21.5q-60 0 -95.5 9t-68.5 29l47 136q35 -20 66 -24t58 -4q47 0 81 42t61 127zM311 1230l114 180h179v-27l-181 -153h-112zM545 1230l184 180h190v-27 l-260 -153h-114z" />
<glyph unicode="&#x4f3;" horiz-adv-x="880" d="M13 871h181l222 -551l52 -168h21l42 170l181 549h156l-286 -788q-31 -81 -63.5 -157.5t-71.5 -135.5t-86.5 -94.5t-108.5 -35.5q-67 0 -113 15l25 129q26 -8 50 -8q33 0 60.5 8.5t50.5 30t42 60.5t36 100zM280 1012l65 214h149v-20l-132 -194h-82zM499 1012l136 214h167 v-18l-218 -196h-85z" />
<glyph unicode="&#x4f4;" horiz-adv-x="1099" d="M126 760v402h166v-367q0 -111 53.5 -172t167.5 -61q84 0 156 20t118 53v527h166v-1162h-166v494q-48 -27 -128.5 -50.5t-185.5 -23.5q-78 0 -142 18t-109.5 59.5t-70.5 105.5t-25 157zM277 1319q0 38 27 59.5t75 21.5q47 0 75 -21.5t28 -59.5q0 -37 -28 -59t-75 -22 t-74.5 22t-27.5 59zM631 1319q0 38 27.5 59.5t74.5 21.5t75.5 -21.5t28.5 -59.5q0 -37 -28.5 -59t-75.5 -22t-74.5 22t-27.5 59z" />
<glyph unicode="&#x4f5;" horiz-adv-x="951" d="M100 616v255h152v-214q0 -54 6 -95t25 -71t53 -46t88 -16q85 0 142.5 19.5t87.5 42.5v380h152v-871h-152v370q-32 -20 -97 -44.5t-172 -24.5q-70 0 -124 14.5t-89.5 51t-53.5 97t-18 152.5zM178 1051q0 40 26 66.5t70 26.5q41 0 66.5 -26.5t25.5 -66.5q0 -38 -25.5 -64.5 t-66.5 -26.5q-43 0 -69.5 26.5t-26.5 64.5zM534 1051q0 40 26 66.5t69 26.5t69 -26.5t26 -66.5q0 -38 -26 -64.5t-69 -26.5t-69 26.5t-26 64.5z" />
<glyph unicode="&#x4f6;" horiz-adv-x="805" d="M147 0v1162h689v-147h-523v-869h160v-358h-115l-26 212h-185z" />
<glyph unicode="&#x4f7;" horiz-adv-x="706" d="M146 0v871h560v-130h-407v-611h134v-349h-108l-26 219h-153z" />
<glyph unicode="&#x4f8;" horiz-adv-x="1402" d="M147 11v1151h166v-444q10 2 26.5 4.5t38 4t43.5 3t43 1.5q86 0 168 -16.5t144.5 -57t100 -108.5t37.5 -171q0 -99 -36 -173.5t-98.5 -123t-150.5 -72.5t-194 -24q-25 0 -60 1t-74 4.5t-79 8t-75 12.5zM313 138q24 -7 58 -8.5t77 -1.5q61 0 114.5 15t92 44.5t61 74.5 t22.5 105q0 66 -25 109t-65 68t-94.5 35t-113.5 10q-32 0 -70 -5t-57 -10v-436zM422 1319q0 38 27 59.5t75 21.5q47 0 75 -21.5t28 -59.5q0 -37 -28 -59t-75 -22t-74.5 22t-27.5 59zM776 1319q0 38 27.5 59.5t74.5 21.5t75.5 -21.5t28.5 -59.5q0 -37 -28.5 -59t-75.5 -22 t-74.5 22t-27.5 59zM1090 0v1162h166v-1162h-166z" />
<glyph unicode="&#x4f9;" horiz-adv-x="1278" d="M146 -2v873h153v-333q53 8 98.5 10.5t82.5 2.5q96 0 161 -20t105.5 -55t57 -82t16.5 -102q0 -158 -96.5 -230t-313.5 -72q-70 0 -134.5 2t-129.5 6zM299 130q70 -10 142 -11q120 0 168 41.5t48 118.5q0 66 -47.5 111t-163.5 45q-31 0 -70 -3t-77 -11v-291zM354 1051 q0 40 26 66.5t70 26.5q41 0 66.5 -26.5t25.5 -66.5q0 -38 -25.5 -64.5t-66.5 -26.5q-43 0 -69.5 26.5t-26.5 64.5zM710 1051q0 40 26 66.5t69 26.5t69 -26.5t26 -66.5q0 -38 -26 -64.5t-69 -26.5t-69 26.5t-26 64.5zM980 0v871h153v-871h-153z" />
<glyph unicode="&#x4fc;" horiz-adv-x="1129" d="M45 0l419 590l-383 572h198l250 -382l45 -96l43 96l262 382h183l-395 -560l251 -357q56 -77 82.5 -143.5t26.5 -136.5q0 -154 -63 -233.5t-193 -79.5q-31 0 -66 5v141q51 -2 82 9t48.5 30t23 45t5.5 56q0 77 -30 136t-63 107l-159 224l-55 101l-46 -101l-283 -405h-183z " />
<glyph unicode="&#x4fd;" horiz-adv-x="981" d="M49 0l337 445l-315 426h193l167 -225l65 -114l65 114l172 225h174l-320 -418l189 -242q53 -67 84 -125t31 -124q0 -151 -69.5 -230.5t-205.5 -79.5h-13q-13 0 -24.5 0.5t-24.5 2.5v126q105 0 144.5 40t39.5 116q0 66 -32.5 112.5t-70.5 94.5l-84 108l-71 115l-65 -118 l-191 -249h-175z" />
<glyph unicode="&#x2000;" horiz-adv-x="722" />
<glyph unicode="&#x2001;" horiz-adv-x="1445" />
<glyph unicode="&#x2002;" horiz-adv-x="722" />
<glyph unicode="&#x2003;" horiz-adv-x="1445" />
<glyph unicode="&#x2004;" horiz-adv-x="481" />
<glyph unicode="&#x2005;" horiz-adv-x="361" />
<glyph unicode="&#x2006;" horiz-adv-x="240" />
<glyph unicode="&#x2007;" horiz-adv-x="240" />
<glyph unicode="&#x2008;" horiz-adv-x="180" />
<glyph unicode="&#x2009;" horiz-adv-x="289" />
<glyph unicode="&#x200a;" horiz-adv-x="80" />
<glyph unicode="&#x2013;" horiz-adv-x="1200" d="M212 407v142h777v-142h-777z" />
<glyph unicode="&#x2014;" horiz-adv-x="1491" d="M212 407v142h1067v-142h-1067z" />
<glyph unicode="&#x2018;" horiz-adv-x="359" d="M73 1065q0 57 17.5 98t42.5 68.5t53 44t50 23.5l44 -66q-39 -19 -64 -49t-22 -73q43 8 68.5 -16.5t25.5 -67.5q0 -40 -28 -63.5t-71 -23.5q-54 0 -85 32t-31 93z" />
<glyph unicode="&#x2019;" horiz-adv-x="359" d="M73 1086q0 40 27.5 64t70.5 24q53 0 85 -31.5t32 -92.5q0 -59 -18 -100t-43.5 -69t-54 -44t-47.5 -22l-47 68q39 19 65 47.5t25 71.5q-43 -8 -69 16.5t-26 67.5z" />
<glyph unicode="&#x201a;" horiz-adv-x="359" d="M73 84q0 40 27.5 64.5t70.5 24.5q53 0 85 -32t32 -93q0 -59 -18 -100t-43.5 -69t-54 -44t-47.5 -22l-47 68q39 19 65 47.5t25 71.5q-43 -8 -69 16.5t-26 67.5z" />
<glyph unicode="&#x201c;" horiz-adv-x="628" d="M73 1065q0 57 17.5 98t42.5 68.5t53 44t50 23.5l44 -66q-39 -19 -64 -49t-22 -73q43 8 68.5 -16.5t25.5 -67.5q0 -40 -28 -63.5t-71 -23.5q-54 0 -85 32t-31 93zM342 1065q0 57 17.5 98t42 68.5t53 44t50.5 23.5l44 -66q-40 -19 -65 -49t-21 -73q42 8 68 -16.5t26 -67.5 q0 -40 -28 -63.5t-71 -23.5q-54 0 -85 32t-31 93z" />
<glyph unicode="&#x201d;" horiz-adv-x="628" d="M73 1085q0 39 27.5 63.5t70.5 24.5q53 0 85 -31.5t32 -93.5q0 -58 -18 -99.5t-43.5 -69.5t-54 -43.5t-47.5 -22.5l-47 67q39 19 65 48t25 72q-43 -8 -69 17t-26 68zM342 1085q0 39 27 63.5t71 24.5q53 0 85 -31.5t32 -93.5q0 -58 -18 -99.5t-43.5 -69.5t-54 -43.5 t-48.5 -22.5l-46 67q39 19 65 48t25 72q-43 -8 -69 17t-26 68z" />
<glyph unicode="&#x201e;" horiz-adv-x="628" d="M73 84q0 40 27.5 64.5t70.5 24.5q53 0 85 -32t32 -93q0 -59 -18 -100t-43.5 -69t-54 -44t-47.5 -22l-47 68q39 19 65 47.5t25 71.5q-43 -8 -69 16.5t-26 67.5zM342 84q0 40 27 64.5t71 24.5q53 0 85 -32t32 -93q0 -59 -18 -100t-43.5 -69t-54 -44t-48.5 -22l-46 68 q39 19 65 47.5t25 71.5q-43 -8 -69 16.5t-26 67.5z" />
<glyph unicode="&#x2026;" horiz-adv-x="1359" d="M119 84q0 48 31 76.5t81 28.5q49 0 80 -28t31 -77q0 -44 -31 -74t-80 -30q-50 0 -81 30t-31 74zM573 84q0 48 30 76.5t81 28.5q49 0 80 -28t31 -77q0 -44 -31 -74t-80 -30q-50 0 -80.5 30t-30.5 74zM1025 84q0 48 30.5 76.5t80.5 28.5t80.5 -28t30.5 -77q0 -44 -30.5 -74 t-80.5 -30q-49 0 -80 30t-31 74z" />
<glyph unicode="&#x202f;" horiz-adv-x="289" />
<glyph unicode="&#x2039;" horiz-adv-x="540" d="M66 429l292 382l98 -88l-168 -224l-87 -68l87 -59l180 -220l-99 -89z" />
<glyph unicode="&#x203a;" horiz-adv-x="540" d="M73 723l100 88l302 -366l-293 -382l-99 86l169 226l88 68l-88 60z" />
<glyph unicode="&#x205f;" horiz-adv-x="361" />
<glyph unicode="&#x20ac;" d="M11 399l35 123h100q-2 13 -2 28v31v32t2 33h-135l35 120h115q22 110 70 189t114 129.5t148.5 74.5t173.5 24q94 0 162 -13.5t118 -31.5l-45 -133q-41 19 -96.5 28.5t-135.5 9.5q-60 0 -114.5 -15t-99.5 -49t-79 -86t-52 -127h506l-33 -122h-489q-2 -16 -2 -32.5v-32.5 v-28.5t2 -28.5h452l-33 -123h-405q70 -281 372 -282q73 0 130.5 17t100.5 40l38 -123q-55 -41 -137.5 -57t-163.5 -16q-202 0 -333.5 102t-169.5 319h-149z" />
<glyph unicode="&#x2122;" horiz-adv-x="1616" d="M63 1029v133h642v-133h-242v-465h-158v465h-242zM774 564v598h155l187 -274l50 -98h2l53 101l174 271h156v-598h-147v269l19 171h-8l-70 -141l-154 -225h-72l-155 223l-67 143h-8l26 -170v-270h-141z" />
<glyph unicode="&#x25fc;" horiz-adv-x="870" d="M0 0v871h871v-871h-871z" />
</font>
</defs>
</svg>
