<?xml version="1.0" standalone="no"?>
<!DOCTYPE svg PUBLIC "-//W3C//DTD SVG 1.1//EN" "http://www.w3.org/Graphics/SVG/1.1/DTD/svg11.dtd" >
<svg xmlns="http://www.w3.org/2000/svg" xmlns:xlink="http://www.w3.org/1999/xlink" version="1.1">
<metadata></metadata>
<defs>
<font id="pt_sansitalic" horiz-adv-x="904" >
<font-face units-per-em="2048" ascent="1577" descent="-471" />
<missing-glyph horiz-adv-x="464" />
<glyph horiz-adv-x="0" />
<glyph unicode="&#xd;" horiz-adv-x="464" />
<glyph unicode=" "  horiz-adv-x="464" />
<glyph unicode="&#x09;" horiz-adv-x="464" />
<glyph unicode="&#xa0;" horiz-adv-x="464" />
<glyph unicode="!" horiz-adv-x="475" d="M151 80q0 47 28 74t73 27q46 0 74 -26.5t28 -74.5q0 -45 -28 -73t-74 -28q-45 0 -73 28t-28 73zM251 308l35 307l126 604h140l-127 -604l-94 -307h-80z" />
<glyph unicode="&#x22;" horiz-adv-x="527" d="M138 882l71 337h128l-121 -337h-78zM331 882l71 337h128l-121 -337h-78z" />
<glyph unicode="#" d="M111 392l25 111h139l54 228h-131l25 111h132l67 276h118l-67 -276h185l66 276h118l-66 -276h134l-28 -111h-131l-55 -228h128l-28 -111h-128l-67 -291h-119l68 291h-184l-68 -291h-119l68 291h-136zM394 503h184l54 228h-185z" />
<glyph unicode="$" d="M106 88l61 107q29 -20 81.5 -49.5t122.5 -40.5l104 488q-38 28 -75.5 59.5t-66.5 68t-47 82.5t-18 106q0 76 25.5 134.5t71.5 99.5t108.5 64.5t137.5 28.5l35 156h111l-33 -154q75 -7 128 -26t90 -39l-60 -110q-29 14 -76 29.5t-108 21.5l-94 -437q40 -29 79 -62.5 t70 -75t50 -94.5t19 -123q0 -71 -24.5 -131t-71.5 -104.5t-116 -72.5t-155 -34q0 -1 -5.5 -24.5t-10.5 -53.5q-7 -33 -16 -76h-111l33 159q-83 12 -146 45t-93 58zM411 930q0 -66 34.5 -112.5t85.5 -86.5l82 385q-100 -7 -151 -58.5t-51 -127.5zM455 101q104 7 164 63 t60 146q0 78 -38 131.5t-93 98.5z" />
<glyph unicode="%" horiz-adv-x="1280" d="M105 853q0 102 30.5 174.5t77 119.5t104 69.5t113.5 22.5q100 0 151 -54t51 -153q0 -94 -26 -165t-70.5 -120t-104.5 -74t-127 -25q-88 0 -143.5 54t-55.5 151zM153 47l894 1194l86 -68l-893 -1194zM224 867q0 -56 25.5 -87t76.5 -31q36 0 70 19t60 54.5t41 86.5t15 116 q0 61 -27 87t-76 26q-37 0 -71 -21.5t-59 -58t-40 -86t-15 -105.5zM673 207q0 102 30.5 174.5t77 119.5t104 69.5t113.5 22.5q100 0 151 -54t51 -153q0 -94 -26 -165t-70.5 -120t-104.5 -74t-127 -25q-88 0 -143.5 54t-55.5 151zM792 221q0 -56 25.5 -87t76.5 -31 q36 0 70 19t60 54.5t41 86.5t15 116q0 61 -27 87t-76 26q-37 0 -71 -21.5t-59 -58t-40 -86t-15 -105.5z" />
<glyph unicode="&#x26;" horiz-adv-x="1343" d="M151 258q0 81 34 156t88 139.5t122 116t136 86.5q-12 31 -20.5 56t-15 50t-9 52.5t-2.5 62.5q0 46 17 93.5t54 85t91.5 60.5t131.5 23q61 0 98.5 -16.5t58 -40.5t28 -54t7.5 -55q0 -100 -75.5 -184.5t-206.5 -155.5q17 -50 40.5 -103.5t51.5 -105.5t59 -103.5t63 -94.5 q23 21 48 53t49 67.5t46.5 73.5t42.5 73l93 -50q-16 -30 -44 -70.5t-59.5 -83t-63 -82t-55.5 -65.5q56 -69 95 -106t82 -65l-100 -97q-40 23 -85.5 66t-88.5 101q-37 -31 -79 -60t-90.5 -51.5t-105 -36.5t-120.5 -14q-73 0 -131.5 21t-99.5 58.5t-63 87.5t-22 112zM291 287 q0 -94 57 -141t162 -47q42 0 84 11.5t80 29.5t70 40.5t57 47.5q-37 50 -71 109.5t-63 118.5t-53 114t-39 96q-63 -40 -115.5 -85t-90 -93t-58 -98.5t-20.5 -102.5zM615 980q0 -26 1.5 -47t5.5 -39t10.5 -37.5t16.5 -45.5q100 59 149 113t49 121q0 35 -19.5 59t-68.5 24 q-40 0 -67 -12.5t-44.5 -34t-25 -48.5t-7.5 -53z" />
<glyph unicode="'" horiz-adv-x="351" d="M178 882l71 337h128l-121 -337h-78z" />
<glyph unicode="(" horiz-adv-x="462" d="M94 131q0 176 40 337.5t108 302.5t156.5 259t186.5 209l64 -61q-97 -111 -174.5 -232t-133 -251.5t-83.5 -269t-28 -274.5q0 -114 23.5 -233t78.5 -237l-80 -60q-94 138 -126 265.5t-32 244.5z" />
<glyph unicode=")" horiz-adv-x="462" d="M-166 -322q85 92 159.5 210.5t132 249.5t90.5 271.5t33 271.5q0 171 -21.5 287.5t-76.5 206.5l88 57q40 -51 67.5 -116t45 -131t25.5 -131t8 -125q0 -174 -39.5 -336.5t-106 -304.5t-154.5 -260.5t-184 -210.5z" />
<glyph unicode="*" horiz-adv-x="578" d="M123 963v97h88l109 -20l-78 76l-47 80l85 48l44 -73l31 -97l37 99l42 70l83 -45l-44 -75l-81 -83l118 20h83v-97h-78l-113 20l80 -83l42 -68l-84 -48l-43 73l-42 106l-31 -101l-44 -73l-87 48l46 73l75 73l-103 -20h-88z" />
<glyph unicode="+" horiz-adv-x="835" d="M96 525v126h306v315h126v-315h306v-126h-306v-314h-126v314h-306z" />
<glyph unicode="," horiz-adv-x="339" d="M-37 -191q67 24 107 76t48 103q-7 -3 -17 -3q-25 0 -48 20.5t-23 55.5q0 45 29 76.5t85 31.5q44 0 67.5 -29.5t23.5 -68.5q0 -53 -18.5 -104.5t-51 -95.5t-77.5 -78t-96 -52z" />
<glyph unicode="-" horiz-adv-x="595" d="M110 442l28 118h400l-30 -118h-398z" />
<glyph unicode="." horiz-adv-x="367" d="M61 80q0 47 27.5 74t73.5 27q45 0 73 -26.5t28 -74.5q0 -45 -28 -73t-73 -28q-46 0 -73.5 28t-27.5 73z" />
<glyph unicode="/" horiz-adv-x="584" d="M-162 -195l907 1434l99 -53l-907 -1437z" />
<glyph unicode="0" d="M99 382q0 182 39.5 339.5t108 272.5t164.5 180t210 65q148 0 228.5 -95.5t80.5 -304.5q0 -156 -34 -309.5t-99.5 -276t-161 -198.5t-221.5 -76q-88 0 -148 34t-97.5 90.5t-53.5 129t-16 149.5zM235 388q0 -88 17 -145t46 -87.5t65 -42.5t72 -12q78 0 144.5 61.5 t113.5 164.5t74 232t27 263q0 150 -41.5 223t-151.5 73q-70 0 -135.5 -54t-116.5 -152t-82.5 -231.5t-31.5 -292.5z" />
<glyph unicode="1" d="M110 0l26 129h231l181 843l38 102l-84 -82l-210 -137l-48 89l430 295h59l-237 -1110h226l-26 -129h-586z" />
<glyph unicode="2" d="M56 0l10 50q44 44 112.5 109t146 144.5t155.5 166.5t142 175t101.5 170t37.5 151q0 34 -7 61.5t-22.5 47.5t-45.5 31.5t-77 11.5q-62 0 -121.5 -25.5t-125.5 -69.5l-36 105q83 61 160 86t167 25q121 0 182.5 -68.5t61.5 -176.5q0 -90 -50.5 -196.5t-128 -213.5 t-170 -208.5t-177.5 -184.5l-96 -75v-6l108 19h357l-24 -129h-660z" />
<glyph unicode="3" d="M75 23l63 123q35 -19 83 -32t113 -13q82 0 144 26t101 69t60 97.5t21 111.5q0 91 -45 139.5t-170 48.5h-125l11 51l317 386l90 78l-110 -18h-322l25 129h591l-10 -51l-349 -421l-68 -51v-3l57 12q48 0 92 -16.5t78 -50.5t54 -86t20 -125q0 -95 -31 -175.5t-90.5 -142 t-150 -96t-210.5 -34.5q-75 0 -135.5 12t-103.5 32z" />
<glyph unicode="4" d="M60 374l11 58l723 806h88l-158 -745h195l-24 -119h-197l-78 -374h-127l78 374h-511zM241 480l116 13h240l82 383l47 142h-7l-81 -118l-302 -332z" />
<glyph unicode="5" d="M82 20l59 119q37 -15 77.5 -26.5t105.5 -11.5q78 0 139.5 25t105.5 70t66.5 104t20.5 130q2 100 -53 148t-180 48l-139 -8l127 601h515l-28 -129h-391l-75 -349h12.5t23.5 2q16 0 34 2q81 0 136.5 -25.5t89.5 -65t49 -93t15 -106.5q0 -135 -43.5 -226t-114 -147 t-158.5 -79.5t-178 -23.5q-70 0 -123 10.5t-93 30.5z" />
<glyph unicode="6" d="M110 355q0 175 66 329.5t172.5 272t240 192.5t269.5 90l7 -111q-96 -15 -190 -63t-173 -118.5t-140 -158.5t-93 -184q17 23 47.5 44.5t68 39t80 27t87.5 9.5q125 0 207 -75.5t82 -223.5q0 -98 -28.5 -178.5t-83.5 -141t-133 -93.5t-173 -33q-57 0 -113 20.5t-100 64.5 t-72 115.5t-28 175.5zM241 369q0 -58 11 -107.5t35.5 -86t61 -57t88.5 -20.5q70 0 120.5 26.5t82.5 70.5t46.5 99t18.5 113q-4 87 -47 143t-143 56q-40 0 -79 -11.5t-74.5 -30.5t-64.5 -44t-46 -53q-4 -23 -7 -50t-3 -48z" />
<glyph unicode="7" d="M120 0l631 1020l90 85l-101 -15h-461l25 129h691l-8 -48l-724 -1171h-143z" />
<glyph unicode="8" d="M106 254q0 120 79 222t224 163q-28 23 -53 46.5t-45 53.5t-32.5 70t-12.5 98q0 80 30.5 142t82 104.5t119.5 64t141 21.5q58 0 108 -16.5t86.5 -48.5t57.5 -80t21 -111q0 -51 -20 -102.5t-55.5 -97t-83.5 -84.5t-105 -71q31 -26 59.5 -54.5t49.5 -62.5t34 -75t13 -91 q0 -73 -23.5 -139.5t-73 -117t-127 -80t-186.5 -29.5q-72 0 -125 22t-89.5 58.5t-55 86.5t-18.5 108zM242 269q0 -31 8.5 -62t28.5 -54.5t56 -37.5t88 -14q49 0 93 13.5t79 41t54 68.5t19 95q0 48 -12.5 85.5t-33.5 68t-54 56.5t-72 51q-114 -54 -184 -132.5t-70 -178.5z M402 914q0 -84 41.5 -135t114.5 -96q44 28 84.5 61.5t69 69t46.5 72t18 73.5q0 81 -40 120t-113 39q-45 0 -85 -13.5t-69.5 -39t-48 -64.5t-18.5 -87z" />
<glyph unicode="9" d="M162 90q109 25 202.5 72t168.5 112t129 146.5t85 172.5q-56 -48 -122.5 -73t-166.5 -25q-47 0 -95 17.5t-88 55.5t-65.5 99t-25.5 146q0 101 31.5 180.5t88 134t132.5 83t165 28.5q65 0 122 -23t100.5 -70.5t67.5 -116.5t24 -159q0 -200 -70.5 -359t-180 -273.5 t-241.5 -180t-254 -78.5zM320 829q0 -63 19.5 -104.5t46 -66.5t59 -35t63.5 -10q80 0 152.5 31.5t110.5 76.5q2 10 4.5 29t5.5 38.5t3.5 37.5t0.5 27q0 122 -52 195t-155 73q-50 0 -96.5 -17.5t-81 -54t-57.5 -91t-23 -129.5z" />
<glyph unicode=":" horiz-adv-x="464" d="M155 80q0 47 28 74t73 27t73 -26.5t28 -74.5q0 -45 -28 -73t-73 -28t-73 28t-28 73zM301 782q0 47 28 73.5t73 26.5t73 -26.5t28 -73.5q0 -45 -28 -73t-73 -28t-73 28t-28 73z" />
<glyph unicode=";" horiz-adv-x="475" d="M94 -191q67 24 107 76t48 103q-7 -3 -18 -3q-24 0 -47.5 20.5t-23.5 55.5q0 45 29.5 76.5t85.5 31.5q44 0 67.5 -29.5t23.5 -68.5q0 -53 -18.5 -104.5t-51.5 -95.5t-77.5 -78t-96.5 -52zM312 782q0 47 27.5 73.5t72.5 26.5t73 -26.5t28 -73.5q0 -45 -27.5 -73t-73.5 -28 q-45 0 -72.5 28t-27.5 73z" />
<glyph unicode="&#x3c;" horiz-adv-x="835" d="M94 531v50l660 402l66 -107l-413 -253l-158 -66l156 -55l424 -251l-67 -105z" />
<glyph unicode="=" horiz-adv-x="835" d="M96 382v125h738v-125h-738zM96 670v126h738v-126h-738z" />
<glyph unicode="&#x3e;" horiz-adv-x="835" d="M98 877l66 106l668 -384v-51l-659 -402l-67 106l412 253l159 66l-157 55z" />
<glyph unicode="?" horiz-adv-x="719" d="M139 80q0 47 28 74t74 27q45 0 72.5 -26.5t27.5 -74.5q0 -45 -27.5 -73t-72.5 -28t-73.5 28t-28.5 73zM207 1153q35 21 67 36t68.5 26.5t79.5 17.5t98 6q129 0 190 -59t61 -153q0 -95 -29.5 -163t-75 -122t-100 -100.5t-104.5 -95t-88 -105t-50 -133.5h-110 q9 86 43.5 151.5t81 119t98.5 99.5t95 92.5t71.5 99t28.5 120.5q0 67 -36 102.5t-124 35.5q-61 0 -121 -23.5t-110 -53.5z" />
<glyph unicode="@" horiz-adv-x="1852" d="M202 411q0 189 65 342.5t176.5 261.5t259.5 166t314 58q156 0 290.5 -45.5t233.5 -132t154.5 -211t55.5 -282.5q0 -112 -38.5 -214t-103.5 -178.5t-152 -122.5t-185 -46q-73 0 -115.5 31.5t-42.5 116.5q0 15 2 33.5t5 39.5h-7q-26 -40 -59 -79t-74 -70.5t-87.5 -51.5 t-96.5 -20q-41 0 -78.5 18t-65.5 53t-44.5 83t-16.5 108q0 112 36.5 220t98.5 191.5t144.5 135t174.5 51.5q63 0 102 -19t76 -47l57 54h59l-88 -500q-8 -45 -13 -80.5t-5 -63.5q0 -44 15 -65t53 -21q60 0 117 31.5t103 89t75 139.5t29 183q0 134 -45.5 236.5t-127 173 t-194.5 107t-249 36.5q-143 0 -266.5 -52t-216 -144.5t-145.5 -221t-53 -280.5q0 -154 48 -276t137 -206t212 -127.5t275 -43.5q50 0 115 12t116 37l35 -111q-76 -34 -143 -45t-144 -11q-161 0 -302.5 48.5t-247.5 144t-167 237.5t-61 329zM726 292q0 -68 28 -117.5 t101 -49.5q35 0 72.5 24.5t74 63.5t70 88t59.5 99l53 284q-30 35 -60.5 50t-75.5 15q-68 0 -127 -42t-102 -107t-68 -147t-25 -161z" />
<glyph unicode="A" horiz-adv-x="969" d="M-58 0l704 1238h65l175 -1238h-134l-49 337h-424l-189 -337h-148zM347 463h342l-50 371l-3 184h-3l-78 -188z" />
<glyph unicode="B" horiz-adv-x="967" d="M70 8l254 1200q66 10 148.5 17t178.5 7q65 0 124 -16.5t103 -49.5t71.5 -85.5t27.5 -121.5q0 -68 -21 -123.5t-59.5 -97.5t-89.5 -67t-111 -33v-8q38 -9 73 -29t61.5 -49.5t41.5 -68.5t15 -86q0 -122 -47.5 -201.5t-121.5 -126t-165 -65t-181 -18.5h-67t-99 4 q-105 10 -136 18zM231 123q10 -3 32.5 -5t47.5 -3.5t51.5 -2.5t48.5 -1q61 0 120 15t106 46.5t75.5 81.5t28.5 123q0 54 -26 90t-67.5 57t-94.5 28.5t-108 7.5h-121zM348 679h92q30 0 70 1t68 4q40 9 85.5 24.5t83 44.5t60.5 73t23 111q0 48 -14.5 80.5t-43.5 52.5t-69 29 t-88 9q-57 0 -105 -3t-73 -9z" />
<glyph unicode="C" horiz-adv-x="946" d="M123 477q0 196 58 339.5t152 238t211 139.5t238 45q99 0 161.5 -14t102.5 -32l-63 -128q-34 20 -90.5 33t-130.5 13q-97 0 -187 -43t-157.5 -123t-108 -194.5t-40.5 -257.5q0 -83 22.5 -154t63 -122t100.5 -80t137 -29q81 0 135.5 18t97.5 43l11 -119q-60 -40 -126 -55.5 t-153 -15.5q-103 0 -183 37.5t-135.5 104.5t-85.5 157.5t-30 198.5z" />
<glyph unicode="D" horiz-adv-x="1082" d="M70 -2l259 1221q66 8 150 10.5t151 2.5q103 0 186.5 -27t142 -82.5t90 -140.5t31.5 -200q0 -76 -14.5 -166.5t-46.5 -178t-86 -169.5t-134 -145t-188 -100.5t-249 -37.5q-26 0 -68.5 0.5t-84.5 2.5q-121 7 -139 10zM235 120q6 -2 27.5 -3t45 -1.5t45 -1.5t30.5 -1 q152 0 256 63t169.5 158.5t95 210.5t29.5 217q0 79 -17.5 141.5t-54.5 107t-96.5 68.5t-144.5 24q-22 0 -47.5 -0.5t-50 -1.5t-47.5 -3t-35 -3z" />
<glyph unicode="E" horiz-adv-x="887" d="M70 0l259 1219h628l-25 -129h-493l-85 -399h450l-26 -128h-451l-92 -434h501l-27 -129h-502h-137z" />
<glyph unicode="F" horiz-adv-x="855" d="M70 0l259 1219h628l-25 -129h-493l-89 -416h459l-25 -129h-460l-115 -545h-139z" />
<glyph unicode="G" horiz-adv-x="1014" d="M123 473q0 215 63 361t161 235.5t217 129.5t230 40q99 0 164 -13t105 -32l-60 -127q-35 19 -93.5 31.5t-131.5 12.5q-101 0 -192 -39.5t-161.5 -117.5t-113 -194t-42.5 -269q0 -78 19.5 -147.5t59 -122t97.5 -83t138 -30.5q56 0 96 11.5t80 31.5l71 340l-194 34l17 83 h202h118l-113 -537q-123 -92 -307 -92q-86 0 -163.5 31.5t-137 93.5t-94.5 154t-35 215z" />
<glyph unicode="H" horiz-adv-x="1111" d="M70 0l257 1219h140l-112 -531h552l111 531h140l-258 -1219h-139l118 558h-553l-117 -558h-139z" />
<glyph unicode="I" horiz-adv-x="481" d="M108 0l258 1219h139l-258 -1219h-139z" />
<glyph unicode="J" horiz-adv-x="483" d="M-106 10l52 124q34 -23 94 -23q36 0 60.5 13.5t42 38.5t29 60t19.5 80l196 916h138l-201 -951q-15 -70 -37.5 -122.5t-56.5 -89t-83 -55t-119 -18.5q-14 0 -32.5 1.5t-37.5 5t-36.5 8.5t-27.5 12z" />
<glyph unicode="K" horiz-adv-x="1002" d="M70 0l257 1219h140l-122 -568l69 25l500 543h172l-498 -530l-80 -53l68 -70l305 -566h-159l-306 564h-89l-118 -564h-139z" />
<glyph unicode="L" horiz-adv-x="855" d="M70 0l257 1219h140l-232 -1090h547l-26 -129h-550h-136z" />
<glyph unicode="M" horiz-adv-x="1312" d="M70 0l259 1219h96l226 -624l26 -135h2l80 139l475 620h123l-259 -1219h-139l174 819l54 182h-6l-98 -167l-418 -550h-42l-200 550l-26 167h-7l-14 -181l-174 -820h-132z" />
<glyph unicode="N" horiz-adv-x="1116" d="M70 0l262 1238h70l380 -815l57 -171h7l16 171l170 796h131l-263 -1239h-64l-381 817l-60 180h-5l-21 -180l-168 -797h-131z" />
<glyph unicode="O" horiz-adv-x="1133" d="M123 445q0 160 44 305t124.5 254t195 172t253.5 63q83 0 154.5 -25t122.5 -79.5t80 -142t29 -212.5q0 -164 -43 -309t-122 -255t-187.5 -173.5t-238.5 -63.5q-206 0 -309 119.5t-103 346.5zM269 447q0 -164 68 -253t201 -89q98 0 178.5 53.5t139.5 146t91.5 214.5 t32.5 257q0 101 -22.5 167.5t-60 104t-85.5 52t-96 14.5q-100 0 -182 -54.5t-140 -147t-91.5 -213.5t-33.5 -252z" />
<glyph unicode="P" horiz-adv-x="925" d="M70 0l256 1206q66 15 139 20.5t144 5.5q80 0 149 -17t119.5 -55.5t79 -98.5t28.5 -144q0 -132 -47.5 -220.5t-125.5 -141.5t-175 -76t-197 -23h-26.5t-39 1t-40 3t-28.5 3l-97 -463h-139zM334 590q7 -4 23.5 -4.5t35 -2.5t35.5 -2h27q75 0 144 16t122 54t85.5 99 t32.5 154q0 62 -21 102t-56.5 62t-82.5 31t-99 9q-40 0 -77.5 -3t-62.5 -9z" />
<glyph unicode="Q" horiz-adv-x="1133" d="M123 445q0 160 44 305t124.5 254t195 172t253.5 63q83 0 154.5 -25t122.5 -79.5t80 -142t29 -212.5q0 -164 -43 -309t-122 -255t-187.5 -173.5t-238.5 -63.5q-206 0 -309 119.5t-103 346.5zM269 447q0 -164 68 -253t201 -89q98 0 178.5 53.5t139.5 146t91.5 214.5 t32.5 257q0 101 -22.5 167.5t-60 104t-85.5 52t-96 14.5q-100 0 -182 -54.5t-140 -147t-91.5 -213.5t-33.5 -252zM306 -212l26 127q47 10 93 10q70 0 134 -18t131 -39t138.5 -39.5t153.5 -18.5q71 0 148 17l-28 -125q-42 -11 -81 -16t-77 -5q-84 0 -158.5 18.5t-143.5 39 t-133 39t-124 18.5q-19 0 -39 -1.5t-40 -6.5z" />
<glyph unicode="R" horiz-adv-x="988" d="M70 0l256 1206q73 14 141 20t136 6q66 0 128.5 -16.5t110.5 -52t76.5 -93t28.5 -138.5q0 -153 -89.5 -255t-260.5 -132l63 -63l187 -482h-151l-209 525l-163 27l-115 -552h-139zM345 648h120q63 0 123 12t107.5 43t76.5 85t29 136q0 31 -12.5 63.5t-36.5 59.5t-64.5 44 t-94.5 17q-41 0 -83 -3t-70 -9z" />
<glyph unicode="S" horiz-adv-x="878" d="M30 43l71 128q40 -23 109 -44.5t162 -21.5q54 0 108.5 9t97.5 34t70.5 64.5t27.5 101.5q0 63 -32.5 106t-81.5 79t-105.5 69t-105 76.5t-80.5 102.5t-32 146q0 93 33.5 159t92 107.5t137.5 60.5t168 19q101 0 181.5 -15.5t125.5 -39.5l-70 -124q-35 20 -104 37t-159 17 q-114 0 -186.5 -52t-72.5 -152q0 -64 32 -108.5t81 -80t105.5 -68.5t105 -75.5t81 -102t32.5 -144.5q0 -169 -122 -260.5t-350 -91.5q-116 0 -197.5 20.5t-122.5 43.5z" />
<glyph unicode="T" horiz-adv-x="918" d="M191 1090l27 129h856l-26 -129h-360l-230 -1090h-139l229 1090h-357z" />
<glyph unicode="U" horiz-adv-x="1075" d="M151 287q0 72 20 162l161 770h140l-162 -772q-19 -76 -19 -139q0 -110 57 -152.5t170 -42.5q68 0 119.5 19t89 59t62.5 103t45 151l164 774h132l-171 -814q-25 -111 -61 -191t-91 -130.5t-131.5 -74.5t-177.5 -24q-96 0 -162.5 21.5t-107 60.5t-59 95.5t-18.5 124.5z" />
<glyph unicode="V" horiz-adv-x="940" d="M181 1219h143l116 -834v-187h4l78 190l461 831h150l-699 -1239h-65z" />
<glyph unicode="W" horiz-adv-x="1371" d="M198 1219h143l31 -814l-15 -201h2l68 205l409 810h74l65 -814l-16 -201h1l70 205l372 810h142l-585 -1239h-77l-65 817l10 185h-7l-69 -186l-408 -816h-77z" />
<glyph unicode="X" horiz-adv-x="1023" d="M-12 0l515 623l-226 596h151l150 -413l21 -100l59 100l332 413h169l-485 -591l247 -628h-152l-166 437l-25 104l-66 -104l-356 -437h-168z" />
<glyph unicode="Y" horiz-adv-x="923" d="M188 1219h151l156 -533l5 -106h2l51 109l379 530h156l-530 -734l-102 -485h-139l103 484z" />
<glyph unicode="Z" d="M-2 0l27 131l757 889l85 70h-637l26 129h778l-26 -131l-762 -895l-82 -64h638l-26 -129h-778z" />
<glyph unicode="[" horiz-adv-x="505" d="M28 -400l343 1619h132h169l-26 -123h-169l-293 -1375h171l-26 -121h-171h-130z" />
<glyph unicode="\" horiz-adv-x="661" d="M71 1191l120 48l591 -1432l-116 -51z" />
<glyph unicode="]" horiz-adv-x="505" d="M-110 -400l27 121h166l291 1375h-168l25 123h173h129l-343 -1619h-130h-170z" />
<glyph unicode="^" horiz-adv-x="870" d="M178 757l324 481h50l294 -481h-145l-137 235l-40 121l-54 -123l-162 -233h-130z" />
<glyph unicode="_" horiz-adv-x="709" d="M-76 -239h709v-118h-709v118z" />
<glyph unicode="`" horiz-adv-x="413" d="M301 1217l7 37h159l50 -260h-75z" />
<glyph unicode="a" horiz-adv-x="847" d="M78 249q0 111 29 226t89 207t154.5 151.5t229.5 59.5q48 0 118.5 -11.5t131.5 -30.5l-109 -508q-14 -65 -19.5 -131t-5.5 -124v-49.5t4 -41.5h-97l-25 151h-7q-21 -30 -51.5 -60t-67 -55t-78.5 -39.5t-88 -14.5q-208 0 -208 270zM218 249q0 -66 25.5 -112.5t82.5 -46.5 q41 0 79.5 20.5t72.5 50t60 63.5t42 63l97 470q-51 25 -132 25q-80 0 -141 -47t-103 -123t-62.5 -171.5t-20.5 -191.5z" />
<glyph unicode="b" horiz-adv-x="906" d="M75 54l247 1165h130l-105 -498h7q24 31 55 61.5t69.5 55t82 39.5t93.5 15q103 0 150 -72.5t47 -181.5q0 -157 -43.5 -278t-115 -205t-162.5 -127t-187 -43q-95 0 -165 20.5t-103 48.5zM221 133q52 -37 148 -37q56 0 117 34t111.5 99t82.5 160t32 217q0 88 -27 131t-72 43 q-43 0 -88.5 -22t-86.5 -57t-75 -77.5t-55 -82.5z" />
<glyph unicode="c" horiz-adv-x="731" d="M87 258q0 147 40 265t107 199.5t154 125.5t180 44q66 0 108.5 -12.5t77.5 -28.5l-49 -108q-30 17 -73.5 27t-93.5 10q-59 0 -115.5 -40t-100 -105t-70 -150t-26.5 -173q0 -113 47 -167.5t127 -54.5q52 0 110 24t93 48l33 -87q-27 -23 -61 -40.5t-69.5 -29.5t-70.5 -19 t-66 -7q-85 0 -140 27t-86.5 68.5t-43.5 90.5t-12 93z" />
<glyph unicode="d" horiz-adv-x="885" d="M87 274q0 103 29.5 211t87 197t144 146.5t199.5 57.5q31 0 53.5 -2t42.5 -5t37.5 -9t36.5 -13l77 362h130l-195 -920q-13 -68 -20.5 -127t-7.5 -109q0 -20 1 -35.5t3 -30.5h-87l-25 151h-7q-21 -30 -52 -60t-69 -55t-81 -39.5t-88 -14.5q-96 0 -152.5 70.5t-56.5 224.5z M226 264q0 -71 28 -122.5t91 -51.5q37 0 75 20.5t71.5 50t61 63.5t42.5 63l98 453q-30 19 -67.5 26.5t-97.5 7.5q-70 0 -125.5 -42.5t-95 -113.5t-60.5 -163.5t-21 -190.5z" />
<glyph unicode="e" horiz-adv-x="805" d="M87 282q0 143 40 256t105.5 191.5t148 120.5t169.5 42q63 0 109 -17.5t75.5 -46.5t43.5 -66.5t14 -78.5q0 -124 -120 -194.5t-350 -70.5q-21 0 -43.5 1t-47.5 3q-7 -34 -10 -63.5t-3 -52.5q0 -96 43 -156t136 -60q76 0 140 25.5t99 53.5l41 -84q-61 -52 -144 -79 t-166 -27q-139 0 -209.5 80t-70.5 223zM256 518q66 0 137.5 3.5t129.5 18.5t96.5 47.5t38.5 89.5q0 17 -6 35.5t-20 33.5t-39 24.5t-63 9.5q-96 0 -167 -65.5t-107 -196.5z" />
<glyph unicode="f" horiz-adv-x="483" d="M-198 -327l38 97q35 -11 63.5 -16t70.5 -5q66 0 99 64t56 201l122 745h-135l23 111h127l23 117q12 64 29.5 111.5t46.5 78.5t71.5 46.5t103.5 15.5q58 0 111.5 -11t97.5 -30l-38 -103q-85 33 -163 33q-64 0 -93.5 -44t-45.5 -142l-12 -72h176l-21 -111h-170l-140 -819 q-10 -64 -28.5 -118.5t-48 -95.5t-75 -64.5t-110.5 -23.5q-51 0 -95.5 7.5t-82.5 27.5z" />
<glyph unicode="g" horiz-adv-x="878" d="M8 -291l58 98q14 -7 34 -18.5t49 -22t69.5 -17.5t96.5 -7q87 0 146 62.5t89 197.5l31 146h-6q-25 -33 -53.5 -62.5t-63.5 -53.5t-76 -38t-90 -14q-94 0 -151.5 68t-57.5 194q0 117 32.5 231.5t96 206t157 149t214.5 57.5q94 0 158.5 -15.5t113.5 -38.5l-185 -872 q-37 -171 -126 -250t-238 -79q-113 0 -186 28.5t-112 49.5zM223 264q0 -80 32 -125.5t86 -45.5q43 0 86 22.5t78.5 58t64.5 77t48 78.5l88 420q-28 15 -67.5 20t-81.5 5q-72 0 -132.5 -41.5t-105 -112t-70.5 -162.5t-26 -194z" />
<glyph unicode="h" horiz-adv-x="920" d="M63 0l257 1219h130l-107 -498h7q23 28 55 57.5t73.5 54.5t90.5 42t107 17q85 0 133.5 -41.5t48.5 -149.5q0 -73 -22 -176l-112 -525h-131l105 496q10 52 17 93t7 72q0 65 -26 92t-81 27q-45 0 -92.5 -23.5t-91 -60t-77.5 -81.5t-51 -87l-110 -528h-130z" />
<glyph unicode="i" horiz-adv-x="450" d="M94 0l185 870h130l-185 -870h-130zM306 1136q0 40 27 68t67 28t68 -28t28 -68t-28 -66.5t-68 -26.5t-67 26.5t-27 66.5z" />
<glyph unicode="j" horiz-adv-x="432" d="M-167 -359l26 113q52 0 86 15t57.5 46.5t40.5 78t30 111.5l185 865h130l-195 -917q-35 -161 -108 -238t-198 -77q-14 0 -27 1t-27 2zM286 1136q0 40 26.5 68t66.5 28t68 -28t28 -68t-27.5 -66.5t-68.5 -26.5q-40 0 -66.5 26.5t-26.5 66.5z" />
<glyph unicode="k" horiz-adv-x="781" d="M63 0l257 1219h130l-158 -742l75 19l314 374h160l-310 -353l-82 -57l66 -68l196 -392h-145l-197 392h-94l-82 -392h-130z" />
<glyph unicode="l" horiz-adv-x="469" d="M87 115q0 35 11 86l216 1018h130l-213 -1012q-5 -29 -5 -49q0 -33 11.5 -47.5t30.5 -14.5q35 0 58.5 4.5t56.5 15.5v-99q-15 -9 -36 -14.5t-43 -9t-43.5 -6t-39.5 -2.5q-61 0 -97.5 27.5t-36.5 102.5z" />
<glyph unicode="m" horiz-adv-x="1327" d="M63 0l184 870h92l-10 -149h7q28 28 60 58t71.5 54.5t85.5 41.5t101 17q79 0 106 -49t27 -137q26 34 60.5 67t76 59t86.5 43t90 17q80 0 123 -37.5t43 -138.5q0 -73 -27 -194l-109 -522h-130l109 524q10 50 16 90t6 70q0 47 -19 71.5t-64 24.5q-36 0 -77 -23.5 t-79.5 -58.5t-69 -75t-48.5 -75l-113 -548h-130l105 493q13 61 20 108t7 82q0 46 -17.5 71.5t-59.5 25.5q-43 0 -84.5 -23t-78 -57t-67 -72t-48.5 -70l-115 -558h-130z" />
<glyph unicode="n" horiz-adv-x="908" d="M63 0l184 870h90l-6 -149h6q23 28 54.5 58t71 54.5t88 41.5t107.5 17q87 0 137.5 -42t50.5 -147q0 -52 -16 -125l-124 -578h-130l117 550q7 31 12.5 62t5.5 54q0 51 -24 82.5t-88 31.5q-45 0 -88.5 -21t-82 -53t-69 -71.5t-51.5 -77.5l-115 -557h-130z" />
<glyph unicode="o" horiz-adv-x="866" d="M87 271q0 138 35.5 252.5t98.5 196t145.5 127t176.5 45.5q73 0 124.5 -24t84 -65t46 -94t13.5 -110q0 -131 -34 -244t-94 -196.5t-140 -131.5t-174 -48q-78 0 -131.5 25.5t-87.5 67t-48.5 94t-14.5 105.5zM226 303q0 -103 38.5 -158t122.5 -55q58 0 109 41.5t90 111 t62.5 159t23.5 186.5q0 89 -32 140.5t-123 51.5q-58 0 -110 -39.5t-92.5 -105t-64.5 -152t-24 -180.5z" />
<glyph unicode="p" horiz-adv-x="884" d="M-8 -348l259 1218h90l-9 -149h7q25 31 55.5 61.5t67 55t80 39.5t94.5 15q41 0 78 -13.5t64.5 -44t44 -81t16.5 -123.5q0 -153 -41.5 -274t-109.5 -204.5t-153 -128t-168 -44.5q-61 0 -107 11.5t-62 23.5l-76 -362h-130zM224 131q30 -23 61.5 -32t68.5 -9q68 0 129.5 38 t110.5 107t77.5 167t28.5 218q0 69 -28.5 114.5t-85.5 45.5q-46 0 -88.5 -24.5t-78.5 -60t-64 -76.5t-45 -76z" />
<glyph unicode="q" horiz-adv-x="875" d="M80 246q0 116 38 231t106 205.5t162 147t207 56.5q37 0 74.5 -5t70.5 -13t61 -17.5t43 -20.5l-250 -1178h-130l106 494h-8q-21 -28 -48 -57t-60.5 -54t-75.5 -40.5t-89 -15.5q-56 0 -96 20.5t-64 55.5t-35.5 84t-11.5 107zM219 258q0 -84 27.5 -126t77.5 -42 q43 0 87.5 26.5t83 65.5t68 83.5t46.5 81.5l87 402q-28 15 -67 20t-69 5q-68 0 -129.5 -43t-108.5 -115.5t-75 -165.5t-28 -192z" />
<glyph unicode="r" horiz-adv-x="568" d="M63 0l184 870h90v-149h8q21 33 45 61.5t53.5 51.5t64.5 35.5t77 12.5q38 0 80 -12l-35 -114q-15 3 -32 4.5t-30 1.5q-89 0 -153.5 -55.5t-100.5 -135.5l-121 -571h-130z" />
<glyph unicode="s" horiz-adv-x="692" d="M5 35l49 109q34 -22 91 -38t118 -16q85 0 136 38t51 118q0 45 -22.5 76.5t-57 56.5t-74.5 49t-75 54.5t-57.5 71.5t-22.5 102q0 49 23.5 91.5t64 75t97.5 51t123 18.5q92 0 143 -12.5t91 -35.5l-44 -104q-69 39 -190 40q-73 0 -121 -30.5t-48 -93.5q0 -36 23 -63 t57.5 -51.5t74.5 -49.5t75 -57.5t57.5 -76t22.5 -102.5q0 -136 -91.5 -206.5t-244.5 -70.5q-78 0 -143.5 15.5t-105.5 40.5z" />
<glyph unicode="t" horiz-adv-x="544" d="M98 759l25 111h129l37 173l139 40l-45 -213h228l-26 -111h-226l-110 -526q-3 -21 -5.5 -38t-2.5 -31q0 -42 19 -58t57 -16q42 0 76.5 10.5t69.5 32.5v-107q-36 -21 -93.5 -34t-110.5 -13q-158 0 -158 144q0 30 9 73l118 563h-130z" />
<glyph unicode="u" horiz-adv-x="889" d="M105 167q0 62 17 137l119 566h130l-122 -579q-10 -47 -10 -87q0 -48 19 -81t69 -33q42 0 85 21.5t82 54t71 73t53 78.5l116 553h131l-109 -516q-7 -30 -14.5 -72.5t-13.5 -90t-9 -91.5t-3 -77v-23h-103v166h-7q-26 -35 -60 -68t-75 -59.5t-88 -43t-99 -16.5 q-38 0 -70.5 9t-56.5 30.5t-38 57t-14 91.5z" />
<glyph unicode="v" horiz-adv-x="777" d="M105 870h139l90 -510l16 -165h4l74 169l294 506h150l-543 -890h-55z" />
<glyph unicode="w" horiz-adv-x="1191" d="M99 870h132l55 -506l-4 -169h7l70 172l287 503h97l82 -508l7 -167h2l68 171l256 504h132l-468 -890h-66l-93 575l-2 143h-3l-65 -145l-330 -573h-62z" />
<glyph unicode="x" horiz-adv-x="842" d="M-38 0l392 445l-187 425h148l103 -240l31 -99l71 99l211 240h159l-370 -418l208 -452h-148l-118 264l-35 105l-73 -105l-234 -264h-158z" />
<glyph unicode="y" horiz-adv-x="764" d="M-35 -341l42 120q19 -7 41 -7q51 0 102 52.5t113 175.5l-150 870h139l85 -564l10 -167h8l67 169l289 562h138l-410 -776q-45 -85 -90 -166t-91.5 -144.5t-97 -102t-104.5 -38.5q-30 0 -51.5 3.5t-39.5 12.5z" />
<glyph unicode="z" horiz-adv-x="746" d="M-3 0l23 120l488 556l96 75h-449l26 119h587l-27 -119l-494 -561l-94 -70h455l-25 -120h-586z" />
<glyph unicode="{" horiz-adv-x="575" d="M131 350l25 118q130 0 163 148l90 422q17 81 66.5 132t128.5 51h141l-26 -123h-83q-45 0 -70.5 -23.5t-37.5 -79.5l-86 -412q-15 -76 -59 -116t-91 -49l-1 -11q35 -5 60 -40t23 -90q0 -8 -2.5 -20.5t-10 -55.5t-27 -130.5t-54.5 -246.5q-1 -10 -3 -19t-2 -17 q-1 -67 73 -67h82l-28 -121h-141q-61 0 -94 34t-31 97q0 24 7 50l87 414q6 31 7 56q4 56 -25 77.5t-81 21.5z" />
<glyph unicode="|" horiz-adv-x="413" d="M201 -226v1445h119v-1445h-119z" />
<glyph unicode="}" horiz-adv-x="575" d="M-110 -400l28 121h82q43 0 68.5 24t36.5 79l86 413q17 77 60 117t92 48l4 10q-38 5 -63.5 40t-24.5 91q0 9 2 20.5t3 21.5l90 410q3 11 4 19.5t1 17.5q1 66 -72 66h-80l24 123h141q62 0 96 -33.5t30 -97.5q0 -25 -7 -50l-87 -415q-7 -30 -7 -52q-2 -58 26.5 -80.5 t81.5 -22.5l-28 -118q-63 0 -104.5 -36.5t-58.5 -111.5q0 -2 -5 -21t-11 -48.5t-13.5 -68t-15.5 -76.5q-19 -93 -43 -208q-17 -81 -67.5 -131.5t-128.5 -50.5h-140z" />
<glyph unicode="~" horiz-adv-x="835" d="M80 628q75 58 136 80.5t111 22.5q49 0 91 -15t80 -33t74.5 -32.5t76.5 -14.5q34 0 68.5 13.5t74.5 48.5l59 -106q-66 -45 -119 -63.5t-96 -18.5q-47 0 -86.5 15t-75 33t-71.5 33t-77 15q-40 0 -85.5 -18t-101.5 -64z" />
<glyph unicode="&#xa2;" d="M176 258q0 134 33 242.5t89.5 189.5t131.5 130.5t158 63.5l35 161h117l-35 -155q45 -5 79.5 -15.5t62.5 -23.5l-48 -108q-23 13 -55.5 22t-73.5 13l-145 -684q47 7 94 28t77 40l33 -87q-43 -37 -102 -59.5t-115 -30.5l-33 -159h-115l33 157q-66 10 -109.5 39.5t-68 69 t-34 83t-9.5 83.5zM315 312q0 -96 32 -149t90 -67l143 677q-52 -14 -100 -56.5t-84.5 -105.5t-58.5 -140t-22 -159z" />
<glyph unicode="&#xa3;" d="M65 0l25 123q52 0 100.5 26.5t85 70.5t58 105.5t21.5 134.5q0 35 -3.5 63.5t-8.5 56.5h-164l27 111h113q-7 31 -11 67t-4 81q0 99 35 175t93.5 125.5t137 74.5t166.5 25q70 0 132 -14.5t102 -37.5l-48 -111q-35 20 -90.5 31.5t-125.5 11.5q-53 0 -101 -18t-84 -53.5 t-56.5 -87t-20.5 -118.5q0 -53 4 -88t12 -63h269l-26 -111h-218q4 -22 6 -47.5t2 -60.5q0 -58 -11.5 -106.5t-28 -87.5t-37.5 -68t-40 -46l-78 -59l-2 -9l108 24h425l-27 -120h-737z" />
<glyph unicode="&#xa5;" d="M156 252l22 105h201l23 110h-200l22 104h155l-200 648h152l160 -533l5 -106h2l52 109l371 530h157l-470 -648h156l-23 -104h-200l-23 -110h201l-23 -105h-200l-52 -252h-140l53 252h-201z" />
<glyph unicode="&#xa8;" horiz-adv-x="425" d="M153 1136q0 39 21.5 64.5t58.5 25.5q36 0 59 -25.5t23 -64.5q0 -34 -23 -59.5t-59 -25.5q-37 0 -58.5 25.5t-21.5 59.5zM472 1138q0 37 21.5 62.5t58.5 25.5q38 0 59.5 -25.5t21.5 -62.5q0 -36 -21.5 -61.5t-59.5 -25.5q-37 0 -58.5 25.5t-21.5 61.5z" />
<glyph unicode="&#xa9;" horiz-adv-x="1402" d="M134 505q0 144 48.5 258t132.5 192.5t195 120.5t237 42q125 0 236.5 -42t195 -120.5t132 -192.5t48.5 -258q0 -145 -48.5 -258.5t-132 -192.5t-195 -120.5t-236.5 -41.5q-139 0 -252 41.5t-193.5 120.5t-124 192.5t-43.5 258.5zM256 505q0 -120 38 -213.5t104.5 -156 t156 -95.5t192.5 -33t192 33t155.5 95.5t105 156t38.5 213.5t-38.5 213t-105 156t-156 96t-191.5 33q-103 0 -192.5 -33t-156 -96t-104.5 -156t-38 -213zM455 505q0 158 79 244.5t209 86.5q31 0 56.5 -3.5t47.5 -9.5t42.5 -15t47.5 -19l-45 -106q-39 19 -73.5 26t-59.5 7 q-73 0 -119.5 -45.5t-46.5 -165.5q0 -101 45.5 -156t134.5 -57q81 0 139 32l37 -103q-40 -23 -90 -35t-116 -12q-141 0 -214.5 89t-73.5 242z" />
<glyph unicode="&#xab;" horiz-adv-x="789" d="M66 450l348 401l79 -82l-216 -252l-99 -65l61 -64l116 -247l-94 -75zM369 450l345 397l76 -79l-214 -251l-97 -65l59 -64l116 -245l-94 -73z" />
<glyph unicode="&#xae;" horiz-adv-x="1218" d="M239 785q0 112 36.5 197.5t100 144.5t147 89t177.5 30q96 0 180.5 -30t147 -89t98 -144.5t35.5 -197.5q0 -111 -36.5 -197t-100.5 -144.5t-147 -89t-177 -30.5q-98 0 -181.5 30.5t-146 89t-98 144.5t-35.5 197zM348 785q0 -90 28 -157.5t76 -111.5t112 -66.5t136 -22.5 q74 0 139 21.5t112 65.5t73.5 111.5t26.5 159.5q0 91 -28 158t-75.5 111t-111 67t-136.5 23q-77 0 -141 -23t-111.5 -67t-73.5 -111t-26 -158zM520 560v452q28 8 78.5 12t95.5 4q74 0 126 -30t52 -105q0 -56 -35.5 -85.5t-87.5 -33.5l48 -23l129 -191h-106l-126 181l-83 27 v-208h-91zM611 820h59q50 0 78 15.5t28 54.5q1 60 -100 60q-20 0 -37.5 -0.5t-27.5 -5.5v-124z" />
<glyph unicode="&#xb4;" horiz-adv-x="413" d="M244 994l153 260h146l-8 -37l-215 -223h-76z" />
<glyph unicode="&#xb8;" horiz-adv-x="631" d="M87 -355l29 68q9 -2 18.5 -2h18.5q37 0 61.5 7t38 16.5t19 22t5.5 22.5q0 33 -36.5 49t-97.5 16l113 156h92l-57 -75q46 -5 77 -35.5t31 -85.5q0 -73 -55 -120.5t-165 -47.5q-21 0 -44.5 2.5t-47.5 6.5z" />
<glyph unicode="&#xbb;" horiz-adv-x="789" d="M66 148l214 251l97 66l-60 75l-119 245l100 62l189 -380l-344 -397zM364 146l216 253l97 66l-61 76l-120 248l101 62l193 -384l-348 -401z" />
<glyph unicode="&#x2c6;" horiz-adv-x="749" d="M348 957l272 317h52l115 -317h-110l-41 116l-11 100l-59 -100l-99 -116h-119z" />
<glyph unicode="&#x2da;" horiz-adv-x="697" d="M383 1119q0 74 46 116.5t123 42.5q73 0 121.5 -38.5t48.5 -120.5q0 -68 -48.5 -112t-121.5 -44t-121 41t-48 115zM477 1119q0 -34 23.5 -53.5t51.5 -19.5q33 0 54.5 17.5t21.5 55.5q0 39 -23.5 57t-52.5 18q-30 0 -52.5 -17.5t-22.5 -57.5z" />
<glyph unicode="&#x2dc;" horiz-adv-x="606" d="M261 1142q56 57 97 79t72 22q26 0 47 -11t41 -24.5t40 -24t45 -10.5q40 0 93 43l26 -76q-50 -50 -86.5 -69.5t-65.5 -19.5q-27 0 -47.5 11t-40.5 23.5t-41 23t-47 10.5q-23 0 -49 -11.5t-61 -39.5z" />
<glyph unicode="&#x401;" horiz-adv-x="887" d="M70 0l259 1219h628l-25 -129h-493l-85 -399h450l-26 -128h-451l-92 -434h501l-27 -129h-502h-137zM417 1382q0 35 25 58.5t64 23.5q40 0 63.5 -23.5t23.5 -58.5t-23.5 -57.5t-63.5 -22.5q-39 0 -64 22.5t-25 57.5zM736 1382q0 35 23.5 58.5t63.5 23.5t64.5 -23.5 t24.5 -58.5t-24 -57.5t-65 -22.5q-40 0 -63.5 22.5t-23.5 57.5z" />
<glyph unicode="&#x402;" horiz-adv-x="1206" d="M191 1090l27 129h856l-26 -129h-360l-77 -368q21 9 77.5 23t145.5 14q83 0 140.5 -23.5t94 -64.5t52 -95t15.5 -113q0 -101 -30 -188t-90.5 -151t-150 -101t-205.5 -37q-54 0 -83 1t-41 5l28 124q20 -3 41 -4t71 -1q75 0 134 26.5t99 71.5t60.5 105t20.5 128 q0 103 -53 147t-159 44q-30 0 -60 -4t-56 -10t-48 -13t-33 -11l-123 -595h-139l231 1090h-359z" />
<glyph unicode="&#x403;" horiz-adv-x="731" d="M70 0l259 1219h618l-26 -129h-482l-230 -1090h-139zM521 1309l238 206h203l-9 -37l-305 -169h-127z" />
<glyph unicode="&#x404;" horiz-adv-x="967" d="M123 477q0 196 58 339.5t152 238t211 139.5t238 45q99 0 171 -14t112 -32l-62 -128q-35 20 -101 33t-140 13q-79 0 -153 -29t-137 -83t-109 -131.5t-71 -176.5h522l-27 -128h-516q-2 -20 -2 -35.5v-34.5q0 -83 22.5 -154t63 -122t100.5 -80t137 -29q81 0 145 18t105 43 l13 -119q-61 -40 -136 -55.5t-162 -15.5q-103 0 -183 37.5t-135.5 104.5t-85.5 157.5t-30 198.5z" />
<glyph unicode="&#x405;" horiz-adv-x="878" d="M30 43l71 128q40 -23 109 -44.5t162 -21.5q54 0 108.5 9t97.5 34t70.5 64.5t27.5 101.5q0 63 -32.5 106t-81.5 79t-105.5 69t-105 76.5t-80.5 102.5t-32 146q0 93 33.5 159t92 107.5t137.5 60.5t168 19q101 0 181.5 -15.5t125.5 -39.5l-70 -124q-35 20 -104 37t-159 17 q-114 0 -186.5 -52t-72.5 -152q0 -64 32 -108.5t81 -80t105.5 -68.5t105 -75.5t81 -102t32.5 -144.5q0 -169 -122 -260.5t-350 -91.5q-116 0 -197.5 20.5t-122.5 43.5z" />
<glyph unicode="&#x406;" horiz-adv-x="481" d="M108 0l258 1219h139l-258 -1219h-139z" />
<glyph unicode="&#x407;" horiz-adv-x="481" d="M108 0l258 1219h139l-258 -1219h-139zM271 1380q0 35 23 59.5t61 24.5q39 0 61.5 -24.5t22.5 -59.5q0 -34 -22.5 -57.5t-61.5 -23.5q-38 0 -61 23.5t-23 57.5zM485 1380q0 35 23 59.5t62 24.5q38 0 60.5 -24.5t22.5 -59.5q0 -34 -22.5 -57.5t-60.5 -23.5q-39 0 -62 23.5 t-23 57.5z" />
<glyph unicode="&#x408;" horiz-adv-x="483" d="M-106 10l52 124q34 -23 94 -23q36 0 60.5 13.5t42 38.5t29 60t19.5 80l196 916h138l-201 -951q-15 -70 -37.5 -122.5t-56.5 -89t-83 -55t-119 -18.5q-14 0 -32.5 1.5t-37.5 5t-36.5 8.5t-27.5 12z" />
<glyph unicode="&#x409;" horiz-adv-x="1533" d="M-73 8l47 126q17 -5 38 -5q33 0 67 21t69 73q31 46 67.5 125t76.5 198t84 284t91 389h139h475l-99 -474q8 2 26.5 4.5t40.5 5t46 3.5t43 1q73 0 139.5 -17.5t117 -55t80 -96.5t29.5 -145q0 -118 -42 -205t-116 -143.5t-173 -83.5t-214 -27q-37 0 -77.5 2t-56.5 4 q-43 3 -66 5.5t-42 6.5t-31 8l228 1078h-341q-80 -347 -154 -577.5t-156 -361.5q-54 -85 -112 -122t-123 -37q-30 0 -56 4t-45 12zM849 122q21 -6 61 -8.5t82 -2.5q71 0 137.5 18.5t117 57.5t80.5 99.5t30 145.5q0 104 -70 152.5t-185 48.5q-14 0 -35.5 -1.5t-43.5 -3.5 t-41 -5t-30 -5z" />
<glyph unicode="&#x40a;" horiz-adv-x="1611" d="M70 0l257 1219h140l-108 -507h555l106 507h139l-106 -507q25 5 75 9.5t91 4.5q78 0 145 -19t115 -56.5t76 -95t28 -133.5q0 -216 -141.5 -326t-405.5 -110q-23 0 -57 1t-74 5q-38 1 -73.5 6t-65.5 12l121 573h-555l-123 -583h-139zM928 122q21 -6 61 -8.5t82 -2.5 q191 0 278 80t87 218q0 109 -70.5 150.5t-187.5 41.5q-15 0 -37.5 -2l-45 -4t-42 -5.5t-28.5 -4.5z" />
<glyph unicode="&#x40b;" horiz-adv-x="1239" d="M191 1090l27 129h856l-26 -129h-360l-84 -402q52 29 123.5 53.5t164.5 24.5q53 0 102 -14t84 -44.5t55.5 -78.5t20.5 -114q0 -52 -12 -108l-84 -407h-139l84 388q10 49 12 89q-2 160 -169 161q-78 0 -145.5 -23t-125.5 -58l-117 -557h-139l229 1090h-357z" />
<glyph unicode="&#x40c;" horiz-adv-x="1002" d="M70 0l257 1219h140l-122 -568l69 25l500 543h172l-498 -530l-80 -53l68 -70l305 -566h-159l-306 564h-89l-118 -564h-139zM564 1309l238 206h203l-9 -37l-305 -169h-127z" />
<glyph unicode="&#x40e;" horiz-adv-x="915" d="M94 30l68 120q28 -17 49.5 -23.5t46.5 -6.5q45 0 88.5 57.5t93.5 146.5l-236 895h148l160 -643l10 -154h8l65 159l357 638h153l-461 -792q-71 -124 -123.5 -207.5t-97 -134t-87 -72t-95.5 -21.5q-57 0 -90 11t-57 27zM411 1480l118 35q0 -65 32.5 -100t89.5 -35 q73 0 120 36t66 97l127 -30q-31 -94 -113 -149t-207 -55q-118 0 -174 58.5t-59 142.5z" />
<glyph unicode="&#x40f;" horiz-adv-x="1091" d="M70 0l257 1219h140l-232 -1090h534l231 1090h138l-259 -1219h-346l-58 -312h-128l76 312h-353z" />
<glyph unicode="&#x410;" horiz-adv-x="969" d="M-58 0l704 1238h65l175 -1238h-134l-49 337h-424l-189 -337h-148zM347 463h342l-50 371l-3 184h-3l-78 -188z" />
<glyph unicode="&#x411;" horiz-adv-x="912" d="M70 12l256 1207h626l-26 -129h-491l-76 -366q29 5 71 10.5t82 5.5q172 0 263.5 -79.5t91.5 -220.5q0 -127 -46.5 -214t-120.5 -140t-167 -76.5t-186 -23.5q-28 0 -63 1t-80 5q-35 3 -70 7t-64 13zM231 122q21 -7 69 -9t90 -2q60 0 119 17.5t105.5 54t76.5 95t30 140.5 q0 106 -67.5 151.5t-181.5 45.5q-14 0 -35 -2t-41 -3.5t-37.5 -4t-26.5 -4.5z" />
<glyph unicode="&#x412;" horiz-adv-x="967" d="M70 8l254 1200q66 10 148.5 17t178.5 7q65 0 124 -16.5t103 -49.5t71.5 -85.5t27.5 -121.5q0 -68 -21 -123.5t-59.5 -97.5t-89.5 -67t-111 -33v-8q38 -9 73 -29t61.5 -49.5t41.5 -68.5t15 -86q0 -122 -47.5 -201.5t-121.5 -126t-165 -65t-181 -18.5h-67t-99 4 q-105 10 -136 18zM231 123q10 -3 32.5 -5t47.5 -3.5t51.5 -2.5t48.5 -1q61 0 120 15t106 46.5t75.5 81.5t28.5 123q0 54 -26 90t-67.5 57t-94.5 28.5t-108 7.5h-121zM348 679h92q30 0 70 1t68 4q40 9 85.5 24.5t83 44.5t60.5 73t23 111q0 48 -14.5 80.5t-43.5 52.5t-69 29 t-88 9q-57 0 -105 -3t-73 -9z" />
<glyph unicode="&#x413;" horiz-adv-x="731" d="M70 0l259 1219h618l-26 -129h-482l-230 -1090h-139z" />
<glyph unicode="&#x414;" horiz-adv-x="1108" d="M-110 -224l73 353h117q17 20 62.5 87.5t103 197t119.5 328t112 477.5h131h487l-231 -1090h153l-75 -353h-96l23 224h-811l-73 -224h-95zM237 129h489l204 961h-349q-85 -382 -174.5 -615t-169.5 -346z" />
<glyph unicode="&#x415;" horiz-adv-x="887" d="M70 0l259 1219h628l-25 -129h-493l-85 -399h450l-26 -128h-451l-92 -434h501l-27 -129h-502h-137z" />
<glyph unicode="&#x416;" horiz-adv-x="1334" d="M-76 0l478 545l93 66l-60 61l-231 547h153l219 -547h84l116 547h131l-120 -568l64 25l448 543h168l-445 -530l-82 -56l70 -70l251 -563h-153l-253 564h-87l-119 -564h-131l125 585l-65 -22l-480 -563h-174z" />
<glyph unicode="&#x417;" horiz-adv-x="895" d="M10 25l63 126q35 -19 99.5 -32.5t161.5 -13.5q60 0 120.5 14.5t109.5 48t79.5 86t30.5 129.5q0 52 -18 87t-49.5 57.5t-71.5 33t-83 14.5q-19 1 -38 1h-38h-90l26 120h24q31 0 77.5 2.5t73.5 6.5q47 5 96 21.5t88.5 46t64.5 73.5t25 103q0 78 -56 121.5t-152 43.5 q-88 0 -147 -14.5t-108 -32.5l-14 114q40 19 120.5 38.5t187.5 19.5q66 0 123.5 -16.5t100 -47.5t67 -78t24.5 -110q0 -75 -23.5 -132.5t-62.5 -99t-91.5 -67t-109.5 -34.5v-6q36 -9 72 -27t64.5 -49.5t46 -78t17.5 -110.5q0 -114 -47 -192t-122 -124.5t-166 -67t-182 -20.5 q-110 0 -180.5 13t-112.5 33z" />
<glyph unicode="&#x418;" horiz-adv-x="1127" d="M70 0l259 1219h139l-176 -829l-43 -132h7l103 142l726 819h88l-258 -1219h-139l173 814l41 141h-5l-103 -146l-724 -809h-88z" />
<glyph unicode="&#x419;" horiz-adv-x="1127" d="M70 0l259 1219h139l-176 -829l-43 -132h7l103 142l726 819h88l-258 -1219h-139l173 814l41 141h-5l-103 -146l-724 -809h-88zM549 1480l118 35q0 -65 32.5 -100t89.5 -35q73 0 120 36t66 97l127 -30q-31 -94 -113 -149t-207 -55q-118 0 -174 58.5t-59 142.5z" />
<glyph unicode="&#x41a;" horiz-adv-x="1002" d="M70 0l257 1219h140l-122 -568l69 25l500 543h172l-498 -530l-80 -53l68 -70l305 -566h-159l-306 564h-89l-118 -564h-139z" />
<glyph unicode="&#x41b;" horiz-adv-x="1033" d="M-73 8l47 126q17 -5 38 -5q33 0 67 21t69 73q31 46 67.5 125t76.5 198t84 284t91 389h136h477l-258 -1219h-139l231 1090h-341q-80 -347 -154 -577.5t-156 -361.5q-54 -85 -112 -122t-123 -37q-30 0 -56 4t-45 12z" />
<glyph unicode="&#x41c;" horiz-adv-x="1312" d="M70 0l259 1219h96l226 -624l26 -135h2l80 139l475 620h123l-259 -1219h-139l174 819l54 182h-6l-98 -167l-418 -550h-42l-200 550l-26 167h-7l-14 -181l-174 -820h-132z" />
<glyph unicode="&#x41d;" horiz-adv-x="1111" d="M70 0l257 1219h140l-112 -531h552l111 531h140l-258 -1219h-139l118 558h-553l-117 -558h-139z" />
<glyph unicode="&#x41e;" horiz-adv-x="1133" d="M123 445q0 160 44 305t124.5 254t195 172t253.5 63q83 0 154.5 -25t122.5 -79.5t80 -142t29 -212.5q0 -164 -43 -309t-122 -255t-187.5 -173.5t-238.5 -63.5q-206 0 -309 119.5t-103 346.5zM269 447q0 -164 68 -253t201 -89q98 0 178.5 53.5t139.5 146t91.5 214.5 t32.5 257q0 101 -22.5 167.5t-60 104t-85.5 52t-96 14.5q-100 0 -182 -54.5t-140 -147t-91.5 -213.5t-33.5 -252z" />
<glyph unicode="&#x41f;" horiz-adv-x="1091" d="M70 0l259 1219h807l-257 -1219h-139l232 1090h-533l-230 -1090h-139z" />
<glyph unicode="&#x420;" horiz-adv-x="925" d="M70 0l256 1206q66 15 139 20.5t144 5.5q80 0 149 -17t119.5 -55.5t79 -98.5t28.5 -144q0 -132 -47.5 -220.5t-125.5 -141.5t-175 -76t-197 -23h-26.5t-39 1t-40 3t-28.5 3l-97 -463h-139zM334 590q7 -4 23.5 -4.5t35 -2.5t35.5 -2h27q75 0 144 16t122 54t85.5 99 t32.5 154q0 62 -21 102t-56.5 62t-82.5 31t-99 9q-40 0 -77.5 -3t-62.5 -9z" />
<glyph unicode="&#x421;" horiz-adv-x="946" d="M123 477q0 196 58 339.5t152 238t211 139.5t238 45q99 0 161.5 -14t102.5 -32l-63 -128q-34 20 -90.5 33t-130.5 13q-97 0 -187 -43t-157.5 -123t-108 -194.5t-40.5 -257.5q0 -83 22.5 -154t63 -122t100.5 -80t137 -29q81 0 135.5 18t97.5 43l11 -119q-60 -40 -126 -55.5 t-153 -15.5q-103 0 -183 37.5t-135.5 104.5t-85.5 157.5t-30 198.5z" />
<glyph unicode="&#x422;" horiz-adv-x="918" d="M191 1090l27 129h856l-26 -129h-360l-230 -1090h-139l229 1090h-357z" />
<glyph unicode="&#x423;" horiz-adv-x="915" d="M94 30l68 120q28 -17 49.5 -23.5t46.5 -6.5q45 0 88.5 57.5t93.5 146.5l-236 895h148l160 -643l10 -154h8l65 159l357 638h153l-461 -792q-71 -124 -123.5 -207.5t-97 -134t-87 -72t-95.5 -21.5q-57 0 -90 11t-57 27z" />
<glyph unicode="&#x424;" horiz-adv-x="1291" d="M110 489q0 143 37 258t107 195.5t167 124.5t217 44q22 0 55 -1.5t50 -6.5l33 151h134l-33 -156q33 9 66.5 11t59.5 2q63 0 118 -20t96.5 -62t65 -109t23.5 -161q0 -153 -42 -270.5t-112.5 -197.5t-164.5 -121.5t-198 -41.5q-23 0 -59.5 2.5t-55.5 8.5l-38 -174h-134 l36 174q-30 -6 -59 -8.5t-68 -2.5q-47 0 -100 16t-97.5 58t-74 111.5t-29.5 175.5zM256 498q0 -71 17.5 -119t46 -78t64.5 -42t72 -12q17 0 51 1t59 10l153 725q-19 4 -47 5.5t-52 1.5q-82 0 -149 -36.5t-115 -101.5t-74 -155.5t-26 -198.5zM694 252q17 -3 44.5 -4t51.5 -1 q91 0 159.5 41t116 110t70.5 157.5t23 184.5q0 136 -54 193t-142 57q-23 0 -56 -1.5t-58 -10.5z" />
<glyph unicode="&#x425;" horiz-adv-x="1023" d="M-12 0l515 623l-226 596h151l150 -413l21 -100l59 100l332 413h169l-485 -591l247 -628h-152l-166 437l-25 104l-66 -104l-356 -437h-168z" />
<glyph unicode="&#x426;" horiz-adv-x="1138" d="M70 0l259 1219h139l-231 -1090h519l229 1090h140l-230 -1090h151l-74 -353h-95l21 224h-31h-141h-514h-142z" />
<glyph unicode="&#x427;" horiz-adv-x="1002" d="M209 700q0 51 12 108l87 411h139l-83 -392q-5 -25 -8.5 -48t-3.5 -43q0 -160 163 -160q78 0 150.5 22t123.5 58l120 563h139l-258 -1219h-139l111 525q-50 -29 -120.5 -53.5t-169.5 -24.5q-52 0 -100 13t-84.5 44t-57.5 78.5t-21 117.5z" />
<glyph unicode="&#x428;" horiz-adv-x="1453" d="M70 0l259 1219h139l-231 -1090h378l229 1090h139l-231 -1090h378l229 1090h140l-260 -1219h-139h-376h-139h-376h-139z" />
<glyph unicode="&#x429;" horiz-adv-x="1510" d="M70 0l259 1219h139l-231 -1090h378l229 1090h139l-231 -1090h378l229 1090h140l-232 -1090h153l-74 -353h-96l22 224h-33h-139h-376h-139h-376h-139z" />
<glyph unicode="&#x42a;" horiz-adv-x="1040" d="M160 1090l26 129h402l-101 -474q10 2 29.5 4.5t42 5t46 3.5t43.5 1q71 0 137 -16.5t116.5 -54t80.5 -96.5t30 -145q0 -118 -41 -205t-114 -143.5t-173.5 -84.5t-218.5 -28q-23 0 -57 1t-79 5q-35 1 -70 6t-64 14l228 1078h-263zM355 122q23 -6 62 -8.5t81 -2.5 q78 0 145.5 20t116.5 60t77 100.5t28 138.5q0 58 -20.5 97t-55.5 62.5t-81.5 33.5t-96.5 10q-15 0 -37 -1.5t-44.5 -3.5t-42 -5t-27.5 -5z" />
<glyph unicode="&#x42b;" horiz-adv-x="1275" d="M70 12l256 1207h139l-99 -474q28 6 67 10t79 4q71 0 132.5 -19t107 -57.5t70.5 -95t25 -131.5q0 -124 -44 -214.5t-118 -147t-170.5 -82.5t-199.5 -26q-41 0 -109 4q-78 7 -136 22zM233 122q25 -6 53 -8.5t68 -2.5q68 0 131 21t111 61t76.5 101t28.5 143 q0 101 -60.5 148.5t-178.5 47.5q-30 0 -68.5 -5t-57.5 -10zM924 0l258 1219h139l-258 -1219h-139z" />
<glyph unicode="&#x42c;" horiz-adv-x="917" d="M70 12l256 1207h139l-99 -474q8 2 26.5 4.5t40.5 5t46 3.5t43 1q73 0 139.5 -17.5t117 -55t79.5 -96.5t29 -145q0 -118 -41.5 -205t-115.5 -143.5t-173 -83.5t-214 -27q-23 0 -57 1t-80 5q-33 1 -69 6t-67 14zM233 122q21 -6 61 -8.5t82 -2.5q71 0 137.5 18.5t117 57.5 t80.5 99.5t30 145.5q0 104 -70 152.5t-186 48.5q-13 0 -35 -1.5t-44.5 -3.5t-41.5 -5t-28 -5z" />
<glyph unicode="&#x42d;" horiz-adv-x="963" d="M20 23l63 127q35 -20 95.5 -32.5t125.5 -12.5q89 0 170 29.5t148 87.5t113.5 142.5t65.5 193.5h-491l24 125h485q1 19 2 39.5t1 39.5q0 166 -75 259t-239 93q-78 0 -137 -17t-103 -40l-10 114q59 32 128 50t155 18q125 0 206.5 -41.5t128 -107t65.5 -146t19 -159.5 q0 -170 -40.5 -317.5t-124 -255t-212 -170.5t-306.5 -63q-80 0 -148 12t-109 32z" />
<glyph unicode="&#x42e;" horiz-adv-x="1498" d="M70 0l257 1219h140l-112 -531h203q82 284 228.5 417.5t331.5 133.5q172 0 273 -99.5t101 -303.5q0 -173 -41 -328.5t-119 -273.5t-191.5 -186.5t-258.5 -68.5q-92 0 -158 32t-108.5 89.5t-62.5 137t-20 173.5q0 71 10 147h-217l-117 -558h-139zM676 405q0 -61 12 -115.5 t40.5 -95.5t74.5 -65t116 -24q93 0 171 58t134.5 155.5t89 227.5t32.5 273q0 134 -60 214.5t-173 80.5q-96 0 -176 -57t-138.5 -154t-90.5 -226t-32 -272z" />
<glyph unicode="&#x42f;" horiz-adv-x="945" d="M-23 0l349 437l116 76q-33 11 -70.5 34t-69 58.5t-52 86.5t-20.5 122q0 120 46 200.5t119 129.5t164.5 68.5t181.5 19.5q56 0 124 -5t125 -21l-254 -1206h-139l112 530l-169 -37l-396 -493h-167zM376 825q0 -99 62 -154.5t175 -55.5h113l103 481q-21 6 -49.5 9t-70.5 3 q-61 0 -120 -14t-106.5 -46.5t-77 -87.5t-29.5 -135z" />
<glyph unicode="&#x430;" horiz-adv-x="847" d="M78 249q0 111 29 226t89 207t154.5 151.5t229.5 59.5q48 0 118.5 -11.5t131.5 -30.5l-109 -508q-14 -65 -19.5 -131t-5.5 -124v-49.5t4 -41.5h-97l-25 151h-7q-21 -30 -51.5 -60t-67 -55t-78.5 -39.5t-88 -14.5q-208 0 -208 270zM218 249q0 -66 25.5 -112.5t82.5 -46.5 q41 0 79.5 20.5t72.5 50t60 63.5t42 63l97 470q-51 25 -132 25q-80 0 -141 -47t-103 -123t-62.5 -171.5t-20.5 -191.5z" />
<glyph unicode="&#x431;" horiz-adv-x="867" d="M105 298q0 184 35.5 342.5t97 278t145.5 191.5t181 88q74 10 134.5 16.5t109.5 11.5t82.5 12.5t53.5 23.5l-6 -122q-28 -21 -93 -35.5t-196 -24.5q-59 -6 -114 -21.5t-105.5 -59.5t-94 -123.5t-79.5 -210.5h12q73 108 154 155t186 47q120 0 172 -68t52 -190 q0 -144 -37.5 -261t-100 -198.5t-143.5 -126t-169 -44.5q-77 0 -130.5 26t-85.5 69.5t-46.5 101t-14.5 122.5zM244 317q0 -45 5 -85.5t22.5 -69.5t49 -46t83.5 -17t103 34t92.5 96.5t67.5 151.5t26 199q0 33 -6 62.5t-22 53t-43 37.5t-70 14q-58 0 -113.5 -34t-99 -93.5 t-69.5 -137t-26 -165.5z" />
<glyph unicode="&#x432;" horiz-adv-x="793" d="M82 242q0 27 1.5 49.5t6 50t11.5 65.5t19 89q43 195 149.5 290.5t263.5 95.5q66 0 109.5 -12t69.5 -34t36.5 -51t10.5 -66q0 -93 -60 -160.5t-159 -95.5l-4 -7q84 -3 128.5 -41.5t44.5 -102.5q0 -80 -32.5 -140.5t-86.5 -101t-123.5 -61.5t-144.5 -21q-50 0 -94.5 12 t-77 41t-50.5 78.5t-18 122.5zM207 249q0 -150 140 -150q45 0 85.5 12t72 37.5t50 62t18.5 87.5q0 45 -37.5 73t-126.5 28h-13t-26 -2t-53 -3.5t-93 -6.5q-8 -47 -12.5 -79.5t-4.5 -58.5zM246 487l156 16q26 2 64.5 14.5t74 34t60 53t24.5 72.5q0 47 -24.5 70.5t-93.5 23.5 q-100 0 -160.5 -62.5t-90.5 -178.5z" />
<glyph unicode="&#x433;" horiz-adv-x="714" d="M47 209q0 83 36.5 135.5t92 87.5t120 57.5t120.5 45.5t92.5 54t36.5 81q0 56 -30.5 78.5t-105.5 22.5q-66 0 -114 -15t-86 -34l-26 103q56 30 122 43.5t139 13.5q69 0 115.5 -15.5t74 -41.5t39 -61t11.5 -73q0 -83 -36.5 -134.5t-92 -84t-120 -53t-120.5 -45t-92.5 -58.5 t-36.5 -92q0 -61 39 -97.5t104 -36.5t127 23t97 47l35 -85q-53 -45 -129 -70.5t-139 -25.5q-85 0 -138 23.5t-83.5 58.5t-41 75t-10.5 73z" />
<glyph unicode="&#x434;" horiz-adv-x="861" d="M88 306q0 110 31 212.5t88 183t139 129t185 48.5q60 0 93.5 -11t58.5 -29h8q-8 133 -96 211t-240 78l24 111q128 0 213 -38t137.5 -104.5t74 -155t21.5 -189.5q0 -182 -35.5 -326t-98.5 -243.5t-147 -151.5t-182 -52q-141 0 -207.5 87t-66.5 240zM228 292 q0 -85 35 -143.5t113 -58.5q85 0 144.5 61t96 152.5t53 198.5t16.5 199q-30 35 -67.5 51t-98.5 16q-56 0 -108 -35t-92.5 -97.5t-66 -150.5t-25.5 -193z" />
<glyph unicode="&#x435;" horiz-adv-x="805" d="M87 282q0 143 40 256t105.5 191.5t148 120.5t169.5 42q63 0 109 -17.5t75.5 -46.5t43.5 -66.5t14 -78.5q0 -124 -120 -194.5t-350 -70.5q-21 0 -43.5 1t-47.5 3q-7 -34 -10 -63.5t-3 -52.5q0 -96 43 -156t136 -60q76 0 140 25.5t99 53.5l41 -84q-61 -52 -144 -79 t-166 -27q-139 0 -209.5 80t-70.5 223zM256 518q66 0 137.5 3.5t129.5 18.5t96.5 47.5t38.5 89.5q0 17 -6 35.5t-20 33.5t-39 24.5t-63 9.5q-96 0 -167 -65.5t-107 -196.5z" />
<glyph unicode="&#x436;" horiz-adv-x="1224" d="M-25 3l35 119q21 -6 42 -6q70 0 131 74t96 250q8 50 13.5 90t5.5 73q0 92 -31.5 125.5t-80.5 33.5q-8 0 -17 -0.5t-18 -2.5l-15 108q25 3 45.5 6t39.5 3q98 0 146.5 -57t48.5 -181q0 -32 -3.5 -67.5t-10.5 -75.5h171l80 375h131l-83 -375h159q30 111 65 184t76.5 117.5 t85.5 62.5t89 18q39 0 76 -10l-30 -111q-8 1 -17 2t-18 1q-31 0 -60 -14t-54 -48t-47.5 -89.5t-43.5 -139.5q-10 -43 -16.5 -85t-6.5 -82q0 -83 27 -141.5t87 -58.5q19 0 45 9l18 -107q-28 -8 -52 -10.5t-46 -2.5q-60 0 -99 23.5t-62.5 62.5t-33 90.5t-9.5 107.5 q0 29 2.5 58.5t5.5 59.5h-161l-82 -392h-131l84 392h-162q-31 -117 -68.5 -193.5t-79 -122.5t-88 -65t-93.5 -19q-21 0 -42.5 3t-43.5 8z" />
<glyph unicode="&#x437;" horiz-adv-x="727" d="M-7 47l55 104q35 -23 87.5 -39t115.5 -16q101 0 169.5 51t68.5 140q0 52 -42 77.5t-143 25.5h-95l22 108h116q30 0 63.5 13.5t62.5 38.5t48 55.5t19 64.5q0 56 -33.5 78.5t-121.5 22.5q-63 0 -109 -14t-86 -33l-28 103q56 30 123 42.5t154 12.5q129 0 184.5 -46 t55.5 -133q0 -45 -15.5 -83.5t-43 -69t-61.5 -51t-70 -32.5v-7q75 -14 105.5 -57t30.5 -99q0 -76 -31 -135t-84.5 -100t-125.5 -62.5t-156 -21.5q-70 0 -134 17.5t-101 44.5z" />
<glyph unicode="&#x438;" horiz-adv-x="889" d="M105 167q0 62 17 137l119 566h130l-122 -579q-10 -47 -10 -87q0 -48 19 -81t69 -33q42 0 85 21.5t82 54t71 73t53 78.5l116 553h131l-109 -516q-7 -30 -14.5 -72.5t-13.5 -90t-9 -91.5t-3 -77v-23h-103v166h-7q-26 -35 -60 -68t-75 -59.5t-88 -43t-99 -16.5 q-38 0 -70.5 9t-56.5 30.5t-38 57t-14 91.5z" />
<glyph unicode="&#x439;" horiz-adv-x="889" d="M105 167q0 62 17 137l119 566h130l-122 -579q-10 -47 -10 -87q0 -48 19 -81t69 -33q42 0 85 21.5t82 54t71 73t53 78.5l116 553h131l-109 -516q-7 -30 -14.5 -72.5t-13.5 -90t-9 -91.5t-3 -77v-23h-103v166h-7q-26 -35 -60 -68t-75 -59.5t-88 -43t-99 -16.5 q-38 0 -70.5 9t-56.5 30.5t-38 57t-14 91.5zM351 1164v17l120 41q0 -81 34 -111.5t86 -30.5q54 0 102 33t77 108l94 -34q-35 -101 -117.5 -155t-179.5 -54q-44 0 -83.5 11t-69 33.5t-46.5 58t-17 83.5z" />
<glyph unicode="&#x43a;" horiz-adv-x="807" d="M61 0l185 870h130l-84 -393l72 23l324 370h156l-319 -350l-80 -57l70 -69l196 -394h-147l-197 392h-93l-83 -392h-130z" />
<glyph unicode="&#x43b;" horiz-adv-x="852" d="M-58 8l41 112q21 -5 40 -5q38 0 72 28t70.5 109.5t79 229.5t100.5 388h484l-185 -870h-131l163 759h-234q-45 -186 -85 -329t-86.5 -239.5t-102 -147t-133.5 -50.5q-30 0 -53.5 3.5t-39.5 11.5z" />
<glyph unicode="&#x43c;" horiz-adv-x="1080" d="M61 0l185 870h120l147 -390l27 -101h3l72 105l299 386h143l-185 -870h-129l110 517l44 166h-7l-89 -135l-271 -341h-46l-136 341l-26 135h-7l-23 -165l-109 -518h-122z" />
<glyph unicode="&#x43d;" horiz-adv-x="906" d="M61 0l185 870h130l-77 -362h377l76 362h130l-184 -870h-130l81 383h-375l-83 -383h-130z" />
<glyph unicode="&#x43e;" horiz-adv-x="866" d="M87 271q0 138 35.5 252.5t98.5 196t145.5 127t176.5 45.5q73 0 124.5 -24t84 -65t46 -94t13.5 -110q0 -131 -34 -244t-94 -196.5t-140 -131.5t-174 -48q-78 0 -131.5 25.5t-87.5 67t-48.5 94t-14.5 105.5zM226 303q0 -103 38.5 -158t122.5 -55q58 0 109 41.5t90 111 t62.5 159t23.5 186.5q0 89 -32 140.5t-123 51.5q-58 0 -110 -39.5t-92.5 -105t-64.5 -152t-24 -180.5z" />
<glyph unicode="&#x43f;" horiz-adv-x="908" d="M46 0l184 870h90l-6 -149h6q23 28 54.5 58t71 54.5t88 41.5t107.5 17q87 0 137.5 -42t50.5 -147q0 -52 -16 -125l-124 -578h-130l117 550q7 31 12.5 62t5.5 54q0 51 -24 82.5t-88 31.5q-45 0 -88.5 -21t-82 -53t-69 -71.5t-51.5 -77.5l-115 -557h-130z" />
<glyph unicode="&#x440;" horiz-adv-x="884" d="M-8 -348l259 1218h90l-9 -149h7q25 31 55.5 61.5t67 55t80 39.5t94.5 15q41 0 78 -13.5t64.5 -44t44 -81t16.5 -123.5q0 -153 -41.5 -274t-109.5 -204.5t-153 -128t-168 -44.5q-61 0 -107 11.5t-62 23.5l-76 -362h-130zM224 131q30 -23 61.5 -32t68.5 -9q68 0 129.5 38 t110.5 107t77.5 167t28.5 218q0 69 -28.5 114.5t-85.5 45.5q-46 0 -88.5 -24.5t-78.5 -60t-64 -76.5t-45 -76z" />
<glyph unicode="&#x441;" horiz-adv-x="731" d="M87 258q0 147 40 265t107 199.5t154 125.5t180 44q66 0 108.5 -12.5t77.5 -28.5l-49 -108q-30 17 -73.5 27t-93.5 10q-59 0 -115.5 -40t-100 -105t-70 -150t-26.5 -173q0 -113 47 -167.5t127 -54.5q52 0 110 24t93 48l33 -87q-27 -23 -61 -40.5t-69.5 -29.5t-70.5 -19 t-66 -7q-85 0 -140 27t-86.5 68.5t-43.5 90.5t-12 93z" />
<glyph unicode="&#x442;" horiz-adv-x="1327" d="M63 0l184 870h92l-10 -149h7q28 28 60 58t71.5 54.5t85.5 41.5t101 17q79 0 106 -49t27 -137q26 34 60.5 67t76 59t86.5 43t90 17q80 0 123 -37.5t43 -138.5q0 -73 -27 -194l-109 -522h-130l109 524q10 50 16 90t6 70q0 47 -19 71.5t-64 24.5q-36 0 -77 -23.5 t-79.5 -58.5t-69 -75t-48.5 -75l-113 -548h-130l105 493q13 61 20 108t7 82q0 46 -17.5 71.5t-59.5 25.5q-43 0 -84.5 -23t-78 -57t-67 -72t-48.5 -70l-115 -558h-130z" />
<glyph unicode="&#x443;" horiz-adv-x="764" d="M-35 -341l42 120q19 -7 41 -7q51 0 102 52.5t113 175.5l-150 870h139l85 -564l10 -167h8l67 169l289 562h138l-410 -776q-45 -85 -90 -166t-91.5 -144.5t-97 -102t-104.5 -38.5q-30 0 -51.5 3.5t-39.5 12.5z" />
<glyph unicode="&#x444;" horiz-adv-x="1184" d="M76 258q0 147 38.5 264t105 198t153.5 122.5t185 41.5q46 0 80 -7l71 342h125l-73 -343q31 5 54.5 6.5t46.5 1.5q136 0 206 -75.5t70 -197.5q0 -164 -42.5 -283t-110.5 -196.5t-153 -115t-171 -37.5q-15 0 -44 3t-44 10l-71 -340h-126l73 341q-25 -7 -43.5 -10.5 t-43.5 -3.5q-143 0 -214.5 77.5t-71.5 201.5zM216 286q0 -87 43.5 -141.5t128.5 -54.5q20 0 40.5 4t44.5 7l142 663q-20 4 -37.5 6.5t-41.5 2.5q-52 0 -108.5 -32t-103.5 -95t-77.5 -153.5t-30.5 -206.5zM593 98q17 -4 36 -6t37 -2q56 0 115.5 31.5t107.5 94.5t79.5 157.5 t31.5 223.5q-1 176 -189 176q-21 0 -36.5 -2.5t-40.5 -8.5z" />
<glyph unicode="&#x445;" horiz-adv-x="842" d="M-38 0l392 445l-187 425h148l103 -240l31 -99l71 99l211 240h159l-370 -418l208 -452h-148l-118 264l-35 105l-73 -105l-234 -264h-158z" />
<glyph unicode="&#x446;" horiz-adv-x="922" d="M105 167q0 62 17 137l119 566h130l-122 -579q-10 -47 -10 -87q0 -48 19 -81t69 -33q42 0 85 21.5t82 54t71 73t53 78.5l116 553h131q-35 -164 -59 -276t-39.5 -187t-25.5 -118t-14.5 -67t-5 -34t-0.5 -21q0 -56 47 -56h96l-91 -332h-105l58 221h-5q-61 0 -90.5 30 t-29.5 85q0 24 5 51h-7q-24 -33 -57.5 -66.5t-73.5 -60.5t-86 -43.5t-98 -16.5q-38 0 -70.5 9t-56.5 30.5t-38 57t-14 91.5z" />
<glyph unicode="&#x447;" horiz-adv-x="817" d="M120 496q-5 63 70 374h132l-51 -237q-12 -61 -12 -103q0 -51 23.5 -81.5t88.5 -30.5q76 0 126.5 22t80.5 42l83 388h133l-185 -870h-132l76 366q-29 -18 -85 -39t-139 -21q-47 0 -85 10t-65.5 31.5t-43 58t-15.5 90.5z" />
<glyph unicode="&#x448;" horiz-adv-x="1294" d="M103 153q0 75 26 195l110 522h130l-110 -523q-21 -95 -20 -156q0 -101 67 -101q42 0 83 23t77 58t63.5 75.5t45.5 75.5l114 548h131l-103 -493q-11 -57 -19.5 -104t-8.5 -82q0 -48 17.5 -74.5t57.5 -26.5q30 0 67.5 22t74 55.5t68.5 71.5t49 73l117 558h131l-129 -607 q-14 -67 -21.5 -134.5t-11.5 -128.5h-99l-5 148h-7q-58 -73 -130 -121t-172 -48q-64 0 -98 48t-34 129v6q-26 -35 -58.5 -67t-70.5 -58.5t-81.5 -42t-90.5 -15.5q-79 0 -119.5 36.5t-40.5 137.5z" />
<glyph unicode="&#x449;" horiz-adv-x="1329" d="M103 153q0 75 26 195l110 522h130l-110 -523q-8 -45 -14 -84t-6 -68q0 -51 16 -78t51 -27q42 0 83 23t77 58t63.5 75.5t45.5 75.5l114 548h131l-103 -493q-11 -57 -19.5 -104t-8.5 -82q0 -48 17.5 -74.5t57.5 -26.5q30 0 67.5 22t74 55.5t68.5 71.5t49 73l117 558h131 q-32 -146 -52.5 -247t-34.5 -167t-21 -101.5t-11 -54t-6 -25t-2 -9.5q-3 -21 -8.5 -48t-5.5 -51q0 -56 46 -56h95l-89 -332h-106l59 221h-5q-63 0 -91.5 30t-28.5 83q0 23 5 53h-7q-59 -87 -135.5 -137t-176.5 -50q-64 0 -98 48t-34 129v6q-26 -35 -58.5 -67t-70.5 -58.5 t-81.5 -42t-90.5 -15.5q-79 0 -119.5 36.5t-40.5 137.5z" />
<glyph unicode="&#x44a;" horiz-adv-x="826" d="M90 751l25 119h330l-93 -352q42 14 90.5 23t98.5 9q102 0 165 -46t63 -145q0 -82 -33 -150t-92 -117t-138 -75.5t-170 -26.5q-100 0 -143 45t-43 116q0 17 1.5 36t6.5 37l131 527h-199zM284 181q0 -80 90 -80q54 0 101 17.5t82 48.5t54 72t19 88q0 50 -27 82.5t-105 32.5 q-17 0 -40 -2.5t-46.5 -7t-46 -11.5t-38.5 -17l-36 -169q-7 -28 -7 -54z" />
<glyph unicode="&#x44b;" horiz-adv-x="1111" d="M105 138q0 33 6 60l152 672h131l-82 -342q30 8 78.5 15t88.5 7q127 0 179.5 -51.5t52.5 -134.5q0 -90 -37.5 -160t-98 -118t-135 -72t-151.5 -24q-96 0 -140 40t-44 108zM239 174q0 -33 18 -53t60 -20q52 0 98.5 16.5t81 47t54.5 72.5t20 92q0 53 -29.5 83t-116.5 30 q-71 0 -138 -28l-45 -210q-1 -8 -2 -15.5t-1 -14.5zM773 0l184 870h131l-184 -870h-131z" />
<glyph unicode="&#x44c;" horiz-adv-x="779" d="M105 156q0 25 5 51l154 663h131l-81 -342q3 0 4 1t4 1q35 8 73.5 14t84.5 6q77 0 124 -16t73 -41.5t35.5 -60.5t9.5 -72q0 -92 -34 -160.5t-90.5 -115.5t-129.5 -70.5t-151 -23.5q-61 0 -101 13.5t-65.5 37.5t-35.5 54t-10 61zM239 188q0 -40 25 -63.5t81 -23.5 q49 0 91.5 16.5t75.5 46t52 71.5t19 94q0 61 -32.5 87t-115.5 26q-45 0 -80 -9.5t-66 -20.5l-45 -182q-5 -25 -5 -42z" />
<glyph unicode="&#x44d;" horiz-adv-x="765" d="M-15 33l57 106q33 -23 87.5 -36t109.5 -13q120 0 200.5 75.5t113.5 221.5h-360l23 106h347q3 17 5 35.5t2 39.5q0 109 -44 160.5t-124 51.5t-133 -18.5t-88 -39.5l-35 91q60 38 130.5 58.5t157.5 20.5q71 0 122.5 -21.5t85.5 -59t50.5 -87.5t16.5 -109q0 -178 -40.5 -300 t-106.5 -196t-150.5 -107t-170.5 -33q-176 0 -256 54z" />
<glyph unicode="&#x44e;" horiz-adv-x="1183" d="M61 0l185 870h130l-77 -367h163q24 89 63 160t91 122t115 79t136 28q75 0 124.5 -24t80 -65t43.5 -94t13 -110q0 -131 -34 -244t-93 -196.5t-138 -131.5t-169 -48q-78 0 -128.5 25.5t-80 67t-40.5 94t-11 105.5q0 32 2.5 61.5t5.5 59.5h-168l-83 -392h-130zM564 303 q0 -103 31 -158t116 -55q53 0 103.5 41.5t89 111t62 159t23.5 186.5q0 89 -28.5 140.5t-118.5 51.5q-57 0 -107.5 -39.5t-88.5 -105t-60 -152t-22 -180.5z" />
<glyph unicode="&#x44f;" horiz-adv-x="810" d="M-28 0l254 298l86 64q-70 12 -117 58.5t-47 129.5q0 80 33 143.5t89 107t129.5 67.5t155.5 24q35 0 70 -5t66 -11t55.5 -13.5t40.5 -13.5l-178 -849h-130l76 359l-133 -22l-281 -337h-169zM287 566q0 -127 181 -127h6.5h15t29.5 0.5t54 2.5l70 315q-9 9 -38.5 16t-80.5 7 q-105 0 -171 -58.5t-66 -155.5z" />
<glyph unicode="&#x451;" horiz-adv-x="805" d="M87 282q0 143 40 256t105.5 191.5t148 120.5t169.5 42q63 0 109 -17.5t75.5 -46.5t43.5 -66.5t14 -78.5q0 -124 -120 -194.5t-350 -70.5q-21 0 -43.5 1t-47.5 3q-7 -34 -10 -63.5t-3 -52.5q0 -96 43 -156t136 -60q76 0 140 25.5t99 53.5l41 -84q-61 -52 -144 -79 t-166 -27q-139 0 -209.5 80t-70.5 223zM256 518q66 0 137.5 3.5t129.5 18.5t96.5 47.5t38.5 89.5q0 17 -6 35.5t-20 33.5t-39 24.5t-63 9.5q-96 0 -167 -65.5t-107 -196.5zM348 1103q0 39 21.5 64.5t58.5 25.5q36 0 59 -25.5t23 -64.5q0 -34 -23 -59.5t-59 -25.5 q-37 0 -58.5 25.5t-21.5 59.5zM667 1105q0 37 21.5 62.5t58.5 25.5q38 0 59.5 -25.5t21.5 -62.5q0 -36 -21.5 -61.5t-59.5 -25.5q-37 0 -58.5 25.5t-21.5 61.5z" />
<glyph unicode="&#x452;" horiz-adv-x="855" d="M66 0l198 940h-131l22 105h131l38 174h131l-39 -174h267l-22 -105h-267l-63 -292h6q27 26 59 53t71.5 49.5t86.5 36.5t102 14q87 0 129 -42.5t42 -142.5q0 -19 -8 -71t-22.5 -133t-36.5 -185.5t-48 -226.5q-29 -184 -102.5 -276.5t-198.5 -92.5q-12 0 -24.5 1t-24.5 2 l26 122q47 0 77.5 14t51.5 44.5t36 76.5t28 109l87 407q10 50 16.5 91.5t6.5 74.5q0 56 -21.5 86t-77.5 30q-42 0 -87 -20.5t-87 -54t-76 -75t-51 -83.5l-95 -456h-130z" />
<glyph unicode="&#x453;" horiz-adv-x="714" d="M47 209q0 83 36.5 135.5t92 87.5t120 57.5t120.5 45.5t92.5 54t36.5 81q0 56 -30.5 78.5t-105.5 22.5q-66 0 -114 -15t-86 -34l-26 103q56 30 122 43.5t139 13.5q69 0 115.5 -15.5t74 -41.5t39 -61t11.5 -73q0 -83 -36.5 -134.5t-92 -84t-120 -53t-120.5 -45t-92.5 -58.5 t-36.5 -92q0 -61 39 -97.5t104 -36.5t127 23t97 47l35 -85q-53 -45 -129 -70.5t-139 -25.5q-85 0 -138 23.5t-83.5 58.5t-41 75t-10.5 73zM415 994l153 260h146l-8 -37l-215 -223h-76z" />
<glyph unicode="&#x454;" horiz-adv-x="754" d="M87 287q0 153 43.5 267t114 189.5t160.5 112t183 36.5q78 0 119.5 -13.5t70.5 -27.5l-49 -100q-36 15 -68.5 22t-82.5 7q-113 0 -200 -75t-127 -202h393l-24 -111h-390q-4 -17 -4 -34v-34q0 -47 10 -90t34 -74t65.5 -50.5t108.5 -19.5q61 0 115 24t89 48l31 -87 q-63 -50 -139.5 -73t-152.5 -23q-72 0 -127.5 23.5t-93.5 65.5t-58.5 97.5t-20.5 121.5z" />
<glyph unicode="&#x455;" horiz-adv-x="692" d="M5 35l49 109q34 -22 91 -38t118 -16q85 0 136 38t51 118q0 45 -22.5 76.5t-57 56.5t-74.5 49t-75 54.5t-57.5 71.5t-22.5 102q0 49 23.5 91.5t64 75t97.5 51t123 18.5q92 0 143 -12.5t91 -35.5l-44 -104q-69 39 -190 40q-73 0 -121 -30.5t-48 -93.5q0 -36 23 -63 t57.5 -51.5t74.5 -49.5t75 -57.5t57.5 -76t22.5 -102.5q0 -136 -91.5 -206.5t-244.5 -70.5q-78 0 -143.5 15.5t-105.5 40.5z" />
<glyph unicode="&#x456;" horiz-adv-x="450" d="M94 0l185 870h130l-185 -870h-130zM306 1136q0 40 27 68t67 28t68 -28t28 -68t-28 -66.5t-68 -26.5t-67 26.5t-27 66.5z" />
<glyph unicode="&#x457;" horiz-adv-x="453" d="M70 0l184 870h131l-184 -870h-131zM193 1136q0 37 21 61.5t57 24.5q37 0 58 -24.5t21 -61.5q0 -36 -21 -60.5t-58 -24.5q-36 0 -57 24.5t-21 60.5zM400 1136q0 37 21 61.5t58 24.5q36 0 57 -24.5t21 -61.5q0 -36 -21 -60.5t-57 -24.5q-37 0 -58 24.5t-21 60.5z" />
<glyph unicode="&#x458;" horiz-adv-x="432" d="M-167 -359l26 113q52 0 86 15t57.5 46.5t40.5 78t30 111.5l185 865h130l-195 -917q-35 -161 -108 -238t-198 -77q-14 0 -27 1t-27 2zM286 1136q0 40 26.5 68t66.5 28t68 -28t28 -68t-27.5 -66.5t-68.5 -26.5q-40 0 -66.5 26.5t-26.5 66.5z" />
<glyph unicode="&#x459;" horiz-adv-x="1209" d="M-58 8l41 112q21 -5 40 -5q38 0 72 28t70.5 109.5t79 229.5t100.5 388h475l-75 -342q35 8 76 15t91 7q77 0 124 -16t73 -41.5t35 -60.5t9 -72q0 -92 -34 -160.5t-90.5 -115.5t-130 -70.5t-151.5 -23.5q-61 0 -101 13.5t-65.5 37.5t-35.5 54t-10 61q0 27 5 51l125 552 h-223q-45 -186 -85 -329t-86.5 -239.5t-102 -147t-133.5 -50.5q-30 0 -53.5 3.5t-39.5 11.5zM670 188q0 -40 25.5 -63.5t80.5 -23.5q48 0 91 16.5t75.5 47t51.5 73t19 94.5q0 62 -31.5 86t-114.5 24q-45 0 -80 -10t-66 -20q-20 -75 -29 -115.5t-14.5 -61.5t-6.5 -30t-1 -17z " />
<glyph unicode="&#x45a;" horiz-adv-x="1264" d="M61 0l185 870h130l-78 -367h360l78 367h131l-73 -345q33 9 79 17t93 8q77 0 124.5 -16t74 -41.5t35 -60.5t8.5 -72q0 -92 -34 -160.5t-90.5 -115.5t-129.5 -70.5t-152 -23.5q-61 0 -101 13.5t-65 37.5t-35.5 54t-10.5 61q0 27 5 53l41 183h-361l-84 -392h-130zM724 188 q0 -40 25 -63.5t81 -23.5q49 0 92 16.5t75.5 47t51.5 73t19 94.5q0 62 -31.5 86t-115.5 24q-45 0 -80 -9.5t-67 -20.5l-45 -182q-5 -25 -5 -42z" />
<glyph unicode="&#x45b;" horiz-adv-x="852" d="M66 0l198 940h-131l22 105h131l38 174h131l-39 -174h267l-22 -105h-266l-59 -277h7q56 54 130 96t183 42q78 0 123 -40t45 -150q0 -71 -22 -176l-91 -435h-131l86 409q11 50 17 92t6 75q0 56 -21.5 84.5t-75.5 28.5q-51 0 -97 -20t-85 -52t-69.5 -71t-48.5 -76l-96 -470 h-130z" />
<glyph unicode="&#x45c;" horiz-adv-x="807" d="M61 0l185 870h130l-84 -393l72 23l324 370h156l-319 -350l-80 -57l70 -69l196 -394h-147l-197 392h-93l-83 -392h-130zM472 994l153 260h146l-8 -37l-215 -223h-76z" />
<glyph unicode="&#x45e;" horiz-adv-x="764" d="M-35 -341l42 120q19 -7 41 -7q51 0 102 52.5t113 175.5l-150 870h139l85 -564l10 -167h8l67 169l289 562h138l-410 -776q-45 -85 -90 -166t-91.5 -144.5t-97 -102t-104.5 -38.5q-30 0 -51.5 3.5t-39.5 12.5zM307 1164v17l120 41q0 -81 34 -111.5t86 -30.5q54 0 102 33 t77 108l94 -34q-35 -101 -117.5 -155t-179.5 -54q-44 0 -83.5 11t-69 33.5t-46.5 58t-17 83.5z" />
<glyph unicode="&#x45f;" horiz-adv-x="889" d="M105 167q0 62 17 137l119 566h130l-122 -579q-10 -47 -10 -87q0 -48 19 -81t69 -33q42 0 85 21.5t82 54t71 73t53 78.5l116 553h131l-109 -516q-7 -30 -14.5 -72.5t-13.5 -90t-9 -91.5t-3 -77v-23h-103v166h-7q-26 -35 -60 -68t-75 -59.5t-88 -43t-99 -16.5 q-38 0 -70.5 9t-56.5 30.5t-38 57t-14 91.5zM279 -348l71 280h108l-42 -280h-137z" />
<glyph unicode="&#x462;" horiz-adv-x="1028" d="M138 957l26 123h243l38 175h140l-38 -175h345l-27 -123h-343l-45 -214q8 2 26.5 5t40.5 4.5t46.5 3t42.5 1.5q77 0 144 -18t116 -56.5t77 -98t28 -140.5q0 -113 -40.5 -199.5t-112 -144t-171 -86t-219.5 -28.5q-25 0 -59 1t-72 3.5t-75.5 7.5t-67.5 14l201 945h-244z M345 122q23 -6 62.5 -8.5t79.5 -2.5q70 0 136 18.5t116.5 57.5t81 99.5t30.5 143.5q0 110 -71 156t-185 46q-14 0 -35.5 -1t-43 -3.5t-40 -5t-27.5 -4.5z" />
<glyph unicode="&#x463;" horiz-adv-x="1171" d="M63 0l184 870h90l-8 -136h7q17 27 41.5 53.5t56 50.5t71.5 39t87 15q71 0 108.5 -36t37.5 -123q0 -65 -21 -155l-12 -50q35 8 76 15t91 7q77 0 124 -16t73 -41.5t35.5 -60.5t9.5 -72q0 -92 -34 -160.5t-91 -115.5t-130.5 -70.5t-152.5 -23.5q-61 0 -100.5 13.5t-65 37.5 t-35.5 54t-10 61q0 27 5 51l81 343q11 45 17 81.5t6 62.5q0 85 -69 86q-30 0 -61.5 -21t-61.5 -53t-56.5 -71.5t-47.5 -77.5l-115 -557h-130zM630 188q0 -40 25.5 -63.5t80.5 -23.5q49 0 91.5 16.5t76 47t52.5 73t19 94.5q0 62 -32.5 86t-115.5 24q-45 0 -80 -9.5t-66 -20.5 l-45 -182q-5 -25 -6 -42z" />
<glyph unicode="&#x472;" horiz-adv-x="1133" d="M125 445q0 160 43 305t122 254t192 172t252 63q84 0 156.5 -25t124.5 -79.5t81.5 -142t29.5 -212.5q0 -164 -41.5 -309t-119.5 -255t-184.5 -173.5t-237.5 -63.5q-206 0 -312 119.5t-106 346.5zM271 447q0 -164 71.5 -253t204.5 -89q76 0 142.5 34t118.5 93.5t90.5 142.5 t58.5 180h-680q-6 -56 -6 -108zM298 681h677q5 47 5 95q0 101 -24 167.5t-62.5 104t-86.5 52t-96 14.5q-77 0 -143 -33t-118.5 -90.5t-91.5 -137t-60 -172.5z" />
<glyph unicode="&#x473;" horiz-adv-x="866" d="M87 271q0 138 35.5 252.5t98.5 196t145.5 127t176.5 45.5q73 0 124.5 -24t84 -65t46 -94t13.5 -110q0 -131 -34 -244t-94 -196.5t-140 -131.5t-174 -48q-78 0 -131.5 25.5t-87.5 67t-48.5 94t-14.5 105.5zM226 303q0 -103 38.5 -158t122.5 -55q41 0 79.5 22t71.5 61 t60 92.5t45 116.5h-413q-2 -20 -3 -40t-1 -39zM251 485h414q3 25 5 51.5t2 51.5q0 89 -32.5 140.5t-122.5 51.5q-44 0 -83.5 -23t-75.5 -62t-63 -93t-44 -117z" />
<glyph unicode="&#x474;" horiz-adv-x="986" d="M181 1219h143l116 -836v-185h4l68 187l221 445q61 125 109 204t91.5 122t87.5 59t100 16q54 0 89.5 -11.5t60.5 -26.5l-67 -122q-48 31 -99 31q-48 0 -91.5 -45t-99.5 -152l-480 -925h-65z" />
<glyph unicode="&#x475;" horiz-adv-x="829" d="M105 870h139l90 -510l11 -165h3l75 169q47 78 77 128.5t49 84.5t31.5 55t23.5 38q65 101 125 156.5t140 55.5q29 0 52.5 -3t43.5 -12l-44 -116q-12 3 -24.5 6.5t-26.5 3.5q-29 0 -65.5 -28t-88.5 -113l-387 -640h-55z" />
<glyph unicode="&#x48a;" horiz-adv-x="1141" d="M70 0l259 1219h139l-176 -829l-43 -132h7l103 142l726 819h88l-231 -1097h171l-10 -39l-216 -307h-88l123 224h-146l173 814l41 141h-5l-103 -146l-724 -809h-88zM540 1480l118 35q0 -65 32 -100t90 -35q73 0 120 36t66 97l127 -30q-31 -94 -113 -149t-207 -55 q-119 0 -174.5 58.5t-58.5 142.5z" />
<glyph unicode="&#x48b;" horiz-adv-x="930" d="M105 167q0 62 17 137l119 566h130l-122 -579q-10 -47 -10 -87q0 -48 19 -81t69 -33q42 0 85 21.5t82 54t71 73t53 78.5l116 553h131l-109 -516q-9 -40 -19.5 -105.5t-15.5 -126.5h174l-9 -39l-216 -307h-89l124 224h-92v166h-7q-26 -35 -60 -68t-75 -59.5t-88 -43 t-99 -16.5q-38 0 -70.5 9t-56.5 30.5t-38 57t-14 91.5zM336 1164v17l120 41q0 -81 34 -111.5t86 -30.5q54 0 102 33t78 108l93 -34q-35 -101 -117.5 -155t-179.5 -54q-44 0 -83 11t-68.5 33.5t-47 58t-17.5 83.5z" />
<glyph unicode="&#x48c;" horiz-adv-x="1028" d="M138 957l26 123h243l38 175h140l-38 -175h345l-27 -123h-343l-45 -214q8 2 26.5 5t40.5 4.5t46.5 3t42.5 1.5q77 0 144 -18t116 -56.5t77 -98t28 -140.5q0 -113 -40.5 -199.5t-112 -144t-171 -86t-219.5 -28.5q-25 0 -59 1t-72 3.5t-75.5 7.5t-67.5 14l201 945h-244z M345 122q23 -6 62.5 -8.5t79.5 -2.5q70 0 136 18.5t116.5 57.5t81 99.5t30.5 143.5q0 110 -71 156t-185 46q-14 0 -35.5 -1t-43 -3.5t-40 -5t-27.5 -4.5z" />
<glyph unicode="&#x48d;" horiz-adv-x="779" d="M105 156q0 25 5 51l129 555h-124l26 108h123l83 349h130l-83 -349h323l-24 -108h-324l-55 -234q36 8 76 15t90 7q77 0 124 -16t73 -41.5t35.5 -60.5t9.5 -72q0 -92 -34 -160.5t-90.5 -115.5t-129.5 -70.5t-151 -23.5q-61 0 -101 13.5t-65.5 37.5t-35.5 54t-10 61z M239 188q0 -40 25 -63.5t81 -23.5q49 0 91.5 16.5t75.5 47t52 73t19 94.5q0 62 -32.5 86t-115.5 24q-45 0 -80 -9.5t-66 -20.5l-45 -182q-5 -25 -5 -42z" />
<glyph unicode="&#x48e;" horiz-adv-x="925" d="M70 0l256 1206q66 15 139 20.5t144 5.5q80 0 149 -17t119.5 -55.5t79 -98.5t28.5 -144q0 -83 -20 -149.5t-55.5 -116.5t-83.5 -86.5t-104 -59.5l80 -164l-91 -47l-88 181q-45 -10 -91.5 -14.5t-91.5 -4.5h-26.5t-39 1t-40 3t-28.5 3l-97 -463h-139zM334 590 q7 -4 23.5 -4.5t35 -2.5t35.5 -2h27q64 0 121 11l-78 167l80 40l83 -181q79 33 128.5 102t49.5 184q0 62 -21 102t-56.5 62t-82.5 31t-99 9q-40 0 -77.5 -3t-62.5 -9z" />
<glyph unicode="&#x48f;" horiz-adv-x="884" d="M-8 -348l259 1218h90l-9 -149h7q25 31 55.5 61.5t67 55t80 39.5t94.5 15q41 0 78 -13.5t64.5 -44t44 -81t16.5 -123.5q0 -198 -68 -340t-167 -222l68 -111l-84 -67l-73 122q-76 -33 -148 -33q-61 0 -107 11.5t-62 23.5l-76 -362h-130zM224 131q30 -23 61.5 -32t68.5 -9 q56 0 108 26l-67 110l77 54l66 -111q71 66 116.5 182t45.5 269q0 69 -28.5 114.5t-85.5 45.5q-46 0 -88.5 -24.5t-78.5 -60t-64 -76.5t-45 -76z" />
<glyph unicode="&#x490;" horiz-adv-x="731" d="M70 0l259 1219h498l75 233h93l-48 -233l-26 -129h-482l-230 -1090h-139z" />
<glyph unicode="&#x491;" horiz-adv-x="659" d="M61 0l185 870h362l75 233h93l-48 -233l-25 -111h-351l-161 -759h-130z" />
<glyph unicode="&#x492;" horiz-adv-x="799" d="M63 555l25 115h159l117 549h618l-27 -129h-482l-88 -420h355l-24 -115h-356l-116 -555h-139l118 555h-160z" />
<glyph unicode="&#x493;" horiz-adv-x="692" d="M45 382l23 103h123l83 385h480l-25 -111h-347l-60 -274h304l-22 -103h-303l-80 -382h-133l81 382h-124z" />
<glyph unicode="&#x494;" horiz-adv-x="955" d="M70 0l259 1219h618l-26 -129h-482l-100 -472q25 8 80.5 22t148.5 14q141 0 224.5 -75.5t83.5 -241.5q0 -111 -31 -211.5t-92.5 -178.5t-155.5 -124t-220 -46q-56 0 -83.5 1t-41.5 4l28 130q20 -4 47 -5t73 -1q85 0 147 35.5t103 94t60 135t19 158.5q0 106 -54.5 153.5 t-159.5 47.5q-30 0 -60 -4t-58 -10t-50.5 -13t-34.5 -12l-103 -491h-139z" />
<glyph unicode="&#x495;" horiz-adv-x="807" d="M63 0l184 870h481l-25 -111h-349l-68 -320q21 5 75.5 20.5t153.5 15.5q115 0 179.5 -60t64.5 -171q0 -162 -38 -277t-104.5 -188t-154.5 -107t-187 -34q-50 0 -75.5 3.5t-37.5 6.5l26 108q19 -3 44.5 -5t75.5 -2q58 0 113.5 27.5t100 83t71.5 142t27 205.5 q0 82 -42 119.5t-108 37.5q-83 0 -137 -14t-74 -23l-66 -327h-130z" />
<glyph unicode="&#x496;" horiz-adv-x="1355" d="M-76 0l478 545l93 66l-60 61l-231 547h153l219 -547h84l116 547h131l-120 -568l64 25l448 543h168l-445 -530l-82 -56l70 -70l191 -434h122l-75 -353h-95l22 224h-67l-253 564h-87l-119 -564h-131l125 585l-65 -22l-480 -563h-174z" />
<glyph unicode="&#x497;" horiz-adv-x="1228" d="M-25 3l35 119q21 -6 42 -6q70 0 131 74t96 250q8 50 13.5 90t5.5 73q0 92 -31.5 126.5t-80.5 34.5q-8 0 -17 -1.5t-18 -3.5l-15 108q25 3 45.5 6t39.5 3q98 0 146.5 -57t48.5 -181q0 -32 -3.5 -67.5t-10.5 -75.5h171l80 375h131l-83 -375h159q30 111 65 184t76.5 117.5 t85.5 62.5t89 18q39 0 76 -10l-30 -111q-8 1 -17 2t-18 1q-31 0 -60 -14t-54 -48t-47.5 -89.5t-43.5 -139.5q-10 -43 -16.5 -85t-6.5 -82q0 -83 27 -141.5t87 -58.5q21 0 41 7l45 -32l-78 -297h-104l53 211q-58 2 -95 25t-59.5 62t-32 90t-9.5 107q0 29 2.5 58.5t5.5 59.5 h-161l-82 -392h-131l84 392h-162q-31 -117 -68.5 -193.5t-79 -122.5t-88 -65t-93.5 -19q-21 0 -42.5 3t-43.5 8z" />
<glyph unicode="&#x498;" horiz-adv-x="895" d="M10 25l63 126q35 -19 99.5 -32.5t161.5 -13.5q60 0 120.5 14.5t109.5 48t79.5 86t30.5 129.5q0 52 -18 87t-49.5 57.5t-71.5 33t-83 14.5q-19 1 -38 1h-38h-90l26 120h24q31 0 77.5 2.5t73.5 6.5q47 5 96 21.5t88.5 46t64.5 73.5t25 103q0 78 -56 121.5t-152 43.5 q-88 0 -147 -14.5t-108 -32.5l-14 114q40 19 120.5 38.5t187.5 19.5q66 0 123.5 -16.5t100 -47.5t67 -78t24.5 -110q0 -75 -23.5 -132.5t-62.5 -99t-91.5 -67t-109.5 -34.5v-6q36 -9 72 -27t64.5 -49.5t46 -78t17.5 -110.5q0 -106 -41 -180.5t-106 -123t-148 -71.5t-166 -29 l-55 -291h-128l71 291q-85 3 -143.5 15.5t-93.5 30.5z" />
<glyph unicode="&#x499;" horiz-adv-x="727" d="M-7 47l55 104q35 -23 87.5 -38t115.5 -15q101 0 169.5 50t68.5 139q0 52 -42 77.5t-143 25.5h-95l22 108h116q30 0 63.5 13.5t62.5 38.5t48 55.5t19 64.5q0 56 -33.5 78.5t-121.5 22.5q-63 0 -109 -14t-86 -33l-28 103q56 30 123 42.5t154 12.5q129 0 184.5 -46 t55.5 -133q0 -45 -15.5 -83.5t-43 -69t-61.5 -51t-70 -32.5v-7q75 -14 105.5 -57t30.5 -99q0 -68 -24.5 -121.5t-68 -94.5t-103.5 -66t-130 -32l-55 -302h-129l73 298q-60 6 -111.5 21.5t-83.5 39.5z" />
<glyph unicode="&#x49a;" horiz-adv-x="1014" d="M70 0l257 1219h140l-122 -568l69 25l500 543h172l-498 -530l-80 -53l68 -70l235 -437h149l-74 -353h-96l24 224h-92l-306 564h-89l-118 -564h-139z" />
<glyph unicode="&#x49b;" horiz-adv-x="809" d="M61 0l185 870h130l-84 -393l72 23l324 370h156l-319 -350l-80 -57l70 -69l139 -283h138l-91 -332h-106l59 221h-90l-197 392h-93l-83 -392h-130z" />
<glyph unicode="&#x49c;" horiz-adv-x="1127" d="M70 0l259 1219h138l-122 -568l85 9l47 219h109l-45 -207l32 4l468 543h170l-466 -526l-82 -57l68 -68l274 -568h-156l-266 564h-65l-46 -225h-110l47 225h-82l-118 -564h-139z" />
<glyph unicode="&#x49d;" horiz-adv-x="923" d="M61 0l185 870h130l-84 -393l84 8l47 215h105l-44 -204l41 6l289 368h146l-272 -350l-95 -57l70 -69l146 -394h-143l-144 392h-60l-48 -221h-104l47 221h-83l-83 -392h-130z" />
<glyph unicode="&#x49e;" horiz-adv-x="1101" d="M139 989l27 119h226l24 111h139l-22 -111h200l-24 -116h-202l-70 -341l71 25l497 543h170l-492 -530l-86 -53l69 -70l302 -566h-157l-303 564h-92l-118 -564h-140l208 989h-227z" />
<glyph unicode="&#x49f;" horiz-adv-x="781" d="M63 0l203 963h-135l22 104h134l33 152h130l-32 -152h263l-21 -104h-265l-103 -486l75 19l314 374h160l-310 -353l-82 -57l66 -68l196 -392h-145l-197 392h-94l-82 -392h-130z" />
<glyph unicode="&#x4a0;" horiz-adv-x="1136" d="M160 1090l28 129h402l-120 -568l66 25l502 543h172l-494 -528l-84 -55l68 -68l305 -568h-158l-306 564h-91l-118 -564h-139l230 1090h-263z" />
<glyph unicode="&#x4a1;" horiz-adv-x="844" d="M85 759l23 111h314l-85 -393l65 25l343 368h157l-329 -350l-82 -57l69 -69l194 -394h-148l-194 392h-93l-82 -392h-131l162 759h-183z" />
<glyph unicode="&#x4a2;" horiz-adv-x="1162" d="M70 0l257 1219h140l-112 -531h552l111 531h140l-230 -1090h153l-75 -353h-94l21 224h-33h-139l118 558h-553l-117 -558h-139z" />
<glyph unicode="&#x4a3;" horiz-adv-x="910" d="M63 0l184 870h130l-76 -362h376l77 362h130l-162 -759h124l-90 -332h-107l60 221h-9h-130l81 383h-376l-82 -383h-130z" />
<glyph unicode="&#x4a4;" horiz-adv-x="1422" d="M70 0l257 1219h140l-112 -531h552l111 531h620l-26 -129h-482l-230 -1090h-139l118 558h-553l-117 -558h-139z" />
<glyph unicode="&#x4a5;" horiz-adv-x="1164" d="M63 0l184 870h130l-76 -362h375l76 362h480l-24 -118h-351l-159 -752h-130l80 383h-373l-82 -383h-130z" />
<glyph unicode="&#x4a6;" horiz-adv-x="1615" d="M70 0l259 1219h807l-126 -601q19 7 80 21.5t151 14.5q138 0 221.5 -74.5t83.5 -231.5q0 -121 -31.5 -226t-94.5 -181.5t-156 -120t-216 -43.5q-56 0 -84.5 1t-39.5 4l28 130q20 -4 45.5 -5t76.5 -1q87 0 148.5 35.5t101 95t58 136t18.5 158.5q0 111 -58 155t-153 44 q-30 0 -62 -5t-60.5 -11t-50.5 -12t-33 -11l-104 -491h-139l230 1090h-533l-228 -1090h-139z" />
<glyph unicode="&#x4a7;" horiz-adv-x="1329" d="M63 0l184 870h90l-6 -149h6q23 28 54.5 58t71 54.5t88 41.5t107.5 17q87 0 136.5 -42t49.5 -147q0 -26 -2.5 -57t-11.5 -68l-28 -139q22 6 70.5 21t117.5 15q148 0 216 -64t68 -190q0 -153 -38 -262t-103 -178.5t-149 -102.5t-175 -33q-40 0 -71.5 4t-44.5 8l26 112 q38 -12 118 -13q60 0 114 28t94.5 81t65 129.5t24.5 174.5q0 56 -8.5 93t-30.5 60t-58.5 32.5t-90.5 9.5t-102 -16t-69 -22l-70 -326h-130l117 550q7 33 11.5 63t4.5 53q0 51 -23 82.5t-87 31.5q-45 0 -88.5 -21t-82 -53t-69 -71.5t-51.5 -77.5l-115 -557h-130z" />
<glyph unicode="&#x4a8;" horiz-adv-x="1343" d="M125 445q0 208 58 357.5t150 247.5t206 143.5t229 45.5l-27 -125q-99 -1 -185 -50t-149.5 -136t-99.5 -205.5t-36 -257.5q0 -186 78.5 -273t214.5 -87q20 0 42 3t42 10q-17 12 -41 42.5t-45 78.5t-35.5 112.5t-14.5 144.5q0 176 47 306t120 214t163 126t176 42 q50 0 104 -15t99 -54t72.5 -110.5t27.5 -182.5q0 -110 -30 -219.5t-84 -206.5t-129 -173.5t-164 -117.5q8 -2 17 -2h18q61 0 113 14t87 38l17 -113q-36 -27 -87 -45t-137 -18q-52 0 -101 13t-84 39q-48 -29 -105 -40.5t-114 -11.5q-125 0 -206 44.5t-126.5 113.5t-63 150.5 t-17.5 157.5zM663 510q0 -28 3.5 -74t17.5 -97.5t42 -102t76 -83.5q84 43 152.5 112t117.5 155.5t76 186t27 204.5q0 52 -7 97.5t-26 78.5t-52 52t-85 19q-54 0 -114.5 -34t-111 -102.5t-83.5 -171t-33 -240.5z" />
<glyph unicode="&#x4a9;" horiz-adv-x="1103" d="M87 320q0 112 35.5 215t98.5 182t150 127t189 48l-24 -121q-57 0 -113 -32.5t-99.5 -91.5t-70.5 -140.5t-27 -180.5q0 -120 55.5 -174t145.5 -54q19 0 38.5 2.5t39.5 12.5q-15 21 -27.5 53t-20.5 67.5t-12.5 72.5t-4.5 66q0 96 28 185t79.5 158.5t123.5 111.5t159 42 q57 0 97.5 -18.5t66.5 -50t39 -73t13 -88.5q0 -98 -34 -191t-86 -171.5t-114.5 -135t-120.5 -78.5q45 -40 89 -52.5t97 -12.5l-28 -99q-12 -4 -24 -5.5t-26 -1.5q-66 0 -130.5 31.5t-100.5 86.5q-38 -19 -84.5 -25t-83.5 -6q-146 0 -229.5 90.5t-83.5 250.5zM575 364 q0 -45 12 -106.5t39 -106.5q39 17 87.5 62.5t92 107.5t72.5 138t29 157q0 75 -25 105t-76 30q-50 0 -93 -32.5t-73.5 -85.5t-47.5 -123.5t-17 -145.5z" />
<glyph unicode="&#x4aa;" horiz-adv-x="946" d="M123 477q0 196 58 339.5t152 238t211 139.5t238 45q99 0 161.5 -14t102.5 -32l-63 -128q-34 20 -90.5 33t-130.5 13q-97 0 -187 -43t-157.5 -123t-108 -194.5t-40.5 -257.5q0 -83 22.5 -154t63 -122t100.5 -80t137 -29q81 0 135.5 18t97.5 43l11 -119q-54 -35 -113.5 -51 t-134.5 -20l-53 -291h-130l74 298q-84 12 -150 54.5t-112 107t-70 148t-24 181.5z" />
<glyph unicode="&#x4ab;" horiz-adv-x="731" d="M87 258q0 147 40 265t107 199.5t154 125.5t180 44q66 0 108.5 -12.5t77.5 -28.5l-49 -108q-30 17 -73.5 27t-93.5 10q-59 0 -115.5 -40t-100 -105t-70 -150t-26.5 -173q0 -113 47 -164.5t127 -51.5q52 0 110 21t93 45l33 -87q-45 -37 -105.5 -60t-116.5 -32l-54 -295 h-129l72 297q-65 10 -106.5 38.5t-66 68t-34 83.5t-9.5 83z" />
<glyph unicode="&#x4ac;" horiz-adv-x="918" d="M191 1090l27 129h856l-26 -129h-360l-203 -961h151l-76 -353h-93l20 224h-29h-139l229 1090h-357z" />
<glyph unicode="&#x4ad;" horiz-adv-x="1347" d="M63 0l184 870h92l-10 -149h7q28 28 60 58t71.5 54.5t85.5 41.5t101 17q79 0 106 -49t27 -137q26 34 60.5 67t76 59t86.5 43t90 17q80 0 123 -37.5t43 -138.5q0 -73 -27 -194l-86 -411h139l-91 -332h-106l59 221h-24h-130l109 524q10 50 16 90t6 70q0 47 -19 71.5 t-64 24.5q-36 0 -77 -23.5t-79.5 -58.5t-69 -75t-48.5 -75l-113 -548h-130l105 493q13 61 20 108t7 82q0 46 -17.5 71.5t-59.5 25.5q-43 0 -84.5 -23t-78 -57t-67 -72t-48.5 -70l-115 -558h-130z" />
<glyph unicode="&#x4ae;" horiz-adv-x="923" d="M188 1219h151l156 -533l5 -106h2l51 109l379 530h156l-530 -734l-102 -485h-139l103 484z" />
<glyph unicode="&#x4af;" horiz-adv-x="777" d="M105 870h142l82 -564v-31.5t2 -63.5q1 -40 3 -89h2l84 188l301 560h151l-498 -870l-73 -348h-130l75 348z" />
<glyph unicode="&#x4b0;" horiz-adv-x="923" d="M150 388l23 108h243l-228 723h151l156 -533l5 -106h2l51 109l379 530h156l-522 -723h243l-22 -108h-249l-82 -388h-139l82 388h-249z" />
<glyph unicode="&#x4b1;" horiz-adv-x="800" d="M42 -105l23 105h203l-140 870h141l83 -564v-31.5t2 -63.5q1 -40 3 -89h2l83 188l301 560h152l-498 -870h195l-21 -105h-197l-50 -243h-131l53 243h-204z" />
<glyph unicode="&#x4b2;" horiz-adv-x="1059" d="M-12 0l515 623l-226 596h151l150 -413l21 -100l59 100l332 413h169l-485 -591l196 -499h145l-75 -353h-96l23 224h-98l-166 437l-25 104l-66 -104l-356 -437h-168z" />
<glyph unicode="&#x4b3;" horiz-adv-x="842" d="M-38 0l392 445l-187 425h148l103 -240l31 -99l71 99l211 240h159l-370 -418l156 -341h118l-91 -332h-106l59 221h-76l-118 264l-35 105l-73 -105l-234 -264h-158z" />
<glyph unicode="&#x4b4;" horiz-adv-x="1387" d="M191 1090l27 129h797l-26 -129h-301l-203 -961h520l229 1090h140l-230 -1090h151l-74 -353h-95l22 224h-32h-139h-521h-137l229 1090h-357z" />
<glyph unicode="&#x4b5;" horiz-adv-x="922" d="M105 167q0 62 17 137l119 566h130l-122 -579q-10 -47 -10 -87q0 -48 19 -81t69 -33q42 0 85 21.5t82 54t71 73t53 78.5l116 553h131q-35 -164 -59 -276t-39.5 -187t-25.5 -118t-14.5 -67t-5 -34t-0.5 -21q0 -56 47 -56h96l-91 -332h-105l58 221h-5q-61 0 -90.5 30 t-29.5 85q0 24 5 51h-7q-24 -33 -57.5 -66.5t-73.5 -60.5t-86 -43.5t-98 -16.5q-38 0 -70.5 9t-56.5 30.5t-38 57t-14 91.5zM324 1012l24 107h489l-22 -107h-491z" />
<glyph unicode="&#x4b6;" horiz-adv-x="1054" d="M209 700q0 51 12 108l87 411h139l-83 -392q-5 -25 -8.5 -48t-3.5 -43q0 -160 163 -160q78 0 150.5 22t123.5 58l120 563h139l-229 -1090h151l-75 -353h-94l21 224h-30h-141l111 525q-50 -29 -120.5 -53.5t-169.5 -24.5q-52 0 -100 13t-84.5 44t-57.5 78.5t-21 117.5z" />
<glyph unicode="&#x4b7;" horiz-adv-x="821" d="M120 496q0 51 13 110l57 264h132l-51 -237q-12 -61 -12 -103q0 -51 23.5 -81.5t88.5 -30.5q76 0 126.5 22t80.5 42l83 388h133l-162 -759h122l-91 -332h-106l59 221h-139l76 366q-29 -18 -85 -39t-139 -21q-47 0 -85 10t-65.5 31.5t-43 58t-15.5 90.5z" />
<glyph unicode="&#x4b8;" horiz-adv-x="1014" d="M212 698q0 53 12 110l88 411h138l-83 -392q-8 -50 -8 -91q-2 -150 141 -160l45 216h109l-45 -209q57 9 107 28t86 45l119 563h139l-258 -1219h-139l111 525q-34 -21 -82.5 -40.5t-110.5 -29.5l-43 -203h-108l42 195q-54 2 -101 16t-83 43.5t-56 76.5t-20 115z" />
<glyph unicode="&#x4b9;" horiz-adv-x="826" d="M118 496q0 44 15 110l57 264h132l-54 -250q-14 -60 -14 -98q0 -45 21 -72t75 -32l50 231h105l-47 -222q45 8 77.5 24.5t52.5 32.5l84 386h130l-184 -870h-131l77 366q-19 -12 -52 -26t-78 -23l-42 -199h-105l40 188q-45 0 -83 10t-66 31.5t-44 58t-16 90.5z" />
<glyph unicode="&#x4ba;" horiz-adv-x="1002" d="M70 0l259 1219h139l-113 -526q49 26 121 52t168 26q52 0 100 -14t84 -43.5t57.5 -77.5t21.5 -118q0 -50 -12 -106l-86 -412h-139l84 394q10 48 10 90q0 158 -165 159q-78 0 -150 -25t-122 -55l-118 -563h-139z" />
<glyph unicode="&#x4bb;" horiz-adv-x="920" d="M63 0l257 1219h130l-107 -498h7q23 28 55 57.5t73.5 54.5t90.5 42t107 17q85 0 133.5 -41.5t48.5 -149.5q0 -73 -22 -176l-112 -525h-131l105 496q10 52 17 93t7 72q0 65 -26 92t-81 27q-45 0 -92.5 -23.5t-91 -60t-77.5 -81.5t-51 -87l-110 -528h-130z" />
<glyph unicode="&#x4bc;" horiz-adv-x="1280" d="M105 741q0 60 22.5 100.5t46.5 60.5h134q-30 -23 -51.5 -55.5t-21.5 -66.5q0 -13 2 -31t14 -34.5t40.5 -27.5t80.5 -11h16q32 151 90 258t133 174.5t164 99t182 31.5q83 0 146 -27.5t105 -78t62 -119.5t20 -149q0 -73 -15.5 -151t-47.5 -162h-720q-5 -50 -5 -96 q0 -79 16.5 -144t52 -111t91 -71t132.5 -25q36 0 74.5 6.5t73.5 18t65.5 25.5t50.5 29l13 -116q-56 -37 -123 -63t-170 -26q-201 0 -306.5 117.5t-105.5 350.5q0 49 5 105h-63q-95 0 -149 47t-54 142zM530 677h593q15 47 25 96t10 97q0 49 -11.5 93.5t-36.5 78.5t-65 53 t-100 19q-153 0 -259 -109.5t-156 -327.5z" />
<glyph unicode="&#x4bd;" horiz-adv-x="937" d="M20 601q0 65 33.5 114t77.5 75h132q-20 -11 -42.5 -28t-41.5 -39t-31 -48t-12 -57q0 -37 22.5 -67.5t93.5 -30.5q28 89 73.5 158t102 116t122 72.5t131.5 25.5q63 0 109 -17.5t75.5 -46.5t43 -66.5t13.5 -78.5q0 -124 -119.5 -194.5t-350.5 -70.5q-21 0 -43 1t-47 3 q-7 -34 -10.5 -63.5t-3.5 -52.5q2 -96 44.5 -156t135.5 -60q76 0 139.5 25.5t98.5 53.5l42 -84q-62 -52 -144.5 -79t-165.5 -27q-139 0 -209.5 80t-70.5 223q0 73 10 140h-10q-58 0 -96.5 16.5t-61 42.5t-31.5 58t-9 62zM387 518q66 0 137 3.5t129.5 18.5t97 47.5t38.5 89.5 q0 17 -6.5 35.5t-20 33.5t-39 24.5t-63.5 9.5q-96 0 -166.5 -65.5t-106.5 -196.5z" />
<glyph unicode="&#x4be;" horiz-adv-x="1280" d="M105 741q0 60 22.5 100.5t46.5 60.5h134q-30 -23 -51.5 -55.5t-21.5 -66.5q0 -13 2 -31t14 -34.5t40.5 -27.5t80.5 -11h16q32 151 90 258t133 174.5t164 99t182 31.5q83 0 146 -27.5t105 -78t62 -119.5t20 -149q0 -73 -15.5 -151t-47.5 -162h-720q-5 -50 -5 -96 q0 -79 16.5 -144t52 -111t91 -71t132.5 -25q36 0 74.5 6.5t73.5 18t65.5 25.5t50.5 29l13 -116q-56 -37 -122.5 -62.5t-164.5 -26.5l-55 -291h-128l73 300q-151 28 -229.5 143t-78.5 316q0 49 5 105h-63q-95 0 -149 47t-54 142zM530 677h593q15 47 25 96t10 97 q0 49 -11.5 93.5t-36.5 78.5t-65 53t-100 19q-153 0 -259 -109.5t-156 -327.5z" />
<glyph unicode="&#x4bf;" horiz-adv-x="937" d="M20 601q0 65 33.5 114t77.5 75h132q-20 -11 -42.5 -28t-41.5 -39t-31 -48t-12 -57q0 -37 22.5 -67.5t93.5 -30.5q28 89 73.5 158t102 116t122 72.5t131.5 25.5q63 0 109 -17.5t75.5 -46.5t43 -66.5t13.5 -78.5q0 -124 -119.5 -194.5t-350.5 -70.5q-21 0 -43 1t-49 3 q-6 -34 -9 -63.5t-3 -52.5q2 -96 44.5 -156t135.5 -60q76 0 139.5 25.5t98.5 53.5l42 -84q-54 -45 -123 -73.5t-142 -36.5l-54 -287h-129l74 291q-108 19 -162 98t-54 205q0 73 10 140h-10q-58 0 -96.5 16.5t-61 42.5t-31.5 58t-9 62zM387 518q66 0 137 3.5t129.5 18.5 t97 47.5t38.5 89.5q0 17 -6.5 35.5t-20 33.5t-39 24.5t-63.5 9.5q-96 0 -166.5 -65.5t-106.5 -196.5z" />
<glyph unicode="&#x4c0;" horiz-adv-x="481" d="M108 0l258 1219h139l-258 -1219h-139z" />
<glyph unicode="&#x4c3;" horiz-adv-x="993" d="M70 0l257 1219h140l-122 -568l69 25l500 543h172l-471 -498l-108 -67h102q37 -3 78.5 -17t78 -48t61 -90.5t24.5 -143.5v-40q0 -131 -32 -253.5t-94 -217.5t-154 -152.5t-212 -57.5h-20l28 129q87 2 150.5 50t105.5 126t62 178.5t20 204.5q0 78 -19.5 125.5t-56.5 73.5 t-94.5 34.5t-132.5 8.5h-75l-118 -564h-139z" />
<glyph unicode="&#x4c4;" horiz-adv-x="816" d="M63 0l184 870h130l-88 -408l68 23l348 385h155l-335 -365l-73 -45l72 -11q45 -10 76.5 -37t50.5 -63.5t28 -81t9 -89.5q0 -60 -14 -120l-8 -30q-23 -106 -60.5 -181t-85.5 -123t-105.5 -69.5t-120.5 -21.5q-28 0 -59 5l26 111q8 -1 14.5 -1h13.5q88 0 153.5 72t93.5 208 q9 40 13 74t4 64q0 109 -52 159.5t-151 50.5h-79l-78 -376h-130z" />
<glyph unicode="&#x4c5;" horiz-adv-x="1043" d="M-73 8l47 126q17 -5 38 -5q33 0 67 21t69 73q31 46 67.5 125t76.5 198t84 284t91 389h136h477l-233 -1097h168l-9 -39l-216 -307h-89l124 224h-142l231 1090h-341q-80 -347 -154 -577.5t-156 -361.5q-54 -85 -112 -122t-123 -37q-30 0 -56 4t-45 12z" />
<glyph unicode="&#x4c6;" horiz-adv-x="880" d="M-58 8l41 112q21 -5 40 -5q38 0 72 28t70.5 109.5t79 229.5t100.5 388h122h362l-159 -748h174l-8 -39l-216 -307h-89l123 224h-10h-131l163 759h-234q-45 -186 -85 -329t-86.5 -239.5t-102 -147t-133.5 -50.5q-30 0 -53.5 3.5t-39.5 11.5z" />
<glyph unicode="&#x4c7;" horiz-adv-x="1111" d="M70 0l257 1219h140l-112 -531h552l111 531h140l-258 -1217q-42 -214 -107 -292.5t-184 -78.5h-28t-31 3l26 122h12q45 0 73 15t45.5 45.5t29 76.5t25.5 107l118 558h-553l-117 -558h-139z" />
<glyph unicode="&#x4c8;" horiz-adv-x="908" d="M63 0l184 870h130l-76 -362h376l77 362h130l-184 -870q-14 -73 -33 -132t-46 -105q-40 -68 -92 -100t-130 -32q-12 0 -24.5 1t-24.5 2l26 120q46 0 77 15t51.5 45t35.5 76.5t30 109.5l81 383h-376l-82 -383h-130z" />
<glyph unicode="&#x4c9;" horiz-adv-x="1122" d="M70 0l257 1219h140l-112 -531h552l111 531h140l-232 -1097h165l-8 -39l-216 -307h-89l124 224h-141l118 558h-553l-117 -558h-139z" />
<glyph unicode="&#x4ca;" horiz-adv-x="929" d="M61 0l185 870h130l-77 -362h377l76 362h130l-158 -748h169l-9 -39l-216 -307h-88l123 224h-135l81 383h-375l-83 -383h-130z" />
<glyph unicode="&#x4cb;" horiz-adv-x="1002" d="M209 700q0 51 12 108l87 411h139l-83 -392q-5 -25 -8.5 -48t-3.5 -43q0 -160 163 -160q78 0 150.5 22t123.5 58l120 563h139l-258 -1219h-139h-25l-73 -224h-93l73 353h146l83 396q-50 -29 -120.5 -53.5t-169.5 -24.5q-52 0 -100 13t-84.5 44t-57.5 78.5t-21 117.5z" />
<glyph unicode="&#x4cc;" horiz-adv-x="817" d="M120 489q0 26 2.5 56t11.5 64l56 261h132l-48 -232q-14 -60 -15 -103q0 -51 24.5 -81.5t88.5 -30.5q77 0 128.5 22.5t80.5 43.5l80 381h133l-185 -870h-130h-17l-55 -221h-123l88 337h130l53 253q-30 -17 -86.5 -37t-148.5 -20q-97 0 -148.5 38t-51.5 139z" />
<glyph unicode="&#x4cd;" horiz-adv-x="1320" d="M70 0l259 1219h96l226 -624l26 -135h2l80 139l475 620h123l-232 -1097h165l-9 -39l-216 -307h-88l123 224h-141l174 819l54 182h-6l-98 -167l-418 -550h-42l-200 550l-26 167h-7l-14 -181l-174 -820h-132z" />
<glyph unicode="&#x4ce;" horiz-adv-x="1103" d="M61 0l185 870h120l147 -390l27 -101h3l72 105l299 386h143l-159 -748h169l-9 -39l-216 -307h-88l123 224h-134l110 517q0 1 7 28.5t16 57.5l21 80h-7l-89 -135l-271 -341h-46l-136 341l-26 135h-7l-23 -165l-109 -518h-122z" />
<glyph unicode="&#x4cf;" horiz-adv-x="412" d="M63 0l257 1219h132l-257 -1219h-132z" />
<glyph unicode="&#x4d0;" horiz-adv-x="969" d="M-58 0l704 1238h65l175 -1238h-134l-49 337h-424l-189 -337h-148zM347 463h342l-50 371l-3 184h-3l-78 -188zM453 1480l118 35q0 -65 32.5 -100t89.5 -35q73 0 120 36t66 97l127 -30q-31 -94 -113 -149t-207 -55q-118 0 -174 58.5t-59 142.5z" />
<glyph unicode="&#x4d1;" horiz-adv-x="847" d="M78 249q0 111 29 226t89 207t154.5 151.5t229.5 59.5q48 0 118.5 -11.5t131.5 -30.5l-109 -508q-14 -65 -19.5 -131t-5.5 -124v-49.5t4 -41.5h-97l-25 151h-7q-21 -30 -51.5 -60t-67 -55t-78.5 -39.5t-88 -14.5q-208 0 -208 270zM218 249q0 -66 25.5 -112.5t82.5 -46.5 q41 0 79.5 20.5t72.5 50t60 63.5t42 63l97 470q-51 25 -132 25q-80 0 -141 -47t-103 -123t-62.5 -171.5t-20.5 -191.5zM354 1164v17l120 41q0 -81 34 -111.5t86 -30.5q54 0 102 33t77 108l94 -34q-35 -101 -117.5 -155t-179.5 -54q-44 0 -83.5 11t-69 33.5t-46.5 58 t-17 83.5z" />
<glyph unicode="&#x4d2;" horiz-adv-x="969" d="M-58 0l704 1238h65l175 -1238h-134l-49 337h-424l-189 -337h-148zM347 463h342l-50 371l-3 184h-3l-78 -188zM455 1382q0 35 25 58.5t64 23.5q40 0 63.5 -23.5t23.5 -58.5t-23.5 -57.5t-63.5 -22.5q-39 0 -64 22.5t-25 57.5zM774 1382q0 35 23.5 58.5t63.5 23.5 t64.5 -23.5t24.5 -58.5t-24 -57.5t-65 -22.5q-40 0 -63.5 22.5t-23.5 57.5z" />
<glyph unicode="&#x4d3;" horiz-adv-x="847" d="M78 249q0 111 29 226t89 207t154.5 151.5t229.5 59.5q48 0 118.5 -11.5t131.5 -30.5l-109 -508q-14 -65 -19.5 -131t-5.5 -124v-49.5t4 -41.5h-97l-25 151h-7q-21 -30 -51.5 -60t-67 -55t-78.5 -39.5t-88 -14.5q-208 0 -208 270zM218 249q0 -66 25.5 -112.5t82.5 -46.5 q41 0 79.5 20.5t72.5 50t60 63.5t42 63l97 470q-51 25 -132 25q-80 0 -141 -47t-103 -123t-62.5 -171.5t-20.5 -191.5zM351 1103q0 39 21.5 64.5t58.5 25.5q36 0 59 -25.5t23 -64.5q0 -34 -23 -59.5t-59 -25.5q-37 0 -58.5 25.5t-21.5 59.5zM670 1105q0 37 21.5 62.5 t58.5 25.5q38 0 59.5 -25.5t21.5 -62.5q0 -36 -21.5 -61.5t-59.5 -25.5q-37 0 -58.5 25.5t-21.5 61.5z" />
<glyph unicode="&#x4d4;" horiz-adv-x="1400" d="M-108 0l942 1219h637l-26 -129h-493l-85 -399h451l-28 -128h-449l-94 -434h501l-26 -129h-500h-139l73 343h-346l-258 -343h-160zM407 468h274l123 575h-5l-88 -176z" />
<glyph unicode="&#x4d5;" horiz-adv-x="1312" d="M48 193q0 88 38.5 148.5t104 96t152.5 51.5t182 16h40t39 -2q35 113 35 169t-33 78.5t-110 22.5q-28 0 -62 -4.5t-68.5 -13t-67 -20t-57.5 -23.5l-22 105q73 40 159.5 53.5t174.5 13.5q84 0 137 -29.5t66 -85.5q56 65 135 94t152 29q129 0 191.5 -57t62.5 -141 q0 -92 -43 -147.5t-119.5 -87t-184.5 -43t-236 -12.5q-5 -30 -9 -56t-4 -50q0 -97 49 -152.5t165 -55.5q57 0 116.5 22t96.5 48l30 -94q-60 -41 -140.5 -64t-164.5 -23q-101 0 -169.5 46t-93.5 126h-12q-56 -68 -138.5 -116.5t-181.5 -48.5q-54 0 -93.5 17.5t-65.5 46 t-38.5 66t-12.5 77.5zM188 223q0 -67 30 -96t88 -29q47 0 90 22.5t77.5 53t59.5 60.5t38 50l14 118q-20 2 -40.5 2.5t-39.5 0.5q-66 0 -124.5 -10t-101 -33t-67 -57t-24.5 -82zM734 510q85 0 163 4t137 21t94 50t35 91q0 43 -29 73.5t-112 30.5q-107 0 -178 -69.5 t-110 -200.5z" />
<glyph unicode="&#x4d6;" horiz-adv-x="887" d="M70 0l259 1219h628l-25 -129h-493l-85 -399h450l-26 -128h-451l-92 -434h501l-27 -129h-502h-137zM413 1480l118 35q0 -65 32.5 -100t89.5 -35q73 0 120 36t66 97l127 -30q-31 -94 -113 -149t-207 -55q-118 0 -174 58.5t-59 142.5z" />
<glyph unicode="&#x4d7;" horiz-adv-x="805" d="M87 282q0 143 40 256t105.5 191.5t148 120.5t169.5 42q63 0 109 -17.5t75.5 -46.5t43.5 -66.5t14 -78.5q0 -124 -120 -194.5t-350 -70.5q-21 0 -43.5 1t-47.5 3q-7 -34 -10 -63.5t-3 -52.5q0 -96 43 -156t136 -60q76 0 140 25.5t99 53.5l41 -84q-61 -52 -144 -79 t-166 -27q-139 0 -209.5 80t-70.5 223zM256 518q66 0 137.5 3.5t129.5 18.5t96.5 47.5t38.5 89.5q0 17 -6 35.5t-20 33.5t-39 24.5t-63 9.5q-96 0 -167 -65.5t-107 -196.5zM349 1164v17l120 41q0 -81 34 -111.5t86 -30.5q54 0 102 33t77 108l94 -34q-35 -101 -117.5 -155 t-179.5 -54q-44 0 -83.5 11t-69 33.5t-46.5 58t-17 83.5z" />
<glyph unicode="&#x4d8;" horiz-adv-x="1038" d="M101 372q0 70 13.5 147.5t41.5 163.5h726q2 21 3 41.5t1 39.5q0 75 -14 139.5t-46 111.5t-83.5 73t-126.5 26q-36 0 -76 -7t-76.5 -18t-68 -24.5t-52.5 -24.5l-11 116q56 31 129.5 57t176.5 26q69 0 139 -19t126.5 -70.5t92.5 -140t36 -229.5q0 -158 -36.5 -303 t-107.5 -255.5t-179 -176.5t-251 -66q-88 0 -154.5 28t-112 80t-68 124.5t-22.5 160.5zM241 387q0 -60 11.5 -111.5t39.5 -89.5t71.5 -59.5t104.5 -21.5q80 0 145.5 33t115 93t82.5 143.5t51 182.5h-599q-23 -85 -22 -170z" />
<glyph unicode="&#x4d9;" horiz-adv-x="842" d="M60 201q0 149 104.5 220.5t308.5 71.5q82 0 176 -11q4 25 5.5 45.5t1.5 42.5q0 57 -15.5 96.5t-44 65t-66 37t-80.5 11.5q-81 0 -138.5 -23.5t-92.5 -45.5l-35 98q60 40 126.5 61.5t169.5 21.5q84 0 142.5 -26.5t95 -69t53 -95.5t16.5 -108q0 -139 -32.5 -253t-93 -194 t-147.5 -123.5t-197 -43.5q-56 0 -103.5 17.5t-81.5 47t-53 70.5t-19 87zM193 223q0 -49 35.5 -91t116.5 -42q93 0 168 72.5t110 211.5q-35 7 -74 10.5t-79 3.5q-52 0 -101.5 -8t-88.5 -27t-63 -51.5t-24 -78.5z" />
<glyph unicode="&#x4da;" horiz-adv-x="1038" d="M101 372q0 70 13.5 147.5t41.5 163.5h726q2 21 3 41.5t1 39.5q0 75 -14 139.5t-46 111.5t-83.5 73t-126.5 26q-36 0 -76 -7t-76.5 -18t-68 -24.5t-52.5 -24.5l-11 116q56 31 129.5 57t176.5 26q69 0 139 -19t126.5 -70.5t92.5 -140t36 -229.5q0 -158 -36.5 -303 t-107.5 -255.5t-179 -176.5t-251 -66q-88 0 -154.5 28t-112 80t-68 124.5t-22.5 160.5zM241 387q0 -60 11.5 -111.5t39.5 -89.5t71.5 -59.5t104.5 -21.5q80 0 145.5 33t115 93t82.5 143.5t51 182.5h-599q-23 -85 -22 -170zM466 1382q0 35 25 58.5t64 23.5q40 0 63.5 -23.5 t23.5 -58.5t-23.5 -57.5t-63.5 -22.5q-39 0 -64 22.5t-25 57.5zM785 1382q0 35 23.5 58.5t63.5 23.5t64.5 -23.5t24.5 -58.5t-24 -57.5t-65 -22.5q-40 0 -63.5 22.5t-23.5 57.5z" />
<glyph unicode="&#x4db;" horiz-adv-x="842" d="M60 201q0 149 104.5 220.5t308.5 71.5q82 0 176 -11q4 25 5.5 45.5t1.5 42.5q0 57 -15.5 96.5t-44 65t-66 37t-80.5 11.5q-81 0 -138.5 -23.5t-92.5 -45.5l-35 98q60 40 126.5 61.5t169.5 21.5q84 0 142.5 -26.5t95 -69t53 -95.5t16.5 -108q0 -139 -32.5 -253t-93 -194 t-147.5 -123.5t-197 -43.5q-56 0 -103.5 17.5t-81.5 47t-53 70.5t-19 87zM193 223q0 -49 35.5 -91t116.5 -42q93 0 168 72.5t110 211.5q-35 7 -74 10.5t-79 3.5q-52 0 -101.5 -8t-88.5 -27t-63 -51.5t-24 -78.5zM281 1103q0 39 21.5 64.5t58.5 25.5q36 0 59 -25.5t23 -64.5 q0 -34 -23 -59.5t-59 -25.5q-37 0 -58.5 25.5t-21.5 59.5zM600 1105q0 37 21.5 62.5t58.5 25.5q38 0 59.5 -25.5t21.5 -62.5q0 -36 -21.5 -61.5t-59.5 -25.5q-37 0 -58.5 25.5t-21.5 61.5z" />
<glyph unicode="&#x4dc;" horiz-adv-x="1334" d="M-76 0l478 545l93 66l-60 61l-231 547h153l219 -547h84l116 547h131l-120 -568l64 25l448 543h168l-445 -530l-82 -56l70 -70l251 -563h-153l-253 564h-87l-119 -564h-131l125 585l-65 -22l-480 -563h-174zM633 1382q0 35 25 58.5t64 23.5q40 0 63.5 -23.5t23.5 -58.5 t-23.5 -57.5t-63.5 -22.5q-39 0 -64 22.5t-25 57.5zM952 1382q0 35 23.5 58.5t63.5 23.5t64.5 -23.5t24.5 -58.5t-24 -57.5t-65 -22.5q-40 0 -63.5 22.5t-23.5 57.5z" />
<glyph unicode="&#x4dd;" horiz-adv-x="1224" d="M-25 3l35 119q21 -6 42 -6q70 0 131 74t96 250q8 50 13.5 90t5.5 73q0 92 -31.5 125.5t-80.5 33.5q-8 0 -17 -0.5t-18 -2.5l-15 108q25 3 45.5 6t39.5 3q98 0 146.5 -57t48.5 -181q0 -32 -3.5 -67.5t-10.5 -75.5h171l80 375h131l-83 -375h159q30 111 65 184t76.5 117.5 t85.5 62.5t89 18q39 0 76 -10l-30 -111q-8 1 -17 2t-18 1q-31 0 -60 -14t-54 -48t-47.5 -89.5t-43.5 -139.5q-10 -43 -16.5 -85t-6.5 -82q0 -83 27 -141.5t87 -58.5q19 0 45 9l18 -107q-28 -8 -52 -10.5t-46 -2.5q-60 0 -99 23.5t-62.5 62.5t-33 90.5t-9.5 107.5 q0 29 2.5 58.5t5.5 59.5h-161l-82 -392h-131l84 392h-162q-31 -117 -68.5 -193.5t-79 -122.5t-88 -65t-93.5 -19q-21 0 -42.5 3t-43.5 8zM527 1103q0 39 21.5 64.5t58.5 25.5q36 0 59 -25.5t23 -64.5q0 -34 -23 -59.5t-59 -25.5q-37 0 -58.5 25.5t-21.5 59.5zM846 1105 q0 37 21.5 62.5t58.5 25.5q38 0 59.5 -25.5t21.5 -62.5q0 -36 -21.5 -61.5t-59.5 -25.5q-37 0 -58.5 25.5t-21.5 61.5z" />
<glyph unicode="&#x4de;" horiz-adv-x="895" d="M10 25l63 126q35 -19 99.5 -32.5t161.5 -13.5q60 0 120.5 14.5t109.5 48t79.5 86t30.5 129.5q0 52 -18 87t-49.5 57.5t-71.5 33t-83 14.5q-19 1 -38 1h-38h-90l26 120h24q31 0 77.5 2.5t73.5 6.5q47 5 96 21.5t88.5 46t64.5 73.5t25 103q0 78 -56 121.5t-152 43.5 q-88 0 -147 -14.5t-108 -32.5l-14 114q40 19 120.5 38.5t187.5 19.5q66 0 123.5 -16.5t100 -47.5t67 -78t24.5 -110q0 -75 -23.5 -132.5t-62.5 -99t-91.5 -67t-109.5 -34.5v-6q36 -9 72 -27t64.5 -49.5t46 -78t17.5 -110.5q0 -114 -47 -192t-122 -124.5t-166 -67t-182 -20.5 q-110 0 -180.5 13t-112.5 33zM374 1382q0 35 25 58.5t64 23.5q40 0 63.5 -23.5t23.5 -58.5t-23.5 -57.5t-63.5 -22.5q-39 0 -64 22.5t-25 57.5zM693 1382q0 35 23.5 58.5t63.5 23.5t64.5 -23.5t24.5 -58.5t-24 -57.5t-65 -22.5q-40 0 -63.5 22.5t-23.5 57.5z" />
<glyph unicode="&#x4df;" horiz-adv-x="727" d="M-7 47l55 104q35 -23 87.5 -39t115.5 -16q101 0 169.5 51t68.5 140q0 52 -42 77.5t-143 25.5h-95l22 108h116q30 0 63.5 13.5t62.5 38.5t48 55.5t19 64.5q0 56 -33.5 78.5t-121.5 22.5q-63 0 -109 -14t-86 -33l-28 103q56 30 123 42.5t154 12.5q129 0 184.5 -46 t55.5 -133q0 -45 -15.5 -83.5t-43 -69t-61.5 -51t-70 -32.5v-7q75 -14 105.5 -57t30.5 -99q0 -76 -31 -135t-84.5 -100t-125.5 -62.5t-156 -21.5q-70 0 -134 17.5t-101 44.5zM231 1103q0 39 21.5 64.5t58.5 25.5q36 0 59 -25.5t23 -64.5q0 -34 -23 -59.5t-59 -25.5 q-37 0 -58.5 25.5t-21.5 59.5zM550 1105q0 37 21.5 62.5t58.5 25.5q38 0 59.5 -25.5t21.5 -62.5q0 -36 -21.5 -61.5t-59.5 -25.5q-37 0 -58.5 25.5t-21.5 61.5z" />
<glyph unicode="&#x4e0;" horiz-adv-x="932" d="M43 40l63 127q16 -10 44 -21.5t61 -21t68.5 -14.5t67.5 -5q99 0 168.5 27.5t112 70.5t63 95t20.5 101q0 48 -13.5 84.5t-44 61.5t-81 36.5t-127.5 11.5h-161l8 48l387 389l89 75l-105 -15h-392l27 129h685l-10 -53l-415 -415l-71 -51v-6l63 15q70 0 127 -21.5t96.5 -58 t61.5 -86.5t22 -109q0 -98 -32.5 -181.5t-98.5 -144.5t-166 -95t-234 -34q-37 0 -78.5 4.5t-80.5 13t-72.5 19t-51.5 24.5z" />
<glyph unicode="&#x4e1;" horiz-adv-x="713" d="M-110 -320l54 106q35 -21 84.5 -32.5t94.5 -11.5q67 0 130.5 23t113 64.5t79 101t29.5 132.5q0 101 -60.5 142.5t-205.5 41.5h-84l9 44l322 392l104 90l-108 -14h-329l25 111h592l-11 -50l-352 -421l-65 -51v-3l54 10q50 0 95.5 -19t79.5 -54t54 -83.5t20 -105.5 q0 -113 -45 -198.5t-115 -145t-158 -89t-177 -29.5q-75 0 -131.5 13t-98.5 36z" />
<glyph unicode="&#x4e2;" horiz-adv-x="1127" d="M70 0l259 1219h139l-176 -829l-43 -132h7l103 142l726 819h88l-258 -1219h-139l173 814l41 141h-5l-103 -146l-724 -809h-88zM512 1359l25 108h522l-23 -108h-524z" />
<glyph unicode="&#x4e3;" horiz-adv-x="889" d="M105 167q0 62 17 137l119 566h130l-122 -579q-10 -47 -10 -87q0 -48 19 -81t69 -33q42 0 85 21.5t82 54t71 73t53 78.5l116 553h131l-109 -516q-7 -30 -14.5 -72.5t-13.5 -90t-9 -91.5t-3 -77v-23h-103v166h-7q-26 -35 -60 -68t-75 -59.5t-88 -43t-99 -16.5 q-38 0 -70.5 9t-56.5 30.5t-38 57t-14 91.5zM324 1012l24 107h489l-22 -107h-491z" />
<glyph unicode="&#x4e4;" horiz-adv-x="1127" d="M70 0l259 1219h139l-176 -829l-43 -132h7l103 142l726 819h88l-258 -1219h-139l173 814l41 141h-5l-103 -146l-724 -809h-88zM532 1382q0 35 25 58.5t64 23.5q40 0 63.5 -23.5t23.5 -58.5t-23.5 -57.5t-63.5 -22.5q-39 0 -64 22.5t-25 57.5zM851 1382q0 35 23.5 58.5 t63.5 23.5t64.5 -23.5t24.5 -58.5t-24 -57.5t-65 -22.5q-40 0 -63.5 22.5t-23.5 57.5z" />
<glyph unicode="&#x4e5;" horiz-adv-x="889" d="M105 167q0 62 17 137l119 566h130l-122 -579q-10 -47 -10 -87q0 -48 19 -81t69 -33q42 0 85 21.5t82 54t71 73t53 78.5l116 553h131l-109 -516q-7 -30 -14.5 -72.5t-13.5 -90t-9 -91.5t-3 -77v-23h-103v166h-7q-26 -35 -60 -68t-75 -59.5t-88 -43t-99 -16.5 q-38 0 -70.5 9t-56.5 30.5t-38 57t-14 91.5zM367 1103q0 39 21.5 64.5t58.5 25.5q36 0 59 -25.5t23 -64.5q0 -34 -23 -59.5t-59 -25.5q-37 0 -58.5 25.5t-21.5 59.5zM686 1105q0 37 21.5 62.5t58.5 25.5q38 0 59.5 -25.5t21.5 -62.5q0 -36 -21.5 -61.5t-59.5 -25.5 q-37 0 -58.5 25.5t-21.5 61.5z" />
<glyph unicode="&#x4e6;" horiz-adv-x="1133" d="M123 445q0 160 44 305t124.5 254t195 172t253.5 63q83 0 154.5 -25t122.5 -79.5t80 -142t29 -212.5q0 -164 -43 -309t-122 -255t-187.5 -173.5t-238.5 -63.5q-206 0 -309 119.5t-103 346.5zM269 447q0 -164 68 -253t201 -89q98 0 178.5 53.5t139.5 146t91.5 214.5 t32.5 257q0 101 -22.5 167.5t-60 104t-85.5 52t-96 14.5q-100 0 -182 -54.5t-140 -147t-91.5 -213.5t-33.5 -252zM538 1382q0 35 25 58.5t64 23.5q40 0 63.5 -23.5t23.5 -58.5t-23.5 -57.5t-63.5 -22.5q-39 0 -64 22.5t-25 57.5zM857 1382q0 35 23.5 58.5t63.5 23.5 t64.5 -23.5t24.5 -58.5t-24 -57.5t-65 -22.5q-40 0 -63.5 22.5t-23.5 57.5z" />
<glyph unicode="&#x4e7;" horiz-adv-x="866" d="M87 271q0 138 35.5 252.5t98.5 196t145.5 127t176.5 45.5q73 0 124.5 -24t84 -65t46 -94t13.5 -110q0 -131 -34 -244t-94 -196.5t-140 -131.5t-174 -48q-78 0 -131.5 25.5t-87.5 67t-48.5 94t-14.5 105.5zM226 303q0 -103 38.5 -158t122.5 -55q58 0 109 41.5t90 111 t62.5 159t23.5 186.5q0 89 -32 140.5t-123 51.5q-58 0 -110 -39.5t-92.5 -105t-64.5 -152t-24 -180.5zM332 1103q0 39 21.5 64.5t58.5 25.5q36 0 59 -25.5t23 -64.5q0 -34 -23 -59.5t-59 -25.5q-37 0 -58.5 25.5t-21.5 59.5zM651 1105q0 37 21.5 62.5t58.5 25.5 q38 0 59.5 -25.5t21.5 -62.5q0 -36 -21.5 -61.5t-59.5 -25.5q-37 0 -58.5 25.5t-21.5 61.5z" />
<glyph unicode="&#x4e8;" horiz-adv-x="1133" d="M125 445q0 160 43 305t122 254t192 172t252 63q84 0 156.5 -25t124.5 -79.5t81.5 -142t29.5 -212.5q0 -164 -41.5 -309t-119.5 -255t-184.5 -173.5t-237.5 -63.5q-206 0 -312 119.5t-106 346.5zM271 447q0 -164 71.5 -253t204.5 -89q76 0 142.5 34t118.5 93.5t90.5 142.5 t58.5 180h-680q-6 -56 -6 -108zM298 681h677q5 47 5 95q0 101 -24 167.5t-62.5 104t-86.5 52t-96 14.5q-77 0 -143 -33t-118.5 -90.5t-91.5 -137t-60 -172.5z" />
<glyph unicode="&#x4e9;" horiz-adv-x="866" d="M87 271q0 138 35.5 252.5t98.5 196t145.5 127t176.5 45.5q73 0 124.5 -24t84 -65t46 -94t13.5 -110q0 -131 -34 -244t-94 -196.5t-140 -131.5t-174 -48q-78 0 -131.5 25.5t-87.5 67t-48.5 94t-14.5 105.5zM226 303q0 -103 38.5 -158t122.5 -55q41 0 79.5 22t71.5 61 t60 92.5t45 116.5h-413q-2 -20 -3 -40t-1 -39zM251 485h414q3 25 5 51.5t2 51.5q0 89 -32.5 140.5t-122.5 51.5q-44 0 -83.5 -23t-75.5 -62t-63 -93t-44 -117z" />
<glyph unicode="&#x4ea;" horiz-adv-x="1133" d="M125 445q0 160 43 305t122 254t192 172t252 63q84 0 156.5 -25t124.5 -79.5t81.5 -142t29.5 -212.5q0 -164 -41.5 -309t-119.5 -255t-184.5 -173.5t-237.5 -63.5q-206 0 -312 119.5t-106 346.5zM271 447q0 -164 71.5 -253t204.5 -89q76 0 142.5 34t118.5 93.5t90.5 142.5 t58.5 180h-680q-6 -56 -6 -108zM298 681h677q5 47 5 95q0 101 -24 167.5t-62.5 104t-86.5 52t-96 14.5q-77 0 -143 -33t-118.5 -90.5t-91.5 -137t-60 -172.5zM538 1382q0 35 25 58.5t64 23.5q40 0 63.5 -23.5t23.5 -58.5t-23.5 -57.5t-63.5 -22.5q-39 0 -64 22.5t-25 57.5z M857 1382q0 35 23.5 58.5t63.5 23.5t64.5 -23.5t24.5 -58.5t-24 -57.5t-65 -22.5q-40 0 -63.5 22.5t-23.5 57.5z" />
<glyph unicode="&#x4eb;" horiz-adv-x="866" d="M87 271q0 138 35.5 252.5t98.5 196t145.5 127t176.5 45.5q73 0 124.5 -24t84 -65t46 -94t13.5 -110q0 -131 -34 -244t-94 -196.5t-140 -131.5t-174 -48q-78 0 -131.5 25.5t-87.5 67t-48.5 94t-14.5 105.5zM226 303q0 -103 38.5 -158t122.5 -55q41 0 79.5 22t71.5 61 t60 92.5t45 116.5h-413q-2 -20 -3 -40t-1 -39zM251 485h414q3 25 5 51.5t2 51.5q0 89 -32.5 140.5t-122.5 51.5q-44 0 -83.5 -23t-75.5 -62t-63 -93t-44 -117zM332 1103q0 39 21.5 64.5t58.5 25.5q36 0 59 -25.5t23 -64.5q0 -34 -23 -59.5t-59 -25.5q-37 0 -58.5 25.5 t-21.5 59.5zM651 1105q0 37 21.5 62.5t58.5 25.5q38 0 59.5 -25.5t21.5 -62.5q0 -36 -21.5 -61.5t-59.5 -25.5q-37 0 -58.5 25.5t-21.5 61.5z" />
<glyph unicode="&#x4ec;" horiz-adv-x="963" d="M20 23l63 127q35 -20 95.5 -32.5t125.5 -12.5q89 0 170 29.5t148 87.5t113.5 142.5t65.5 193.5h-491l24 125h485q1 19 2 39.5t1 39.5q0 166 -75 259t-239 93q-78 0 -137 -17t-103 -40l-10 114q59 32 128 50t155 18q125 0 206.5 -41.5t128 -107t65.5 -146t19 -159.5 q0 -170 -40.5 -317.5t-124 -255t-212 -170.5t-306.5 -63q-80 0 -148 12t-109 32zM357 1382q0 35 25 58.5t64 23.5q40 0 63.5 -23.5t23.5 -58.5t-23.5 -57.5t-63.5 -22.5q-39 0 -64 22.5t-25 57.5zM676 1382q0 35 23.5 58.5t63.5 23.5t64.5 -23.5t24.5 -58.5t-24 -57.5 t-65 -22.5q-40 0 -63.5 22.5t-23.5 57.5z" />
<glyph unicode="&#x4ed;" horiz-adv-x="765" d="M-15 33l57 106q33 -23 87.5 -36t109.5 -13q120 0 200.5 75.5t113.5 221.5h-360l23 106h347q3 17 5 35.5t2 39.5q0 109 -44 160.5t-124 51.5t-133 -18.5t-88 -39.5l-35 91q60 38 130.5 58.5t157.5 20.5q71 0 122.5 -21.5t85.5 -59t50.5 -87.5t16.5 -109q0 -178 -40.5 -300 t-106.5 -196t-150.5 -107t-170.5 -33q-176 0 -256 54zM188 1103q0 39 21.5 64.5t58.5 25.5q36 0 59 -25.5t23 -64.5q0 -34 -23 -59.5t-59 -25.5q-37 0 -58.5 25.5t-21.5 59.5zM507 1105q0 37 21.5 62.5t58.5 25.5q38 0 59.5 -25.5t21.5 -62.5q0 -36 -21.5 -61.5t-59.5 -25.5 q-37 0 -58.5 25.5t-21.5 61.5z" />
<glyph unicode="&#x4ee;" horiz-adv-x="915" d="M94 30l68 120q28 -17 49.5 -23.5t46.5 -6.5q45 0 88.5 57.5t93.5 146.5l-236 895h148l160 -643l10 -154h8l65 159l357 638h153l-461 -792q-71 -124 -123.5 -207.5t-97 -134t-87 -72t-95.5 -21.5q-57 0 -90 11t-57 27zM394 1359l25 108h522l-23 -108h-524z" />
<glyph unicode="&#x4ef;" horiz-adv-x="764" d="M-35 -341l42 120q19 -7 41 -7q51 0 102 52.5t113 175.5l-150 870h139l85 -564l10 -167h8l67 169l289 562h138l-410 -776q-45 -85 -90 -166t-91.5 -144.5t-97 -102t-104.5 -38.5q-30 0 -51.5 3.5t-39.5 12.5zM249 1012l24 107h489l-22 -107h-491z" />
<glyph unicode="&#x4f0;" horiz-adv-x="915" d="M94 30l68 120q28 -17 49.5 -23.5t46.5 -6.5q45 0 88.5 57.5t93.5 146.5l-236 895h148l160 -643l10 -154h8l65 159l357 638h153l-461 -792q-71 -124 -123.5 -207.5t-97 -134t-87 -72t-95.5 -21.5q-57 0 -90 11t-57 27zM455 1382q0 35 25 58.5t64 23.5q40 0 63.5 -23.5 t23.5 -58.5t-23.5 -57.5t-63.5 -22.5q-39 0 -64 22.5t-25 57.5zM774 1382q0 35 23.5 58.5t63.5 23.5t64.5 -23.5t24.5 -58.5t-24 -57.5t-65 -22.5q-40 0 -63.5 22.5t-23.5 57.5z" />
<glyph unicode="&#x4f1;" horiz-adv-x="764" d="M-35 -341l42 120q19 -7 41 -7q51 0 102 52.5t113 175.5l-150 870h139l85 -564l10 -167h8l67 169l289 562h138l-410 -776q-45 -85 -90 -166t-91.5 -144.5t-97 -102t-104.5 -38.5q-30 0 -51.5 3.5t-39.5 12.5zM299 1103q0 39 21.5 64.5t58.5 25.5q36 0 59 -25.5t23 -64.5 q0 -34 -23 -59.5t-59 -25.5q-37 0 -58.5 25.5t-21.5 59.5zM618 1105q0 37 21.5 62.5t58.5 25.5q38 0 59.5 -25.5t21.5 -62.5q0 -36 -21.5 -61.5t-59.5 -25.5q-37 0 -58.5 25.5t-21.5 61.5z" />
<glyph unicode="&#x4f2;" horiz-adv-x="915" d="M94 30l68 120q28 -17 49.5 -23.5t46.5 -6.5q45 0 88.5 57.5t93.5 146.5l-236 895h148l160 -643l10 -154h8l65 159l357 638h153l-461 -792q-71 -124 -123.5 -207.5t-97 -134t-87 -72t-95.5 -21.5q-57 0 -90 11t-57 27zM482 1290l147 190h153l-5 -28l-200 -162h-95z M688 1290l209 190h161l-5 -28l-271 -162h-94z" />
<glyph unicode="&#x4f3;" horiz-adv-x="764" d="M-35 -341l42 120q19 -7 41 -7q51 0 102 52.5t113 175.5l-150 870h139l85 -564l10 -167h8l67 169l289 562h138l-410 -776q-45 -85 -90 -166t-91.5 -144.5t-97 -102t-104.5 -38.5q-30 0 -51.5 3.5t-39.5 12.5zM351 994l104 225h129l-5 -28l-158 -197h-70zM528 994l169 225 h142l-6 -28l-227 -197h-78z" />
<glyph unicode="&#x4f4;" horiz-adv-x="1002" d="M209 700q0 51 12 108l87 411h139l-83 -392q-5 -25 -8.5 -48t-3.5 -43q0 -160 163 -160q78 0 150.5 22t123.5 58l120 563h139l-258 -1219h-139l111 525q-50 -29 -120.5 -53.5t-169.5 -24.5q-52 0 -100 13t-84.5 44t-57.5 78.5t-21 117.5zM480 1382q0 35 25 58.5t64 23.5 q40 0 63.5 -23.5t23.5 -58.5t-23.5 -57.5t-63.5 -22.5q-39 0 -64 22.5t-25 57.5zM799 1382q0 35 23.5 58.5t63.5 23.5t64.5 -23.5t24.5 -58.5t-24 -57.5t-65 -22.5q-40 0 -63.5 22.5t-23.5 57.5z" />
<glyph unicode="&#x4f5;" horiz-adv-x="817" d="M120 496q-5 63 70 374h132l-51 -237q-12 -61 -12 -103q0 -51 23.5 -81.5t88.5 -30.5q76 0 126.5 22t80.5 42l83 388h133l-185 -870h-132l76 366q-29 -18 -85 -39t-139 -21q-47 0 -85 10t-65.5 31.5t-43 58t-15.5 90.5zM297 1103q0 39 21.5 64.5t58.5 25.5q36 0 59 -25.5 t23 -64.5q0 -34 -23 -59.5t-59 -25.5q-37 0 -58.5 25.5t-21.5 59.5zM616 1105q0 37 21.5 62.5t58.5 25.5q38 0 59.5 -25.5t21.5 -62.5q0 -36 -21.5 -61.5t-59.5 -25.5q-37 0 -58.5 25.5t-21.5 61.5z" />
<glyph unicode="&#x4f6;" horiz-adv-x="731" d="M70 0l259 1219h618l-26 -129h-482l-204 -961h152l-75 -353h-94l21 224h-30h-139z" />
<glyph unicode="&#x4f7;" horiz-adv-x="716" d="M47 209q0 83 36.5 135.5t92 87.5t120 57.5t120.5 45.5t92.5 54t36.5 81q0 56 -30.5 78.5t-105.5 22.5q-66 0 -114 -15t-86 -34l-26 103q56 30 122 43.5t139 13.5q69 0 115.5 -15.5t74 -41.5t39 -61t11.5 -73q0 -83 -36.5 -134.5t-92 -84t-120 -53t-120.5 -45t-92.5 -58.5 t-36.5 -92q0 -61 39 -97.5t104 -36.5t128 24t96 48l44 -77l-82 -306h-104l57 233q-66 -30 -148 -33q-85 0 -138 23.5t-83.5 58.5t-41 75t-10.5 73z" />
<glyph unicode="&#x4f8;" horiz-adv-x="1275" d="M70 12l256 1207h139l-99 -474q28 6 67 10t79 4q71 0 132.5 -19t107 -57.5t70.5 -95t25 -131.5q0 -124 -44 -214.5t-118 -147t-170.5 -82.5t-199.5 -26q-41 0 -109 4q-78 7 -136 22zM233 122q25 -6 53 -8.5t68 -2.5q68 0 131 21t111 61t76.5 101t28.5 143 q0 101 -60.5 148.5t-178.5 47.5q-30 0 -68.5 -5t-57.5 -10zM596 1382q0 35 25 58.5t64 23.5q40 0 63.5 -23.5t23.5 -58.5t-23.5 -57.5t-63.5 -22.5q-39 0 -64 22.5t-25 57.5zM915 1382q0 35 23.5 58.5t63.5 23.5t64.5 -23.5t24.5 -58.5t-24 -57.5t-65 -22.5 q-40 0 -63.5 22.5t-23.5 57.5zM924 0l258 1219h139l-258 -1219h-139z" />
<glyph unicode="&#x4f9;" horiz-adv-x="1111" d="M105 138q0 33 6 60l152 672h131l-82 -342q30 8 78.5 15t88.5 7q127 0 179.5 -51.5t52.5 -134.5q0 -90 -37.5 -160t-98 -118t-135 -72t-151.5 -24q-96 0 -140 40t-44 108zM239 174q0 -33 18 -53t60 -20q52 0 98.5 16.5t81 47t54.5 72.5t20 92q0 53 -29.5 83t-116.5 30 q-71 0 -138 -28l-45 -210q-1 -8 -2 -15.5t-1 -14.5zM470 1103q0 39 21.5 64.5t58.5 25.5q36 0 59 -25.5t23 -64.5q0 -34 -23 -59.5t-59 -25.5q-37 0 -58.5 25.5t-21.5 59.5zM773 0l184 870h131l-184 -870h-131zM789 1105q0 37 21.5 62.5t58.5 25.5q38 0 59.5 -25.5 t21.5 -62.5q0 -36 -21.5 -61.5t-59.5 -25.5q-37 0 -58.5 25.5t-21.5 61.5z" />
<glyph unicode="&#x4fc;" horiz-adv-x="1023" d="M-12 0l515 623l-224 596h153l148 -413l21 -101l59 99l334 415h165l-483 -589l148 -372q64 -160 63 -278q0 -97 -22.5 -164t-62.5 -107t-94 -57.5t-116 -17.5q-14 0 -29.5 1t-31.5 3l27 121h20q101 0 140 52.5t39 151.5q0 44 -18 111t-39 121l-97 242l-23 104l-67 -104 l-357 -437h-168z" />
<glyph unicode="&#x4fd;" horiz-adv-x="842" d="M-38 0l392 445l-187 425h152l104 -240l24 -99l71 99l211 240h161l-370 -418l108 -233q35 -73 45 -128.5t10 -121.5q0 -79 -26.5 -139.5t-70 -102.5t-101.5 -64.5t-121 -22.5q-10 0 -21.5 0.5t-22.5 2.5l23 116q8 -1 14.5 -1h13.5q79 0 130 56.5t51 155.5q0 54 -8.5 96 t-33.5 90l-50 108l-37 98l-69 -98l-232 -264h-160z" />
<glyph unicode="&#x2000;" horiz-adv-x="757" />
<glyph unicode="&#x2001;" horiz-adv-x="1515" />
<glyph unicode="&#x2002;" horiz-adv-x="757" />
<glyph unicode="&#x2003;" horiz-adv-x="1515" />
<glyph unicode="&#x2004;" horiz-adv-x="505" />
<glyph unicode="&#x2005;" horiz-adv-x="378" />
<glyph unicode="&#x2006;" horiz-adv-x="252" />
<glyph unicode="&#x2007;" horiz-adv-x="252" />
<glyph unicode="&#x2008;" horiz-adv-x="189" />
<glyph unicode="&#x2009;" horiz-adv-x="303" />
<glyph unicode="&#x200a;" horiz-adv-x="84" />
<glyph unicode="&#x2013;" horiz-adv-x="1091" d="M196 442l28 118h702l-28 -118h-702z" />
<glyph unicode="&#x2014;" horiz-adv-x="1355" d="M196 442l28 118h967l-28 -118h-967z" />
<glyph unicode="&#x2018;" horiz-adv-x="323" d="M188 1095q0 59 22.5 105t54 78.5t64.5 50.5t54 25l26 -60q-40 -20 -69.5 -54t-36.5 -79q5 2 16 2q26 0 40.5 -21t14.5 -49q0 -50 -25 -75.5t-69 -25.5q-45 0 -68.5 31.5t-23.5 71.5z" />
<glyph unicode="&#x2019;" horiz-adv-x="323" d="M188 930q40 21 69.5 54t38.5 79q-70 5 -70 83q0 21 10 37t24 27t30 16.5t32 5.5q52 0 70.5 -25.5t18.5 -75.5q0 -59 -22.5 -104t-54 -77.5t-64.5 -52.5t-54 -27z" />
<glyph unicode="&#x201a;" horiz-adv-x="328" d="M4 -130q40 21 69.5 54t38.5 79q-70 5 -70 83q0 21 10 37t24 27t30 16.5t32 5.5q52 0 70.5 -25.5t18.5 -75.5q0 -59 -22.5 -104t-54 -77.5t-64.5 -52.5t-54 -27z" />
<glyph unicode="&#x201c;" horiz-adv-x="565" d="M188 1095q0 59 22.5 105t54 78.5t64.5 50.5t54 25l26 -60q-40 -20 -69.5 -54t-36.5 -79q5 2 16 2q26 0 40.5 -21t14.5 -49q0 -50 -25 -75.5t-69 -25.5q-45 0 -68.5 31.5t-23.5 71.5zM430 1095q0 59 22.5 105t54 78.5t64.5 50.5t54 25l26 -60q-40 -20 -69.5 -54t-36.5 -79 q5 2 16 2q26 0 40.5 -21t14.5 -49q0 -50 -25 -75.5t-69 -25.5q-45 0 -68.5 31.5t-23.5 71.5z" />
<glyph unicode="&#x201d;" horiz-adv-x="565" d="M188 930q40 21 69.5 54t38.5 79q-70 5 -70 83q0 21 10 37t24 27t30 16.5t32 5.5q52 0 70.5 -25.5t18.5 -75.5q0 -59 -22.5 -104t-54 -77.5t-64.5 -52.5t-54 -27zM429 930q40 21 69.5 54t38.5 79q-70 5 -70 83q0 21 10 37t24 27t30 16.5t32 5.5q52 0 70.5 -25.5 t18.5 -75.5q0 -59 -22.5 -104t-54 -77.5t-64.5 -52.5t-54 -27z" />
<glyph unicode="&#x201e;" horiz-adv-x="568" d="M4 -130q40 21 69.5 54t38.5 79q-70 5 -70 83q0 21 10 37t24 27t30 16.5t32 5.5q52 0 70.5 -25.5t18.5 -75.5q0 -59 -22.5 -104t-54 -77.5t-64.5 -52.5t-54 -27zM242 -130q40 21 69.5 54t38.5 79q-70 5 -70 83q0 21 10 37t24 27t30 16.5t32 5.5q52 0 70.5 -25.5 t18.5 -75.5q0 -59 -22.5 -104t-54 -77.5t-64.5 -52.5t-54 -27z" />
<glyph unicode="&#x2026;" horiz-adv-x="1254" d="M47 80q0 47 28 74t73 27t73 -26.5t28 -74.5q0 -45 -28 -73t-73 -28t-73 28t-28 73zM467 80q0 47 27.5 74t73.5 27q45 0 72.5 -26.5t27.5 -74.5q0 -45 -27.5 -73t-72.5 -28t-73 28t-28 73zM887 80q0 47 28.5 74t73.5 27t73 -26.5t28 -74.5q0 -45 -28 -73t-73 -28t-73.5 28 t-28.5 73z" />
<glyph unicode="&#x202f;" horiz-adv-x="303" />
<glyph unicode="&#x2039;" horiz-adv-x="490" d="M66 450l348 401l77 -83l-214 -251l-98 -65l58 -67l118 -246l-96 -73z" />
<glyph unicode="&#x203a;" horiz-adv-x="490" d="M65 141l215 253l99 71l-60 73l-118 247l98 66l192 -384l-348 -401z" />
<glyph unicode="&#x205f;" horiz-adv-x="378" />
<glyph unicode="&#x20ac;" d="M10 439l56 114h125q9 67 21 123h-151l55 114h130q41 117 106.5 201.5t143 139.5t161 81.5t162.5 26.5q83 0 141 -14t98 -36l-60 -106q-65 38 -206 38q-47 0 -103.5 -19t-112.5 -59t-106 -103t-87 -150h481l-55 -114h-466q-14 -60 -21 -123h427l-55 -114h-380v-11 q0 -71 15.5 -131t50 -104.5t92.5 -69.5t141 -25q56 0 110.5 15.5t98.5 39.5l24 -105q-30 -21 -65.5 -33.5t-74 -20.5t-75 -11.5t-67.5 -3.5q-94 0 -165.5 32t-119.5 89.5t-72 136t-24 168.5v34h-173z" />
<glyph unicode="&#x2122;" horiz-adv-x="1541" d="M156 1100v119h610v-119h-236v-508h-136v508h-238zM836 592v627h136l182 -293l49 -101h1l53 105l168 289h138v-627h-132v290l17 180h-6l-68 -148l-152 -244h-58l-154 242l-63 150h-7l23 -178v-292h-127z" />
<glyph unicode="&#x25fc;" horiz-adv-x="870" d="M0 0v870h870v-870h-870z" />
</font>
</defs>
</svg>
