<?xml version="1.0" standalone="no"?>
<!DOCTYPE svg PUBLIC "-//W3C//DTD SVG 1.1//EN" "http://www.w3.org/Graphics/SVG/1.1/DTD/svg11.dtd" >
<svg xmlns="http://www.w3.org/2000/svg" xmlns:xlink="http://www.w3.org/1999/xlink" version="1.1">
<metadata></metadata>
<defs>
<font id="pt_sansregular" horiz-adv-x="948" >
<font-face units-per-em="2048" ascent="1577" descent="-471" />
<missing-glyph horiz-adv-x="464" />
<glyph horiz-adv-x="0" />
<glyph unicode="&#xd;" horiz-adv-x="464" />
<glyph unicode=" "  horiz-adv-x="464" />
<glyph unicode="&#x09;" horiz-adv-x="464" />
<glyph unicode="&#xa0;" horiz-adv-x="464" />
<glyph unicode="!" horiz-adv-x="530" d="M191 80q0 47 27.5 74t72.5 27q46 0 74.5 -26.5t28.5 -74.5q0 -45 -28.5 -73t-74.5 -28q-45 0 -72.5 28t-27.5 73zM221 615v604h145v-604l-30 -307h-85z" />
<glyph unicode="&#x22;" horiz-adv-x="583" d="M156 882v337h136l-53 -337h-83zM360 882v337h136l-53 -337h-83z" />
<glyph unicode="#" d="M48 392l25 111h138l53 228h-128l24 111h131l66 276h120l-66 -276h182l67 276h120l-66 -276h133l-27 -111h-132l-55 -228h128l-28 -111h-125l-68 -291h-120l67 291h-183l-67 -291h-121l68 291h-136zM331 503h182l55 228h-183z" />
<glyph unicode="$" d="M133 35l46 127q35 -22 95 -39t148 -18v470q-52 26 -104 55.5t-92 70t-64 96.5t-24 133q0 125 70.5 205.5t213.5 98.5v158h118v-153q88 -3 144.5 -16t102.5 -34l-42 -122q-34 17 -83 30.5t-122 16.5v-430q53 -28 107 -60t97 -74t69 -97.5t26 -130.5q0 -136 -75.5 -224 t-223.5 -112v-160h-118v153q-96 1 -170 16t-119 40zM282 938q0 -74 47.5 -121.5t119.5 -85.5v382q-93 -11 -130 -61.5t-37 -113.5zM512 108q80 12 131 62t51 140q0 42 -14.5 75t-39 59t-57.5 47t-71 40v-423z" />
<glyph unicode="%" horiz-adv-x="1345" d="M121 944q0 78 21 133.5t57 92t85.5 53t107.5 16.5t107 -15.5t85 -50.5t56.5 -91.5t20.5 -137.5q0 -82 -20.5 -138.5t-56.5 -91.5t-85.5 -50.5t-106.5 -15.5q-58 0 -107.5 15.5t-85.5 50.5t-57 91.5t-21 138.5zM214 47l895 1194l85 -66l-893 -1196zM251 944 q0 -105 37 -150t104 -45q33 0 59 9.5t44 31t27.5 59t9.5 95.5q0 57 -9.5 94.5t-27.5 59t-44.5 31t-58.5 9.5q-67 0 -104 -40.5t-37 -153.5zM742 298q0 78 21 133.5t57 92t85.5 53t107.5 16.5t107 -15.5t85 -50.5t56.5 -91.5t20.5 -137.5q0 -82 -20.5 -138.5t-56.5 -91.5 t-85.5 -50.5t-106.5 -15.5q-58 0 -107.5 15.5t-85.5 50.5t-57 91.5t-21 138.5zM872 298q0 -105 37 -150t104 -45q33 0 59 9.5t44 31t27.5 59t9.5 95.5q0 57 -9.5 94.5t-27.5 59t-44.5 31t-58.5 9.5q-67 0 -104 -40.5t-37 -153.5z" />
<glyph unicode="&#x26;" horiz-adv-x="1416" d="M206 326q0 69 24 132.5t65.5 117.5t95 99.5t111.5 80.5q-42 63 -72.5 125.5t-30.5 135.5q0 41 14 81t44 71.5t78 50.5t116 19q71 0 120 -18t78.5 -47.5t42.5 -66t13 -75.5q0 -73 -56.5 -150.5t-178.5 -148.5q28 -50 65.5 -103.5t79.5 -105.5t85.5 -103.5t86.5 -94.5 q19 21 38.5 53t37.5 67.5t33 73.5t27 73l108 -50q-10 -30 -29.5 -70.5t-43 -83t-48 -82t-45.5 -65.5q37 -35 66.5 -60.5t54.5 -43.5t49 -33t48 -29l-87 -97q-93 45 -211 162q-31 -31 -68.5 -60t-84.5 -51.5t-103.5 -36.5t-124.5 -14q-81 0 -154 23t-127 67t-85.5 108.5 t-31.5 148.5zM345 329q0 -54 22.5 -96.5t61.5 -71t90 -44.5t106 -16q43 0 84.5 11t78 28.5t66.5 40t50 47.5q-51 50 -99.5 109.5t-93.5 118.5t-82 114t-63 96q-47 -34 -87 -71t-71 -77.5t-47 -87.5t-16 -101zM535 1017q0 -52 21.5 -103.5t56.5 -102.5q93 59 128 108t35 86 q0 56 -27 90.5t-93 34.5q-63 0 -92 -31.5t-29 -81.5z" />
<glyph unicode="'" horiz-adv-x="379" d="M156 882v337h136l-53 -337h-83z" />
<glyph unicode="(" horiz-adv-x="487" d="M105 423q0 96 15.5 202t50.5 213t91.5 210t137.5 191l84 -61q-70 -88 -116 -183t-74 -192.5t-39 -194t-11 -185.5q0 -83 12.5 -181.5t41.5 -197t75.5 -192.5t110.5 -171l-89 -64q-80 83 -135.5 183.5t-89.5 205.5t-49.5 212.5t-15.5 204.5z" />
<glyph unicode=")" horiz-adv-x="487" d="M3 -322q70 88 117 184t74 193.5t38.5 193.5t11.5 185q0 83 -14 180.5t-43 196.5t-74 193t-110 171l90 64q80 -83 135.5 -183.5t89.5 -205.5t49.5 -212t15.5 -204t-15.5 -203t-50.5 -212.5t-91.5 -209.5t-138.5 -192z" />
<glyph unicode="*" horiz-adv-x="610" d="M70 963v97h86l108 -20l-78 76l-45 80l85 48l43 -73l32 -97l36 99l42 70l84 -45l-45 -75l-81 -83l119 20h84v-97h-80l-112 20l80 -83l40 -68l-81 -48l-46 73l-40 106l-33 -101l-44 -73l-86 48l46 73l74 73l-102 -20h-86z" />
<glyph unicode="+" horiz-adv-x="878" d="M70 525v126h306v315h126v-315h306v-126h-306v-313h-126v313h-306z" />
<glyph unicode="," horiz-adv-x="391" d="M73 -191q63 24 93 75t30 104q-15 -5 -29 -5q-34 0 -58 23.5t-24 68.5q0 41 28 67.5t71 26.5q54 0 88 -38t34 -111q0 -63 -17.5 -110.5t-45 -81.5t-60.5 -55.5t-67 -31.5z" />
<glyph unicode="-" horiz-adv-x="626" d="M103 437v129h421v-129h-421z" />
<glyph unicode="." horiz-adv-x="372" d="M85 80q0 47 27 74t72 27q47 0 75 -26.5t28 -74.5q0 -45 -28 -73t-75 -28q-45 0 -72 28t-27 73z" />
<glyph unicode="/" horiz-adv-x="615" d="M-65 -195l636 1434l110 -48l-636 -1435z" />
<glyph unicode="0" d="M75 609q0 314 102 472t296 158q211 0 306 -155.5t95 -474.5q0 -313 -102 -471.5t-299 -158.5q-207 0 -302.5 165.5t-95.5 464.5zM219 609q0 -113 15 -206t46.5 -160t79 -104.5t113.5 -37.5q133 0 194.5 123t61.5 385q0 112 -13 206t-43 162t-79 104.5t-121 36.5 q-130 0 -192 -124t-62 -385z" />
<glyph unicode="1" d="M122 944l383 295h63v-1110h238v-129h-618v129h244v843l17 102l-70 -82l-191 -137z" />
<glyph unicode="2" d="M108 0v50q38 40 92 99.5t112.5 132t115 153t102.5 164.5t74 165.5t28 154.5q0 85 -48.5 142t-148.5 57q-66 0 -128.5 -27.5t-108.5 -62.5l-57 100q61 52 144.5 81.5t179.5 29.5q75 0 132 -21.5t97 -61.5t61 -95t21 -119q0 -93 -33.5 -189.5t-88.5 -193.5t-123 -190.5 t-136 -177.5l-85 -75v-6l112 19h379v-129h-693z" />
<glyph unicode="3" d="M153 23l37 123q40 -19 94.5 -32t122.5 -13q60 0 110.5 17.5t87 51.5t57.5 81t21 103q0 121 -72.5 180t-199.5 59h-129v51l251 386l80 78l-113 -18h-345v129h621v-51l-276 -416l-61 -51v-3l59 13q70 -2 129 -26t102.5 -68t68 -106t24.5 -140q0 -95 -33 -167.5 t-89.5 -122.5t-133.5 -76t-162 -26q-78 0 -140.5 12t-110.5 32z" />
<glyph unicode="4" d="M35 374v58l578 806h93v-742h206v-122h-206v-374h-135v374h-536zM193 482l122 14h256v380l17 142h-5l-61 -118l-245 -332z" />
<glyph unicode="5" d="M134 14l37 119q40 -16 86 -24t114 -8q119 0 198 70t79 201q0 128 -77.5 190.5t-213.5 62.5l-146 -9v603h543v-129h-413v-347l75 4q172 -2 271.5 -96t99.5 -269q0 -98 -33 -173.5t-89.5 -126.5t-133 -77t-164.5 -26q-78 0 -132 9t-101 26z" />
<glyph unicode="6" d="M105 409q0 172 44 317.5t122.5 253.5t185.5 175t232 84l30 -111q-98 -17 -177.5 -66t-140 -120.5t-99 -160t-51.5 -182.5q28 47 94 86t162 39q164 0 257 -94t93 -263q0 -80 -24.5 -150.5t-71.5 -123.5t-116.5 -83.5t-159.5 -30.5q-86 0 -156 28t-120.5 82.5t-77 134.5 t-26.5 185zM241 392q0 -54 14 -106.5t45.5 -93.5t78 -66t108.5 -25q50 0 91.5 19t71 52.5t46 80.5t16.5 101q0 123 -57.5 186t-177.5 63q-85 0 -147 -42.5t-86 -93.5q-3 -25 -3 -40.5v-34.5z" />
<glyph unicode="7" d="M106 1090v129h728v-48l-502 -1171h-141l437 1020l77 85l-102 -15h-497z" />
<glyph unicode="8" d="M118 291q0 109 57.5 190.5t179.5 146.5q-43 26 -80.5 55t-66.5 65.5t-45.5 82t-16.5 104.5q0 68 23.5 123.5t68 95.5t106 62.5t140.5 22.5q73 0 132.5 -20.5t100 -57t63 -87.5t22.5 -111q0 -99 -45 -175t-149 -149q45 -26 85.5 -57.5t71.5 -70t48 -86.5t17 -108 q0 -75 -24 -137t-71 -106t-115 -69.5t-155 -25.5q-83 0 -148 24.5t-109 66t-67 98t-23 123.5zM254 308q0 -42 14 -80t41.5 -66t69 -44.5t94.5 -16.5q44 0 84 13.5t70.5 38.5t48.5 64t18 91t-20.5 91.5t-54.5 71.5t-77.5 58t-91.5 51q-106 -60 -151 -133t-45 -139zM282 938 q0 -48 19 -86t51.5 -67t74 -54.5t86.5 -47.5q79 61 116 120t37 130q0 89 -54.5 137t-131.5 48q-46 0 -83 -16t-63 -40t-39 -56.5t-13 -67.5z" />
<glyph unicode="9" d="M90 849q0 83 24.5 155t71.5 124.5t117.5 81.5t164.5 29q178 0 277 -114.5t99 -323.5q0 -197 -44 -344t-122.5 -248t-185.5 -157.5t-233 -72.5l-31 111q101 15 182 59t139.5 110.5t95 151t49.5 182.5q-46 -56 -102.5 -77t-149.5 -21q-71 0 -134.5 23t-112.5 68.5 t-77 111.5t-28 151zM235 864q0 -124 65.5 -186t171.5 -62q85 0 146 28t87 73q3 23 3.5 40t0.5 37q0 63 -15 121t-44.5 104t-77.5 72.5t-112 26.5q-106 0 -165.5 -67.5t-59.5 -186.5z" />
<glyph unicode=":" horiz-adv-x="380" d="M158 80q0 47 27 74t73 27t74 -26.5t28 -74.5q0 -45 -28 -73t-74 -28t-73 28t-27 73zM158 782q0 47 27 73.5t73 26.5t74 -26.5t28 -73.5q0 -45 -28 -73t-74 -28t-73 28t-27 73z" />
<glyph unicode=";" horiz-adv-x="445" d="M143 -191q63 24 93 75t30 104q-15 -5 -29 -5q-35 0 -58.5 23.5t-23.5 68.5q0 41 28 67.5t71 26.5q54 0 88 -38t34 -111q0 -63 -17.5 -110.5t-45 -81.5t-61 -55.5t-66.5 -31.5zM167 782q0 47 27 73.5t72 26.5q47 0 75 -26.5t28 -73.5q0 -45 -27.5 -73t-75.5 -28 q-45 0 -72 28t-27 73z" />
<glyph unicode="&#x3c;" horiz-adv-x="878" d="M73 531v50l658 402l66 -107l-412 -253l-159 -66l157 -55l423 -251l-66 -105z" />
<glyph unicode="=" horiz-adv-x="878" d="M70 382v125h738v-125h-738zM70 670v126h738v-126h-738z" />
<glyph unicode="&#x3e;" horiz-adv-x="878" d="M73 877l66 106l667 -384v-51l-658 -402l-66 106l413 253l158 66l-157 55z" />
<glyph unicode="?" horiz-adv-x="758" d="M65 1153q66 40 139 63t181 23q77 0 135 -21.5t97 -60t58 -90.5t19 -112q0 -78 -23 -136t-59 -106t-76.5 -90t-76.5 -88t-59.5 -99.5t-23.5 -127.5h-115q-2 8 -2 18.5v20.5q0 73 22 128.5t54 101.5t69.5 86t70 81t54 87t21.5 106q0 80 -46 130.5t-154 50.5 q-63 0 -127.5 -22t-111.5 -51zM226 80q0 47 27 74t73 27t74 -26.5t28 -74.5q0 -45 -28 -73t-74 -28t-73 28t-27 73z" />
<glyph unicode="@" horiz-adv-x="1852" d="M151 411q0 189 65.5 342.5t177 261.5t259.5 166t313 58q157 0 291 -45.5t232.5 -132t155 -211t56.5 -282.5q0 -112 -38.5 -214t-104 -178.5t-152.5 -122.5t-184 -46q-73 0 -116.5 31.5t-43.5 116.5q0 15 1.5 33.5t4.5 39.5h-6q-25 -40 -57.5 -79t-73.5 -70.5t-87.5 -51.5 t-96.5 -20q-41 0 -80 18t-66.5 53t-44 83t-16.5 108q0 112 36.5 220t98 191.5t144.5 135t175 51.5q64 0 102.5 -19t74.5 -47l60 54h59l-89 -500q-8 -45 -12.5 -80.5t-4.5 -63.5q0 -44 14.5 -63.5t51.5 -19.5q59 0 117 31t103.5 88t74 138.5t28.5 182.5q0 134 -45 236.5 t-127 173t-195 107t-249 36.5q-141 0 -265 -52t-215.5 -144.5t-144.5 -221t-53 -280.5q0 -154 47.5 -276t136.5 -206t212.5 -127.5t274.5 -43.5q50 0 115 11.5t117 37.5l35 -111q-78 -34 -144.5 -45t-142.5 -11q-162 0 -304 48.5t-247 144t-166.5 237.5t-61.5 329zM676 292 q0 -68 27.5 -115.5t100.5 -47.5q35 0 72.5 22.5t74 61.5t69.5 88t60 99l51 284q-29 35 -58.5 48t-74.5 13q-68 0 -127.5 -41t-102 -106t-67.5 -146t-25 -160z" />
<glyph unicode="A" horiz-adv-x="1018" d="M14 0l461 1238h66l464 -1238h-152l-125 337h-449l-123 -337h-142zM326 463h358l-136 371l-43 184h-2l-43 -188z" />
<glyph unicode="B" horiz-adv-x="1016" d="M148 8v1200q64 10 149.5 17t186.5 7q68 0 138.5 -11t128 -43t94.5 -90t37 -148q0 -43 -13.5 -88.5t-41.5 -84.5t-71.5 -69t-102.5 -45v-7q52 -8 100 -29.5t84.5 -58t59 -88.5t22.5 -123q0 -95 -39 -163.5t-102.5 -112t-145.5 -64.5t-167 -21h-70t-83.5 3t-87 7t-76.5 12z M292 123q12 -3 35 -5t49 -3.5t53.5 -2.5t49.5 -1q56 0 108 13.5t92 42t63.5 70.5t23.5 99q0 71 -28.5 115t-75 68t-103.5 32.5t-115 8.5h-152v-437zM292 683h91q30 0 71.5 1.5t69.5 4.5q41 14 78 34t65.5 47t45 63t16.5 77q0 58 -21.5 95.5t-58 60t-84 32.5t-95.5 10 q-58 0 -105.5 -3t-72.5 -9v-413z" />
<glyph unicode="C" horiz-adv-x="993" d="M98 609q0 171 46 290t121.5 195t170 110.5t190.5 34.5q105 0 171.5 -11t112.5 -30l-34 -127q-84 40 -238 40q-72 0 -141.5 -26.5t-124.5 -85.5t-88 -154.5t-33 -235.5q0 -125 31.5 -219t86 -156.5t128.5 -94t161 -31.5q78 0 136.5 15.5t98.5 40.5l35 -114 q-52 -40 -132 -55.5t-171 -15.5q-110 0 -205.5 37.5t-167 114t-113 195.5t-41.5 283z" />
<glyph unicode="D" horiz-adv-x="1138" d="M148 -2v1221q33 5 74 7.5t85.5 3.5t87 1.5t78.5 0.5q147 0 254 -45t176.5 -126t103.5 -194t34 -249q0 -123 -32 -237.5t-102 -202.5t-181 -140.5t-270 -52.5q-28 0 -72.5 0.5t-91 3.5t-86.5 4.5t-58 4.5zM292 120q9 -2 33.5 -3t50.5 -1.5t50 -1.5t34 -1q121 0 204 41.5 t132.5 112t70 162t20.5 189.5q0 85 -19 171.5t-65.5 156t-126 113.5t-199.5 44h-50t-53 -1.5t-48 -3.5t-34 -3v-975z" />
<glyph unicode="E" horiz-adv-x="932" d="M148 0v1219h663v-129h-519v-399h476v-128h-476v-434h528v-129h-672z" />
<glyph unicode="F" horiz-adv-x="899" d="M148 0v1219h663v-129h-519v-416h484v-129h-484v-545h-144z" />
<glyph unicode="G" horiz-adv-x="1065" d="M98 609q0 170 48.5 289.5t127 195.5t176 110.5t194.5 34.5q105 0 172.5 -11t115.5 -30l-37 -127q-83 40 -239 40q-73 0 -145 -25.5t-129.5 -84.5t-94 -154.5t-36.5 -237.5q0 -129 29.5 -223t82.5 -155.5t128 -92t163 -30.5q112 0 190 43v340l-286 34v83h410v-537 q-28 -21 -67 -38.5t-83.5 -29t-92.5 -18t-93 -6.5q-117 0 -214.5 37.5t-168.5 115t-111 196.5t-40 281z" />
<glyph unicode="H" horiz-adv-x="1169" d="M148 0v1219h144v-531h585v531h145v-1219h-145v558h-585v-558h-144z" />
<glyph unicode="I" horiz-adv-x="505" d="M181 0v1219h145v-1219h-145z" />
<glyph unicode="J" horiz-adv-x="505" d="M-60 10l29 124q48 -23 106 -23q73 0 96.5 51.5t23.5 140.5v916h144v-951q0 -140 -61.5 -212.5t-187.5 -72.5q-14 0 -34.5 1.5t-41.5 5t-41 8.5t-33 12z" />
<glyph unicode="K" horiz-adv-x="1061" d="M148 0v1219h144v-568l79 25l409 543h167l-407 -525l-73 -56l88 -70l446 -568h-182l-445 564h-82v-564h-144z" />
<glyph unicode="L" horiz-adv-x="899" d="M148 0v1219h144v-1090h577v-129h-721z" />
<glyph unicode="M" horiz-adv-x="1376" d="M148 0v1219h108l382 -624l56 -135h4l54 139l364 620h113v-1219h-144v819l17 182h-9l-66 -167l-316 -550h-45l-335 552l-63 165h-9l25 -181v-820h-136z" />
<glyph unicode="N" horiz-adv-x="1171" d="M148 0v1238h76l584 -813l90 -167h9l-20 167v794h136v-1239h-76l-580 817l-93 176h-8l18 -176v-797h-136z" />
<glyph unicode="O" horiz-adv-x="1190" d="M98 609q0 305 128.5 467.5t366.5 162.5q129 0 223 -45t156 -128t91.5 -198.5t29.5 -258.5q0 -304 -129.5 -467t-370.5 -163q-127 0 -220 45.5t-155 128t-91 198.5t-29 258zM251 609q0 -101 20 -191.5t61.5 -159t107 -109.5t153.5 -41q162 0 254.5 123t92.5 378 q0 100 -20 191.5t-63 159.5t-108 109.5t-156 41.5q-159 0 -250.5 -123t-91.5 -379z" />
<glyph unicode="P" horiz-adv-x="972" d="M148 0v1206q66 15 142.5 20.5t151.5 5.5q80 0 163 -15.5t151 -57t110.5 -114.5t42.5 -187q0 -111 -40 -188t-106.5 -124.5t-152 -68.5t-175.5 -21h-28t-42 1t-43 3t-30 3v-463h-144zM292 592q9 -4 28 -5t40.5 -1.5t40.5 -0.5h27q60 0 118 11.5t105 40.5t76 83t29 138 q0 72 -27.5 119.5t-71.5 76.5t-99.5 41.5t-112.5 12.5q-45 0 -86.5 -2.5t-66.5 -9.5v-504z" />
<glyph unicode="Q" horiz-adv-x="1190" d="M98 609q0 305 128.5 467.5t366.5 162.5q129 0 223 -45t156 -128t91.5 -198.5t29.5 -258.5q0 -304 -129.5 -467t-370.5 -163q-127 0 -220 45.5t-155 128t-91 198.5t-29 258zM251 609q0 -101 20 -191.5t61.5 -159t107 -109.5t153.5 -41q162 0 254.5 123t92.5 378 q0 100 -20 191.5t-63 159.5t-108 109.5t-156 41.5q-159 0 -250.5 -123t-91.5 -379zM369 -85q25 5 47.5 8.5t46.5 3.5q73 0 145.5 -18.5t147 -40t153 -40t165.5 -18.5q77 0 152 17v-125q-42 -11 -82.5 -16t-80.5 -5q-86 0 -169 18.5t-160.5 40t-149 40t-135.5 18.5 q-42 0 -80 -10v127z" />
<glyph unicode="R" horiz-adv-x="1035" d="M148 0v1206q66 12 152.5 19t157.5 7q80 0 152.5 -17t127 -57t87.5 -104.5t33 -156.5q0 -143 -78.5 -232t-198.5 -118l84 -65l303 -482h-169l-336 525l-171 27v-552h-144zM292 648h136q120 0 198.5 59t78.5 185q0 94 -64.5 155t-178.5 61h-47.5t-47 -2.5t-43 -4 t-32.5 -5.5v-448z" />
<glyph unicode="S" horiz-adv-x="923" d="M80 43l49 131q40 -23 118.5 -44.5t175.5 -21.5q58 0 108 11.5t86.5 36.5t58.5 63.5t22 90.5q0 73 -43.5 119t-109 82t-142 67t-142 75.5t-108.5 110t-43 166.5q0 143 99 226t282 83q107 0 193.5 -15.5t135.5 -39.5l-44 -127q-40 19 -117.5 36.5t-174.5 17.5 q-115 0 -172.5 -51.5t-57.5 -121.5q0 -68 43.5 -113t109 -80.5t142 -70.5t142 -81t108.5 -110.5t43 -160.5q0 -78 -27.5 -141t-81.5 -108t-131 -69.5t-174 -24.5q-130 0 -215 20.5t-133 43.5z" />
<glyph unicode="T" horiz-adv-x="965" d="M31 1090v129h904v-129h-380v-1090h-144v1090h-380z" />
<glyph unicode="U" horiz-adv-x="1134" d="M148 377v842h144v-774q0 -92 18.5 -155.5t55 -102.5t91.5 -56.5t128 -17.5q141 0 201.5 77.5t60.5 254.5v774h140v-814q0 -109 -28.5 -189t-81.5 -131.5t-128 -75.5t-166 -24q-216 0 -325.5 97t-109.5 295z" />
<glyph unicode="V" horiz-adv-x="988" d="M-3 1219h158l310 -837l42 -186h1l45 189l294 834h145l-461 -1239h-64z" />
<glyph unicode="W" horiz-adv-x="1440" d="M14 1219h153l220 -817l27 -201h2l29 204l251 814h70l252 -817l30 -201h2l31 204l205 814h141l-339 -1239h-80l-247 817l-32 185h-8l-32 -186l-247 -816h-80z" />
<glyph unicode="X" horiz-adv-x="1075" d="M45 0l405 620l-370 599h174l248 -413l43 -100l41 100l261 413h161l-383 -587l400 -632h-168l-276 437l-46 104l-46 -104l-282 -437h-162z" />
<glyph unicode="Y" horiz-adv-x="970" d="M14 1219h169l285 -533l30 -106h2l31 109l273 530h155l-399 -734v-485h-144v484z" />
<glyph unicode="Z" d="M66 0v131l615 889l73 70h-688v129h818v-131l-618 -895l-73 -64h691v-129h-818z" />
<glyph unicode="[" horiz-adv-x="528" d="M148 -400v1619h315v-123h-179v-1375h179v-121h-315z" />
<glyph unicode="\" horiz-adv-x="661" d="M-65 1191l117 48l642 -1432l-114 -51z" />
<glyph unicode="]" horiz-adv-x="528" d="M66 -279h181v1375h-181v123h317v-1619h-317v121z" />
<glyph unicode="^" horiz-adv-x="870" d="M83 757l324 481h51l294 -481h-143l-139 235l-40 121l-54 -123l-160 -233h-133z" />
<glyph unicode="_" horiz-adv-x="709" d="M0 -235h711v-122h-711v122z" />
<glyph unicode="`" horiz-adv-x="487" d="M105 1217v37h164l114 -260h-79z" />
<glyph unicode="a" horiz-adv-x="862" d="M68 233q0 76 31.5 127.5t88 82t135.5 44t175 13.5h48.5t46.5 -4q5 52 6 94q0 96 -38.5 134t-138.5 38q-30 0 -64 -4t-70 -12t-68 -19t-56 -26l-44 105q66 40 154 59t184 19q90 0 145 -24t84 -63.5t38 -86.5t9 -94q0 -104 -5 -203t-5 -189q0 -64 5 -121.5t20 -105.5h-103 l-37 121h-8q-15 -24 -39 -47.5t-57 -42t-76.5 -30.5t-99.5 -12t-103.5 17.5t-82.5 49.5t-55 77.5t-20 102.5zM212 247q0 -61 43.5 -100t111.5 -39q49 0 87.5 13t66 33t46 44.5t26.5 47.5v144q-24 2 -49.5 3t-48.5 1q-54 0 -106 -6t-91 -23t-62.5 -45.5t-23.5 -72.5z" />
<glyph unicode="b" horiz-adv-x="939" d="M134 50v1169h140v-434h6q40 51 102 79t135 28q169 0 253.5 -108t84.5 -335q0 -228 -111.5 -346t-313.5 -118q-98 0 -177 20.5t-119 44.5zM274 144q33 -19 79.5 -28.5t96.5 -9.5q119 0 190 84t71 260q0 68 -12.5 128t-39 101.5t-67 65.5t-99.5 24q-87 0 -141 -48.5 t-78 -137.5v-439z" />
<glyph unicode="c" horiz-adv-x="784" d="M85 435q0 221 97.5 339t280.5 118q84 0 142 -13.5t106 -37.5l-41 -120q-40 23 -88.5 35.5t-104.5 12.5q-247 0 -247 -334q0 -66 13 -126t43.5 -106.5t80 -74t122.5 -27.5q63 0 112.5 19t81.5 44l45 -106q-52 -38 -123.5 -58.5t-149.5 -20.5q-101 0 -171 32t-114.5 92.5 t-64.5 144.5t-20 187z" />
<glyph unicode="d" horiz-adv-x="935" d="M85 432q0 222 105.5 338t289.5 116q65 0 102.5 -7t80.5 -22v362h139v-920q0 -88 2 -160.5t16 -141.5h-94l-35 123h-7q-35 -61 -101 -101t-155 -40q-174 0 -258.5 109.5t-84.5 343.5zM230 432q0 -72 11 -132.5t37 -104.5t68.5 -69t103.5 -25q89 0 141.5 46t71.5 140v432 q-31 25 -71 35t-107 10q-119 0 -187 -79t-68 -253z" />
<glyph unicode="e" horiz-adv-x="884" d="M85 435q0 223 99.5 340t283.5 117q60 0 119 -13.5t106 -50t76.5 -103.5t29.5 -177q0 -58 -10 -126h-559q0 -77 15.5 -136.5t48.5 -100.5t86.5 -62.5t129.5 -21.5q60 0 119 21t88 49l52 -101q-52 -42 -131.5 -66.5t-167.5 -24.5q-99 0 -172.5 32t-120 92.5t-69.5 144 t-23 187.5zM231 531h432q0 133 -50 185.5t-143 52.5q-103 0 -164.5 -54t-74.5 -184z" />
<glyph unicode="f" horiz-adv-x="555" d="M38 749v121h136v49q0 80 13.5 139.5t42.5 97t76.5 55.5t116.5 18q56 0 98.5 -6.5t89.5 -26.5l-31 -116q-40 16 -76 22t-67 6q-45 0 -70.5 -14t-36.5 -41.5t-13.5 -66.5t-2.5 -91v-25h231v-121h-231v-749h-140v749h-136z" />
<glyph unicode="g" horiz-adv-x="934" d="M85 432q0 222 106.5 338t313.5 116q99 0 169.5 -15.5t126.5 -36.5v-874q0 -169 -90 -249t-266 -80q-104 0 -167.5 13t-108.5 34l37 118q40 -15 88.5 -29t127.5 -14q73 0 118.5 13t74 43.5t38.5 78t10 114.5v83h-7q-35 -50 -89 -77.5t-140 -27.5q-176 0 -259 110.5 t-83 341.5zM230 434q0 -74 12 -134.5t38 -104.5t67.5 -68t102.5 -24q89 0 140 44t71 139v445q-69 33 -177 33q-118 0 -186 -80t-68 -250z" />
<glyph unicode="h" horiz-adv-x="952" d="M134 0v1219h140v-446h6q46 53 109 86t158 33q73 0 127 -17t89.5 -59t52 -112.5t16.5 -178.5v-525h-139v496q0 68 -8 119t-28.5 85t-56.5 51.5t-93 17.5q-82 0 -148.5 -53t-84.5 -136v-580h-140z" />
<glyph unicode="i" horiz-adv-x="465" d="M134 1135q0 40 27 68.5t69 28.5q41 0 71 -28.5t30 -68.5t-30 -66t-71 -26q-42 0 -69 26t-27 66zM164 0v870h139v-870h-139z" />
<glyph unicode="j" horiz-adv-x="464" d="M15 -247q49 0 78 14.5t44.5 46t20 79t4.5 112.5v865h139v-917q0 -161 -55.5 -241.5t-177.5 -80.5q-14 0 -26 1t-27 2v119zM133 1135q0 40 26.5 68.5t68.5 28.5q41 0 71 -28.5t30 -68.5t-30 -66t-71 -26q-42 0 -68.5 26t-26.5 66z" />
<glyph unicode="k" horiz-adv-x="833" d="M134 0v1219h140v-742l71 25l270 368h161l-266 -350l-71 -57l86 -69l292 -394h-173l-290 392h-80v-392h-140z" />
<glyph unicode="l" horiz-adv-x="508" d="M150 174v1045h139v-1005q0 -61 21 -87t59 -26q23 0 49 3.5t59 15.5l16 -110q-28 -13 -77.5 -22t-86.5 -9q-78 0 -128.5 44.5t-50.5 150.5z" />
<glyph unicode="m" horiz-adv-x="1412" d="M134 0v870h97l27 -106h6q47 56 109 92t162 36q83 0 136 -32.5t83 -112.5q40 68 110.5 106.5t158.5 38.5q73 0 124 -17t84 -59t48 -113t15 -181v-522h-140v524q0 62 -6 108.5t-24.5 77t-50.5 45t-84 14.5q-87 0 -136 -48.5t-69 -139.5v-581h-140v493q0 70 -6 121 t-23.5 85.5t-49.5 52t-85 17.5q-80 0 -133 -48.5t-73 -121.5v-599h-140z" />
<glyph unicode="n" horiz-adv-x="952" d="M134 0v870h97l27 -106h6q42 56 112.5 92t168.5 36q71 0 125 -17t90 -59t54 -112.5t18 -178.5v-525h-139v496q0 136 -39 204.5t-144 68.5q-93 0 -152.5 -49.5t-83.5 -124.5v-595h-140z" />
<glyph unicode="o" horiz-adv-x="932" d="M85 435q0 221 98.5 339t283.5 118q97 0 169.5 -32.5t119 -93t69 -144.5t22.5 -187q0 -221 -98 -338.5t-282 -117.5q-98 0 -170.5 32t-119 92.5t-69.5 144.5t-23 187zM230 435q0 -66 13 -127t41 -106.5t73 -73t110 -27.5h3q233 0 233 331q0 71 -13 132t-41 106.5t-73 72 t-109 26.5h-3q-234 0 -234 -334z" />
<glyph unicode="p" horiz-adv-x="940" d="M134 -348v1218h96l26 -104h7q40 61 103.5 93.5t145.5 32.5q174 0 259.5 -103t85.5 -337q0 -109 -29 -197t-81.5 -149t-126 -94t-164.5 -33q-64 0 -101.5 8t-80.5 27v-362h-140zM274 151q31 -24 71 -37t105 -13q120 0 191 89.5t71 264.5q0 71 -12 129.5t-39.5 99t-70 63 t-105.5 22.5q-88 0 -139.5 -46t-71.5 -140v-432z" />
<glyph unicode="q" horiz-adv-x="934" d="M85 432q0 224 108 339t315 115q93 0 173.5 -17.5t119.5 -36.5v-1180h-140v435h-7q-34 -52 -87.5 -80t-139.5 -28q-175 0 -258.5 111t-83.5 342zM230 434q0 -74 12 -135.5t38 -105t67.5 -68t102.5 -24.5q89 0 140 45t71 140v445q-64 33 -177 33q-120 0 -187 -80.5 t-67 -249.5z" />
<glyph unicode="r" horiz-adv-x="591" d="M134 0v870h97l27 -106h6q34 60 80 91.5t118 31.5q50 0 113 -17l-30 -134q-52 17 -100 18q-74 0 -117.5 -41t-53.5 -104v-609h-140z" />
<glyph unicode="s" horiz-adv-x="732" d="M68 43l42 119q40 -23 104.5 -42t130.5 -19q75 0 123.5 30t48.5 106q0 52 -31 81.5t-77.5 49.5t-101.5 38.5t-101 47t-77 74t-31 121.5q0 125 71.5 184t197.5 59q95 0 158 -17t111 -39l-33 -115q-40 19 -97 33.5t-121 14.5q-76 0 -112 -26t-36 -90q0 -45 31 -70.5 t77.5 -45.5t101.5 -39t100.5 -50.5t77 -79.5t31.5 -126q0 -56 -18 -105t-56.5 -83t-95 -54.5t-132.5 -20.5q-100 0 -169.5 19t-116.5 45z" />
<glyph unicode="t" horiz-adv-x="589" d="M20 749v121h135v173l139 40v-213h237v-121h-237v-483q0 -90 22.5 -127.5t77.5 -37.5q45 0 76.5 9.5t69.5 25.5l31 -106q-47 -23 -103 -37t-120 -14q-106 0 -149.5 60t-43.5 202v508h-135z" />
<glyph unicode="u" horiz-adv-x="937" d="M120 345v525h139v-496q0 -68 8 -119t27.5 -85t52 -51.5t83.5 -17.5q47 0 83.5 15t65.5 41t50.5 60t35.5 72v581h139v-623q0 -63 4.5 -130t15.5 -117h-96l-35 138h-9q-40 -68 -108 -113.5t-172 -45.5q-70 0 -123 16.5t-89 58.5t-54 112.5t-18 178.5z" />
<glyph unicode="v" horiz-adv-x="838" d="M15 870h161l209 -510l49 -165h1l44 169l195 506h150l-372 -890h-58z" />
<glyph unicode="w" horiz-adv-x="1279" d="M14 870h152l171 -506l30 -169h2l42 172l186 503h101l200 -508l44 -167h3l33 171l155 504h133l-293 -890h-68l-228 575l-33 143h-5l-35 -145l-219 -573h-68z" />
<glyph unicode="x" horiz-adv-x="895" d="M48 0l314 445l-292 425h171l164 -240l50 -99l50 99l169 240h156l-294 -418l311 -452h-164l-185 264l-53 105l-53 -105l-188 -264h-156z" />
<glyph unicode="y" horiz-adv-x="810" d="M21 870h160l209 -564l49 -167h8l38 169l169 562h142l-258 -782q-30 -85 -59 -164.5t-63 -142.5t-78 -100.5t-101 -37.5q-63 0 -103 18l24 120q23 -9 44 -9q49 0 94 51.5t75 176.5z" />
<glyph unicode="z" horiz-adv-x="777" d="M73 0v122l402 554l73 73h-475v121h620v-121l-406 -559l-71 -68h477v-122h-620z" />
<glyph unicode="{" horiz-adv-x="601" d="M99 348v122q67 0 103.5 35t36.5 111v422q0 81 40.5 132t124.5 51h148v-123h-87q-47 0 -69 -23.5t-22 -79.5v-412q0 -76 -36.5 -116t-85.5 -49v-11q47 -7 84.5 -53t37.5 -119v-411q0 -54 21 -78.5t72 -24.5h85v-121h-148q-78 0 -121.5 46t-43.5 135v414q0 88 -36.5 120.5 t-103.5 32.5z" />
<glyph unicode="|" horiz-adv-x="413" d="M148 -226v1445h118v-1445h-118z" />
<glyph unicode="}" horiz-adv-x="601" d="M96 -279h87q47 0 69 24t22 79v413q0 77 35.5 117t84.5 48v10q-47 7 -83.5 53.5t-36.5 119.5v410q0 54 -21.5 78.5t-69.5 24.5h-87v123h150q76 0 119.5 -46.5t43.5 -134.5v-415q0 -89 36.5 -121t102.5 -32v-122q-66 0 -102.5 -35t-36.5 -111v-422q0 -81 -41 -131.5 t-124 -50.5h-148v121z" />
<glyph unicode="~" horiz-adv-x="878" d="M54 628q74 58 135.5 80.5t111.5 22.5q48 0 90.5 -15t80.5 -33t74.5 -32.5t76.5 -14.5q33 0 68 13.5t75 48.5l59 -106q-66 -45 -119 -63.5t-97 -18.5q-46 0 -85.5 15t-75.5 33t-71.5 33t-77.5 15q-40 0 -85 -18t-101 -64z" />
<glyph unicode="&#xa2;" d="M151 435q0 201 83 316.5t236 134.5v159h123v-155q61 -3 108.5 -16.5t85.5 -32.5l-40 -119q-35 18 -78 30t-88 16v-667q57 4 102 22t74 41l45 -106q-41 -30 -94.5 -48t-114.5 -25v-159h-123v157q-87 9 -147 44.5t-98.5 93.5t-56 138t-17.5 176zM296 435q0 -58 9.5 -111 t32 -97t59.5 -75.5t90 -43.5v656q-191 -36 -191 -329z" />
<glyph unicode="&#xa3;" d="M87 0v125q56 0 95 20.5t64 52.5t37.5 73t12.5 83q0 57 -11 103t-29 88h-169v121h115q-21 45 -35 99.5t-14 127.5q0 171 97.5 258.5t266.5 87.5q106 0 184.5 -15.5t128.5 -39.5l-45 -124q-40 20 -107 35.5t-163 15.5q-104 0 -160.5 -56.5t-56.5 -152.5q0 -73 17 -129 t42 -107h281v-121h-229q13 -40 22 -83.5t9 -95.5t-15.5 -107t-47.5 -90l-67 -58v-6l108 24h446v-129h-777z" />
<glyph unicode="&#xa5;" d="M3 1219h170l285 -533l29 -106h2l31 109l274 530h155l-354 -648h167v-104h-212v-124h212v-104h-212v-239h-145v239h-212v104h212v124h-212v104h164z" />
<glyph unicode="&#xa8;" horiz-adv-x="714" d="M105 1136q0 40 23 65t62 25q38 0 61.5 -25t23.5 -65q0 -36 -23.5 -60.5t-61.5 -24.5q-39 0 -62 24.5t-23 60.5zM439 1136q0 40 23 65t62 25q40 0 63.5 -25t23.5 -65q0 -36 -23.5 -60.5t-63.5 -24.5q-39 0 -62 24.5t-23 60.5z" />
<glyph unicode="&#xa9;" horiz-adv-x="1402" d="M88 505q0 144 49 258t133 192.5t195 120.5t236 42t237 -42t195.5 -120.5t132 -192.5t48.5 -258q0 -145 -48.5 -258.5t-132 -192.5t-195 -120.5t-237.5 -41.5q-139 0 -252 41.5t-193 120.5t-124 192.5t-44 258.5zM211 505q0 -120 38 -213.5t104.5 -156t156 -95.5 t191.5 -33q103 0 192.5 33t156 95.5t105 156t38.5 213.5t-38.5 213t-105 156t-156 96t-192.5 33t-192 -33t-155.5 -96t-104.5 -156t-38 -213zM409 505q0 158 79.5 244.5t209.5 86.5q31 0 56.5 -3.5t47.5 -9.5t42.5 -15t47.5 -19l-46 -106q-38 19 -73 26t-59 7 q-73 0 -119.5 -45.5t-46.5 -165.5q0 -101 45.5 -156t134.5 -57q81 0 139 32l37 -103q-40 -23 -90 -35t-116 -12q-141 0 -215 89t-74 242z" />
<glyph unicode="&#xab;" horiz-adv-x="831" d="M68 450l279 401l93 -75l-171 -252l-83 -72l83 -62l181 -247l-93 -77zM387 450l274 397l93 -73l-169 -250l-83 -72l83 -62l179 -246l-90 -74z" />
<glyph unicode="&#xae;" horiz-adv-x="1218" d="M148 785q0 112 36.5 197.5t100 144.5t147 89t177.5 30q97 0 181 -30t147 -89t98.5 -144.5t35.5 -197.5q0 -111 -36.5 -197t-100.5 -144.5t-147.5 -89t-177.5 -30.5q-97 0 -180.5 30.5t-146.5 89t-98.5 144.5t-35.5 197zM258 785q0 -90 28 -157.5t75.5 -111.5t112 -66.5 t135.5 -22.5q75 0 139.5 21.5t111.5 65.5t73.5 111.5t26.5 159.5q0 91 -27.5 158t-75.5 111t-111 67t-137 23q-76 0 -140.5 -23t-111.5 -67t-73 -111t-26 -158zM430 560v452q28 8 78 12t96 4q73 0 125.5 -30t52.5 -105q0 -56 -35.5 -85.5t-88.5 -33.5l48 -23l130 -191h-107 l-125 181l-84 27v-208h-90zM520 820h60q50 0 78 15.5t28 54.5q0 60 -101 60q-20 0 -37 -0.5t-28 -5.5v-124z" />
<glyph unicode="&#xb4;" horiz-adv-x="465" d="M105 994l102 260h155v-37l-176 -223h-81z" />
<glyph unicode="&#xb8;" horiz-adv-x="498" d="M105 -355l15 68q10 -2 19 -2h17q39 0 61 7t33 16.5t13.5 22t2.5 22.5q0 48 -150 65l85 156h98l-41 -75q73 -13 105 -44.5t32 -86.5q0 -68 -55.5 -112t-156.5 -44q-20 0 -39 1.5t-39 5.5z" />
<glyph unicode="&#xbb;" horiz-adv-x="831" d="M68 773l90 74l289 -380l-278 -397l-91 73l168 251l85 71l-85 63zM382 774l91 77l291 -384l-279 -401l-93 75l171 253l83 71l-83 63z" />
<glyph unicode="&#x2c6;" horiz-adv-x="671" d="M105 957l214 317h55l194 -317h-126l-68 116l-37 100l-38 -100l-78 -116h-116z" />
<glyph unicode="&#x2da;" horiz-adv-x="548" d="M105 1119q0 74 45.5 116.5t123.5 42.5q73 0 121.5 -38.5t48.5 -120.5q0 -68 -48.5 -112t-121.5 -44t-121 41t-48 115zM198 1119q0 -34 23 -53.5t53 -19.5q33 0 54.5 17.5t21.5 55.5q0 39 -23.5 57t-52.5 18q-30 0 -53 -17.5t-23 -57.5z" />
<glyph unicode="&#x2dc;" horiz-adv-x="694" d="M105 1142q50 57 92 79t77 22q29 0 54.5 -11t48.5 -24.5t45 -24t46 -10.5q39 0 80 43l42 -76q-45 -50 -82.5 -68.5t-68.5 -18.5q-28 0 -52.5 10.5t-48 23.5t-47 24.5t-47.5 11.5q-23 0 -46.5 -12.5t-53.5 -42.5z" />
<glyph unicode="&#x401;" horiz-adv-x="932" d="M148 0v1219h663v-129h-519v-399h476v-128h-476v-434h528v-129h-672zM210 1382q0 37 25.5 59.5t67.5 22.5q40 0 65.5 -22.5t25.5 -59.5q0 -35 -25 -57.5t-66 -22.5q-42 0 -67.5 22.5t-25.5 57.5zM544 1382q0 37 25 59.5t66 22.5t67 -22.5t26 -59.5q0 -35 -26 -57.5 t-67 -22.5q-40 0 -65.5 22.5t-25.5 57.5z" />
<glyph unicode="&#x402;" horiz-adv-x="1266" d="M31 1090v129h904v-129h-380v-368q21 7 83 22t159 15q70 0 137 -16.5t119 -58t84.5 -112t32.5 -178.5q0 -210 -106.5 -309t-299.5 -99q-58 0 -83 1t-38 5v124q23 -3 49.5 -4t76.5 -1q248 0 248 272q0 73 -21 121.5t-56.5 77.5t-83.5 40t-104 11q-31 0 -61.5 -4t-57.5 -10 t-47 -13t-31 -11v-595h-144v1090h-380z" />
<glyph unicode="&#x403;" horiz-adv-x="769" d="M148 0v1219h653v-129h-509v-1090h-144zM344 1309l205 206h198v-37l-284 -169h-119z" />
<glyph unicode="&#x404;" horiz-adv-x="1014" d="M98 609q0 171 47.5 290t124.5 195t172.5 110.5t193.5 34.5q104 0 175 -11t119 -30l-35 -130q-40 20 -104.5 31.5t-142.5 11.5q-68 0 -133.5 -22t-120.5 -71.5t-92.5 -129.5t-49.5 -195h533v-129h-534q5 -114 40.5 -199.5t92 -142t129.5 -85.5t155 -29q78 0 141 15.5 t101 40.5l37 -114q-52 -40 -136.5 -55.5t-174.5 -15.5q-110 0 -207.5 37.5t-171.5 114t-116.5 195.5t-42.5 283z" />
<glyph unicode="&#x405;" horiz-adv-x="923" d="M80 43l49 131q40 -23 118.5 -44.5t175.5 -21.5q58 0 108 11.5t86.5 36.5t58.5 63.5t22 90.5q0 73 -43.5 119t-109 82t-142 67t-142 75.5t-108.5 110t-43 166.5q0 143 99 226t282 83q107 0 193.5 -15.5t135.5 -39.5l-44 -127q-40 19 -117.5 36.5t-174.5 17.5 q-115 0 -172.5 -51.5t-57.5 -121.5q0 -68 43.5 -113t109 -80.5t142 -70.5t142 -81t108.5 -110.5t43 -160.5q0 -78 -27.5 -141t-81.5 -108t-131 -69.5t-174 -24.5q-130 0 -215 20.5t-133 43.5z" />
<glyph unicode="&#x406;" horiz-adv-x="505" d="M181 0v1219h145v-1219h-145z" />
<glyph unicode="&#x407;" horiz-adv-x="510" d="M56 1380q0 39 25 61.5t63 22.5q37 0 62 -22.5t25 -61.5q0 -38 -25 -59.5t-62 -21.5q-38 0 -63 21.5t-25 59.5zM183 0v1219h144v-1219h-144zM280 1380q0 39 25.5 61.5t61.5 22.5q38 0 63.5 -22.5t25.5 -61.5q0 -38 -25.5 -59.5t-63.5 -21.5q-36 0 -61.5 21.5t-25.5 59.5z " />
<glyph unicode="&#x408;" horiz-adv-x="505" d="M-60 10l29 124q48 -23 106 -23q73 0 96.5 51.5t23.5 140.5v916h144v-951q0 -140 -61.5 -212.5t-187.5 -72.5q-14 0 -34.5 1.5t-41.5 5t-41 8.5t-33 12z" />
<glyph unicode="&#x409;" horiz-adv-x="1611" d="M-3 8l18 126q17 -5 37 -5q30 0 58.5 19t56.5 71q25 47 46.5 125.5t38 198.5t27 286t15.5 390h644v-474q9 2 30 4.5t45.5 4.5t50.5 3.5t47 1.5q83 0 162 -16.5t141 -58t100.5 -112t38.5 -178.5q0 -105 -36.5 -181.5t-101 -127t-151 -75t-186.5 -24.5q-25 0 -60 1t-74 3.5 t-78 7.5t-72 14v1078h-364q-17 -349 -46 -579.5t-86 -359.5q-39 -83 -91 -121t-113 -38q-31 0 -54 4t-43 12zM938 122q25 -6 70 -8.5t88 -2.5q63 0 118 16.5t96.5 50.5t65.5 85.5t24 119.5q0 73 -26.5 121.5t-69 77.5t-98 40t-115.5 11q-15 0 -38 -1.5t-45.5 -3.5t-41.5 -5 t-28 -5v-496z" />
<glyph unicode="&#x40a;" horiz-adv-x="1694" d="M148 0v1219h144v-505h585v505h145v-507q8 2 29.5 4.5t46.5 4t51 3.5t47 2q82 0 161 -14t141 -52.5t100 -106.5t38 -176q0 -104 -36.5 -179t-100.5 -121.5t-150.5 -68.5t-187.5 -22q-25 0 -59.5 1t-73.5 3.5t-78.5 7.5t-72.5 12v575h-585v-585h-144zM1022 122 q24 -6 69.5 -8.5t89.5 -2.5q63 0 118 14t96 45.5t64.5 79.5t23.5 116q0 73 -25 119t-68 72t-98.5 35t-116.5 9q-16 0 -38.5 -2t-45.5 -4t-42 -5.5t-27 -4.5v-463z" />
<glyph unicode="&#x40b;" horiz-adv-x="1305" d="M31 1090v129h904v-129h-380v-402q47 26 124.5 52t175.5 26q73 0 134.5 -16.5t105 -56t68 -105.5t24.5 -163v-425h-144v399q0 239 -216 239q-83 0 -154.5 -22.5t-117.5 -58.5v-557h-144v1090h-380z" />
<glyph unicode="&#x40c;" horiz-adv-x="1061" d="M148 0v1219h144v-568l79 25l409 543h167l-407 -525l-73 -56l88 -70l446 -568h-182l-445 564h-82v-564h-144zM389 1309l205 206h198v-37l-284 -169h-119z" />
<glyph unicode="&#x40e;" horiz-adv-x="962" d="M12 1219h167l312 -643l45 -154h9l35 159l233 638h147l-307 -792q-47 -124 -82.5 -206.5t-72 -134t-79 -73t-102.5 -21.5q-58 0 -92 9t-63 29l44 120q35 -20 64 -25t54 -5q48 0 81.5 49.5t57.5 147.5zM213 1480l137 35q7 -65 48.5 -100t111.5 -35t110.5 35t50.5 98 l123 -30q-20 -94 -88 -149t-198 -55q-123 0 -202.5 48t-92.5 153z" />
<glyph unicode="&#x40f;" horiz-adv-x="1146" d="M148 0v1219h144v-1090h563v1090h145v-1219h-352l-27 -312h-90l-35 312h-348z" />
<glyph unicode="&#x410;" horiz-adv-x="1018" d="M14 0l461 1238h66l464 -1238h-152l-125 337h-449l-123 -337h-142zM326 463h358l-136 371l-43 184h-2l-43 -188z" />
<glyph unicode="&#x411;" horiz-adv-x="957" d="M148 12v1207h661v-129h-517v-366q30 5 73.5 10.5t83.5 5.5q88 0 168.5 -17t141.5 -57t97 -108.5t36 -172.5q0 -105 -36.5 -180.5t-98 -123.5t-142 -71.5t-170.5 -23.5q-29 0 -66.5 1t-78.5 4.5t-80 7.5t-72 13zM292 122q12 -4 32.5 -5.5t44 -3.5t47.5 -2h47 q56 0 106.5 16t87.5 46.5t59 77.5t22 109q0 80 -25 130t-67 77.5t-96.5 37.5t-114.5 10q-15 0 -36.5 -2t-42 -3.5t-38 -4t-26.5 -4.5v-479z" />
<glyph unicode="&#x412;" horiz-adv-x="1016" d="M148 8v1200q64 10 149.5 17t186.5 7q68 0 138.5 -11t128 -43t94.5 -90t37 -148q0 -43 -13.5 -88.5t-41.5 -84.5t-71.5 -69t-102.5 -45v-7q52 -8 100 -29.5t84.5 -58t59 -88.5t22.5 -123q0 -95 -39 -163.5t-102.5 -112t-145.5 -64.5t-167 -21h-70t-83.5 3t-87 7t-76.5 12z M292 123q12 -3 35 -5t49 -3.5t53.5 -2.5t49.5 -1q56 0 108 13.5t92 42t63.5 70.5t23.5 99q0 71 -28.5 115t-75 68t-103.5 32.5t-115 8.5h-152v-437zM292 683h91q30 0 71.5 1.5t69.5 4.5q41 14 78 34t65.5 47t45 63t16.5 77q0 58 -21.5 95.5t-58 60t-84 32.5t-95.5 10 q-58 0 -105.5 -3t-72.5 -9v-413z" />
<glyph unicode="&#x413;" horiz-adv-x="769" d="M148 0v1219h653v-129h-509v-1090h-144z" />
<glyph unicode="&#x414;" horiz-adv-x="1164" d="M8 129h125q13 20 42 90t57.5 201.5t51 329t22.5 469.5h651v-1090h159v-353h-99l-27 224h-854l-26 -224h-102v353zM286 129h527v961h-371q-5 -192 -20 -345t-35.5 -270.5t-46.5 -203t-54 -142.5z" />
<glyph unicode="&#x415;" horiz-adv-x="932" d="M148 0v1219h663v-129h-519v-399h476v-128h-476v-434h528v-129h-672z" />
<glyph unicode="&#x416;" horiz-adv-x="1402" d="M-2 0l385 545l84 66l-80 61l-364 547h168l354 -547h78v547h139v-568l75 25l354 543h160l-351 -530l-70 -56l87 -70l388 -563h-178l-385 564h-80v-564h-139v585l-73 -25l-384 -560h-168z" />
<glyph unicode="&#x417;" horiz-adv-x="940" d="M76 25l37 130q40 -20 112.5 -33.5t174.5 -13.5q54 0 106 15t93.5 45t66.5 75.5t25 108.5q0 110 -76.5 161t-200.5 60q-21 2 -39 2.5t-38 0.5h-95v122h27h39t46 1.5t45.5 2.5t35.5 4q45 7 85 24t70 43t47 61t17 76q0 58 -19 96.5t-53 61.5t-78 33t-95 10q-95 0 -160.5 -13 t-105.5 -33l-38 116q34 19 124.5 38.5t204.5 19.5q69 0 136.5 -14.5t120 -48.5t85 -92.5t32.5 -143.5q0 -87 -57.5 -166.5t-172.5 -113.5v-7q123 -17 194.5 -92.5t71.5 -200.5q0 -99 -39 -171.5t-102.5 -119t-146.5 -68.5t-168 -22q-114 0 -188.5 13t-123.5 33z" />
<glyph unicode="&#x418;" horiz-adv-x="1184" d="M148 0v1219h144v-836l-12 -137h7l77 142l588 831h86v-1219h-145v825l11 140h-7l-75 -143l-589 -822h-85z" />
<glyph unicode="&#x419;" horiz-adv-x="1184" d="M148 0v1219h144v-836l-12 -137h7l77 142l588 831h86v-1219h-145v825l11 140h-7l-75 -143l-589 -822h-85zM312 1480l137 35q7 -65 48.5 -100t111.5 -35t110.5 35t50.5 98l123 -30q-20 -94 -88 -149t-198 -55q-123 0 -202.5 48t-92.5 153z" />
<glyph unicode="&#x41a;" horiz-adv-x="1061" d="M148 0v1219h144v-568l79 25l409 543h167l-407 -525l-73 -56l88 -70l446 -568h-182l-445 564h-82v-564h-144z" />
<glyph unicode="&#x41b;" horiz-adv-x="1085" d="M-3 8l18 126q17 -5 37 -5q30 0 58.5 19t56.5 71q25 47 46.5 125.5t38 198.5t27 286t15.5 390h644v-1219h-144v1090h-364q-17 -349 -46 -579.5t-86 -359.5q-39 -83 -91 -121t-113 -38q-31 0 -54 4t-43 12z" />
<glyph unicode="&#x41c;" horiz-adv-x="1376" d="M148 0v1219h108l382 -624l56 -135h4l54 139l364 620h113v-1219h-144v819l17 182h-9l-66 -167l-316 -550h-45l-335 552l-63 165h-9l25 -181v-820h-136z" />
<glyph unicode="&#x41d;" horiz-adv-x="1169" d="M148 0v1219h144v-531h585v531h145v-1219h-145v558h-585v-558h-144z" />
<glyph unicode="&#x41e;" horiz-adv-x="1190" d="M98 609q0 305 128.5 467.5t366.5 162.5q129 0 223 -45t156 -128t91.5 -198.5t29.5 -258.5q0 -304 -129.5 -467t-370.5 -163q-127 0 -220 45.5t-155 128t-91 198.5t-29 258zM251 609q0 -101 20 -191.5t61.5 -159t107 -109.5t153.5 -41q162 0 254.5 123t92.5 378 q0 100 -20 191.5t-63 159.5t-108 109.5t-156 41.5q-159 0 -250.5 -123t-91.5 -379z" />
<glyph unicode="&#x41f;" horiz-adv-x="1146" d="M148 0v1219h852v-1219h-145v1090h-563v-1090h-144z" />
<glyph unicode="&#x420;" horiz-adv-x="972" d="M148 0v1206q66 15 142.5 20.5t151.5 5.5q80 0 163 -15.5t151 -57t110.5 -114.5t42.5 -187q0 -111 -40 -188t-106.5 -124.5t-152 -68.5t-175.5 -21h-28t-42 1t-43 3t-30 3v-463h-144zM292 592q9 -4 28 -5t40.5 -1.5t40.5 -0.5h27q60 0 118 11.5t105 40.5t76 83t29 138 q0 72 -27.5 119.5t-71.5 76.5t-99.5 41.5t-112.5 12.5q-45 0 -86.5 -2.5t-66.5 -9.5v-504z" />
<glyph unicode="&#x421;" horiz-adv-x="993" d="M98 609q0 171 46 290t121.5 195t170 110.5t190.5 34.5q105 0 171.5 -11t112.5 -30l-34 -127q-84 40 -238 40q-72 0 -141.5 -26.5t-124.5 -85.5t-88 -154.5t-33 -235.5q0 -125 31.5 -219t86 -156.5t128.5 -94t161 -31.5q78 0 136.5 15.5t98.5 40.5l35 -114 q-52 -40 -132 -55.5t-171 -15.5q-110 0 -205.5 37.5t-167 114t-113 195.5t-41.5 283z" />
<glyph unicode="&#x422;" horiz-adv-x="965" d="M31 1090v129h904v-129h-380v-1090h-144v1090h-380z" />
<glyph unicode="&#x423;" horiz-adv-x="962" d="M12 1219h167l312 -643l45 -154h9l35 159l233 638h147l-307 -792q-47 -124 -82.5 -206.5t-72 -134t-79 -73t-102.5 -21.5q-58 0 -92 9t-63 29l44 120q35 -20 64 -25t54 -5q48 0 81.5 49.5t57.5 147.5z" />
<glyph unicode="&#x424;" horiz-adv-x="1357" d="M71 609q0 119 31 212t87.5 157.5t134.5 98.5t174 34q23 0 56.5 -1.5t53.5 -6.5v151h143v-156q31 9 73.5 11t70.5 2q83 0 154.5 -30.5t124.5 -90.5t82.5 -151.5t29.5 -212.5q0 -123 -33.5 -217t-91.5 -156.5t-134.5 -93.5t-162.5 -31q-20 0 -57.5 2.5t-55.5 8.5v-174h-143 v171q-30 -5 -69 -6.5t-74 -1.5q-82 0 -154 27.5t-125 86.5t-84 150.5t-31 216.5zM221 609q0 -83 19 -150t55 -114t85.5 -71.5t110.5 -24.5h24t32 1t33.5 3.5t28.5 5.5v723q-21 3 -51 5t-55 2q-59 0 -110.5 -23.5t-90 -71.5t-60 -119.5t-21.5 -165.5zM749 254q17 -3 46 -4 t56 -1q59 0 110.5 22.5t90.5 69.5t61.5 118.5t22.5 166.5q0 80 -18 147.5t-52 116t-82.5 74t-109.5 25.5q-25 0 -63 -2t-62 -10v-723z" />
<glyph unicode="&#x425;" horiz-adv-x="1075" d="M45 0l405 620l-370 599h174l248 -413l43 -100l41 100l261 413h161l-383 -587l400 -632h-168l-276 437l-46 104l-46 -104l-282 -437h-162z" />
<glyph unicode="&#x426;" horiz-adv-x="1195" d="M148 0v1219h144v-1090h549v1090h144v-1090h163v-353h-100l-26 224h-874z" />
<glyph unicode="&#x427;" horiz-adv-x="1053" d="M131 789v430h144v-405q0 -239 216 -238q82 0 153.5 22t116.5 58v563h144v-1219h-144v525q-47 -26 -124 -52t-175 -26q-74 0 -135 16.5t-104.5 55.5t-67.5 105.5t-24 164.5z" />
<glyph unicode="&#x428;" horiz-adv-x="1526" d="M148 0v1219h144v-1090h399v1090h145v-1090h398v1090h145v-1219h-1231z" />
<glyph unicode="&#x429;" horiz-adv-x="1588" d="M148 0v1219h144v-1090h399v1090h145v-1090h398v1090h145v-1090h161v-353h-100l-26 224h-1266z" />
<glyph unicode="&#x42a;" horiz-adv-x="1096" d="M-2 1090v129h424v-474q8 2 29 4.5t46 4.5t51.5 3.5t46.5 1.5q82 0 161.5 -16.5t141.5 -58t101 -112t39 -178.5q0 -105 -36.5 -181.5t-101 -127t-151 -75t-186.5 -24.5q-25 0 -60 1t-74 3.5t-79 7.5t-73 14v1078h-279zM422 122q24 -6 69 -8.5t90 -2.5q63 0 118 16.5 t96 50.5t65 85.5t24 119.5q0 73 -26 121.5t-69.5 77.5t-99.5 40t-114 11q-16 0 -39 -1.5t-45.5 -3.5t-41.5 -5t-27 -5v-496z" />
<glyph unicode="&#x42b;" horiz-adv-x="1337" d="M148 12v1207h144v-474q9 2 26.5 4.5t38 4.5t43 3.5t42.5 1.5q82 0 159.5 -16.5t136.5 -58t95 -112t36 -178.5q0 -105 -33.5 -182.5t-93 -127t-143.5 -74t-185 -24.5q-25 0 -56.5 1t-67.5 3.5t-72.5 7.5t-69.5 14zM292 122q48 -11 135 -11q125 0 207 68t82 204 q0 73 -25 121.5t-65.5 77.5t-93.5 40t-112 11q-32 0 -70 -5t-58 -10v-496zM1046 0v1219h145v-1219h-145z" />
<glyph unicode="&#x42c;" horiz-adv-x="965" d="M148 12v1207h144v-474q9 2 30 4.5t45.5 4.5t50.5 3.5t47 1.5q83 0 162 -16.5t141 -58t100.5 -112t38.5 -178.5q0 -105 -36.5 -181.5t-101 -127t-150.5 -75t-187 -24.5q-25 0 -60 1t-74 3.5t-78 7.5t-72 14zM292 122q25 -6 70 -8.5t88 -2.5q63 0 118 16.5t96.5 50.5 t65.5 85.5t24 119.5q0 73 -26.5 121.5t-69 77.5t-98 40t-115.5 11q-15 0 -37.5 -1.5t-45.5 -3.5t-42 -5t-28 -5v-496z" />
<glyph unicode="&#x42d;" horiz-adv-x="1003" d="M78 23l38 127q40 -20 105 -31t134 -11q70 0 140.5 21.5t128 75.5t95.5 141.5t45 211.5h-503v130h501q-8 106 -41 186.5t-85.5 134t-121.5 78t-148 24.5q-82 0 -146 -14t-104 -39l-38 113q54 32 134 50t171 18q112 0 207.5 -34.5t166 -110.5t110.5 -196t40 -289 q0 -170 -45 -290.5t-123 -196t-179.5 -109.5t-212.5 -34q-87 0 -154.5 12t-114.5 32z" />
<glyph unicode="&#x42e;" horiz-adv-x="1553" d="M148 0v1219h144v-531h216q14 266 134 408.5t343 142.5q128 0 218.5 -45t146 -128t81.5 -198.5t26 -258.5q0 -304 -116.5 -467t-355.5 -163q-120 0 -208.5 41t-147 116.5t-88 183t-34.5 238.5h-215v-558h-144zM660 609q0 -101 17 -191.5t55.5 -159t100.5 -109.5t152 -41 q162 0 240.5 122t78.5 379q0 100 -16 191.5t-53 159.5t-98 109.5t-152 41.5q-161 0 -243 -123t-82 -379z" />
<glyph unicode="&#x42f;" horiz-adv-x="990" d="M45 0l272 434l106 74q-63 14 -116 43t-92 73t-60.5 103.5t-21.5 136.5q0 106 35.5 176.5t97 113t144.5 60.5t175 18q59 0 126 -5t131 -21v-1206h-144v531l-180 -38l-302 -493h-171zM286 864q0 -67 23 -114t63 -77t93 -44t115 -14h118v481q-25 6 -51 9t-69 3 q-58 0 -110 -11.5t-93 -40t-65 -75t-24 -117.5z" />
<glyph unicode="&#x430;" horiz-adv-x="862" d="M68 233q0 76 31.5 127.5t88 82t135.5 44t175 13.5h48.5t46.5 -4q5 52 6 94q0 96 -38.5 134t-138.5 38q-30 0 -64 -4t-70 -12t-68 -19t-56 -26l-44 105q66 40 154 59t184 19q90 0 145 -24t84 -63.5t38 -86.5t9 -94q0 -104 -5 -203t-5 -189q0 -64 5 -121.5t20 -105.5h-103 l-37 121h-8q-15 -24 -39 -47.5t-57 -42t-76.5 -30.5t-99.5 -12t-103.5 17.5t-82.5 49.5t-55 77.5t-20 102.5zM212 247q0 -61 43.5 -100t111.5 -39q49 0 87.5 13t66 33t46 44.5t26.5 47.5v144q-24 2 -49.5 3t-48.5 1q-54 0 -106 -6t-91 -23t-62.5 -45.5t-23.5 -72.5z" />
<glyph unicode="&#x431;" horiz-adv-x="932" d="M85 528q0 149 15 255.5t44 179.5t69.5 116.5t92 68.5t112.5 35.5t130 17.5q90 9 141.5 20t83.5 41l16 -126q-17 -15 -38.5 -25.5t-51 -17.5t-70.5 -12t-94 -8q-75 -5 -131.5 -18.5t-98 -51t-64.5 -106t-32 -181.5h5q58 83 127.5 117t173.5 34q160 0 246 -104.5t86 -307.5 q0 -235 -99.5 -355.5t-279.5 -120.5q-191 0 -287 132.5t-96 416.5zM230 434q0 -67 14 -127.5t42.5 -107t73.5 -72.5t107 -26q119 0 177.5 86.5t58.5 254.5q0 66 -12 122t-38.5 96.5t-66 62.5t-95.5 22q-136 2 -198.5 -79t-62.5 -232z" />
<glyph unicode="&#x432;" horiz-adv-x="867" d="M134 2v867q62 3 128.5 8t165.5 5q173 0 248 -53t75 -161q0 -61 -36 -119t-118 -86v-7q103 -19 145 -71.5t42 -138.5q0 -136 -98 -197t-292 -61q-74 0 -136.5 4.5t-123.5 9.5zM274 116q33 -3 65 -4.5t75 -1.5q116 0 173 33t57 113q0 63 -48 102t-169 39h-153v-281z M274 503h170q31 0 61 10.5t53 28.5t38 42.5t15 53.5q0 69 -41.5 96t-146.5 27q-56 0 -88 -2t-61 -3v-253z" />
<glyph unicode="&#x433;" horiz-adv-x="641" d="M134 0v870h509v-121h-369v-749h-140z" />
<glyph unicode="&#x434;" horiz-adv-x="940" d="M8 122h103q14 19 37 69t44.5 139.5t38 222.5t20.5 317h525v-748h128v-343h-95l-25 221h-655l-26 -221h-95v343zM251 122h387v627h-262q-4 -73 -12.5 -159.5t-23 -172.5t-37.5 -162.5t-52 -132.5z" />
<glyph unicode="&#x435;" horiz-adv-x="884" d="M85 435q0 223 99.5 340t283.5 117q60 0 119 -13.5t106 -50t76.5 -103.5t29.5 -177q0 -58 -10 -126h-559q0 -77 15.5 -136.5t48.5 -100.5t86.5 -62.5t129.5 -21.5q60 0 119 21t88 49l52 -101q-52 -42 -131.5 -66.5t-167.5 -24.5q-99 0 -172.5 32t-120 92.5t-69.5 144 t-23 187.5zM231 531h432q0 133 -50 185.5t-143 52.5q-103 0 -164.5 -54t-74.5 -184z" />
<glyph unicode="&#x436;" horiz-adv-x="1146" d="M2 0l275 399l59 51l-89 67l-226 353h148l240 -375h91v375h136v-393l81 25l242 368h146l-236 -353l-68 -55l89 -70l258 -392h-166l-256 392h-90v-392h-136v409l-82 -24l-256 -385h-160z" />
<glyph unicode="&#x437;" horiz-adv-x="767" d="M66 38l40 115q40 -23 96.5 -35t123.5 -12q106 0 161.5 36.5t55.5 111.5q0 63 -52 98.5t-172 35.5h-101v114h121q32 0 62.5 10t54.5 28t39 43.5t15 54.5q0 68 -47 95.5t-141 27.5q-68 0 -124.5 -21t-87.5 -40l-40 108q52 29 122.5 51.5t167.5 22.5q289 0 289 -214 q0 -61 -39 -119t-112 -82v-7q103 -20 144 -74t41 -142q0 -56 -22.5 -103t-68 -81.5t-114.5 -54.5t-159 -20q-89 0 -147.5 15t-105.5 38z" />
<glyph unicode="&#x438;" horiz-adv-x="950" d="M134 0v870h140v-531l-6 -102h7l68 108l391 525h83v-870h-140v515l6 108h-6l-71 -111l-392 -512h-80z" />
<glyph unicode="&#x439;" horiz-adv-x="950" d="M134 0v870h140v-531l-6 -102h7l68 108l391 525h83v-870h-140v515l6 108h-6l-71 -111l-392 -512h-80zM216 1181l118 41q17 -80 60 -111t99 -31t99 33t59 108l104 -34q-15 -101 -89.5 -155t-177.5 -54q-46 0 -92 12.5t-82.5 36.5t-63 62.5t-34.5 91.5z" />
<glyph unicode="&#x43a;" horiz-adv-x="831" d="M134 0v870h140v-393l74 25l278 368h152l-270 -350l-73 -57l90 -69l292 -394h-173l-290 392h-80v-392h-140z" />
<glyph unicode="&#x43b;" horiz-adv-x="875" d="M-8 8l20 117q21 -7 46 -7q35 0 62.5 30t48.5 112.5t35 229t19 380.5h518v-870h-138v749h-253q-5 -73 -10.5 -157.5t-15.5 -169.5t-27.5 -162t-45 -136t-66.5 -95t-92 -36q-33 0 -58 3.5t-43 11.5z" />
<glyph unicode="&#x43c;" horiz-adv-x="1122" d="M134 0v870h137l244 -390l51 -101h4l51 105l228 386h140v-870h-136v517l11 166h-9l-63 -135l-211 -341h-48l-219 341l-58 135h-7l14 -165v-518h-129z" />
<glyph unicode="&#x43d;" horiz-adv-x="939" d="M134 0v870h140v-363h392v363h140v-870h-140v385h-392v-385h-140z" />
<glyph unicode="&#x43e;" horiz-adv-x="932" d="M85 435q0 221 98.5 339t283.5 118q97 0 169.5 -32.5t119 -93t69 -144.5t22.5 -187q0 -221 -98 -338.5t-282 -117.5q-98 0 -170.5 32t-119 92.5t-69.5 144.5t-23 187zM230 435q0 -66 13 -127t41 -106.5t73 -73t110 -27.5q237 -2 236 334q0 68 -13 129t-41 106.5t-73 72 t-109 26.5q-237 2 -237 -334z" />
<glyph unicode="&#x43f;" horiz-adv-x="930" d="M134 0v870h663v-870h-139v749h-384v-749h-140z" />
<glyph unicode="&#x440;" horiz-adv-x="940" d="M134 -348v1218h96l26 -104h7q40 61 103.5 93.5t145.5 32.5q174 0 259.5 -103t85.5 -337q0 -109 -29 -197t-81.5 -149t-126 -94t-164.5 -33q-64 0 -101.5 8t-80.5 27v-362h-140zM274 151q31 -24 71 -37t105 -13q120 0 191 89.5t71 264.5q0 71 -12 129.5t-39.5 99t-70 63 t-105.5 22.5q-88 0 -139.5 -46t-71.5 -140v-432z" />
<glyph unicode="&#x441;" horiz-adv-x="784" d="M85 435q0 221 97.5 339t280.5 118q84 0 142 -13.5t106 -37.5l-41 -120q-40 23 -88.5 35.5t-104.5 12.5q-247 0 -247 -334q0 -66 13 -126t43.5 -106.5t80 -74t122.5 -27.5q63 0 112.5 19t81.5 44l45 -106q-52 -38 -123.5 -58.5t-149.5 -20.5q-101 0 -171 32t-114.5 92.5 t-64.5 144.5t-20 187z" />
<glyph unicode="&#x442;" horiz-adv-x="692" d="M3 749v121h686v-121h-273v-749h-139v749h-274z" />
<glyph unicode="&#x443;" horiz-adv-x="810" d="M21 870h160l209 -564l49 -167h8l38 169l169 562h142l-258 -782q-30 -85 -59 -164.5t-63 -142.5t-78 -100.5t-101 -37.5q-63 0 -103 18l24 120q23 -9 44 -9q49 0 94 51.5t75 176.5z" />
<glyph unicode="&#x444;" horiz-adv-x="1183" d="M76 435q0 223 94 336t272 113q48 0 83 -7v342h133v-343q31 5 55.5 6.5t47.5 1.5q172 0 259.5 -100t87.5 -332q0 -109 -24 -197t-69 -149t-110.5 -94t-150.5 -33q-15 0 -46 3t-50 10v-340h-133v341q-29 -10 -61 -12t-59 -2q-158 0 -243.5 111.5t-85.5 344.5zM216 435 q0 -73 13 -135.5t41 -109t70 -71.5t100 -25q22 0 42.5 2t45.5 7v659q-21 4 -39.5 5.5t-44.5 1.5q-108 0 -168 -80.5t-60 -253.5zM656 99q17 -3 39 -4t48 -1q111 0 168 92.5t57 265.5q0 148 -51.5 232.5t-182.5 84.5q-21 0 -37 -0.5t-41 -7.5v-662z" />
<glyph unicode="&#x445;" horiz-adv-x="895" d="M48 0l314 445l-292 425h171l164 -240l50 -99l50 99l169 240h156l-294 -418l311 -452h-164l-185 264l-53 105l-53 -105l-188 -264h-156z" />
<glyph unicode="&#x446;" horiz-adv-x="953" d="M134 0v870h140v-748h377v748h139v-748h125v-343h-93l-26 221h-662z" />
<glyph unicode="&#x447;" horiz-adv-x="852" d="M85 606v264h139v-237q0 -47 5.5 -84t21 -64t45.5 -42t78 -15q78 0 128.5 17.5t77.5 38.5v386h139v-870h-139v366q-28 -18 -83 -39t-150 -21q-65 0 -114 14t-82 49t-49.5 92t-16.5 145z" />
<glyph unicode="&#x448;" horiz-adv-x="1280" d="M134 0v870h140v-748h297v748h140v-748h297v748h140v-870h-1014z" />
<glyph unicode="&#x449;" horiz-adv-x="1310" d="M134 0v870h140v-748h297v748h140v-748h297v748h140v-748h124v-343h-94l-25 221h-1019z" />
<glyph unicode="&#x44a;" horiz-adv-x="864" d="M2 749v121h330v-332q42 7 79.5 9.5t72.5 2.5q90 0 153 -20t102 -55t56.5 -82.5t17.5 -101.5q0 -158 -95 -229.5t-295 -71.5q-57 0 -113 2.5t-117 7.5v749h-191zM332 122q68 -11 123 -11q109 0 161 42.5t52 121.5q0 70 -50 115t-158 45q-30 0 -63 -1.5t-65 -10.5v-301z " />
<glyph unicode="&#x44b;" horiz-adv-x="1148" d="M134 0v870h140v-332q41 7 79.5 9.5t73.5 2.5q88 0 148.5 -20t97 -55t51 -82.5t14.5 -101.5q0 -158 -87.5 -229.5t-284.5 -71.5q-112 0 -232 10zM274 122q64 -11 123 -11q110 0 153 42.5t43 121.5q0 70 -42.5 115t-148.5 45q-30 0 -64.5 -1.5t-63.5 -10.5v-301zM876 0v870 h139v-870h-139z" />
<glyph unicode="&#x44c;" horiz-adv-x="807" d="M134 0v870h140v-332q41 7 79.5 9.5t73.5 2.5q90 0 153 -20t102 -55t56.5 -82.5t17.5 -101.5q0 -158 -95 -229.5t-295 -71.5q-112 0 -232 10zM274 122q64 -11 123 -11q110 0 162 42.5t52 121.5q0 70 -50.5 115t-158.5 45q-30 0 -64.5 -1.5t-63.5 -10.5v-301z" />
<glyph unicode="&#x44d;" horiz-adv-x="809" d="M68 814q54 37 123.5 57.5t162.5 20.5q193 0 281.5 -120.5t88.5 -336.5q0 -223 -103 -339.5t-285 -116.5q-82 0 -151 13t-115 39l40 119q40 -23 98 -36t114 -13q244 -2 259 281h-370v114h369q-9 124 -72.5 198.5t-180.5 74.5q-71 0 -124 -19t-87 -41z" />
<glyph unicode="&#x44e;" horiz-adv-x="1251" d="M134 0v870h140v-363h175q13 186 101.5 285.5t262.5 99.5q96 0 163 -32.5t109.5 -93t61.5 -144.5t19 -187q0 -221 -88 -338.5t-269 -117.5q-94 0 -161 29t-109.5 82t-64.5 128.5t-27 166.5h-173v-385h-140zM585 435q0 -68 10.5 -128.5t36.5 -107t70.5 -72.5t110.5 -26 q111 0 160 81t49 253q0 68 -9.5 129t-34 107t-64.5 72t-103 26q-120 0 -173 -80.5t-53 -253.5z" />
<glyph unicode="&#x44f;" horiz-adv-x="826" d="M35 0l209 298l70 64q-90 14 -154 73.5t-64 159.5q0 78 27 134t77.5 92.5t120 53.5t156.5 17q64 0 120 -9t109 -19v-864h-138v360l-134 -21l-230 -339h-169zM241 603q0 -79 61.5 -121.5t162.5 -42.5h5h14t30 0.5t54 2.5v310q-23 9 -51 13t-49 4q-111 0 -169 -40t-58 -126z " />
<glyph unicode="&#x451;" horiz-adv-x="884" d="M85 435q0 223 99.5 340t283.5 117q60 0 119 -13.5t106 -50t76.5 -103.5t29.5 -177q0 -58 -10 -126h-559q0 -77 15.5 -136.5t48.5 -100.5t86.5 -62.5t129.5 -21.5q60 0 119 21t88 49l52 -101q-52 -42 -131.5 -66.5t-167.5 -24.5q-99 0 -172.5 32t-120 92.5t-69.5 144 t-23 187.5zM208 1103q0 40 23 65t62 25q38 0 61.5 -25t23.5 -65q0 -36 -23.5 -60.5t-61.5 -24.5q-39 0 -62 24.5t-23 60.5zM231 531h432q0 133 -50 185.5t-143 52.5q-103 0 -164.5 -54t-74.5 -184zM542 1103q0 40 23 65t62 25q40 0 63.5 -25t23.5 -65q0 -36 -23.5 -60.5 t-63.5 -24.5q-39 0 -62 24.5t-23 60.5z" />
<glyph unicode="&#x452;" horiz-adv-x="953" d="M-3 940v105h139v174h139v-174h278v-105h-278v-257h7q45 53 109 85.5t157 32.5q73 0 127 -16.5t90 -58.5t52.5 -112.5t16.5 -178.5v-482q0 -161 -56 -241.5t-177 -80.5q-14 0 -26 1t-27 2v119q49 0 77.5 14.5t44.5 45.5t20 77.5t4 109.5v404q0 68 -7.5 120t-28 86 t-56.5 51.5t-94 17.5q-81 0 -147.5 -53t-85.5 -137v-489h-139v940h-139z" />
<glyph unicode="&#x453;" horiz-adv-x="641" d="M134 0v870h509v-121h-369v-749h-140zM316 994l102 260h155v-37l-176 -223h-81z" />
<glyph unicode="&#x454;" horiz-adv-x="821" d="M85 435q0 110 29.5 195.5t83 142.5t128 88t165.5 31q84 0 146.5 -13.5t109.5 -37.5l-41 -120q-40 23 -93 35.5t-108 12.5q-120 2 -192 -67t-87 -204h412v-115h-414q6 -57 25.5 -109.5t55.5 -91t88 -60t125 -21.5q62 0 115 19t84 44l45 -106q-51 -38 -126.5 -58.5 t-153.5 -20.5q-101 0 -175 32t-123.5 92.5t-74 144.5t-24.5 187z" />
<glyph unicode="&#x455;" horiz-adv-x="732" d="M68 43l42 119q40 -23 104.5 -42t130.5 -19q75 0 123.5 30t48.5 106q0 52 -31 81.5t-77.5 49.5t-101.5 38.5t-101 47t-77 74t-31 121.5q0 125 71.5 184t197.5 59q95 0 158 -17t111 -39l-33 -115q-40 19 -97 33.5t-121 14.5q-76 0 -112 -26t-36 -90q0 -45 31 -70.5 t77.5 -45.5t101.5 -39t100.5 -50.5t77 -79.5t31.5 -126q0 -56 -18 -105t-56.5 -83t-95 -54.5t-132.5 -20.5q-100 0 -169.5 19t-116.5 45z" />
<glyph unicode="&#x456;" horiz-adv-x="465" d="M134 1135q0 40 27 68.5t69 28.5q41 0 71 -28.5t30 -68.5t-30 -66t-71 -26q-42 0 -69 26t-27 66zM164 0v870h139v-870h-139z" />
<glyph unicode="&#x457;" horiz-adv-x="483" d="M50 1136q0 40 22 64t62 24q39 0 61.5 -24t22.5 -64q0 -36 -22.5 -60.5t-61.5 -24.5q-40 0 -62 24.5t-22 60.5zM171 0v870h139v-870h-139zM268 1136q0 40 22 64t60 24q40 0 62.5 -24t22.5 -64q0 -36 -22.5 -60.5t-62.5 -24.5q-38 0 -60 24.5t-22 60.5z" />
<glyph unicode="&#x458;" horiz-adv-x="464" d="M15 -247q49 0 78 14.5t44.5 46t20 79t4.5 112.5v865h139v-917q0 -161 -55.5 -241.5t-177.5 -80.5q-14 0 -26 1t-27 2v119zM133 1135q0 40 26.5 68.5t68.5 28.5q41 0 71 -28.5t30 -68.5t-30 -66t-71 -26q-42 0 -68.5 26t-26.5 66z" />
<glyph unicode="&#x459;" horiz-adv-x="1275" d="M-8 8l20 117q21 -7 46 -7q35 0 62.5 30t48.5 112.5t35 229t19 380.5h518v-332q42 7 80.5 9.5t73.5 2.5q90 0 153 -20t102 -55t56.5 -82.5t17.5 -101.5q0 -158 -95 -229.5t-295 -71.5q-112 0 -231 10v749h-253q-5 -73 -10.5 -157.5t-15.5 -169.5t-27.5 -162t-45 -136 t-66.5 -95t-92 -36q-33 0 -58 3.5t-43 11.5zM741 120q65 -10 124 -10q110 0 162.5 43t52.5 122q0 70 -51 115t-159 45q-29 0 -64 -1.5t-65 -10.5v-303z" />
<glyph unicode="&#x45a;" horiz-adv-x="1339" d="M134 0v870h140v-360h392v360h140v-332q41 7 79.5 9.5t73.5 2.5q90 0 153 -20t102.5 -55t57 -82.5t17.5 -101.5q0 -158 -95.5 -229.5t-295.5 -71.5q-111 0 -232 10v388h-392v-388h-140zM806 122q64 -11 124 -11q110 0 162 42.5t52 121.5q0 70 -50.5 115t-158.5 45 q-30 0 -64 -2.5t-65 -9.5v-301z" />
<glyph unicode="&#x45b;" horiz-adv-x="953" d="M-3 940v105h139v174h139v-174h278v-105h-278v-257h7q45 53 109 85.5t157 32.5q73 0 127 -16.5t90 -58.5t52.5 -112.5t16.5 -178.5v-435h-140v404q0 68 -7.5 120t-28 86t-56.5 51.5t-94 17.5q-81 0 -147.5 -53t-85.5 -137v-489h-139v940h-139z" />
<glyph unicode="&#x45c;" horiz-adv-x="831" d="M134 0v870h140v-393l74 25l278 368h152l-270 -350l-73 -57l90 -69l292 -394h-173l-290 392h-80v-392h-140zM344 994l102 260h155v-37l-176 -223h-81z" />
<glyph unicode="&#x45e;" horiz-adv-x="810" d="M21 870h160l209 -564l49 -167h8l38 169l169 562h142l-258 -782q-30 -85 -59 -164.5t-63 -142.5t-78 -100.5t-101 -37.5q-63 0 -103 18l24 120q23 -9 44 -9q49 0 94 51.5t75 176.5zM155 1181l118 41q17 -80 60 -111t99 -31t99 33t59 108l104 -34q-15 -101 -89.5 -155 t-177.5 -54q-46 0 -92 12.5t-82.5 36.5t-63 62.5t-34.5 91.5z" />
<glyph unicode="&#x45f;" horiz-adv-x="930" d="M134 0v870h140v-748h384v748h139v-870h-254l-26 -312h-90l-35 312h-258z" />
<glyph unicode="&#x462;" horiz-adv-x="1076" d="M0 957v123h259v175h145v-175h360v-123h-360v-214q8 2 29.5 5t45.5 4.5t50 3t47 1.5q84 0 163.5 -16.5t141 -57t99.5 -111t38 -178.5q0 -105 -36.5 -181.5t-100.5 -127t-150.5 -75t-187.5 -24.5q-25 0 -59.5 1t-73.5 3.5t-78.5 7.5t-72.5 14v945h-259zM404 122 q24 -6 69.5 -8.5t89.5 -2.5q63 0 117 16.5t96.5 50.5t65.5 85.5t23 119.5q0 73 -26 121.5t-68.5 76.5t-98.5 39.5t-115 11.5q-16 0 -38.5 -2t-45.5 -3.5t-42 -5t-27 -5.5v-494z" />
<glyph unicode="&#x463;" horiz-adv-x="864" d="M2 756v114h189v349h140v-349h278v-114h-278v-218q41 7 79.5 9.5t73.5 2.5q90 0 153 -20t102 -55t56.5 -82.5t17.5 -101.5q0 -158 -95 -229.5t-295 -71.5q-111 0 -232 10v756h-189zM331 122q68 -11 124 -11q109 0 161 42.5t52 121.5q0 70 -50 115t-158 45q-30 0 -64 -1.5 t-65 -10.5v-301z" />
<glyph unicode="&#x472;" horiz-adv-x="1190" d="M98 609q0 305 128.5 467.5t366.5 162.5q129 0 223 -45t156 -128t91.5 -198.5t29.5 -258.5q0 -304 -129.5 -467t-370.5 -163q-127 0 -220 45.5t-155 128t-91 198.5t-29 258zM251 553q13 -224 108.5 -334.5t233.5 -110.5q65 0 126 21t108 72t77.5 136.5t35.5 215.5h-689z M251 683h689q-14 207 -109 317.5t-238 110.5q-63 0 -122 -22t-105.5 -72.5t-77 -132.5t-37.5 -201z" />
<glyph unicode="&#x473;" horiz-adv-x="932" d="M85 435q0 221 98.5 339t283.5 118q97 0 169.5 -32.5t119 -93t69 -144.5t22.5 -187q0 -221 -98 -338.5t-282 -117.5q-98 0 -170.5 32t-119 92.5t-69.5 144.5t-23 187zM230 377q8 -136 74.5 -206t162.5 -70q43 0 84 14t73 45t53 84.5t26 132.5h-473zM230 489h473 q-14 148 -75.5 214t-160.5 66q-45 0 -86.5 -14t-73.5 -46.5t-53 -86.5t-24 -133z" />
<glyph unicode="&#x474;" horiz-adv-x="1040" d="M-3 1219h156l310 -837l42 -186h3l28 189q34 115 69.5 230.5t71.5 241.5q40 136 76 211.5t72.5 111.5t74.5 43.5t83 7.5q62 0 96.5 -10t64.5 -28l-42 -122q-35 20 -65.5 25.5t-54.5 5.5q-49 0 -82 -45t-68 -152l-302 -925h-65z" />
<glyph unicode="&#x475;" horiz-adv-x="882" d="M17 870h161l209 -510l48 -165h2l43 169q25 63 40 99.5t22.5 57t11 29t6.5 16.5q28 75 53 133t53 99t65.5 62.5t90.5 21.5q31 0 55.5 -3t44.5 -12l-20 -129q-15 7 -30 11.5t-30 4.5q-29 0 -58.5 -26.5t-64.5 -107.5l-264 -640h-60z" />
<glyph unicode="&#x48a;" horiz-adv-x="1201" d="M148 0v1219h144v-836l-12 -137h7l77 142l588 831h86v-1097h181v-39l-159 -309h-94l79 226h-152v825l11 140h-7l-75 -143l-589 -822h-85zM308 1480l137 35q7 -65 49 -100t112 -35t110.5 35t49.5 98l124 -30q-20 -94 -88.5 -149t-197.5 -55q-123 0 -202.5 48t-93.5 153z " />
<glyph unicode="&#x48b;" horiz-adv-x="975" d="M134 0v870h140v-531l-6 -102h7l68 108l391 525h83v-748h173v-39l-158 -304h-94l79 221h-140v515l6 108h-6l-71 -111l-392 -512h-80zM216 1181l118 41q17 -80 60 -111t99 -31t99.5 33t58.5 108l105 -34q-16 -101 -90 -155t-177 -54q-47 0 -93 12.5t-82.5 36.5t-63 62.5 t-34.5 91.5z" />
<glyph unicode="&#x48c;" horiz-adv-x="1076" d="M0 957v123h259v175h145v-175h360v-123h-360v-214q8 2 29.5 5t45.5 4.5t50 3t47 1.5q84 0 163.5 -16.5t141 -57t99.5 -111t38 -178.5q0 -105 -36.5 -181.5t-100.5 -127t-150.5 -75t-187.5 -24.5q-25 0 -59.5 1t-73.5 3.5t-78.5 7.5t-72.5 14v945h-259zM404 122 q24 -6 69.5 -8.5t89.5 -2.5q63 0 117 16.5t96.5 50.5t65.5 85.5t23 119.5q0 73 -26 121.5t-68.5 76.5t-98.5 39.5t-115 11.5q-16 0 -38.5 -2t-45.5 -3.5t-42 -5t-27 -5.5v-494z" />
<glyph unicode="&#x48d;" horiz-adv-x="864" d="M2 756v114h189v349h140v-349h278v-114h-278v-218q41 7 79.5 9.5t73.5 2.5q90 0 153 -20t102 -55t56.5 -82.5t17.5 -101.5q0 -158 -95 -229.5t-295 -71.5q-111 0 -232 10v756h-189zM331 122q68 -11 124 -11q109 0 161 42.5t52 121.5q0 70 -50 115t-158 45q-30 0 -64 -1.5 t-65 -10.5v-301z" />
<glyph unicode="&#x48e;" horiz-adv-x="972" d="M148 0v1206q66 15 142.5 20.5t151.5 5.5q80 0 163 -15.5t151 -57t110.5 -114.5t42.5 -187q0 -130 -55 -214t-142 -129l118 -170l-79 -58l-135 192q-83 -23 -181 -23h-28t-42 1t-43 3t-30 3v-463h-144zM292 592q9 -4 28 -5t40.5 -1.5t40.5 -0.5h27q30 0 57.5 1.5t57.5 8.5 l-111 162l75 47l123 -179q56 29 91 84t35 149q0 72 -27.5 119.5t-71.5 76.5t-99.5 41.5t-112.5 12.5q-45 0 -86.5 -2.5t-66.5 -9.5v-504z" />
<glyph unicode="&#x48f;" horiz-adv-x="940" d="M134 -348v1218h96l26 -104h7q40 61 103.5 93.5t145.5 32.5q174 0 259.5 -103t85.5 -337q0 -131 -38.5 -227.5t-109.5 -158.5l92 -108l-73 -64l-103 120q-75 -35 -169 -35q-64 0 -101.5 8t-80.5 27v-362h-140zM274 150q31 -25 71 -37t105 -12q54 -2 95 15l-96 114l68 54 l101 -120q45 45 69.5 117.5t24.5 173.5q0 71 -12 129.5t-39.5 100t-70 63t-105.5 21.5q-88 0 -139.5 -46t-71.5 -140v-433z" />
<glyph unicode="&#x490;" horiz-adv-x="769" d="M148 0v1219h528l27 233h98v-362h-509v-1090h-144z" />
<glyph unicode="&#x491;" horiz-adv-x="641" d="M134 0v870h383l28 233h98v-354h-369v-749h-140z" />
<glyph unicode="&#x492;" horiz-adv-x="838" d="M17 555v115h167v549h653v-129h-508v-420h374v-115h-374v-555h-145v555h-167z" />
<glyph unicode="&#x493;" horiz-adv-x="669" d="M0 382v103h156v385h509v-121h-369v-264h294v-103h-294v-382h-140v382h-156z" />
<glyph unicode="&#x494;" horiz-adv-x="1003" d="M148 0v1219h653v-129h-509v-472q22 7 83.5 21.5t157.5 14.5q70 0 136.5 -19t119.5 -66t85.5 -128t32.5 -204q0 -239 -105.5 -349.5t-299.5 -110.5q-58 0 -83 1t-40 4v130q23 -4 50 -5t78 -1q247 0 247 318q0 89 -21 147.5t-56.5 94.5t-83.5 50t-104 14q-32 0 -62 -5 t-57 -11t-47 -12.5t-31 -10.5v-491h-144z" />
<glyph unicode="&#x495;" horiz-adv-x="930" d="M134 0v870h507v-121h-367v-310q19 8 71 22t146 14q70 0 132.5 -20t109.5 -66t75 -122t28 -189q0 -228 -91.5 -335t-286.5 -107q-58 0 -83 1t-39 4v122q23 -4 49.5 -4.5t77.5 -0.5q122 0 177.5 79.5t55.5 223.5q0 155 -68 224t-176 69q-63 0 -111.5 -14t-66.5 -23v-317 h-140z" />
<glyph unicode="&#x496;" horiz-adv-x="1425" d="M-2 0l385 545l84 66l-80 61l-364 547h168l354 -547h78v547h139v-568l75 25l354 543h160l-351 -530l-70 -56l87 -70l299 -434h101v-353h-101l-26 224h-63l-385 564h-80v-564h-139v585l-73 -25l-384 -560h-168z" />
<glyph unicode="&#x497;" horiz-adv-x="1206" d="M2 0l275 399l59 51l-89 67l-226 353h148l240 -375h91v375h136v-393l81 25l242 368h146l-236 -353l-68 -55l89 -70l177 -270h131v-343h-95l-25 221h-96l-256 392h-90v-392h-136v409l-82 -24l-256 -385h-160z" />
<glyph unicode="&#x498;" horiz-adv-x="940" d="M76 25l37 130q40 -20 112.5 -32.5t174.5 -12.5q54 0 106 14.5t93.5 44t66.5 75t25 108.5q0 110 -76.5 161t-200.5 60q-21 2 -39 2.5t-38 0.5h-95v122h27h39t46 1.5t45.5 2.5t35.5 4q45 7 85 24t70 43t47 61t17 76q0 58 -19 96.5t-53 61.5t-78 33t-95 10q-95 0 -160.5 -13 t-105.5 -33l-38 116q34 19 124.5 38.5t204.5 19.5q69 0 136.5 -14.5t120 -48.5t85 -92.5t32.5 -143.5q0 -87 -57.5 -166.5t-172.5 -113.5v-7q123 -17 194.5 -92.5t71.5 -200.5q0 -90 -32 -157t-85 -113.5t-123.5 -73t-147.5 -33.5l-24 -295h-91l-33 292q-80 4 -136 16 t-96 29z" />
<glyph unicode="&#x499;" horiz-adv-x="767" d="M66 38l40 115q40 -23 96.5 -35t123.5 -12q106 0 161.5 36.5t55.5 111.5q0 63 -52 98.5t-172 35.5h-101v114h121q32 0 62.5 10t54.5 28t39 43.5t15 54.5q0 68 -47 95.5t-141 27.5q-68 0 -124.5 -21t-87.5 -40l-40 108q52 29 122.5 51.5t167.5 22.5q289 0 289 -214 q0 -61 -39 -119t-112 -82v-7q103 -20 144 -74t41 -142q0 -94 -65.5 -163t-197.5 -89l-25 -304h-91l-33 298q-70 4 -117.5 19t-87.5 33z" />
<glyph unicode="&#x49a;" horiz-adv-x="1070" d="M148 0v1219h144v-568l79 25l409 543h167l-407 -525l-73 -56l88 -70l345 -439h155v-353h-101l-26 224h-109l-445 564h-82v-564h-144z" />
<glyph unicode="&#x49b;" horiz-adv-x="880" d="M134 0v870h140v-393l74 25l278 368h152l-270 -350l-73 -57l90 -69l201 -272h138v-343h-95l-26 221h-99l-290 392h-80v-392h-140z" />
<glyph unicode="&#x49c;" horiz-adv-x="1191" d="M148 0v1219h144v-568l95 9v219h115v-207l39 4l373 543h166l-377 -525l-71 -56l87 -70l412 -568h-181l-403 564h-45v-225h-115v225h-95v-564h-144z" />
<glyph unicode="&#x49d;" horiz-adv-x="935" d="M134 0v870h140v-393l83 8v215h110v-204l45 6l228 368h146l-220 -350l-76 -57l91 -69l240 -394h-164l-240 392h-50v-221h-110v221h-83v-392h-140z" />
<glyph unicode="&#x49e;" horiz-adv-x="1155" d="M0 989v119h242v111h145v-111h212v-116h-212v-341l85 25l404 543h165l-402 -525l-76 -56l90 -70l442 -568h-185l-438 564h-85v-564h-145v989h-242z" />
<glyph unicode="&#x49f;" horiz-adv-x="837" d="M-3 963v104h141v152h139v-152h276v-104h-276v-486l71 25l270 368h162l-267 -350l-71 -57l88 -69l290 -394h-172l-291 392h-80v-392h-139v963h-141z" />
<glyph unicode="&#x4a0;" horiz-adv-x="1191" d="M0 1090v129h425v-568l77 25l408 543h170l-410 -525l-71 -56l87 -70l447 -568h-184l-444 564h-80v-564h-145v1090h-280z" />
<glyph unicode="&#x4a1;" horiz-adv-x="890" d="M2 749v121h330v-393l73 25l281 368h150l-270 -350l-71 -57l90 -69l291 -394h-173l-291 392h-80v-392h-139v749h-191z" />
<glyph unicode="&#x4a2;" horiz-adv-x="1229" d="M148 0v1219h144v-531h585v531h145v-1090h160v-353h-101l-26 224h-178v558h-585v-558h-144z" />
<glyph unicode="&#x4a3;" horiz-adv-x="950" d="M134 0v870h140v-363h392v363h140v-748h127v-343h-94l-26 221h-147v385h-392v-385h-140z" />
<glyph unicode="&#x4a4;" horiz-adv-x="1498" d="M148 0v1219h144v-531h585v531h653v-129h-508v-1090h-145v558h-585v-558h-144z" />
<glyph unicode="&#x4a5;" horiz-adv-x="1174" d="M134 0v870h140v-363h392v363h509v-121h-369v-749h-140v385h-392v-385h-140z" />
<glyph unicode="&#x4a6;" horiz-adv-x="1711" d="M148 0v1219h852v-601q19 7 81.5 21.5t157.5 14.5q70 0 138 -19t121 -66t85.5 -128t32.5 -204q0 -239 -106.5 -349.5t-301.5 -110.5q-58 0 -83 1t-39 4v130q23 -4 50 -5t77 -1q121 0 185 79.5t64 238.5q0 89 -21 147.5t-56.5 94.5t-84 50t-102.5 14q-32 0 -63.5 -5 t-58 -11t-47.5 -12.5t-29 -10.5v-491h-145v1090h-563v-1090h-144z" />
<glyph unicode="&#x4a7;" horiz-adv-x="1455" d="M134 0v870h663v-431q20 8 72 22t146 14q68 0 129.5 -20t109.5 -66t75.5 -122t27.5 -189q0 -228 -90.5 -335t-284.5 -107q-58 0 -83 1t-39 4v122q23 -4 50 -4.5t77 -0.5q121 0 176.5 79.5t55.5 223.5q0 155 -67 224t-175 69q-63 0 -111.5 -14t-68.5 -23v-317h-139v749 h-384v-749h-140z" />
<glyph unicode="&#x4a8;" horiz-adv-x="1411" d="M98 609q0 152 35.5 269t101.5 197.5t163 122t217 41.5v-128q-82 0 -148.5 -30.5t-115 -92.5t-74.5 -156t-26 -221q0 -103 29.5 -195t82.5 -162t126.5 -111.5t161.5 -41.5q20 0 43 2t40 8q-56 33 -99 89t-73.5 125t-47 147t-16.5 158q0 136 31 239t85 173.5t127 106 t159 35.5q193 0 292.5 -130t99.5 -361q0 -108 -22 -200.5t-59.5 -168t-87 -131t-105.5 -88.5q9 -2 18.5 -2h18.5q66 0 116.5 14t83.5 38l44 -113q-33 -27 -82 -45t-141 -18q-56 0 -111.5 14t-94.5 38q-45 -26 -101.5 -39t-117.5 -13q-129 0 -231.5 45.5t-174 127 t-109.5 198.5t-38 259zM651 616q0 -61 15 -127.5t43.5 -130.5t72 -118t102.5 -87q47 26 92.5 74t81 116t58 153t22.5 187q0 78 -12.5 146t-40 118.5t-71.5 79t-107 28.5q-50 0 -96.5 -25t-81.5 -78.5t-56.5 -137t-21.5 -198.5z" />
<glyph unicode="&#x4a9;" horiz-adv-x="1148" d="M85 435q0 218 97 336.5t286 120.5v-123q-238 -1 -238 -332q0 -68 16.5 -129t51 -108t86 -73t123.5 -26q19 0 44 3.5t42 13.5q-63 38 -106 125.5t-43 196.5q0 77 14.5 153.5t50.5 138.5t96.5 100t153.5 38q80 0 136.5 -29.5t92 -79.5t52.5 -118t17 -147q0 -69 -17.5 -132 t-46 -114.5t-66 -89t-76.5 -54.5q26 -12 66 -12q35 0 71.5 13t66.5 44l43 -104q-31 -30 -84.5 -49t-115.5 -19q-48 0 -97.5 15.5t-81.5 47.5q-52 -37 -115 -50t-119 -13q-96 0 -170 32t-125 92.5t-78 144.5t-27 187zM588 445q0 -99 39 -181.5t106 -127.5q36 17 68.5 51 t56.5 81t39 104.5t15 123.5q0 47 -9.5 92t-28.5 81t-48 58t-69 22q-51 0 -84.5 -26.5t-51.5 -69t-25.5 -97t-7.5 -111.5z" />
<glyph unicode="&#x4aa;" horiz-adv-x="993" d="M98 609q0 171 46 290t121.5 195t170 110.5t190.5 34.5q105 0 171.5 -11t112.5 -30l-34 -127q-84 40 -238 40q-72 0 -141.5 -26.5t-124.5 -85.5t-88 -154.5t-33 -235.5q0 -125 31.5 -219t86 -156.5t128.5 -93t161 -30.5q78 0 136.5 14.5t98.5 39.5l35 -114 q-45 -35 -109.5 -50t-139.5 -20l-25 -292h-90l-33 300q-92 14 -171.5 57t-137.5 120t-91 187.5t-33 256.5z" />
<glyph unicode="&#x4ab;" horiz-adv-x="784" d="M85 435q0 221 97.5 339t280.5 118q84 0 142 -13.5t106 -37.5l-41 -120q-40 23 -88.5 35.5t-104.5 12.5q-247 0 -247 -334q0 -66 13 -126t43.5 -106.5t80 -74t122.5 -27.5q63 0 112.5 19t81.5 44l45 -106q-77 -56 -190 -72l-25 -298h-90l-33 295q-83 10 -141 46.5 t-94.5 95t-53 137.5t-16.5 173z" />
<glyph unicode="&#x4ac;" horiz-adv-x="965" d="M31 1090v129h904v-129h-380v-961h161v-353h-101l-27 224h-177v1090h-380z" />
<glyph unicode="&#x4ad;" horiz-adv-x="692" d="M3 749v121h686v-121h-273v-627h129v-343h-95l-25 221h-148v749h-274z" />
<glyph unicode="&#x4ae;" horiz-adv-x="970" d="M14 1219h169l285 -533l30 -106h2l31 109l273 530h155l-399 -734v-485h-144v484z" />
<glyph unicode="&#x4af;" horiz-adv-x="842" d="M17 870h161l212 -564l49 -184h1l44 188l192 560h149l-325 -870v-348h-140v348z" />
<glyph unicode="&#x4b0;" horiz-adv-x="970" d="M14 1219h169l285 -533l30 -106h2l31 109l273 530h155l-391 -723h254v-108h-262v-388h-144v388h-261v108h254z" />
<glyph unicode="&#x4b1;" horiz-adv-x="842" d="M17 870h161l212 -564l49 -184h1l44 188l192 560h149l-325 -870h203v-105h-203v-243h-140v243h-214v105h214z" />
<glyph unicode="&#x4b2;" horiz-adv-x="1127" d="M45 0l405 620l-370 599h174l248 -413l43 -100l41 100l261 413h161l-383 -587l319 -503h169v-353h-101l-27 224h-128l-276 437l-46 104l-46 -104l-282 -437h-162z" />
<glyph unicode="&#x4b3;" horiz-adv-x="913" d="M48 0l314 445l-292 425h171l164 -240l50 -99l50 99l169 240h156l-294 -418l228 -330h133v-343h-95l-26 221h-93l-185 264l-53 105l-53 -105l-188 -264h-156z" />
<glyph unicode="&#x4b4;" horiz-adv-x="1458" d="M31 1090v129h841v-129h-317v-961h548v1090h145v-1090h160v-353h-99l-26 224h-872v1090h-380z" />
<glyph unicode="&#x4b5;" horiz-adv-x="1098" d="M3 749v121h674v-121h-261v-627h378v748h139v-748h125v-343h-93l-27 221h-661v749h-274z" />
<glyph unicode="&#x4b6;" horiz-adv-x="1111" d="M131 789v430h144v-405q0 -239 216 -238q82 0 153.5 22t116.5 58v563h144v-1090h160v-353h-100l-27 224h-177v525q-47 -26 -124 -52t-175 -26q-74 0 -135 16.5t-104.5 55.5t-67.5 105.5t-24 164.5z" />
<glyph unicode="&#x4b7;" horiz-adv-x="885" d="M85 606v264h139v-237q0 -47 5.5 -84t21 -65t45.5 -42t78 -14q78 0 128.5 17.5t77.5 38.5v386h139v-748h128v-343h-93l-26 221h-148v366q-28 -18 -83 -39t-150 -21q-65 0 -114 14t-82 49t-49.5 92t-16.5 145z" />
<glyph unicode="&#x4b8;" horiz-adv-x="1066" d="M131 789v430h144v-405q0 -228 197 -238v216h114v-209q57 9 105.5 28t82.5 45v563h145v-1219h-145v525q-33 -19 -80.5 -36t-107.5 -29v-208h-114v195q-78 0 -142 16.5t-108 55.5t-67.5 105.5t-23.5 164.5z" />
<glyph unicode="&#x4b9;" horiz-adv-x="864" d="M85 606v264h139v-237q0 -43 4.5 -79.5t18.5 -63.5t40.5 -42.5t69.5 -19.5v221h110v-214q45 9 76.5 22t48.5 27v386h139v-870h-139v366q-17 -12 -48.5 -26t-76.5 -23v-199h-110v188q-68 0 -119.5 14t-85.5 49t-50.5 92t-16.5 145z" />
<glyph unicode="&#x4ba;" horiz-adv-x="1053" d="M148 0v1219h144v-526q47 26 125 52t175 26q73 0 135 -16.5t105.5 -55.5t67.5 -105t24 -164v-430h-144v404q0 239 -216 239q-83 0 -155 -22t-117 -58v-563h-144z" />
<glyph unicode="&#x4bb;" horiz-adv-x="952" d="M134 0v1219h140v-446h6q46 53 109 86t158 33q73 0 127 -17t89.5 -59t52 -112.5t16.5 -178.5v-525h-139v496q0 68 -8 119t-28.5 85t-56.5 51.5t-93 17.5q-82 0 -148.5 -53t-84.5 -136v-580h-140z" />
<glyph unicode="&#x4bc;" horiz-adv-x="1347" d="M2 768q0 50 13 80.5t35 53.5h136q-28 -23 -38 -58t-10 -60q0 -22 5 -42t20.5 -35.5t45.5 -25t78 -9.5h21.5t22.5 2q12 271 133.5 418t344.5 147q218 0 329.5 -130.5t111.5 -368.5q0 -87 -16 -187h-757q13 -227 112.5 -336t289.5 -109q78 0 145 23.5t111 49.5l38 -116 q-56 -35 -135 -60.5t-187 -25.5q-115 0 -208 33t-161 103.5t-107 178.5t-44 259h-65q-146 0 -205 60.5t-59 154.5zM475 676h623q4 24 5.5 46.5t1.5 45.5q0 69 -17 132t-52.5 111.5t-92 77.5t-132.5 29q-162 0 -244.5 -117t-91.5 -325z" />
<glyph unicode="&#x4bd;" horiz-adv-x="1073" d="M14 628q0 52 17 89t54 73h136q-35 -24 -58.5 -60.5t-23.5 -91.5q0 -20 6 -38.5t20 -33t37.5 -24t58.5 -9.5q12 0 19 2q22 174 118.5 265.5t259.5 91.5q59 0 118.5 -13.5t106.5 -50t76.5 -103.5t29.5 -177q0 -58 -11 -126h-558q0 -77 15 -136.5t48.5 -101t86.5 -62.5 t130 -21q59 0 118 21t89 49l52 -101q-52 -42 -131 -66.5t-168 -24.5q-98 0 -170 31.5t-119 88.5t-70.5 138.5t-25.5 182.5h-21q-63 0 -108 16t-74.5 44t-43.5 66.5t-14 81.5zM422 531h431q0 133 -50.5 185.5t-142.5 52.5q-103 0 -164.5 -54t-73.5 -184z" />
<glyph unicode="&#x4be;" horiz-adv-x="1347" d="M2 768q0 50 13 80.5t35 53.5h136q-28 -23 -38 -58t-10 -60q0 -22 5 -42t20.5 -35.5t45.5 -25t78 -9.5h21.5t22.5 2q12 271 133.5 418t344.5 147q218 0 329.5 -130.5t111.5 -368.5q0 -87 -16 -187h-757q13 -227 112.5 -336t289.5 -107q78 0 145 22.5t111 48.5l38 -116 q-50 -32 -120 -56t-163 -29l-25 -292h-91l-33 300q-183 28 -291.5 164.5t-118.5 400.5h-65q-146 0 -205 60.5t-59 154.5zM475 676h623q4 24 5.5 46.5t1.5 45.5q0 69 -17 132t-52.5 111.5t-92 77.5t-132.5 29q-162 0 -244.5 -117t-91.5 -325z" />
<glyph unicode="&#x4bf;" horiz-adv-x="1073" d="M14 628q0 56 17 91t54 71h136q-35 -24 -58.5 -60.5t-23.5 -91.5q0 -20 6 -38.5t20 -33t37.5 -24t58.5 -9.5q12 0 19 2q22 174 118.5 265.5t259.5 91.5q59 0 118.5 -13.5t106.5 -50t76.5 -103.5t29.5 -177q0 -58 -11 -126h-558q0 -77 15 -136.5t48.5 -101t86.5 -63.5 t130 -22q59 0 118 21t89 49l52 -99q-44 -35 -103 -56t-128 -29l-25 -297h-90l-33 298q-155 25 -228 139t-77 295h-21q-63 0 -108 16t-74.5 44t-43.5 66.5t-14 81.5zM422 531h431q0 133 -50.5 185.5t-142.5 52.5q-103 0 -164.5 -54t-73.5 -184z" />
<glyph unicode="&#x4c0;" horiz-adv-x="505" d="M181 0v1219h145v-1219h-145z" />
<glyph unicode="&#x4c3;" horiz-adv-x="1043" d="M148 0v1219h144v-568l79 25l409 543h167l-390 -498l-99 -67h110q92 -21 157 -59t107 -99.5t61 -151.5t19 -215v-31q0 -125 -23.5 -214.5t-68 -145t-107 -80.5t-140.5 -25h-23.5t-25.5 1v127q69 0 115.5 19t75 62t41 111.5t12.5 169.5q0 118 -23.5 202t-72.5 137 t-123 77.5t-175 24.5h-82v-564h-144z" />
<glyph unicode="&#x4c4;" horiz-adv-x="837" d="M134 0v870h140v-408l74 23l278 385h152l-271 -365l-63 -45l76 -11q78 -17 126 -59t75.5 -98.5t37 -125t9.5 -138.5q0 -106 -23.5 -182t-64.5 -124.5t-98 -71t-122 -22.5h-29t-31 3v120q9 -2 16 -2h16q94 0 145 71.5t51 207.5q0 183 -73 265.5t-201 82.5h-80v-376h-140z " />
<glyph unicode="&#x4c5;" horiz-adv-x="1082" d="M-3 8l18 126q17 -5 37 -5q30 0 58.5 19t56.5 71q25 47 46.5 125.5t38 198.5t27 286t15.5 390h644v-1097h162v-39l-158 -309h-95l79 226h-132v1090h-364q-17 -349 -46 -579.5t-86 -359.5q-39 -83 -91 -121t-113 -38q-31 0 -54 4t-43 12z" />
<glyph unicode="&#x4c6;" horiz-adv-x="897" d="M-8 8l20 117q21 -7 46 -7q35 0 62.5 30t48.5 112.5t35 229t19 380.5h518v-748h174v-39l-158 -304h-94l78 221h-138v749h-253q-5 -73 -10.5 -157.5t-15.5 -169.5t-27.5 -162t-45 -136t-66.5 -95t-92 -36q-63 0 -101 15z" />
<glyph unicode="&#x4c7;" horiz-adv-x="1169" d="M148 0v1219h144v-531h585v531h145v-1266q0 -161 -55 -241.5t-177 -80.5h-26t-28 3v122q49 0 77.5 15t42.5 44t17.5 75.5t3.5 109.5v558h-585v-558h-144z" />
<glyph unicode="&#x4c8;" horiz-adv-x="939" d="M134 0v870h140v-363h392v363h140v-917q0 -161 -56 -241.5t-177 -80.5q-14 0 -26 1t-27 2v119q49 0 77.5 14.5t44.5 45.5t20 77.5t4 109.5v385h-392v-385h-140z" />
<glyph unicode="&#x4c9;" horiz-adv-x="1184" d="M148 0v1219h144v-531h585v531h145v-1097h181v-39l-158 -309h-95l78 226h-151v558h-585v-558h-144z" />
<glyph unicode="&#x4ca;" horiz-adv-x="967" d="M134 0v870h140v-363h392v363h140v-748h174v-39l-158 -309l-94 5l78 221h-140v385h-392v-385h-140z" />
<glyph unicode="&#x4cb;" horiz-adv-x="1053" d="M131 789v430h144v-405q0 -239 216 -238q82 0 153.5 22t116.5 58v563h144v-1219h-177l-27 -224h-100v353h160v396q-47 -26 -124 -52t-175 -26q-74 0 -135 16.5t-104.5 55.5t-67.5 105.5t-24 164.5z" />
<glyph unicode="&#x4cc;" horiz-adv-x="852" d="M85 609v261h139v-232q0 -46 5.5 -83.5t21 -65t45.5 -41.5t78 -14q78 0 128.5 17t77.5 38v381h139v-870h-153l-26 -221h-95v337h135v253q-28 -17 -83 -37t-150 -20q-65 0 -114 14.5t-82 48.5t-49.5 91.5t-16.5 142.5z" />
<glyph unicode="&#x4cd;" horiz-adv-x="1394" d="M148 0v1219h108l382 -624l56 -135h4l54 139l364 620h113v-1097h181v-39l-158 -309h-94l78 226h-151v819l17 182h-9l-66 -167l-316 -550h-45l-335 552l-63 165h-9l25 -181v-820h-136z" />
<glyph unicode="&#x4ce;" horiz-adv-x="1150" d="M134 0v870h137l244 -390l51 -101h4l51 105l228 386h140v-748h174v-39l-158 -304h-95l79 221h-136v517l11 166h-9l-63 -135l-211 -341h-48l-219 341l-58 135h-7l14 -165v-518h-129z" />
<glyph unicode="&#x4cf;" horiz-adv-x="442" d="M151 0v1219h140v-1219h-140z" />
<glyph unicode="&#x4d0;" horiz-adv-x="1018" d="M14 0l461 1238h66l464 -1238h-152l-125 337h-449l-123 -337h-142zM213 1480l137 35q7 -65 48.5 -100t111.5 -35t110.5 35t50.5 98l123 -30q-20 -94 -88 -149t-198 -55q-123 0 -202.5 48t-92.5 153zM326 463h358l-136 371l-43 184h-2l-43 -188z" />
<glyph unicode="&#x4d1;" horiz-adv-x="862" d="M68 233q0 76 31.5 127.5t88 82t135.5 44t175 13.5h48.5t46.5 -4q5 52 6 94q0 96 -38.5 134t-138.5 38q-30 0 -64 -4t-70 -12t-68 -19t-56 -26l-44 105q66 40 154 59t184 19q90 0 145 -24t84 -63.5t38 -86.5t9 -94q0 -104 -5 -203t-5 -189q0 -64 5 -121.5t20 -105.5h-103 l-37 121h-8q-15 -24 -39 -47.5t-57 -42t-76.5 -30.5t-99.5 -12t-103.5 17.5t-82.5 49.5t-55 77.5t-20 102.5zM153 1181l118 41q17 -80 60 -111t99 -31t99 33t59 108l104 -34q-15 -101 -89.5 -155t-177.5 -54q-46 0 -92 12.5t-82.5 36.5t-63 62.5t-34.5 91.5zM212 247 q0 -61 43.5 -100t111.5 -39q49 0 87.5 13t66 33t46 44.5t26.5 47.5v144q-24 2 -49.5 3t-48.5 1q-54 0 -106 -6t-91 -23t-62.5 -45.5t-23.5 -72.5z" />
<glyph unicode="&#x4d2;" horiz-adv-x="1018" d="M14 0l461 1238h66l464 -1238h-152l-125 337h-449l-123 -337h-142zM248 1382q0 37 25.5 59.5t67.5 22.5q40 0 65.5 -22.5t25.5 -59.5q0 -35 -25 -57.5t-66 -22.5q-42 0 -67.5 22.5t-25.5 57.5zM326 463h358l-136 371l-43 184h-2l-43 -188zM582 1382q0 37 25 59.5t66 22.5 t67 -22.5t26 -59.5q0 -35 -26 -57.5t-67 -22.5q-40 0 -65.5 22.5t-25.5 57.5z" />
<glyph unicode="&#x4d3;" horiz-adv-x="862" d="M68 233q0 76 31.5 127.5t88 82t135.5 44t175 13.5h48.5t46.5 -4q5 52 6 94q0 96 -38.5 134t-138.5 38q-30 0 -64 -4t-70 -12t-68 -19t-56 -26l-44 105q66 40 154 59t184 19q90 0 145 -24t84 -63.5t38 -86.5t9 -94q0 -104 -5 -203t-5 -189q0 -64 5 -121.5t20 -105.5h-103 l-37 121h-8q-15 -24 -39 -47.5t-57 -42t-76.5 -30.5t-99.5 -12t-103.5 17.5t-82.5 49.5t-55 77.5t-20 102.5zM171 1103q0 40 23 65t62 25q38 0 61.5 -25t23.5 -65q0 -36 -23.5 -60.5t-61.5 -24.5q-39 0 -62 24.5t-23 60.5zM212 247q0 -61 43.5 -100t111.5 -39q49 0 87.5 13 t66 33t46 44.5t26.5 47.5v144q-24 2 -49.5 3t-48.5 1q-54 0 -106 -6t-91 -23t-62.5 -45.5t-23.5 -72.5zM505 1103q0 40 23 65t62 25q40 0 63.5 -25t23.5 -65q0 -36 -23.5 -60.5t-63.5 -24.5q-39 0 -62 24.5t-23 60.5z" />
<glyph unicode="&#x4d4;" horiz-adv-x="1472" d="M-38 0l722 1219h667v-129h-519v-399h475v-128h-475v-434h527v-129h-671v345h-373l-195 -345h-158zM390 467h298v578h-7l-60 -180z" />
<glyph unicode="&#x4d5;" horiz-adv-x="1385" d="M68 233q0 76 31.5 127.5t88 82t135.5 44t175 13.5h48.5t46.5 -4q2 27 4 50.5t2 43.5q0 96 -38.5 135t-138.5 37q-30 0 -64 -4t-70 -12t-68 -19t-56 -26l-44 105q66 40 154 59t184 19q183 0 236 -113q46 63 122.5 92t153.5 29q59 0 118.5 -13.5t106 -51t76 -105.5 t29.5 -177q0 -28 -2.5 -58.5t-5.5 -64.5h-563q0 -152 64 -236.5t217 -84.5q61 0 119 21.5t90 48.5l52 -101q-52 -42 -131.5 -66.5t-167.5 -24.5q-107 0 -193 43.5t-128 123.5h-12q-23 -31 -52.5 -59.5t-67 -50.5t-85 -36t-105.5 -14q-56 0 -103.5 17.5t-82.5 49.5t-55 77.5 t-20 102.5zM212 247q0 -61 43.5 -100t111.5 -39q49 0 87.5 13t66 33t46 44.5t26.5 47.5v144q-24 2 -49.5 3t-48.5 1q-54 0 -106 -6t-91 -23t-62.5 -45.5t-23.5 -72.5zM733 531h431v21q0 118 -53 167.5t-139 49.5q-103 0 -166 -54t-73 -184z" />
<glyph unicode="&#x4d6;" horiz-adv-x="932" d="M148 0v1219h663v-129h-519v-399h476v-128h-476v-434h528v-129h-672zM185 1480l137 35q7 -65 48.5 -100t111.5 -35t110.5 35t50.5 98l123 -30q-20 -94 -88 -149t-198 -55q-123 0 -202.5 48t-92.5 153z" />
<glyph unicode="&#x4d7;" horiz-adv-x="884" d="M85 435q0 223 99.5 340t283.5 117q60 0 119 -13.5t106 -50t76.5 -103.5t29.5 -177q0 -58 -10 -126h-559q0 -77 15.5 -136.5t48.5 -100.5t86.5 -62.5t129.5 -21.5q60 0 119 21t88 49l52 -101q-52 -42 -131.5 -66.5t-167.5 -24.5q-99 0 -172.5 32t-120 92.5t-69.5 144 t-23 187.5zM188 1181l118 41q17 -80 60 -111t99 -31t99 33t59 108l104 -34q-15 -101 -89.5 -155t-177.5 -54q-46 0 -92 12.5t-82.5 36.5t-63 62.5t-34.5 91.5zM231 531h432q0 133 -50 185.5t-143 52.5q-103 0 -164.5 -54t-74.5 -184z" />
<glyph unicode="&#x4d8;" horiz-adv-x="1111" d="M93 485q0 45 4 95t13 103h760q-15 222 -104.5 325t-269.5 103q-40 0 -80 -7.5t-76 -17.5t-65 -22.5t-49 -23.5l-36 116q51 31 138.5 57t195.5 26q116 0 208 -35.5t154.5 -111t95.5 -196t33 -287.5q0 -300 -120.5 -465t-361.5 -165q-108 0 -191 35.5t-138.5 101t-83 159.5 t-27.5 210zM246 468q0 -71 16.5 -137.5t51 -116.5t89.5 -81.5t132 -31.5q161 0 247.5 115.5t87.5 343.5h-618q-3 -24 -4.5 -45.5t-1.5 -46.5z" />
<glyph unicode="&#x4d9;" horiz-adv-x="882" d="M85 362q0 28 2.5 56.5t6.5 61.5h567q-8 148 -72 218.5t-217 70.5q-59 0 -117.5 -20.5t-88.5 -48.5l-53 101q52 41 131.5 66t167.5 25q100 0 173 -32.5t120 -93t69.5 -144.5t22.5 -187q0 -221 -97 -338.5t-272 -117.5q-57 0 -118 17.5t-110.5 61t-82 117.5t-32.5 187z M221 345q0 -121 60.5 -182.5t150.5 -61.5q96 0 161 68t65 202h-437v-26z" />
<glyph unicode="&#x4da;" horiz-adv-x="1111" d="M93 485q0 45 4 95t13 103h760q-15 222 -104.5 325t-269.5 103q-40 0 -80 -7.5t-76 -17.5t-65 -22.5t-49 -23.5l-36 116q51 31 138.5 57t195.5 26q116 0 208 -35.5t154.5 -111t95.5 -196t33 -287.5q0 -300 -120.5 -465t-361.5 -165q-108 0 -191 35.5t-138.5 101t-83 159.5 t-27.5 210zM246 468q0 -71 16.5 -137.5t51 -116.5t89.5 -81.5t132 -31.5q161 0 247.5 115.5t87.5 343.5h-618q-3 -24 -4.5 -45.5t-1.5 -46.5zM281 1382q0 37 25.5 59.5t67.5 22.5q40 0 65.5 -22.5t25.5 -59.5q0 -35 -25 -57.5t-66 -22.5q-42 0 -67.5 22.5t-25.5 57.5z M615 1382q0 37 25 59.5t66 22.5t67 -22.5t26 -59.5q0 -35 -26 -57.5t-67 -22.5q-40 0 -65.5 22.5t-25.5 57.5z" />
<glyph unicode="&#x4db;" horiz-adv-x="882" d="M85 362q0 28 2.5 56.5t6.5 61.5h567q-8 148 -72 218.5t-217 70.5q-59 0 -117.5 -20.5t-88.5 -48.5l-53 101q52 41 131.5 66t167.5 25q100 0 173 -32.5t120 -93t69.5 -144.5t22.5 -187q0 -221 -97 -338.5t-272 -117.5q-57 0 -118 17.5t-110.5 61t-82 117.5t-32.5 187z M176 1103q0 40 23 65t62 25q38 0 61.5 -25t23.5 -65q0 -36 -23.5 -60.5t-61.5 -24.5q-39 0 -62 24.5t-23 60.5zM221 345q0 -121 60.5 -182.5t150.5 -61.5q96 0 161 68t65 202h-437v-26zM510 1103q0 40 23 65t62 25q40 0 63.5 -25t23.5 -65q0 -36 -23.5 -60.5t-63.5 -24.5 q-39 0 -62 24.5t-23 60.5z" />
<glyph unicode="&#x4dc;" horiz-adv-x="1402" d="M-2 0l385 545l84 66l-80 61l-364 547h168l354 -547h78v547h139v-568l75 25l354 543h160l-351 -530l-70 -56l87 -70l388 -563h-178l-385 564h-80v-564h-139v585l-73 -25l-384 -560h-168zM436 1382q0 37 25.5 59.5t67.5 22.5q40 0 65.5 -22.5t25.5 -59.5q0 -35 -25 -57.5 t-66 -22.5q-42 0 -67.5 22.5t-25.5 57.5zM770 1382q0 37 25 59.5t66 22.5t67 -22.5t26 -59.5q0 -35 -26 -57.5t-67 -22.5q-40 0 -65.5 22.5t-25.5 57.5z" />
<glyph unicode="&#x4dd;" horiz-adv-x="1146" d="M2 0l275 399l59 51l-89 67l-226 353h148l240 -375h91v375h136v-393l81 25l242 368h146l-236 -353l-68 -55l89 -70l258 -392h-166l-256 392h-90v-392h-136v409l-82 -24l-256 -385h-160zM319 1103q0 40 23 65t62 25q38 0 61.5 -25t23.5 -65q0 -36 -23.5 -60.5t-61.5 -24.5 q-39 0 -62 24.5t-23 60.5zM653 1103q0 40 23 65t62 25q40 0 63.5 -25t23.5 -65q0 -36 -23.5 -60.5t-63.5 -24.5q-39 0 -62 24.5t-23 60.5z" />
<glyph unicode="&#x4de;" horiz-adv-x="940" d="M76 25l37 130q40 -20 112.5 -33.5t174.5 -13.5q54 0 106 15t93.5 45t66.5 75.5t25 108.5q0 110 -76.5 161t-200.5 60q-21 2 -39 2.5t-38 0.5h-95v122h27h39t46 1.5t45.5 2.5t35.5 4q45 7 85 24t70 43t47 61t17 76q0 58 -19 96.5t-53 61.5t-78 33t-95 10q-95 0 -160.5 -13 t-105.5 -33l-38 116q34 19 124.5 38.5t204.5 19.5q69 0 136.5 -14.5t120 -48.5t85 -92.5t32.5 -143.5q0 -87 -57.5 -166.5t-172.5 -113.5v-7q123 -17 194.5 -92.5t71.5 -200.5q0 -99 -39 -171.5t-102.5 -119t-146.5 -68.5t-168 -22q-114 0 -188.5 13t-123.5 33zM163 1382 q0 37 25.5 59.5t67.5 22.5q40 0 65.5 -22.5t25.5 -59.5q0 -35 -25 -57.5t-66 -22.5q-42 0 -67.5 22.5t-25.5 57.5zM497 1382q0 37 25 59.5t66 22.5t67 -22.5t26 -59.5q0 -35 -26 -57.5t-67 -22.5q-40 0 -65.5 22.5t-25.5 57.5z" />
<glyph unicode="&#x4df;" horiz-adv-x="767" d="M66 38l40 115q40 -23 96.5 -35t123.5 -12q106 0 161.5 36.5t55.5 111.5q0 63 -52 98.5t-172 35.5h-101v114h121q32 0 62.5 10t54.5 28t39 43.5t15 54.5q0 68 -47 95.5t-141 27.5q-68 0 -124.5 -21t-87.5 -40l-40 108q52 29 122.5 51.5t167.5 22.5q289 0 289 -214 q0 -61 -39 -119t-112 -82v-7q103 -20 144 -74t41 -142q0 -56 -22.5 -103t-68 -81.5t-114.5 -54.5t-159 -20q-89 0 -147.5 15t-105.5 38zM103 1103q0 40 23 65t62 25q38 0 61.5 -25t23.5 -65q0 -36 -23.5 -60.5t-61.5 -24.5q-39 0 -62 24.5t-23 60.5zM437 1103q0 40 23 65 t62 25q40 0 63.5 -25t23.5 -65q0 -36 -23.5 -60.5t-63.5 -24.5q-39 0 -62 24.5t-23 60.5z" />
<glyph unicode="&#x4e0;" horiz-adv-x="980" d="M96 40l37 127q19 -10 50 -21.5t68.5 -19.5t76 -13t72.5 -5q68 0 128 17.5t104.5 49.5t70 78t25.5 104q0 122 -93.5 179t-257.5 57h-153v48l324 389l77 75l-108 -15h-418v129h723v-53l-349 -415l-61 -51v-7l60 16q86 0 159.5 -24t125.5 -67t81 -106t29 -141 q0 -95 -35.5 -166.5t-98.5 -122.5t-148 -77t-186 -26q-39 0 -82 4.5t-85 13t-78 19t-58 24.5z" />
<glyph unicode="&#x4e1;" horiz-adv-x="826" d="M68 -322l40 124q42 -21 96 -35t123 -14q60 0 111 18t88.5 50.5t58.5 79.5t21 104q0 122 -75 181.5t-204 59.5h-126v45l249 390l80 75l-112 -15h-345v129h625v-50l-276 -415l-60 -50v-7l56 14q70 0 129 -23.5t102.5 -68t67.5 -107t24 -138.5q0 -95 -32 -168t-89 -123.5 t-134 -76.5t-166 -26q-78 0 -140 12t-112 35z" />
<glyph unicode="&#x4e2;" horiz-adv-x="1184" d="M148 0v1219h144v-836l-12 -137h7l77 142l588 831h86v-1219h-145v825l11 140h-7l-75 -143l-589 -822h-85zM329 1359v108h549v-108h-549z" />
<glyph unicode="&#x4e3;" horiz-adv-x="950" d="M134 0v870h140v-531l-6 -102h7l68 108l391 525h83v-870h-140v515l6 108h-6l-71 -111l-392 -512h-80zM227 1012v107h515v-107h-515z" />
<glyph unicode="&#x4e4;" horiz-adv-x="1184" d="M148 0v1219h144v-836l-12 -137h7l77 142l588 831h86v-1219h-145v825l11 140h-7l-75 -143l-589 -822h-85zM331 1382q0 37 25.5 59.5t67.5 22.5q40 0 65.5 -22.5t25.5 -59.5q0 -35 -25 -57.5t-66 -22.5q-42 0 -67.5 22.5t-25.5 57.5zM665 1382q0 37 25 59.5t66 22.5 t67 -22.5t26 -59.5q0 -35 -26 -57.5t-67 -22.5q-40 0 -65.5 22.5t-25.5 57.5z" />
<glyph unicode="&#x4e5;" horiz-adv-x="950" d="M134 0v870h140v-531l-6 -102h7l68 108l391 525h83v-870h-140v515l6 108h-6l-71 -111l-392 -512h-80zM238 1103q0 40 23 65t62 25q38 0 61.5 -25t23.5 -65q0 -36 -23.5 -60.5t-61.5 -24.5q-39 0 -62 24.5t-23 60.5zM572 1103q0 40 23 65t62 25q40 0 63.5 -25t23.5 -65 q0 -36 -23.5 -60.5t-63.5 -24.5q-39 0 -62 24.5t-23 60.5z" />
<glyph unicode="&#x4e6;" horiz-adv-x="1190" d="M98 609q0 305 128.5 467.5t366.5 162.5q129 0 223 -45t156 -128t91.5 -198.5t29.5 -258.5q0 -304 -129.5 -467t-370.5 -163q-127 0 -220 45.5t-155 128t-91 198.5t-29 258zM251 609q0 -101 20 -191.5t61.5 -159t107 -109.5t153.5 -41q162 0 254.5 123t92.5 378 q0 100 -20 191.5t-63 159.5t-108 109.5t-156 41.5q-159 0 -250.5 -123t-91.5 -379zM336 1382q0 37 25.5 59.5t67.5 22.5q40 0 65.5 -22.5t25.5 -59.5q0 -35 -25 -57.5t-66 -22.5q-42 0 -67.5 22.5t-25.5 57.5zM670 1382q0 37 25 59.5t66 22.5t67 -22.5t26 -59.5 q0 -35 -26 -57.5t-67 -22.5q-40 0 -65.5 22.5t-25.5 57.5z" />
<glyph unicode="&#x4e7;" horiz-adv-x="932" d="M85 435q0 221 98.5 339t283.5 118q97 0 169.5 -32.5t119 -93t69 -144.5t22.5 -187q0 -221 -98 -338.5t-282 -117.5q-98 0 -170.5 32t-119 92.5t-69.5 144.5t-23 187zM210 1103q0 40 23 65t62 25q38 0 61.5 -25t23.5 -65q0 -36 -23.5 -60.5t-61.5 -24.5q-39 0 -62 24.5 t-23 60.5zM230 435q0 -66 13 -127t41 -106.5t73 -73t110 -27.5q237 -2 236 334q0 68 -13 129t-41 106.5t-73 72t-109 26.5q-237 2 -237 -334zM544 1103q0 40 23 65t62 25q40 0 63.5 -25t23.5 -65q0 -36 -23.5 -60.5t-63.5 -24.5q-39 0 -62 24.5t-23 60.5z" />
<glyph unicode="&#x4e8;" horiz-adv-x="1190" d="M98 609q0 305 128.5 467.5t366.5 162.5q129 0 223 -45t156 -128t91.5 -198.5t29.5 -258.5q0 -304 -129.5 -467t-370.5 -163q-127 0 -220 45.5t-155 128t-91 198.5t-29 258zM251 553q13 -224 108.5 -334.5t233.5 -110.5q65 0 126 21t108 72t77.5 136.5t35.5 215.5h-689z M251 683h689q-14 207 -109 317.5t-238 110.5q-63 0 -122 -22t-105.5 -72.5t-77 -132.5t-37.5 -201z" />
<glyph unicode="&#x4e9;" horiz-adv-x="932" d="M85 435q0 221 98.5 339t283.5 118q97 0 169.5 -32.5t119 -93t69 -144.5t22.5 -187q0 -221 -98 -338.5t-282 -117.5q-98 0 -170.5 32t-119 92.5t-69.5 144.5t-23 187zM230 377q8 -136 74.5 -206t162.5 -70q43 0 84 14t73 45t53 84.5t26 132.5h-473zM230 489h473 q-14 148 -75.5 214t-160.5 66q-45 0 -86.5 -14t-73.5 -46.5t-53 -86.5t-24 -133z" />
<glyph unicode="&#x4ea;" horiz-adv-x="1190" d="M98 609q0 305 128.5 467.5t366.5 162.5q129 0 223 -45t156 -128t91.5 -198.5t29.5 -258.5q0 -304 -129.5 -467t-370.5 -163q-127 0 -220 45.5t-155 128t-91 198.5t-29 258zM251 553q13 -224 108.5 -334.5t233.5 -110.5q65 0 126 21t108 72t77.5 136.5t35.5 215.5h-689z M251 683h689q-14 207 -109 317.5t-238 110.5q-63 0 -122 -22t-105.5 -72.5t-77 -132.5t-37.5 -201zM336 1382q0 37 25.5 59.5t67.5 22.5q40 0 65.5 -22.5t25.5 -59.5q0 -35 -25 -57.5t-66 -22.5q-42 0 -67.5 22.5t-25.5 57.5zM670 1382q0 37 25 59.5t66 22.5t67 -22.5 t26 -59.5q0 -35 -26 -57.5t-67 -22.5q-40 0 -65.5 22.5t-25.5 57.5z" />
<glyph unicode="&#x4eb;" horiz-adv-x="932" d="M85 435q0 221 98.5 339t283.5 118q97 0 169.5 -32.5t119 -93t69 -144.5t22.5 -187q0 -221 -98 -338.5t-282 -117.5q-98 0 -170.5 32t-119 92.5t-69.5 144.5t-23 187zM210 1103q0 40 23 65t62 25q38 0 61.5 -25t23.5 -65q0 -36 -23.5 -60.5t-61.5 -24.5q-39 0 -62 24.5 t-23 60.5zM230 377q8 -136 74.5 -206t162.5 -70q43 0 84 14t73 45t53 84.5t26 132.5h-473zM230 489h473q-14 148 -75.5 214t-160.5 66q-45 0 -86.5 -14t-73.5 -46.5t-53 -86.5t-24 -133zM544 1103q0 40 23 65t62 25q40 0 63.5 -25t23.5 -65q0 -36 -23.5 -60.5t-63.5 -24.5 q-39 0 -62 24.5t-23 60.5z" />
<glyph unicode="&#x4ec;" horiz-adv-x="1003" d="M78 23l38 127q40 -20 105 -31t134 -11q70 0 140.5 21.5t128 75.5t95.5 141.5t45 211.5h-503v130h501q-8 106 -41 186.5t-85.5 134t-121.5 78t-148 24.5q-82 0 -146 -14t-104 -39l-38 113q54 32 134 50t171 18q112 0 207.5 -34.5t166 -110.5t110.5 -196t40 -289 q0 -170 -45 -290.5t-123 -196t-179.5 -109.5t-212.5 -34q-87 0 -154.5 12t-114.5 32zM136 1382q0 37 25.5 59.5t67.5 22.5q40 0 65.5 -22.5t25.5 -59.5q0 -35 -25 -57.5t-66 -22.5q-42 0 -67.5 22.5t-25.5 57.5zM470 1382q0 37 25 59.5t66 22.5t67 -22.5t26 -59.5 q0 -35 -26 -57.5t-67 -22.5q-40 0 -65.5 22.5t-25.5 57.5z" />
<glyph unicode="&#x4ed;" horiz-adv-x="809" d="M68 814q54 37 123.5 57.5t162.5 20.5q193 0 281.5 -120.5t88.5 -336.5q0 -223 -103 -339.5t-285 -116.5q-82 0 -151 13t-115 39l40 119q40 -23 98 -36t114 -13q244 -2 259 281h-370v114h369q-9 124 -72.5 198.5t-180.5 74.5q-71 0 -124 -19t-87 -41zM100 1103q0 40 23 65 t62 25q38 0 61.5 -25t23.5 -65q0 -36 -23.5 -60.5t-61.5 -24.5q-39 0 -62 24.5t-23 60.5zM434 1103q0 40 23 65t62 25q40 0 63.5 -25t23.5 -65q0 -36 -23.5 -60.5t-63.5 -24.5q-39 0 -62 24.5t-23 60.5z" />
<glyph unicode="&#x4ee;" horiz-adv-x="962" d="M12 1219h167l312 -643l45 -154h9l35 159l233 638h147l-307 -792q-47 -124 -82.5 -206.5t-72 -134t-79 -73t-102.5 -21.5q-58 0 -92 9t-63 29l44 120q35 -20 64 -25t54 -5q48 0 81.5 49.5t57.5 147.5zM241 1359v108h549v-108h-549z" />
<glyph unicode="&#x4ef;" horiz-adv-x="810" d="M21 870h160l209 -564l49 -167h8l38 169l169 562h142l-258 -782q-30 -85 -59 -164.5t-63 -142.5t-78 -100.5t-101 -37.5q-63 0 -103 18l24 120q23 -9 44 -9q49 0 94 51.5t75 176.5zM171 1012v107h515v-107h-515z" />
<glyph unicode="&#x4f0;" horiz-adv-x="962" d="M12 1219h167l312 -643l45 -154h9l35 159l233 638h147l-307 -792q-47 -124 -82.5 -206.5t-72 -134t-79 -73t-102.5 -21.5q-58 0 -92 9t-63 29l44 120q35 -20 64 -25t54 -5q48 0 81.5 49.5t57.5 147.5zM253 1382q0 37 25.5 59.5t67.5 22.5q40 0 65.5 -22.5t25.5 -59.5 q0 -35 -25 -57.5t-66 -22.5q-42 0 -67.5 22.5t-25.5 57.5zM587 1382q0 37 25 59.5t66 22.5t67 -22.5t26 -59.5q0 -35 -26 -57.5t-67 -22.5q-40 0 -65.5 22.5t-25.5 57.5z" />
<glyph unicode="&#x4f1;" horiz-adv-x="810" d="M21 870h160l209 -564l49 -167h8l38 169l169 562h142l-258 -782q-30 -85 -59 -164.5t-63 -142.5t-78 -100.5t-101 -37.5q-63 0 -103 18l24 120q23 -9 44 -9q49 0 94 51.5t75 176.5zM173 1103q0 40 23 65t62 25q38 0 61.5 -25t23.5 -65q0 -36 -23.5 -60.5t-61.5 -24.5 q-39 0 -62 24.5t-23 60.5zM507 1103q0 40 23 65t62 25q40 0 63.5 -25t23.5 -65q0 -36 -23.5 -60.5t-63.5 -24.5q-39 0 -62 24.5t-23 60.5z" />
<glyph unicode="&#x4f2;" horiz-adv-x="962" d="M12 1219h167l312 -643l45 -154h9l35 159l233 638h147l-307 -792q-47 -124 -82.5 -206.5t-72 -134t-79 -73t-102.5 -21.5q-58 0 -92 9t-63 29l44 120q35 -20 64 -25t54 -5q48 0 81.5 49.5t57.5 147.5zM309 1290l111 190h161v-28l-173 -162h-99zM524 1290l178 190h172v-28 l-248 -162h-102z" />
<glyph unicode="&#x4f3;" horiz-adv-x="810" d="M21 870h160l209 -564l49 -167h8l38 169l169 562h142l-258 -782q-30 -85 -59 -164.5t-63 -142.5t-78 -100.5t-101 -37.5q-63 0 -103 18l24 120q23 -9 44 -9q49 0 94 51.5t75 176.5zM279 994l61 225h135v-28l-123 -197h-73zM466 994l128 225h150v-28l-199 -197h-79z" />
<glyph unicode="&#x4f4;" horiz-adv-x="1053" d="M131 789v430h144v-405q0 -239 216 -238q82 0 153.5 22t116.5 58v563h144v-1219h-144v525q-47 -26 -124 -52t-175 -26q-74 0 -135 16.5t-104.5 55.5t-67.5 105.5t-24 164.5zM274 1382q0 37 25.5 59.5t67.5 22.5q40 0 65.5 -22.5t25.5 -59.5q0 -35 -25 -57.5t-66 -22.5 q-42 0 -67.5 22.5t-25.5 57.5zM608 1382q0 37 25 59.5t66 22.5t67 -22.5t26 -59.5q0 -35 -26 -57.5t-67 -22.5q-40 0 -65.5 22.5t-25.5 57.5z" />
<glyph unicode="&#x4f5;" horiz-adv-x="852" d="M85 606v264h139v-237q0 -47 5.5 -84t21 -64t45.5 -42t78 -15q78 0 128.5 17.5t77.5 38.5v386h139v-870h-139v366q-28 -18 -83 -39t-150 -21q-65 0 -114 14t-82 49t-49.5 92t-16.5 145zM148 1103q0 40 23 65t62 25q38 0 61.5 -25t23.5 -65q0 -36 -23.5 -60.5t-61.5 -24.5 q-39 0 -62 24.5t-23 60.5zM482 1103q0 40 23 65t62 25q40 0 63.5 -25t23.5 -65q0 -36 -23.5 -60.5t-63.5 -24.5q-39 0 -62 24.5t-23 60.5z" />
<glyph unicode="&#x4f6;" horiz-adv-x="769" d="M148 0v1219h653v-129h-509v-961h160v-353h-100l-26 224h-178z" />
<glyph unicode="&#x4f7;" horiz-adv-x="641" d="M134 0v870h509v-121h-369v-627h128v-343h-94l-26 221h-148z" />
<glyph unicode="&#x4f8;" horiz-adv-x="1337" d="M148 12v1207h144v-474q9 2 26.5 4.5t38 4.5t43 3.5t42.5 1.5q82 0 159.5 -16.5t136.5 -58t95 -112t36 -178.5q0 -105 -33.5 -182.5t-93 -127t-143.5 -74t-185 -24.5q-25 0 -56.5 1t-67.5 3.5t-72.5 7.5t-69.5 14zM292 122q48 -11 135 -11q125 0 207 68t82 204 q0 73 -25 121.5t-65.5 77.5t-93.5 40t-112 11q-32 0 -70 -5t-58 -10v-496zM399 1382q0 37 25.5 59.5t67.5 22.5q40 0 65.5 -22.5t25.5 -59.5q0 -35 -25 -57.5t-66 -22.5q-42 0 -67.5 22.5t-25.5 57.5zM733 1382q0 37 25 59.5t66 22.5t67 -22.5t26 -59.5q0 -35 -26 -57.5 t-67 -22.5q-40 0 -65.5 22.5t-25.5 57.5zM1046 0v1219h145v-1219h-145z" />
<glyph unicode="&#x4f9;" horiz-adv-x="1148" d="M134 0v870h140v-332q41 7 79.5 9.5t73.5 2.5q88 0 148.5 -20t97 -55t51 -82.5t14.5 -101.5q0 -158 -87.5 -229.5t-284.5 -71.5q-112 0 -232 10zM274 122q64 -11 123 -11q110 0 153 42.5t43 121.5q0 70 -42.5 115t-148.5 45q-30 0 -64.5 -1.5t-63.5 -10.5v-301zM314 1103 q0 40 23 65t62 25q38 0 61.5 -25t23.5 -65q0 -36 -23.5 -60.5t-61.5 -24.5q-39 0 -62 24.5t-23 60.5zM648 1103q0 40 23 65t62 25q40 0 63.5 -25t23.5 -65q0 -36 -23.5 -60.5t-63.5 -24.5q-39 0 -62 24.5t-23 60.5zM876 0v870h139v-870h-139z" />
<glyph unicode="&#x4fc;" horiz-adv-x="1075" d="M45 0l405 620l-370 599h174l248 -413l43 -100l41 100l261 413h161l-383 -587l242 -374q56 -85 81 -156.5t25 -144.5q0 -162 -57.5 -242.5t-181.5 -80.5h-26.5t-26.5 4v118q48 0 78.5 14t47.5 37.5t22 55t5 64.5q0 85 -28 149.5t-63 118.5l-158 242l-50 104l-46 -104 l-282 -437h-162z" />
<glyph unicode="&#x4fd;" horiz-adv-x="894" d="M48 0l314 445l-292 425h171l164 -240l50 -99l50 99l169 240h156l-294 -418l167 -233q50 -73 80.5 -144.5t30.5 -137.5q0 -151 -65 -228.5t-191 -77.5q-13 0 -27 1t-26 2v119q99 0 135 38t36 116q0 72 -30.5 135t-65.5 113l-82 109l-56 98l-50 -98l-188 -264h-156z" />
<glyph unicode="&#x2000;" horiz-adv-x="757" />
<glyph unicode="&#x2001;" horiz-adv-x="1515" />
<glyph unicode="&#x2002;" horiz-adv-x="757" />
<glyph unicode="&#x2003;" horiz-adv-x="1515" />
<glyph unicode="&#x2004;" horiz-adv-x="505" />
<glyph unicode="&#x2005;" horiz-adv-x="378" />
<glyph unicode="&#x2006;" horiz-adv-x="252" />
<glyph unicode="&#x2007;" horiz-adv-x="252" />
<glyph unicode="&#x2008;" horiz-adv-x="189" />
<glyph unicode="&#x2009;" horiz-adv-x="303" />
<glyph unicode="&#x200a;" horiz-adv-x="84" />
<glyph unicode="&#x2013;" horiz-adv-x="1148" d="M206 437v129h738v-129h-738z" />
<glyph unicode="&#x2014;" horiz-adv-x="1427" d="M206 437v129h1016v-129h-1016z" />
<glyph unicode="&#x2018;" horiz-adv-x="337" d="M70 1116q0 58 16.5 98.5t40 69t49 46t43.5 24.5l44 -60q-39 -20 -62 -52t-23 -81q6 2 18 2q35 0 54 -24.5t19 -58.5q0 -40 -25.5 -64t-65.5 -24q-47 0 -77.5 31.5t-30.5 92.5z" />
<glyph unicode="&#x2019;" horiz-adv-x="337" d="M70 1148q0 39 25 61.5t65 22.5q48 0 78.5 -30.5t30.5 -90.5q0 -58 -16 -99.5t-39.5 -70.5t-49.5 -46.5t-46 -24.5l-43 60q40 21 62.5 52t22.5 81q-7 -1 -19 -1q-33 0 -52 23.5t-19 62.5z" />
<glyph unicode="&#x201a;" horiz-adv-x="337" d="M70 88q0 39 25 61.5t65 22.5q48 0 78.5 -30.5t30.5 -90.5q0 -58 -16 -99.5t-39.5 -70.5t-49.5 -46.5t-46 -24.5l-43 60q40 21 62.5 52t22.5 81q-7 -1 -19 -1q-33 0 -52 23.5t-19 62.5z" />
<glyph unicode="&#x201c;" horiz-adv-x="591" d="M70 1116q0 58 16.5 98.5t40 69t49 46t43.5 24.5l44 -60q-39 -20 -62 -52t-23 -81q6 2 18 2q35 0 54 -24.5t19 -58.5q0 -40 -25.5 -64t-65.5 -24q-47 0 -77.5 31.5t-30.5 92.5zM324 1116q0 58 16.5 98.5t40 69t49 46t43.5 24.5l44 -60q-39 -20 -62 -52t-23 -81q6 2 18 2 q35 0 54 -24.5t19 -58.5q0 -40 -25.5 -64t-65.5 -24q-47 0 -77.5 31.5t-30.5 92.5z" />
<glyph unicode="&#x201d;" horiz-adv-x="591" d="M70 1148q0 39 25 61.5t65 22.5q48 0 78.5 -30.5t30.5 -90.5q0 -58 -16 -99.5t-39.5 -70.5t-49.5 -46.5t-46 -24.5l-43 60q40 21 62.5 52t22.5 81q-7 -1 -19 -1q-33 0 -52 23.5t-19 62.5zM324 1148q0 39 25 61.5t65 22.5q48 0 78.5 -30.5t30.5 -90.5q0 -58 -16 -99.5 t-39.5 -70.5t-49.5 -46.5t-46 -24.5l-43 60q40 21 62.5 52t22.5 81q-7 -1 -19 -1q-33 0 -52 23.5t-19 62.5z" />
<glyph unicode="&#x201e;" horiz-adv-x="591" d="M70 88q0 39 25 61.5t65 22.5q48 0 78.5 -30.5t30.5 -90.5q0 -58 -16 -99.5t-39.5 -70.5t-49.5 -46.5t-46 -24.5l-43 60q40 21 62.5 52t22.5 81q-7 -1 -19 -1q-33 0 -52 23.5t-19 62.5zM324 88q0 39 25 61.5t65 22.5q48 0 78.5 -30.5t30.5 -90.5q0 -58 -16 -99.5 t-39.5 -70.5t-49.5 -46.5t-46 -24.5l-43 60q40 21 62.5 52t22.5 81q-7 -1 -19 -1q-33 0 -52 23.5t-19 62.5z" />
<glyph unicode="&#x2026;" horiz-adv-x="1320" d="M123 80q0 47 27.5 74t72.5 27q46 0 74.5 -26.5t28.5 -74.5q0 -45 -28.5 -73t-74.5 -28q-45 0 -72.5 28t-27.5 73zM566 80q0 47 27 74t72 27q46 0 74.5 -26.5t28.5 -74.5q0 -45 -28 -73t-75 -28q-45 0 -72 28t-27 73zM1008 80q0 47 27 74t73 27t74 -26.5t28 -74.5 q0 -45 -28 -73t-74 -28t-73 28t-27 73z" />
<glyph unicode="&#x202f;" horiz-adv-x="303" />
<glyph unicode="&#x2039;" horiz-adv-x="516" d="M68 450l279 401l92 -75l-170 -252l-83 -72l83 -62l180 -247l-92 -77z" />
<glyph unicode="&#x203a;" horiz-adv-x="516" d="M68 774l92 77l289 -384l-278 -401l-93 75l169 253l84 71l-84 63z" />
<glyph unicode="&#x205f;" horiz-adv-x="378" />
<glyph unicode="&#x20ac;" d="M17 439l31 114h96q-1 16 -1 27.5v28.5v33.5t1 33.5h-127l31 114h110q21 117 65.5 202.5t108 140t142 80.5t167.5 26q88 0 152.5 -11t111.5 -30l-36 -127q-40 20 -94 30t-131 10q-58 0 -111.5 -17.5t-98 -56.5t-78.5 -100t-52 -147h492l-30 -114h-477q-2 -20 -2 -34v-33 v-28t2 -28h442l-30 -114h-400q31 -164 124 -247.5t241 -83.5q68 0 124.5 15.5t96.5 40.5l35 -114q-52 -40 -129 -55.5t-155 -15.5q-199 0 -323.5 113.5t-159.5 346.5h-138z" />
<glyph unicode="&#x2122;" horiz-adv-x="1540" d="M66 1100v119h610v-119h-237v-508h-136v508h-237zM745 592v627h136l182 -293l50 -101h1l52 105l169 289h138v-627h-133v290l17 180h-6l-68 -148l-152 -244h-57l-155 242l-62 150h-8l23 -178v-292h-127z" />
<glyph unicode="&#x25fc;" horiz-adv-x="870" d="M0 0v870h870v-870h-870z" />
</font>
</defs>
</svg>
