<?xml version="1.0" standalone="no"?>
<!DOCTYPE svg PUBLIC "-//W3C//DTD SVG 1.1//EN" "http://www.w3.org/Graphics/SVG/1.1/DTD/svg11.dtd" >
<svg xmlns="http://www.w3.org/2000/svg" xmlns:xlink="http://www.w3.org/1999/xlink" version="1.1">
<metadata></metadata>
<defs>
<font id="pt_sans_narrowregular" horiz-adv-x="782" >
<font-face units-per-em="2048" ascent="1577" descent="-471" />
<missing-glyph horiz-adv-x="368" />
<glyph horiz-adv-x="0" />
<glyph unicode="&#xd;" horiz-adv-x="368" />
<glyph unicode=" "  horiz-adv-x="368" />
<glyph unicode="&#x09;" horiz-adv-x="368" />
<glyph unicode="&#xa0;" horiz-adv-x="368" />
<glyph unicode="!" horiz-adv-x="429" d="M153 78q0 49 24 73.5t64 24.5q39 0 62.5 -24t23.5 -74t-23.5 -74.5t-62.5 -24.5q-40 0 -64 24.5t-24 74.5zM176 615v604h130v-604l-26 -307h-78z" />
<glyph unicode="&#x22;" horiz-adv-x="497" d="M125 882v337h121l-45 -337h-76zM308 882v337h121l-45 -337h-76z" />
<glyph unicode="#" d="M42 392l23 104h106l47 244h-107l23 104h105l52 274h106l-52 -274h142l54 274h107l-53 -274h106l-24 -104h-102l-47 -244h104l-24 -104h-100l-56 -291h-107l55 291h-142l-56 -291h-106l55 291h-109zM277 496h145l46 244h-144z" />
<glyph unicode="$" d="M110 31l40 119q28 -20 76.5 -37t114.5 -20v493q-43 29 -84 60t-73.5 73t-52.5 96.5t-20 129.5q0 115 58.5 193t171.5 96v158h106v-154q68 -4 113.5 -13t85.5 -29l-40 -113q-30 15 -66.5 26.5t-92.5 15.5v-449q43 -30 87 -63t78 -75.5t55 -97.5t21 -128q0 -125 -62 -212.5 t-179 -111.5v-162h-106v153q-77 3 -135 15.5t-96 36.5zM242 950q0 -76 36 -126.5t91 -92.5v390q-71 -13 -99 -64t-28 -107zM420 99q63 14 100 65.5t37 138.5q0 83 -40 135.5t-97 94.5v-434z" />
<glyph unicode="%" horiz-adv-x="1108" d="M97 944q0 79 16.5 135.5t46.5 92.5t71 51.5t88 15.5t88 -14.5t71.5 -48.5t47 -91.5t16.5 -140.5q0 -84 -16.5 -141.5t-47 -91.5t-71.5 -48.5t-88 -14.5t-88 14.5t-71 48.5t-46.5 91.5t-16.5 141.5zM160 31l742 1210l82 -52l-742 -1210zM210 944q0 -114 30 -157.5 t79 -43.5q25 0 45 9t33.5 30.5t21.5 60.5t8 101q0 59 -8 98t-21.5 61.5t-34 31.5t-44.5 9q-26 0 -46 -9t-34 -31.5t-21.5 -61.5t-7.5 -98zM608 298q0 79 16.5 135.5t46.5 92.5t71 51.5t88 15.5t88 -14.5t71.5 -48.5t47 -91.5t16.5 -140.5q0 -84 -16.5 -141.5t-47 -91.5 t-71.5 -48.5t-88 -14.5t-88 14.5t-71 48.5t-46.5 91.5t-16.5 141.5zM721 298q0 -114 30 -157.5t79 -43.5q25 0 45 9t33.5 30.5t21.5 60.5t8 101q0 59 -8 98t-21.5 61.5t-34 31.5t-44.5 9q-26 0 -46 -9t-34 -31.5t-21.5 -61.5t-7.5 -98z" />
<glyph unicode="&#x26;" horiz-adv-x="1141" d="M158 327q0 70 21.5 131.5t55 114.5t77 97t88.5 79q-34 63 -60 129t-26 139q0 41 11 81t37 71.5t66 50.5t97 19q60 0 100.5 -17.5t65.5 -45t36 -63t11 -73.5q0 -75 -47 -153.5t-143 -153.5q23 -49 51.5 -102t61 -106t66.5 -104.5t67 -94.5q31 43 59 116t45 141l102 -40 q-9 -30 -25 -71.5t-34.5 -84t-38.5 -82t-37 -64.5q58 -68 97 -105.5t79 -65.5l-78 -91q-78 45 -171 162q-24 -31 -55 -60t-68 -51.5t-83 -36.5t-101 -14q-68 0 -127.5 22t-104 65.5t-70 109t-25.5 151.5zM284 329q0 -58 17.5 -102t47.5 -74t69.5 -45t83.5 -15q33 0 66 11.5 t61.5 31t51.5 42.5t38 48q-40 50 -78 108t-73 115.5t-64 111.5t-48 99q-36 -35 -67.5 -70t-55 -74t-36.5 -85t-13 -102zM439 1017q0 -52 16.5 -102.5t42.5 -103.5q72 61 98.5 111.5t26.5 90.5q0 49 -20 84.5t-72 35.5q-48 0 -70 -33t-22 -83z" />
<glyph unicode="'" horiz-adv-x="314" d="M125 882v337h121l-45 -337h-76z" />
<glyph unicode="(" horiz-adv-x="405" d="M83 423q0 96 12.5 202t40.5 213t74 210t112 191l78 -46q-56 -89 -92.5 -186.5t-58 -197.5t-31 -198.5t-9.5 -187.5q0 -83 10.5 -183.5t34 -201.5t60 -196.5t86.5 -172.5l-81 -52q-67 83 -111 183.5t-72 205.5t-40.5 212.5t-12.5 204.5z" />
<glyph unicode=")" horiz-adv-x="405" d="M83 -331q50 77 87 172.5t60.5 196.5t34 201t10.5 184q0 89 -9.5 187.5t-31.5 198.5t-59 197t-92 187l79 46q66 -88 112 -191t74 -210t40 -213.5t12 -201.5q0 -97 -12 -204.5t-40 -212.5t-73 -205t-109 -184z" />
<glyph unicode="*" horiz-adv-x="505" d="M52 966v89h77l87 -19l-66 72l-39 70l77 46l35 -66l26 -91l28 91l37 64l76 -41l-40 -70l-66 -75l95 19h73v-89h-67l-94 19l68 -76l35 -62l-75 -43l-37 66l-33 96l-26 -92l-37 -65l-76 44l40 66l61 66l-82 -19h-77z" />
<glyph unicode="+" horiz-adv-x="721" d="M61 533v116h240v272h119v-272h240v-116h-240v-272h-119v272h-240z" />
<glyph unicode="," horiz-adv-x="323" d="M54 -196q22 12 42 32t33.5 44t20 51t6.5 54q-34 -11 -63.5 13.5t-29.5 76.5q0 43 25 69.5t65 26.5q45 0 74 -36.5t29 -114.5q0 -58 -15 -104.5t-38.5 -81.5t-51.5 -57.5t-53 -32.5z" />
<glyph unicode="-" horiz-adv-x="505" d="M82 437v120h343v-120h-343z" />
<glyph unicode="." horiz-adv-x="309" d="M68 78q0 49 23.5 73.5t63.5 24.5t63.5 -24t23.5 -74t-23.5 -74.5t-63.5 -24.5t-63.5 24.5t-23.5 74.5z" />
<glyph unicode="/" horiz-adv-x="513" d="M-48 -207l511 1446l97 -38l-508 -1445z" />
<glyph unicode="0" d="M66 609q0 168 21 288t62.5 195.5t103 111t139.5 35.5q83 0 145 -35.5t102 -111t59 -196t19 -287.5q0 -169 -20.5 -288t-62.5 -195t-102 -111.5t-138 -35.5q-85 0 -147.5 36.5t-102 113.5t-59 196t-19.5 284zM196 609q0 -249 47.5 -382.5t151.5 -133.5q101 0 147 122 t46 394q0 248 -44 382.5t-152 134.5q-101 0 -148.5 -121.5t-47.5 -395.5z" />
<glyph unicode="1" d="M105 944l317 295h63v-1123h191v-116h-512v116h196v849l16 102l-59 -84l-146 -118z" />
<glyph unicode="2" d="M96 0v56q33 40 76.5 101t89.5 133t90.5 153t79.5 164.5t56.5 165.5t21.5 157q0 88 -41 140.5t-119 52.5q-50 0 -98 -18.5t-83 -46.5l-49 93q47 42 115 65t142 23q130 0 197 -79t67 -208q0 -96 -29 -200t-73 -206t-99 -196t-108 -167l-69 -77v-5l92 15h305v-116h-564z" />
<glyph unicode="3" d="M128 20l34 113q33 -20 75.5 -30t98.5 -10q46 0 86 19t68 54t44 82.5t16 105.5q0 129 -56.5 188t-157.5 59h-105v50l203 390l68 73l-97 -12h-272v117h505v-51l-224 -416l-52 -51v-3l50 11q54 0 103 -22t83.5 -64.5t56 -105t21.5 -146.5q0 -95 -27.5 -167.5t-73 -122.5 t-108 -76t-131.5 -26q-61 0 -115 10.5t-93 30.5z" />
<glyph unicode="4" d="M35 374v60l461 804h92v-751h163v-113h-163v-374h-125v374h-428zM169 475l95 12h199v390l21 150h-5l-52 -134l-192 -333z" />
<glyph unicode="5" d="M111 12l32 111q31 -15 69.5 -21t88.5 -6q99 0 161 72.5t63 202.5q-1 134 -63 198t-171 64l-115 -8v594h445v-123h-330v-355l59 6q140 -2 219.5 -96t81.5 -269q-2 -98 -29 -173t-73.5 -126.5t-109.5 -77.5t-135 -26q-120 0 -193 33z" />
<glyph unicode="6" d="M88 409q0 184 38 328.5t102 249t151.5 168.5t186.5 84l35 -101q-78 -21 -142.5 -69.5t-113.5 -118t-81.5 -157t-44.5 -185.5q23 46 76 81t132 35q125 0 200.5 -88.5t77.5 -268.5q-2 -87 -22 -159t-59 -122.5t-95.5 -78.5t-128.5 -28q-146 0 -229 106t-83 324zM211 430.5 q0 -21.5 1 -40.5q-1 -58 10 -111t34.5 -94.5t59.5 -66.5t84 -25q79 0 128.5 69.5t49.5 192.5q0 256 -184 256q-67 0 -114 -41.5t-66 -94.5q-3 -23 -3 -44.5z" />
<glyph unicode="7" d="M98 1098v121h593v-48l-400 -1171h-125l351 1028l63 86l-84 -16h-398z" />
<glyph unicode="8" d="M101 282q0 117 47.5 199t142.5 147q-35 26 -65.5 55t-53 65.5t-36 82t-13.5 104.5q0 141 74 222.5t203 81.5q120 0 190.5 -74t70.5 -202q0 -99 -38 -175.5t-120 -149.5q37 -27 70 -58.5t58 -70.5t39 -88.5t14 -114.5q0 -148 -79.5 -237.5t-219.5 -89.5q-68 0 -120.5 23 t-89 63t-55.5 95.5t-19 121.5zM221 301q0 -89 43.5 -148.5t127.5 -59.5q68 0 117 49t49 157q0 54 -15 96t-41.5 74.5t-59.5 59t-70 51.5q-80 -60 -115.5 -133t-35.5 -146zM246 938q0 -46 14 -83.5t38 -68t55.5 -55.5t66.5 -48q59 59 90 119t31 133q0 96 -42.5 143.5 t-99.5 47.5q-37 0 -66 -15t-48 -40.5t-29 -59.5t-10 -73z" />
<glyph unicode="9" d="M80 849q0 181 77.5 285.5t230.5 104.5q147 0 227.5 -108t80.5 -330q0 -197 -36.5 -342t-100.5 -245.5t-151.5 -158t-188.5 -76.5l-33 103q168 43 260 174.5t117 329.5q-37 -50 -81.5 -70.5t-117.5 -20.5q-56 0 -107 21.5t-90 65.5t-63 111.5t-24 155.5zM207 864 q0 -124 50.5 -190t134.5 -66q66 0 112 28.5t67 74.5q4 23 4 43v40q0 66 -11.5 126t-35 106.5t-60 73t-86.5 26.5q-82 0 -128.5 -71.5t-46.5 -190.5z" />
<glyph unicode=":" horiz-adv-x="357" d="M133 78q0 49 23.5 73.5t63.5 24.5t63.5 -24t23.5 -74t-23.5 -74.5t-63.5 -24.5t-63.5 24.5t-23.5 74.5zM133 779q0 49 23.5 73.5t63.5 24.5t63.5 -24t23.5 -74t-23.5 -74.5t-63.5 -24.5t-63.5 24.5t-23.5 74.5z" />
<glyph unicode=";" horiz-adv-x="375" d="M122 -196q22 12 42 32t33.5 44t20 51t6.5 54q-34 -11 -63.5 13.5t-29.5 76.5q0 43 25 69.5t65 26.5q45 0 74 -36.5t29 -114.5q0 -58 -15 -104.5t-38.5 -81.5t-51.5 -57.5t-53 -32.5zM148 779q0 49 23.5 73.5t63.5 24.5t63.5 -24t23.5 -74t-23.5 -74.5t-63.5 -24.5 t-63.5 24.5t-23.5 74.5z" />
<glyph unicode="&#x3c;" horiz-adv-x="721" d="M63 531v50l522 389l68 -94l-333 -253l-129 -66l128 -55l341 -251l-67 -95z" />
<glyph unicode="=" horiz-adv-x="721" d="M61 390v116h599v-116h-599zM61 677v116h599v-116h-599z" />
<glyph unicode="&#x3e;" horiz-adv-x="721" d="M63 877l70 93l527 -371v-51l-519 -388l-71 92l334 253l127 66l-126 55z" />
<glyph unicode="?" horiz-adv-x="623" d="M56 1159q52 35 113.5 57.5t150.5 22.5q125 0 190 -73t65 -200q0 -74 -19.5 -133.5t-47.5 -109t-61 -95t-61.5 -93.5t-47.5 -103t-19 -124h-105q-5 76 10 135.5t41 109.5t56.5 93t58 89.5t46 97.5t18.5 116q0 79 -35 128t-118 49q-50 0 -99 -18t-87 -46zM188 78 q0 49 23.5 73.5t63.5 24.5t63.5 -24t23.5 -74t-23.5 -74.5t-63.5 -24.5t-63.5 24.5t-23.5 74.5z" />
<glyph unicode="@" horiz-adv-x="1491" d="M118 411q0 179 53 321t143 239t210 149.5t254 52.5q129 0 238 -38.5t188.5 -114.5t124.5 -189.5t45 -262.5q0 -120 -31.5 -223t-85 -177.5t-124 -117.5t-150.5 -43q-33 0 -59.5 9t-43 29.5t-24 55.5t0.5 85h-8q-19 -35 -45 -67t-56.5 -57t-66 -40t-73.5 -15 q-73 0 -124.5 65.5t-51.5 188.5q0 129 28.5 240.5t78 193t116 128t141.5 46.5q50 0 82 -17.5t62 -47.5l43 51h58l-71 -507q-15 -116 -9.5 -173t51.5 -57q45 0 90.5 30t81 87t57 141t21.5 192q0 123 -35.5 216t-99.5 156t-154.5 95t-199.5 32q-113 0 -212 -46t-172.5 -131.5 t-116 -203.5t-42.5 -264q0 -152 39 -263.5t110 -186.5t169 -111.5t216 -36.5q42 0 96.5 10.5t94.5 31.5l32 -97q-60 -28 -118 -39.5t-122 -11.5q-127 0 -241 40t-200.5 124.5t-137 216t-50.5 312.5zM552 291q0 -79 23.5 -125t78.5 -46q27 0 54.5 19t54.5 49.5t51.5 69 t42.5 76.5l47 362q-23 32 -46.5 46t-58.5 14q-52 0 -97.5 -39.5t-78.5 -104.5t-52 -149t-19 -172z" />
<glyph unicode="A" horiz-adv-x="822" d="M8 0l368 1238h71l367 -1238h-135l-99 341h-345l-97 -341h-130zM269 458h279l-106 376l-33 183h-4l-33 -187z" />
<glyph unicode="B" horiz-adv-x="819" d="M111 8v1200q52 10 122.5 17t153.5 7q59 0 118 -11t106 -42t76 -88t29 -149q0 -45 -11 -90.5t-33.5 -85.5t-56.5 -71.5t-82 -46.5v-7q42 -9 80 -29t68 -56t47 -87t17 -122q0 -95 -29.5 -163.5t-81 -112t-118.5 -64.5t-142 -21h-56.5t-68.5 3t-72.5 7t-65.5 12zM242 118 q10 -3 27 -5t37 -3.5t41 -2.5t38 -1q47 0 87 15t70.5 44.5t48 72t17.5 99.5q0 72 -22 116.5t-56.5 69t-79.5 33t-91 8.5h-117v-446zM242 677h72q24 0 55 2t53 5q64 27 110 85t46 143q0 58 -15.5 97t-42.5 61.5t-63.5 32.5t-77.5 10q-45 0 -81.5 -2.5t-55.5 -7.5v-426z" />
<glyph unicode="C" horiz-adv-x="796" d="M75 609q0 175 35.5 294.5t94.5 194.5t137 108t160 33q83 0 137.5 -11.5t94.5 -29.5l-31 -118q-35 19 -81.5 29t-108.5 10q-61 0 -114.5 -27t-95.5 -87t-66.5 -157t-24.5 -239q0 -254 87.5 -382t231.5 -128q60 0 106.5 17t79.5 39l32 -108q-43 -37 -109.5 -52.5 t-139.5 -15.5q-93 0 -171 34.5t-134.5 111t-88 196t-31.5 288.5z" />
<glyph unicode="D" horiz-adv-x="913" d="M111 -2v1221q28 5 62 7.5t69 3.5t69 1.5t63 0.5q128 0 216.5 -43t144 -124.5t80 -194.5t24.5 -252q0 -125 -23.5 -240t-79 -202.5t-147 -139t-229.5 -51.5q-23 0 -57.5 0.5t-72 3.5t-69.5 4.5t-50 4.5zM242 111q7 -1 25.5 -2t38.5 -2t38 -1.5t27 -0.5q96 0 160 41.5 t101.5 112t53 163.5t15.5 198q0 92 -13.5 181t-49 157.5t-97.5 111.5t-159 43h-37.5t-39.5 -2t-36 -4t-27 -4v-992z" />
<glyph unicode="E" horiz-adv-x="746" d="M111 0v1219h542v-121h-411v-412h378v-120h-378v-446h419v-120h-550z" />
<glyph unicode="F" horiz-adv-x="718" d="M111 0v1219h542v-121h-411v-430h383v-120h-383v-548h-131z" />
<glyph unicode="G" horiz-adv-x="855" d="M75 609q0 171 36.5 290t98 195t141 110.5t162.5 34.5q84 0 141 -11t97 -30l-32 -118q-35 19 -83 29t-111 10q-61 0 -116 -26t-100 -86t-71 -157.5t-26 -240.5q0 -261 82.5 -385.5t227.5 -124.5q90 0 150 44v355l-225 33v77h337v-537q-49 -45 -126 -68.5t-155 -23.5 q-98 0 -177 36.5t-134.5 114t-86 196t-30.5 283.5z" />
<glyph unicode="H" horiz-adv-x="932" d="M111 0v1219h131v-536h449v536h131v-1219h-131v563h-449v-563h-131z" />
<glyph unicode="I" horiz-adv-x="405" d="M138 0v1219h130v-1219h-130z" />
<glyph unicode="J" horiz-adv-x="419" d="M-45 10l28 113q17 -10 38.5 -15t44.5 -5q32 0 51 14t29 39t13 60.5t3 81.5v921h130v-945q0 -143 -45.5 -217t-161.5 -74q-28 0 -67 7t-63 20z" />
<glyph unicode="K" horiz-adv-x="857" d="M111 0v1219h131v-568l61 25l317 543h149l-319 -526l-60 -55l72 -70l352 -568h-165l-345 564h-62v-564h-131z" />
<glyph unicode="L" horiz-adv-x="721" d="M111 0v1219h131v-1099h456v-120h-587z" />
<glyph unicode="M" horiz-adv-x="1108" d="M111 0v1219h110l294 -599l43 -143h5l41 144l278 598h116v-1219h-131v801l15 184h-6l-56 -172l-245 -529h-44l-257 529l-55 172h-7l25 -184v-801h-126z" />
<glyph unicode="N" horiz-adv-x="935" d="M111 0v1238h79l451 -791l71 -183h7l-19 183v772h125v-1239h-80l-447 793l-75 192h-5l19 -192v-773h-126z" />
<glyph unicode="O" horiz-adv-x="955" d="M75 609q0 311 99.5 470.5t302.5 159.5q109 0 186 -44t125 -126t70.5 -198.5t22.5 -261.5q0 -310 -100 -470t-304 -160q-108 0 -184.5 44.5t-125.5 126t-70.5 198.5t-21.5 261zM212 609q0 -102 15 -194.5t46 -162t81.5 -111.5t122.5 -42q131 0 198.5 125.5t67.5 384.5 q0 102 -14.5 194t-46 162.5t-82 112t-123.5 41.5q-129 0 -197 -125t-68 -385z" />
<glyph unicode="P" horiz-adv-x="784" d="M111 0v1206q56 15 118.5 20.5t124.5 5.5q69 0 136.5 -15.5t122.5 -57t89 -114.5t34 -187q0 -109 -32 -186t-85 -124.5t-122 -69.5t-142 -22h-22.5t-33 1t-34 3t-23.5 3v-463h-131zM242 583q7 -3 22 -4t30.5 -2t30 -1h22.5q48 0 93 12.5t80 44.5t57 86.5t22 138.5 q0 74 -20.5 122t-52 78t-75.5 42.5t-91 12.5q-34 0 -66.5 -2.5t-51.5 -8.5v-519z" />
<glyph unicode="Q" horiz-adv-x="955" d="M75 609q0 311 99.5 470.5t302.5 159.5q109 0 186 -44t125 -126t70.5 -198.5t22.5 -261.5q0 -310 -100 -470t-304 -160q-108 0 -184.5 44.5t-125.5 126t-70.5 198.5t-21.5 261zM212 609q0 -102 15 -194.5t46 -162t81.5 -111.5t122.5 -42q131 0 198.5 125.5t67.5 384.5 q0 102 -14.5 194t-46 162.5t-82 112t-123.5 41.5q-129 0 -197 -125t-68 -385zM296 -87q38 11 76 11q58 0 116.5 -17.5t117.5 -38.5t122.5 -38.5t131.5 -17.5q63 0 125 17v-118q-35 -12 -67 -16.5t-65 -4.5q-69 0 -136.5 18t-129.5 39.5t-119 39.5t-109 18q-32 0 -63 -11v119 z" />
<glyph unicode="R" horiz-adv-x="835" d="M111 0v1206q58 14 126.5 20t126.5 6q68 0 128.5 -16.5t106 -55.5t72.5 -102.5t27 -159.5q0 -144 -60 -231t-159 -117l66 -65l240 -485h-152l-261 531l-130 26v-557h-131zM242 644h105q99 0 156 61t57 187q0 96 -47.5 158.5t-141.5 62.5q-35 0 -72.5 -2.5t-56.5 -8.5v-458 z" />
<glyph unicode="S" horiz-adv-x="744" d="M58 42l45 120q33 -23 93 -43t136 -20q98 0 159 48t61 151q0 68 -35 118.5t-87.5 93t-112 83t-112 90.5t-87.5 114.5t-35 154.5q0 146 88 216.5t229 70.5q87 0 155 -15.5t110 -39.5l-42 -116q-31 20 -89.5 35.5t-134.5 15.5q-95 0 -140 -46t-45 -116q0 -61 35 -108 t87 -88.5t112 -84.5t112.5 -94.5t87.5 -118t35 -157.5q0 -153 -90.5 -240t-256.5 -87q-105 0 -171.5 19t-106.5 44z" />
<glyph unicode="T" horiz-adv-x="777" d="M25 1098v121h729v-121h-299v-1098h-131v1098h-299z" />
<glyph unicode="U" horiz-adv-x="906" d="M111 374v845h131v-777q0 -94 12 -158.5t40 -104.5t69.5 -57t103.5 -17q114 0 158.5 79.5t44.5 257.5v777h126v-817q0 -221 -86.5 -319t-244.5 -98q-185 0 -269.5 95.5t-84.5 293.5z" />
<glyph unicode="V" horiz-adv-x="805" d="M-3 1219h144l238 -834l32 -187h3l35 190l227 831h133l-369 -1239h-69z" />
<glyph unicode="W" horiz-adv-x="1169" d="M8 1219h142l167 -807l20 -203h4l21 207l195 803h75l195 -805l20 -205h2l25 207l154 803h131l-272 -1239h-79l-193 804l-25 186h-5l-25 -188l-193 -802h-81z" />
<glyph unicode="X" horiz-adv-x="870" d="M33 0l321 620l-293 599h157l189 -413l35 -103l35 103l200 413h145l-304 -587l318 -632h-153l-211 437l-40 108l-37 -108l-216 -437h-146z" />
<glyph unicode="Y" horiz-adv-x="791" d="M8 1219h154l220 -531l22 -107h3l23 110l213 528h141l-321 -734v-485h-131v484z" />
<glyph unicode="Z" horiz-adv-x="764" d="M50 0v120l485 908l57 70h-542v121h664v-121l-486 -914l-55 -64h541v-120h-664z" />
<glyph unicode="[" horiz-adv-x="430" d="M111 -400v1619h272v-114h-146v-1392h146v-113h-272z" />
<glyph unicode="\" horiz-adv-x="549" d="M-48 1199l106 40l517 -1443l-105 -40z" />
<glyph unicode="]" horiz-adv-x="430" d="M50 -287h145v1392h-145v114h270v-1619h-270v113z" />
<glyph unicode="^" horiz-adv-x="716" d="M70 757l262 481h53l241 -481h-130l-108 235l-31 121l-42 -123l-125 -233h-120z" />
<glyph unicode="_" horiz-adv-x="581" d="M0 -244h581v-113h-581v113z" />
<glyph unicode="`" horiz-adv-x="443" d="M105 1217v37h144l90 -260h-71z" />
<glyph unicode="a" horiz-adv-x="696" d="M50 233q0 75 25.5 125.5t71.5 82t109.5 44.5t142.5 13h34t37 -2q5 54 5 96q0 99 -29.5 139t-108.5 40q-48 0 -105.5 -15t-95.5 -37l-42 100q50 31 122.5 48t152.5 17q73 0 117.5 -21.5t69.5 -59t33 -85.5t8 -100q0 -105 -4.5 -204t-4.5 -188q0 -66 4.5 -122.5 t16.5 -106.5h-96l-29 102h-7q-27 -45 -77 -78t-136 -33q-94 0 -154 65t-60 180zM181 247q0 -69 34 -107.5t88 -38.5q73 0 113 35t56 76v185q-17 2 -34.5 2.5t-35.5 0.5q-42 0 -82 -6.5t-71 -24t-49.5 -47.5t-18.5 -75z" />
<glyph unicode="b" horiz-adv-x="754" d="M103 45v1174h125v-415h5q71 87 190 88q135 0 201.5 -106.5t66.5 -336.5q0 -235 -89.5 -349.5t-253.5 -114.5q-79 0 -145.5 18t-99.5 42zM228 128q24 -14 60 -22t76 -8q90 0 143 85.5t53 265.5q0 75 -9.5 135t-29 103.5t-52 67t-77.5 23.5q-63 0 -104 -37.5t-60 -101.5 v-511z" />
<glyph unicode="c" horiz-adv-x="619" d="M65 435q0 223 79 340t227 117q68 0 116.5 -12.5t83.5 -32.5l-35 -109q-69 40 -151 40q-94 0 -142 -82.5t-48 -260.5q0 -71 10.5 -133.5t34.5 -109t62.5 -73t96.5 -26.5q45 0 84 15t64 36l36 -101q-43 -33 -99 -48.5t-117 -15.5q-83 0 -140.5 32t-93 92.5t-52 144.5 t-16.5 187z" />
<glyph unicode="d" horiz-adv-x="753" d="M65 434q0 222 84 337t233 115q50 0 79.5 -6t63.5 -20v359h126v-920q0 -88 1.5 -160.5t12.5 -141.5h-85l-28 104h-7q-25 -52 -77 -87t-125 -35q-142 0 -210 109.5t-68 345.5zM195 432q0 -77 9.5 -139t29.5 -107t52.5 -69t79.5 -24q124 0 159 148v492q-24 21 -54.5 30.5 t-80.5 9.5q-92 0 -143.5 -83.5t-51.5 -257.5z" />
<glyph unicode="e" horiz-adv-x="718" d="M65 435q0 223 81.5 340t230.5 117q49 0 97 -12.5t86.5 -49t62 -103t23.5 -172.5q0 -30 -2.5 -63.5t-5.5 -69.5h-443q0 -75 12 -136.5t38 -104t67.5 -65.5t101.5 -23q47 0 93 17.5t71 40.5l45 -91q-42 -39 -106.5 -60t-134.5 -21q-82 0 -142.5 32t-99.5 92.5t-57 144 t-18 187.5zM196 525h329v23q0 113 -36 169q-40 61 -110 61q-80 0 -126.5 -61t-56.5 -192z" />
<glyph unicode="f" horiz-adv-x="447" d="M28 757v113h106v49q0 164 47 237t160 73q45 0 82 -5t75 -23l-31 -108q-32 14 -58.5 18.5t-51.5 4.5q-35 0 -54 -14t-29 -44t-12.5 -75.5t-2.5 -112.5h181v-113h-181v-757h-125v757h-106z" />
<glyph unicode="g" horiz-adv-x="751" d="M65 432q0 224 86 339t254 115q82 0 141.5 -15.5t104.5 -36.5v-874q0 -169 -74.5 -249t-217.5 -80q-87 0 -143 15t-91 34l37 108q34 -16 76 -30t103 -14q106 0 145 59t39 199v64h-5q-28 -40 -71.5 -63t-111.5 -23q-141 0 -206.5 109t-65.5 343zM195 434q0 -74 8.5 -135.5 t29.5 -108t53.5 -71.5t79.5 -25q66 0 104 35t55 104v512q-50 28 -128 28h-5q-89 0 -143 -81t-54 -258z" />
<glyph unicode="h" horiz-adv-x="765" d="M103 0v1219h125v-430h5q35 45 86.5 74t127.5 29q58 0 100.5 -16t70.5 -54t42 -102t14 -157v-563h-126v530q0 121 -28.5 184.5t-114.5 63.5q-61 0 -110 -43.5t-67 -109.5v-625h-125z" />
<glyph unicode="i" horiz-adv-x="377" d="M101 1135q0 41 23.5 67.5t61.5 26.5t63.5 -25.5t25.5 -68.5q0 -42 -25.5 -65.5t-63.5 -23.5t-61.5 24.5t-23.5 64.5zM123 0v870h126v-870h-126z" />
<glyph unicode="j" horiz-adv-x="374" d="M7 -252q38 0 62 15.5t36.5 48t16 80t3.5 111.5v867h126v-917q0 -179 -57 -259q-47 -64 -140 -64q-22 0 -47 4v114zM101 1135q0 41 23.5 67.5t61.5 26.5t63.5 -25.5t25.5 -68.5q0 -42 -25.5 -65.5t-63.5 -23.5t-61.5 24.5t-23.5 64.5z" />
<glyph unicode="k" horiz-adv-x="674" d="M103 0v1219h125v-742l58 25l203 368h144l-205 -352l-61 -55l72 -68l224 -395h-151l-220 392h-64v-392h-125z" />
<glyph unicode="l" horiz-adv-x="405" d="M111 166v1053h126v-1012q0 -61 16 -87t46 -26q37 0 86 19l12 -101q-23 -14 -64 -23t-74 -9q-66 0 -107 41.5t-41 144.5z" />
<glyph unicode="m" horiz-adv-x="1133" d="M103 0v870h88l23 -92h5q37 50 87.5 82t128.5 32q67 0 109 -29t67 -102q32 61 90 96t128 35q58 0 98.5 -15t65.5 -52.5t37.5 -99.5t12.5 -155v-570h-126v553q0 113 -21.5 169t-99.5 56q-67 0 -106 -41t-54 -111v-626h-126v517q0 69 -4 119t-18.5 81.5t-38.5 46t-64 14.5 q-59 0 -100 -46t-57 -106v-626h-125z" />
<glyph unicode="n" horiz-adv-x="764" d="M103 0v870h90l23 -92h5q33 46 89.5 80t134.5 34q57 0 99 -16t71 -53.5t44 -100t15 -158.5v-564h-126v531q0 131 -30.5 189t-108.5 58q-70 0 -115 -42t-66 -103v-633h-125z" />
<glyph unicode="o" horiz-adv-x="751" d="M65 435q0 235 80.5 346t230.5 111q160 0 236 -113.5t76 -343.5q0 -237 -82 -346.5t-230 -109.5q-160 0 -235.5 113.5t-75.5 342.5zM195 435q0 -76 9.5 -139t31.5 -108t56.5 -70t83.5 -25q90 0 135.5 80.5t45.5 261.5q0 75 -9.5 139t-31 109t-56.5 70t-84 25 q-89 0 -135 -81.5t-46 -261.5z" />
<glyph unicode="p" horiz-adv-x="756" d="M103 -348v1218h88l20 -94h7q64 115 202 116q138 0 206 -103t68 -337q0 -109 -22.5 -197t-64 -150t-102 -94t-133.5 -32q-50 0 -79.5 6.5t-64.5 24.5v-358h-125zM228 138q24 -22 55 -33.5t81 -11.5q92 0 146 93.5t54 268.5q0 73 -9.5 132t-30.5 101.5t-53 66t-79 23.5 q-128 0 -164 -155v-485z" />
<glyph unicode="q" horiz-adv-x="751" d="M65 432q0 224 88.5 339t257.5 115q73 0 139 -17.5t101 -36.5v-1180h-126v419h-7q-28 -43 -70.5 -67.5t-110.5 -24.5q-137 0 -204.5 111t-67.5 342zM195 434q0 -74 8.5 -136.5t28.5 -108.5t52.5 -71t79.5 -25q66 0 104.5 38t56.5 111v501q-48 30 -137 30 q-90 0 -141.5 -83.5t-51.5 -255.5z" />
<glyph unicode="r" horiz-adv-x="476" d="M103 0v870h88l23 -92h5q25 50 64 79t94 29q40 0 91 -16l-24 -127q-45 15 -80 16q-56 0 -90.5 -32.5t-45.5 -85.5v-641h-125z" />
<glyph unicode="s" horiz-adv-x="588" d="M50 33l38 110q35 -21 83 -35.5t98 -14.5q58 0 98 28.5t40 92.5q0 54 -24 88.5t-61.5 63t-81.5 51.5t-81 56.5t-61.5 78.5t-24.5 114q0 112 60 169t170 57q71 0 123.5 -13.5t90.5 -36.5l-33 -104q-34 17 -77 28.5t-88 11.5q-63 0 -92 -26t-29 -82q0 -44 24.5 -74t62 -55.5 t81 -51.5t81 -61.5t62 -85.5t24.5 -124q0 -49 -15.5 -92.5t-48 -76t-80.5 -51.5t-112 -19q-76 0 -132.5 14.5t-94.5 39.5z" />
<glyph unicode="t" horiz-adv-x="478" d="M15 757v113h107v173l125 40v-213h188v-113h-188v-518q0 -77 18.5 -111t60.5 -34q34 0 59.5 8t54.5 20l25 -99q-38 -20 -84.5 -31.5t-96.5 -11.5q-87 0 -124.5 57t-37.5 184v536h-107z" />
<glyph unicode="u" horiz-adv-x="754" d="M90 306v564h126v-533q0 -132 26.5 -188t98.5 -56q36 0 65 14.5t51.5 39t40 55.5t27.5 64v604h126v-623q0 -63 4.5 -130t12.5 -117h-88l-32 122h-5q-30 -58 -85.5 -100.5t-138.5 -42.5q-56 0 -98 14t-71.5 50.5t-44.5 100t-15 162.5z" />
<glyph unicode="v" horiz-adv-x="674" d="M7 870h143l164 -510l34 -172h4l31 176l153 506h132l-297 -890h-61z" />
<glyph unicode="w" horiz-adv-x="1026" d="M8 870h135l134 -506l21 -169h3l31 172l143 503h93l154 -508l32 -167h3l27 171l118 504h118l-231 -890h-72l-176 572l-24 146h-4l-24 -148l-170 -570h-72z" />
<glyph unicode="x" horiz-adv-x="716" d="M33 0l247 445l-230 425h151l128 -249l35 -97l36 97l133 249h137l-231 -418l245 -452h-143l-146 274l-38 103l-40 -103l-146 -274h-138z" />
<glyph unicode="y" horiz-adv-x="654" d="M12 870h143l164 -562l36 -169h9l26 169l132 562h127l-207 -782q-25 -94 -49 -175.5t-52.5 -141.5t-64 -94t-85.5 -34q-48 0 -85 16l22 118q24 -8 48.5 -3t46 29t39.5 72.5t32 124.5z" />
<glyph unicode="z" horiz-adv-x="626" d="M56 0v113l323 570l61 74h-384v113h508v-113l-325 -574l-60 -70h385v-113h-508z" />
<glyph unicode="{" horiz-adv-x="490" d="M75 354v113q53 0 82 34.5t29 111.5v430q0 82 32.5 130t105.5 48h128v-113h-67q-40 0 -56.5 -22.5t-16.5 -77.5v-425q0 -76 -29 -116t-69 -49v-11q40 -7 69 -53t29 -119v-423q0 -53 16.5 -76t58.5 -23h65v-113h-128q-138 0 -138 176v422q0 88 -28.5 122t-82.5 34z" />
<glyph unicode="|" horiz-adv-x="330" d="M113 -226v1445h106v-1445h-106z" />
<glyph unicode="}" horiz-adv-x="490" d="M38 -287h67q41 0 57.5 22.5t16.5 76.5v423q0 73 29 119t69 53v11q-40 9 -69 49t-29 116v425q0 56 -16.5 78t-56.5 22h-68v113h129q74 0 105.5 -48t31.5 -130v-430q0 -77 29 -111.5t83 -34.5v-113q-54 0 -83 -33.5t-29 -122.5v-422q0 -176 -137 -176h-129v113z" />
<glyph unicode="~" horiz-adv-x="721" d="M40 628q63 58 113.5 80.5t93.5 22.5q40 0 75 -15t66.5 -31.5t61.5 -31t62 -14.5q24 0 52 12t57 45l60 -104q-56 -47 -99.5 -65.5t-79.5 -18.5q-39 0 -71 15t-63 33.5t-61 33t-63 14.5q-32 0 -67.5 -17t-78.5 -62z" />
<glyph unicode="&#xa2;" d="M133 435q0 198 65.5 313.5t191.5 137.5v159h113v-155q47 -3 83.5 -14t66.5 -29l-35 -109q-26 15 -58 25t-67 13v-683q43 3 78 19t57 34l37 -99q-32 -27 -74.5 -42t-87.5 -20v-159h-113v157q-71 10 -120 46.5t-79.5 95t-44 137.5t-13.5 173zM258 435q5 -63 13 -117.5 t25.5 -98t45 -75t67.5 -43.5v670q-75 -20 -110.5 -101.5t-40.5 -234.5z" />
<glyph unicode="&#xa3;" d="M73 0v116q43 2 75.5 23t53.5 55t31.5 77t10.5 84q0 60 -10.5 106.5t-24.5 90.5h-136v113h94q-17 50 -29.5 107.5t-12.5 136.5q0 169 80.5 249.5t216.5 80.5q85 0 147.5 -14t106.5 -34l-43 -111q-33 16 -84 29.5t-124 13.5q-80 0 -124.5 -55.5t-44.5 -163.5 q0 -74 15.5 -129.5t34.5 -109.5h222v-113h-181q12 -40 19.5 -85t7.5 -101q0 -51 -14.5 -110.5t-40.5 -95.5l-68 -61v-6l103 23h349v-116h-630z" />
<glyph unicode="&#xa5;" d="M5 1219h153l219 -531l23 -107h4l23 110l212 528h141l-285 -651h138v-101h-173v-124h173v-101h-173v-242h-131v242h-174v101h174v124h-174v101h137z" />
<glyph unicode="&#xa8;" horiz-adv-x="634" d="M105 1136q0 40 19.5 63t54.5 23t55 -23t20 -63q0 -36 -20 -58.5t-55 -22.5t-54.5 22.5t-19.5 58.5zM382 1136q0 40 20 63t54 23q35 0 55 -23t20 -63q0 -36 -20 -58.5t-55 -22.5q-34 0 -54 22.5t-20 58.5z" />
<glyph unicode="&#xa9;" horiz-adv-x="1206" d="M87 510q0 122 41 218t111.5 161.5t164.5 101.5t200 36q107 0 200.5 -36t164.5 -101.5t111.5 -161.5t40.5 -218t-40.5 -218t-111.5 -162.5t-164.5 -101.5t-200.5 -35q-118 0 -213 35t-163 101.5t-104.5 162.5t-36.5 218zM191 510q0 -101 32.5 -179.5t88 -131.5t130.5 -81 t162 -28q85 0 161 28t131.5 81t88 131.5t32.5 179.5t-32.5 179.5t-88 131.5t-131.5 81t-161 28q-86 0 -161.5 -28t-131 -81t-88 -131.5t-32.5 -179.5zM359 510q0 134 67 206.5t177 72.5q53 0 86 -10.5t77 -29.5l-38 -96q-34 15 -62 22.5t-50 7.5q-61 0 -96.5 -39.5 t-35.5 -133.5q0 -173 144 -173q66 0 117 29l31 -97q-35 -19 -76.5 -29t-96.5 -10q-119 0 -181.5 76t-62.5 204z" />
<glyph unicode="&#xab;" horiz-adv-x="671" d="M50 450l225 401l87 -59l-143 -268l-66 -72l66 -62l153 -262l-88 -62zM310 450l221 397l84 -57l-140 -266l-66 -72l66 -62l148 -261l-83 -59z" />
<glyph unicode="&#xae;" horiz-adv-x="1028" d="M125 853q0 95 31.5 166.5t84.5 121.5t123.5 75t148.5 25q82 0 153.5 -25t123.5 -75t83 -122t31 -166t-31.5 -167t-85 -123t-124 -75t-150.5 -25q-81 0 -151.5 25t-123 75t-83 123t-30.5 167zM219 853q0 -76 23.5 -133t64 -95.5t93 -56.5t113.5 -18q65 0 119 18t93 55.5 t61.5 94t22.5 135.5q0 75 -23.5 131.5t-63 95t-93.5 56.5t-116 18q-64 0 -118 -18t-93 -56.5t-61 -95t-22 -131.5zM362 661v382q25 7 67.5 11t80.5 4q61 0 105.5 -26t44.5 -88q0 -47 -29.5 -72.5t-75.5 -29.5l42 -18l108 -163h-90l-105 153l-71 23v-176h-77zM439 881h50 q88 0 89 59q0 52 -85 52q-14 0 -30 -1t-24 -6v-104z" />
<glyph unicode="&#xb4;" horiz-adv-x="425" d="M105 994l81 260h136v-37l-143 -223h-74z" />
<glyph unicode="&#xb8;" horiz-adv-x="455" d="M105 -355l11 68q40 -4 64 1.5t36 16t15.5 23.5t3.5 25q0 48 -120 65l69 156h87l-32 -75q113 -26 113 -131q0 -68 -50 -112t-133 -44q-35 0 -64 7z" />
<glyph unicode="&#xbb;" horiz-adv-x="671" d="M48 790l85 57l229 -380l-221 -397l-85 55l140 269l67 71l-67 63zM299 792l89 59l233 -384l-224 -401l-89 57l144 271l66 71l-66 63z" />
<glyph unicode="&#x2c6;" horiz-adv-x="596" d="M105 957l172 317h60l156 -317h-110l-56 116l-28 100l-30 -100l-62 -116h-102z" />
<glyph unicode="&#x2da;" horiz-adv-x="495" d="M105 1119q0 74 38 114.5t104 40.5q63 0 104 -36.5t41 -118.5q0 -69 -39 -111t-106 -42q-66 0 -104 39.5t-38 113.5zM188 1119q0 -39 17.5 -59t41.5 -20q28 0 44.5 19t16.5 60q0 42 -18.5 62t-42.5 20t-41.5 -19t-17.5 -63z" />
<glyph unicode="&#x2dc;" horiz-adv-x="629" d="M105 1136q46 60 82.5 81.5t66.5 21.5q25 0 45.5 -10t40.5 -21.5t38.5 -22t39.5 -10.5q16 0 32.5 8t34.5 28l40 -65q-41 -50 -73 -69.5t-60 -19.5q-25 0 -45.5 9.5t-40.5 21.5t-39.5 21.5t-40.5 9.5q-19 0 -38 -9.5t-42 -33.5z" />
<glyph unicode="&#x401;" horiz-adv-x="746" d="M111 0v1219h542v-121h-411v-412h378v-120h-378v-446h419v-120h-550zM157 1382q0 37 21.5 59.5t59.5 22.5q37 0 58.5 -22.5t21.5 -59.5q0 -36 -21.5 -58t-58.5 -22q-38 0 -59.5 22t-21.5 58zM431 1382q0 37 22 59.5t59 22.5q38 0 59.5 -22.5t21.5 -59.5q0 -36 -21.5 -58 t-59.5 -22q-37 0 -59 22t-22 58z" />
<glyph unicode="&#x402;" horiz-adv-x="1023" d="M25 1098v121h732v-121h-301v-376q17 7 68 23t129 16q58 0 111 -16.5t94.5 -58.5t66.5 -112.5t25 -179.5q0 -210 -80.5 -309t-246.5 -99q-45 0 -66.5 1t-32.5 5v119q19 -3 40 -4t59 -1q190 0 190 276q0 74 -14.5 124.5t-42.5 80t-65.5 42t-81.5 12.5q-24 0 -48.5 -4.5 t-45 -11.5t-36.5 -13t-23 -9v-603h-130v1098h-301z" />
<glyph unicode="&#x403;" horiz-adv-x="621" d="M111 0v1219h533v-121h-402v-1098h-131zM274 1309l161 206h173v-37l-228 -169h-106z" />
<glyph unicode="&#x404;" horiz-adv-x="816" d="M75 609q0 175 35.5 294.5t94.5 194.5t137 108t160 33q83 0 140.5 -11.5t97.5 -29.5l-34 -118q-33 19 -82 29t-111 10q-56 0 -107 -22.5t-91 -73.5t-67 -133t-34 -201h422v-119h-424q9 -235 96 -353t227 -118q61 0 107.5 17t78.5 39l31 -108q-43 -37 -111 -52.5 t-141 -15.5q-93 0 -171 34.5t-134.5 111t-88 196t-31.5 288.5z" />
<glyph unicode="&#x405;" horiz-adv-x="744" d="M58 42l45 120q33 -23 93 -43t136 -20q98 0 159 48t61 151q0 68 -35 118.5t-87.5 93t-112 83t-112 90.5t-87.5 114.5t-35 154.5q0 146 88 216.5t229 70.5q87 0 155 -15.5t110 -39.5l-42 -116q-31 20 -89.5 35.5t-134.5 15.5q-95 0 -140 -46t-45 -116q0 -61 35 -108 t87 -88.5t112 -84.5t112.5 -94.5t87.5 -118t35 -157.5q0 -153 -90.5 -240t-256.5 -87q-105 0 -171.5 19t-106.5 44z" />
<glyph unicode="&#x406;" horiz-adv-x="405" d="M138 0v1219h130v-1219h-130z" />
<glyph unicode="&#x407;" horiz-adv-x="410" d="M33 1380q0 39 21 61.5t56 22.5q34 0 54 -22.5t20 -61.5q0 -38 -20 -59.5t-54 -21.5q-35 0 -56 21.5t-21 59.5zM139 0v1219h130v-1219h-130zM226 1380q0 39 20 61.5t55 22.5t55.5 -22.5t20.5 -61.5q0 -38 -20.5 -59.5t-55.5 -21.5t-55 21.5t-20 59.5z" />
<glyph unicode="&#x408;" horiz-adv-x="419" d="M-45 10l28 113q17 -10 38.5 -15t44.5 -5q32 0 51 14t29 39t13 60.5t3 81.5v921h130v-945q0 -143 -45.5 -217t-161.5 -74q-28 0 -67 7t-63 20z" />
<glyph unicode="&#x409;" horiz-adv-x="1299" d="M-7 8l19 120q35 -11 64.5 3.5t56.5 80.5q19 47 35 126.5t29.5 201t22 288.5t11.5 391h531v-474q23 6 65.5 11t76.5 5q69 0 132.5 -16.5t112.5 -58.5t77.5 -112.5t28.5 -178.5q0 -106 -27 -182.5t-77.5 -127t-122 -75t-159.5 -24.5q-20 0 -48.5 1t-60.5 3.5t-66 7 t-62 12.5v1088h-275q-14 -350 -36.5 -584.5t-69.5 -362.5q-30 -83 -73.5 -121t-99.5 -38q-50 0 -85 16zM762 115q22 -5 54.5 -7t65.5 -2q107 0 171.5 68t64.5 209q0 75 -18.5 124.5t-50.5 79t-75.5 42t-92.5 12.5q-12 0 -29.5 -1.5t-34 -4t-32.5 -6t-23 -4.5v-510z" />
<glyph unicode="&#x40a;" horiz-adv-x="1359" d="M111 0v1219h131v-510h449v510h131v-510q7 2 23.5 4.5t37.5 4t42.5 3t37.5 1.5q68 0 131.5 -14t112 -52t78 -106t29.5 -174q0 -105 -27.5 -179t-78 -120.5t-121 -68.5t-157.5 -22q-20 0 -49.5 1t-61.5 3.5t-66 7.5t-62 12v578h-449v-588h-131zM822 116q20 -6 54 -8t69 -2 q105 0 168 62t63 198q0 73 -18 119t-50 72t-75 36t-89 10q-12 0 -30.5 -2l-37 -4t-33 -5.5t-21.5 -5.5v-470z" />
<glyph unicode="&#x40b;" horiz-adv-x="1053" d="M25 1098v121h729v-121h-299v-407q36 26 98.5 50.5t142.5 24.5q61 0 111 -16.5t84.5 -56t54 -104.5t19.5 -162v-427h-131v405q0 131 -40 186t-128 55q-62 0 -119.5 -21.5t-91.5 -56.5v-568h-131v1098h-299z" />
<glyph unicode="&#x40c;" horiz-adv-x="857" d="M111 0v1219h131v-568l61 25l317 543h149l-319 -526l-60 -55l72 -70l352 -568h-165l-345 564h-62v-564h-131zM319 1309l161 206h173v-37l-228 -169h-106z" />
<glyph unicode="&#x40e;" horiz-adv-x="779" d="M5 1219h153l239 -626l33 -154h9l28 160l181 620h134l-249 -792q-38 -122 -67 -205.5t-58 -134t-63.5 -73t-85.5 -22.5q-45 0 -74.5 8t-55.5 28l38 111q29 -19 51.5 -23.5t40.5 -4.5q39 0 65 53.5t45 150.5zM171 1485l125 30q3 -65 35.5 -103t88.5 -38t86 38t35 101 l111 -26q-13 -100 -70.5 -154t-163.5 -54q-103 0 -170 49t-77 157z" />
<glyph unicode="&#x40f;" horiz-adv-x="915" d="M111 0v1219h131v-1099h432v1099h130v-1219h-282l-22 -312h-82l-28 312h-279z" />
<glyph unicode="&#x410;" horiz-adv-x="822" d="M8 0l368 1238h71l367 -1238h-135l-99 341h-345l-97 -341h-130zM269 458h279l-106 376l-33 183h-4l-33 -187z" />
<glyph unicode="&#x411;" horiz-adv-x="774" d="M111 10v1209h545v-121h-414v-374q25 5 60 10.5t69 5.5q73 0 137.5 -17t112 -57t75.5 -108.5t28 -172.5q0 -105 -27 -180.5t-74.5 -123.5t-114 -71.5t-146.5 -23.5q-25 0 -56.5 1t-65.5 3.5t-68 7.5t-61 12zM242 116q20 -6 58.5 -8t73.5 -2q94 0 153 61t59 193 q0 84 -18 135.5t-49.5 79.5t-74 36.5t-90.5 8.5q-12 0 -28 -2t-32.5 -3.5t-30.5 -5t-21 -5.5v-488z" />
<glyph unicode="&#x412;" horiz-adv-x="819" d="M111 8v1200q52 10 122.5 17t153.5 7q59 0 118 -11t106 -42t76 -88t29 -149q0 -45 -11 -90.5t-33.5 -85.5t-56.5 -71.5t-82 -46.5v-7q42 -9 80 -29t68 -56t47 -87t17 -122q0 -95 -29.5 -163.5t-81 -112t-118.5 -64.5t-142 -21h-56.5t-68.5 3t-72.5 7t-65.5 12zM242 118 q10 -3 27 -5t37 -3.5t41 -2.5t38 -1q47 0 87 15t70.5 44.5t48 72t17.5 99.5q0 72 -22 116.5t-56.5 69t-79.5 33t-91 8.5h-117v-446zM242 677h72q24 0 55 2t53 5q64 27 110 85t46 143q0 58 -15.5 97t-42.5 61.5t-63.5 32.5t-77.5 10q-45 0 -81.5 -2.5t-55.5 -7.5v-426z" />
<glyph unicode="&#x413;" horiz-adv-x="621" d="M111 0v1219h533v-121h-402v-1098h-131z" />
<glyph unicode="&#x414;" horiz-adv-x="943" d="M5 120h101q10 19 34 90.5t47.5 204.5t41 332.5t15.5 471.5h536v-1099h127v-344h-93l-20 224h-676l-20 -224h-93v344zM244 120h405v978h-280q-9 -385 -45.5 -623t-79.5 -355z" />
<glyph unicode="&#x415;" horiz-adv-x="746" d="M111 0v1219h542v-121h-411v-412h378v-120h-378v-446h419v-120h-550z" />
<glyph unicode="&#x416;" horiz-adv-x="1138" d="M-3 0l299 547l68 64l-65 61l-282 547h154l268 -547h61v547h125v-568l59 25l268 543h146l-273 -530l-57 -56l71 -69l303 -564h-162l-292 566h-63v-566h-125v586l-58 -23l-292 -563h-153z" />
<glyph unicode="&#x417;" horiz-adv-x="754" d="M54 25l34 118q35 -20 91 -32t136 -12q47 0 88.5 17t73 48t50 79t18.5 111q0 113 -60 164.5t-161 59.5q-17 2 -30.5 2h-32.5h-71v113h31q26 0 64.5 1.5t61.5 6.5q69 17 118.5 72.5t49.5 138.5q0 115 -55.5 161t-140.5 46q-68 0 -120.5 -12t-85.5 -31l-35 106 q32 20 104 38.5t163 18.5q60 0 115 -14t98 -47.5t69 -92t26 -145.5q0 -88 -44.5 -166t-136.5 -116v-7q98 -19 154.5 -93t56.5 -199q0 -101 -31 -172.5t-82.5 -117.5t-119 -68t-140.5 -22q-92 0 -154 12t-102 34z" />
<glyph unicode="&#x418;" horiz-adv-x="946" d="M111 0v1219h131v-810l-12 -157h7l61 164l453 803h85v-1219h-131v797l11 160h-5l-62 -163l-451 -794h-87z" />
<glyph unicode="&#x419;" horiz-adv-x="946" d="M111 0v1219h131v-810l-12 -157h7l61 164l453 803h85v-1219h-131v797l11 160h-5l-62 -163l-451 -794h-87zM239 1485l125 30q3 -65 35.5 -103t88.5 -38t86 38t35 101l111 -26q-13 -100 -70.5 -154t-163.5 -54q-103 0 -170 49t-77 157z" />
<glyph unicode="&#x41a;" horiz-adv-x="857" d="M111 0v1219h131v-568l61 25l317 543h149l-319 -526l-60 -55l72 -70l352 -568h-165l-345 564h-62v-564h-131z" />
<glyph unicode="&#x41b;" horiz-adv-x="873" d="M-7 8l19 121q35 -10 64.5 3.5t56.5 79.5q19 47 35 126.5t29.5 201t22 288.5t11.5 391h531v-1219h-130v1098h-275q-14 -350 -36.5 -584.5t-69.5 -362.5q-30 -83 -73.5 -121t-99.5 -38q-50 0 -85 16z" />
<glyph unicode="&#x41c;" horiz-adv-x="1108" d="M111 0v1219h110l294 -599l43 -143h5l41 144l278 598h116v-1219h-131v801l15 184h-6l-56 -172l-245 -529h-44l-257 529l-55 172h-7l25 -184v-801h-126z" />
<glyph unicode="&#x41d;" horiz-adv-x="932" d="M111 0v1219h131v-536h449v536h131v-1219h-131v563h-449v-563h-131z" />
<glyph unicode="&#x41e;" horiz-adv-x="955" d="M75 609q0 311 99.5 470.5t302.5 159.5q109 0 186 -44t125 -126t70.5 -198.5t22.5 -261.5q0 -310 -100 -470t-304 -160q-108 0 -184.5 44.5t-125.5 126t-70.5 198.5t-21.5 261zM212 609q0 -102 15 -194.5t46 -162t81.5 -111.5t122.5 -42q131 0 198.5 125.5t67.5 384.5 q0 102 -14.5 194t-46 162.5t-82 112t-123.5 41.5q-129 0 -197 -125t-68 -385z" />
<glyph unicode="&#x41f;" horiz-adv-x="915" d="M111 0v1219h693v-1219h-130v1098h-432v-1098h-131z" />
<glyph unicode="&#x420;" horiz-adv-x="784" d="M111 0v1206q56 15 118.5 20.5t124.5 5.5q69 0 136.5 -15.5t122.5 -57t89 -114.5t34 -187q0 -109 -32 -186t-85 -124.5t-122 -69.5t-142 -22h-22.5t-33 1t-34 3t-23.5 3v-463h-131zM242 583q7 -3 22 -4t30.5 -2t30 -1h22.5q48 0 93 12.5t80 44.5t57 86.5t22 138.5 q0 74 -20.5 122t-52 78t-75.5 42.5t-91 12.5q-34 0 -66.5 -2.5t-51.5 -8.5v-519z" />
<glyph unicode="&#x421;" horiz-adv-x="796" d="M75 609q0 175 35.5 294.5t94.5 194.5t137 108t160 33q83 0 137.5 -11.5t94.5 -29.5l-31 -118q-35 19 -81.5 29t-108.5 10q-61 0 -114.5 -27t-95.5 -87t-66.5 -157t-24.5 -239q0 -254 87.5 -382t231.5 -128q60 0 106.5 17t79.5 39l32 -108q-43 -37 -109.5 -52.5 t-139.5 -15.5q-93 0 -171 34.5t-134.5 111t-88 196t-31.5 288.5z" />
<glyph unicode="&#x422;" horiz-adv-x="777" d="M25 1098v121h729v-121h-299v-1098h-131v1098h-299z" />
<glyph unicode="&#x423;" horiz-adv-x="779" d="M5 1219h153l239 -626l33 -154h9l28 160l181 620h134l-249 -792q-38 -122 -67 -205.5t-58 -134t-63.5 -73t-85.5 -22.5q-45 0 -74.5 8t-55.5 28l38 111q29 -19 51.5 -23.5t40.5 -4.5q39 0 65 53.5t45 150.5z" />
<glyph unicode="&#x424;" horiz-adv-x="1101" d="M54 609q0 246 91.5 374t248.5 128q19 0 47.5 -1.5t43.5 -6.5v151h131v-156q25 9 61.5 11t58.5 2q68 0 125.5 -29t99.5 -88t64.5 -150.5t22.5 -217.5q0 -129 -26.5 -222.5t-71.5 -154.5t-106.5 -91t-131.5 -30q-15 0 -47 2.5t-49 8.5v-174h-131v171q-24 -5 -57 -6.5 t-62 -1.5q-68 0 -125 25.5t-98.5 84t-65 150t-23.5 221.5zM188 609q0 -172 53 -270t153 -98q15 0 45.5 0.5t49.5 9.5v739q-17 4 -41.5 6t-43.5 2q-96 0 -156 -96t-60 -293zM613 246q13 -4 38 -4.5t43 -0.5q98 0 159 94.5t61 290.5q0 84 -13.5 152t-38.5 117t-62.5 76 t-85.5 27q-20 0 -51 -2t-50 -11v-739z" />
<glyph unicode="&#x425;" horiz-adv-x="870" d="M33 0l321 620l-293 599h157l189 -413l35 -103l35 103l200 413h145l-304 -587l318 -632h-153l-211 437l-40 108l-37 -108l-216 -437h-146z" />
<glyph unicode="&#x426;" horiz-adv-x="958" d="M111 0v1219h131v-1099h421v1099h131v-1099h128v-344h-90l-23 224h-698z" />
<glyph unicode="&#x427;" horiz-adv-x="847" d="M96 764v455h130v-425q0 -128 44 -177t127 -49q61 0 117.5 22.5t91.5 58.5v570h130v-1219h-130v522q-35 -26 -98 -50.5t-139 -24.5q-56 0 -105.5 14t-87 50t-59 96.5t-21.5 156.5z" />
<glyph unicode="&#x428;" horiz-adv-x="1216" d="M111 0v1219h131v-1099h301v1099h131v-1099h301v1099h130v-1219h-994z" />
<glyph unicode="&#x429;" horiz-adv-x="1272" d="M111 0v1219h131v-1099h301v1099h131v-1099h301v1099h130v-1099h131v-344h-92l-21 224h-1012z" />
<glyph unicode="&#x42a;" horiz-adv-x="892" d="M-2 1098v121h356v-474l27.5 5.5t37.5 5t40.5 3.5t36.5 2q68 0 131.5 -16.5t112.5 -58.5t78 -112.5t29 -179.5q0 -108 -27.5 -184.5t-78 -126.5t-122 -73.5t-157.5 -23.5q-20 0 -49.5 1t-61.5 3.5t-66 7t-62 12.5v1088h-225zM354 116q19 -5 53.5 -7.5t67.5 -2.5 q105 0 170.5 66.5t65.5 210.5q0 77 -19.5 127t-51.5 79t-76 40.5t-91 11.5q-11 0 -29.5 -1.5t-36 -4t-32.5 -6t-21 -4.5v-509z" />
<glyph unicode="&#x42b;" horiz-adv-x="1082" d="M111 10v1209h131v-474q16 4 52.5 10t71.5 6q68 0 129.5 -16t108.5 -56.5t74.5 -112t27.5 -181.5q0 -212 -98 -310.5t-274 -98.5q-40 0 -103.5 4.5t-119.5 19.5zM242 118q35 -12 105 -12q104 0 163.5 68t59.5 209q0 77 -17.5 126t-48.5 79t-72.5 41.5t-90.5 11.5 q-25 0 -55 -5.5t-44 -10.5v-507zM841 0v1219h131v-1219h-131z" />
<glyph unicode="&#x42c;" horiz-adv-x="781" d="M111 10v1209h131v-474q22 6 66 11t77 5q70 0 133 -16.5t112 -58.5t77.5 -112.5t28.5 -178.5q0 -106 -26.5 -182.5t-77.5 -127t-122 -75t-160 -24.5q-19 0 -49 1t-62 3.5t-66 7t-62 12.5zM242 116q22 -5 55.5 -7.5t66.5 -2.5q106 0 170.5 68t64.5 209q0 75 -18 124.5 t-50.5 79t-76 42t-92.5 12.5q-12 0 -29.5 -1.5t-35.5 -4t-33 -6t-22 -4.5v-509z" />
<glyph unicode="&#x42d;" horiz-adv-x="809" d="M52 1173q48 31 115.5 48.5t140.5 17.5q96 0 174 -34t134 -108.5t87 -194.5t31 -291q0 -172 -34.5 -293.5t-95.5 -196t-143 -108.5t-177 -34q-72 0 -130 12t-98 32l37 118q33 -17 86.5 -29.5t111.5 -12.5q59 0 114 25.5t98.5 80t70.5 142.5t30 216h-398v116h398 q-8 221 -92.5 330.5t-217.5 109.5q-66 0 -116 -15.5t-88 -38.5z" />
<glyph unicode="&#x42e;" horiz-adv-x="1251" d="M111 0v1219h131v-536h165q9 269 103 412.5t284 143.5q106 0 180 -44t118 -126t64 -198.5t20 -261.5q0 -307 -91 -468.5t-293 -161.5q-103 0 -174 41t-118.5 117.5t-70 183.5t-24.5 242h-163v-563h-131zM540 609q0 -102 13 -194.5t42.5 -163t78 -111.5t120.5 -41 q131 0 188.5 124.5t57.5 385.5q0 102 -11.5 195t-40 162.5t-75 111t-119.5 41.5q-131 0 -192.5 -125t-61.5 -385z" />
<glyph unicode="&#x42f;" horiz-adv-x="802" d="M33 0l214 440l84 73q-101 27 -164.5 113t-63.5 238q0 108 29.5 179t80 113.5t118.5 59t144 16.5q47 0 105.5 -5t110.5 -21v-1206h-131v535l-138 -37l-238 -498h-151zM241 864q0 -135 64 -194t162 -59h93v491q-19 6 -41.5 8.5t-53.5 2.5q-45 0 -85.5 -11.5t-71.5 -40.5 t-49 -76.5t-18 -120.5z" />
<glyph unicode="&#x430;" horiz-adv-x="696" d="M50 233q0 75 25.5 125.5t71.5 82t109.5 44.5t142.5 13h34t37 -2q5 54 5 96q0 99 -29.5 139t-108.5 40q-48 0 -105.5 -15t-95.5 -37l-42 100q50 31 122.5 48t152.5 17q73 0 117.5 -21.5t69.5 -59t33 -85.5t8 -100q0 -105 -4.5 -204t-4.5 -188q0 -66 4.5 -122.5 t16.5 -106.5h-96l-29 102h-7q-27 -45 -77 -78t-136 -33q-94 0 -154 65t-60 180zM181 247q0 -69 34 -107.5t88 -38.5q73 0 113 35t56 76v185q-17 2 -34.5 2.5t-35.5 0.5q-42 0 -82 -6.5t-71 -24t-49.5 -47.5t-18.5 -75z" />
<glyph unicode="&#x431;" horiz-adv-x="751" d="M65 528q0 149 12.5 255.5t36.5 179.5t57 116.5t74.5 68.5t91.5 35.5t105 17.5q73 9 117 21t69 42l10 -124q-14 -14 -32 -23t-42 -16.5t-56.5 -11.5t-75.5 -8q-60 -5 -104 -22.5t-76.5 -56.5t-51.5 -107t-26 -173h4q45 82 100.5 113.5t139.5 31.5q129 0 199.5 -101 t70.5 -311q0 -243 -82 -359.5t-229 -116.5q-78 0 -136 30.5t-97 96t-59 169.5t-20 253zM195 434q0 -72 10.5 -133.5t33 -108t56.5 -73t81 -26.5q90 0 135.5 85t45.5 264q0 143 -38.5 227.5t-124.5 84.5q-103 0 -151 -84t-48 -236z" />
<glyph unicode="&#x432;" horiz-adv-x="701" d="M103 2v867q48 3 105.5 8t138.5 5q141 0 201.5 -53t60.5 -161q0 -61 -28.5 -118t-96.5 -87v-7q83 -19 118.5 -70.5t35.5 -139.5q0 -136 -80.5 -197t-238.5 -61q-60 0 -114 4.5t-102 9.5zM228 108q26 -3 49.5 -5t58.5 -2q88 0 129.5 36.5t41.5 118.5q0 63 -35 103.5 t-127 40.5h-117v-292zM228 500h129q25 0 47.5 11t40.5 30t28.5 44.5t10.5 53.5q0 68 -32 99t-111 31q-42 0 -66 -1.5t-47 -3.5v-264z" />
<glyph unicode="&#x433;" horiz-adv-x="515" d="M103 0v870h414v-113h-289v-757h-125z" />
<glyph unicode="&#x434;" horiz-adv-x="764" d="M5 113h82q10 20 28.5 71t36 142.5t30.5 225.5t14 318h437v-757h103v-334h-87l-21 221h-515l-23 -221h-85v334zM214 113h294v644h-196q-3 -74 -9.5 -163t-19 -177t-29.5 -168t-40 -136z" />
<glyph unicode="&#x435;" horiz-adv-x="718" d="M65 435q0 223 81.5 340t230.5 117q49 0 97 -12.5t86.5 -49t62 -103t23.5 -172.5q0 -30 -2.5 -63.5t-5.5 -69.5h-443q0 -75 12 -136.5t38 -104t67.5 -65.5t101.5 -23q47 0 93 17.5t71 40.5l45 -91q-42 -39 -106.5 -60t-134.5 -21q-82 0 -142.5 32t-99.5 92.5t-57 144 t-18 187.5zM196 525h329q4 131 -36 192t-110 61q-80 0 -126.5 -61t-56.5 -192z" />
<glyph unicode="&#x436;" horiz-adv-x="934" d="M0 0l214 399l47 51l-71 67l-175 353h133l181 -375h71v375h125v-393l65 25l181 368h131l-183 -353l-56 -55l71 -70l201 -392h-145l-195 392h-70v-392h-125v409l-64 -24l-195 -385h-141z" />
<glyph unicode="&#x437;" horiz-adv-x="610" d="M45 33l33 108q33 -21 78.5 -31.5t94.5 -10.5q85 0 128 40t43 115q0 63 -40.5 99.5t-134.5 36.5h-78v108h95q25 0 48.5 11t41.5 30t29.5 44.5t11.5 54.5q0 68 -35.5 99t-108.5 31q-54 0 -98.5 -16t-69.5 -33l-36 100q43 28 101.5 45t133.5 17q115 0 176.5 -53.5 t61.5 -159.5q0 -66 -32.5 -121.5t-90.5 -79.5v-7q80 -20 115 -74t35 -142q0 -110 -73.5 -184t-224.5 -74q-70 0 -118 13t-86 34z" />
<glyph unicode="&#x438;" horiz-adv-x="764" d="M103 0v870h125v-516l-10 -128h6l58 143l298 501h81v-870h-125v502l11 131h-7l-61 -146l-295 -487h-81z" />
<glyph unicode="&#x439;" horiz-adv-x="764" d="M103 0v870h125v-516l-10 -128h6l58 143l298 501h81v-870h-125v502l11 131h-7l-61 -146l-295 -487h-81zM168 1189l106 33q8 -80 42 -114t79 -34t79 37t44 110l95 -28q-14 -105 -76 -160t-145 -55q-40 0 -77.5 11.5t-68 36.5t-51.5 65t-27 98z" />
<glyph unicode="&#x43a;" horiz-adv-x="673" d="M103 0v870h125v-393l59 25l213 368h133l-206 -350l-61 -57l74 -69l223 -394h-150l-221 392h-64v-392h-125z" />
<glyph unicode="&#x43b;" horiz-adv-x="708" d="M-10 8l18 110q37 -10 66 5t49.5 90.5t34 231.5t18.5 425h430v-870h-126v757h-189q-5 -148 -14 -286.5t-31 -244.5t-62 -169.5t-106 -63.5q-30 0 -50.5 3.5t-37.5 11.5z" />
<glyph unicode="&#x43c;" horiz-adv-x="908" d="M103 0v870h125l190 -377l38 -114h4l42 117l175 374h129v-870h-125v517l12 166h-7l-53 -148l-161 -334h-45l-169 334l-47 148h-9l14 -165v-518h-113z" />
<glyph unicode="&#x43d;" horiz-adv-x="754" d="M103 0v870h125v-368h302v368h124v-870h-124v388h-302v-388h-125z" />
<glyph unicode="&#x43e;" horiz-adv-x="751" d="M65 435q0 235 80.5 346t230.5 111q160 0 236 -113.5t76 -343.5q0 -237 -82 -346.5t-230 -109.5q-160 0 -235.5 113.5t-75.5 342.5zM195 435q0 -76 9.5 -139t31.5 -108t56.5 -70t83.5 -25q90 0 135.5 80.5t45.5 261.5q0 75 -9.5 139t-31 109t-56.5 70t-84 25 q-89 0 -135 -81.5t-46 -261.5z" />
<glyph unicode="&#x43f;" horiz-adv-x="748" d="M103 0v870h543v-870h-126v757h-292v-757h-125z" />
<glyph unicode="&#x440;" horiz-adv-x="756" d="M103 -348v1218h88l20 -94h7q64 115 202 116q138 0 206 -103t68 -337q0 -109 -22.5 -197t-64 -150t-102 -94t-133.5 -32q-50 0 -79.5 6.5t-64.5 24.5v-358h-125zM228 138q24 -22 55 -33.5t81 -11.5q92 0 146 93.5t54 268.5q0 73 -9.5 132t-30.5 101.5t-53 66t-79 23.5 q-128 0 -164 -155v-485z" />
<glyph unicode="&#x441;" horiz-adv-x="619" d="M65 435q0 223 79 340t227 117q68 0 116.5 -12.5t83.5 -32.5l-35 -109q-69 40 -151 40q-94 0 -142 -82.5t-48 -260.5q0 -71 10.5 -133.5t34.5 -109t62.5 -73t96.5 -26.5q45 0 84 15t64 36l36 -101q-43 -33 -99 -48.5t-117 -15.5q-83 0 -140.5 32t-93 92.5t-52 144.5 t-16.5 187z" />
<glyph unicode="&#x442;" horiz-adv-x="556" d="M2 757v113h553v-113h-214v-757h-125v757h-214z" />
<glyph unicode="&#x443;" horiz-adv-x="654" d="M12 870h143l164 -562l36 -169h9l26 169l132 562h127l-207 -782q-25 -94 -49 -175.5t-52.5 -141.5t-64 -94t-85.5 -34q-48 0 -85 16l22 118q24 -8 48.5 -3t46 29t39.5 72.5t32 124.5z" />
<glyph unicode="&#x444;" horiz-adv-x="957" d="M58 435q0 231 75.5 340t216.5 109q40 0 68 -7v342h122v-343q24 5 44 6.5t37 1.5q70 0 122.5 -22.5t87 -73t52 -133t17.5 -203.5q0 -234 -74 -353.5t-210 -119.5q-13 0 -38 3t-38 10v-340h-122v341q-24 -10 -49.5 -12t-46.5 -2q-129 0 -196.5 108.5t-67.5 347.5zM183 435 q0 -160 41 -254t130 -94q17 0 32.5 1.5t35.5 7.5v673q-30 7 -65 7q-82 0 -128 -79t-46 -262zM536 93q14 -4 30.5 -5t37.5 -1q171 0 170 365q0 160 -39 242t-138 82q-17 0 -29.5 -1t-31.5 -7v-675z" />
<glyph unicode="&#x445;" horiz-adv-x="716" d="M33 0l247 445l-230 425h151l128 -249l35 -97l36 97l133 249h137l-231 -418l245 -452h-143l-146 274l-38 103l-40 -103l-146 -274h-138z" />
<glyph unicode="&#x446;" horiz-adv-x="769" d="M103 0v870h125v-757h287v757h126v-757h100v-334h-87l-21 221h-530z" />
<glyph unicode="&#x447;" horiz-adv-x="689" d="M63 576v294h125v-254q0 -43 4 -78t16.5 -60.5t35 -38t59.5 -12.5q61 0 99 15.5t60 34.5v393h124v-870h-124v366q-22 -16 -66 -34t-119 -18q-50 0 -90.5 12.5t-67 42.5t-41.5 80.5t-15 126.5z" />
<glyph unicode="&#x448;" horiz-adv-x="1033" d="M103 0v870h125v-757h227v757h125v-757h226v757h126v-870h-829z" />
<glyph unicode="&#x449;" horiz-adv-x="1059" d="M103 0v870h125v-757h227v757h125v-757h226v757h126v-757h100v-334h-87l-21 221h-821z" />
<glyph unicode="&#x44a;" horiz-adv-x="708" d="M0 757v113h279v-332q33 7 65 9.5t60 2.5q73 0 123.5 -20t82 -55t45 -82.5t13.5 -101.5q0 -158 -75.5 -229.5t-244.5 -71.5q-99 0 -195 10v757h-153zM279 113q24 -5 49.5 -7.5t45.5 -2.5q85 0 124.5 42.5t39.5 129.5q0 79 -38 123t-123 44q-23 0 -48.5 -2.5t-49.5 -9.5 v-317z" />
<glyph unicode="&#x44b;" horiz-adv-x="935" d="M103 0v870h125v-332q35 7 66.5 9.5t59.5 2.5q71 0 119.5 -20t77.5 -55t41 -82.5t12 -101.5q0 -158 -70.5 -229.5t-234.5 -71.5q-101 0 -196 10zM228 113q52 -10 96 -10q83 0 116 44t33 128q0 79 -32 123t-114 44q-23 0 -49 -2.5t-50 -9.5v-317zM709 0v870h125v-870h-125z " />
<glyph unicode="&#x44c;" horiz-adv-x="656" d="M103 0v870h125v-332q35 7 66.5 9.5t59.5 2.5q73 0 123.5 -20t81.5 -55t45 -82.5t14 -101.5q0 -158 -76.5 -229.5t-240.5 -71.5q-103 0 -198 10zM228 113q52 -10 96 -10q164 0 163 172q0 79 -38 123t-122 44q-23 0 -49 -2.5t-50 -9.5v-317z" />
<glyph unicode="&#x44d;" horiz-adv-x="646" d="M48 21l35 112q33 -20 78.5 -30t87.5 -10q193 0 203 292h-288v108h288q-5 136 -54.5 210.5t-139.5 74.5q-57 0 -98.5 -15.5t-66.5 -34.5l-45 99q40 30 98 47.5t133 17.5q156 0 230 -113.5t74 -343.5q0 -228 -84.5 -342t-237.5 -114q-134 0 -213 42z" />
<glyph unicode="&#x44e;" horiz-adv-x="1010" d="M103 0v870h125v-365h136q12 193 82.5 289t211.5 96q155 0 222 -119.5t67 -335.5q0 -231 -71.5 -343t-219.5 -112q-153 0 -219 106.5t-75 305.5h-134v-392h-125zM485 435q0 -69 8.5 -131t28 -109t53 -74t83.5 -27q85 0 122 79t37 262q0 75 -8 138t-26.5 108t-49 70 t-77.5 25q-90 0 -130.5 -84t-40.5 -257z" />
<glyph unicode="&#x44f;" horiz-adv-x="673" d="M26 0l162 299l56 63q-71 14 -121 73.5t-50 159.5q0 156 84.5 226.5t230.5 70.5q54 0 102 -8t91 -19v-865h-125v360l-106 -21l-176 -339h-148zM204 603q0 -80 50 -124.5t134 -41.5l68 3v322q-17 9 -39.5 12.5t-40.5 3.5q-84 0 -128 -43.5t-44 -131.5z" />
<glyph unicode="&#x451;" horiz-adv-x="718" d="M65 435q0 223 81.5 340t230.5 117q49 0 97 -12.5t86.5 -49t62 -103t23.5 -172.5q0 -30 -2.5 -63.5t-5.5 -69.5h-443q0 -75 12 -136.5t38 -104t67.5 -65.5t101.5 -23q47 0 93 17.5t71 40.5l45 -91q-42 -39 -106.5 -60t-134.5 -21q-82 0 -142.5 32t-99.5 92.5t-57 144 t-18 187.5zM157 1103q0 40 19.5 63t54.5 23t55 -23t20 -63q0 -36 -20 -58.5t-55 -22.5t-54.5 22.5t-19.5 58.5zM196 525h329q4 131 -36 192t-110 61q-80 0 -126.5 -61t-56.5 -192zM434 1103q0 40 20 63t54 23q35 0 55 -23t20 -63q0 -36 -20 -58.5t-55 -22.5q-34 0 -54 22.5 t-20 58.5z" />
<glyph unicode="&#x452;" horiz-adv-x="770" d="M-3 942v103h113v174h125v-174h223v-103h-223v-244h6q34 47 85 75t129 28q58 0 100 -16t70 -52.5t42 -97t14 -151.5v-534q0 -176 -57.5 -251.5t-186.5 -57.5v113q38 0 61.5 14t36.5 45t16.5 77.5t3.5 109.5v435q0 136 -28.5 194.5t-115.5 58.5q-62 0 -109.5 -40 t-66.5 -105v-543h-125v942h-113z" />
<glyph unicode="&#x453;" horiz-adv-x="515" d="M103 0v870h414v-113h-289v-757h-125zM246 994l81 260h136v-37l-143 -223h-74z" />
<glyph unicode="&#x454;" horiz-adv-x="654" d="M65 435q0 221 91 338t244 117q67 0 115 -10.5t84 -32.5l-33 -109q-35 19 -75.5 28.5t-81.5 9.5q-95 0 -149 -69t-65 -211h317v-108h-317q3 -59 18 -112t42 -94t67 -64.5t98 -23.5q47 0 88.5 14.5t66.5 34.5l36 -101q-40 -30 -100.5 -46t-118.5 -16q-83 0 -145.5 32.5 t-103 92t-59.5 143.5t-19 187z" />
<glyph unicode="&#x455;" horiz-adv-x="588" d="M50 33l38 110q35 -21 83 -35.5t98 -14.5q58 0 98 28.5t40 92.5q0 54 -24 88.5t-61.5 63t-81.5 51.5t-81 56.5t-61.5 78.5t-24.5 114q0 112 60 169t170 57q71 0 123.5 -13.5t90.5 -36.5l-33 -104q-34 17 -77 28.5t-88 11.5q-63 0 -92 -26t-29 -82q0 -44 24.5 -74t62 -55.5 t81 -51.5t81 -61.5t62 -85.5t24.5 -124q0 -49 -15.5 -92.5t-48 -76t-80.5 -51.5t-112 -19q-76 0 -132.5 14.5t-94.5 39.5z" />
<glyph unicode="&#x456;" horiz-adv-x="377" d="M101 1135q0 41 23.5 67.5t61.5 26.5t63.5 -25.5t25.5 -68.5q0 -42 -25.5 -65.5t-63.5 -23.5t-61.5 24.5t-23.5 64.5zM123 0v870h126v-870h-126z" />
<glyph unicode="&#x457;" horiz-adv-x="402" d="M38 1136q0 40 18.5 62.5t53.5 22.5q34 0 52.5 -22.5t18.5 -62.5q0 -36 -18.5 -58.5t-52.5 -22.5q-35 0 -53.5 22.5t-18.5 58.5zM133 0v870h125v-870h-125zM221 1136q0 40 18.5 62.5t52.5 22.5q35 0 53.5 -22.5t18.5 -62.5q0 -36 -18.5 -58.5t-53.5 -22.5 q-34 0 -52.5 22.5t-18.5 58.5z" />
<glyph unicode="&#x458;" horiz-adv-x="374" d="M7 -252q38 0 62 15.5t36.5 48t16 80t3.5 111.5v867h126v-917q0 -179 -57.5 -258.5t-186.5 -60.5v114zM101 1135q0 41 23.5 67.5t61.5 26.5t63.5 -25.5t25.5 -68.5q0 -42 -25.5 -65.5t-63.5 -23.5t-61.5 24.5t-23.5 64.5z" />
<glyph unicode="&#x459;" horiz-adv-x="1033" d="M-10 8l18 110q37 -10 66 5t49.5 90.5t34 231.5t18.5 425h430v-332q35 7 66 9.5t59 2.5q73 0 123.5 -20t82 -55t45 -82.5t13.5 -101.5q0 -158 -76.5 -229.5t-239.5 -71.5q-103 0 -199 10v757h-189q-5 -148 -14 -286.5t-31 -244.5t-62 -169.5t-106 -63.5q-30 0 -50.5 3.5 t-37.5 11.5zM606 113q52 -10 95 -10q164 0 164 172q0 79 -38 123t-122 44q-23 0 -49 -2.5t-50 -9.5v-317z" />
<glyph unicode="&#x45a;" horiz-adv-x="1080" d="M103 0v870h125v-363h300v363h125v-339q35 7 66.5 8.5t58.5 1.5q73 0 123.5 -18t82 -52t45.5 -80t14 -100q0 -158 -75.5 -229.5t-241.5 -71.5q-103 0 -198 10v394h-300v-394h-125zM653 111q26 -5 50.5 -6.5t45.5 -1.5q164 0 163 168q0 162 -160 163q-23 0 -49 -2t-50 -9 v-312z" />
<glyph unicode="&#x45b;" horiz-adv-x="770" d="M-3 942v103h113v174h125v-174h223v-103h-223v-244h6q34 47 85 75t129 28q58 0 100 -16.5t70 -55t42 -102t14 -157.5v-470h-126v445q0 122 -28.5 182.5t-115.5 60.5q-62 0 -110.5 -41t-65.5 -107v-540h-125v942h-113z" />
<glyph unicode="&#x45c;" horiz-adv-x="673" d="M103 0v870h125v-393l59 25l213 368h133l-206 -350l-61 -57l74 -69l223 -394h-150l-221 392h-64v-392h-125zM276 994l81 260h136v-37l-143 -223h-74z" />
<glyph unicode="&#x45e;" horiz-adv-x="654" d="M12 870h143l164 -562l36 -169h9l26 169l132 562h127l-207 -782q-25 -94 -49 -175.5t-52.5 -141.5t-64 -94t-85.5 -34q-48 0 -85 16l22 118q24 -8 48.5 -3t46 29t39.5 72.5t32 124.5zM119 1189l106 33q8 -80 42 -114t79 -34t79 37t44 110l95 -28q-14 -105 -76 -160 t-145 -55q-40 0 -77.5 11.5t-68 36.5t-51.5 65t-27 98z" />
<glyph unicode="&#x45f;" horiz-adv-x="748" d="M103 0v870h125v-750h292v750h126v-870h-206l-22 -312h-82l-28 312h-205z" />
<glyph unicode="&#x462;" horiz-adv-x="877" d="M0 960v114h207v181h130v-181h289v-114h-289v-217q7 2 24.5 5t38 4.5t41.5 3t38 1.5q69 0 133 -16.5t112.5 -57t78 -111t29.5 -178.5q0 -210 -104.5 -309t-282.5 -99q-19 0 -48.5 1t-61.5 3.5t-66 7t-62 12.5v950h-207zM337 116q20 -5 54 -7.5t69 -2.5q103 0 168.5 66.5 t65.5 210.5q0 77 -19 126t-51 78t-75.5 40t-90.5 11q-12 0 -29.5 -2.5t-36 -4t-33 -5t-22.5 -5.5v-505z" />
<glyph unicode="&#x463;" horiz-adv-x="708" d="M0 762v108h153v349h126v-349h224v-108h-224v-224q33 7 65 9.5t60 2.5q73 0 123.5 -20t82 -55t45 -82.5t13.5 -101.5q0 -158 -75.5 -229.5t-242.5 -71.5q-101 0 -197 10v762h-153zM279 111q24 -5 48.5 -6.5t46.5 -1.5q85 0 124.5 46.5t39.5 125.5q0 70 -38 118.5 t-123 48.5q-23 0 -48.5 -2.5t-49.5 -9.5v-319z" />
<glyph unicode="&#x472;" horiz-adv-x="955" d="M75 609q0 311 99.5 470.5t302.5 159.5q109 0 186 -44t125 -126t70.5 -198.5t22.5 -261.5q0 -310 -100 -470t-304 -160q-108 0 -184.5 44.5t-125.5 126t-70.5 198.5t-21.5 261zM212 560q4 -94 20.5 -177.5t49 -146.5t80 -100t115.5 -37q123 0 191 113.5t75 347.5h-531z M212 677h531q-5 91 -22.5 171t-49.5 140t-80 95.5t-114 35.5q-120 0 -188 -109.5t-77 -332.5z" />
<glyph unicode="&#x473;" horiz-adv-x="751" d="M65 435q0 228 80.5 342.5t230.5 114.5q160 0 236 -119.5t76 -337.5q0 -231 -81.5 -343.5t-230.5 -112.5q-160 0 -235.5 119.5t-75.5 336.5zM195 383q5 -149 56.5 -219.5t124.5 -70.5q33 0 65 13.5t56.5 47.5t40 89t19.5 140h-362zM195 485h362q-9 158 -58 225.5 t-123 67.5q-35 0 -66 -14.5t-55.5 -48.5t-40.5 -89.5t-19 -140.5z" />
<glyph unicode="&#x474;" horiz-adv-x="847" d="M-5 1219h146l236 -834l34 -187h1l23 190l105 441q30 129 55.5 208t54.5 121.5t65 57.5t84 15q47 0 76.5 -10t54.5 -25l-37 -113q-26 15 -47.5 21.5t-41.5 6.5q-40 0 -66.5 -55t-53.5 -151l-245 -925h-68z" />
<glyph unicode="&#x475;" horiz-adv-x="713" d="M8 870h145l162 -503l35 -172h4l31 176l43 151q25 85 46.5 152t47 113.5t57.5 70.5t77 24q28 0 50 -3t39 -12l-17 -116q-20 6 -37 10.5t-34.5 -7t-35.5 -42.5t-40 -92l-209 -640h-58z" />
<glyph unicode="&#x48a;" horiz-adv-x="970" d="M111 0v1219h131v-810l-12 -157h7l61 164l453 803h85v-1106h144v-37l-129 -302h-87l63 226h-122v797l11 160h-5l-62 -163l-451 -794h-87zM235 1485l125 30q4 -65 36 -103t88 -38t86.5 38t35.5 101l111 -26q-13 -100 -71 -154t-164 -54q-103 0 -169.5 49t-77.5 157z" />
<glyph unicode="&#x48b;" horiz-adv-x="793" d="M103 0v870h125v-516l-10 -128h6l58 143l298 501h81v-757h140v-37l-129 -297h-87l63 221h-112v502l11 131h-7l-61 -146l-295 -487h-81zM169 1189l106 33q9 -80 43 -114t79 -34t79 37t42 110l97 -28q-14 -105 -76 -160t-145 -55q-40 0 -77.5 11.5t-68 36.5t-51.5 65t-28 98 z" />
<glyph unicode="&#x48c;" horiz-adv-x="877" d="M0 960v114h207v181h130v-181h289v-114h-289v-217q7 2 24.5 5t38 4.5t41.5 3t38 1.5q69 0 133 -16.5t112.5 -57t78 -111t29.5 -178.5q0 -210 -104.5 -309t-282.5 -99q-19 0 -48.5 1t-61.5 3.5t-66 7t-62 12.5v950h-207zM337 116q20 -5 54 -7.5t69 -2.5q103 0 168.5 66.5 t65.5 210.5q0 77 -19 126t-51 78t-75.5 40t-90.5 11q-12 0 -29.5 -2.5t-36 -4t-33 -5t-22.5 -5.5v-505z" />
<glyph unicode="&#x48d;" horiz-adv-x="708" d="M0 762v108h153v349h126v-349h224v-108h-224v-224q33 7 65 9.5t60 2.5q73 0 123.5 -20t82 -55t45 -82.5t13.5 -101.5q0 -158 -75.5 -229.5t-242.5 -71.5q-101 0 -197 10v762h-153zM279 111q24 -5 48.5 -6.5t46.5 -1.5q85 0 124.5 46.5t39.5 125.5q0 70 -38 118.5 t-123 48.5q-23 0 -48.5 -2.5t-49.5 -9.5v-319z" />
<glyph unicode="&#x48e;" horiz-adv-x="784" d="M111 0v1206q56 15 118.5 20.5t124.5 5.5q69 0 136.5 -15.5t122.5 -57t89 -114.5t34 -187q0 -124 -41.5 -207t-108.5 -129l103 -162l-81 -56l-112 173q-66 -21 -141 -21h-22.5t-33 1t-34 3t-23.5 3v-463h-131zM242 585q7 -4 22 -4.5t30.5 -2.5t30 -2h22.5q24 0 48.5 2 t46.5 10l-103 168l63 48l110 -179q40 31 63.5 87t23.5 146q0 74 -20.5 122t-52 78t-75.5 42.5t-91 12.5q-34 0 -66.5 -2.5t-51.5 -8.5v-517z" />
<glyph unicode="&#x48f;" horiz-adv-x="756" d="M103 -348v1218h88l20 -94h7q64 115 202 116q138 0 206 -103t68 -337q0 -131 -32 -229t-89 -158l80 -110l-77 -61l-81 111q-56 -26 -123 -26q-50 0 -79.5 6.5t-64.5 24.5v-358h-125zM228 138q24 -22 55 -33.5t81 -11.5q38 0 70 15l-86 122l59 49l86 -119q35 45 53 119.5 t18 175.5q0 73 -9.5 132t-30.5 101.5t-53 66t-79 23.5q-128 0 -164 -155v-485z" />
<glyph unicode="&#x490;" horiz-adv-x="621" d="M111 0v1219h422l24 233h87v-354h-402v-1098h-131z" />
<glyph unicode="&#x491;" horiz-adv-x="515" d="M103 0v870h302l25 233h87v-346h-289v-757h-125z" />
<glyph unicode="&#x492;" horiz-adv-x="678" d="M12 557v109h138v553h533v-121h-403v-432h300v-109h-300v-557h-130v557h-138z" />
<glyph unicode="&#x493;" horiz-adv-x="532" d="M0 385v102h118v383h415v-113h-289v-270h240v-102h-240v-385h-126v385h-118z" />
<glyph unicode="&#x494;" horiz-adv-x="809" d="M111 0v1219h533v-121h-402v-480q17 7 68.5 21.5t124.5 14.5q60 0 114 -18t95.5 -65t66.5 -127t25 -203q0 -241 -81.5 -352.5t-247.5 -111.5q-45 0 -66 2t-31 3v120q20 -3 41 -4t60 -1q97 0 142.5 84t45.5 247q0 88 -14.5 147.5t-41 94.5t-64 50t-82.5 15 q-47 0 -91.5 -13.5t-63.5 -21.5v-500h-131z" />
<glyph unicode="&#x495;" horiz-adv-x="748" d="M103 0v870h414v-113h-289v-318q17 6 60 21t116 15q53 0 103 -17.5t88 -61.5t60 -122t22 -196q0 -228 -72 -335t-233 -107q-45 0 -65.5 2t-31.5 5v113q17 -3 36.5 -5t57.5 -2q94 0 136 79t42 235q0 85 -13.5 143t-37.5 92t-58 49t-76 15q-47 0 -83.5 -13t-50.5 -20v-329 h-125z" />
<glyph unicode="&#x496;" horiz-adv-x="1179" d="M-3 0l299 547l68 64l-65 61l-282 547h154l268 -547h61v547h125v-568l59 25l268 543h146l-273 -530l-57 -56l71 -69l239 -444h93v-344h-91l-22 224h-78l-292 566h-63v-566h-125v586l-58 -23l-292 -563h-153z" />
<glyph unicode="&#x497;" horiz-adv-x="986" d="M0 0l214 399l47 51l-71 67l-175 353h133l181 -375h71v375h125v-393l63 25l183 368h131l-183 -353l-56 -55l71 -70l142 -279h106v-334h-85l-23 221h-84l-195 392h-70v-392h-125v409l-64 -24l-195 -385h-141z" />
<glyph unicode="&#x498;" horiz-adv-x="754" d="M54 25l34 118q35 -20 91 -32t136 -12q47 0 88.5 17t73 48t50 79t18.5 111q0 113 -60 164.5t-161 59.5q-17 2 -30.5 2h-32.5h-71v113h31q26 0 64.5 1.5t61.5 6.5q69 17 118.5 72.5t49.5 138.5q0 115 -55.5 161t-140.5 46q-68 0 -120.5 -13t-85.5 -32l-35 108 q32 20 104 38.5t163 18.5q60 0 115 -14t98 -47.5t69 -92t26 -145.5q0 -88 -44.5 -166t-136.5 -116v-7q98 -19 154.5 -93t56.5 -199q0 -89 -25 -157t-66.5 -114t-98 -73t-121.5 -35l-20 -292h-83l-25 291q-65 3 -111 15.5t-79 30.5z" />
<glyph unicode="&#x499;" horiz-adv-x="610" d="M45 33l33 108q33 -21 75.5 -30.5t92.5 -9.5q170 0 170 153q0 63 -40 99.5t-134 36.5h-75v108h92q25 0 48.5 11t41.5 30t29.5 44.5t11.5 54.5q0 68 -35.5 99t-108.5 31q-54 0 -96 -16t-67 -33l-36 100q43 28 101.5 45t133.5 17q115 0 176.5 -53.5t61.5 -159.5 q0 -66 -32.5 -121.5t-90.5 -79.5v-7q80 -20 115 -74t35 -142q0 -94 -52.5 -163t-162.5 -88l-20 -305h-82l-28 300q-50 4 -88 15.5t-69 29.5z" />
<glyph unicode="&#x49a;" horiz-adv-x="878" d="M111 0v1219h131v-568l61 25l317 543h149l-319 -526l-60 -55l72 -70l278 -448h125v-344h-92l-21 224h-103l-345 564h-62v-564h-131z" />
<glyph unicode="&#x49b;" horiz-adv-x="713" d="M103 0v870h125v-393l59 25l213 368h133l-206 -350l-61 -57l74 -69l157 -281h103v-334h-85l-23 221h-79l-221 392h-64v-392h-125z" />
<glyph unicode="&#x49c;" horiz-adv-x="970" d="M113 0v1219h131v-568l76 7v221h102v-209l30 6l284 543h148l-289 -525l-60 -56l71 -70l322 -568h-162l-310 564h-34v-225h-102v225h-76v-564h-131z" />
<glyph unicode="&#x49d;" horiz-adv-x="767" d="M103 0v870h125v-393l68 5v218h91v-204l35 6l171 368h133l-169 -350l-62 -57l73 -69l184 -394h-144l-183 392h-38v-221h-91v221h-68v-392h-125z" />
<glyph unicode="&#x49e;" horiz-adv-x="937" d="M0 992v110h191v117h131v-117h165v-107h-165v-344l68 25l311 543h150l-313 -525l-65 -56l74 -70l348 -568h-164l-341 564h-68v-564h-131v992h-191z" />
<glyph unicode="&#x49f;" horiz-adv-x="674" d="M-8 966v102h113v151h125v-151h222v-102h-222v-489l57 25l204 368h145l-206 -352l-61 -55l71 -68l225 -395h-152l-219 392h-64v-392h-125v966h-113z" />
<glyph unicode="&#x4a0;" horiz-adv-x="970" d="M0 1098v121h355v-568l61 25l317 543h149l-318 -526l-61 -55l72 -70l353 -568h-166l-344 564h-63v-564h-131v1091v7h-224z" />
<glyph unicode="&#x4a1;" horiz-adv-x="723" d="M0 757v113h279v-393l60 25l211 368h134l-207 -350l-61 -57l75 -68l225 -395h-150l-221 392h-66v-392h-126v757h-153z" />
<glyph unicode="&#x4a2;" horiz-adv-x="988" d="M111 0v1219h131v-536h449v536h131v-1099h128v-344h-90l-21 224h-148v563h-449v-563h-131z" />
<glyph unicode="&#x4a3;" horiz-adv-x="772" d="M103 0v870h125v-368h302v368h124v-757h105v-334h-85l-23 221h-121v388h-302v-388h-125z" />
<glyph unicode="&#x4a4;" horiz-adv-x="1201" d="M111 0v1219h131v-536h449v536h533v-121h-402v-1098h-131v563h-449v-563h-131z" />
<glyph unicode="&#x4a5;" horiz-adv-x="940" d="M103 0v870h125v-368h302v368h414v-113h-290v-757h-124v388h-302v-388h-125z" />
<glyph unicode="&#x4a6;" horiz-adv-x="1369" d="M111 0v1219h693v-601q17 8 67.5 22t123.5 14q60 0 114.5 -18t96.5 -65t66.5 -127t24.5 -203q0 -239 -81 -351.5t-246 -112.5q-45 0 -66.5 1t-31.5 4v120q17 -3 39 -4t62 -1q96 0 141 84t45 245q0 88 -14.5 148t-40.5 95.5t-63.5 50.5t-81.5 15q-47 0 -93 -13.5t-62 -21.5 v-500h-130v1098h-432v-1098h-131z" />
<glyph unicode="&#x4a7;" horiz-adv-x="1162" d="M103 0v870h543v-428q17 7 60 20t116 13q54 0 103.5 -18t87 -63.5t60 -121.5t22.5 -192q0 -230 -72.5 -337t-233.5 -107q-45 0 -65.5 2t-30.5 5v113q17 -3 38 -5t59 -2q95 0 137.5 83t42.5 231q0 83 -14 140.5t-38.5 92.5t-58.5 50.5t-75 15.5q-47 0 -85.5 -13t-52.5 -20 v-329h-126v757h-292v-757h-125z" />
<glyph unicode="&#x4a8;" horiz-adv-x="1151" d="M75 609q0 316 108 473t312 157v-120q-129 0 -206 -122.5t-77 -385.5q0 -108 23 -202t63.5 -162.5t98.5 -108t128 -39.5q14 0 34.5 1t33.5 6q-43 35 -77 90t-57.5 123.5t-36.5 148t-13 162.5q0 275 92 414.5t239 139.5q164 0 242 -129t78 -362q0 -108 -17.5 -201 t-47 -169.5t-69.5 -133t-85 -90.5q10 -3 19.5 -1.5t18.5 1.5q47 0 86.5 13t64.5 34l41 -106q-28 -26 -71 -43.5t-116 -17.5q-45 0 -92 14t-81 38q-79 -51 -187 -52q-108 0 -191.5 43.5t-141 125.5t-87 198.5t-29.5 262.5zM547 616q0 -63 10.5 -131.5t33 -132t56.5 -117.5 t79 -87q36 26 72 73.5t62.5 115.5t44 155.5t17.5 190.5q0 79 -9 149t-30 121.5t-55 80.5t-85 29q-82 0 -139 -108t-57 -339z" />
<glyph unicode="&#x4a9;" horiz-adv-x="939" d="M65 435q0 218 77 336.5t235 120.5v-114q-182 -4 -182 -341q0 -73 13 -136.5t40 -110t68 -72t95 -25.5q15 0 34.5 4t31.5 14q-47 39 -82 130t-35 209q0 82 13.5 158t42.5 134.5t80 93t125 34.5q68 0 114.5 -29.5t76 -79.5t42.5 -118t13 -145q0 -70 -14 -134.5 t-36.5 -116.5t-51.5 -90.5t-59 -57.5q35 -19 79.5 -7.5t76.5 46.5l40 -95q-25 -29 -68.5 -46.5t-93.5 -17.5q-44 0 -84 14.5t-68 46.5q-41 -37 -92.5 -49t-100.5 -12q-160 0 -245 119.5t-85 336.5zM491 445q0 -99 29.5 -185.5t80.5 -130.5q56 37 95.5 136t39.5 231 q0 52 -7 99.5t-21.5 84t-36.5 57t-51 20.5q-40 0 -65 -24t-39 -66t-19.5 -99.5t-5.5 -122.5z" />
<glyph unicode="&#x4aa;" horiz-adv-x="796" d="M75 609q0 175 35.5 294.5t94.5 194.5t137 108t160 33q83 0 137.5 -11.5t94.5 -29.5l-31 -118q-35 19 -81.5 29t-108.5 10q-61 0 -114.5 -27t-95.5 -87t-66.5 -157t-24.5 -239q0 -254 87.5 -379t231.5 -125q60 0 106.5 14t79.5 36l32 -108q-35 -30 -85.5 -45.5 t-108.5 -21.5l-20 -292h-83l-25 297q-79 12 -143.5 54.5t-111.5 118t-72 188t-25 263.5z" />
<glyph unicode="&#x4ab;" horiz-adv-x="619" d="M65 435q0 223 79 340t227 117q68 0 116.5 -12.5t83.5 -32.5l-35 -107q-66 38 -151 38q-94 0 -142 -82.5t-48 -260.5q0 -71 10.5 -132.5t34.5 -108t62.5 -73.5t96.5 -27q45 0 84 14.5t64 35.5l36 -101q-30 -24 -67 -37.5t-77 -20.5l-21 -297h-82l-26 297q-66 10 -113 46.5 t-77 94.5t-42.5 136.5t-12.5 172.5z" />
<glyph unicode="&#x4ac;" horiz-adv-x="777" d="M25 1098v121h729v-121h-299v-978h131v-344h-90l-21 224h-151v1098h-299z" />
<glyph unicode="&#x4ad;" horiz-adv-x="556" d="M2 757v113h553v-113h-214v-644h104v-334h-85l-23 221h-121v757h-214z" />
<glyph unicode="&#x4ae;" horiz-adv-x="791" d="M8 1219h154l220 -531l22 -107h3l23 110l213 528h141l-321 -734v-485h-131v484z" />
<glyph unicode="&#x4af;" horiz-adv-x="680" d="M8 870h147l162 -556l37 -192h3l31 195l147 553h135l-261 -870v-348h-125v348z" />
<glyph unicode="&#x4b0;" horiz-adv-x="791" d="M8 1219h154l220 -531l22 -107h3l23 110l213 528h141l-317 -723h209v-102h-213v-394h-131v394h-212v102h207z" />
<glyph unicode="&#x4b1;" horiz-adv-x="680" d="M8 870h147l162 -556l37 -192h3l31 195l147 553h135l-261 -870h166v-103h-166v-245h-125v245h-171v103h171z" />
<glyph unicode="&#x4b2;" horiz-adv-x="922" d="M33 0l321 620l-293 599h157l189 -413l35 -103l35 103l200 413h145l-304 -587l256 -512h135v-344h-92l-21 224h-113l-211 437l-40 108l-37 -108l-216 -437h-146z" />
<glyph unicode="&#x4b3;" horiz-adv-x="741" d="M33 0l247 445l-230 425h151l128 -249l35 -97l36 97l133 249h137l-231 -418l182 -339h108v-334h-85l-23 221h-80l-146 274l-38 103l-40 -103l-146 -274h-138z" />
<glyph unicode="&#x4b4;" horiz-adv-x="1171" d="M25 1098v121h673v-121h-243v-978h421v1099h130v-1099h129v-344h-90l-23 224h-698v1098h-299z" />
<glyph unicode="&#x4b5;" horiz-adv-x="884" d="M2 757v113h531v-113h-192v-644h287v757h126v-757h103v-334h-88l-20 221h-533v757h-214z" />
<glyph unicode="&#x4b6;" horiz-adv-x="901" d="M96 764v455h130v-425q0 -128 44 -177t127 -49q61 0 117.5 22.5t91.5 58.5v570h130v-1099h129v-344h-91l-20 224h-148v522q-35 -26 -98 -50.5t-139 -24.5q-56 0 -105.5 14t-87 50t-59 96.5t-21.5 156.5z" />
<glyph unicode="&#x4b7;" horiz-adv-x="719" d="M63 576v294h125v-254q0 -43 4 -78t16.5 -60.5t35 -38t59.5 -12.5q61 0 99 15.5t60 34.5v393h124v-757h107v-334h-85l-23 221h-123v366q-22 -16 -66 -34t-119 -18q-50 0 -90.5 12.5t-67 42.5t-41.5 80.5t-15 126.5z" />
<glyph unicode="&#x4b8;" horiz-adv-x="866" d="M96 769v450h130v-422q0 -114 37.5 -169t118.5 -60v224h98v-216q44 9 82.5 29t62.5 44v570h131v-1219h-131v522q-25 -17 -62.5 -33.5t-82.5 -28.5v-208h-98v195h-8q-63 0 -114 16t-87.5 53t-56.5 99t-20 154z" />
<glyph unicode="&#x4b9;" horiz-adv-x="704" d="M63 606v264h125v-245q0 -44 3.5 -79.5t15 -62.5t31.5 -43.5t53 -19.5v229h91v-224q33 7 58 21t39 27v397h125v-870h-125v366q-14 -12 -38.5 -25.5t-58.5 -21.5v-201h-91v188h-9q-53 0 -94.5 14t-69.5 49t-41.5 92t-13.5 145z" />
<glyph unicode="&#x4ba;" horiz-adv-x="847" d="M111 0v1219h131v-523q37 25 99.5 50t142.5 25q61 0 110.5 -15.5t84.5 -55t54 -103.5t19 -163v-434h-131v411q0 123 -40 181.5t-129 58.5q-63 0 -119 -21.5t-91 -56.5v-573h-131z" />
<glyph unicode="&#x4bb;" horiz-adv-x="765" d="M103 0v1219h125v-430h5q35 45 86.5 74t127.5 29q58 0 100.5 -16t70.5 -54t42 -102t14 -157v-563h-126v530q0 121 -28.5 184.5t-114.5 63.5q-61 0 -110 -43.5t-67 -109.5v-625h-125z" />
<glyph unicode="&#x4bc;" horiz-adv-x="1099" d="M2 759q0 50 12 85t31 60h121q-25 -25 -35.5 -61.5t-10.5 -68.5q0 -24 5.5 -43.5t21 -33.5t45 -21.5t77.5 -3.5q9 272 107.5 419.5t283.5 147.5q179 0 267 -128t88 -362q0 -45 -2.5 -93t-9.5 -101h-596q10 -231 83.5 -343.5t223.5 -112.5q63 0 116.5 23.5t90.5 48.5 l38 -110q-49 -35 -115 -58.5t-155 -23.5q-187 0 -298.5 137.5t-121.5 438.5h-48q-120 0 -171.5 53t-47.5 151zM405 672h476q3 25 3 48v48q0 69 -12 133t-39 112.5t-69.5 77t-102.5 28.5q-129 0 -189.5 -119t-66.5 -328z" />
<glyph unicode="&#x4bd;" horiz-adv-x="873" d="M8 621q2 65 22 104t46 65h120q-31 -24 -53.5 -64t-22.5 -100q0 -41 22 -72.5t86 -25.5q17 179 96.5 271.5t213.5 92.5q48 0 96.5 -12.5t86.5 -49t61.5 -103t23.5 -172.5q0 -30 -2.5 -63.5t-6.5 -69.5h-442q0 -75 12 -136.5t38.5 -104t67 -65.5t102.5 -23q46 0 92.5 17.5 t70.5 40.5l46 -91q-42 -39 -106.5 -60t-136.5 -21q-81 0 -139.5 31.5t-98 88.5t-58.5 138.5t-21 182.5h-15q-104 0 -153 54t-48 147zM357 525h329q3 131 -37 192t-109 61q-80 0 -127 -61t-56 -192z" />
<glyph unicode="&#x4be;" horiz-adv-x="1099" d="M2 759q0 50 12 85t31 60h121q-25 -25 -35.5 -61.5t-10.5 -68.5q0 -24 5.5 -43.5t21 -33.5t45 -21.5t77.5 -3.5q9 272 107.5 419.5t283.5 147.5q179 0 267 -128t88 -362q0 -45 -2.5 -93t-9.5 -101h-596q10 -231 83.5 -342.5t223.5 -111.5q63 0 116.5 22.5t90.5 47.5 l38 -110q-42 -30 -96 -51.5t-123 -29.5l-21 -292h-81l-27 292q-155 25 -243.5 165.5t-98.5 409.5h-48q-120 0 -170.5 52.5t-48.5 151.5zM405 672h476q3 25 3 48v48q0 69 -12 133t-39 112.5t-69.5 77t-102.5 28.5q-129 0 -189.5 -119t-66.5 -328z" />
<glyph unicode="&#x4bf;" horiz-adv-x="873" d="M10 621q2 65 22 104t46 65h120q-31 -24 -53.5 -64t-22.5 -100q0 -21 5.5 -39.5t17 -33.5t32.5 -22t53 -3q16 179 95.5 271.5t214.5 92.5q48 0 96 -12.5t86.5 -49t62 -103t23.5 -172.5q0 -30 -3 -63.5t-6 -69.5h-442q2 -152 50.5 -240t168.5 -88q47 0 93.5 17t70.5 40 l45 -91q-33 -30 -79 -50t-98 -30l-22 -292h-81l-26 295q-130 25 -189.5 141.5t-63.5 297.5h-15q-105 0 -154 53t-47 146zM359 525h329q3 131 -37 192t-110 61q-79 0 -126.5 -61t-55.5 -192z" />
<glyph unicode="&#x4c0;" horiz-adv-x="405" d="M138 0v1219h130v-1219h-130z" />
<glyph unicode="&#x4c3;" horiz-adv-x="842" d="M111 0v1219h131v-568l61 25l317 543h149l-306 -498l-80 -67h84q73 -21 125 -57.5t85.5 -97t48.5 -150.5t15 -218v-33q0 -136 -22.5 -228.5t-64 -147t-102.5 -75.5t-136 -13v120q56 0 93.5 19.5t60 64t32 114.5t9.5 171q0 122 -17.5 206.5t-54.5 136.5t-94.5 75t-138.5 23 h-64v-564h-131z" />
<glyph unicode="&#x4c4;" horiz-adv-x="678" d="M103 0v870h125v-408l59 23l211 385h135l-208 -365l-53 -47l60 -9q61 -17 98.5 -57t58 -93t28.5 -116t8 -125v-30q0 -118 -22.5 -198.5t-63.5 -126.5t-96.5 -60.5t-122.5 -4.5v113q85 -14 132.5 58.5t47.5 218.5q0 188 -54 269.5t-155 85.5h-63v-383h-125z" />
<glyph unicode="&#x4c5;" horiz-adv-x="885" d="M-7 8l19 120q35 -11 64.5 3.5t56.5 80.5q19 47 35 126.5t29.5 201t22 288.5t11.5 391h531v-1106h133v-37l-129 -302h-87l62 226h-109v1098h-275q-14 -350 -36.5 -584.5t-69.5 -362.5q-30 -83 -73.5 -121t-99.5 -38q-50 0 -85 16z" />
<glyph unicode="&#x4c6;" horiz-adv-x="736" d="M-10 8l18 110q37 -10 66 5t49.5 90.5t34 231.5t18.5 425h430v-757h137v-37l-128 -297h-87l62 221h-110v757h-189q-5 -148 -14 -286.5t-31 -244.5t-62 -169.5t-106 -63.5q-30 0 -50.5 3.5t-37.5 11.5z" />
<glyph unicode="&#x4c7;" horiz-adv-x="932" d="M111 0v1219h131v-536h449v536h131v-1219v-48q0 -180 -56.5 -257.5t-187.5 -60.5v114q40 0 62.5 15.5t34 47t14 79t2.5 110.5v563h-449v-563h-131z" />
<glyph unicode="&#x4c8;" horiz-adv-x="754" d="M103 0v870h125v-368h302v368h124v-920q0 -160 -48 -237t-151 -75q-10 0 -21 1t-23 2v110q78 -2 98.5 59.5t20.5 189.5v388h-302v-388h-125z" />
<glyph unicode="&#x4c9;" horiz-adv-x="957" d="M111 0v1219h131v-536h449v536h131v-1106h143v-37l-129 -302h-87l62 226h-120v563h-449v-563h-131z" />
<glyph unicode="&#x4ca;" horiz-adv-x="784" d="M103 0v870h125v-368h302v368h124v-757h138v-37l-129 -297h-87l63 221h-109v388h-302v-388h-125z" />
<glyph unicode="&#x4cb;" horiz-adv-x="847" d="M96 764v455h130v-425q0 -128 44 -177t127 -49q61 0 117.5 22.5t91.5 58.5v570h130v-1219h-150l-22 -224h-91v344h133v402q-35 -26 -98 -50.5t-139 -24.5q-56 0 -105.5 14t-87 50t-59 96.5t-21.5 156.5z" />
<glyph unicode="&#x4cc;" horiz-adv-x="689" d="M63 609v261h125v-234q0 -45 4 -83t16.5 -64.5t35 -41.5t59.5 -15q61 0 100 15t59 33v390h124v-870h-130l-21 -221h-87v334h114v258q-23 -16 -66.5 -34t-121.5 -18q-52 0 -91.5 13t-66 46t-40 89.5t-13.5 141.5z" />
<glyph unicode="&#x4cd;" horiz-adv-x="1133" d="M111 0v1219h110l294 -599l43 -143h5l41 144l278 598h116v-1106h144v-37l-129 -302h-87l63 226h-122v801l15 184h-6l-56 -172l-245 -529h-44l-257 529l-55 172h-7l25 -184v-801h-126z" />
<glyph unicode="&#x4ce;" horiz-adv-x="935" d="M103 0v870h125l190 -377l38 -114h4l42 117l175 374h129v-757h138v-37l-130 -297h-86l62 221h-109v517l12 166h-7l-53 -148l-161 -334h-45l-169 334l-47 148h-9l14 -165v-518h-113z" />
<glyph unicode="&#x4cf;" horiz-adv-x="356" d="M115 0v1219h126v-1219h-126z" />
<glyph unicode="&#x4d0;" horiz-adv-x="822" d="M8 0l368 1238h71l367 -1238h-135l-99 341h-345l-97 -341h-130zM168 1485l125 30q3 -65 35.5 -103t88.5 -38t86 38t35 101l111 -26q-13 -100 -70.5 -154t-163.5 -54q-103 0 -170 49t-77 157zM269 458h279l-106 376l-33 183h-4l-33 -187z" />
<glyph unicode="&#x4d1;" horiz-adv-x="696" d="M50 233q0 75 25.5 125.5t71.5 82t109.5 44.5t142.5 13h34t37 -2q5 54 5 96q0 99 -29.5 139t-108.5 40q-48 0 -105.5 -15t-95.5 -37l-42 100q50 31 122.5 48t152.5 17q73 0 117.5 -21.5t69.5 -59t33 -85.5t8 -100q0 -105 -4.5 -204t-4.5 -188q0 -66 4.5 -122.5 t16.5 -106.5h-96l-29 102h-7q-27 -45 -77 -78t-136 -33q-94 0 -154 65t-60 180zM122 1189l106 33q8 -80 42 -114t79 -34t79 37t44 110l95 -28q-14 -105 -76 -160t-145 -55q-40 0 -77.5 11.5t-68 36.5t-51.5 65t-27 98zM181 247q0 -69 34 -107.5t88 -38.5q73 0 113 35t56 76 v185q-17 2 -34.5 2.5t-35.5 0.5q-42 0 -82 -6.5t-71 -24t-49.5 -47.5t-18.5 -75z" />
<glyph unicode="&#x4d2;" horiz-adv-x="822" d="M8 0l368 1238h71l367 -1238h-135l-99 341h-345l-97 -341h-130zM193 1382q0 37 21.5 59.5t59.5 22.5q37 0 58.5 -22.5t21.5 -59.5q0 -36 -21.5 -58t-58.5 -22q-38 0 -59.5 22t-21.5 58zM269 458h279l-106 376l-33 183h-4l-33 -187zM467 1382q0 37 22 59.5t59 22.5 q38 0 59.5 -22.5t21.5 -59.5q0 -36 -21.5 -58t-59.5 -22q-37 0 -59 22t-22 58z" />
<glyph unicode="&#x4d3;" horiz-adv-x="696" d="M50 233q0 75 25.5 125.5t71.5 82t109.5 44.5t142.5 13h34t37 -2q5 54 5 96q0 99 -29.5 139t-108.5 40q-48 0 -105.5 -15t-95.5 -37l-42 100q50 31 122.5 48t152.5 17q73 0 117.5 -21.5t69.5 -59t33 -85.5t8 -100q0 -105 -4.5 -204t-4.5 -188q0 -66 4.5 -122.5 t16.5 -106.5h-96l-29 102h-7q-27 -45 -77 -78t-136 -33q-94 0 -154 65t-60 180zM131 1103q0 40 19.5 63t54.5 23t55 -23t20 -63q0 -36 -20 -58.5t-55 -22.5t-54.5 22.5t-19.5 58.5zM181 247q0 -69 34 -107.5t88 -38.5q73 0 113 35t56 76v185q-17 2 -34.5 2.5t-35.5 0.5 q-42 0 -82 -6.5t-71 -24t-49.5 -47.5t-18.5 -75zM408 1103q0 40 20 63t54 23q35 0 55 -23t20 -63q0 -36 -20 -58.5t-55 -22.5q-34 0 -54 22.5t-20 58.5z" />
<glyph unicode="&#x4d4;" horiz-adv-x="1188" d="M-31 0l583 1219h544v-121h-412v-412h378v-120h-378v-446h419v-120h-550v347h-287l-156 -347h-141zM324 463h229v562h-5l-45 -170z" />
<glyph unicode="&#x4d5;" horiz-adv-x="1116" d="M50 237q0 77 25.5 128t70.5 81.5t108 43.5t140 13q19 0 37.5 -0.5t38.5 -2.5q5 53 5 95q0 99 -29.5 138.5t-108.5 39.5q-48 0 -107 -17.5t-99 -44.5l-38 97q53 39 125.5 57.5t150.5 18.5q146 0 189 -111q35 63 97 91t123 28q48 0 96 -13.5t87 -51t62 -104.5t23 -173 q0 -30 -2.5 -62.5t-5.5 -69.5h-441q1 -160 48.5 -242.5t165.5 -82.5q48 0 95.5 17.5t71.5 37.5l45 -92q-43 -35 -105.5 -56t-139.5 -21q-87 0 -155 37.5t-101 111.5h-10q-35 -62 -95 -102t-149 -40q-98 0 -158 68t-60 183zM181 251q0 -61 33 -106.5t87 -45.5q36 0 65 11.5 t50 29.5t35 40t21 44v176q-17 2 -34.5 3t-35.5 1q-42 0 -82 -7t-71 -24.5t-49.5 -47t-18.5 -74.5zM597 520h327q3 131 -36 194.5t-110 63.5q-78 0 -125 -62.5t-56 -195.5z" />
<glyph unicode="&#x4d6;" horiz-adv-x="746" d="M111 0v1219h542v-121h-411v-412h378v-120h-378v-446h419v-120h-550zM138 1485l125 30q3 -65 35.5 -103t88.5 -38t86 38t35 101l111 -26q-13 -100 -70.5 -154t-163.5 -54q-103 0 -170 49t-77 157z" />
<glyph unicode="&#x4d7;" horiz-adv-x="718" d="M65 435q0 223 81.5 340t230.5 117q49 0 97 -12.5t86.5 -49t62 -103t23.5 -172.5q0 -30 -2.5 -63.5t-5.5 -69.5h-443q0 -75 12 -136.5t38 -104t67.5 -65.5t101.5 -23q47 0 93 17.5t71 40.5l45 -91q-42 -39 -106.5 -60t-134.5 -21q-82 0 -142.5 32t-99.5 92.5t-57 144 t-18 187.5zM147 1189l106 33q8 -80 42 -114t79 -34t79 37t44 110l95 -28q-14 -105 -76 -160t-145 -55q-40 0 -77.5 11.5t-68 36.5t-51.5 65t-27 98zM196 525h329q4 131 -36 192t-110 61q-80 0 -126.5 -61t-56.5 -192z" />
<glyph unicode="&#x4d8;" horiz-adv-x="894" d="M71 479q0 46 2.5 96t11.5 104h604q-12 223 -80 331.5t-210 108.5q-65 0 -125 -23t-93 -46l-38 109q45 30 116.5 55t160.5 25q99 0 173.5 -35.5t125 -111t76 -196t25.5 -287.5q0 -300 -95 -465t-297 -165q-88 0 -155 34.5t-112 99.5t-67.5 158t-22.5 208zM202 456 q0 -71 13 -136.5t42 -114.5t71.5 -77.5t103.5 -28.5q127 0 191.5 117.5t65.5 346.5h-480q-3 -27 -5 -54t-2 -53z" />
<glyph unicode="&#x4d9;" horiz-adv-x="709" d="M65 354q0 29 2.5 60t5.5 66h445q-5 153 -52.5 225.5t-166.5 72.5q-48 0 -94.5 -16.5t-70.5 -40.5l-47 93q43 35 108.5 56.5t138.5 21.5q162 0 237 -121.5t75 -335.5q0 -231 -80.5 -343.5t-220.5 -112.5q-48 0 -98.5 16.5t-91 59.5t-65.5 115t-25 184zM186 376 q-7 -136 39.5 -209.5t121.5 -73.5q78 0 124.5 72t43.5 211h-329z" />
<glyph unicode="&#x4da;" horiz-adv-x="894" d="M71 479q0 46 2.5 96t11.5 104h604q-12 223 -80 331.5t-210 108.5q-65 0 -125 -23t-93 -46l-38 109q45 30 116.5 55t160.5 25q99 0 173.5 -35.5t125 -111t76 -196t25.5 -287.5q0 -300 -95 -465t-297 -165q-88 0 -155 34.5t-112 99.5t-67.5 158t-22.5 208zM202 456 q0 -71 13 -136.5t42 -114.5t71.5 -77.5t103.5 -28.5q127 0 191.5 117.5t65.5 346.5h-480q-3 -27 -5 -54t-2 -53zM215 1382q0 37 21.5 59.5t59.5 22.5q37 0 58.5 -22.5t21.5 -59.5q0 -36 -21.5 -58t-58.5 -22q-38 0 -59.5 22t-21.5 58zM489 1382q0 37 22 59.5t59 22.5 q38 0 59.5 -22.5t21.5 -59.5q0 -36 -21.5 -58t-59.5 -22q-37 0 -59 22t-22 58z" />
<glyph unicode="&#x4db;" horiz-adv-x="709" d="M65 354q0 29 2.5 60t5.5 66h445q-5 153 -52.5 225.5t-166.5 72.5q-48 0 -94.5 -16.5t-70.5 -40.5l-47 93q43 35 108.5 56.5t138.5 21.5q162 0 237 -121.5t75 -335.5q0 -231 -80.5 -343.5t-220.5 -112.5q-48 0 -98.5 16.5t-91 59.5t-65.5 115t-25 184zM131 1103 q0 40 19.5 63t54.5 23t55 -23t20 -63q0 -36 -20 -58.5t-55 -22.5t-54.5 22.5t-19.5 58.5zM186 376q-7 -136 39.5 -209.5t121.5 -73.5q78 0 124.5 72t43.5 211h-329zM408 1103q0 40 20 63t54 23q35 0 55 -23t20 -63q0 -36 -20 -58.5t-55 -22.5q-34 0 -54 22.5t-20 58.5z" />
<glyph unicode="&#x4dc;" horiz-adv-x="1138" d="M-3 0l299 547l68 64l-65 61l-282 547h154l268 -547h61v547h125v-568l59 25l268 543h146l-273 -530l-57 -56l71 -69l303 -564h-162l-292 566h-63v-566h-125v586l-58 -23l-292 -563h-153zM347 1382q0 37 21.5 59.5t59.5 22.5q37 0 58.5 -22.5t21.5 -59.5q0 -36 -21.5 -58 t-58.5 -22q-38 0 -59.5 22t-21.5 58zM621 1382q0 37 22 59.5t59 22.5q38 0 59.5 -22.5t21.5 -59.5q0 -36 -21.5 -58t-59.5 -22q-37 0 -59 22t-22 58z" />
<glyph unicode="&#x4dd;" horiz-adv-x="934" d="M0 0l214 399l47 51l-71 67l-175 353h133l181 -375h71v375h125v-393l65 25l181 368h131l-183 -353l-56 -55l71 -70l201 -392h-145l-195 392h-70v-392h-125v409l-64 -24l-195 -385h-141zM253 1103q0 40 19.5 63t54.5 23t55 -23t20 -63q0 -36 -20 -58.5t-55 -22.5 t-54.5 22.5t-19.5 58.5zM530 1103q0 40 20 63t54 23q35 0 55 -23t20 -63q0 -36 -20 -58.5t-55 -22.5q-34 0 -54 22.5t-20 58.5z" />
<glyph unicode="&#x4de;" horiz-adv-x="754" d="M54 25l34 118q35 -20 91 -32t136 -12q47 0 88.5 17t73 48t50 79t18.5 111q0 113 -60 164.5t-161 59.5q-17 2 -30.5 2h-32.5h-71v113h31q26 0 64.5 1.5t61.5 6.5q69 17 118.5 72.5t49.5 138.5q0 115 -55.5 161t-140.5 46q-68 0 -120.5 -12t-85.5 -31l-35 106 q32 20 104 38.5t163 18.5q60 0 115 -14t98 -47.5t69 -92t26 -145.5q0 -88 -44.5 -166t-136.5 -116v-7q98 -19 154.5 -93t56.5 -199q0 -101 -31 -172.5t-82.5 -117.5t-119 -68t-140.5 -22q-92 0 -154 12t-102 34zM122 1382q0 37 21.5 59.5t59.5 22.5q37 0 58.5 -22.5 t21.5 -59.5q0 -36 -21.5 -58t-58.5 -22q-38 0 -59.5 22t-21.5 58zM396 1382q0 37 22 59.5t59 22.5q38 0 59.5 -22.5t21.5 -59.5q0 -36 -21.5 -58t-59.5 -22q-37 0 -59 22t-22 58z" />
<glyph unicode="&#x4df;" horiz-adv-x="610" d="M45 33l33 108q33 -21 78.5 -31.5t94.5 -10.5q85 0 128 40t43 115q0 63 -40.5 99.5t-134.5 36.5h-78v108h95q25 0 48.5 11t41.5 30t29.5 44.5t11.5 54.5q0 68 -35.5 99t-108.5 31q-54 0 -98.5 -16t-69.5 -33l-36 100q43 28 101.5 45t133.5 17q115 0 176.5 -53.5 t61.5 -159.5q0 -66 -32.5 -121.5t-90.5 -79.5v-7q80 -20 115 -74t35 -142q0 -110 -73.5 -184t-224.5 -74q-70 0 -118 13t-86 34zM67 1103q0 40 19.5 63t54.5 23t55 -23t20 -63q0 -36 -20 -58.5t-55 -22.5t-54.5 22.5t-19.5 58.5zM344 1103q0 40 20 63t54 23q35 0 55 -23 t20 -63q0 -36 -20 -58.5t-55 -22.5q-34 0 -54 22.5t-20 58.5z" />
<glyph unicode="&#x4e0;" horiz-adv-x="784" d="M71 35l34 120q34 -23 94 -39.5t121 -16.5q117 0 183.5 71.5t66.5 186.5q0 120 -69 179t-202 59h-121v48l256 397l61 74l-86 -16h-331v121h585v-51l-276 -421l-53 -53v-5l51 14q68 0 126.5 -22.5t100 -64t65 -104t23.5 -141.5q0 -95 -27 -166.5t-76 -122.5t-119.5 -77 t-155.5 -26q-70 0 -140.5 15.5t-110.5 40.5z" />
<glyph unicode="&#x4e1;" horiz-adv-x="668" d="M48 -324l37 112q33 -20 77 -30t94 -10q48 0 89.5 18t71.5 52t46.5 82t16.5 105q0 125 -59 186t-165 61h-100v46l203 393l64 77l-91 -11h-278v113h514v-50l-220 -415l-50 -50v-3l47 10q54 -3 102 -26.5t82.5 -66.5t55.5 -103.5t21 -140.5q0 -95 -27 -168t-74 -122.5 t-111.5 -75t-139.5 -25.5q-61 0 -113.5 11.5t-92.5 30.5z" />
<glyph unicode="&#x4e2;" horiz-adv-x="946" d="M111 0v1219h131v-810l-12 -157h7l61 164l453 803h85v-1219h-131v797l11 160h-5l-62 -163l-451 -794h-87zM256 1359v108h450v-108h-450z" />
<glyph unicode="&#x4e3;" horiz-adv-x="764" d="M103 0v870h125v-516l-10 -128h6l58 143l298 501h81v-870h-125v502l11 131h-7l-61 -146l-295 -487h-81zM175 1017v102h423v-102h-423z" />
<glyph unicode="&#x4e4;" horiz-adv-x="946" d="M111 0v1219h131v-810l-12 -157h7l61 164l453 803h85v-1219h-131v797l11 160h-5l-62 -163l-451 -794h-87zM260 1382q0 37 21.5 59.5t59.5 22.5q37 0 58.5 -22.5t21.5 -59.5q0 -36 -21.5 -58t-58.5 -22q-38 0 -59.5 22t-21.5 58zM534 1382q0 37 22 59.5t59 22.5 q38 0 59.5 -22.5t21.5 -59.5q0 -36 -21.5 -58t-59.5 -22q-37 0 -59 22t-22 58z" />
<glyph unicode="&#x4e5;" horiz-adv-x="764" d="M103 0v870h125v-516l-10 -128h6l58 143l298 501h81v-870h-125v502l11 131h-7l-61 -146l-295 -487h-81zM176 1103q0 40 19.5 63t54.5 23t55 -23t20 -63q0 -36 -20 -58.5t-55 -22.5t-54.5 22.5t-19.5 58.5zM453 1103q0 40 20 63t54 23q35 0 55 -23t20 -63q0 -36 -20 -58.5 t-55 -22.5q-34 0 -54 22.5t-20 58.5z" />
<glyph unicode="&#x4e6;" horiz-adv-x="955" d="M75 609q0 311 99.5 470.5t302.5 159.5q109 0 186 -44t125 -126t70.5 -198.5t22.5 -261.5q0 -310 -100 -470t-304 -160q-108 0 -184.5 44.5t-125.5 126t-70.5 198.5t-21.5 261zM212 609q0 -102 15 -194.5t46 -162t81.5 -111.5t122.5 -42q131 0 198.5 125.5t67.5 384.5 q0 102 -14.5 194t-46 162.5t-82 112t-123.5 41.5q-129 0 -197 -125t-68 -385zM260 1382q0 37 21.5 59.5t59.5 22.5q37 0 58.5 -22.5t21.5 -59.5q0 -36 -21.5 -58t-58.5 -22q-38 0 -59.5 22t-21.5 58zM534 1382q0 37 22 59.5t59 22.5q38 0 59.5 -22.5t21.5 -59.5 q0 -36 -21.5 -58t-59.5 -22q-37 0 -59 22t-22 58z" />
<glyph unicode="&#x4e7;" horiz-adv-x="751" d="M65 435q0 235 80.5 346t230.5 111q160 0 236 -113.5t76 -343.5q0 -237 -82 -346.5t-230 -109.5q-160 0 -235.5 113.5t-75.5 342.5zM165 1103q0 40 19.5 63t54.5 23t55 -23t20 -63q0 -36 -20 -58.5t-55 -22.5t-54.5 22.5t-19.5 58.5zM195 435q0 -76 9.5 -139t31.5 -108 t56.5 -70t83.5 -25q90 0 135.5 80.5t45.5 261.5q0 75 -9.5 139t-31 109t-56.5 70t-84 25q-89 0 -135 -81.5t-46 -261.5zM442 1103q0 40 20 63t54 23q35 0 55 -23t20 -63q0 -36 -20 -58.5t-55 -22.5q-34 0 -54 22.5t-20 58.5z" />
<glyph unicode="&#x4e8;" horiz-adv-x="955" d="M75 609q0 311 99.5 470.5t302.5 159.5q109 0 186 -44t125 -126t70.5 -198.5t22.5 -261.5q0 -310 -100 -470t-304 -160q-108 0 -184.5 44.5t-125.5 126t-70.5 198.5t-21.5 261zM212 560q4 -94 20.5 -177.5t49 -146.5t80 -100t115.5 -37q123 0 191 113.5t75 347.5h-531z M212 677h531q-5 91 -22.5 171t-49.5 140t-80 95.5t-114 35.5q-120 0 -188 -109.5t-77 -332.5z" />
<glyph unicode="&#x4e9;" horiz-adv-x="751" d="M65 435q0 228 80.5 342.5t230.5 114.5q160 0 236 -119.5t76 -337.5q0 -231 -81.5 -343.5t-230.5 -112.5q-160 0 -235.5 119.5t-75.5 336.5zM195 383q5 -149 56.5 -219.5t124.5 -70.5q33 0 65 13.5t56.5 47.5t40 89t19.5 140h-362zM195 485h362q-9 158 -58 225.5 t-123 67.5q-35 0 -66 -14.5t-55.5 -48.5t-40.5 -89.5t-19 -140.5z" />
<glyph unicode="&#x4ea;" horiz-adv-x="955" d="M75 609q0 311 99.5 470.5t302.5 159.5q109 0 186 -44t125 -126t70.5 -198.5t22.5 -261.5q0 -310 -100 -470t-304 -160q-108 0 -184.5 44.5t-125.5 126t-70.5 198.5t-21.5 261zM212 560q4 -94 20.5 -177.5t49 -146.5t80 -100t115.5 -37q123 0 191 113.5t75 347.5h-531z M212 677h531q-5 91 -22.5 171t-49.5 140t-80 95.5t-114 35.5q-120 0 -188 -109.5t-77 -332.5zM260 1382q0 37 21.5 59.5t59.5 22.5q37 0 58.5 -22.5t21.5 -59.5q0 -36 -21.5 -58t-58.5 -22q-38 0 -59.5 22t-21.5 58zM534 1382q0 37 22 59.5t59 22.5q38 0 59.5 -22.5 t21.5 -59.5q0 -36 -21.5 -58t-59.5 -22q-37 0 -59 22t-22 58z" />
<glyph unicode="&#x4eb;" horiz-adv-x="751" d="M65 435q0 228 80.5 342.5t230.5 114.5q160 0 236 -119.5t76 -337.5q0 -231 -81.5 -343.5t-230.5 -112.5q-160 0 -235.5 119.5t-75.5 336.5zM165 1103q0 40 19.5 63t54.5 23t55 -23t20 -63q0 -36 -20 -58.5t-55 -22.5t-54.5 22.5t-19.5 58.5zM195 383q5 -149 56.5 -219.5 t124.5 -70.5q33 0 65 13.5t56.5 47.5t40 89t19.5 140h-362zM195 485h362q-9 158 -58 225.5t-123 67.5q-35 0 -66 -14.5t-55.5 -48.5t-40.5 -89.5t-19 -140.5zM442 1103q0 40 20 63t54 23q35 0 55 -23t20 -63q0 -36 -20 -58.5t-55 -22.5q-34 0 -54 22.5t-20 58.5z" />
<glyph unicode="&#x4ec;" horiz-adv-x="809" d="M52 1173q48 31 115.5 48.5t140.5 17.5q96 0 174 -34t134 -108.5t87 -194.5t31 -291q0 -172 -34.5 -293.5t-95.5 -196t-143 -108.5t-177 -34q-72 0 -130 12t-98 32l37 118q33 -17 86.5 -29.5t111.5 -12.5q59 0 114 25.5t98.5 80t70.5 142.5t30 216h-398v116h398 q-8 221 -92.5 330.5t-217.5 109.5q-66 0 -116 -15.5t-88 -38.5zM105 1382q0 37 21.5 59.5t59.5 22.5q37 0 58.5 -22.5t21.5 -59.5q0 -36 -21.5 -58t-58.5 -22q-38 0 -59.5 22t-21.5 58zM379 1382q0 37 22 59.5t59 22.5q38 0 59.5 -22.5t21.5 -59.5q0 -36 -21.5 -58 t-59.5 -22q-37 0 -59 22t-22 58z" />
<glyph unicode="&#x4ed;" horiz-adv-x="646" d="M48 21l35 112q33 -20 78.5 -30t87.5 -10q193 0 203 292h-288v108h288q-5 136 -54.5 210.5t-139.5 74.5q-57 0 -98.5 -15.5t-66.5 -34.5l-45 99q40 30 98 47.5t133 17.5q156 0 230 -113.5t74 -343.5q0 -228 -84.5 -342t-237.5 -114q-134 0 -213 42zM67 1103q0 40 19.5 63 t54.5 23t55 -23t20 -63q0 -36 -20 -58.5t-55 -22.5t-54.5 22.5t-19.5 58.5zM344 1103q0 40 20 63t54 23q35 0 55 -23t20 -63q0 -36 -20 -58.5t-55 -22.5q-34 0 -54 22.5t-20 58.5z" />
<glyph unicode="&#x4ee;" horiz-adv-x="779" d="M5 1219h153l239 -626l33 -154h9l28 160l181 620h134l-249 -792q-38 -122 -67 -205.5t-58 -134t-63.5 -73t-85.5 -22.5q-45 0 -74.5 8t-55.5 28l38 111q29 -19 51.5 -23.5t40.5 -4.5q39 0 65 53.5t45 150.5zM190 1359v108h450v-108h-450z" />
<glyph unicode="&#x4ef;" horiz-adv-x="654" d="M12 870h143l164 -562l36 -169h9l26 169l132 562h127l-207 -782q-25 -94 -49 -175.5t-52.5 -141.5t-64 -94t-85.5 -34q-48 0 -85 16l22 118q24 -8 48.5 -3t46 29t39.5 72.5t32 124.5zM130 1017v102h423v-102h-423z" />
<glyph unicode="&#x4f0;" horiz-adv-x="779" d="M5 1219h153l239 -626l33 -154h9l28 160l181 620h134l-249 -792q-38 -122 -67 -205.5t-58 -134t-63.5 -73t-85.5 -22.5q-45 0 -74.5 8t-55.5 28l38 111q29 -19 51.5 -23.5t40.5 -4.5q39 0 65 53.5t45 150.5zM193 1382q0 37 21.5 59.5t59.5 22.5q37 0 58.5 -22.5 t21.5 -59.5q0 -36 -21.5 -58t-58.5 -22q-38 0 -59.5 22t-21.5 58zM467 1382q0 37 22 59.5t59 22.5q38 0 59.5 -22.5t21.5 -59.5q0 -36 -21.5 -58t-59.5 -22q-37 0 -59 22t-22 58z" />
<glyph unicode="&#x4f1;" horiz-adv-x="654" d="M12 870h143l164 -562l36 -169h9l26 169l132 562h127l-207 -782q-25 -94 -49 -175.5t-52.5 -141.5t-64 -94t-85.5 -34q-48 0 -85 16l22 118q24 -8 48.5 -3t46 29t39.5 72.5t32 124.5zM131 1103q0 40 19.5 63t54.5 23t55 -23t20 -63q0 -36 -20 -58.5t-55 -22.5t-54.5 22.5 t-19.5 58.5zM408 1103q0 40 20 63t54 23q35 0 55 -23t20 -63q0 -36 -20 -58.5t-55 -22.5q-34 0 -54 22.5t-20 58.5z" />
<glyph unicode="&#x4f2;" horiz-adv-x="779" d="M5 1219h153l239 -626l33 -154h9l28 160l181 620h134l-249 -792q-38 -122 -67 -205.5t-58 -134t-63.5 -73t-85.5 -22.5q-45 0 -74.5 8t-55.5 28l38 111q29 -19 51.5 -23.5t40.5 -4.5q39 0 65 53.5t45 150.5zM243 1290l88 190h141v-28l-139 -162h-90zM427 1290l141 190h150 v-28l-201 -162h-90z" />
<glyph unicode="&#x4f3;" horiz-adv-x="654" d="M12 870h143l164 -562l36 -169h9l26 169l132 562h127l-207 -782q-25 -94 -49 -175.5t-52.5 -141.5t-64 -94t-85.5 -34q-48 0 -85 16l22 118q24 -8 48.5 -3t46 29t39.5 72.5t32 124.5zM216 994l48 225h121v-28l-101 -197h-68zM375 994l103 225h131v-28l-161 -197h-73z" />
<glyph unicode="&#x4f4;" horiz-adv-x="847" d="M96 764v455h130v-425q0 -128 44 -177t127 -49q61 0 117.5 22.5t91.5 58.5v570h130v-1219h-130v522q-35 -26 -98 -50.5t-139 -24.5q-56 0 -105.5 14t-87 50t-59 96.5t-21.5 156.5zM208 1382q0 37 21.5 59.5t59.5 22.5q37 0 58.5 -22.5t21.5 -59.5q0 -36 -21.5 -58 t-58.5 -22q-38 0 -59.5 22t-21.5 58zM482 1382q0 37 22 59.5t59 22.5q38 0 59.5 -22.5t21.5 -59.5q0 -36 -21.5 -58t-59.5 -22q-37 0 -59 22t-22 58z" />
<glyph unicode="&#x4f5;" horiz-adv-x="689" d="M63 576v294h125v-254q0 -43 4 -78t16.5 -60.5t35 -38t59.5 -12.5q61 0 99 15.5t60 34.5v393h124v-870h-124v366q-22 -16 -66 -34t-119 -18q-50 0 -90.5 12.5t-67 42.5t-41.5 80.5t-15 126.5zM112 1103q0 40 19.5 63t54.5 23t55 -23t20 -63q0 -36 -20 -58.5t-55 -22.5 t-54.5 22.5t-19.5 58.5zM389 1103q0 40 20 63t54 23q35 0 55 -23t20 -63q0 -36 -20 -58.5t-55 -22.5q-34 0 -54 22.5t-20 58.5z" />
<glyph unicode="&#x4f6;" horiz-adv-x="621" d="M111 0v1219h533v-121h-402v-978h132v-344h-90l-21 224h-152z" />
<glyph unicode="&#x4f7;" horiz-adv-x="515" d="M103 0v870h414v-113h-289v-644h108v-334h-85l-23 221h-125z" />
<glyph unicode="&#x4f8;" horiz-adv-x="1082" d="M111 10v1209h131v-474q16 4 52.5 10t71.5 6q68 0 129.5 -16t108.5 -56.5t74.5 -112t27.5 -181.5q0 -212 -98 -310.5t-274 -98.5q-40 0 -103.5 4.5t-119.5 19.5zM242 118q35 -12 105 -12q104 0 163.5 68t59.5 209q0 77 -17.5 126t-48.5 79t-72.5 41.5t-90.5 11.5 q-25 0 -55 -5.5t-44 -10.5v-507zM324 1382q0 37 21.5 59.5t59.5 22.5q37 0 58.5 -22.5t21.5 -59.5q0 -36 -21.5 -58t-58.5 -22q-38 0 -59.5 22t-21.5 58zM598 1382q0 37 22 59.5t59 22.5q38 0 59.5 -22.5t21.5 -59.5q0 -36 -21.5 -58t-59.5 -22q-37 0 -59 22t-22 58zM841 0 v1219h131v-1219h-131z" />
<glyph unicode="&#x4f9;" horiz-adv-x="935" d="M103 0v870h125v-332q35 7 66.5 9.5t59.5 2.5q71 0 119.5 -20t77.5 -55t41 -82.5t12 -101.5q0 -158 -70.5 -229.5t-234.5 -71.5q-101 0 -196 10zM228 113q52 -10 96 -10q83 0 116 44t33 128q0 79 -32 123t-114 44q-23 0 -49 -2.5t-50 -9.5v-317zM256 1103q0 40 19.5 63 t54.5 23t55 -23t20 -63q0 -36 -20 -58.5t-55 -22.5t-54.5 22.5t-19.5 58.5zM533 1103q0 40 20 63t54 23q35 0 55 -23t20 -63q0 -36 -20 -58.5t-55 -22.5q-34 0 -54 22.5t-20 58.5zM709 0v870h125v-870h-125z" />
<glyph unicode="&#x4fc;" horiz-adv-x="866" d="M33 0l321 620l-293 599h157l189 -413l35 -103l35 103l200 413h145l-304 -587l191 -374q87 -171 87 -312q0 -177 -62 -250t-193 -58v113q42 0 66.5 14t37.5 37.5t16.5 55t3.5 64.5q0 86 -22 151.5t-50 121.5l-120 242l-41 108l-37 -108l-216 -437h-146z" />
<glyph unicode="&#x4fd;" horiz-adv-x="719" d="M33 0l247 445l-230 425h154l125 -240l38 -108l40 108l129 240h141l-233 -418l132 -233q40 -73 63.5 -144.5t23.5 -137.5q0 -167 -66 -240.5t-195 -55.5v113q78 -1 107 37t29 116q0 72 -22.5 135t-50.5 113l-63 109l-43 103l-42 -103l-143 -264h-141z" />
<glyph unicode="&#x2000;" horiz-adv-x="757" />
<glyph unicode="&#x2001;" horiz-adv-x="1515" />
<glyph unicode="&#x2002;" horiz-adv-x="757" />
<glyph unicode="&#x2003;" horiz-adv-x="1515" />
<glyph unicode="&#x2004;" horiz-adv-x="505" />
<glyph unicode="&#x2005;" horiz-adv-x="378" />
<glyph unicode="&#x2006;" horiz-adv-x="252" />
<glyph unicode="&#x2007;" horiz-adv-x="252" />
<glyph unicode="&#x2008;" horiz-adv-x="189" />
<glyph unicode="&#x2009;" horiz-adv-x="303" />
<glyph unicode="&#x200a;" horiz-adv-x="84" />
<glyph unicode="&#x2013;" horiz-adv-x="922" d="M162 440v120h599v-120h-599z" />
<glyph unicode="&#x2014;" horiz-adv-x="1151" d="M166 440v120h821v-120h-821z" />
<glyph unicode="&#x2018;" horiz-adv-x="281" d="M54 1113q0 57 14.5 99t35.5 71t43 46.5t37 26.5l40 -57q-29 -21 -51 -56t-20 -82q33 5 53 -18.5t20 -62.5q0 -40 -21.5 -64t-56.5 -24q-40 0 -67 29.5t-27 91.5z" />
<glyph unicode="&#x2019;" horiz-adv-x="281" d="M54 1148q0 39 22.5 61.5t57.5 22.5q42 0 68 -28.5t26 -87.5q0 -56 -13.5 -97.5t-34 -70.5t-43 -47.5t-38.5 -26.5l-39 52q29 20 51 55.5t20 81.5q-32 -5 -54.5 18t-22.5 67z" />
<glyph unicode="&#x201a;" horiz-adv-x="281" d="M54 88q0 39 22.5 61.5t57.5 22.5q42 0 68 -28.5t26 -87.5q0 -56 -13.5 -97.5t-34 -70.5t-43 -47.5t-38.5 -26.5l-39 52q29 20 51 55.5t20 81.5q-32 -5 -54.5 18t-22.5 67z" />
<glyph unicode="&#x201c;" horiz-adv-x="500" d="M54 1113q0 57 14.5 99t35.5 71t43 46.5t37 26.5l40 -57q-29 -21 -51 -56t-20 -82q33 5 53 -18.5t20 -62.5q0 -40 -21.5 -64t-56.5 -24q-40 0 -67 29.5t-27 91.5zM273 1113q0 57 14.5 99t35.5 71t43 46.5t37 26.5l40 -57q-29 -21 -51 -56t-20 -82q33 5 53 -18.5t20 -62.5 q0 -40 -21.5 -64t-56.5 -24q-40 0 -67 29.5t-27 91.5z" />
<glyph unicode="&#x201d;" horiz-adv-x="500" d="M54 1148q0 39 22.5 61.5t57.5 22.5q42 0 68 -28.5t26 -87.5q0 -56 -13.5 -97.5t-34 -70.5t-43 -47.5t-38.5 -26.5l-39 52q29 20 51 55.5t20 81.5q-32 -5 -54.5 18t-22.5 67zM273 1148q0 39 22.5 61.5t57.5 22.5q42 0 68 -28.5t26 -87.5q0 -56 -13.5 -97.5t-34 -70.5 t-43 -47.5t-38.5 -26.5l-39 52q29 20 51 55.5t20 81.5q-32 -5 -54.5 18t-22.5 67z" />
<glyph unicode="&#x201e;" horiz-adv-x="500" d="M54 88q0 39 22.5 61.5t57.5 22.5q42 0 68 -28.5t26 -87.5q0 -56 -13.5 -97.5t-34 -70.5t-43 -47.5t-38.5 -26.5l-39 52q29 20 51 55.5t20 81.5q-32 -5 -54.5 18t-22.5 67zM273 88q0 39 22.5 61.5t57.5 22.5q42 0 68 -28.5t26 -87.5q0 -56 -13.5 -97.5t-34 -70.5 t-43 -47.5t-38.5 -26.5l-39 52q29 20 51 55.5t20 81.5q-32 -5 -54.5 18t-22.5 67z" />
<glyph unicode="&#x2026;" horiz-adv-x="1143" d="M106 78q0 49 23.5 73.5t63.5 24.5t63.5 -24t23.5 -74t-23.5 -74.5t-63.5 -24.5t-63.5 24.5t-23.5 74.5zM495 78q0 49 23.5 73.5t63.5 24.5t63.5 -24t23.5 -74t-23.5 -74.5t-63.5 -24.5t-63.5 24.5t-23.5 74.5zM885 78q0 49 23.5 73.5t63.5 24.5t63.5 -24t23.5 -74 t-23.5 -74.5t-63.5 -24.5t-63.5 24.5t-23.5 74.5z" />
<glyph unicode="&#x202f;" horiz-adv-x="303" />
<glyph unicode="&#x2039;" horiz-adv-x="420" d="M52 450l225 401l87 -57l-143 -270l-66 -72l66 -62l151 -265l-86 -59z" />
<glyph unicode="&#x203a;" horiz-adv-x="420" d="M48 790l90 61l231 -384l-223 -401l-86 57l141 271l67 71l-67 63z" />
<glyph unicode="&#x205f;" horiz-adv-x="378" />
<glyph unicode="&#x20ac;" d="M21 447l27 108h75v54v35t2 35h-104l27 110h88q17 127 53.5 210.5t89 136.5t116 78t135.5 25q71 0 122 -9t91 -29l-34 -115q-33 16 -75 24.5t-101 8.5q-47 0 -89 -17t-77 -54.5t-61 -99t-40 -159.5h388l-26 -110h-372q-2 -13 -2 -34.5v-35.5v-27.5t2 -26.5h345l-26 -108 h-311q25 -183 98 -265.5t188 -82.5q110 0 178 49l29 -105q-41 -35 -104 -49.5t-128 -14.5q-159 0 -262 109.5t-130 358.5h-112z" />
<glyph unicode="&#x2122;" horiz-adv-x="1272" d="M60 1105v114h495v-114h-184v-513h-125v513h-186zM609 592v627h124l143 -291l38 -101l41 105l131 287h125v-627h-116v290l18 180h-8l-54 -148l-116 -244h-59l-119 242l-51 150h-6l22 -178v-292h-113z" />
<glyph unicode="&#x25fc;" horiz-adv-x="870" d="M0 0v870h870v-870h-870z" />
</font>
</defs>
</svg>
