<?xml version="1.0" standalone="no"?>
<!DOCTYPE svg PUBLIC "-//W3C//DTD SVG 1.1//EN" "http://www.w3.org/Graphics/SVG/1.1/DTD/svg11.dtd" >
<svg xmlns="http://www.w3.org/2000/svg" xmlns:xlink="http://www.w3.org/1999/xlink" version="1.1">
<metadata></metadata>
<defs>
<font id="pt_sansbold_italic" horiz-adv-x="948" >
<font-face units-per-em="2048" ascent="1577" descent="-471" />
<missing-glyph horiz-adv-x="440" />
<glyph horiz-adv-x="0" />
<glyph unicode="&#xd;" horiz-adv-x="440" />
<glyph unicode=" "  horiz-adv-x="440" />
<glyph unicode="&#x09;" horiz-adv-x="440" />
<glyph unicode="&#xa0;" horiz-adv-x="440" />
<glyph unicode="!" horiz-adv-x="492" d="M129 115q0 61 38.5 96.5t100.5 35.5q64 0 102.5 -35.5t38.5 -96.5t-38.5 -98t-102.5 -37q-63 0 -101 37t-38 98zM241 362l15 284l121 573h224l-122 -573l-103 -284h-135z" />
<glyph unicode="&#x22;" horiz-adv-x="615" d="M121 842l81 377h188l-138 -377h-131zM365 842l81 377h188l-138 -377h-131z" />
<glyph unicode="#" d="M83 357l39 168h130l44 186h-125l38 168h127l61 251h186l-61 -251h155l61 251h186l-60 -251h125l-44 -168h-121l-44 -186h120l-42 -168h-118l-63 -269h-186l62 269h-154l-63 -269h-186l62 269h-129zM439 525h154l45 186h-156z" />
<glyph unicode="$" d="M103 75l81 169q25 -17 74.5 -40t115.5 -35l82 384q-40 27 -78.5 57.5t-68.5 69.5t-48.5 89t-18.5 115q0 83 28.5 146t78.5 107t114.5 68t137.5 33l35 154h172l-34 -156q67 -9 117.5 -25.5t86.5 -35.5l-86 -177q-25 14 -66.5 28t-92.5 22l-75 -354q40 -28 80 -59t71.5 -72 t50.5 -92t19 -117q0 -84 -27.5 -149.5t-77.5 -112.5t-119 -74.5t-150 -37.5l-32 -154h-172l33 157q-90 12 -145.5 39.5t-85.5 52.5zM468 912q0 -50 28.5 -86t74.5 -70l62 299q-83 -4 -124 -43.5t-41 -99.5zM473 164q93 7 136.5 53.5t43.5 109.5q0 56 -31.5 94.5t-78.5 73.5z " />
<glyph unicode="%" horiz-adv-x="1399" d="M97 869q0 94 32 163.5t84.5 115.5t115.5 68.5t126 22.5q115 0 175 -53t60 -156q0 -99 -29.5 -171t-80 -119t-116 -69.5t-135.5 -22.5q-107 0 -169.5 60t-62.5 161zM140 96l1002 1147l127 -115l-1002 -1153zM288 879q-2 -38 17 -61.5t56 -23.5q58 0 98 60t40 154 q0 85 -75 85q-30 0 -54 -17.5t-43.5 -46t-30 -68t-8.5 -82.5zM731 223q0 94 32 163.5t84.5 115.5t115.5 68.5t126 22.5q115 0 175 -53t60 -156q0 -99 -29.5 -171t-80 -119t-116 -69.5t-135.5 -22.5q-107 0 -169.5 60t-62.5 161zM922 233q-2 -38 17 -61.5t56 -23.5 q58 0 98 60t40 154q0 85 -75 85q-30 0 -54 -17.5t-43.5 -46t-30 -68t-8.5 -82.5z" />
<glyph unicode="&#x26;" horiz-adv-x="1362" d="M128 282q0 80 31.5 151.5t85 130.5t120.5 107t138 83q-30 58 -37.5 104.5t-7.5 93.5q0 58 19 110t61 92t106.5 64.5t152.5 24.5q70 0 114 -17.5t70.5 -46t36 -64t9.5 -70.5q0 -89 -70.5 -170t-200.5 -153q38 -94 79 -172t97 -155q45 44 90 109.5t83 133.5l138 -88 q-17 -32 -43.5 -69t-55 -75.5t-57.5 -72.5t-51 -58q42 -50 91 -94.5t99 -65.5l-152 -167q-26 10 -54 30t-55 43.5t-51 50t-42 50.5q-75 -58 -173 -102.5t-229 -44.5q-80 0 -143.5 24t-108 65t-67.5 96.5t-23 121.5zM354 324q0 -73 46.5 -115t139.5 -42q66 0 129.5 28.5 t101.5 63.5q-65 93 -115 184.5t-83 172.5q-103 -69 -161 -140t-58 -152zM668 963q0 -38 6.5 -65.5t25.5 -68.5q73 43 113 84.5t40 89.5q0 33 -15.5 52t-59.5 19q-54 0 -82 -33t-28 -78z" />
<glyph unicode="'" horiz-adv-x="379" d="M158 842l81 377h188l-138 -377h-131z" />
<glyph unicode="(" horiz-adv-x="538" d="M108 151q0 168 40 325t107 297.5t156 259t186 206.5l112 -93q-82 -90 -153 -203t-122.5 -240t-82.5 -263.5t-31 -275.5q0 -110 16 -217t71 -233l-133 -93q-50 66 -82 134.5t-51 136.5t-26 133t-7 126z" />
<glyph unicode=")" horiz-adv-x="538" d="M-134 -287q78 86 149.5 200.5t124.5 243.5t84.5 264.5t31.5 266.5q0 144 -21 254.5t-68 197.5l152 98q78 -105 113.5 -236.5t35.5 -289.5q0 -167 -39 -325.5t-106 -299.5t-155 -261t-185 -209z" />
<glyph unicode="*" horiz-adv-x="619" d="M136 945v129h103l102 -29l-87 76l-48 87l111 64l49 -79l26 -103l26 96l49 85l109 -61l-52 -91l-82 -74l111 28h100v-128h-95l-106 28l88 -81l43 -73l-111 -65l-47 80l-35 111l-23 -101l-50 -85l-113 65l52 85l78 64l-95 -28h-103z" />
<glyph unicode="+" horiz-adv-x="878" d="M101 491v195h282v294h203v-294h284v-195h-284v-298h-203v298h-282z" />
<glyph unicode="," horiz-adv-x="392" d="M-45 -164q50 20 92 63.5t58 92.5q-30 1 -56 28.5t-26 73.5q0 70 44 108.5t106 38.5q61 0 90 -39.5t29 -90.5v-3q-1 -85 -34.5 -149t-79 -108t-95.5 -71t-83 -38z" />
<glyph unicode="-" horiz-adv-x="596" d="M98 411l43 181h416l-44 -181h-415z" />
<glyph unicode="." horiz-adv-x="436" d="M58 115q0 61 38 96.5t100 35.5q65 0 103 -35.5t38 -96.5t-38 -98t-103 -37q-63 0 -100.5 37t-37.5 98z" />
<glyph unicode="/" horiz-adv-x="674" d="M-134 -164l886 1403l150 -80l-888 -1406z" />
<glyph unicode="0" d="M96 399q0 181 41 334.5t114 267t173 178t219 64.5q68 0 127.5 -21t105 -70t71.5 -130.5t26 -201.5q0 -161 -37.5 -313.5t-108 -270.5t-172.5 -189.5t-228 -71.5q-85 0 -148 33.5t-103 90t-60 134t-20 166.5zM312 400q0 -71 12 -116t32 -71.5t48 -36t59 -9.5 q61 0 114 57.5t93.5 150t63.5 208t23 234.5q0 53 -6 96.5t-22.5 74t-44.5 47t-71 16.5q-58 0 -112 -53.5t-96.5 -143.5t-67.5 -208t-25 -246z" />
<glyph unicode="1" d="M101 0l40 191h230l147 688l50 119l-101 -103l-169 -108l-68 134l447 318h122l-223 -1048h225l-40 -191h-660z" />
<glyph unicode="2" d="M63 0l24 116q48 46 114.5 108t138 132.5t140 146t122.5 148.5t88 141t34 123q0 58 -29.5 94.5t-113.5 36.5q-53 0 -110 -25.5t-112 -65.5l-53 164q83 62 167.5 93t196.5 31q129 0 199.5 -74t70.5 -194q0 -98 -45.5 -198t-114.5 -196t-153 -181t-159 -153l-102 -71v-9 l121 24h312l-40 -191h-696z" />
<glyph unicode="3" d="M71 30l100 193q35 -23 85 -36.5t116 -13.5q68 0 118 19t83 50.5t49 72t16 82.5q0 83 -45 121.5t-161 38.5h-122l26 120l256 288l111 78l-132 -16h-277l42 192h632l-26 -124l-298 -331l-84 -47v-8l70 10q35 -3 74 -20.5t72 -51.5t55 -87t22 -130q0 -99 -32 -182.5 t-96.5 -144t-160.5 -94.5t-221 -34q-75 0 -151.5 14t-120.5 41z" />
<glyph unicode="4" d="M48 339l27 129l684 759h178l-150 -709h183l-38 -179h-183l-72 -339h-200l71 339h-500zM286 507l108 11h192l58 269l45 146h-5l-83 -125l-219 -235z" />
<glyph unicode="5" d="M63 28l97 184q35 -16 79.5 -27.5t110.5 -11.5q73 0 125.5 20.5t86 55.5t50 80t16.5 96q0 87 -53 123.5t-176 36.5l-135 -5l135 639h569l-44 -213h-383l-50 -240l64 7q70 0 123 -22.5t89.5 -62.5t55.5 -96t19 -120q0 -241 -135.5 -369t-389.5 -128q-35 0 -71.5 5 t-70.5 11.5t-63 16t-49 20.5z" />
<glyph unicode="6" d="M108 367q0 178 66.5 332t175 270t247.5 187t287 87l13 -180q-87 -13 -170.5 -49t-156 -90.5t-128 -124.5t-85.5 -150q47 51 115.5 77t142.5 26q134 0 208.5 -84.5t74.5 -223.5q0 -95 -28 -180t-84.5 -148.5t-142 -102t-198.5 -38.5q-56 0 -116 20t-109 66.5t-80.5 121.5 t-31.5 184zM312 382q0 -95 39 -155t121 -60q99 0 156.5 66t57.5 171q0 69 -35.5 112.5t-119.5 43.5q-66 0 -123.5 -29t-87.5 -75q-3 -17 -5.5 -39t-2.5 -35z" />
<glyph unicode="7" d="M108 0l573 938l88 85l-101 -17h-409l44 213h748l-13 -66l-706 -1153h-224z" />
<glyph unicode="8" d="M94 266q0 66 22.5 122.5t61 103t89 81.5t105.5 55q-24 23 -46 46.5t-38.5 53t-26 69t-9.5 90.5q0 85 32.5 153t88 112t129 67.5t154.5 23.5q146 0 222.5 -76t76.5 -194q0 -61 -20 -110.5t-54 -91.5t-78 -76t-92 -59q78 -61 112 -130t34 -149q0 -88 -32.5 -158.5 t-90 -120.5t-137.5 -76.5t-175 -26.5q-68 0 -128.5 19.5t-105 56t-69.5 90.5t-25 125zM298 308q0 -62 36.5 -101.5t120.5 -39.5q38 0 73.5 10.5t63.5 30.5t43.5 50.5t15.5 72.5q0 40 -13 71.5t-35 56.5t-51.5 47t-60.5 41q-88 -45 -140.5 -105t-52.5 -134zM458 890 q0 -61 38.5 -104t96.5 -77q32 23 60 49t49.5 53.5t35 57t13.5 57.5q0 63 -31.5 94t-89.5 31q-73 0 -122.5 -41.5t-49.5 -119.5z" />
<glyph unicode="9" d="M173 794q0 104 34.5 187.5t96.5 141.5t144.5 89t179.5 31q73 0 136 -22.5t109 -70.5t73 -120.5t27 -171.5q0 -139 -35.5 -256.5t-95.5 -213.5t-139.5 -170.5t-166.5 -127t-177 -81.5t-169 -34l-11 178q96 17 180.5 55t152.5 89t117.5 114.5t76.5 131.5q-50 -40 -109 -60 t-142 -20q-49 0 -100 18.5t-91 57.5t-65.5 103t-25.5 152zM385 827q0 -50 13 -83t35.5 -54.5t49.5 -30t57 -8.5q66 0 123.5 21t90.5 56q5 19 9.5 54t4.5 50q0 100 -39.5 161.5t-127.5 61.5q-42 0 -80.5 -13.5t-68.5 -41t-48.5 -70.5t-18.5 -103z" />
<glyph unicode=":" horiz-adv-x="546" d="M157 115q0 61 38 96.5t100 35.5q65 0 103 -35.5t38 -96.5t-38 -98t-103 -37q-63 0 -100.5 37t-37.5 98zM288 745q0 61 38 96.5t100 35.5q65 0 103 -35.5t38 -96.5t-38 -98t-103 -37q-63 0 -100.5 37t-37.5 98z" />
<glyph unicode=";" horiz-adv-x="533" d="M91 -164q50 20 92 63.5t58 92.5q-30 1 -56 28.5t-26 73.5q0 70 44 108.5t106 38.5q61 0 90 -39.5t29 -90.5v-3q-1 -85 -34.5 -149t-79 -108t-95.5 -71t-83 -38zM276 745q0 61 38 96.5t100 35.5q65 0 103 -35.5t38 -96.5t-38 -98t-103 -37q-63 0 -100.5 37t-37.5 98z" />
<glyph unicode="&#x3c;" horiz-adv-x="878" d="M88 496v122l673 402l99 -156l-390 -243l-158 -61l156 -53l401 -239l-100 -157z" />
<glyph unicode="=" horiz-adv-x="878" d="M101 325v195h769v-195h-769zM101 658v195h769v-195h-769z" />
<glyph unicode="&#x3e;" horiz-adv-x="878" d="M105 865l97 155l682 -384v-123l-673 -402l-98 158l389 241l158 63l-157 52z" />
<glyph unicode="?" horiz-adv-x="748" d="M143 115q0 61 38 96.5t101 35.5q65 0 103 -35.5t38 -96.5t-38 -98t-103 -37q-63 0 -101 37t-38 98zM198 1138q71 44 155 74.5t204 30.5q146 0 214 -62t68 -166q0 -93 -27.5 -156t-71.5 -111t-96 -85.5t-100 -79.5t-86 -94t-53 -127h-184q10 94 42.5 161t75.5 116.5 t90.5 87t86.5 72.5t65.5 71.5t26.5 84.5q0 47 -27.5 73.5t-96.5 26.5q-54 0 -118.5 -23.5t-113.5 -56.5z" />
<glyph unicode="@" horiz-adv-x="1842" d="M174 411q0 189 68 342.5t183 261.5t266 166t321 58q159 0 297 -45.5t238.5 -132t158.5 -211t58 -282.5q0 -112 -40.5 -209.5t-108 -169t-159 -113t-195.5 -41.5q-44 0 -81.5 9.5t-63.5 32t-38.5 59.5t-6.5 90h-8q-26 -36 -55.5 -71t-66 -62t-79.5 -42.5t-96 -15.5 q-44 0 -81 18t-65 51.5t-45 80t-17 104.5q0 108 35 210t94.5 180t138.5 126t168 48q61 0 102.5 -18t78.5 -48l54 55h122l-85 -471q-4 -22 -5.5 -39.5t-1.5 -32.5q0 -83 64 -83q45 0 89.5 21t79.5 64.5t55.5 109.5t20.5 157q0 131 -43 223.5t-119 153t-178.5 88t-219.5 27.5 q-136 0 -253 -48.5t-203.5 -135t-135.5 -204t-49 -254.5q0 -136 41 -244t120.5 -184.5t195 -117.5t265.5 -41q50 0 114.5 13t117.5 38l53 -168q-73 -34 -146 -48t-169 -14q-171 0 -314 48.5t-248 144t-164 237.5t-59 329zM769 347q0 -58 25 -95.5t82 -37.5q24 0 51.5 15 t54 40t50 56.5t42.5 66.5l45 240q-24 19 -48.5 30.5t-58.5 11.5q-52 0 -97 -30.5t-77 -78t-50.5 -105.5t-18.5 -113z" />
<glyph unicode="A" horiz-adv-x="1012" d="M-66 0l677 1227h167l159 -1227h-228l-35 269h-355l-145 -269h-240zM418 462h247l-27 271l1 191h-9l-70 -193z" />
<glyph unicode="B" horiz-adv-x="988" d="M35 8l254 1202q33 5 74.5 10.5t89 8.5t97 5t96.5 2q80 0 149 -16.5t118.5 -51.5t78 -90t28.5 -131q0 -58 -19 -110.5t-55 -94.5t-85.5 -70t-111.5 -36v-10q33 -6 65.5 -24.5t59 -47.5t42.5 -68t16 -87q0 -112 -44 -191t-117 -128.5t-170.5 -73t-205.5 -23.5h-72 t-94.5 2.5t-101.5 7.5t-92 15zM291 190q7 -4 25 -5.5t39.5 -2.5t44.5 -2t39 -1q43 0 89.5 11t83.5 35t61.5 62.5t24.5 94.5q0 43 -19 70.5t-50.5 44t-72.5 22.5t-84 6h-112zM400 706h75q25 0 58 1.5t55 4.5q32 5 67.5 17t64.5 35t48 58t19 87q0 74 -49.5 102.5t-126.5 28.5 q-45 0 -83.5 -2t-59.5 -6z" />
<glyph unicode="C" horiz-adv-x="934" d="M101 473q0 206 57.5 351.5t151.5 238.5t215 136.5t248 43.5q99 0 169.5 -15t110.5 -34l-88 -202q-35 20 -84 29t-124 9q-88 0 -165 -36.5t-132.5 -104t-88 -165.5t-32.5 -221q0 -148 74 -231.5t198 -83.5q78 0 129.5 16.5t96.5 41.5l4 -196q-117 -75 -286 -75 q-115 0 -200.5 38.5t-142 106.5t-84 158.5t-27.5 194.5z" />
<glyph unicode="D" horiz-adv-x="1078" d="M35 -2l257 1221q37 5 80.5 8.5t81 5t64.5 1.5q16 0 45 1t63 1q107 0 194 -27t148.5 -82.5t95.5 -142.5t34 -208q0 -76 -12.5 -164t-44 -176.5t-86.5 -170.5t-138 -144.5t-198.5 -101.5t-268.5 -39q-26 0 -52.5 1.5t-36.5 1.5q-35 2 -77.5 4.5l-85 5t-63.5 5.5zM303 198 q6 -2 21 -2.5t32.5 -1.5t33 -1h24.5q122 0 207 55t138.5 137.5t77 179t23.5 180.5q0 140 -58.5 209t-193.5 69q-35 0 -73.5 -1.5t-59.5 -4.5z" />
<glyph unicode="E" horiz-adv-x="875" d="M35 0l257 1219h226h460l-45 -213h-460l-61 -284h420l-47 -212h-416l-65 -298h469l-44 -212h-468h-226z" />
<glyph unicode="F" horiz-adv-x="850" d="M35 0l257 1219h226h460l-45 -213h-460l-64 -301h423l-43 -212h-423l-105 -493h-226z" />
<glyph unicode="G" horiz-adv-x="1018" d="M101 470q0 201 55 347t149 241t219 140t265 45q99 0 176.5 -16.5t117.5 -33.5l-91 -201q-37 17 -91.5 27.5t-132.5 10.5q-93 0 -171.5 -35t-135.5 -102.5t-89.5 -167.5t-32.5 -229q0 -144 68 -226t183 -82q85 0 150 43l49 232l-178 28l32 145h365l-115 -543 q-78 -62 -164 -90t-186 -28q-96 0 -176.5 33.5t-140 96t-92.5 155t-33 210.5z" />
<glyph unicode="H" horiz-adv-x="1085" d="M35 0l257 1219h226l-104 -497h423l105 497h226l-258 -1219h-226l108 510h-423l-108 -510h-226z" />
<glyph unicode="I" horiz-adv-x="483" d="M61 0l258 1219h224l-257 -1219h-225z" />
<glyph unicode="J" horiz-adv-x="563" d="M-88 20l86 194q40 -23 95 -23q36 0 60.5 15t41 41.5t26.5 62t21 78.5l174 831h227l-191 -892q-15 -73 -39.5 -136t-64.5 -110.5t-100 -74.5t-145 -27q-49 0 -103 10.5t-88 30.5z" />
<glyph unicode="K" horiz-adv-x="1031" d="M35 0l257 1219h226l-114 -540l54 19l412 521h272l-439 -518l-104 -60l77 -68l264 -573h-252l-236 520h-81l-110 -520h-226z" />
<glyph unicode="L" horiz-adv-x="861" d="M35 0l257 1219h226l-214 -1007h507l-43 -212h-507h-226z" />
<glyph unicode="M" horiz-adv-x="1334" d="M35 0l257 1219h201l183 -558l22 -139h8l81 143l411 554h217l-257 -1219h-225l134 632l77 240h-11l-115 -196l-342 -452h-72l-164 457l-31 191h-9l-17 -239l-134 -633h-214z" />
<glyph unicode="N" horiz-adv-x="1098" d="M35 0l261 1227h156l300 -651l54 -189h11l12 189l137 643h215l-262 -1227h-157l-297 646l-58 194h-8l-16 -194l-134 -638h-214z" />
<glyph unicode="O" horiz-adv-x="1120" d="M101 456q0 162 44.5 305.5t126.5 250.5t197.5 169t258.5 62q94 0 169.5 -28t129 -86t82.5 -147t29 -211q0 -164 -44 -308t-125.5 -253t-193.5 -172t-247 -63q-206 0 -315.5 121.5t-111.5 359.5zM339 463q0 -125 48 -200t158 -75q80 0 145.5 48t112 128.5t72 185 t25.5 218.5q0 137 -54 199.5t-148 62.5q-78 0 -143.5 -45t-113 -122.5t-75 -181t-27.5 -218.5z" />
<glyph unicode="P" horiz-adv-x="957" d="M35 0l256 1206q73 14 156 22t166 8q88 0 164 -20t132.5 -61.5t87.5 -107t31 -155.5q0 -136 -46.5 -227.5t-124 -148t-177 -80.5t-201.5 -24h-27t-38 1t-38.5 3t-27.5 4l-87 -420h-226zM394 625q6 -2 18.5 -3.5t27.5 -2.5t27.5 -1h19.5q60 0 114.5 13t96.5 41.5t67 76 t25 115.5q0 50 -16.5 83t-44.5 51.5t-65.5 25t-78.5 6.5q-32 0 -60.5 -2.5t-47.5 -5.5z" />
<glyph unicode="Q" horiz-adv-x="1120" d="M101 456q0 162 44.5 305.5t126.5 250.5t197.5 169t258.5 62q94 0 169.5 -28t129 -86t82.5 -147t29 -211q0 -164 -44 -308t-125.5 -253t-193.5 -172t-247 -63q-206 0 -315.5 121.5t-111.5 359.5zM279 -269l43 204q49 11 98 11q70 0 135 -17t132 -37.5t138.5 -38 t152.5 -17.5q37 0 76 4.5t81 15.5l-44 -208q-80 -22 -158 -22h-7q-83 0 -160 18.5t-147.5 39t-134.5 39t-127 18.5q-40 0 -78 -10zM339 463q0 -125 48 -200t158 -75q80 0 145.5 48t112 128.5t72 185t25.5 218.5q0 137 -54 199.5t-148 62.5q-78 0 -143.5 -45t-113 -122.5 t-75 -181t-27.5 -218.5z" />
<glyph unicode="R" horiz-adv-x="1016" d="M35 0l256 1206q83 15 168.5 22.5t153.5 7.5q80 0 151.5 -19t123.5 -58.5t82.5 -101.5t30.5 -145q0 -96 -28.5 -166t-76 -118t-107.5 -75.5t-123 -35.5l68 -54l170 -463h-251l-168 477l-119 23l-105 -500h-226zM400 661h93q50 0 99 10t86.5 35t60.5 66.5t23 106.5 q0 59 -39.5 101.5t-129.5 42.5q-35 0 -65 -2.5t-51 -5.5z" />
<glyph unicode="S" horiz-adv-x="887" d="M-3 48l116 203q17 -10 45 -22.5t64 -23t77.5 -17.5t83.5 -7q49 0 92 7.5t75.5 26t51 46.5t18.5 70q0 46 -31.5 79.5t-79 63t-102.5 62t-103 75.5t-79.5 105t-31.5 151q0 101 35.5 172.5t97 116.5t143 66t175.5 21q50 0 101 -5.5t96 -15t83.5 -22.5t64.5 -29l-115 -198 q-33 21 -97.5 43t-143.5 22q-40 0 -78 -8t-67.5 -25.5t-47 -45t-17.5 -66.5q0 -50 31 -85t79 -65.5t103 -62t103 -73t79 -100t31 -143.5q0 -103 -35.5 -177t-100.5 -120.5t-156.5 -69t-202.5 -22.5q-62 0 -116.5 7.5t-102 17.5t-83 23.5t-55.5 24.5z" />
<glyph unicode="T" horiz-adv-x="952" d="M167 1006l45 213h901l-45 -213h-337l-214 -1006h-225l213 1006h-338z" />
<glyph unicode="U" horiz-adv-x="1047" d="M110 303q0 34 4 71t14 76l163 769h224l-160 -767q-13 -66 -14 -107q0 -83 43.5 -118.5t127.5 -35.5q104 0 161.5 61.5t87.5 196.5l163 770h212l-164 -787q-27 -125 -68.5 -211.5t-101 -140.5t-139.5 -77.5t-184 -23.5q-102 0 -171 23.5t-113.5 67t-64.5 102.5t-20 131z " />
<glyph unicode="V" horiz-adv-x="1007" d="M176 1219h247l79 -714l-13 -207h7l77 207l376 714h254l-688 -1227h-163z" />
<glyph unicode="W" horiz-adv-x="1437" d="M190 1219h238l6 -679l-25 -216h9l67 219l345 676h153l51 -679l-22 -216h8l70 219l285 676h244l-579 -1227h-159l-64 676l13 187h-10l-66 -189l-347 -674h-158z" />
<glyph unicode="X" horiz-adv-x="1058" d="M-42 0l487 621l-196 598h246l104 -352l17 -124l65 124l259 352h271l-457 -589l218 -630h-243l-125 376l-21 129l-70 -129l-280 -376h-275z" />
<glyph unicode="Y" horiz-adv-x="990" d="M184 1219h251l113 -458l-3 -129h7l54 132l304 455h260l-542 -764l-95 -455h-225l94 452z" />
<glyph unicode="Z" horiz-adv-x="901" d="M-20 0l46 212l627 725l101 69h-559l44 213h802l-43 -213l-631 -729l-98 -65h560l-45 -212h-804z" />
<glyph unicode="[" horiz-adv-x="546" d="M3 -400l342 1619h388l-39 -191h-182l-263 -1237h183l-42 -191h-387z" />
<glyph unicode="\" horiz-adv-x="737" d="M63 1163l179 75l580 -1404l-176 -78z" />
<glyph unicode="]" horiz-adv-x="546" d="M-136 -400l42 191h182l262 1237h-183l39 191h389l-343 -1619h-388z" />
<glyph unicode="^" horiz-adv-x="878" d="M122 719l341 508h122l322 -508h-228l-124 213l-38 121l-44 -123l-134 -211h-217z" />
<glyph unicode="_" horiz-adv-x="772" d="M-80 -204h773v-186h-773v186z" />
<glyph unicode="`" horiz-adv-x="476" d="M252 1201l12 53h225l42 -269h-120z" />
<glyph unicode="a" horiz-adv-x="875" d="M58 251q0 127 32 243.5t100 205.5t171.5 142t246.5 53q61 0 133 -11.5t140 -30.5l-108 -505q-14 -66 -20 -134t-6 -129q0 -25 1 -46.5t3 -40.5h-159l-24 150h-8q-19 -32 -49.5 -62t-67 -55.5t-77 -40.5t-84.5 -15q-115 0 -169.5 75t-54.5 201zM279 292q0 -56 18 -96.5 t67 -40.5q31 0 58.5 13t51.5 34t42.5 45t31.5 45l88 406q-20 8 -45 13t-50 5q-62 0 -110.5 -37.5t-82.5 -98t-51.5 -136t-17.5 -152.5z" />
<glyph unicode="b" horiz-adv-x="890" d="M38 48l248 1171h214l-108 -502h7q23 32 52 62t65 55.5t78 41.5t92 16q94 0 141 -66.5t47 -176.5q0 -165 -46 -290.5t-121 -209.5t-169 -127t-190 -43q-106 0 -187 20.5t-123 48.5zM279 183q19 -14 47 -19.5t61 -5.5q43 0 90 29t86.5 84.5t64.5 136.5t25 184 q0 119 -70 120q-35 0 -69 -19t-65 -48t-56.5 -62t-40.5 -63z" />
<glyph unicode="c" horiz-adv-x="716" d="M60 275q0 147 41.5 261.5t110 193.5t156.5 122t180 43q82 0 130 -15.5t86 -35.5l-80 -170q-33 20 -68.5 26t-77.5 6q-47 0 -91.5 -30t-80 -79.5t-56.5 -116t-21 -135.5q0 -88 38.5 -134.5t100.5 -46.5q52 0 97 16t79 38l40 -147q-56 -41 -130 -68.5t-147 -27.5 q-83 0 -141.5 25t-95 66.5t-53.5 95.5t-17 113z" />
<glyph unicode="d" horiz-adv-x="882" d="M65 263q0 121 33 234.5t93 201.5t146 140.5t191 52.5q50 0 83 -6.5t63 -20.5l75 354h214l-194 -913q-15 -73 -22 -135.5t-7 -118.5v-27t1 -27h-146l-24 150h-7q-19 -32 -49.5 -62t-67 -55.5t-77.5 -40.5t-81 -15q-108 0 -166 77t-58 211zM286 279q0 -50 22.5 -87 t63.5 -37q27 0 53.5 13t50.5 34t44 45t32 45l84 394q-21 14 -48.5 20t-72.5 6q-52 0 -95 -35.5t-72 -96t-45.5 -138.5t-16.5 -163z" />
<glyph unicode="e" horiz-adv-x="810" d="M60 289q0 139 43 251.5t113.5 190.5t159.5 121t177 43q72 0 123.5 -18.5t84.5 -50.5t48.5 -73.5t15.5 -89.5q0 -71 -36.5 -125t-102 -90t-157.5 -54t-202 -18q-13 0 -25.5 0.5t-26.5 0.5q-3 -21 -5 -37t-2 -30q0 -78 41 -116.5t116 -38.5q77 0 137.5 23t91.5 45l46 -140 q-54 -45 -139.5 -76.5t-198.5 -31.5q-141 0 -221.5 83t-80.5 231zM306 513q48 0 103.5 3.5t102 17t78 38.5t31.5 69q0 26 -19 53t-80 27q-77 0 -133.5 -59.5t-82.5 -148.5z" />
<glyph unicode="f" horiz-adv-x="511" d="M-224 -314l58 159q30 -12 60 -15.5t75 -3.5q56 0 86 44.5t46 143.5l110 677h-123l40 179h111l22 117q12 64 31.5 112.5t51.5 80t78 47.5t114 16q28 0 64 -2.5t70.5 -8.5t67.5 -15t59 -21l-50 -158q-40 15 -82 20t-82 5q-56 0 -81 -32.5t-35 -102.5l-11 -58h174l-35 -179 h-167l-129 -751q-10 -64 -29 -118.5t-53 -95.5t-86.5 -64.5t-128.5 -23.5q-63 0 -123 9.5t-103 38.5z" />
<glyph unicode="g" horiz-adv-x="878" d="M-17 -291l80 158q15 -6 36 -15.5t48 -19.5t63 -16t82 -6q87 0 138.5 54t74.5 148l33 136h-7q-40 -63 -108.5 -112.5t-156.5 -49.5q-94 0 -152 71t-58 189q0 134 38.5 251.5t106.5 205t162.5 138.5t207.5 51q106 0 185.5 -18.5t127.5 -41.5l-175 -832 q-23 -103 -61.5 -173.5t-91.5 -114t-121.5 -62.5t-152.5 -19q-61 0 -109 8.5t-84.5 21t-63.5 25.5t-42 23zM277 287q0 -56 23.5 -88.5t61.5 -32.5q30 0 61.5 18t60 46t51 62t36.5 63l75 339q-20 11 -49 14.5t-59 3.5q-56 0 -103.5 -33t-82.5 -90.5t-55 -135t-20 -166.5z" />
<glyph unicode="h" horiz-adv-x="918" d="M31 0l258 1219h214l-109 -502h6q23 28 55 59.5t71.5 57.5t85.5 43.5t100 17.5q84 0 129.5 -42t45.5 -148q0 -65 -20 -164l-115 -541h-214l105 495q17 76 17 126q0 45 -17.5 65t-54.5 20q-33 0 -69.5 -20.5t-69.5 -51.5t-60 -67t-41 -65l-102 -502h-215z" />
<glyph unicode="i" horiz-adv-x="445" d="M47 0l184 870h214l-184 -870h-214zM265 1118q0 58 37.5 89t94.5 31q56 0 95.5 -31.5t39.5 -88.5q0 -56 -39.5 -88t-95.5 -32q-57 0 -94.5 32t-37.5 88z" />
<glyph unicode="j" horiz-adv-x="424" d="M-195 -347l42 185q9 -1 18 -1q32 0 57 9q31 11 53 35.5t36.5 61.5t25.5 85l177 842h216l-193 -907q-33 -156 -111.5 -239t-212.5 -83q-53 0 -108 12zM246 1118q0 58 37.5 89t94.5 31q56 0 95.5 -31.5t39.5 -88.5q0 -56 -39.5 -88t-95.5 -32q-57 0 -94.5 32t-37.5 88z" />
<glyph unicode="k" horiz-adv-x="809" d="M31 0l258 1219h214l-153 -719l64 22l246 348h238l-259 -350l-104 -65l78 -67l132 -388h-230l-125 360h-70l-74 -360h-215z" />
<glyph unicode="l" horiz-adv-x="473" d="M58 115q0 40 10 92l214 1012h214l-204 -961q-5 -24 -5 -43q0 -21 6 -33q11 -24 38 -24q48 0 92 20l-5 -155q-31 -20 -90.5 -32t-116.5 -12q-75 0 -114 29t-39 107z" />
<glyph unicode="m" horiz-adv-x="1334" d="M31 0l185 870h167l-11 -153h7q26 28 57 59.5t69 57.5t85.5 43.5t102.5 17.5q69 -1 105 -51q32 -45 32 -117v-16q27 33 60.5 65.5t73 59t83.5 43t91 16.5q80 0 123 -37.5t43 -140.5q0 -74 -26 -195l-110 -522h-214l103 489q8 40 13.5 75t5.5 61q0 40 -15 60.5t-49 20.5 q-29 0 -57.5 -16t-54.5 -41.5t-48 -55t-33 -55.5l-113 -538h-213l99 473q10 49 16.5 86.5t6.5 66.5q0 80 -62 80q-29 0 -58.5 -15t-55 -40t-47 -53t-35.5 -55l-111 -543h-215z" />
<glyph unicode="n" horiz-adv-x="906" d="M31 0l185 870h161l-8 -153h7q23 28 53.5 59.5t70.5 57.5t89.5 43.5t111.5 17.5q78 0 125.5 -43t47.5 -141q0 -27 -2.5 -56.5t-11.5 -64.5l-126 -590h-214l116 540q10 48 10 85q0 38 -15.5 59.5t-57.5 21.5q-32 0 -63 -15t-59 -41.5t-52.5 -59t-41.5 -65.5l-111 -525h-215 z" />
<glyph unicode="o" horiz-adv-x="862" d="M60 282q0 138 39 251t104 193t151 124.5t181 44.5q83 0 140.5 -26.5t93 -69.5t51.5 -99t16 -115q0 -136 -38.5 -248.5t-103 -192t-149.5 -124.5t-179 -45q-82 0 -139.5 27.5t-95 70.5t-54.5 98t-17 111zM280 312q0 -156 114 -157q41 0 81 36.5t71.5 96t50 134t18.5 149.5 q0 70 -23.5 107.5t-88.5 37.5q-41 0 -81 -35t-71.5 -91.5t-51 -129.5t-19.5 -148z" />
<glyph unicode="p" horiz-adv-x="880" d="M-45 -348l257 1218h159l-9 -153h7q25 34 56 65.5t69.5 56.5t82 40.5t93.5 15.5q88 0 142.5 -61t54.5 -191q0 -148 -39 -271t-104.5 -211t-153.5 -137t-183 -49q-45 0 -85.5 9t-59.5 23l-75 -355h-212zM279 184q43 -29 97 -29q53 0 102.5 36.5t87 97.5t59 142t21.5 170 q0 50 -23.5 82.5t-64.5 32.5q-31 0 -60.5 -16t-55.5 -39t-47 -53t-36 -58z" />
<glyph unicode="q" horiz-adv-x="872" d="M50 242q0 133 43 251t117 207t172 140.5t208 51.5q83 0 162.5 -18.5t123.5 -43.5l-256 -1178h-209l106 484h-7q-17 -30 -42.5 -58t-58 -51.5t-70.5 -37.5t-81 -14q-58 0 -97 22.5t-63.5 59.5t-36 85t-11.5 100zM271 269q0 -53 20.5 -83.5t55.5 -30.5q33 0 65.5 20 t61.5 50.5t52.5 66t37.5 67.5l69 335q-24 11 -50 14.5t-52 3.5q-52 0 -100 -37t-82.5 -99.5t-56 -142t-21.5 -164.5z" />
<glyph unicode="r" horiz-adv-x="596" d="M31 0l185 870h158l2 -153h7q39 70 93.5 118.5t138.5 48.5q36 0 86 -14l-53 -186q-17 5 -33 8.5t-34 3.5q-71 0 -131 -46t-91 -107l-113 -543h-215z" />
<glyph unicode="s" horiz-adv-x="689" d="M-2 33l68 171q35 -20 90 -34.5t115 -14.5q61 0 93.5 23.5t34.5 72.5q0 35 -21 60t-53.5 48t-69 46t-68.5 53.5t-53 72.5t-21 101q0 57 22.5 106t64 84t99.5 54t131 19q101 0 167 -15t104 -38l-58 -163q-35 15 -85 26t-103 11q-56 0 -88.5 -19.5t-32.5 -60.5q0 -28 21 -50 t53 -45t68.5 -46t69 -56.5t53.5 -76t21 -101.5q0 -145 -94 -215.5t-251 -70.5q-88 0 -162.5 16.5t-114.5 41.5z" />
<glyph unicode="t" horiz-adv-x="556" d="M70 691l41 179h113l35 164l228 64l-48 -228h204l-40 -179h-203l-85 -393q-10 -47 -11 -77q0 -38 17.5 -52t52.5 -14q33 0 60.5 7t56.5 22v-159q-19 -11 -46 -20.5t-58.5 -15.5t-64.5 -10t-61 -4q-88 0 -136.5 41.5t-48.5 124.5q0 17 3 36t6 41l101 473h-116z" />
<glyph unicode="u" horiz-adv-x="890" d="M68 167q0 65 17 141l121 562h214l-114 -538q-10 -52 -10 -86q0 -35 14 -54t49 -19q29 0 59.5 14.5t58.5 38t51.5 52t39.5 56.5l111 536h214l-109 -522q-9 -34 -15.5 -81.5t-11.5 -97t-7 -94.5q-1 -19 0 -36q0 -22 1 -39h-173l-8 156h-7q-25 -33 -57.5 -64.5t-71.5 -58 t-85 -42.5t-98 -16q-82 0 -132.5 41.5t-50.5 150.5z" />
<glyph unicode="v" horiz-adv-x="779" d="M70 870h236l58 -456l3 -134h5l53 138l238 452h242l-533 -878h-131z" />
<glyph unicode="w" horiz-adv-x="1179" d="M80 870h219l28 -436l-10 -155h9l59 156l230 435h159l56 -445l-1 -145h8l53 147l201 443h209l-443 -878h-159l-60 487v109h-8l-45 -111l-261 -485h-164z" />
<glyph unicode="x" horiz-adv-x="862" d="M-71 0l360 445l-156 425h241l66 -186l23 -121l77 121l151 186h249l-339 -418l173 -452h-236l-83 209l-27 128l-78 -128l-172 -209h-249z" />
<glyph unicode="y" horiz-adv-x="786" d="M-30 -331l58 171q10 -5 21.5 -7t21.5 -2q42 0 86 40.5t87 128.5l-164 870h246l50 -488l1 -136h11l47 137l237 487h228l-418 -782q-52 -97 -98.5 -179t-93 -141t-97 -92t-108.5 -33q-77 0 -115 26z" />
<glyph unicode="z" horiz-adv-x="756" d="M-23 0l38 188l392 416l124 79h-411l42 187h647l-40 -187l-400 -424l-111 -71h407l-40 -188h-648z" />
<glyph unicode="{" horiz-adv-x="619" d="M113 322l38 174q63 0 105 36t58 112l76 364q20 94 73.5 153.5t147.5 59.5h198l-40 -193h-83q-45 0 -70.5 -24t-37.5 -80l-71 -339q-16 -77 -59.5 -116t-90.5 -47l-3 -18q43 -7 68 -52.5t10 -118.5l-72 -338q-12 -56 3.5 -80t63.5 -24h81l-41 -191h-199q-87 0 -120 54.5 t-10 155.5l74 357q20 89 -7 122t-92 33z" />
<glyph unicode="|" horiz-adv-x="403" d="M164 -226v1445h184v-1445h-184z" />
<glyph unicode="}" horiz-adv-x="619" d="M-133 -400l43 191h83q44 0 68 23.5t37 80.5l73 340q15 76 57.5 115.5t91.5 48.5l6 17q-46 6 -72 51.5t-10 118.5l71 338q12 54 -2.5 79t-61.5 25h-80l38 193h196q87 0 121 -55t14 -156l-77 -357q-19 -89 9 -122t92 -33l-36 -174q-133 0 -164 -148l-78 -364 q-20 -94 -76.5 -153t-149.5 -59h-193z" />
<glyph unicode="~" horiz-adv-x="878" d="M78 658q82 66 147.5 91t121.5 25q50 0 93.5 -14.5t83.5 -31t79.5 -31t79.5 -14.5q31 0 64 10t70 40l81 -180q-62 -46 -114.5 -65.5t-97.5 -19.5q-48 0 -90.5 16t-81.5 35t-79 35t-85 16q-41 0 -89.5 -18.5t-105.5 -67.5z" />
<glyph unicode="&#xa2;" d="M162 275q0 131 33 236t89.5 183.5t131.5 127t157 64.5l33 159h200l-35 -161q80 -15 126 -40l-78 -170q-20 10 -45 17t-53 10l-113 -530q38 8 72 20.5t56 26.5l42 -147q-37 -29 -89.5 -51t-108.5 -32l-33 -162h-200l32 159q-58 12 -99 39.5t-67.5 67t-38.5 86t-12 97.5z M372 345q0 -73 25 -113.5t63 -55.5l110 517q-39 -16 -74.5 -47t-63 -76.5t-44 -102t-16.5 -122.5z" />
<glyph unicode="&#xa3;" d="M52 0l42 190h4q52 1 100 24t84.5 62t58 91.5t21.5 112.5v18t-2 17h-204l40 179h123q-9 35 -16 76t-7 97q0 98 37.5 169.5t100 117t142.5 67.5t165 22q78 0 148.5 -16.5t111.5 -44.5l-73 -169q-30 15 -81 28.5t-121 13.5q-42 0 -81 -15t-68 -42.5t-46.5 -66t-17.5 -87.5 q0 -50 7.5 -84t17.5 -66h244l-41 -179h-165q0 -7 1 -11t1 -11q0 -87 -36.5 -158.5t-79.5 -110.5l-83 -51l-2 -11l118 26h379l-42 -188h-780z" />
<glyph unicode="&#xa5;" d="M113 209l30 139h216l20 99h-213l29 139h148l-179 633h264l117 -458l-5 -129h8l53 132l301 455h247l-448 -633h152l-29 -139h-218l-21 -99h217l-29 -139h-218l-43 -209h-226l43 209h-216z" />
<glyph unicode="&#xa8;" horiz-adv-x="821" d="M284 1133q0 58 32 90t83 32q50 0 82 -32t32 -90q0 -56 -32 -87t-82 -31q-51 0 -83 31t-32 87zM646 1135q0 56 32.5 88t82.5 32t82.5 -32t32.5 -88t-32.5 -88t-82.5 -32t-82.5 32t-32.5 88z" />
<glyph unicode="&#xa9;" horiz-adv-x="1455" d="M139 505q0 144 49 260t133 198t199.5 126t247.5 44t246 -44t199.5 -126t134 -198t48.5 -260q0 -145 -48.5 -260.5t-134 -197.5t-199.5 -126t-246 -44q-145 0 -261.5 44t-198.5 126t-125.5 197.5t-43.5 260.5zM308 505q0 -108 34.5 -195t96 -147t145.5 -92.5t184 -32.5 q99 0 183.5 32.5t146 92.5t95.5 147t34 195t-34 195t-95.5 147t-146 92.5t-183.5 32.5q-100 0 -184 -32.5t-145.5 -92.5t-96 -147t-34.5 -195zM475 505q0 158 79 244.5t210 86.5q65 0 114.5 -15t94.5 -41l-56 -150q-31 15 -56 20.5t-50 5.5q-50 0 -80 -34t-30 -117 q0 -73 31.5 -112t91.5 -39q33 0 59 6t52 19l50 -151q-38 -25 -96.5 -39.5t-124.5 -14.5q-141 0 -215 89t-74 242z" />
<glyph unicode="&#xab;" horiz-adv-x="809" d="M54 450l348 401l110 -111l-190 -220l-104 -64l68 -68l104 -219l-134 -103zM376 455l335 375l98 -101l-181 -212l-90 -65l57 -64l98 -210l-130 -95z" />
<glyph unicode="&#xae;" horiz-adv-x="1206" d="M204 785q0 117 39 208.5t106 154t156.5 95.5t188.5 33q103 0 193 -33t157 -95.5t105 -154t38 -208.5q0 -118 -39 -209.5t-107 -154t-157.5 -95t-189.5 -32.5q-102 0 -192 32.5t-156 95t-104 154t-38 209.5zM367 785q0 -83 26.5 -146t71.5 -104.5t104 -63t125 -21.5 q70 0 130 20.5t104.5 62.5t69.5 104.5t25 147.5q0 84 -25.5 146.5t-71 104.5t-105.5 62.5t-127 20.5q-73 0 -132.5 -22.5t-103.5 -66t-67.5 -105t-23.5 -140.5zM515 560v452q28 8 78.5 12t95.5 4q73 0 125.5 -30t52.5 -105q0 -56 -35.5 -85.5t-88.5 -33.5l49 -23l113 -191 h-106l-110 181l-83 27v-208h-91zM606 820h59q50 0 78 15.5t28 54.5q0 60 -101 60q-20 0 -37 -0.5t-27 -5.5v-124z" />
<glyph unicode="&#xb4;" horiz-adv-x="464" d="M221 985l145 269h217l-10 -53l-232 -216h-120z" />
<glyph unicode="&#xb8;" horiz-adv-x="493" d="M-70 -355l35 84q89 -9 122 10t33 43q0 56 -135 52l130 166h137l-57 -75q59 -3 90.5 -36t31.5 -84q0 -45 -20 -78t-54 -55t-80.5 -32.5t-97.5 -10.5q-67 0 -135 16z" />
<glyph unicode="&#xbb;" horiz-adv-x="809" d="M54 186l181 214l91 65l-62 66l-95 210l132 93l186 -364l-332 -383zM352 176l189 219l100 75l-65 68l-108 216l148 97l193 -384l-347 -401z" />
<glyph unicode="&#x2c6;" horiz-adv-x="692" d="M224 957l272 317h143l117 -317h-168l-41 116l-7 85l-47 -85l-99 -116h-170z" />
<glyph unicode="&#x2da;" horiz-adv-x="640" d="M301 1126q0 73 49.5 120.5t144.5 47.5q88 0 140.5 -43t52.5 -125q0 -68 -51.5 -115.5t-141.5 -47.5q-93 0 -143.5 44t-50.5 119zM427 1126q0 -28 20 -43t48 -15q29 0 48.5 14t19.5 44t-20.5 45t-47.5 15q-28 0 -48 -14t-20 -46z" />
<glyph unicode="&#x2dc;" horiz-adv-x="606" d="M219 1146q61 64 107 88.5t85 24.5q31 0 58 -12.5t54 -26.5t54 -26t59 -12q24 0 52.5 10.5t63.5 36.5l7 -121q-56 -57 -99.5 -78.5t-79.5 -21.5q-32 0 -59.5 11t-55.5 25t-55.5 25.5t-59.5 11.5q-26 0 -57.5 -10.5t-66.5 -38.5z" />
<glyph unicode="&#x401;" horiz-adv-x="875" d="M35 0l257 1219h226h460l-45 -213h-460l-61 -284h420l-47 -212h-416l-65 -298h469l-44 -212h-468h-226zM359 1389q0 50 35 75.5t90 25.5q56 0 91 -25t35 -76q0 -50 -35 -74.5t-91 -24.5t-90.5 24.5t-34.5 74.5zM714 1389q0 50 35 75.5t90 25.5q56 0 91 -25t35 -76 q0 -50 -35 -74.5t-91 -24.5t-90.5 24.5t-34.5 74.5z" />
<glyph unicode="&#x402;" horiz-adv-x="1234" d="M167 1006l45 213h901l-45 -213h-337l-54 -249q30 11 78.5 25t137.5 14q84 0 141 -25.5t93 -70t51.5 -102.5t15.5 -123q0 -94 -28 -181.5t-87 -155.5t-152 -109t-224 -41q-93 0 -113 7l46 203q10 -2 35 -3.5t53 -1.5q54 0 97.5 19t73 52.5t45 77t15.5 92.5 q0 84 -41.5 116.5t-128.5 32.5q-38 0 -83.5 -10t-68.5 -21l-116 -552h-225l213 1006h-338z" />
<glyph unicode="&#x403;" horiz-adv-x="758" d="M35 0l257 1219h673l-46 -213h-446l-212 -1006h-226zM511 1309l218 206h274l-10 -53l-301 -153h-181z" />
<glyph unicode="&#x404;" horiz-adv-x="972" d="M101 473q0 206 57.5 351.5t151.5 238.5t215 136.5t248 43.5q48 0 94.5 -4.5t87 -11t72 -15.5t53.5 -18l-90 -202q-36 20 -97 29t-136 9q-134 0 -236.5 -80t-149.5 -226h471l-41 -196h-462v-26q0 -148 74 -231t198 -83q78 0 143 16.5t108 41.5l5 -196 q-61 -38 -143.5 -56.5t-168.5 -18.5q-115 0 -200.5 38.5t-142 106.5t-84 158.5t-27.5 194.5z" />
<glyph unicode="&#x405;" horiz-adv-x="887" d="M-3 48l116 203q17 -10 45 -22.5t64 -23t77.5 -17.5t83.5 -7q49 0 92 7.5t75.5 26t51 46.5t18.5 70q0 46 -31.5 79.5t-79 63t-102.5 62t-103 75.5t-79.5 105t-31.5 151q0 101 35.5 172.5t97 116.5t143 66t175.5 21q50 0 101 -5.5t96 -15t83.5 -22.5t64.5 -29l-115 -198 q-33 21 -97.5 43t-143.5 22q-40 0 -78 -8t-67.5 -25.5t-47 -45t-17.5 -66.5q0 -50 31 -85t79 -65.5t103 -62t103 -73t79 -100t31 -143.5q0 -103 -35.5 -177t-100.5 -120.5t-156.5 -69t-202.5 -22.5q-62 0 -116.5 7.5t-102 17.5t-83 23.5t-55.5 24.5z" />
<glyph unicode="&#x406;" horiz-adv-x="483" d="M61 0l258 1219h224l-257 -1219h-225z" />
<glyph unicode="&#x407;" horiz-adv-x="483" d="M61 0l258 1219h224l-257 -1219h-225zM242 1379q0 52 26 81.5t71 29.5q43 0 70.5 -29.5t27.5 -81.5q0 -50 -27 -79t-71 -29q-45 0 -71 29t-26 79zM473 1379q0 52 27.5 81.5t70.5 29.5q44 0 71.5 -29.5t27.5 -81.5q0 -50 -27.5 -79t-71.5 -29q-43 0 -70.5 29t-27.5 79z" />
<glyph unicode="&#x408;" horiz-adv-x="563" d="M-88 20l86 194q40 -23 95 -23q36 0 60.5 15t41 41.5t26.5 62t21 78.5l174 831h227l-191 -892q-15 -73 -39.5 -136t-64.5 -110.5t-100 -74.5t-145 -27q-49 0 -103 10.5t-88 30.5z" />
<glyph unicode="&#x409;" horiz-adv-x="1548" d="M-83 12l68 206q8 -4 17.5 -5.5t18.5 -1.5q30 -2 60 14t57 50q31 39 66 112t72.5 187.5t78 273t85.5 371.5h214h243h226l-93 -437q21 3 65.5 8.5t82.5 5.5q80 0 146.5 -22t115 -64t76 -102.5t27.5 -140.5q0 -131 -45.5 -223.5t-124 -149.5t-184.5 -84t-226 -27 q-23 0 -62 1t-84.5 4.5t-92.5 8.5t-83 15l210 994h-242q-39 -165 -75 -300.5t-71.5 -243.5t-75.5 -192t-88 -147q-31 -41 -64.5 -67t-67.5 -41t-65.5 -21t-59.5 -6q-80 0 -125 24zM907 206q19 -4 48.5 -7.5t62.5 -3.5q58 0 109 13t90.5 42t63 72.5t23.5 105.5 q0 87 -55.5 121t-148.5 34q-10 0 -27.5 -1.5t-34 -3.5t-31.5 -4.5t-22 -3.5z" />
<glyph unicode="&#x40a;" horiz-adv-x="1593" d="M35 0l257 1219h226l-100 -476h423l101 476h226l-97 -463q10 1 28.5 3.5t40 5.5t45 3.5t42.5 0.5q164 0 262.5 -83t98.5 -244q0 -106 -36 -191t-107 -144.5t-180 -91.5t-257 -32q-23 0 -59.5 1t-85.5 3.5t-95 6.5t-82 11l111 526h-423l-113 -531h-226zM954 206 q17 -5 48.5 -8t64.5 -3q144 0 213 55.5t69 163.5q0 82 -52.5 112.5t-150.5 30.5q-12 0 -30 -2t-35.5 -3.5t-33 -5t-22.5 -5.5z" />
<glyph unicode="&#x40b;" horiz-adv-x="1264" d="M167 1006l45 213h901l-45 -213h-339l-64 -308q48 28 112 49.5t156 21.5q58 0 108 -14.5t87.5 -47.5t60 -83.5t22.5 -121.5q0 -25 -2.5 -53.5t-9.5 -58.5l-81 -390h-226l76 352q4 21 6.5 39t2.5 36q0 137 -143 137q-63 0 -114.5 -16.5t-94.5 -42.5l-108 -505h-225 l213 1006h-338z" />
<glyph unicode="&#x40c;" horiz-adv-x="1031" d="M35 0l257 1219h226l-114 -540l54 19l412 521h272l-439 -518l-104 -60l77 -68l264 -573h-252l-236 520h-81l-110 -520h-226zM555 1309l218 206h274l-10 -53l-301 -153h-181z" />
<glyph unicode="&#x40e;" horiz-adv-x="950" d="M90 30l100 193q24 -14 45 -18t47 -4q37 0 71.5 37t68.5 96l-244 885h249l121 -538l2 -159h10l58 164l284 533h252l-488 -843q-57 -100 -102.5 -172.5t-89.5 -120.5t-94.5 -71.5t-118.5 -23.5q-106 0 -171 42zM394 1487l189 35q-4 -49 23 -77t75 -28q113 0 148 103 l199 -30q-36 -106 -129.5 -158.5t-234.5 -52.5q-68 0 -118.5 16.5t-83.5 44.5t-49.5 65.5t-18.5 81.5z" />
<glyph unicode="&#x40f;" horiz-adv-x="1068" d="M35 0l257 1219h226l-214 -1007h407l213 1007h225l-257 -1219h-232h-113l-45 -304h-203l78 304h-116h-226z" />
<glyph unicode="&#x410;" horiz-adv-x="1012" d="M-66 0l677 1227h167l159 -1227h-228l-35 269h-355l-145 -269h-240zM418 462h247l-27 271l1 191h-9l-70 -193z" />
<glyph unicode="&#x411;" horiz-adv-x="953" d="M35 12l256 1207h226h484l-46 -213h-483l-54 -254q30 5 71.5 10.5t81.5 5.5q96 0 163 -26t108.5 -70t61.5 -101.5t20 -118.5q0 -109 -37.5 -196t-109.5 -148t-176.5 -93t-236.5 -32q-28 0 -65.5 1t-88 5t-96.5 9t-79 14zM298 188q16 -5 53 -7t72 -2q49 0 96 15t84.5 43.5 t60 72.5t22.5 101q0 90 -53 125t-149 35q-25 0 -59.5 -4t-48.5 -9z" />
<glyph unicode="&#x412;" horiz-adv-x="988" d="M35 8l254 1202q33 5 74.5 10.5t89 8.5t97 5t96.5 2q80 0 149 -16.5t118.5 -51.5t78 -90t28.5 -131q0 -58 -19 -110.5t-55 -94.5t-85.5 -70t-111.5 -36v-10q33 -6 65.5 -24.5t59 -47.5t42.5 -68t16 -87q0 -112 -44 -191t-117 -128.5t-170.5 -73t-205.5 -23.5h-72 t-94.5 2.5t-101.5 7.5t-92 15zM291 190q7 -4 25 -5.5t39.5 -2.5t44.5 -2t39 -1q43 0 89.5 11t83.5 35t61.5 62.5t24.5 94.5q0 43 -19 70.5t-50.5 44t-72.5 22.5t-84 6h-112zM400 706h75q25 0 58 1.5t55 4.5q32 5 67.5 17t64.5 35t48 58t19 87q0 74 -49.5 102.5t-126.5 28.5 q-45 0 -83.5 -2t-59.5 -6z" />
<glyph unicode="&#x413;" horiz-adv-x="758" d="M35 0l257 1219h673l-46 -213h-446l-212 -1006h-226z" />
<glyph unicode="&#x414;" horiz-adv-x="1153" d="M-111 -218l90 430h122q15 20 58 85t95 186t109 302t102 434h203h265h226l-214 -1007h148l-92 -430h-159l22 218h-744l-72 -218h-159zM345 212h376l166 794h-254q-73 -313 -151 -510t-137 -284z" />
<glyph unicode="&#x415;" horiz-adv-x="875" d="M35 0l257 1219h226h460l-45 -213h-460l-61 -284h420l-47 -212h-416l-65 -298h469l-44 -212h-468h-226z" />
<glyph unicode="&#x416;" horiz-adv-x="1397" d="M-80 0l411 535l106 68l-66 63l-170 553h243l142 -521h70l110 521h216l-115 -542l59 19l340 523h267l-380 -535l-93 -59l73 -73l196 -552h-251l-171 530h-71l-112 -530h-216l117 550l-57 -20l-372 -530h-276z" />
<glyph unicode="&#x417;" horiz-adv-x="882" d="M-30 40l101 207q35 -19 101.5 -39t163.5 -20q41 0 86.5 10.5t82 34t60 61.5t23.5 94q0 84 -60 115.5t-171 34.5h-66h-45l40 188h40q15 0 36 1t43 2.5t42.5 3t34.5 3.5q35 5 69.5 16.5t62 32.5t45 50.5t17.5 71.5q0 56 -43 88t-126 32q-73 0 -140.5 -21t-110.5 -40 l-15 202q21 10 56 22.5t80 23t96.5 18t104.5 7.5q73 0 134 -16.5t106.5 -49.5t70.5 -82.5t25 -113.5q0 -120 -65 -210.5t-195 -120.5v-8q34 -11 65.5 -29.5t54.5 -48t38 -71.5t15 -99q0 -106 -42 -183.5t-114 -129t-169.5 -77t-207.5 -25.5t-196 19.5t-128 45.5z" />
<glyph unicode="&#x418;" horiz-adv-x="1110" d="M35 0l257 1219h226l-136 -651l-53 -161h10l116 173l563 639h175l-258 -1219h-226l138 663l51 156h-11l-111 -168l-567 -651h-174z" />
<glyph unicode="&#x419;" horiz-adv-x="1110" d="M35 0l257 1219h226l-136 -651l-53 -161h10l116 173l563 639h175l-258 -1219h-226l138 663l51 156h-11l-111 -168l-567 -651h-174zM505 1487l189 35q-4 -49 23 -77t75 -28q113 0 148 103l199 -30q-36 -106 -129.5 -158.5t-234.5 -52.5q-68 0 -118.5 16.5t-83.5 44.5 t-49.5 65.5t-18.5 81.5z" />
<glyph unicode="&#x41a;" horiz-adv-x="1031" d="M35 0l257 1219h226l-114 -540l54 19l412 521h272l-439 -518l-104 -60l77 -68l264 -573h-252l-236 520h-81l-110 -520h-226z" />
<glyph unicode="&#x41b;" horiz-adv-x="1042" d="M-83 12l68 206q8 -4 17.5 -5.5t18.5 -1.5q30 -2 60 14t57 50q31 39 66 112t72.5 187.5t78 273t85.5 371.5h214h243h226l-258 -1219h-224l212 1006h-244q-39 -165 -75 -300.5t-71.5 -243.5t-75.5 -192t-88 -147q-31 -41 -64.5 -67t-67.5 -41t-65.5 -21t-59.5 -6 q-80 0 -125 24z" />
<glyph unicode="&#x41c;" horiz-adv-x="1334" d="M35 0l257 1219h201l183 -558l22 -139h8l81 143l411 554h217l-257 -1219h-225l134 632l77 240h-11l-115 -196l-342 -452h-72l-164 457l-31 191h-9l-17 -239l-134 -633h-214z" />
<glyph unicode="&#x41d;" horiz-adv-x="1085" d="M35 0l257 1219h226l-104 -497h423l105 497h226l-258 -1219h-226l108 510h-423l-108 -510h-226z" />
<glyph unicode="&#x41e;" horiz-adv-x="1120" d="M101 456q0 162 44.5 305.5t126.5 250.5t197.5 169t258.5 62q94 0 169.5 -28t129 -86t82.5 -147t29 -211q0 -164 -44 -308t-125.5 -253t-193.5 -172t-247 -63q-206 0 -315.5 121.5t-111.5 359.5zM339 463q0 -125 48 -200t158 -75q80 0 145.5 48t112 128.5t72 185 t25.5 218.5q0 137 -54 199.5t-148 62.5q-78 0 -143.5 -45t-113 -122.5t-75 -181t-27.5 -218.5z" />
<glyph unicode="&#x41f;" horiz-adv-x="1066" d="M35 0l257 1219h226h404h227l-257 -1219h-227l212 1006h-404l-212 -1006h-226z" />
<glyph unicode="&#x420;" horiz-adv-x="957" d="M35 0l256 1206q73 14 156 22t166 8q88 0 164 -20t132.5 -61.5t87.5 -107t31 -155.5q0 -136 -46.5 -227.5t-124 -148t-177 -80.5t-201.5 -24h-27t-38 1t-38.5 3t-27.5 4l-87 -420h-226zM394 625q6 -2 18.5 -3.5t27.5 -2.5t27.5 -1h19.5q60 0 114.5 13t96.5 41.5t67 76 t25 115.5q0 50 -16.5 83t-44.5 51.5t-65.5 25t-78.5 6.5q-32 0 -60.5 -2.5t-47.5 -5.5z" />
<glyph unicode="&#x421;" horiz-adv-x="934" d="M101 473q0 206 57.5 351.5t151.5 238.5t215 136.5t248 43.5q99 0 169.5 -15t110.5 -34l-88 -202q-35 20 -84 29t-124 9q-88 0 -165 -36.5t-132.5 -104t-88 -165.5t-32.5 -221q0 -148 74 -231.5t198 -83.5q78 0 129.5 16.5t96.5 41.5l4 -196q-117 -75 -286 -75 q-115 0 -200.5 38.5t-142 106.5t-84 158.5t-27.5 194.5z" />
<glyph unicode="&#x422;" horiz-adv-x="952" d="M167 1006l45 213h901l-45 -213h-337l-214 -1006h-225l213 1006h-338z" />
<glyph unicode="&#x423;" horiz-adv-x="950" d="M90 30l100 193q24 -14 45 -18t47 -4q37 0 71.5 37t68.5 96l-244 885h249l121 -538l2 -159h10l58 164l284 533h252l-488 -843q-57 -100 -102.5 -172.5t-89.5 -120.5t-94.5 -71.5t-118.5 -23.5q-106 0 -171 42z" />
<glyph unicode="&#x424;" horiz-adv-x="1339" d="M88 479q0 156 41.5 275.5t113.5 198.5t168.5 120t206.5 41q23 0 54 -2.5t50 -6.5l32 149h223l-32 -154q33 8 67 11t61 3q136 0 217.5 -89.5t81.5 -263.5q0 -140 -37.5 -256.5t-105.5 -201.5t-162.5 -132.5t-211.5 -47.5q-30 0 -61.5 3t-53.5 10l-37 -171h-223l37 171 q-35 -7 -61 -10t-69 -3q-60 0 -114 22t-94.5 66.5t-65.5 111.5t-25 156zM317 513q0 -53 13 -90.5t35 -61.5t51 -35t63 -11q13 0 39.5 1t47.5 8l125 593q-17 4 -39 4.5t-41 0.5q-63 0 -116 -27.5t-93 -80.5t-62.5 -129t-22.5 -172zM769 319q14 -4 34.5 -4h40.5q63 0 117 28.5 t94.5 82t64.5 130t24 172.5q0 194 -159 194q-19 0 -45 -1.5t-45 -6.5z" />
<glyph unicode="&#x425;" horiz-adv-x="1058" d="M-42 0l487 621l-196 598h246l104 -352l17 -124l65 124l259 352h271l-457 -589l218 -630h-243l-125 376l-21 129l-70 -129l-280 -376h-275z" />
<glyph unicode="&#x426;" horiz-adv-x="1139" d="M35 0l257 1219h226l-214 -1007h401l214 1007h225l-212 -1007h146l-93 -430h-158l20 218h-186h-400h-226z" />
<glyph unicode="&#x427;" horiz-adv-x="1014" d="M169 688q0 53 12 109l88 422h226l-81 -378q-5 -23 -6 -42t-1 -38q0 -68 32.5 -101.5t105.5 -33.5q63 0 117.5 14t93.5 44l113 535h226l-258 -1219h-226l105 491q-25 -12 -51 -24t-57.5 -22.5t-70.5 -16.5t-88 -6q-61 0 -112 15t-88.5 48t-58.5 84t-21 119z" />
<glyph unicode="&#x428;" horiz-adv-x="1435" d="M35 0l257 1219h226l-214 -1007h274l214 1007h225l-213 -1007h274l212 1007h226l-257 -1219h-225h-273h-226h-274h-226z" />
<glyph unicode="&#x429;" horiz-adv-x="1512" d="M35 0l257 1219h226l-214 -1007h274l214 1007h225l-213 -1007h274l212 1007h226l-214 -1007h153l-90 -430h-159l21 218h-193h-273h-226h-274h-226z" />
<glyph unicode="&#x42a;" horiz-adv-x="1099" d="M141 1006l43 213h263h227l-93 -437q23 3 67.5 8.5t82.5 5.5q166 0 264 -87.5t98 -241.5q0 -112 -36.5 -201.5t-108 -152.5t-180 -96.5t-251.5 -33.5q-23 0 -60 1t-85 4.5t-95 8.5t-84 15l211 994h-263zM460 206q17 -5 46 -8t62 -3q56 0 108 13t92 42t63.5 73t23.5 107 q0 45 -15.5 75t-43 47.5t-64 24t-78.5 6.5q-11 0 -28.5 -1.5t-35 -3.5t-32.5 -4.5t-22 -3.5z" />
<glyph unicode="&#x42b;" horiz-adv-x="1331" d="M35 12l256 1207h226l-92 -437q23 3 57.5 8.5t74.5 5.5q83 0 148.5 -23.5t110 -66.5t67 -101t22.5 -128q0 -115 -38 -206.5t-111 -156t-179.5 -98t-242.5 -33.5h-45.5t-27.5 2q-31 0 -68 3.5t-79.5 8.5t-78.5 15zM301 206q36 -10 94 -11q58 0 107.5 15.5t86 46t57 74 t20.5 101.5q0 151 -184 151q-23 0 -55.5 -4t-47.5 -9zM928 0l258 1219h226l-258 -1219h-226z" />
<glyph unicode="&#x42c;" horiz-adv-x="943" d="M35 12l256 1207h226l-92 -437q21 3 65.5 8.5t82.5 5.5q80 0 146 -22t114.5 -64t76 -102.5t27.5 -140.5q0 -131 -45.5 -223.5t-124 -149.5t-184.5 -84t-226 -27q-23 0 -59.5 1t-84 4.5t-95 8.5t-83.5 15zM301 206q19 -4 48.5 -7.5t62.5 -3.5q58 0 109.5 13t90.5 42 t62.5 72.5t23.5 105.5q0 87 -56 122t-147 33q-11 0 -28.5 -1.5t-34 -3.5t-31 -4.5t-22.5 -3.5z" />
<glyph unicode="&#x42d;" horiz-adv-x="960" d="M-21 33l104 208q33 -20 94.5 -36.5t144.5 -16.5q77 0 145 24.5t120 69t88 106t49 134.5h-458l40 192h437q5 66 -3.5 124.5t-37 101t-81.5 66.5t-137 24q-87 0 -148 -20t-106 -44l-7 202q66 31 143.5 53t166.5 22q121 0 207.5 -38.5t139.5 -102.5t77.5 -147t24.5 -173 q0 -173 -42 -320.5t-128 -255.5t-218 -169.5t-314 -61.5q-45 0 -89.5 5.5t-84.5 13.5t-73 18.5t-54 20.5z" />
<glyph unicode="&#x42e;" horiz-adv-x="1503" d="M35 0l257 1219h226l-104 -497h149q73 256 221.5 388.5t345.5 132.5q189 0 291 -115t102 -315q0 -170 -40.5 -322t-119.5 -266.5t-195.5 -182t-267.5 -67.5q-98 0 -168.5 34t-115.5 94.5t-66.5 140.5t-21.5 174q0 45 5 92h-164l-108 -510h-226zM757 434q0 -112 42 -179 t143 -67q78 0 142 51.5t108 136t68 195t24 228.5q0 110 -45 170.5t-139 60.5q-77 0 -139.5 -49t-107.5 -132t-70.5 -191t-25.5 -224z" />
<glyph unicode="&#x42f;" horiz-adv-x="969" d="M-52 0l320 409l115 76q-31 14 -65 38.5t-62 61t-45.5 87t-17.5 118.5q0 131 50.5 216t131.5 136.5t184.5 72.5t209.5 21q27 0 53 -2q2 0 25 -1t62.5 -4t76 -8t64.5 -15l-256 -1206h-224l102 482l-122 -32l-339 -450h-263zM432 806q0 -84 51.5 -126t134.5 -42h85l82 377 q-19 3 -40 5.5t-51 2.5q-46 0 -93.5 -9t-84.5 -34t-60.5 -67.5t-23.5 -106.5z" />
<glyph unicode="&#x430;" horiz-adv-x="875" d="M58 251q0 127 32 243.5t100 205.5t171.5 142t246.5 53q61 0 133 -11.5t140 -30.5l-108 -505q-14 -66 -20 -134t-6 -129q0 -25 1 -46.5t3 -40.5h-159l-24 150h-8q-19 -32 -49.5 -62t-67 -55.5t-77 -40.5t-84.5 -15q-115 0 -169.5 75t-54.5 201zM279 292q0 -56 18 -96.5 t67 -40.5q31 0 58.5 13t51.5 34t42.5 45t31.5 45l88 406q-20 8 -45 13t-50 5q-62 0 -110.5 -37.5t-82.5 -98t-51.5 -136t-17.5 -152.5z" />
<glyph unicode="&#x431;" horiz-adv-x="878" d="M73 315q0 183 40 341t109.5 276.5t165.5 190t209 80.5q143 12 233.5 22.5t126.5 40.5l-22 -201q-35 -25 -103 -37.5t-188 -21.5q-58 -5 -108.5 -18t-93.5 -48t-79.5 -95.5t-64.5 -161.5h8q125 169 314 168q68 0 115 -20t76.5 -55.5t42.5 -85t13 -109.5q0 -139 -37.5 -251 t-103 -190.5t-151.5 -121.5t-181 -43q-82 0 -142.5 25.5t-99.5 70t-59 107.5t-20 137zM294 320q0 -33 5 -63.5t18.5 -53t37.5 -35.5t61 -13q41 0 82.5 28t74.5 77.5t53 118t20 152.5q0 27 -6.5 52t-20 45t-36.5 32t-55 12q-47 0 -90 -27t-74.5 -74t-50.5 -111.5t-19 -139.5z " />
<glyph unicode="&#x432;" horiz-adv-x="809" d="M58 263q0 35 5 72t13 81l18 86q20 83 58 153.5t93.5 122t127.5 79t158 27.5q77 0 129 -12t84 -35.5t46 -56.5t14 -77q0 -42 -15.5 -79.5t-41.5 -68.5t-62.5 -55.5t-78.5 -36.5l-2 -7q72 -8 110 -42.5t38 -107.5q0 -76 -31.5 -135.5t-86 -100t-129.5 -62.5t-162 -22 q-63 0 -115 15.5t-90.5 48.5t-59 85.5t-20.5 127.5zM261 277q0 -116 116 -117q67 0 113 35t46 99q0 38 -31.5 63.5t-110.5 18.5l-120 -9l-6 -24q-7 -34 -7 -66zM298 502l130 13q22 2 48.5 11t50 23.5t40 36.5t16.5 52q0 34 -15.5 53.5t-71.5 19.5q-141 0 -184 -161z" />
<glyph unicode="&#x433;" horiz-adv-x="713" d="M23 214q0 82 33.5 135t84 87t109 55t109 40t84.5 41.5t34 60.5q0 40 -22.5 56.5t-72.5 16.5q-79 0 -129.5 -14.5t-86.5 -31.5l-27 162q28 15 65.5 26.5t79.5 20t84.5 13t78.5 4.5q70 0 118 -15.5t77.5 -42.5t42.5 -63.5t13 -78.5q0 -85 -34 -138t-84 -88t-109 -56 t-109 -41t-84 -46t-34 -68q0 -45 33 -69.5t83 -24.5q60 0 115 15.5t89 38.5l47 -139q-56 -42 -133.5 -68.5t-150.5 -26.5q-83 0 -140.5 20t-94 54t-53 77t-16.5 88z" />
<glyph unicode="&#x434;" horiz-adv-x="872" d="M65 324q0 110 32 208t91 174t141 120t181 44q47 0 75 -8.5t48 -22.5h10q-11 125 -99 186t-225 60l35 158q257 7 380.5 -126.5t123.5 -383.5q0 -192 -40 -333.5t-107.5 -235.5t-155 -141.5t-181.5 -47.5q-158 0 -233.5 95.5t-75.5 253.5zM286 320q0 -66 26.5 -115.5 t84.5 -49.5q65 0 110 48t73.5 121t43 160t14.5 165q-25 22 -52.5 32t-68.5 10q-45 0 -87 -25t-74 -73t-51 -117t-19 -156z" />
<glyph unicode="&#x435;" horiz-adv-x="810" d="M60 289q0 139 43 251.5t113.5 190.5t159.5 121t177 43q72 0 123.5 -18.5t84.5 -50.5t48.5 -73.5t15.5 -89.5q0 -71 -36.5 -125t-102 -90t-157.5 -54t-202 -18q-13 0 -25.5 0.5t-26.5 0.5q-3 -21 -5 -37t-2 -30q0 -78 41 -116.5t116 -38.5q77 0 137.5 23t91.5 45l46 -140 q-54 -45 -139.5 -76.5t-198.5 -31.5q-141 0 -221.5 83t-80.5 231zM306 513q48 0 103.5 3.5t102 17t78 38.5t31.5 69q0 26 -19 53t-80 27q-77 0 -133.5 -59.5t-82.5 -148.5z" />
<glyph unicode="&#x436;" horiz-adv-x="1317" d="M-43 23l57 173q31 -8 56 -8q64 0 112.5 59t76.5 200q7 35 8.5 63t1.5 53q0 88 -35.5 117t-95.5 18l-22 155q79 22 140 21q104 0 158 -61t54 -192q0 -24 -1.5 -49t-4.5 -55h131l75 353h206l-77 -353h122q25 101 60.5 170t79 111.5t92 60.5t97.5 18q53 0 114 -22l-46 -157 q-20 5 -37 5q-53 0 -100.5 -51t-76.5 -185q-16 -68 -16 -126q0 -45 8.5 -80t27 -57.5t45 -29.5t60.5 5l21 -156q-82 -28 -143 -28q-59 0 -100.5 23.5t-68 63.5t-38 94.5t-11.5 115.5q0 17 1.5 33t3.5 34h-128l-75 -359h-205l76 359h-126q-27 -100 -64.5 -170.5t-81.5 -114 t-94 -63t-101 -19.5q-35 0 -68 8t-68 23z" />
<glyph unicode="&#x437;" horiz-adv-x="708" d="M-35 50l80 164q35 -23 86.5 -39.5t115.5 -16.5q82 0 127.5 37.5t45.5 95.5q0 38 -33 54.5t-133 16.5h-80l33 155h101q28 0 57 9t50.5 24.5t35.5 36.5t14 45q0 41 -27 59t-93 18q-58 0 -98 -10.5t-83 -30.5l-36 159q28 15 64 26t77 18.5t83.5 11t82.5 3.5q140 0 199 -49.5 t57 -136.5q0 -42 -14 -79.5t-38 -67t-56.5 -52t-69.5 -34.5v-7q72 -17 99 -61.5t27 -99.5q0 -75 -31.5 -134t-87 -99.5t-131 -63t-165.5 -22.5q-83 0 -152 21.5t-107 48.5z" />
<glyph unicode="&#x438;" horiz-adv-x="890" d="M68 167q0 65 17 141l121 562h214l-114 -538q-10 -52 -10 -86q0 -35 14 -54t49 -19q29 0 59.5 14.5t58.5 38t51.5 52t39.5 56.5l111 536h214l-109 -522q-9 -34 -15.5 -81.5t-11.5 -97t-6.5 -94.5t0.5 -75h-173l-8 156h-7q-25 -33 -57.5 -64.5t-71.5 -58t-85 -42.5t-98 -16 q-82 0 -132.5 41.5t-50.5 150.5z" />
<glyph unicode="&#x439;" horiz-adv-x="890" d="M68 167q0 65 17 141l121 562h214l-114 -538q-10 -52 -10 -86q0 -35 14 -54t49 -19q29 0 59.5 14.5t58.5 38t51.5 52t39.5 56.5l111 536h214l-109 -522q-9 -34 -15.5 -81.5t-11.5 -97t-6.5 -94.5t0.5 -75h-173l-8 156h-7q-25 -33 -57.5 -64.5t-71.5 -58t-85 -42.5t-98 -16 q-82 0 -132.5 41.5t-50.5 150.5zM320 1181l191 45q-3 -68 18 -96t64 -28q45 0 79.5 28t58.5 94l151 -43q-42 -113 -130.5 -168.5t-195.5 -55.5q-50 0 -95 12.5t-77 39.5t-49.5 68.5t-14.5 103.5z" />
<glyph unicode="&#x43a;" horiz-adv-x="821" d="M26 0l185 870h214l-80 -370l62 22l242 348h235l-254 -330l-100 -67l79 -68l138 -405h-229l-126 360h-77l-74 -360h-215z" />
<glyph unicode="&#x43b;" horiz-adv-x="873" d="M-82 15l67 189q29 -8 50 -9q35 1 65.5 31t63 105.5t70 206t86.5 332.5h562l-184 -870h-214l148 691h-160q-44 -161 -84.5 -291.5t-89.5 -221.5t-109 -139.5t-141 -48.5q-94 0 -130 25z" />
<glyph unicode="&#x43c;" horiz-adv-x="1115" d="M26 0l185 870h212l117 -327l26 -109h5l72 113l244 323h238l-185 -870h-206l85 399l51 181h-8l-98 -150l-214 -270h-78l-112 270l-31 150h-10l-16 -180l-84 -400h-193z" />
<glyph unicode="&#x43d;" horiz-adv-x="901" d="M26 0l185 870h214l-71 -325h271l69 325h216l-184 -870h-216l73 339h-271l-71 -339h-215z" />
<glyph unicode="&#x43e;" horiz-adv-x="862" d="M60 282q0 138 39 251t104 193t151 124.5t181 44.5q83 0 140.5 -26.5t93 -69.5t51.5 -99t16 -115q0 -136 -38.5 -248.5t-103 -192t-149.5 -124.5t-179 -45q-82 0 -139.5 27.5t-95 70.5t-54.5 98t-17 111zM280 312q0 -156 114 -157q41 0 81 36.5t71.5 96t50 134t18.5 149.5 q0 70 -23.5 107.5t-88.5 37.5q-41 0 -81 -35t-71.5 -91.5t-51 -129.5t-19.5 -148z" />
<glyph unicode="&#x43f;" horiz-adv-x="906" d="M24 0l185 870h161l-8 -153h7q23 28 53.5 59.5t70.5 57.5t89.5 43.5t111.5 17.5q78 0 125.5 -43t47.5 -141q0 -27 -2.5 -56.5t-11.5 -64.5l-126 -590h-214l116 540q10 48 10 85q0 38 -15.5 59.5t-57.5 21.5q-32 0 -63 -15t-59 -41.5t-52.5 -59t-41.5 -65.5l-111 -525h-215 z" />
<glyph unicode="&#x440;" horiz-adv-x="880" d="M-45 -348l257 1218h159l-9 -153h7q25 34 56 65.5t69.5 56.5t82 40.5t93.5 15.5q88 0 142.5 -61t54.5 -191q0 -148 -39 -271t-104.5 -211t-153.5 -137t-183 -49q-45 0 -85.5 9t-59.5 23l-75 -355h-212zM279 184q43 -29 97 -29q53 0 102.5 36.5t87 97.5t59 142t21.5 170 q0 50 -23.5 82.5t-64.5 32.5q-31 0 -60.5 -16t-55.5 -39t-47 -53t-36 -58z" />
<glyph unicode="&#x441;" horiz-adv-x="716" d="M60 275q0 147 41.5 261.5t110 193.5t156.5 122t180 43q82 0 130 -15.5t86 -35.5l-80 -170q-33 20 -68.5 26t-77.5 6q-47 0 -91.5 -30t-80 -79.5t-56.5 -116t-21 -135.5q0 -88 38.5 -134.5t100.5 -46.5q52 0 97 16t79 38l40 -147q-56 -41 -130 -68.5t-147 -27.5 q-83 0 -141.5 25t-95 66.5t-53.5 95.5t-17 113z" />
<glyph unicode="&#x442;" horiz-adv-x="1334" d="M31 0l185 870h167l-11 -153h7q26 28 57 59.5t69 57.5t85.5 43.5t102.5 17.5q69 0 105 -50.5t32 -133.5q27 33 60.5 65.5t73 59t83.5 43t91 16.5q80 0 123 -37.5t43 -140.5q0 -74 -26 -195l-110 -522h-214l103 489q8 40 13.5 75t5.5 61q0 40 -15 60.5t-49 20.5 q-29 0 -57.5 -16t-54.5 -41.5t-48 -55t-33 -55.5l-113 -538h-213l99 473q10 49 16.5 86.5t6.5 66.5q0 80 -62 80q-29 0 -58.5 -15t-55 -40t-47 -53t-35.5 -55l-111 -543h-215z" />
<glyph unicode="&#x443;" horiz-adv-x="786" d="M-30 -331l58 171q10 -5 21.5 -7t21.5 -2q42 0 86 40.5t87 128.5l-164 870h246l50 -488l1 -136h11l47 137l237 487h228l-418 -782q-52 -97 -98.5 -179t-93 -141t-97 -92t-108.5 -33q-77 0 -115 26z" />
<glyph unicode="&#x444;" horiz-adv-x="1199" d="M50 259q0 155 40.5 272.5t106.5 197t151.5 119t175.5 39.5q45 0 79 -6l71 338h210l-71 -340q29 5 53 6.5t46 1.5q138 0 203.5 -75.5t65.5 -200.5q0 -161 -42.5 -281.5t-109 -199t-150 -117t-167.5 -38.5q-15 0 -43 2.5t-46 10.5l-71 -336h-211l71 338q-28 -9 -52 -12 t-45 -3q-134 0 -199.5 79t-65.5 205zM266 303q0 -73 32.5 -113t93.5 -40q17 0 32 2.5t34 7.5l117 545q-16 3 -30.5 6t-34.5 3q-40 0 -82.5 -30t-78 -84.5t-59.5 -130t-24 -166.5zM651 156q12 -3 27.5 -4.5t33.5 -1.5q44 0 89 28.5t81.5 83.5t59.5 136t23 183q0 65 -32.5 99 t-105.5 34q-17 0 -28.5 -2.5t-30.5 -8.5z" />
<glyph unicode="&#x445;" horiz-adv-x="862" d="M-71 0l360 445l-156 425h241l66 -186l23 -121l77 121l151 186h249l-339 -418l173 -452h-236l-83 209l-27 128l-78 -128l-172 -209h-249z" />
<glyph unicode="&#x446;" horiz-adv-x="932" d="M68 167q0 65 17 141l121 562h214l-114 -536q-10 -52 -10 -88q0 -35 14 -54t49 -19q29 0 59.5 14.5t58.5 38t51.5 52t39.5 56.5l111 536h214l-119 -558q-10 -50 -10 -81q0 -30 12.5 -41.5t43.5 -11.5h87l-106 -376h-165l53 198q-74 0 -106.5 41t-18.5 115h-7 q-20 -29 -50 -61t-69 -58.5t-87 -44t-100 -17.5q-82 0 -132.5 41.5t-50.5 150.5z" />
<glyph unicode="&#x447;" horiz-adv-x="844" d="M93 468q0 50 12 107l62 295h215l-43 -198q-8 -36 -12.5 -66t-4.5 -54q0 -49 20 -73t67 -24q50 0 88 15t61 35l81 365h214l-185 -870h-213l70 341q-29 -20 -83.5 -43t-138.5 -23q-45 0 -83.5 9.5t-67.5 32t-44 59t-15 92.5z" />
<glyph unicode="&#x448;" horiz-adv-x="1301" d="M68 153q0 75 26 195l110 522h214l-103 -488q-8 -42 -13.5 -75t-5.5 -60q0 -76 47 -76q29 0 59 15.5t55 40t45 52t33 53.5l111 538h216l-101 -473q-21 -98 -21 -148q0 -78 54 -78q23 0 49.5 15t52 37.5t48 50t36.5 53.5l111 543h215l-130 -607q-13 -67 -20.5 -133.5 t-11.5 -129.5h-176l-5 148h-8q-26 -32 -55.5 -62t-65 -53t-78 -36.5t-95.5 -13.5q-63 0 -102 43.5t-35 128.5q-52 -68 -124.5 -120t-169.5 -52q-79 0 -120.5 35.5t-41.5 134.5z" />
<glyph unicode="&#x449;" horiz-adv-x="1342" d="M68 153q0 75 26 195l110 522h214l-103 -488q-8 -42 -13.5 -75t-5.5 -60q0 -76 47 -76q29 0 59 15.5t55 40t45 52t33 53.5l111 538h216l-101 -473q-21 -98 -21 -148q0 -78 54 -78q23 0 49.5 15t52 37.5t48 50t36.5 53.5l111 543h215l-120 -558l-9 -45t-4 -36 q0 -30 13 -41.5t45 -11.5h88l-108 -376h-163l52 198q-75 0 -107.5 41t-17.5 115h-7q-52 -71 -127 -122t-180 -51q-63 0 -103 43.5t-36 128.5q-52 -68 -124 -120t-168 -52q-79 0 -120.5 35.5t-41.5 134.5z" />
<glyph unicode="&#x44a;" horiz-adv-x="890" d="M71 691l39 179h412l-88 -323q41 13 91 19.5t91 6.5q124 0 182.5 -50.5t58.5 -145.5q0 -81 -37.5 -152.5t-103 -124t-151.5 -82.5t-186 -30q-66 0 -111 13.5t-73 38.5t-40 58t-12 71q0 21 3.5 41.5t8.5 43.5l114 437h-198zM364 228q0 -61 78 -61q38 0 73 12t62 34t43 51.5 t16 64.5q0 42 -21.5 63.5t-79.5 21.5q-35 0 -71.5 -8.5t-61.5 -22.5l-31 -115q-4 -12 -5.5 -21.5t-1.5 -18.5z" />
<glyph unicode="&#x44b;" horiz-adv-x="1174" d="M63 150q0 24 5 54l146 666h214l-73 -320q35 8 83.5 15.5t85.5 7.5q129 0 182 -52.5t53 -135.5q0 -88 -37.5 -161.5t-100.5 -126t-146 -81t-176 -28.5q-123 0 -179.5 42.5t-56.5 119.5zM284 223q0 -56 68 -56q36 0 70 12t59.5 33t41 50t15.5 64q0 48 -23.5 68t-82.5 20 q-32 0 -58.5 -6t-51.5 -14l-33 -147q-2 -6 -3.5 -11.5t-1.5 -12.5zM785 0l185 870h214l-184 -870h-215z" />
<glyph unicode="&#x44c;" horiz-adv-x="807" d="M65 156v23.5t3 24.5l148 666h214l-75 -323q39 10 86.5 18t103.5 8q71 0 116 -16.5t70.5 -44t34 -61t8.5 -68.5q0 -83 -32.5 -155.5t-94 -126t-145.5 -83.5t-188 -30q-72 0 -120 13.5t-77 37.5t-40.5 54t-11.5 63zM286 235q-4 -68 83 -68q36 0 69.5 12t58.5 35t40.5 52.5 t15.5 65.5q0 45 -23 63.5t-83 18.5q-35 0 -67 -7.5t-56 -19.5l-33 -129q-2 -7 -3.5 -12t-1.5 -11z" />
<glyph unicode="&#x44d;" horiz-adv-x="753" d="M-40 45l82 161q34 -23 85 -37t104 -14q206 0 253 212h-311l28 148h307q2 14 3 28t1 25q0 76 -36.5 112t-98.5 36q-79 0 -127 -15t-88 -35l-49 142q70 41 149 64t163 23q148 0 224.5 -78.5t76.5 -219.5q0 -164 -41 -281.5t-109 -193t-156.5 -111.5t-186.5 -36 q-83 0 -158 20t-115 50z" />
<glyph unicode="&#x44e;" horiz-adv-x="1216" d="M26 0l185 870h214l-71 -334h125q50 170 160 264.5t256 94.5q83 0 139 -26.5t90 -69.5t48.5 -99t14.5 -115q0 -133 -36.5 -245t-99 -193t-146 -126.5t-177.5 -45.5q-84 0 -138.5 27.5t-88.5 70.5t-48 98t-14 111q0 20 0.5 37.5t2.5 37.5h-127l-74 -357h-215zM651 312 q0 -78 22.5 -117.5t80.5 -39.5q40 0 78 36.5t68 96t48 134t18 149.5q0 70 -20 107.5t-84 37.5q-42 0 -80.5 -35t-67 -91.5t-46 -129.5t-17.5 -148z" />
<glyph unicode="&#x44f;" horiz-adv-x="837" d="M-56 0l209 277l99 60q-57 16 -99 65.5t-42 128.5q0 80 34 147t93.5 115t139.5 75t174 27q43 0 87.5 -5.5t83.5 -14t71.5 -18.5t51.5 -16l-178 -841h-213l67 317l-110 -21l-211 -296h-257zM332 553q0 -56 33.5 -83.5t121.5 -27.5l61 3l55 246q-9 3 -32.5 9t-58.5 6 q-77 0 -128.5 -40t-51.5 -113z" />
<glyph unicode="&#x451;" horiz-adv-x="810" d="M60 289q0 139 43 251.5t113.5 190.5t159.5 121t177 43q72 0 123.5 -18.5t84.5 -50.5t48.5 -73.5t15.5 -89.5q0 -71 -36.5 -125t-102 -90t-157.5 -54t-202 -18q-13 0 -25.5 0.5t-26.5 0.5q-3 -21 -5 -37t-2 -30q0 -78 41 -116.5t116 -38.5q77 0 137.5 23t91.5 45l46 -140 q-54 -45 -139.5 -76.5t-198.5 -31.5q-141 0 -221.5 83t-80.5 231zM296 1100q0 58 32 90t83 32q50 0 82 -32t32 -90q0 -56 -32 -87t-82 -31q-51 0 -83 31t-32 87zM306 513q48 0 103.5 3.5t102 17t78 38.5t31.5 69q0 26 -19 53t-80 27q-77 0 -133.5 -59.5t-82.5 -148.5z M658 1102q0 56 32.5 88t82.5 32t82.5 -32t32.5 -88t-32.5 -88t-82.5 -32t-82.5 32t-32.5 88z" />
<glyph unicode="&#x452;" horiz-adv-x="889" d="M48 0l193 905h-123l30 140h121l37 174h214l-38 -174h270l-30 -140h-270l-52 -244h7q23 23 52.5 47.5t67 45t82.5 34t100 13.5q81 0 124 -42t43 -143q0 -69 -21 -169l-94 -447q-40 -184 -117.5 -273t-208.5 -89q-24 0 -49.5 2.5t-53.5 9.5l40 194q42 -4 71.5 4t49 27.5 t32.5 51t22 73.5l89 420q13 64 13 105q0 45 -17 70.5t-57 25.5q-30 0 -62.5 -14t-61 -36.5t-53 -51t-38.5 -59.5l-97 -460h-215z" />
<glyph unicode="&#x453;" horiz-adv-x="713" d="M23 214q0 82 33.5 135t84 87t109 55t109 40t84.5 41.5t34 60.5q0 40 -22.5 56.5t-72.5 16.5q-79 0 -129.5 -14.5t-86.5 -31.5l-27 162q28 15 65.5 26.5t79.5 20t84.5 13t78.5 4.5q70 0 118 -15.5t77.5 -42.5t42.5 -63.5t13 -78.5q0 -85 -34 -138t-84 -88t-109 -56 t-109 -41t-84 -46t-34 -68q0 -45 33 -69.5t83 -24.5q60 0 115 15.5t89 38.5l47 -139q-56 -42 -133.5 -68.5t-150.5 -26.5q-83 0 -140.5 20t-94 54t-53 77t-16.5 88zM383 985l145 269h217l-10 -53l-232 -216h-120z" />
<glyph unicode="&#x454;" horiz-adv-x="748" d="M60 298q0 147 44 259.5t116 187.5t163.5 112.5t186.5 37.5q90 0 138 -15.5t82 -35.5l-73 -158q-36 20 -71 25t-76 5q-74 0 -144.5 -50t-110.5 -144h328l-34 -150h-329v-35q0 -83 38.5 -132.5t131.5 -49.5q58 0 106 19t83 42l45 -136q-61 -50 -144.5 -77.5t-167.5 -27.5 q-71 0 -128.5 23t-98 65.5t-63 101.5t-22.5 133z" />
<glyph unicode="&#x455;" horiz-adv-x="689" d="M-2 33l68 171q35 -20 90 -34.5t115 -14.5q61 0 93.5 23.5t34.5 72.5q0 35 -21 60t-53.5 48t-69 46t-68.5 53.5t-53 72.5t-21 101q0 57 22.5 106t64 84t99.5 54t131 19q101 0 167 -15t104 -38l-58 -163q-35 15 -85 26t-103 11q-56 0 -88.5 -19.5t-32.5 -60.5q0 -28 21 -50 t53 -45t68.5 -46t69 -56.5t53.5 -76t21 -101.5q0 -145 -94 -215.5t-251 -70.5q-88 0 -162.5 16.5t-114.5 41.5z" />
<glyph unicode="&#x456;" horiz-adv-x="445" d="M47 0l184 870h214l-184 -870h-214zM263 1118q0 58 37.5 89t94.5 31q56 0 95.5 -31.5t39.5 -88.5q0 -56 -39.5 -88t-95.5 -32q-57 0 -94.5 32t-37.5 88z" />
<glyph unicode="&#x457;" horiz-adv-x="525" d="M66 0l185 870h214l-185 -870h-214zM178 1116q0 56 28.5 86t77.5 30q48 0 77 -30.5t29 -85.5q0 -56 -29 -85.5t-77 -29.5q-50 0 -78 29.5t-28 85.5zM428 1116q0 56 28 86t79 30q48 0 77 -30.5t29 -85.5q0 -56 -29 -85.5t-79 -29.5q-49 0 -77 29.5t-28 85.5z" />
<glyph unicode="&#x458;" horiz-adv-x="424" d="M-195 -347l42 185q43 -3 74.5 8t53.5 35.5t36.5 61.5t25.5 85l177 842h216l-193 -907q-33 -156 -111.5 -239t-212.5 -83q-53 0 -108 12zM244 1118q0 58 37.5 89t94.5 31q56 0 95.5 -31.5t39.5 -88.5q0 -56 -39.5 -88t-95.5 -32q-57 0 -94.5 32t-37.5 88z" />
<glyph unicode="&#x459;" horiz-adv-x="1259" d="M-82 15l67 187q46 -15 83 -1.5t74 84t79 209.5t99 376h559l-71 -323q38 10 86 18t104 8q71 0 116 -16.5t70.5 -44t34 -61t8.5 -68.5q0 -83 -33 -155.5t-93.5 -126t-145.5 -83.5t-189 -30q-72 0 -119.5 14.5t-76.5 38.5t-41 54t-12 63v23.5t3 22.5l108 487h-156 q-44 -161 -84.5 -291.5t-89.5 -221.5t-109 -139.5t-141 -48.5q-94 0 -130 25zM738 230q0 -63 84 -63q36 0 69 13t58.5 36t41 53t15.5 67q0 45 -23.5 61.5t-82.5 16.5q-35 0 -68 -7t-58 -19l-31 -129q-2 -8 -3.5 -15t-1.5 -14z" />
<glyph unicode="&#x45a;" horiz-adv-x="1284" d="M26 0l185 870h214l-73 -334h264l72 334h214l-72 -325q40 10 89 19t104 9q72 0 116.5 -16.5t69.5 -44t34 -61t9 -68.5q0 -83 -33 -155.5t-93.5 -126t-144.5 -83.5t-189 -30q-71 0 -118.5 13.5t-76.5 37.5t-42.5 53.5t-13.5 62.5q0 28 6 54l31 148h-263l-74 -357h-215z M762 230q0 -63 85 -63q37 0 70 13t58.5 35t40 52.5t14.5 66.5q0 45 -23.5 62.5t-82.5 17.5q-35 0 -67 -7t-56 -19l-33 -130q-2 -9 -4 -15t-2 -13z" />
<glyph unicode="&#x45b;" horiz-adv-x="878" d="M48 0l193 905h-123l30 140h121l37 174h214l-38 -174h270l-30 -140h-270l-50 -235h7q59 53 131.5 92t165.5 39q72 0 115.5 -42t43.5 -150q0 -34 -4 -73.5t-15 -88.5l-94 -447h-214l88 425q9 35 13.5 62.5t4.5 52.5q0 40 -15.5 60.5t-55.5 20.5q-35 0 -67.5 -14.5t-60 -38 t-50.5 -54t-38 -62.5l-94 -452h-215z" />
<glyph unicode="&#x45c;" horiz-adv-x="821" d="M26 0l185 870h214l-80 -370l62 22l242 348h235l-254 -330l-100 -67l79 -68l138 -405h-229l-126 360h-77l-74 -360h-215zM458 985l145 269h217l-10 -53l-232 -216h-120z" />
<glyph unicode="&#x45e;" horiz-adv-x="786" d="M-30 -331l58 171q10 -5 21.5 -7t21.5 -2q42 0 86 40.5t87 128.5l-164 870h246l50 -488l1 -136h11l47 137l237 487h228l-418 -782q-52 -97 -98.5 -179t-93 -141t-97 -92t-108.5 -33q-77 0 -115 26zM291 1181l191 45q-3 -68 18 -96t64 -28q45 0 79.5 28t58.5 94l151 -43 q-42 -113 -130.5 -168.5t-195.5 -55.5q-50 0 -95 12.5t-77 39.5t-49.5 68.5t-14.5 103.5z" />
<glyph unicode="&#x45f;" horiz-adv-x="890" d="M68 167q0 65 17 141l121 562h214l-114 -538q-10 -52 -10 -86q0 -35 14 -54t49 -19q29 0 59.5 14.5t58.5 38t51.5 52t39.5 56.5l111 536h214l-109 -522q-9 -34 -15.5 -81.5t-11.5 -97t-6.5 -94.5t0.5 -75h-173l-8 156h-7q-25 -33 -57.5 -64.5t-71.5 -58t-85 -42.5t-98 -16 q-82 0 -132.5 41.5t-50.5 150.5zM251 -348l78 287h158l-38 -287h-198z" />
<glyph unicode="&#x462;" horiz-adv-x="1089" d="M134 932l42 193h235l29 137h226l-28 -137h332l-44 -193h-331l-35 -161q20 3 67 8.5t85 5.5q80 0 146 -21t114 -61t75 -100t27 -140q0 -125 -42.5 -216t-119 -149t-182 -86.5t-232.5 -28.5q-25 0 -64 1t-84.5 4.5t-92 8.5t-83.5 15l195 920h-235zM440 206q17 -5 47.5 -8 t64.5 -3q52 0 103 12t91.5 39.5t65 71.5t24.5 109q0 90 -57 123t-147 33q-11 0 -28.5 -1.5t-34 -3.5t-31 -4.5t-21.5 -3.5z" />
<glyph unicode="&#x463;" horiz-adv-x="1228" d="M31 0l185 870h161l-8 -146h7q19 32 43.5 62.5t56.5 54.5t75.5 39t99.5 15q71 0 112 -39t41 -130q0 -30 -5 -63t-14 -73l-11 -43q40 10 87.5 18t103.5 8q71 0 116 -16.5t70 -44t34 -61t9 -68.5q0 -83 -33 -155.5t-93 -126t-144.5 -83.5t-189.5 -30q-85 0 -137 19t-79 50 t-33 70t2 77l76 336q15 68 15 106q0 61 -47 60q-24 0 -48.5 -16t-47.5 -42.5t-43 -58.5t-35 -64l-111 -525h-215zM711 258q-20 -91 78 -91q36 0 69.5 13t59.5 35t40.5 52.5t14.5 66.5q0 45 -23.5 62.5t-82.5 17.5q-35 0 -67 -7t-57 -19z" />
<glyph unicode="&#x472;" horiz-adv-x="1120" d="M101 456q0 162 42.5 305.5t123.5 250.5t195 169t259 62q92 0 169.5 -28t132.5 -86t85 -147t30 -211q0 -164 -43.5 -308t-122.5 -253t-189.5 -172t-246.5 -63q-205 0 -319 121.5t-116 359.5zM339 463q0 -125 51.5 -200t161.5 -75q56 0 104.5 24.5t88.5 69t70.5 103.5 t49.5 130h-524q-2 -13 -2 -25.5v-26.5zM372 709h526q0 13 1 28t1 31q0 137 -57.5 199.5t-151.5 62.5q-56 0 -105.5 -23.5t-89.5 -66.5t-71 -102.5t-53 -128.5z" />
<glyph unicode="&#x473;" horiz-adv-x="862" d="M60 282q0 138 39 251t104.5 193t152 124.5t180.5 44.5q84 0 141 -26.5t92 -69.5t51 -99t16 -115q0 -136 -38.5 -248.5t-104 -192t-150.5 -124.5t-179 -45q-82 0 -139.5 27.5t-94 70.5t-53.5 98t-17 111zM280 312q0 -156 114 -157q56 0 104.5 59.5t79.5 147.5h-296 q-2 -14 -2 -26v-24zM312 503h297q6 33 6 68q0 70 -23.5 107.5t-88.5 37.5q-28 0 -55.5 -16.5t-52 -45.5t-46.5 -67.5t-37 -83.5z" />
<glyph unicode="&#x474;" horiz-adv-x="1050" d="M176 1219h247l79 -716l-15 -205h8l75 207l196 399q48 101 92 165t88 100.5t93 50.5t109 14q61 0 103.5 -11.5t73.5 -28.5l-93 -199q-24 14 -46 20.5t-46 6.5q-40 0 -74 -32.5t-71 -102.5l-480 -895h-163z" />
<glyph unicode="&#x475;" horiz-adv-x="805" d="M70 870h234l58 -456v-134h7l53 138l65 123q49 95 91 161t83.5 106.5t86 59t98.5 18.5q40 0 74 -8t57 -21l-68 -181q-14 5 -26.5 9t-25.5 4q-30 0 -61.5 -25t-73.5 -91l-350 -581h-131z" />
<glyph unicode="&#x48a;" horiz-adv-x="1188" d="M35 0l257 1219h226l-136 -651l-53 -161h10l116 173l563 639h175l-216 -1013h193l-11 -55l-237 -377h-156l124 226h-181l138 663l51 156h-11l-111 -168l-567 -651h-174zM482 1487l188 35q-4 -49 23.5 -77t75.5 -28q113 0 148 103l199 -30q-36 -106 -129.5 -158.5 t-234.5 -52.5q-68 0 -118.5 16.5t-83.5 44.5t-49.5 65.5t-18.5 81.5z" />
<glyph unicode="&#x48b;" horiz-adv-x="975" d="M68 167q0 65 17 141l121 562h214l-114 -538q-10 -52 -10 -86q0 -35 14 -54t49 -19q29 0 59.5 14.5t58.5 38t51.5 52t39.5 56.5l111 536h214l-109 -522q-7 -29 -13.5 -65t-11.5 -77h201l-10 -55l-236 -377h-157l124 226h-103l-8 156h-7q-25 -33 -57.5 -64.5t-71.5 -58 t-85 -42.5t-98 -16q-82 0 -132.5 41.5t-50.5 150.5zM319 1181l191 45q-3 -68 17.5 -96t64.5 -28q45 0 79 28t58 94l153 -43q-43 -113 -132 -168.5t-195 -55.5q-50 0 -95.5 12.5t-77.5 39.5t-49.5 68.5t-13.5 103.5z" />
<glyph unicode="&#x48c;" horiz-adv-x="1089" d="M134 932l42 193h235l29 137h226l-28 -137h332l-44 -193h-331l-35 -161q20 3 67 8.5t85 5.5q80 0 146 -21t114 -61t75 -100t27 -140q0 -125 -42.5 -216t-119 -149t-182 -86.5t-232.5 -28.5q-25 0 -64 1t-84.5 4.5t-92 8.5t-83.5 15l195 920h-235zM440 206q17 -5 47.5 -8 t64.5 -3q52 0 103 12t91.5 39.5t65 71.5t24.5 109q0 90 -57 123t-147 33q-11 0 -28.5 -1.5t-34 -3.5t-31 -4.5t-21.5 -3.5z" />
<glyph unicode="&#x48d;" horiz-adv-x="807" d="M38 712l35 158h145l78 349h214l-80 -349h304l-34 -158h-306l-39 -165q39 10 86.5 18t103.5 8q71 0 116 -16.5t70.5 -44t34 -61t8.5 -68.5q0 -83 -32.5 -155.5t-94 -126t-145.5 -83.5t-188 -30q-84 0 -136.5 19t-79.5 50t-32.5 70t2.5 77l113 508h-143zM291 258 q-9 -44 9.5 -68t68.5 -24q36 0 69.5 12.5t58.5 35.5t40.5 53.5t15.5 66.5q0 45 -23 62.5t-83 17.5q-35 0 -67 -7t-56 -19z" />
<glyph unicode="&#x48e;" horiz-adv-x="957" d="M35 0l256 1206q73 14 156 22t166 8q88 0 164 -20t132.5 -61.5t87.5 -107t31 -155.5q0 -160 -64 -259.5t-165 -152.5l71 -148l-154 -74l-83 169q-38 -9 -76.5 -12t-77.5 -3h-27t-38 1t-38.5 3t-27.5 4l-87 -420h-226zM394 625q6 -2 18.5 -3.5t27.5 -2.5t27.5 -1h19.5 q25 0 48 1.5t48 6.5l-70 152l98 47l73 -162q49 30 77.5 78t28.5 123q0 50 -16.5 83t-44.5 51.5t-65.5 25t-78.5 6.5q-32 0 -60.5 -2.5t-47.5 -5.5z" />
<glyph unicode="&#x48f;" horiz-adv-x="880" d="M-45 -348l257 1218h159l-9 -153h7q25 34 56 65.5t69.5 56.5t82 40.5t93.5 15.5q88 0 142.5 -61t54.5 -191q0 -190 -62 -335.5t-161 -231.5l61 -107l-142 -105l-72 128q-52 -16 -104 -17q-45 0 -85.5 9t-59.5 23l-75 -355h-212zM279 184q43 -29 97 -29q28 0 58 11l-52 93 l85 60l50 -93q58 61 93.5 160t35.5 215q0 50 -23.5 82.5t-64.5 32.5q-31 0 -60.5 -16t-55.5 -39t-47 -53t-36 -58z" />
<glyph unicode="&#x490;" horiz-adv-x="758" d="M35 0l257 1219h493l91 264h144l-101 -477h-446l-212 -1006h-226z" />
<glyph unicode="&#x491;" horiz-adv-x="657" d="M26 0l185 870h355l90 265h145l-96 -452h-311l-145 -683h-223z" />
<glyph unicode="&#x492;" horiz-adv-x="850" d="M42 512l34 162h157l117 545h672l-45 -213h-446l-71 -332h372l-33 -162h-372l-108 -512h-226l108 512h-159z" />
<glyph unicode="&#x493;" horiz-adv-x="723" d="M12 337l30 140h124l83 393h525l-33 -179h-311l-47 -214h285l-29 -140h-287l-73 -337h-214l71 337h-124z" />
<glyph unicode="&#x494;" horiz-adv-x="974" d="M35 0l257 1219h673l-46 -213h-446l-74 -353q31 12 86 25t133 13q143 0 225.5 -83t82.5 -242q0 -105 -27 -210.5t-87.5 -188.5t-159.5 -135.5t-241 -52.5q-91 0 -113 7l43 204q23 -5 94 -5q63 0 110.5 26.5t79 72t47.5 105.5t16 126q0 89 -45.5 126.5t-130.5 37.5 q-40 0 -86.5 -9.5t-70.5 -22.5l-94 -447h-226z" />
<glyph unicode="&#x495;" horiz-adv-x="827" d="M31 0l185 870h525l-36 -179h-313l-53 -247q30 10 85.5 26.5t145.5 16.5q107 0 168 -60t61 -169q0 -164 -37.5 -280.5t-103.5 -191.5t-157.5 -110.5t-199.5 -35.5q-43 0 -66 2.5t-34 7.5l41 176q12 -4 34 -5.5t58 -1.5q42 0 85 21.5t78.5 66.5t58 112.5t22.5 161.5 q0 66 -35.5 96.5t-87.5 30.5q-50 0 -90.5 -10.5t-61.5 -22.5l-57 -275h-215z" />
<glyph unicode="&#x496;" horiz-adv-x="1428" d="M-80 0l411 535l106 68l-66 63l-170 553h243l142 -521h70l110 521h216l-115 -542l59 19l340 523h267l-380 -535l-93 -59l73 -73l121 -340h137l-92 -430h-159l21 218h-83l-171 530h-71l-112 -530h-216l117 550l-57 -20l-372 -530h-276z" />
<glyph unicode="&#x497;" horiz-adv-x="1339" d="M-43 23l57 173q31 -8 56 -8q64 0 112.5 59t76.5 200q7 35 8.5 63t1.5 53q0 88 -35.5 117t-95.5 18l-22 155q79 22 140 21q104 0 158 -61t54 -192q0 -24 -1.5 -49t-4.5 -55h131l75 353h206l-77 -353h122q25 101 60.5 170t79 111.5t92 60.5t97.5 18q53 0 114 -22l-46 -157 q-20 5 -37 5q-53 0 -100.5 -51t-76.5 -185q-16 -68 -16 -126q0 -45 8.5 -80t27 -57.5t45 -29.5t60.5 5l68 -50l-94 -327h-163l50 193q-54 3 -92.5 27.5t-62 65t-35 93t-11.5 111.5q0 17 1.5 33t3.5 34h-128l-75 -359h-205l76 359h-126q-27 -100 -64.5 -170.5t-81.5 -114 t-94 -63t-101 -19.5q-35 0 -68 8t-68 23z" />
<glyph unicode="&#x498;" horiz-adv-x="882" d="M-30 40l101 207q35 -19 101.5 -39t163.5 -20q41 0 86.5 10.5t82 34t60 61.5t23.5 94q0 85 -60 117.5t-171 32.5h-111l40 188h40q15 0 36 1t43 2.5t42.5 3t34.5 3.5q35 5 69.5 16.5t62 32.5t45 50.5t17.5 71.5q0 56 -43 88t-126 32q-73 0 -140.5 -21t-110.5 -40l-15 202 q21 10 56 22.5t80 23t96.5 18t104.5 7.5q73 0 134 -16.5t106.5 -49.5t70.5 -82.5t25 -113.5q0 -120 -65 -210.5t-195 -120.5v-8q34 -11 65.5 -29.5t54.5 -48t38 -71.5t15 -99q0 -96 -34 -168t-94 -123.5t-142 -80t-175 -38.5l-45 -284h-201l75 283q-82 7 -145 24t-96 37z " />
<glyph unicode="&#x499;" horiz-adv-x="708" d="M-35 50l80 166q35 -23 86.5 -39.5t115.5 -16.5q82 0 127.5 35t45.5 91q0 40 -33 56.5t-133 16.5h-80l33 158h101q28 0 57.5 9t52 23.5t37.5 35.5t15 45q0 42 -29.5 59t-95.5 17q-58 0 -98 -10t-83 -30l-36 161q28 15 64 26t77 18.5t83.5 11t82.5 3.5q140 0 198 -49.5 t58 -136.5q0 -42 -14 -79.5t-38 -67t-56.5 -52t-69.5 -34.5v-7q73 -17 99.5 -61.5t26.5 -99.5q0 -129 -86 -209t-224 -100l-45 -294h-202l74 289q-61 8 -111 25.5t-80 39.5z" />
<glyph unicode="&#x49a;" horiz-adv-x="1056" d="M35 0l257 1219h226l-114 -540l54 19l412 521h272l-439 -518l-104 -60l77 -68l165 -361h184l-90 -430h-161l22 218h-108l-236 520h-81l-110 -520h-226z" />
<glyph unicode="&#x49b;" horiz-adv-x="831" d="M26 0l185 870h214l-80 -370l62 22l242 348h235l-254 -330l-100 -67l79 -68l77 -226h153l-111 -377h-164l52 198h-98l-126 360h-77l-74 -360h-215z" />
<glyph unicode="&#x49c;" horiz-adv-x="1202" d="M35 0l257 1219h226l-114 -540l81 7l50 231h153l-45 -217l27 3l375 516h264l-394 -514l-102 -64l79 -68l206 -573h-241l-183 520h-70l-47 -221h-153l46 221h-79l-110 -520h-226z" />
<glyph unicode="&#x49d;" horiz-adv-x="939" d="M26 0l185 870h214l-80 -370l75 7l43 209h125l-41 -196l33 4l222 346h228l-213 -330l-117 -67l78 -68l98 -405h-227l-83 360h-53l-43 -205h-125l43 205h-73l-74 -360h-215z" />
<glyph unicode="&#x49e;" horiz-adv-x="1161" d="M136 938l37 181h217l21 100h225l-21 -100h154l-33 -162h-156l-58 -278l89 24l395 516h260l-420 -516l-125 -62l88 -68l244 -573h-247l-221 520h-98l-110 -520h-224l199 938h-216z" />
<glyph unicode="&#x49f;" horiz-adv-x="809" d="M31 0l200 950h-132l30 140h132l28 129h214l-28 -129h258l-30 -140h-258l-95 -450l64 22l246 348h238l-259 -350l-104 -65l78 -67l132 -388h-230l-125 360h-70l-74 -360h-215z" />
<glyph unicode="&#x4a0;" horiz-adv-x="1201" d="M148 1006l45 213h490l-115 -540l52 19l414 521h272l-439 -516l-105 -62l77 -68l264 -573h-252l-235 520h-81l-110 -520h-227l214 1006h-264z" />
<glyph unicode="&#x4a1;" horiz-adv-x="872" d="M42 691l38 179h395l-78 -370l50 24l269 346h244l-267 -330l-112 -67l80 -68l136 -405h-224l-126 360h-80l-76 -360h-215l148 691h-182z" />
<glyph unicode="&#x4a2;" horiz-adv-x="1158" d="M35 0l257 1219h226l-104 -497h423l105 497h226l-213 -1007h145l-92 -430h-159l21 218h-186l108 510h-423l-108 -510h-226z" />
<glyph unicode="&#x4a3;" horiz-adv-x="920" d="M31 0l185 870h214l-71 -325h271l70 325h215l-147 -691h132l-111 -377h-164l52 198h-162l73 339h-271l-71 -339h-215z" />
<glyph unicode="&#x4a4;" horiz-adv-x="1407" d="M35 0l257 1219h226l-104 -497h423l105 497h671l-45 -213h-445l-213 -1006h-226l108 510h-423l-108 -510h-226z" />
<glyph unicode="&#x4a5;" horiz-adv-x="1138" d="M31 0l185 870h214l-71 -325h271l70 325h527l-38 -179h-312l-146 -691h-216l73 339h-271l-71 -339h-215z" />
<glyph unicode="&#x4a6;" horiz-adv-x="1593" d="M35 0l257 1219h857l-121 -566q30 10 86 24t136 14q59 0 114.5 -17.5t98.5 -56.5t68 -100t25 -150q0 -115 -28.5 -221t-91 -187.5t-161.5 -130.5t-239 -49q-47 0 -71.5 1.5t-36.5 5.5l44 204q10 -4 36 -4.5t60 -0.5q63 0 110.5 26.5t77.5 72t46 104.5t16 126 q0 48 -13 80.5t-37 51.5t-57 26t-73 7q-40 1 -85 -10t-68 -22l-93 -447h-227l212 1006h-404l-212 -1006h-226z" />
<glyph unicode="&#x4a7;" horiz-adv-x="1309" d="M31 0l185 870h161l-8 -153h7q23 28 53.5 59.5t70.5 57.5t89.5 43.5t111.5 17.5q78 0 125.5 -43t47.5 -141q0 -27 -2.5 -56.5t-11.5 -64.5l-28 -140q30 11 76.5 24t109.5 13q125 0 194 -61.5t69 -186.5q0 -146 -35.5 -258t-98 -187.5t-149 -114t-187.5 -38.5 q-38 0 -68.5 6t-42.5 12l41 174q32 -12 93 -12q42 0 82.5 24t72 69.5t51.5 109.5t20 147q0 73 -27 105t-105 32q-36 0 -73.5 -11t-60.5 -22l-60 -275h-214l116 540q10 48 10 85q0 38 -15.5 59.5t-57.5 21.5q-32 0 -63 -15t-59 -41.5t-52.5 -59t-41.5 -65.5l-111 -525h-215z " />
<glyph unicode="&#x4a8;" horiz-adv-x="1460" d="M101 480q0 192 55 335.5t147 238.5t212.5 142t248.5 47l-45 -213q-73 0 -142 -37.5t-121 -105t-84.5 -164.5t-32.5 -215q0 -88 20 -150t55 -99.5t82 -54t103 -16.5q20 0 43.5 4t41.5 14q-15 13 -35.5 43t-38 72.5t-29 100t-11.5 125.5q0 161 45 280.5t119 198.5 t170 118.5t196 39.5q58 0 118 -16.5t110.5 -58t82.5 -111.5t32 -178q0 -99 -24.5 -194.5t-69.5 -178.5t-111.5 -149.5t-151.5 -107.5q9 -4 18.5 -3t20.5 1q50 0 98.5 14t83.5 39l30 -187q-43 -35 -103.5 -57t-148.5 -22q-67 0 -131 19.5t-107 65.5q-64 -42 -131 -63.5 t-158 -21.5q-139 0 -227.5 50t-139 124.5t-70.5 163.5t-20 167zM808 566q0 -30 3 -69t14.5 -81t34 -81t59.5 -69q59 33 111.5 86t91.5 119.5t60.5 143t21.5 159.5q0 96 -33 147t-109 51q-42 0 -87 -26.5t-82.5 -76.5t-61 -126.5t-23.5 -176.5z" />
<glyph unicode="&#x4a9;" horiz-adv-x="1162" d="M60 331q0 108 34.5 208t99.5 176.5t158 125.5t208 54l-40 -192q-47 -3 -90 -31t-76.5 -75t-53.5 -109.5t-20 -135.5q0 -52 13 -89t34 -60.5t49 -35t59 -11.5q27 0 55 7.5t43 15.5q-30 30 -55.5 90t-25.5 143q0 75 30 155.5t84.5 144.5t131 106t171.5 42q134 0 200 -67 t66 -198q0 -73 -23.5 -140t-61 -123.5t-86.5 -100t-97 -71.5q17 -17 43.5 -22t55 -2.5t54.5 9t43 15.5l-13 -139q-23 -19 -71.5 -32.5t-96.5 -13.5q-73 0 -125 20t-96 68q-12 -12 -37 -27t-59.5 -28t-79.5 -23t-97 -10q-154 0 -241 93.5t-87 262.5zM658 407 q0 -50 15.5 -100.5t50.5 -80.5q32 17 66 53t60.5 81t45 97.5t18.5 106.5q0 67 -18.5 91t-59.5 24q-37 0 -69.5 -20.5t-56.5 -57.5t-38 -86.5t-14 -107.5z" />
<glyph unicode="&#x4aa;" horiz-adv-x="934" d="M101 473q0 206 57.5 351.5t151.5 238.5t215 136.5t248 43.5q99 0 169.5 -15t110.5 -34l-88 -202q-35 20 -84 29t-124 9q-88 0 -165 -36.5t-132.5 -104t-88 -165.5t-32.5 -221q0 -148 74 -230.5t198 -82.5q78 0 129.5 16.5t96.5 40.5l4 -197q-96 -63 -233 -73l-44 -281 h-202l77 292q-85 17 -149 61.5t-105.5 109t-62.5 144.5t-21 170z" />
<glyph unicode="&#x4ab;" horiz-adv-x="716" d="M60 275q0 147 41.5 261.5t110 193.5t156.5 122t180 43q82 0 130 -15.5t86 -35.5l-80 -170q-33 20 -68.5 26t-77.5 6q-47 0 -91.5 -30t-80 -79.5t-56.5 -116t-21 -135.5q0 -88 38.5 -134.5t100.5 -46.5q52 0 97 16t79 38l40 -147q-45 -33 -100 -56t-112 -35l-44 -284h-202 l77 292q-54 14 -92 42t-63.5 66t-36.5 84t-11 95z" />
<glyph unicode="&#x4ac;" horiz-adv-x="952" d="M167 1006l45 213h901l-45 -213h-337l-168 -794h146l-93 -430h-158l21 218h-187l213 1006h-338z" />
<glyph unicode="&#x4ad;" horiz-adv-x="1385" d="M31 0l185 870h167l-11 -153h7q26 28 57 59.5t69 57.5t85.5 43.5t102.5 17.5q69 0 105 -50.5t32 -133.5q27 33 60.5 65.5t73 59t83.5 43t91 16.5q80 0 123 -37.5t43 -140.5q0 -74 -26 -195l-74 -343h161l-111 -377h-164l52 198h-188l103 489q8 40 13.5 75t5.5 61 q0 40 -15 60.5t-49 20.5q-29 0 -57.5 -16t-54.5 -41.5t-48 -55t-33 -55.5l-113 -538h-213l99 473q10 49 16.5 86.5t6.5 66.5q0 80 -62 80q-29 0 -58.5 -15t-55 -40t-47 -53t-35.5 -55l-111 -543h-215z" />
<glyph unicode="&#x4ae;" horiz-adv-x="990" d="M184 1219h251l113 -458l-3 -129h7l54 132l304 455h260l-542 -764l-95 -455h-225l94 452z" />
<glyph unicode="&#x4af;" horiz-adv-x="779" d="M70 870h240l45 -516l-7 -163h9l59 166l247 513h242l-485 -872l-75 -346h-214l73 346z" />
<glyph unicode="&#x4b0;" horiz-adv-x="990" d="M125 354l35 158h225l-201 707h251l113 -458l-3 -129h7l54 132l304 455h260l-502 -707h232l-35 -158h-257l-75 -354h-225l74 354h-257z" />
<glyph unicode="&#x4b1;" horiz-adv-x="805" d="M5 -139l30 139h195l-134 870h240l46 -516l-8 -163h9l59 166l247 513h243l-487 -870h194l-30 -139h-193l-45 -209h-215l45 209h-196z" />
<glyph unicode="&#x4b2;" horiz-adv-x="1110" d="M-42 0l487 621l-196 598h246l104 -352l17 -124l65 124l259 352h271l-457 -589l144 -418h169l-92 -430h-158l20 218h-108l-125 376l-21 129l-70 -129l-280 -376h-275z" />
<glyph unicode="&#x4b3;" horiz-adv-x="862" d="M-71 0l360 445l-156 425h241l66 -186l23 -121l77 121l151 186h249l-339 -418l105 -273h135l-112 -377h-163l52 198h-80l-83 209l-27 128l-78 -128l-172 -209h-249z" />
<glyph unicode="&#x4b4;" horiz-adv-x="1397" d="M167 1006l45 213h798l-45 -213h-236l-169 -794h400l215 1007h225l-213 -1007h147l-93 -430h-158l20 218h-812l212 1006h-336z" />
<glyph unicode="&#x4b5;" horiz-adv-x="932" d="M68 167q0 65 17 141l121 562h214l-114 -536q-10 -52 -10 -88q0 -35 14 -54t49 -19q29 0 59.5 14.5t58.5 38t51.5 52t39.5 56.5l111 536h214l-119 -558q-10 -50 -10 -81q0 -30 12.5 -41.5t43.5 -11.5h87l-106 -376h-165l53 198q-74 0 -106.5 41t-18.5 115h-7 q-20 -29 -50 -61t-69 -58.5t-87 -44t-100 -17.5q-82 0 -132.5 41.5t-50.5 150.5zM295 985l33 161h535l-33 -161h-535z" />
<glyph unicode="&#x4b6;" horiz-adv-x="1085" d="M169 688q0 53 12 109l88 422h226l-81 -378q-5 -23 -6 -42t-1 -38q0 -68 32.5 -101.5t105.5 -33.5q63 0 117.5 14t93.5 44l113 535h226l-213 -1007h145l-92 -430h-159l21 218h-186l105 491q-25 -12 -51 -24t-57.5 -22.5t-70.5 -16.5t-88 -6q-61 0 -112 15t-88.5 48 t-58.5 84t-21 119z" />
<glyph unicode="&#x4b7;" horiz-adv-x="862" d="M93 468q0 50 12 107l62 295h215l-43 -198q-8 -36 -12.5 -66t-4.5 -54q0 -49 20 -73t67 -24q50 0 88 15t61 35l81 365h214l-148 -691h142l-111 -377h-163l52 198h-170l70 341q-29 -20 -83.5 -43t-138.5 -23q-45 0 -83.5 9.5t-67.5 32t-44 59t-15 92.5z" />
<glyph unicode="&#x4b8;" horiz-adv-x="1076" d="M171 689q0 54 12 113l86 417h226l-81 -378q-10 -47 -10 -84q0 -56 25.5 -88.5t85.5 -42.5l43 204h156l-42 -194q44 8 83 20t64 28l114 535h225l-258 -1219h-224l102 491q-25 -13 -62 -28.5t-88 -25.5l-47 -225h-153l44 210q-140 1 -220.5 66t-80.5 201z" />
<glyph unicode="&#x4b9;" horiz-adv-x="899" d="M93 470q0 50 12 105l62 295h215l-45 -205q-6 -33 -9.5 -59t-3.5 -49q0 -45 15.5 -70t54.5 -32l46 217h126l-46 -207q32 8 56.5 19.5t39.5 22.5l77 363h216l-185 -870h-216l73 341q-29 -20 -96 -40l-41 -198h-125l36 174q-10 -2 -21.5 -2h-23.5q-99 0 -158 44.5t-59 150.5 z" />
<glyph unicode="&#x4ba;" horiz-adv-x="1014" d="M35 0l257 1219h226l-104 -491q48 26 110 47.5t157 21.5q56 0 106 -14.5t89 -47t61.5 -82.5t22.5 -123q0 -54 -11 -110l-89 -420h-224l81 382q4 21 6.5 39t2.5 35q0 136 -141 136q-65 0 -117 -17t-94 -42l-113 -533h-226z" />
<glyph unicode="&#x4bb;" horiz-adv-x="918" d="M31 0l258 1219h214l-109 -502h6q23 28 55 59.5t71.5 57.5t85.5 43.5t100 17.5q84 0 129.5 -42t45.5 -148q0 -65 -20 -164l-115 -541h-214l105 495q17 76 17 126q0 45 -17.5 65t-54.5 20q-33 0 -69.5 -20.5t-69.5 -51.5t-60 -67t-41 -65l-102 -502h-215z" />
<glyph unicode="&#x4bc;" horiz-adv-x="1324" d="M101 728q0 56 19 103.5t46 75.5h193q-28 -21 -45.5 -49.5t-17.5 -60.5q0 -15 3.5 -31.5t16.5 -29t38 -20t68 -5.5q31 132 86 232t129.5 166.5t167 100t195.5 33.5q90 0 156 -28.5t110.5 -79t66 -121t21.5 -154.5q0 -78 -18 -165t-57 -182h-659q-2 -13 -3 -29t-1 -29 q0 -54 12.5 -102.5t41 -85t74.5 -58t114 -21.5q74 0 144.5 23.5t130.5 63.5l15 -202q-77 -48 -154 -73t-180 -25q-106 0 -185 34t-132 97t-79 150t-26 194v31t2 32h-58q-124 0 -179.5 61.5t-55.5 153.5zM651 711h465q10 34 16 70t6 70q0 38 -8.5 73.5t-28.5 63t-51.5 43 t-76.5 15.5q-111 0 -196.5 -84.5t-125.5 -250.5z" />
<glyph unicode="&#x4bd;" horiz-adv-x="1000" d="M8 564q0 63 34 110.5t74 68.5h183q-38 -21 -70.5 -55t-33.5 -79q0 -13 3.5 -28t13 -27.5t28 -20.5t47.5 -8q30 87 79.5 156.5t110.5 116t130 72t136 25.5q71 0 122.5 -18.5t84.5 -50.5t49 -73.5t16 -89.5q0 -71 -36.5 -125t-102 -90t-158 -54t-201.5 -18q-14 0 -26 0.5 t-26 0.5q-3 -21 -5 -37t-2 -30q0 -78 41 -116.5t116 -38.5q76 0 137 23t92 45l46 -140q-54 -45 -139.5 -76.5t-198.5 -31.5q-141 0 -222 83t-81 231q0 21 1 42t2 41h-15q-61 0 -104 16t-70.5 42t-41 60.5t-13.5 73.5zM496 513q49 0 103.5 3.5t102 17t78.5 38.5t31 69 q0 26 -19 53t-80 27q-76 0 -132.5 -59.5t-83.5 -148.5z" />
<glyph unicode="&#x4be;" horiz-adv-x="1324" d="M101 728q0 56 19 103.5t46 75.5h193q-28 -21 -45.5 -49.5t-17.5 -60.5q0 -15 3.5 -31.5t16.5 -29t38 -20t68 -5.5q31 132 86 232t129.5 166.5t167 100t195.5 33.5q90 0 156 -28.5t110.5 -79t66 -121t21.5 -154.5q0 -78 -18 -165t-57 -182h-659q-2 -13 -3 -29t-1 -29 q0 -54 12.5 -102.5t41 -85t74.5 -57t114 -20.5q74 0 144.5 23.5t130.5 63.5l15 -204q-67 -42 -133 -65t-148 -31l-43 -281h-203l77 292q-155 35 -230.5 156.5t-75.5 305.5v31t2 32h-58q-124 0 -179.5 61.5t-55.5 153.5zM651 711h465q10 34 16 70t6 70q0 38 -8.5 73.5 t-28.5 63t-51.5 43t-76.5 15.5q-111 0 -196.5 -84.5t-125.5 -250.5z" />
<glyph unicode="&#x4bf;" horiz-adv-x="1000" d="M8 564q0 63 34 110.5t74 68.5h183q-38 -21 -70.5 -55t-33.5 -79q0 -13 3.5 -28t13 -27.5t28 -20.5t47.5 -8q30 87 79.5 156.5t110.5 116t130 72t136 25.5q71 0 122.5 -18.5t84.5 -50.5t49 -73.5t16 -89.5q0 -71 -36.5 -125t-102 -90t-158 -54t-201.5 -18q-14 0 -26 0.5 t-26 0.5q-3 -21 -5 -37t-2 -30q0 -78 41 -116.5t116 -38.5q76 0 137 23t92 45l46 -140q-43 -36 -107 -63.5t-147 -39.5l-44 -284h-202l75 290q-103 23 -159.5 100.5t-56.5 202.5q0 21 1 42t2 41h-15q-61 0 -104 16t-70.5 42t-41 60.5t-13.5 73.5zM496 513q49 0 103.5 3.5 t102 17t78.5 38.5t31 69q0 26 -19 53t-80 27q-76 0 -132.5 -59.5t-83.5 -148.5z" />
<glyph unicode="&#x4c0;" horiz-adv-x="483" d="M61 0l258 1219h224l-257 -1219h-225z" />
<glyph unicode="&#x4c3;" horiz-adv-x="1028" d="M35 0l257 1219h226l-114 -540l56 21l412 519h270l-421 -491l-115 -67h83q27 -3 65 -17t72 -49t58.5 -93t24.5 -150v-49q0 -135 -36.5 -253t-104.5 -207.5t-166.5 -142t-222.5 -52.5h-25.5t-26.5 2l42 195q83 0 142.5 42t97 109t55 150.5t17.5 167.5q0 68 -17.5 108.5 t-50.5 62.5t-79.5 28.5t-105.5 6.5h-57l-110 -520h-226z" />
<glyph unicode="&#x4c4;" horiz-adv-x="835" d="M31 0l185 870h214l-82 -377l61 24l270 353h236l-274 -342l-98 -56l66 -4q72 -23 102 -94t30 -160q0 -68 -15 -136l-7 -30q-45 -212 -142.5 -310t-237.5 -98q-56 0 -106 12l42 177q9 -2 15 -2h14q156 -3 203 220q8 38 10.5 71t2.5 61q0 160 -141 173h-59l-74 -352h-215z " />
<glyph unicode="&#x4c5;" horiz-adv-x="1098" d="M-83 12l68 206q8 -4 17.5 -5.5t18.5 -1.5q30 -2 60 14t57 50q31 39 66 112t72.5 187.5t78 273t85.5 371.5h226h231h226l-216 -1013h171l-11 -55l-237 -377h-156l123 226h-156l212 1006h-244q-39 -165 -75 -300.5t-71.5 -243.5t-75.5 -192t-88 -147q-31 -41 -64.5 -67 t-67.5 -41t-65.5 -21t-59.5 -6q-80 0 -125 24z" />
<glyph unicode="&#x4c6;" horiz-adv-x="925" d="M-82 15l67 189q29 -8 50 -9q35 1 65.5 31t63 105.5t70 206t86.5 332.5h562l-142 -664h170l-10 -55l-237 -377h-156l123 226h-146l148 691h-160q-44 -161 -84.5 -291.5t-89.5 -221.5t-109 -139.5t-141 -48.5q-94 0 -130 25z" />
<glyph unicode="&#x4c7;" horiz-adv-x="1085" d="M35 0l257 1219h226l-104 -497h423l105 497h226l-258 -1219q-40 -188 -114 -274t-210 -86q-48 0 -106 10l40 195q44 -3 72 4.5t45 27.5t28 50.5t19 72.5l108 510h-423l-108 -510h-226z" />
<glyph unicode="&#x4c8;" horiz-adv-x="906" d="M31 0l185 870h214l-71 -325h271l70 325h215l-193 -907q-34 -158 -110 -241.5t-207 -83.5q-24 0 -49 2.5t-53 9.5l40 194q41 -4 70 4.5t49 28.5t32.5 51.5t20.5 73.5l73 337h-271l-71 -339h-215z" />
<glyph unicode="&#x4c9;" horiz-adv-x="1141" d="M35 0l257 1219h226l-104 -497h423l105 497h226l-216 -1013h167l-10 -55l-237 -377h-156l123 226h-155l108 510h-423l-108 -510h-226z" />
<glyph unicode="&#x4ca;" d="M26 0l185 870h214l-71 -325h271l69 325h216l-142 -664h165l-11 -55l-236 -377h-156l123 226h-143l73 339h-271l-71 -339h-215z" />
<glyph unicode="&#x4cb;" horiz-adv-x="1014" d="M169 688q0 53 12 109l88 422h226l-81 -378q-5 -23 -6 -42t-1 -38q0 -68 32.5 -101.5t105.5 -33.5q63 0 117.5 14t93.5 44l113 535h226l-258 -1219h-184l-72 -218h-158l89 430h144l60 279q-25 -12 -51 -24t-57.5 -22.5t-70.5 -16.5t-88 -6q-61 0 -112 15t-88.5 48 t-58.5 84t-21 119z" />
<glyph unicode="&#x4cc;" horiz-adv-x="840" d="M93 489q0 23 2.5 49t9.5 55l59 277h213l-38 -179q-7 -33 -10 -59t-3 -49q0 -45 19 -68.5t67 -23.5q49 0 87.5 13.5t64.5 31.5l72 334h213l-184 -870h-209l-51 -198h-181l96 369h165l43 189q-30 -19 -85 -38t-142 -19q-100 0 -154 43.5t-54 142.5z" />
<glyph unicode="&#x4cd;" horiz-adv-x="1390" d="M35 0l257 1219h201l183 -558l22 -139h8l81 143l411 554h217l-216 -1013h171l-11 -55l-236 -377h-157l124 226h-157l134 632l77 240h-11l-115 -196l-342 -452h-72l-164 457l-31 191h-9l-17 -239l-134 -633h-214z" />
<glyph unicode="&#x4ce;" horiz-adv-x="1171" d="M26 0l185 870h212l117 -327l26 -109h5l72 113l244 323h238l-143 -664h174l-10 -55l-237 -377h-157l124 226h-142l85 399l51 181h-8l-98 -150l-214 -270h-78l-112 270l-31 150h-10l-16 -180l-84 -400h-193z" />
<glyph unicode="&#x4cf;" horiz-adv-x="424" d="M31 0l258 1219h214l-257 -1219h-215z" />
<glyph unicode="&#x4d0;" horiz-adv-x="1012" d="M-66 0l677 1227h167l159 -1227h-228l-35 269h-355l-145 -269h-240zM418 462h247l-27 271l1 191h-9l-70 -193zM428 1487l189 35q-4 -49 23 -77t75 -28q113 0 148 103l199 -30q-36 -106 -129.5 -158.5t-234.5 -52.5q-68 0 -118.5 16.5t-83.5 44.5t-49.5 65.5t-18.5 81.5z " />
<glyph unicode="&#x4d1;" horiz-adv-x="875" d="M58 251q0 127 32 243.5t100 205.5t171.5 142t246.5 53q61 0 133 -11.5t140 -30.5l-108 -505q-14 -66 -20 -134t-6 -129q0 -25 1 -46.5t3 -40.5h-159l-24 150h-8q-19 -32 -49.5 -62t-67 -55.5t-77 -40.5t-84.5 -15q-115 0 -169.5 75t-54.5 201zM279 292q0 -56 18 -96.5 t67 -40.5q31 0 58.5 13t51.5 34t42.5 45t31.5 45l88 406q-20 8 -45 13t-50 5q-62 0 -110.5 -37.5t-82.5 -98t-51.5 -136t-17.5 -152.5zM355 1181l191 45q-3 -68 18 -96t64 -28q45 0 79.5 28t58.5 94l151 -43q-42 -113 -130.5 -168.5t-195.5 -55.5q-50 0 -95 12.5t-77 39.5 t-49.5 68.5t-14.5 103.5z" />
<glyph unicode="&#x4d2;" horiz-adv-x="1012" d="M-66 0l677 1227h167l159 -1227h-228l-35 269h-355l-145 -269h-240zM418 462h247l-27 271l1 191h-9l-70 -193zM421 1389q0 50 35 75.5t90 25.5q56 0 91 -25t35 -76q0 -50 -35 -74.5t-91 -24.5t-90.5 24.5t-34.5 74.5zM776 1389q0 50 35 75.5t90 25.5q56 0 91 -25t35 -76 q0 -50 -35 -74.5t-91 -24.5t-90.5 24.5t-34.5 74.5z" />
<glyph unicode="&#x4d3;" horiz-adv-x="875" d="M58 251q0 127 32 243.5t100 205.5t171.5 142t246.5 53q61 0 133 -11.5t140 -30.5l-108 -505q-14 -66 -20 -134t-6 -129q0 -25 1 -46.5t3 -40.5h-159l-24 150h-8q-19 -32 -49.5 -62t-67 -55.5t-77 -40.5t-84.5 -15q-115 0 -169.5 75t-54.5 201zM279 292q0 -56 18 -96.5 t67 -40.5q31 0 58.5 13t51.5 34t42.5 45t31.5 45l88 406q-20 8 -45 13t-50 5q-62 0 -110.5 -37.5t-82.5 -98t-51.5 -136t-17.5 -152.5zM317 1100q0 58 32 90t83 32q50 0 82 -32t32 -90q0 -56 -32 -87t-82 -31q-51 0 -83 31t-32 87zM679 1102q0 56 32.5 88t82.5 32t82.5 -32 t32.5 -88t-32.5 -88t-82.5 -32t-82.5 32t-32.5 88z" />
<glyph unicode="&#x4d4;" horiz-adv-x="1437" d="M-115 0l952 1219h231h472l-45 -213h-459l-61 -284h419l-45 -212h-417l-63 -298h468l-45 -212h-455h-240l63 296h-298l-223 -296h-254zM503 489h198l91 433h-10l-77 -163z" />
<glyph unicode="&#x4d5;" horiz-adv-x="1294" d="M30 206q0 85 38 145.5t104.5 99t153 56.5t186.5 18h28t30 -1q19 66 18 102q0 42 -26 62.5t-89 20.5q-57 0 -121.5 -14t-120.5 -37l-30 162q71 35 164 51t180 16q80 0 135.5 -25t78.5 -78q50 53 125.5 82t155.5 29q73 0 124.5 -16.5t83 -46.5t46.5 -69t15 -86 q0 -97 -46 -156t-124.5 -93t-181 -46.5t-214.5 -12.5q-2 -14 -2.5 -27t-0.5 -25q0 -78 40 -120t132 -42q66 0 124.5 18t93.5 39l40 -149q-60 -42 -149 -65t-179 -23q-114 0 -185 42.5t-100 116.5h-9q-56 -63 -128.5 -105.5t-172.5 -42.5q-57 0 -98 18.5t-67 48.5t-39 70.5 t-13 82.5zM251 258q0 -47 24 -68t64 -21q32 0 60.5 13t53 31t43.5 38t32 36l15 101q-13 2 -28 2h-30q-99 0 -166.5 -32t-67.5 -100zM778 508q56 0 113.5 2.5t104.5 16t76.5 40t29.5 74.5q0 30 -21 55t-78 25q-93 0 -146 -62t-79 -151z" />
<glyph unicode="&#x4d6;" horiz-adv-x="875" d="M35 0l257 1219h226h460l-45 -213h-460l-61 -284h420l-47 -212h-416l-65 -298h469l-44 -212h-468h-226zM374 1487l189 35q-4 -49 23 -77t75 -28q113 0 148 103l199 -30q-36 -106 -129.5 -158.5t-234.5 -52.5q-68 0 -118.5 16.5t-83.5 44.5t-49.5 65.5t-18.5 81.5z" />
<glyph unicode="&#x4d7;" horiz-adv-x="810" d="M60 289q0 139 43 251.5t113.5 190.5t159.5 121t177 43q72 0 123.5 -18.5t84.5 -50.5t48.5 -73.5t15.5 -89.5q0 -71 -36.5 -125t-102 -90t-157.5 -54t-202 -18q-13 0 -25.5 0.5t-26.5 0.5q-3 -21 -5 -37t-2 -30q0 -78 41 -116.5t116 -38.5q77 0 137.5 23t91.5 45l46 -140 q-54 -45 -139.5 -76.5t-198.5 -31.5q-141 0 -221.5 83t-80.5 231zM306 513q48 0 103.5 3.5t102 17t78 38.5t31.5 69q0 26 -19 53t-80 27q-77 0 -133.5 -59.5t-82.5 -148.5zM325 1181l191 45q-3 -68 18 -96t64 -28q45 0 79.5 28t58.5 94l151 -43q-42 -113 -130.5 -168.5 t-195.5 -55.5q-50 0 -95 12.5t-77 39.5t-49.5 68.5t-14.5 103.5z" />
<glyph unicode="&#x4d8;" horiz-adv-x="1042" d="M88 387q0 149 63 325h669q2 10 2 20.5v21.5q0 59 -11.5 109.5t-38.5 88t-72.5 58t-113.5 20.5q-41 0 -81 -7.5t-75.5 -20t-65.5 -25t-50 -25.5l-6 204q59 33 144.5 60t188.5 27q94 0 170 -28.5t132.5 -87.5t86.5 -147t30 -207q0 -155 -37.5 -298.5t-111.5 -254t-186 -178 t-262 -67.5q-94 0 -163.5 31t-116.5 84.5t-71 129.5t-24 167zM310 385q0 -88 40 -150t132 -62q63 0 113.5 25t89.5 70.5t67 108t42 138.5h-470q-9 -33 -11.5 -66t-2.5 -64z" />
<glyph unicode="&#x4d9;" horiz-adv-x="852" d="M40 221q0 138 104.5 215t337.5 77q59 0 127 -5q4 20 5.5 35t1.5 30q0 76 -49.5 109.5t-121.5 33.5q-71 0 -129 -16.5t-93 -34.5l-47 152q59 36 142.5 57t183.5 21q81 0 142 -24.5t101 -66.5t59.5 -97.5t19.5 -118.5q0 -146 -37.5 -260t-104.5 -192t-158.5 -119.5 t-199.5 -41.5q-68 0 -121 20t-89 53.5t-55 78t-19 94.5zM251 254q0 -38 23.5 -68.5t85.5 -30.5q84 0 138 60t78 154q-28 3 -54.5 5.5t-53.5 2.5q-92 0 -154.5 -29t-62.5 -94z" />
<glyph unicode="&#x4da;" horiz-adv-x="1042" d="M88 387q0 149 63 325h669q2 10 2 20.5v21.5q0 59 -11.5 109.5t-38.5 88t-72.5 58t-113.5 20.5q-41 0 -81 -7.5t-75.5 -20t-65.5 -25t-50 -25.5l-6 204q59 33 144.5 60t188.5 27q94 0 170 -28.5t132.5 -87.5t86.5 -147t30 -207q0 -155 -37.5 -298.5t-111.5 -254t-186 -178 t-262 -67.5q-94 0 -163.5 31t-116.5 84.5t-71 129.5t-24 167zM310 385q0 -88 40 -150t132 -62q63 0 113.5 25t89.5 70.5t67 108t42 138.5h-470q-9 -33 -11.5 -66t-2.5 -64zM423 1389q0 50 35 75.5t90 25.5q56 0 91 -25t35 -76q0 -50 -35 -74.5t-91 -24.5t-90.5 24.5 t-34.5 74.5zM778 1389q0 50 35 75.5t90 25.5q56 0 91 -25t35 -76q0 -50 -35 -74.5t-91 -24.5t-90.5 24.5t-34.5 74.5z" />
<glyph unicode="&#x4db;" horiz-adv-x="852" d="M40 221q0 138 104.5 215t337.5 77q59 0 127 -5q4 20 5.5 35t1.5 30q0 76 -49.5 109.5t-121.5 33.5q-71 0 -129 -16.5t-93 -34.5l-47 152q59 36 142.5 57t183.5 21q81 0 142 -24.5t101 -66.5t59.5 -97.5t19.5 -118.5q0 -146 -37.5 -260t-104.5 -192t-158.5 -119.5 t-199.5 -41.5q-68 0 -121 20t-89 53.5t-55 78t-19 94.5zM221 1100q0 58 32 90t83 32q50 0 82 -32t32 -90q0 -56 -32 -87t-82 -31q-51 0 -83 31t-32 87zM251 254q0 -38 23.5 -68.5t85.5 -30.5q84 0 138 60t78 154q-28 3 -54.5 5.5t-53.5 2.5q-92 0 -154.5 -29t-62.5 -94z M583 1102q0 56 32.5 88t82.5 32t82.5 -32t32.5 -88t-32.5 -88t-82.5 -32t-82.5 32t-32.5 88z" />
<glyph unicode="&#x4dc;" horiz-adv-x="1397" d="M-80 0l411 535l106 68l-66 63l-170 553h243l142 -521h70l110 521h216l-115 -542l59 19l340 523h267l-380 -535l-93 -59l73 -73l196 -552h-251l-171 530h-71l-112 -530h-216l117 550l-57 -20l-372 -530h-276zM613 1389q0 50 35 75.5t90 25.5q56 0 91 -25t35 -76 q0 -50 -35 -74.5t-91 -24.5t-90.5 24.5t-34.5 74.5zM968 1389q0 50 35 75.5t90 25.5q56 0 91 -25t35 -76q0 -50 -35 -74.5t-91 -24.5t-90.5 24.5t-34.5 74.5z" />
<glyph unicode="&#x4dd;" horiz-adv-x="1317" d="M-43 23l57 173q31 -8 56 -8q64 0 112.5 59t76.5 200q7 35 8.5 63t1.5 53q0 88 -35.5 117t-95.5 18l-22 155q79 22 140 21q104 0 158 -61t54 -192q0 -24 -1.5 -49t-4.5 -55h131l75 353h206l-77 -353h122q25 101 60.5 170t79 111.5t92 60.5t97.5 18q53 0 114 -22l-46 -157 q-20 5 -37 5q-53 0 -100.5 -51t-76.5 -185q-16 -68 -16 -126q0 -45 8.5 -80t27 -57.5t45 -29.5t60.5 5l21 -156q-82 -28 -143 -28q-59 0 -100.5 23.5t-68 63.5t-38 94.5t-11.5 115.5q0 17 1.5 33t3.5 34h-128l-75 -359h-205l76 359h-126q-27 -100 -64.5 -170.5t-81.5 -114 t-94 -63t-101 -19.5q-35 0 -68 8t-68 23zM526 1100q0 58 32 90t83 32q50 0 82 -32t32 -90q0 -56 -32 -87t-82 -31q-51 0 -83 31t-32 87zM888 1102q0 56 32.5 88t82.5 32t82.5 -32t32.5 -88t-32.5 -88t-82.5 -32t-82.5 32t-32.5 88z" />
<glyph unicode="&#x4de;" horiz-adv-x="882" d="M-30 40l101 207q35 -19 101.5 -39t163.5 -20q41 0 86.5 10.5t82 34t60 61.5t23.5 94q0 84 -60 115.5t-171 34.5h-66h-45l40 188h40q15 0 36 1t43 2.5t42.5 3t34.5 3.5q35 5 69.5 16.5t62 32.5t45 50.5t17.5 71.5q0 56 -43 88t-126 32q-73 0 -140.5 -21t-110.5 -40 l-15 202q21 10 56 22.5t80 23t96.5 18t104.5 7.5q73 0 134 -16.5t106.5 -49.5t70.5 -82.5t25 -113.5q0 -120 -65 -210.5t-195 -120.5v-8q34 -11 65.5 -29.5t54.5 -48t38 -71.5t15 -99q0 -106 -42 -183.5t-114 -129t-169.5 -77t-207.5 -25.5t-196 19.5t-128 45.5zM320 1389 q0 50 35 75.5t90 25.5q56 0 91 -25t35 -76q0 -50 -35 -74.5t-91 -24.5t-90.5 24.5t-34.5 74.5zM675 1389q0 50 35 75.5t90 25.5q56 0 91 -25t35 -76q0 -50 -35 -74.5t-91 -24.5t-90.5 24.5t-34.5 74.5z" />
<glyph unicode="&#x4df;" horiz-adv-x="708" d="M-35 50l80 164q35 -23 86.5 -39.5t115.5 -16.5q82 0 127.5 37.5t45.5 95.5q0 38 -33 54.5t-133 16.5h-80l33 155h101q28 0 57 9t50.5 24.5t35.5 36.5t14 45q0 41 -27 59t-93 18q-58 0 -98 -10.5t-83 -30.5l-36 159q28 15 64 26t77 18.5t83.5 11t82.5 3.5q140 0 199 -49.5 t57 -136.5q0 -42 -14 -79.5t-38 -67t-56.5 -52t-69.5 -34.5v-7q72 -17 99 -61.5t27 -99.5q0 -75 -31.5 -134t-87 -99.5t-131 -63t-165.5 -22.5q-83 0 -152 21.5t-107 48.5zM174 1100q0 58 32 90t83 32q50 0 82 -32t32 -90q0 -56 -32 -87t-82 -31q-51 0 -83 31t-32 87z M536 1102q0 56 32.5 88t82.5 32t82.5 -32t32.5 -88t-32.5 -88t-82.5 -32t-82.5 32t-32.5 88z" />
<glyph unicode="&#x4e0;" horiz-adv-x="918" d="M5 43l100 209q41 -26 111 -45t134 -19q72 0 125 18t87.5 49t52 69t17.5 78q0 85 -53.5 120t-191.5 35h-145l22 101l314 302l92 76l-102 -23h-335l44 206h712l-29 -131l-342 -329l-88 -54v-9l79 20q52 -2 100 -22t84 -55.5t56.5 -86t20.5 -113.5q0 -108 -38 -193.5 t-108.5 -145.5t-171 -92.5t-221.5 -32.5q-37 0 -83 5t-91.5 12.5t-85.5 20.5t-66 30z" />
<glyph unicode="&#x4e1;" horiz-adv-x="756" d="M-134 -287l96 154q40 -26 92 -41.5t104 -15.5q58 0 112 17.5t94 51t64 78.5t24 103q0 83 -55.5 119.5t-198.5 36.5h-87l20 82l259 318l113 90l-124 -15h-281l38 179h656l-26 -121l-301 -326l-77 -51v-3l52 5q44 0 86 -16.5t74.5 -48.5t53 -80t20.5 -109 q0 -117 -44 -207.5t-117.5 -153t-169.5 -95.5t-200 -33q-83 0 -156.5 21t-120.5 61z" />
<glyph unicode="&#x4e2;" horiz-adv-x="1110" d="M35 0l257 1219h226l-136 -651l-53 -161h10l116 173l563 639h175l-258 -1219h-226l138 663l51 156h-11l-111 -168l-567 -651h-174zM481 1335l31 155h570l-34 -155h-567z" />
<glyph unicode="&#x4e3;" horiz-adv-x="890" d="M68 167q0 65 17 141l121 562h214l-114 -538q-10 -52 -10 -86q0 -35 14 -54t49 -19q29 0 59.5 14.5t58.5 38t51.5 52t39.5 56.5l111 536h214l-109 -522q-9 -34 -15.5 -81.5t-11.5 -97t-6.5 -94.5t0.5 -75h-173l-8 156h-7q-25 -33 -57.5 -64.5t-71.5 -58t-85 -42.5t-98 -16 q-82 0 -132.5 41.5t-50.5 150.5zM293 985l33 161h535l-33 -161h-535z" />
<glyph unicode="&#x4e4;" horiz-adv-x="1110" d="M35 0l257 1219h226l-136 -651l-53 -161h10l116 173l563 639h175l-258 -1219h-226l138 663l51 156h-11l-111 -168l-567 -651h-174zM472 1389q0 50 35 75.5t90 25.5q56 0 91 -25t35 -76q0 -50 -35 -74.5t-91 -24.5t-90.5 24.5t-34.5 74.5zM827 1389q0 50 35 75.5t90 25.5 q56 0 91 -25t35 -76q0 -50 -35 -74.5t-91 -24.5t-90.5 24.5t-34.5 74.5z" />
<glyph unicode="&#x4e5;" horiz-adv-x="890" d="M68 167q0 65 17 141l121 562h214l-114 -538q-10 -52 -10 -86q0 -35 14 -54t49 -19q29 0 59.5 14.5t58.5 38t51.5 52t39.5 56.5l111 536h214l-109 -522q-9 -34 -15.5 -81.5t-11.5 -97t-6.5 -94.5t0.5 -75h-173l-8 156h-7q-25 -33 -57.5 -64.5t-71.5 -58t-85 -42.5t-98 -16 q-82 0 -132.5 41.5t-50.5 150.5zM307 1100q0 58 32 90t83 32q50 0 82 -32t32 -90q0 -56 -32 -87t-82 -31q-51 0 -83 31t-32 87zM669 1102q0 56 32.5 88t82.5 32t82.5 -32t32.5 -88t-32.5 -88t-82.5 -32t-82.5 32t-32.5 88z" />
<glyph unicode="&#x4e6;" horiz-adv-x="1120" d="M101 456q0 162 44.5 305.5t126.5 250.5t197.5 169t258.5 62q94 0 169.5 -28t129 -86t82.5 -147t29 -211q0 -164 -44 -308t-125.5 -253t-193.5 -172t-247 -63q-206 0 -315.5 121.5t-111.5 359.5zM339 463q0 -125 48 -200t158 -75q80 0 145.5 48t112 128.5t72 185 t25.5 218.5q0 137 -54 199.5t-148 62.5q-78 0 -143.5 -45t-113 -122.5t-75 -181t-27.5 -218.5zM472 1389q0 50 35 75.5t90 25.5q56 0 91 -25t35 -76q0 -50 -35 -74.5t-91 -24.5t-90.5 24.5t-34.5 74.5zM827 1389q0 50 35 75.5t90 25.5q56 0 91 -25t35 -76q0 -50 -35 -74.5 t-91 -24.5t-90.5 24.5t-34.5 74.5z" />
<glyph unicode="&#x4e7;" horiz-adv-x="862" d="M60 282q0 138 39 251t104 193t151 124.5t181 44.5q83 0 140.5 -26.5t93 -69.5t51.5 -99t16 -115q0 -136 -38.5 -248.5t-103 -192t-149.5 -124.5t-179 -45q-82 0 -139.5 27.5t-95 70.5t-54.5 98t-17 111zM280 312q0 -156 114 -157q41 0 81 36.5t71.5 96t50 134t18.5 149.5 q0 70 -23.5 107.5t-88.5 37.5q-41 0 -81 -35t-71.5 -91.5t-51 -129.5t-19.5 -148zM284 1100q0 58 32 90t83 32q50 0 82 -32t32 -90q0 -56 -32 -87t-82 -31q-51 0 -83 31t-32 87zM646 1102q0 56 32.5 88t82.5 32t82.5 -32t32.5 -88t-32.5 -88t-82.5 -32t-82.5 32t-32.5 88z " />
<glyph unicode="&#x4e8;" horiz-adv-x="1120" d="M101 456q0 162 42.5 305.5t123.5 250.5t195 169t259 62q92 0 169.5 -28t132.5 -86t85 -147t30 -211q0 -164 -43.5 -308t-122.5 -253t-189.5 -172t-246.5 -63q-205 0 -319 121.5t-116 359.5zM339 463q0 -125 51.5 -200t161.5 -75q56 0 104.5 24.5t88.5 69t70.5 103.5 t49.5 130h-524q-2 -13 -2 -25.5v-26.5zM372 709h526q0 13 1 28t1 31q0 137 -57.5 199.5t-151.5 62.5q-56 0 -105.5 -23.5t-89.5 -66.5t-71 -102.5t-53 -128.5z" />
<glyph unicode="&#x4e9;" horiz-adv-x="862" d="M60 282q0 138 39 251t104.5 193t152 124.5t180.5 44.5q84 0 141 -26.5t92 -69.5t51 -99t16 -115q0 -136 -38.5 -248.5t-104 -192t-150.5 -124.5t-179 -45q-82 0 -139.5 27.5t-94 70.5t-53.5 98t-17 111zM280 312q0 -156 114 -157q56 0 104.5 59.5t79.5 147.5h-296 q-2 -14 -2 -26v-24zM312 503h297q6 33 6 68q0 70 -23.5 107.5t-88.5 37.5q-28 0 -55.5 -16.5t-52 -45.5t-46.5 -67.5t-37 -83.5z" />
<glyph unicode="&#x4ea;" horiz-adv-x="1120" d="M101 456q0 162 42.5 305.5t123.5 250.5t195 169t259 62q92 0 169.5 -28t132.5 -86t85 -147t30 -211q0 -164 -43.5 -308t-122.5 -253t-189.5 -172t-246.5 -63q-205 0 -319 121.5t-116 359.5zM339 463q0 -125 51.5 -200t161.5 -75q56 0 104.5 24.5t88.5 69t70.5 103.5 t49.5 130h-524q-2 -13 -2 -25.5v-26.5zM372 709h526q0 13 1 28t1 31q0 137 -57.5 199.5t-151.5 62.5q-56 0 -105.5 -23.5t-89.5 -66.5t-71 -102.5t-53 -128.5zM478 1389q0 50 35 75.5t90 25.5q56 0 91 -25t35 -76q0 -50 -35 -74.5t-91 -24.5t-90.5 24.5t-34.5 74.5z M833 1389q0 50 35 75.5t90 25.5q56 0 91 -25t35 -76q0 -50 -35 -74.5t-91 -24.5t-90.5 24.5t-34.5 74.5z" />
<glyph unicode="&#x4eb;" horiz-adv-x="862" d="M60 282q0 138 39 251t104.5 193t152 124.5t180.5 44.5q84 0 141 -26.5t92 -69.5t51 -99t16 -115q0 -136 -38.5 -248.5t-104 -192t-150.5 -124.5t-179 -45q-82 0 -139.5 27.5t-94 70.5t-53.5 98t-17 111zM280 312q0 -156 114 -157q56 0 104.5 59.5t79.5 147.5h-296 q-2 -14 -2 -26v-24zM284 1100q0 58 32 90t83 32q50 0 82 -32t32 -90q0 -56 -32 -87t-82 -31q-51 0 -83 31t-32 87zM312 503h297q6 33 6 68q0 70 -23.5 107.5t-88.5 37.5q-28 0 -55.5 -16.5t-52 -45.5t-46.5 -67.5t-37 -83.5zM646 1102q0 56 32.5 88t82.5 32t82.5 -32 t32.5 -88t-32.5 -88t-82.5 -32t-82.5 32t-32.5 88z" />
<glyph unicode="&#x4ec;" horiz-adv-x="960" d="M-21 33l104 208q33 -20 94.5 -36.5t144.5 -16.5q77 0 145 24.5t120 69t88 106t49 134.5h-458l40 192h437q5 66 -3.5 124.5t-37 101t-81.5 66.5t-137 24q-87 0 -148 -20t-106 -44l-7 202q66 31 143.5 53t166.5 22q121 0 207.5 -38.5t139.5 -102.5t77.5 -147t24.5 -173 q0 -173 -42 -320.5t-128 -255.5t-218 -169.5t-314 -61.5q-45 0 -89.5 5.5t-84.5 13.5t-73 18.5t-54 20.5zM306 1389q0 50 35 75.5t90 25.5q56 0 91 -25t35 -76q0 -50 -35 -74.5t-91 -24.5t-90.5 24.5t-34.5 74.5zM661 1389q0 50 35 75.5t90 25.5q56 0 91 -25t35 -76 q0 -50 -35 -74.5t-91 -24.5t-90.5 24.5t-34.5 74.5z" />
<glyph unicode="&#x4ed;" horiz-adv-x="753" d="M-40 45l82 161q34 -23 85 -37t104 -14q206 0 253 212h-311l28 148h307q2 14 3 28t1 25q0 76 -36.5 112t-98.5 36q-79 0 -127 -15t-88 -35l-49 142q70 41 149 64t163 23q148 0 224.5 -78.5t76.5 -219.5q0 -164 -41 -281.5t-109 -193t-156.5 -111.5t-186.5 -36 q-83 0 -158 20t-115 50zM151 1100q0 58 32 90t83 32q50 0 82 -32t32 -90q0 -56 -32 -87t-82 -31q-51 0 -83 31t-32 87zM513 1102q0 56 32.5 88t82.5 32t82.5 -32t32.5 -88t-32.5 -88t-82.5 -32t-82.5 32t-32.5 88z" />
<glyph unicode="&#x4ee;" horiz-adv-x="950" d="M90 30l100 193q24 -14 45 -18t47 -4q37 0 71.5 37t68.5 96l-244 885h249l121 -538l2 -159h10l58 164l284 533h252l-488 -843q-57 -100 -102.5 -172.5t-89.5 -120.5t-94.5 -71.5t-118.5 -23.5q-106 0 -171 42zM390 1335l31 155h570l-34 -155h-567z" />
<glyph unicode="&#x4ef;" horiz-adv-x="786" d="M-30 -331l58 171q10 -5 21.5 -7t21.5 -2q42 0 86 40.5t87 128.5l-164 870h246l50 -488l1 -136h11l47 137l237 487h228l-418 -782q-52 -97 -98.5 -179t-93 -141t-97 -92t-108.5 -33q-77 0 -115 26zM221 985l33 161h535l-33 -161h-535z" />
<glyph unicode="&#x4f0;" horiz-adv-x="950" d="M90 30l100 193q24 -14 45 -18t47 -4q37 0 71.5 37t68.5 96l-244 885h249l121 -538l2 -159h10l58 164l284 533h252l-488 -843q-57 -100 -102.5 -172.5t-89.5 -120.5t-94.5 -71.5t-118.5 -23.5q-106 0 -171 42zM412 1389q0 50 35 75.5t90 25.5q56 0 91 -25t35 -76 q0 -50 -35 -74.5t-91 -24.5t-90.5 24.5t-34.5 74.5zM767 1389q0 50 35 75.5t90 25.5q56 0 91 -25t35 -76q0 -50 -35 -74.5t-91 -24.5t-90.5 24.5t-34.5 74.5z" />
<glyph unicode="&#x4f1;" horiz-adv-x="786" d="M-30 -331l58 171q10 -5 21.5 -7t21.5 -2q42 0 86 40.5t87 128.5l-164 870h246l50 -488l1 -136h11l47 137l237 487h228l-418 -782q-52 -97 -98.5 -179t-93 -141t-97 -92t-108.5 -33q-77 0 -115 26zM236 1100q0 58 32 90t83 32q50 0 82 -32t32 -90q0 -56 -32 -87t-82 -31 q-51 0 -83 31t-32 87zM598 1102q0 56 32.5 88t82.5 32t82.5 -32t32.5 -88t-32.5 -88t-82.5 -32t-82.5 32t-32.5 88z" />
<glyph unicode="&#x4f2;" horiz-adv-x="950" d="M90 30l100 193q24 -14 45 -18t47 -4q37 0 71.5 37t68.5 96l-244 885h249l121 -538l2 -159h10l58 164l284 533h252l-488 -843q-57 -100 -102.5 -172.5t-89.5 -120.5t-94.5 -71.5t-118.5 -23.5q-106 0 -171 42zM435 1290l137 190h220l-6 -28l-200 -162h-151zM697 1290 l203 190h229l-5 -28l-270 -162h-157z" />
<glyph unicode="&#x4f3;" horiz-adv-x="786" d="M-30 -331l58 171q10 -5 21.5 -7t21.5 -2q42 0 86 40.5t87 128.5l-164 870h246l50 -488l1 -136h11l47 137l237 487h228l-418 -782q-52 -97 -98.5 -179t-93 -141t-97 -92t-108.5 -33q-77 0 -115 26zM316 994l103 225h196l-5 -28l-166 -197h-128zM545 994l169 225h209 l-5 -28l-237 -197h-136z" />
<glyph unicode="&#x4f4;" horiz-adv-x="1014" d="M169 688q0 53 12 109l88 422h226l-81 -378q-5 -23 -6 -42t-1 -38q0 -68 32.5 -101.5t105.5 -33.5q63 0 117.5 14t93.5 44l113 535h226l-258 -1219h-226l105 491q-25 -12 -51 -24t-57.5 -22.5t-70.5 -16.5t-88 -6q-61 0 -112 15t-88.5 48t-58.5 84t-21 119zM423 1389 q0 50 35 75.5t90 25.5q56 0 91 -25t35 -76q0 -50 -35 -74.5t-91 -24.5t-90.5 24.5t-34.5 74.5zM778 1389q0 50 35 75.5t90 25.5q56 0 91 -25t35 -76q0 -50 -35 -74.5t-91 -24.5t-90.5 24.5t-34.5 74.5z" />
<glyph unicode="&#x4f5;" horiz-adv-x="844" d="M93 468q0 50 12 107l62 295h215l-43 -198q-8 -36 -12.5 -66t-4.5 -54q0 -49 20 -73t67 -24q50 0 88 15t61 35l81 365h214l-185 -870h-213l70 341q-29 -20 -83.5 -43t-138.5 -23q-45 0 -83.5 9.5t-67.5 32t-44 59t-15 92.5zM261 1100q0 58 32 90t83 32q50 0 82 -32t32 -90 q0 -56 -32 -87t-82 -31q-51 0 -83 31t-32 87zM623 1102q0 56 32.5 88t82.5 32t82.5 -32t32.5 -88t-32.5 -88t-82.5 -32t-82.5 32t-32.5 88z" />
<glyph unicode="&#x4f6;" horiz-adv-x="758" d="M35 0l257 1219h673l-46 -213h-446l-167 -794h144l-91 -430h-158l20 218h-186z" />
<glyph unicode="&#x4f7;" horiz-adv-x="723" d="M23 214q0 82 33.5 136t84 87t110 54.5t110 41t83.5 42t33 61.5q0 40 -22.5 56.5t-72.5 16.5q-79 0 -129.5 -15t-86.5 -33l-27 161q28 15 65.5 26.5t79.5 20t84.5 13t78.5 4.5q70 0 118 -15.5t77.5 -42.5t42.5 -63.5t13 -78.5q0 -85 -33 -138t-84 -88t-110 -56t-109 -41 t-84 -46t-34 -68q0 -45 33 -69.5t83 -24.5q23 0 51.5 5.5t56.5 14t51.5 19t37.5 20.5l99 -92l-92 -320h-164l52 213q-30 -19 -67 -29.5t-87 -10.5q-67 0 -118 20t-85.5 54t-53 77t-18.5 88z" />
<glyph unicode="&#x4f8;" horiz-adv-x="1331" d="M35 12l256 1207h226l-92 -437q23 3 57.5 8.5t74.5 5.5q83 0 148.5 -23.5t110 -66.5t67 -101t22.5 -128q0 -115 -38 -206.5t-111 -156t-179.5 -98t-242.5 -33.5h-45.5t-27.5 2q-31 0 -68 3.5t-79.5 8.5t-78.5 15zM301 206q36 -10 94 -11q58 0 107.5 15.5t86 46t57 74 t20.5 101.5q0 151 -184 151q-23 0 -55.5 -4t-47.5 -9zM574 1389q0 50 35 75.5t90 25.5q56 0 91 -25t35 -76q0 -50 -35 -74.5t-91 -24.5t-90.5 24.5t-34.5 74.5zM928 0l258 1219h226l-258 -1219h-226zM929 1389q0 50 35 75.5t90 25.5q56 0 91 -25t35 -76q0 -50 -35 -74.5 t-91 -24.5t-90.5 24.5t-34.5 74.5z" />
<glyph unicode="&#x4f9;" horiz-adv-x="1174" d="M63 150q0 24 5 54l146 666h214l-73 -320q35 8 83.5 15.5t85.5 7.5q129 0 182 -52.5t53 -135.5q0 -88 -37.5 -161.5t-100.5 -126t-146 -81t-176 -28.5q-123 0 -179.5 42.5t-56.5 119.5zM284 223q0 -56 68 -56q36 0 70 12t59.5 33t41 50t15.5 64q0 48 -23.5 68t-82.5 20 q-32 0 -58.5 -6t-51.5 -14l-33 -147q-2 -6 -3.5 -11.5t-1.5 -12.5zM434 1100q0 58 32 90t83 32q50 0 82 -32t32 -90q0 -56 -32 -87t-82 -31q-51 0 -83 31t-32 87zM785 0l185 870h214l-184 -870h-215zM796 1102q0 56 32.5 88t82.5 32t82.5 -32t32.5 -88t-32.5 -88t-82.5 -32 t-82.5 32t-32.5 88z" />
<glyph unicode="&#x4fc;" horiz-adv-x="1058" d="M-42 0l486 621l-195 598h247l105 -352l17 -124l63 122l261 354h269l-455 -587l126 -371q27 -66 41.5 -126t14.5 -133q0 -93 -23 -161.5t-66 -113t-103 -66t-131 -21.5q-60 0 -115 12l41 193q57 -5 90.5 5.5t52.5 32t26 53t7 67.5q0 14 -4 36t-10.5 46.5t-14 48.5 t-14.5 45l-73 197l-18 129l-68 -129l-284 -376h-273z" />
<glyph unicode="&#x4fd;" horiz-adv-x="862" d="M-71 0l360 445l-156 425h243l66 -186l21 -121l77 121l149 186h251l-339 -418l93 -229q25 -56 36 -105.5t11 -115.5q0 -85 -26.5 -151.5t-74 -112.5t-110.5 -69.5t-136 -23.5q-51 0 -100 10l37 178q86 -14 137.5 29.5t51.5 122.5q0 36 -6 68t-19 69l-37 87l-31 125 l-77 -125l-172 -209h-249z" />
<glyph unicode="&#x2000;" horiz-adv-x="761" />
<glyph unicode="&#x2001;" horiz-adv-x="1522" />
<glyph unicode="&#x2002;" horiz-adv-x="761" />
<glyph unicode="&#x2003;" horiz-adv-x="1522" />
<glyph unicode="&#x2004;" horiz-adv-x="507" />
<glyph unicode="&#x2005;" horiz-adv-x="380" />
<glyph unicode="&#x2006;" horiz-adv-x="253" />
<glyph unicode="&#x2007;" horiz-adv-x="253" />
<glyph unicode="&#x2008;" horiz-adv-x="190" />
<glyph unicode="&#x2009;" horiz-adv-x="304" />
<glyph unicode="&#x200a;" horiz-adv-x="84" />
<glyph unicode="&#x2013;" horiz-adv-x="1091" d="M183 411l43 181h729l-43 -181h-729z" />
<glyph unicode="&#x2014;" horiz-adv-x="1355" d="M183 411l43 181h995l-45 -181h-993z" />
<glyph unicode="&#x2018;" horiz-adv-x="374" d="M173 1090q0 69 29 123t70.5 91.5t82 59.5t65.5 27l32 -94q-35 -13 -65 -44t-40 -66q30 0 48.5 -26t18.5 -63q0 -68 -40 -100.5t-87 -32.5q-29 0 -51 11t-36 29t-20.5 40t-6.5 45z" />
<glyph unicode="&#x2019;" horiz-adv-x="374" d="M173 902q36 15 66 41.5t43 66.5q-31 3 -52 28.5t-19 70.5q0 32 13 55t32 39t41.5 23.5t43.5 7.5q61 0 87.5 -31.5t26.5 -84.5q0 -72 -27.5 -126t-66.5 -92t-81.5 -60.5t-73.5 -33.5z" />
<glyph unicode="&#x201a;" horiz-adv-x="392" d="M15 -111q36 15 66 41.5t43 66.5q-31 3 -52 28.5t-19 70.5q0 32 13 55t32 39t41.5 23.5t43.5 7.5q61 0 87.5 -31.5t26.5 -84.5q0 -72 -27.5 -126t-66.5 -92t-81.5 -60.5t-73.5 -33.5z" />
<glyph unicode="&#x201c;" horiz-adv-x="659" d="M173 1090q0 69 29 123t70.5 91.5t82 59.5t65.5 27l32 -94q-35 -13 -65 -44t-40 -66q30 0 48.5 -26t18.5 -63q0 -68 -40 -100.5t-87 -32.5q-29 0 -51 11t-36 29t-20.5 40t-6.5 45zM459 1090q0 69 29 123t70.5 91.5t82 59.5t65.5 27l32 -94q-35 -13 -65 -44t-40 -66 q30 0 48.5 -26t18.5 -63q0 -68 -40 -100.5t-87 -32.5q-29 0 -51 11t-36 29t-20.5 40t-6.5 45z" />
<glyph unicode="&#x201d;" horiz-adv-x="659" d="M173 902q36 15 66 41.5t43 66.5q-31 3 -52 28.5t-19 70.5q0 32 13 55t32 39t41.5 23.5t43.5 7.5q61 0 87.5 -31.5t26.5 -84.5q0 -72 -27.5 -126t-66.5 -92t-81.5 -60.5t-73.5 -33.5zM457 902q36 15 66 41.5t43 66.5q-31 3 -52 28.5t-19 70.5q0 32 13 55t32 39t41.5 23.5 t43.5 7.5q61 0 87.5 -31.5t26.5 -84.5q0 -72 -27.5 -126t-66.5 -92t-81.5 -60.5t-73.5 -33.5z" />
<glyph unicode="&#x201e;" horiz-adv-x="676" d="M15 -111q36 15 66 41.5t43 66.5q-31 3 -52 28.5t-19 70.5q0 32 13 55t32 39t41.5 23.5t43.5 7.5q61 0 87.5 -31.5t26.5 -84.5q0 -72 -27.5 -126t-66.5 -92t-81.5 -60.5t-73.5 -33.5zM296 -111q36 15 66 41.5t43 66.5q-31 3 -52 28.5t-19 70.5q0 32 13 55t32 39t41.5 23.5 t43.5 7.5q61 0 87.5 -31.5t26.5 -84.5q0 -72 -27.5 -126t-66.5 -92t-81.5 -60.5t-73.5 -33.5z" />
<glyph unicode="&#x2026;" horiz-adv-x="1337" d="M33 115q0 61 38 96.5t100 35.5q65 0 103 -35.5t38 -96.5t-38 -98t-103 -37q-63 0 -100.5 37t-37.5 98zM481 115q0 61 38 96.5t100 35.5q65 0 103 -35.5t38 -96.5t-38 -98t-103 -37q-63 0 -100.5 37t-37.5 98zM932 115q0 61 38 96.5t100 35.5q65 0 103 -35.5t38 -96.5 t-38 -98t-103 -37q-63 0 -100.5 37t-37.5 98z" />
<glyph unicode="&#x202f;" horiz-adv-x="304" />
<glyph unicode="&#x2039;" horiz-adv-x="510" d="M56 450l348 401l104 -111l-184 -220l-96 -68l63 -64l104 -214l-146 -108z" />
<glyph unicode="&#x203a;" horiz-adv-x="510" d="M54 173l188 221l95 71l-60 68l-108 216l150 102l191 -384l-348 -401z" />
<glyph unicode="&#x205f;" horiz-adv-x="380" />
<glyph unicode="&#x20ac;" d="M-10 402l88 162h113q7 52 18 101h-166l91 162h125q58 133 146 223q98 101 214.5 147t221.5 46q85 0 147.5 -16.5t104.5 -40.5l-92 -158q-31 16 -77.5 25t-110.5 9q-68 0 -144 -36.5t-139 -111.5q-34 -38 -60 -87h442l-80 -162h-425q-10 -47 -17 -101h386l-80 -162h-309 q3 -38 10 -71q12 -54 42.5 -93.5t80.5 -60.5t126 -21q65 0 116.5 16t97.5 40l30 -158q-60 -39 -145 -59t-169 -20q-103 0 -176.5 32.5t-122.5 90t-71 135.5q-23 76 -23 169h-193z" />
<glyph unicode="&#x2122;" horiz-adv-x="1658" d="M160 1027v192h636v-192h-206v-435h-224v435h-206zM857 592v627h226l158 -262l42 -110h1l45 113l146 259h224v-627h-197v250l28 180h-8l-63 -148l-119 -204h-136l-119 199l-67 153h-10l42 -178v-252h-193z" />
<glyph unicode="&#x25fc;" horiz-adv-x="870" d="M0 0v870h870v-870h-870z" />
</font>
</defs>
</svg>
